<?xml version="1.0" encoding="utf-8"?>
<!-- Generator: Adobe Illustrator 16.0.0, SVG Export Plug-In . SVG Version: 6.00 Build 0)  -->
<!DOCTYPE svg PUBLIC "-//W3C//DTD SVG 1.1//EN" "http://www.w3.org/Graphics/SVG/1.1/DTD/svg11.dtd">
<svg version="1.1" id="圖層_4" xmlns="http://www.w3.org/2000/svg" xmlns:xlink="http://www.w3.org/1999/xlink" x="0px" y="0px"
	 width="328px" height="181.5px" viewBox="0 0 328 181.5" enable-background="new 0 0 328 181.5" xml:space="preserve">
<path fill="#366497" d="M316.34,123.057c36.504,32.168-69.314,21.786-91.344,39.043c-8.018,6.279-5.868,9.771-23.395,12.36
	c-13.442,1.987-30.438,1.597-44.979,0.796c-31.155-1.714-61.87-11.535-93.287-14.99c-38.831-4.271-63.697-15.205-56.042-33.759
	c7.314-17.731,47.236-17.752,81.645-20.132C187.129,99.581,290.84,100.598,316.34,123.057"/>
<polygon fill="#386DA6" points="305.469,136.486 323.945,132.568 324.775,109.046 307.586,106.941 "/>
<polygon fill="#386DA6" points="6.093,129.902 23.506,125.906 24.335,102.384 6.503,110.198 "/>
<path fill="#85CEE3" d="M317.385,94.48c35.982,39.47-69.785,28.396-92.148,50.304c-8.139,7.973-6.049,12.289-23.641,15.827
	c-13.496,2.719-30.508,2.529-45.053,1.789c-31.168-1.586-61.744-13.291-93.139-17.043c-38.803-4.642-63.507-17.836-55.519-41.106
	c7.641-22.243,47.613-22.974,82.107-26.55C188.428,67.493,292.248,66.924,317.385,94.48"/>
<path fill="#366497" d="M226.448,143.186c0,0-13.403,16.166-27.912,17.982l-3.308,14.036c0,0,22.688-1.506,28.035-11.658
	c0,0,4.494-4.339,11.932-6.29c7.443-1.951,0,0,0,0l-8.159-14.029"/>
<path fill="#6AADBD" d="M195.229,175.203l-37.707-12.702c0,0,33.688,0.724,41.014-1.332
	C205.861,159.111,195.229,175.203,195.229,175.203"/>
<path fill="#4C81A7" d="M195.229,175.203c0,0-40.893,3.063-77.444-5.273l7.642-11.838c0,0,13.724,3.264,32.096,4.409
	L195.229,175.203z"/>
<path fill="#6AACBF" d="M125.425,158.091l-7.642,11.839c0,0-41.74-8.523-49.324-9.047l-1.551-15.072c0,0,25.024,3.621,56.996,11.967
	"/>
<path fill="#AADAE5" d="M277.467,83.152c8.928,0.909,18.348,3.103,22.926,5.043c5.724,2.426,8.484,4.956,7.998,8.922
	c-0.361,2.965-3.436,6.095-2.574,9.133c1.234,4.373,10.896,6.307,1.986,9.96c-4.963,2.035-11.713,2.851-17.719,3.583
	c-3.152,0.385-13.266,2.006-15.324-0.555c-3.369-4.211,13.158-8.018,12.979-12.512c-0.258-6.263-11.104-15.213-22.965-15.162
	c-7.926,0.035-10.937-4.265-5.539-7.104C262.902,82.531,270.014,82.394,277.467,83.152"/>
<path fill="#AADAE5" d="M95.489,82.627c-6.124-2.004-14.406,1.104-20.014,2.004C51.744,88.442-4.787,92.355,16.526,115.8
	c12.048,13.253,35.848,22.974,52.879,22.474c17.031-0.498-26.14-18.762-20.685-28.68c2.945-5.353,11.967-6.375,20.31-7.84
	c9.863-1.732,17.98-4.758,24.911-9.059c3.843-2.385,9.52-7.291,1.75-10C95.624,82.671,95.558,82.649,95.489,82.627"/>
<path fill="#AADAE5" d="M181.699,149.993c7.792-1.267,15.447-2.892,21.988-5.539c3.955-1.604,13.53-10.021,19.153-6.138
	c-1.626,3.668-4.151,7.279-7.862,10.332c-8.584,7.06-25.222,11.17-40.254,11.773c-3.918,0.157-26.337,1.135-23.294-4.111
	c2.676-4.603,19.792-4.725,26.677-5.758C179.303,150.373,180.504,150.188,181.699,149.993"/>
<path fill="#6AADBD" d="M323.717,137.794c0,0-5.186,7.151-32.787,10.615l-12.022-19.634c0,0,46.241-8.909,45.76-18.715
	L323.717,137.794z"/>
<path fill="#499EBA" d="M290.93,148.408l-12.022-19.633c0,0-44.952,6.156-52.458,14.408l8.748,14.071
	C235.195,157.256,279.988,150.176,290.93,148.408"/>
<g opacity="0.62">
	<defs>
		<rect id="SVGID_1_" x="170.574" y="15.188" opacity="0.62" width="44.242" height="44.243"/>
	</defs>
	<clipPath id="SVGID_2_">
		<use xlink:href="#SVGID_1_"  overflow="visible"/>
	</clipPath>
	<defs>
		<filter id="Adobe_OpacityMaskFilter" filterUnits="userSpaceOnUse" x="170.573" y="15.188" width="44.243" height="44.243">
			<feColorMatrix  type="matrix" values="1 0 0 0 0  0 1 0 0 0  0 0 1 0 0  0 0 0 1 0"/>
		</filter>
	</defs>
	<mask maskUnits="userSpaceOnUse" x="170.573" y="15.188" width="44.243" height="44.243" id="SVGID_3_">
		<g filter="url(#Adobe_OpacityMaskFilter)">
			<g enable-background="new    ">
				<g>
					<g>
						<defs>
							<rect id="SVGID_4_" x="170.574" y="15.188" width="44.242" height="44.243"/>
						</defs>
						<clipPath id="SVGID_5_" clip-path="url(#SVGID_2_)">
							<use xlink:href="#SVGID_4_"  overflow="visible"/>
						</clipPath>
					</g>
					<g>
						<defs>
							<rect id="SVGID_6_" x="170.574" y="15.188" width="44.242" height="44.243"/>
						</defs>
						<defs>
							<rect id="SVGID_7_" x="168.456" y="12.962" width="48.479" height="48.48"/>
						</defs>
						<clipPath id="SVGID_8_" clip-path="url(#SVGID_2_)">
							<use xlink:href="#SVGID_6_"  overflow="visible"/>
						</clipPath>
						<clipPath id="SVGID_9_" clip-path="url(#SVGID_8_)">
							<use xlink:href="#SVGID_7_"  overflow="visible"/>
						</clipPath>
						<g transform="matrix(1 0 0 1 0 9.536743e-007)">
							<g transform="matrix(1 0 0 1 1.525879e-005 9.536743e-007)" clip-path="url(#SVGID_9_)" enable-background="new    ">
								
									<image overflow="visible" width="208" height="208" xlink:href="20BC695E.jpeg"  transform="matrix(0.2331 0 0 0.2331 168.4551 12.9619)">
								</image>
							</g>
						</g>
					</g>
				</g>
			</g>
		</g>
	</mask>
	<g clip-path="url(#SVGID_2_)" mask="url(#SVGID_3_)">
		<g>
			<defs>
				<rect id="SVGID_10_" x="170.574" y="15.188" width="44.242" height="44.243"/>
			</defs>
			<clipPath id="SVGID_11_">
				<use xlink:href="#SVGID_10_"  overflow="visible"/>
			</clipPath>
			<path clip-path="url(#SVGID_11_)" fill="#FFFFFF" d="M214.816,37.309c0,12.217-9.904,22.121-22.123,22.121
				c-12.215,0-22.12-9.904-22.12-22.121c0-12.217,9.905-22.121,22.12-22.121C204.912,15.188,214.816,25.092,214.816,37.309"/>
		</g>
	</g>
</g>
<image overflow="visible" width="1050" height="567" xlink:href="20BC6967.png"  transform="matrix(0.2391 0 0 0.2383 34.1958 35.3076)">
</image>
<path fill="none" stroke="#6FAEBE" stroke-width="2" stroke-linecap="round" stroke-linejoin="round" stroke-miterlimit="10" d="
	M229.326,56.006c1.996,6.694,3.072,13.784,3.072,21.127c0,4.08-0.336,8.081-0.973,11.981c-3.398,5.954-8.48,12.892-16.023,18.987
	c-18.541,14.98-39.954,15.186-54.711,15.325c-12.764,0.121-28.222-0.813-46.141-9.229c-14.394-6.761-23.289-16.063-28.625-23.72
	c-0.79-4.329-1.205-8.788-1.205-13.345c0-8.344,1.385-16.363,3.936-23.843"/>
<path fill="#9CD7ED" d="M158.25,3.302c40.784,0,77,32.72,73.846,80.867c-0.056,0.853-0.061,1.703-0.066,2.551l1.621-0.023
	c-8.612,15.038-15.209,22.717-33.733,30.675c0,0-43.876,16.427-87.249-4.163c-12.524-5.945-20.501-15.198-20.501-15.198
	c-2.314-2.286-3.775-4.997-5.284-7.368l-0.699,0.011c-0.027-0.388-0.095-0.842-0.176-1.318c-0.13-0.183-0.256-0.373-0.389-0.549
	l0.293-0.004c-0.377-1.981-0.997-4.376-1.064-5.946C82.873,36.489,117.466,3.302,158.25,3.302"/>
<path fill="#89CFE2" d="M159.732,6.961c1.217,2.224-11.193,8.482-21.955,19.48c-4.164,4.255-18.633,20.006-21.783,40.954
	c-3.408,22.659,8.687,36.392,3.21,40.068c-5.299,3.557-22.014-5.677-28.433-19.481c-6.708-14.424-0.06-29.294,3.669-37.632
	c6.13-13.712,15.476-21.713,19.949-25.458c13.353-11.181,26.462-14.576,36-17.045C158.473,5.753,159.496,6.529,159.732,6.961"/>
<ellipse fill="none" stroke="#6FAEBE" stroke-width="2" stroke-linecap="round" stroke-linejoin="round" stroke-miterlimit="10" cx="159.119" cy="11.368" rx="19.191" ry="8.075"/>
<ellipse fill="none" stroke="#6FAEBE" stroke-width="2" stroke-linecap="round" stroke-linejoin="round" stroke-miterlimit="10" cx="158.604" cy="22.519" rx="37.408" ry="19.226"/>
<path fill="none" stroke="#6FAEBE" stroke-width="2" stroke-linecap="round" stroke-linejoin="round" stroke-miterlimit="10" d="
	M88.655,53.29c2.692-7.894,6.683-15.186,11.719-21.622"/>
<path fill="none" stroke="#6FAEBE" stroke-width="2" stroke-linecap="round" stroke-linejoin="round" stroke-miterlimit="10" d="
	M216.564,31.44c-13.521-17.142-34.479-28.147-58.005-28.147c-23.632,0-44.669,11.102-58.185,28.374"/>
<path fill="none" stroke="#6FAEBE" stroke-width="2" stroke-linecap="round" stroke-linejoin="round" stroke-miterlimit="10" d="
	M229.326,56.006c-2.693-9.035-7.064-17.345-12.762-24.565"/>
<path fill="none" stroke="#6FAEBE" stroke-width="2" stroke-linecap="round" stroke-linejoin="round" stroke-miterlimit="10" d="
	M216.564,31.44c0.555,5.139,0.117,11.196-3.084,16.786c-4.119,7.191-10.758,10.032-19.227,13.513
	c-22.21,9.13-42.628,7.366-51.745,6.042c-9.973-1.447-27.686-4.017-37.243-16.259c-1.574-2.016-4.687-6.109-5.383-12.195
	c-0.322-2.811-0.052-5.397,0.491-7.66"/>
<path fill="none" stroke="#6FAEBE" stroke-width="2" stroke-linecap="round" stroke-linejoin="round" stroke-miterlimit="10" d="
	M229.326,56.006c-0.023,5.021-1.034,10.449-3.967,15.552c-4.965,8.638-12.969,12.052-23.18,16.234
	c-26.775,10.968-51.393,8.849-62.384,7.259c-12.023-1.738-33.379-4.826-44.901-19.534c-1.897-2.422-5.65-7.34-6.49-14.651
	c-0.312-2.721-0.162-5.267,0.251-7.576"/>
<path fill="none" stroke="#6FAEBE" stroke-width="2" stroke-linecap="round" stroke-linejoin="round" stroke-miterlimit="10" d="
	M177.5,14.417c2.839,1.7,5.896,3.714,9.063,6.098c2.973,2.235,5.604,4.465,7.912,6.591"/>
<path fill="none" stroke="#6FAEBE" stroke-width="2" stroke-linecap="round" stroke-linejoin="round" stroke-miterlimit="10" d="
	M159.043,19.854c0.102,3.846,0.159,7.775,0.165,11.783c0.005,3.266-0.023,6.48-0.082,9.64"/>
<path fill="none" stroke="#6FAEBE" stroke-width="2" stroke-linecap="round" stroke-linejoin="round" stroke-miterlimit="10" d="
	M140.627,13.881c-2.807,1.343-6.138,3.21-9.635,5.803c-3.483,2.582-6.231,5.217-8.327,7.504"/>
<path fill="none" stroke="#6FAEBE" stroke-width="2" stroke-linecap="round" stroke-linejoin="round" stroke-miterlimit="10" d="
	M177.706,39.218c1.617,4.782,3.21,9.668,4.771,14.657c1.147,3.663,2.248,7.288,3.305,10.874"/>
<path fill="none" stroke="#6FAEBE" stroke-width="2" stroke-linecap="round" stroke-linejoin="round" stroke-miterlimit="10" d="
	M139.072,38.919c-1.587,3.671-3.154,7.774-4.57,12.288c-1.614,5.14-2.761,9.954-3.583,14.316"/>
<path fill="none" stroke="#6FAEBE" stroke-width="2" stroke-linecap="round" stroke-linejoin="round" stroke-miterlimit="10" d="
	M158.559,68.853c-0.272,4.498-0.428,9.18-0.437,14.036c-0.008,4.56,0.115,8.966,0.343,13.208"/>
<path fill="none" stroke="#6FAEBE" stroke-width="2" stroke-linecap="round" stroke-linejoin="round" stroke-miterlimit="10" d="
	M105.259,51.722c-1.889,3.408-3.91,7.688-5.58,12.785c-1.578,4.818-2.465,9.211-2.968,12.902"/>
<path fill="none" stroke="#6FAEBE" stroke-width="2" stroke-linecap="round" stroke-linejoin="round" stroke-miterlimit="10" d="
	M189.42,92.281c0.421,4.625,0.732,9.552,0.879,14.754c0.131,4.626,0.117,9.04,0,13.22"/>
<path fill="none" stroke="#6FAEBE" stroke-width="2" stroke-linecap="round" stroke-linejoin="round" stroke-miterlimit="10" d="
	M126.541,92.75c-0.247,4.543-0.416,9.199-0.495,13.962c-0.067,4.129-0.065,8.177,0,12.142"/>
<path fill="#6E9598" d="M231.497,60.531c-2.534-5.801-11.492-7.525-18.677-8.075c-2.26,0.751-5.982,2.397-8.35,6.043
	c-2.093,3.223-2.185,6.56-1.867,12.139c0.617,10.863,2.067,17.585,2.965,24.883c0.471,3.82,1.011,9.596,0.99,16.81
	c2.93,1.813,5.858,3.625,8.789,5.438l1.867,1.318c0.151,0.098,0.303,0.193,0.453,0.291c0.273-0.792,0.691-2.015,1.174-3.513
	c6.352-19.685,4.122-24.733,8.92-39.845C230.824,66.376,233.085,64.168,231.497,60.531"/>
<path fill="none" stroke="#6FAEBE" stroke-width="2" stroke-linecap="round" stroke-linejoin="round" stroke-miterlimit="10" d="
	M231.497,60.531c-2.534-5.801-11.492-7.525-18.677-8.075c-2.26,0.751-5.982,2.397-8.35,6.043c-2.093,3.223-2.185,6.56-1.867,12.139
	c0.617,10.863,2.067,17.585,2.965,24.883c0.471,3.82,1.011,9.596,0.99,16.81c2.93,1.813,5.858,3.625,8.789,5.438l1.867,1.318
	c0.151,0.098,0.303,0.193,0.453,0.291c0.273-0.792,0.691-2.015,1.174-3.513c6.352-19.685,4.122-24.733,8.92-39.845
	C230.824,66.376,233.085,64.168,231.497,60.531z"/>
<path fill="#C6E2EE" d="M235.648,99.957c0.312-11.594,0.361-21.024-0.225-32.23c-0.313-2.6-1.926-5.996-4.007-8.104
	c-1.21-1.227-2.579-2.018-3.942-1.964c-6.976,0.275-10.215,7.635-10.184,14.227c0.079,16.626,0.516,30.56,0.516,47.188
	C224.033,112.518,229.424,106.512,235.648,99.957"/>
<path fill="none" stroke="#6FAEBE" stroke-width="2" stroke-linecap="round" stroke-linejoin="round" stroke-miterlimit="10" d="
	M235.648,99.957c0.312-11.594,0.361-21.024-0.225-32.23c-0.313-2.6-1.926-5.996-4.007-8.104c-1.21-1.227-2.579-2.018-3.942-1.964
	c-6.976,0.275-10.215,7.635-10.184,14.227c0.079,16.626,0.516,30.56,0.516,47.188C224.033,112.518,229.424,106.512,235.648,99.957"
	/>
<path fill="#3C4355" d="M221.307,74.995c0-5.855,2.508-10.602,5.603-10.602s5.603,4.747,5.603,10.602l0.416,26.198l-11.885,12.791
	l0.264-38.77l0.002-0.001C221.309,75.141,221.307,75.067,221.307,74.995"/>
</svg>
