<?xml version="1.0" encoding="utf-8"?>
<!-- Generator: Adobe Illustrator 16.0.0, SVG Export Plug-In . SVG Version: 6.00 Build 0)  -->
<!DOCTYPE svg PUBLIC "-//W3C//DTD SVG 1.1//EN" "http://www.w3.org/Graphics/SVG/1.1/DTD/svg11.dtd">
<svg version="1.1" id="圖層_1" xmlns="http://www.w3.org/2000/svg" xmlns:xlink="http://www.w3.org/1999/xlink" x="0px" y="0px"
	 width="1500x" height="615px" viewBox="0 -100 595.28 615" enable-background="new 0 0 595.28 615" xml:space="preserve">
<g>
	<path fill="#366497" d="M157.414,420.447c-35.756,17.852,68.703,12.746,90.639,22.613c7.983,3.591,5.893,5.54,23.235,7.121
		c13.303,1.213,30.095,1.11,44.453,0.762c30.771-0.747,61.022-6.061,92.03-7.787c38.328-2.133,62.793-8.113,55.05-18.609
		c-7.402-10.032-46.851-10.322-80.872-11.902C284.86,408.136,182.393,407.983,157.414,420.447"/>
	<path fill="#83CFCF" d="M156.102,404.355c-35.169,21.965,69.234,16.471,91.545,28.958c8.119,4.544,6.096,6.959,23.514,9.074
		c13.362,1.623,30.17,1.635,44.534,1.321c30.781-0.676,60.881-7.05,91.865-8.944c38.295-2.341,62.58-9.596,54.457-22.75
		c-7.766-12.573-47.271-13.263-81.389-15.517C283.265,390.064,180.67,389.021,156.102,404.355"/>
	<path fill="#366497" d="M246.435,432.404c0,0,13.402,9.193,27.754,10.317l3.406,7.923c0,0-22.431-1.006-27.815-6.757
		c0,0-4.482-2.474-11.853-3.624c-7.372-1.15,0,0,0,0l7.927-7.839"/>
	<path fill="#6AADBD" d="M277.595,450.645l37.135-6.886c0,0-33.282,0.171-40.541-1.037
		C266.931,441.513,277.595,450.645,277.595,450.645"/>
	<path fill="#4C81A7" d="M277.595,450.645c0,0,40.437,2.009,76.472-2.428l-7.664-6.717c0,0-13.531,1.742-31.673,2.259
		L277.595,450.645z"/>
	<path fill="#6AACBF" d="M346.402,441.5l7.664,6.717c0,0,41.162-4.507,48.65-4.748l1.387-8.473c0,0-24.693,1.861-56.201,6.337"/>
	<path fill="#A2DBD4" d="M195.436,398.258c-8.813,0.449-18.099,1.619-22.604,2.679c-5.631,1.326-8.336,2.729-7.816,4.966
		c0.388,1.671,3.452,3.455,2.634,5.159c-1.177,2.452-10.706,3.474-1.866,5.592c4.924,1.181,11.602,1.687,17.542,2.141
		c3.118,0.239,13.13,1.222,15.135-0.205c3.29-2.346-13.079-4.604-12.943-7.133c0.192-3.523,10.826-8.485,22.544-8.374
		c7.833,0.074,10.766-2.324,5.403-3.96C209.82,398.01,202.792,397.883,195.436,398.258"/>
	<path fill="#A2DBD4" d="M375.245,399.232c6.032-1.085,14.244,0.722,19.794,1.268c23.486,2.312,79.387,4.908,58.553,17.956
		c-11.777,7.374-35.197,12.68-52.031,12.28c-16.832-0.4,25.646-10.379,20.16-16c-2.963-3.033-11.887-3.671-20.143-4.554
		c-9.764-1.044-17.813-2.805-24.704-5.272c-3.823-1.37-9.479-4.171-1.828-5.641C375.113,399.256,375.178,399.244,375.245,399.232"/>
	<path fill="#A2DBD4" d="M290.717,436.549c-7.712-0.768-15.292-1.734-21.782-3.271c-3.925-0.93-13.467-5.733-18.986-3.589
		c1.643,2.076,4.173,4.127,7.871,5.871c8.549,4.034,25.032,6.464,39.889,6.908c3.875,0.116,26.037,0.823,22.976-2.151
		c-2.688-2.608-19.602-2.798-26.414-3.427C293.086,436.779,291.9,436.667,290.717,436.549"/>
	<path fill="#499EBA" d="M182.769,434.895l11.688-10.966c0,0,44.479,3.778,51.978,8.477l-8.509,7.858
		C237.926,440.264,193.597,435.966,182.769,434.895"/>
</g>
</svg>
