<?xml version="1.0" encoding="utf-8"?>
<!-- Generator: Adobe Illustrator 16.0.0, SVG Export Plug-In . SVG Version: 6.00 Build 0)  -->
<!DOCTYPE svg PUBLIC "-//W3C//DTD SVG 1.1//EN" "http://www.w3.org/Graphics/SVG/1.1/DTD/svg11.dtd">
<svg version="1.1" id="圖層_1" xmlns="http://www.w3.org/2000/svg" xmlns:xlink="http://www.w3.org/1999/xlink" x="0px" y="0px"
	 width="325.805px" height="220.645px" viewBox="0 0 325.805 220.645" enable-background="new 0 0 325.805 220.645"
	 xml:space="preserve">
<g opacity="0.39">
	<defs>
		<rect id="SVGID_1_" x="188.543" y="163.414" opacity="0.39" width="20.471" height="20.471"/>
	</defs>
	<clipPath id="SVGID_2_">
		<use xlink:href="#SVGID_1_"  overflow="visible"/>
	</clipPath>
	<g clip-path="url(#SVGID_2_)">
		<defs>
			<filter id="Adobe_OpacityMaskFilter" filterUnits="userSpaceOnUse" x="188.543" y="163.414" width="20.473" height="20.471">
				<feColorMatrix  type="matrix" values="1 0 0 0 0  0 1 0 0 0  0 0 1 0 0  0 0 0 1 0"/>
			</filter>
		</defs>
		<mask maskUnits="userSpaceOnUse" x="188.543" y="163.414" width="20.473" height="20.471" id="SVGID_3_">
			<g filter="url(#Adobe_OpacityMaskFilter)">
				<g enable-background="new    ">
					<g>
						<g>
							<defs>
								<rect id="SVGID_4_" x="188.543" y="163.414" width="20.471" height="20.471"/>
							</defs>
							<clipPath id="SVGID_5_">
								<use xlink:href="#SVGID_4_"  overflow="visible"/>
							</clipPath>
						</g>
						<g>
							<defs>
								<rect id="SVGID_6_" x="188.543" y="163.414" width="20.471" height="20.471"/>
							</defs>
							<defs>
								<rect id="SVGID_7_" x="186.383" y="161.328" width="24.722" height="24.721"/>
							</defs>
							<clipPath id="SVGID_9_">
								<use xlink:href="#SVGID_6_"  overflow="visible"/>
							</clipPath>
							<clipPath id="SVGID_10_" clip-path="url(#SVGID_9_)">
								<use xlink:href="#SVGID_7_"  overflow="visible"/>
							</clipPath>
							<g transform="matrix(1 0 0 1 0 1.525879e-005)">
								<g clip-path="url(#SVGID_10_)" enable-background="new    ">
									
										<image overflow="visible" width="108" height="108" xlink:href="DDBB6157.jpg"  transform="matrix(0.2289 0 0 0.2289 186.3833 161.3264)">
									</image>
								</g>
							</g>
						</g>
					</g>
				</g>
			</g>
		</mask>
		<g mask="url(#SVGID_3_)">
			<g>
				<defs>
					<rect id="SVGID_11_" x="188.543" y="163.414" width="20.471" height="20.471"/>
				</defs>
				<clipPath id="SVGID_12_">
					<use xlink:href="#SVGID_11_"  overflow="visible"/>
				</clipPath>
				<path clip-path="url(#SVGID_12_)" fill="#FFFFFF" d="M209.016,173.649c0,5.654-4.582,10.234-10.234,10.234
					s-10.234-4.58-10.234-10.234c0-5.65,4.582-10.232,10.234-10.232S209.016,167.996,209.016,173.649"/>
			</g>
		</g>
	</g>
</g>
<path fill="#366497" d="M13.865,170.848c-34.781,32.975,69.319,18.449,91.758,34.42c8.167,5.814,6.183,9.314,23.595,11.125
	c13.354,1.393,30.125,0.307,44.455-1.078c30.701-2.963,60.648-13.838,91.541-18.514c38.182-5.781,62.309-17.502,54.016-35.334
	c-7.926-17.043-47.355-15.416-81.432-16.322C140.554,142.553,38.164,147.83,13.865,170.848"/>
<polygon fill="#386DA6" points="25.134,183.539 6.729,180.467 4.981,157.494 21.876,154.725 "/>
<path fill="#85CEE3" d="M11.704,142.94c-33.979,40.096,70.045,24.896,92.998,45.402c8.354,7.463,6.459,11.771,23.975,14.506
	c13.437,2.104,30.229,1.215,44.565-0.109c30.722-2.84,60.457-15.549,91.315-20.516c38.139-6.141,62.018-20.068,53.209-42.502
	c-8.426-21.439-47.936-20.506-82.144-22.58C138.001,111.219,35.441,114.951,11.704,142.94"/>
<path fill="#3F90BA" d="M103.443,186.828c0,0,13.876,15.262,28.277,16.438l3.822,13.592c0,0-22.467-0.533-28.149-10.244
	c0,0-4.61-4.061-12.034-5.66c-7.428-1.604,0,0,0,0l7.505-14.061"/>
<path fill="#6AADBD" d="M135.542,216.858l36.737-13.979c0,0-33.243,2.098-40.56,0.389S135.542,216.858,135.542,216.858"/>
<path fill="#6FB6D5" d="M135.542,216.858c0,0,40.508,1.307,76.278-8.354l-8.015-11.264c0,0-13.426,3.76-31.526,5.639
	L135.542,216.858z"/>
<path fill="#6AACBF" d="M203.805,197.24l8.016,11.264c0,0,40.889-10.063,48.357-10.885l0.937-14.809c0,0-24.571,4.572-55.817,14.059
	"/>
<path fill="#AADAE5" d="M50.681,130.211c-8.782,1.258-17.998,3.793-22.442,5.879c-5.557,2.611-8.184,5.197-7.547,9.059
	c0.475,2.887,3.633,5.818,2.903,8.826c-1.046,4.328-10.511,6.619-1.568,9.824c4.982,1.787,11.68,2.305,17.642,2.773
	c3.128,0.246,13.183,1.414,15.113-1.176c3.16-4.256-13.313-7.297-13.313-11.703c0.008-6.135,10.368-15.338,22.085-15.775
	c7.829-0.295,10.632-4.623,5.188-7.178C65.043,129.004,58.012,129.164,50.681,130.211"/>
<path fill="#AADAE5" d="M230.389,122.186c5.97-2.213,14.271,0.486,19.847,1.137c23.587,2.748,79.575,4.24,59.452,28.055
	c-11.377,13.461-34.498,23.951-51.338,24.166s25.076-19.436,19.295-28.908c-3.119-5.115-12.07-5.742-20.367-6.83
	c-9.809-1.289-17.946-3.912-24.961-7.832c-3.891-2.176-9.689-6.74-2.123-9.711C230.258,122.239,230.323,122.211,230.389,122.186"/>
<path fill="#AADAE5" d="M147.907,191.639c-7.747-0.916-15.37-2.188-21.938-4.51c-3.969-1.404-13.757-9.242-19.157-5.215
	c1.75,3.521,4.387,6.951,8.173,9.783c8.756,6.551,25.352,9.885,40.222,9.855c3.876-0.008,26.056,0.023,22.845-4.982
	c-2.824-4.391-19.733-3.805-26.575-4.531C150.288,191.914,149.094,191.781,147.907,191.639"/>
<path fill="#6FB6D5" d="M7.161,185.571c0,0,5.405,6.779,32.802,9.027l11.1-19.699c0,0-46.021-6.807-45.934-16.418L7.161,185.571z"/>
<path fill="#1580BC" d="M39.963,194.598l11.1-19.699c0,0,44.64,4.166,52.379,11.93l-8.083,14.125
	C95.359,200.953,50.84,195.873,39.963,194.598"/>
<defs>
	<filter id="Adobe_OpacityMaskFilter_1_" filterUnits="userSpaceOnUse" x="76.074" y="125.804" width="183.845" height="38.805">
		<feColorMatrix  type="matrix" values="1 0 0 0 0  0 1 0 0 0  0 0 1 0 0  0 0 0 1 0"/>
	</filter>
</defs>
<mask maskUnits="userSpaceOnUse" x="76.074" y="125.804" width="183.845" height="38.805" id="SVGID_8_">
	<g filter="url(#Adobe_OpacityMaskFilter_1_)">
		<g enable-background="new    ">
			<g>
				<g>
					<defs>
						<rect id="SVGID_13_" x="74.065" y="123.647" width="187.92" height="43.199"/>
					</defs>
					<clipPath id="SVGID_14_">
						<use xlink:href="#SVGID_13_"  overflow="visible"/>
					</clipPath>
					<g transform="matrix(1 0 0 1 7.629395e-006 0)">
						<g clip-path="url(#SVGID_14_)" enable-background="new    ">
							
								<image overflow="visible" width="788" height="183" xlink:href="DDBB6155.jpg"  transform="matrix(0.2385 0 0 0.2361 74.064 123.6467)">
							</image>
						</g>
					</g>
				</g>
			</g>
		</g>
	</g>
</mask>
<g mask="url(#SVGID_8_)">
	<g>
		<g>
			<defs>
				<rect id="SVGID_15_" x="76.074" y="125.805" width="183.84" height="38.803"/>
			</defs>
			<clipPath id="SVGID_16_">
				<use xlink:href="#SVGID_15_"  overflow="visible"/>
			</clipPath>
			<path clip-path="url(#SVGID_16_)" fill="#5F8E96" d="M76.08,140.592c-0.522,10.406,40.207,20.906,90.972,23.455
				c50.765,2.547,92.34-3.822,92.862-14.229c0.522-10.404-40.207-20.904-90.972-23.453
				C118.177,123.817,76.603,130.188,76.08,140.592"/>
		</g>
	</g>
</g>
<polygon fill="#416970" points="158.529,29.66 128.899,69.45 109.124,92.059 89.386,121.287 82.464,133.698 82.439,143.19 
	86.509,147.287 94.353,131.518 102.815,116.936 117.995,96.311 141.361,64.474 159.026,45.892 171.652,23.116 "/>
<polygon fill="none" stroke="#334B53" stroke-miterlimit="10" points="158.529,29.66 128.899,69.45 109.124,92.059 89.386,121.287 
	82.464,133.698 82.439,143.19 86.509,147.287 94.353,131.518 102.815,116.936 117.995,96.311 141.361,64.474 159.026,45.892 
	171.652,23.116 "/>
<polygon fill="#27363F" points="160.177,30.89 130.547,70.68 110.773,93.29 91.036,122.516 84.113,134.926 84.088,144.42 
	88.157,148.516 96.002,132.746 104.464,118.166 119.644,97.542 143.01,65.705 160.675,47.123 173.301,24.346 "/>
<polygon fill="#1C2329" points="214.82,57.013 223.51,91.502 226.483,112.928 234.225,136.996 238.489,146.309 245.282,150.149 
	250.947,149.264 244.891,138.026 240.1,126.879 235.475,109.115 228.291,81.732 226.797,63.244 218.917,46.203 "/>
<polygon fill="#27363F" points="217.049,57.567 225.741,92.054 228.711,113.481 236.455,137.551 240.717,146.864 247.512,150.705 
	253.176,149.817 247.121,138.58 242.33,127.434 237.705,109.67 230.521,82.288 229.027,63.798 221.147,46.757 "/>
<polygon fill="none" stroke="#334B53" stroke-miterlimit="10" points="217.049,57.567 225.741,92.054 228.711,113.481 
	236.455,137.551 240.717,146.864 247.512,150.705 253.176,149.817 247.121,138.58 242.33,127.434 237.705,109.67 230.521,82.288 
	229.027,63.798 221.147,46.757 "/>
<polygon fill="#487275" points="175.362,64.716 173.953,100.265 170.09,121.684 171.168,146.955 173.145,157.08 180.15,162.635 
	187.422,163.338 183.92,150.871 181.94,138.836 182.485,120.485 183.254,92.183 187.902,73.993 184.191,55.444 "/>
<polygon fill="none" stroke="#416970" stroke-miterlimit="10" points="175.362,64.716 173.953,100.265 170.09,121.684 
	171.168,146.955 173.145,157.08 180.15,162.635 187.422,163.338 183.92,150.871 181.94,138.836 182.485,120.485 183.254,92.183 
	187.902,73.993 184.191,55.444 "/>
<polygon fill="#27363F" points="178.571,65.538 177.162,101.086 173.299,122.506 174.377,147.776 176.354,157.899 183.359,163.455 
	190.631,164.16 187.129,151.69 185.149,139.66 185.694,121.307 186.463,93.005 191.111,74.813 187.4,56.265 "/>
<polygon fill="#648092" points="273.797,102.707 271.465,115.209 266.989,124.565 266.989,110.745 259.551,112.619 254.848,126.424 
	249.49,132.531 245.744,119.293 236.082,119.293 229.756,129.955 224.135,138.621 218.348,136.147 213.592,126.91 203.43,129.955 
	198.309,131.123 194.15,120.664 189.932,109.547 177.98,97.86 173.904,79.812 169.848,67.687 165.336,75.138 166.273,86.435 
	155.563,74.669 159.48,62.994 155.563,45.153 146.127,39.999 138.39,30.863 136.288,18.409 129.494,10.774 166.741,10.774 
	220.303,51.009 278.276,102.707 278.276,116.834 "/>
<polygon fill="#527778" points="273.797,102.23 271.465,114.739 266.989,124.09 266.989,110.268 259.551,112.143 254.848,125.951 
	249.49,132.055 245.744,118.821 236.082,118.821 229.756,129.477 224.135,138.145 218.348,135.672 213.592,126.432 203.43,129.477 
	198.309,130.649 194.15,120.188 189.932,109.072 177.98,97.385 173.904,79.339 169.848,67.214 165.336,74.663 166.273,85.961 
	155.563,74.192 159.48,62.518 155.563,44.677 146.127,39.523 138.39,30.387 136.288,17.934 129.494,10.3 166.741,10.3 
	220.303,50.534 278.276,102.23 278.276,116.36 "/>
<polygon fill="none" stroke="#3B4C5B" stroke-linecap="round" stroke-linejoin="round" stroke-miterlimit="10" points="
	273.797,102.23 271.465,114.739 266.989,124.09 266.989,110.268 259.551,112.143 254.848,125.951 249.49,132.055 245.744,118.821 
	236.082,118.821 229.756,129.477 224.135,138.145 218.348,135.672 213.592,126.432 203.43,129.477 198.309,130.649 194.15,120.188 
	189.932,109.072 177.98,97.385 173.904,79.339 169.848,67.214 165.336,74.663 166.273,85.961 155.563,74.192 159.48,62.518 
	155.563,44.677 146.127,39.523 138.39,30.387 136.288,17.934 129.494,10.3 166.741,10.3 220.303,50.534 278.276,102.23 
	278.276,116.36 "/>
<polygon fill="#676467" points="275.76,101.142 273.43,113.645 268.952,123 268.952,109.18 261.516,111.055 256.811,124.86 
	251.452,130.965 247.708,117.729 238.045,117.729 231.721,128.389 226.098,137.057 220.313,134.582 215.557,125.344 
	205.393,128.389 200.273,129.559 196.114,119.098 191.897,107.982 179.943,96.297 175.866,78.249 171.811,66.124 167.299,73.574 
	168.237,84.872 157.527,73.103 161.443,61.429 157.527,43.589 148.09,38.434 140.354,29.299 138.251,16.844 131.458,9.211 
	168.705,9.211 222.266,49.445 280.241,101.142 280.241,115.27 "/>
<path fill="#ABD8E4" d="M275.883,105.52l-1.824,8.492l-4.34,9.066v-13.397l-7.209,1.817l-4.561,13.381l-5.193,5.92l-3.631-12.83
	h-9.365l-6.131,10.332l-5.449,8.402l-5.609-2.398l-4.607-8.955l-9.852,2.951l-4.965,1.135l-4.032-10.139l-4.086-10.778
	l-11.588-11.328L179.492,79.7l-3.933-11.753l-4.373,7.22l0.908,10.953l-10.381-11.406l3.795-11.317l-3.795-17.293l-9.146-4.996
	l-7.5-8.854l-2.036-12.072l-6.586-7.398h36.103l51.92,38.999l56.193,50.11v13.697l-3.789-10.137
	C276.692,104.967,275.991,105.017,275.883,105.52"/>
<path fill="none" stroke="#3B4C5B" stroke-width="2" stroke-linecap="round" stroke-linejoin="round" stroke-miterlimit="10" d="
	M275.883,105.52l-1.824,8.492l-4.34,9.066v-13.397l-7.209,1.817l-4.561,13.381l-5.193,5.92l-3.631-12.83h-9.365l-6.131,10.332
	l-5.449,8.402l-5.609-2.398l-4.607-8.955l-9.852,2.951l-4.965,1.135l-4.032-10.139l-4.086-10.778l-11.588-11.328L179.492,79.7
	l-3.933-11.753l-4.373,7.22l0.908,10.953l-10.381-11.406l3.795-11.317l-3.795-17.293l-9.146-4.996l-7.5-8.854l-2.036-12.072
	l-6.586-7.398h36.103l51.92,38.999l56.193,50.11v13.697l-3.789-10.137C276.692,104.967,275.991,105.017,275.883,105.52z"/>
<polygon fill="#57A59D" points="191.905,19.333 259.121,78.844 277.643,99.391 207.012,120.826 142.64,6.976 "/>
<path fill="#487F7B" d="M153.148,10.861c-0.264-0.392-0.199-0.89,0.104-1.224l-10.611-2.662l64.374,113.851l12.494-3.791
	l-9.187-21.7L153.148,10.861z"/>
<path fill="#487F7B" d="M250.127,87.286l12.344,16.35c0.072,0.097,0.117,0.205,0.15,0.313l15.021-4.559l-18.522-20.547
	l-67.217-59.51l-6.94-1.741l65.096,69.613C250.083,87.23,250.106,87.259,250.127,87.286"/>
<path fill="#487F7B" d="M182.445,17.828c-0.24-0.257-0.302-0.604-0.222-0.922l-8.762-2.198l44.881,63.08l21.623,32.74
	c0.057,0.082,0.082,0.175,0.108,0.265l20.579-6.244l-12.091-16.015L182.445,17.828z"/>
<path fill="#487F7B" d="M171.154,14.913c-0.177-0.249-0.212-0.546-0.146-0.82l-15.971-4.007l56.994,84.21
	c0.036,0.054,0.066,0.111,0.093,0.171l9.265,21.885c0.016,0.033,0.012,0.068,0.021,0.105l16.723-5.076l-21.438-32.463
	L171.154,14.913z"/>
<g opacity="0.45">
	<g>
		<g>
			<defs>
				<rect id="SVGID_17_" x="176.025" y="19.939" width="97.56" height="87.923"/>
			</defs>
			<clipPath id="SVGID_18_">
				<use xlink:href="#SVGID_17_"  overflow="visible"/>
			</clipPath>
			<path clip-path="url(#SVGID_18_)" fill="#48867F" d="M194.491,23.874l-16.301-3.882c-1.729-0.411-2.902,1.717-1.631,2.96
				l38.296,37.376c0.103,0.1,0.192,0.213,0.269,0.337l28.479,46.361c0.408,0.664,1.209,0.979,1.962,0.771l26.737-7.411
				c1.27-0.352,1.711-1.928,0.809-2.889l-14.719-15.655c-0.028-0.031-0.059-0.061-0.09-0.089l-61.426-56.522
				c-0.092-0.084-0.191-0.156-0.299-0.22l-1.604-0.944C194.823,23.979,194.661,23.915,194.491,23.874"/>
		</g>
	</g>
</g>
<path fill="#82B4AE" d="M181.16,67.063c4.869,9.576,9.341,15.313,13.353,21.786c4.562,7.358,6.572,12.513,7.73,12.123
	c1.006-0.337,0.408-4.521,0.352-4.919c-0.597-4.186-2.479-7.208-5.621-11.596c-6.474-9.036-6.627-7.575-7.906-10.542
	c-2.535-5.877-1.165-9.832-4.568-12.123c-1.578-1.063-3.902-1.576-4.742-0.703C178.734,62.151,180.127,65.031,181.16,67.063"/>
<path fill="#D2EBF0" d="M181.688,66.307c4.867,9.576,9.34,15.313,13.353,21.786c4.562,7.358,6.572,12.511,7.73,12.123
	c1.006-0.337,0.407-4.523,0.352-4.92c-0.598-4.185-2.479-7.207-5.62-11.595c-6.475-9.036-6.629-7.575-7.908-10.542
	c-2.535-5.877-1.164-9.832-4.567-12.123c-1.579-1.063-3.903-1.576-4.743-0.703C179.26,61.395,180.654,64.274,181.688,66.307"/>
<path fill="#82B4AE" d="M259.652,108.674c-0.894-0.681-3.403,0.337-4.394,2.108c-0.643,1.15-0.129,1.699-0.176,5.708
	c-0.027,2.35-0.218,3.371,0.176,3.514c0.59,0.213,1.815-1.785,2.285-2.547c1.024-1.668,1.512-3.158,1.756-4.041
	C259.912,111.211,260.448,109.281,259.652,108.674"/>
<path fill="#CBEBE4" d="M260.178,108.278c-0.893-0.682-3.403,0.338-4.393,2.107c-0.643,1.152-0.129,1.701-0.176,5.71
	c-0.027,2.348-0.219,3.371,0.176,3.514c0.589,0.213,1.814-1.785,2.284-2.547c1.024-1.67,1.512-3.16,1.757-4.043
	C260.439,110.814,260.975,108.885,260.178,108.278"/>
<path fill="#82B4AE" d="M232.473,129.283c-0.713-0.543-2.721,0.27-3.51,1.686c-0.514,0.918-0.104,1.359-0.141,4.564
	c-0.021,1.877-0.175,2.691,0.141,2.807c0.471,0.172,1.449-1.426,1.824-2.035c0.82-1.334,1.209-2.523,1.404-3.229
	C232.682,131.309,233.11,129.768,232.473,129.283"/>
<path fill="#CBEBE4" d="M274.346,104.364c-0.482-0.544-1.844,0.27-2.379,1.685c-0.35,0.919-0.07,1.358-0.096,4.564
	c-0.016,1.877-0.117,2.694,0.096,2.807c0.318,0.17,0.98-1.426,1.236-2.035c0.557-1.334,0.818-2.523,0.951-3.229
	C274.487,106.392,274.778,104.849,274.346,104.364"/>
<path fill="#CBEBE4" d="M232.963,128.91c-0.711-0.543-2.72,0.27-3.51,1.686c-0.514,0.918-0.104,1.357-0.141,4.564
	c-0.022,1.875-0.174,2.691,0.141,2.807c0.471,0.17,1.451-1.426,1.824-2.035c0.82-1.334,1.209-2.525,1.404-3.23
	C233.172,130.938,233.6,129.395,232.963,128.91"/>
<path fill="#629286" d="M262.481,79.726c-3.553-0.911-3.715-3.717-7.028-5.738c-2.759-1.686-7.112-2.467-10.19-0.821
	c-2.953,1.581-2.443,4.179-6.03,6.268c-1.724,1.003-2.22,0.626-5.915,1.582c-5.332,1.378-9.825,2.54-10.776,5.504
	c-0.899,2.809,1.812,5.875,2.167,6.268c0.69,0.762,2.598,2.594,8.784,3.396c7.349,0.954,8.56-1.124,15.813-0.293
	c4.484,0.515,5.197,1.442,8.375,0.995c3.101-0.438,8.09-2.121,8.668-5.153c0.561-2.951-3.469-5.025-2.461-7.905
	c0.627-1.791,2.676-2.396,2.4-3.223C266.042,79.868,264.358,80.208,262.481,79.726"/>
<path fill="#D7EDF0" d="M264.167,77.681c-3.552-0.91-3.714-3.716-7.027-5.739c-2.76-1.685-7.114-2.466-10.189-0.819
	c-2.954,1.58-2.445,4.178-6.031,6.268c-1.724,1.003-2.22,0.625-5.916,1.581c-5.33,1.378-9.824,2.541-10.775,5.504
	c-0.9,2.809,1.813,5.875,2.168,6.268c0.689,0.763,2.598,2.595,8.783,3.396c7.348,0.954,8.56-1.124,15.813-0.293
	c4.485,0.514,5.198,1.442,8.375,0.996c3.101-0.438,8.089-2.122,8.667-5.154c0.563-2.951-3.467-5.025-2.459-7.905
	c0.625-1.791,2.674-2.396,2.4-3.222C267.729,77.823,266.043,78.162,264.167,77.681"/>
<path fill="#B7D2C7" d="M252.754,88.512c-2.539,1.201-5.15,1.058-8.345,0.878c-1.621-0.089-5.06-0.278-8.17-2.459
	c-1.567-1.098-1.591-1.678-2.987-2.283c-2.746-1.192-6.648-0.684-7.291,1.055c-0.511,1.385,1.114,3.376,2.549,4.393
	c1.356,0.962,2.633,1.115,7.026,1.405c6.312,0.416,5.503,0.222,7.644,0.438c3.619,0.366,5.287,0.857,8.347,0.438
	c2.741-0.375,3.551-1.063,3.864-1.757c0.377-0.834,0.207-2.049-0.439-2.459C254.282,87.738,253.258,88.275,252.754,88.512"/>
<path fill="#FFFFFF" d="M185.333,61.938c-0.424-0.272-0.811-0.376-1.055-0.438c-0.541-0.141-1.76-0.335-1.977,0.088
	c-0.252,0.487,0.939,1.566,1.055,1.669c1.041,0.943,1.748,0.846,1.977,1.494c0.291,0.825-0.668,1.521-0.352,1.976
	c0.328,0.473,1.803,0.372,2.283-0.395c0.33-0.526,0.063-1.154-0.438-2.329C186.504,63.247,186.161,62.471,185.333,61.938"/>
<path fill="#FFFFFF" d="M259.225,109.522c0.14,0.436,0.437,0.728,0.664,0.653c0.227-0.073,0.298-0.484,0.158-0.917
	c-0.141-0.434-0.438-0.726-0.664-0.653C259.157,108.679,259.086,109.09,259.225,109.522"/>
</svg>
