<?xml version="1.0" encoding="utf-8"?>
<!-- Generator: Adobe Illustrator 16.0.0, SVG Export Plug-In . SVG Version: 6.00 Build 0)  -->
<!DOCTYPE svg PUBLIC "-//W3C//DTD SVG 1.1//EN" "http://www.w3.org/Graphics/SVG/1.1/DTD/svg11.dtd">
<svg version="1.1" id="圖層_1" xmlns="http://www.w3.org/2000/svg" xmlns:xlink="http://www.w3.org/1999/xlink" x="0px" y="0px"
	 width="26.584px" height="26.584px" viewBox="0 0 26.584 26.584" enable-background="new 0 0 26.584 26.584" xml:space="preserve">
<g>
	<circle fill-rule="evenodd" clip-rule="evenodd" fill="#FFFFFF" cx="13.292" cy="13.293" r="12.905"/>
	<g>
		<path fill-rule="evenodd" clip-rule="evenodd" fill="#2B2125" d="M13.264,22.391c-0.699-0.643-1.408-1.258-2.072-1.906
			c-1.52-1.48-2.848-3.08-3.879-4.844c-0.74-1.268-1.279-2.59-1.484-4.002c-0.475-3.285,1.773-6.201,5.246-7.154
			c3.371-0.926,7.191,0.426,8.846,3.137c0.896,1.473,1.09,3.018,0.727,4.629c-0.387,1.707-1.229,3.258-2.279,4.73
			c-1.365,1.912-2.996,3.648-4.867,5.221C13.436,22.254,13.369,22.305,13.264,22.391z M13.326,21.051
			c0.061-0.086,0.094-0.154,0.148-0.205c1.293-1.199,2.486-2.463,3.521-3.832c1.051-1.389,1.941-2.842,2.418-4.455
			c0.42-1.424,0.412-2.82-0.316-4.186c-1.176-2.201-3.979-3.514-6.738-3.146c-3.17,0.424-5.52,2.803-5.471,5.549
			c0.027,1.455,0.535,2.809,1.258,4.109c1.049,1.887,2.475,3.563,4.078,5.131C12.563,20.348,12.918,20.668,13.326,21.051z"/>
		<path fill-rule="evenodd" clip-rule="evenodd" fill="#2B2125" d="M13.326,21.051c-0.408-0.383-0.764-0.703-1.102-1.035
			c-1.604-1.568-3.029-3.244-4.078-5.131c-0.723-1.301-1.23-2.654-1.258-4.109C6.84,8.029,9.189,5.65,12.359,5.227
			c2.76-0.367,5.563,0.945,6.738,3.146c0.729,1.365,0.736,2.762,0.316,4.186c-0.477,1.613-1.367,3.066-2.418,4.455
			c-1.035,1.369-2.229,2.633-3.521,3.832C13.42,20.896,13.387,20.965,13.326,21.051z M16.846,10.518
			c0.006-1.699-1.563-3.057-3.504-3.088c-1.939-0.031-3.574,1.367-3.604,3.029c-0.031,1.607,1.459,3.131,3.561,3.131
			C15.266,13.592,16.842,12.219,16.846,10.518z"/>
		<path fill-rule="evenodd" clip-rule="evenodd" fill="#FFFFFF" d="M16.846,10.865c-0.004,1.895-1.58,3.422-3.547,3.422
			c-2.102,0-3.592-1.695-3.561-3.486c0.029-1.85,1.664-3.406,3.604-3.371C15.283,7.467,16.852,8.977,16.846,10.865z M13.301,8.52
			c-1.342-0.004-2.438,1.043-2.441,2.328c-0.002,1.297,1.102,2.361,2.441,2.357c1.33-0.002,2.434-1.07,2.432-2.348
			C15.729,9.568,14.639,8.521,13.301,8.52z"/>
		<path fill-rule="evenodd" clip-rule="evenodd" fill="#FFFFFF" d="M13.301,8.465c1.338,0.002,2.428,1.063,2.432,2.365
			c0.002,1.293-1.102,2.373-2.432,2.375c-1.34,0.004-2.443-1.074-2.441-2.385C10.863,9.521,11.959,8.465,13.301,8.465z"/>
	</g>
</g>
</svg>
