<?xml version="1.0" encoding="utf-8"?>
<!-- Generator: Adobe Illustrator 16.0.0, SVG Export Plug-In . SVG Version: 6.00 Build 0)  -->
<!DOCTYPE svg PUBLIC "-//W3C//DTD SVG 1.1//EN" "http://www.w3.org/Graphics/SVG/1.1/DTD/svg11.dtd">
<svg version="1.1" id="圖層_1" xmlns="http://www.w3.org/2000/svg" xmlns:xlink="http://www.w3.org/1999/xlink" x="0px" y="0px"
	 width="32px" height="36px" viewBox="0 0 46.875 47.25" enable-background="new 0 0 46.875 47.25" xml:space="preserve">
<circle fill="#366497" cx="23.447" cy="23.428" r="22.75"/>
<path fill="#FFFFFF" d="M33.858,11.592h-2.521V10.3c0-0.45-0.33-0.845-0.777-0.895c-0.529-0.057-0.977,0.354-0.977,0.872v1.315
	H17.31V10.3c0-0.45-0.33-0.845-0.777-0.895c-0.529-0.057-0.976,0.354-0.976,0.872v1.315h-2.521c-1.998,0-3.617,1.62-3.617,3.617
	V33.84c0,1.997,1.619,3.616,3.617,3.616h20.823c1.996,0,3.616-1.619,3.616-3.616V15.209C37.475,13.212,35.854,11.592,33.858,11.592
	 M13.036,13.345h2.521V14.2c0,0.45,0.329,0.844,0.777,0.895c0.529,0.058,0.976-0.354,0.976-0.873v-0.876h12.274V14.2
	c0,0.45,0.329,0.844,0.777,0.895c0.528,0.058,0.977-0.354,0.977-0.873v-0.876h2.521c1.028,0,1.861,0.835,1.861,1.864v2.082H11.172
	v-2.082C11.172,14.18,12.006,13.345,13.036,13.345 M33.858,35.702H13.036c-1.03,0-1.864-0.833-1.864-1.862V19.044H35.72V33.84
	C35.72,34.869,34.887,35.702,33.858,35.702"/>
</svg>
