<?xml version="1.0" encoding="utf-8"?>
<!-- Generator: Adobe Illustrator 16.0.0, SVG Export Plug-In . SVG Version: 6.00 Build 0)  -->
<!DOCTYPE svg PUBLIC "-//W3C//DTD SVG 1.1//EN" "http://www.w3.org/Graphics/SVG/1.1/DTD/svg11.dtd">
<svg version="1.1" id="圖層_1" xmlns="http://www.w3.org/2000/svg" xmlns:xlink="http://www.w3.org/1999/xlink" x="0px" y="0px"
	 width="757.621px" height="314px" viewBox="-31.124 0 757.621 314" enable-background="new -31.124 0 757.621 314"
	 xml:space="preserve">
<path fill="#4DAC27" d="M134.663,242.333c0-9.036-7.327-16.362-16.362-16.362c-0.462,0-0.918,0.023-1.371,0.063H9.399
	c-0.451-0.037-0.907-0.063-1.37-0.063c-9.036,0-16.363,7.326-16.363,16.362c0,9.034,7.327,16.362,16.363,16.362
	c0.017,0,0.034-0.002,0.05-0.002v0.063h110.27v-0.063C127.364,258.667,134.663,251.352,134.663,242.333"/>
<path fill="#4DAC27" d="M419.187,242.333c0-9.036-7.326-16.362-16.362-16.362c-0.462,0-0.919,0.023-1.37,0.063H293.922
	c-0.452-0.037-0.908-0.063-1.371-0.063c-9.036,0-16.362,7.326-16.362,16.362c0,9.034,7.326,16.362,16.362,16.362
	c0.018,0,0.033-0.002,0.051-0.002v0.063h110.271v-0.063C411.886,258.667,419.187,251.352,419.187,242.333"/>
<path fill="#4DAC27" d="M703.707,241.633c0-9.035-7.326-16.361-16.362-16.361c-0.461,0-0.918,0.022-1.369,0.062H578.444
	c-0.452-0.037-0.908-0.062-1.37-0.062c-9.036,0-16.362,7.326-16.362,16.361s7.326,16.362,16.362,16.362
	c0.016,0,0.033-0.001,0.049-0.001v0.063h110.271v-0.063C696.408,257.967,703.707,250.652,703.707,241.633"/>
<path fill="#FFFFFF" d="M131.901,122.961c0,38.219-30.982,69.201-69.199,69.201c-38.22,0-69.201-30.982-69.201-69.201
	c0-38.217,30.981-69.2,69.201-69.2C100.919,53.761,131.901,84.744,131.901,122.961"/>
<path fill="none" stroke="#FFFFFF" stroke-miterlimit="10" d="M131.901,122.961c0,38.219-30.982,69.201-69.199,69.201
	c-38.22,0-69.201-30.982-69.201-69.201c0-38.217,30.981-69.2,69.201-69.2C100.919,53.761,131.901,84.744,131.901,122.961"/>
<circle fill="none" stroke="#A8CC06" stroke-width="6" stroke-miterlimit="10" cx="62.702" cy="122.961" r="69.2"/>
<g>
	<path fill="#2E320D" d="M24.213,134.677H9.863v-2.921l6.691-6.585c1.49-1.461,2.59-2.723,3.301-3.786
		c0.71-1.063,1.065-2.22,1.065-3.472c0-2.553-1.352-3.83-4.054-3.83c-2.027,0-3.974,0.85-5.841,2.549v-3.368
		c1.877-1.371,4.033-2.057,6.467-2.057c2.116,0,3.802,0.564,5.059,1.691c1.257,1.127,1.885,2.67,1.885,4.627
		c0,1.411-0.397,2.814-1.192,4.21s-2.181,3.047-4.158,4.955l-5.126,4.888v0.074h10.252L24.213,134.677L24.213,134.677z"/>
	<path fill="#2E320D" d="M32.749,130.758c1.589,1.004,3.218,1.504,4.888,1.504c1.49,0,2.701-0.406,3.635-1.222
		c0.934-0.814,1.401-1.917,1.401-3.308c0-2.881-1.848-4.321-5.543-4.321c-0.874,0-2.101,0.074-3.681,0.223v-12.04h11.727v3.011
		h-8.583v6.004c0.864-0.049,1.515-0.074,1.952-0.074c2.364,0,4.236,0.611,5.618,1.832c1.381,1.222,2.072,2.921,2.072,5.097
		c0,2.314-0.765,4.16-2.295,5.535c-1.53,1.376-3.571,2.064-6.125,2.064c-2.186,0-3.875-0.323-5.067-0.969L32.749,130.758
		L32.749,130.758z"/>
</g>
<g>
	<path fill="#2E320D" d="M53.67,132.948c0-0.605,0.219-1.107,0.656-1.505c0.437-0.396,0.958-0.596,1.564-0.596
		c0.596,0,1.113,0.196,1.55,0.589s0.656,0.896,0.656,1.512c0,0.577-0.209,1.071-0.625,1.483c-0.418,0.412-0.954,0.619-1.609,0.619
		c-0.606,0-1.123-0.201-1.55-0.604C53.884,134.043,53.67,133.544,53.67,132.948z"/>
</g>
<g>
	<path fill="#2E320D" d="M64.713,123.575c0-4.054,0.693-7.128,2.079-9.224c1.386-2.096,3.395-3.145,6.028-3.145
		c5.017,0,7.525,3.939,7.525,11.817c0,3.854-0.686,6.824-2.056,8.912c-1.371,2.085-3.358,3.129-5.961,3.129
		c-2.513,0-4.411-0.983-5.692-2.951C65.355,130.145,64.713,127.3,64.713,123.575z M68.274,123.44c0,5.882,1.425,8.821,4.276,8.821
		c2.812,0,4.218-2.999,4.218-9c0-6.16-1.376-9.239-4.128-9.239C69.729,114.023,68.274,117.162,68.274,123.44z"/>
</g>
<g>
	<path fill="#2E320D" d="M101.272,134.677h-14.35v-2.921l6.691-6.585c1.49-1.461,2.59-2.723,3.3-3.786
		c0.71-1.063,1.066-2.22,1.066-3.472c0-2.553-1.352-3.83-4.054-3.83c-2.027,0-3.974,0.85-5.841,2.549v-3.368
		c1.877-1.371,4.033-2.057,6.467-2.057c2.116,0,3.802,0.564,5.059,1.691c1.257,1.127,1.885,2.67,1.885,4.627
		c0,1.411-0.397,2.814-1.192,4.21c-0.795,1.396-2.181,3.047-4.158,4.955l-5.126,4.888v0.074h10.252L101.272,134.677L101.272,134.677
		z"/>
</g>
<g>
	<path fill="#2E320D" d="M115.409,128.737h-6.102v2.874c0,1.434-0.301,2.613-0.902,3.541l-0.658-0.44
		c0.519-0.79,0.778-1.824,0.778-3.101v-3.562h2.874c-0.114-0.177-0.225-0.33-0.333-0.458l0.851-0.185
		c0.114,0.194,0.237,0.408,0.368,0.642h3.126v0.689H115.409z M115.46,134.385l-0.235,0.745c-1.046-0.061-2.03-0.278-2.95-0.655
		c-0.755,0.317-1.649,0.542-2.681,0.676l-0.359-0.745c0.892-0.048,1.622-0.181,2.189-0.397c-0.508-0.316-0.898-0.749-1.172-1.296
		h-0.385v-0.692h4.597v0.692c-0.302,0.468-0.755,0.9-1.36,1.296C113.769,134.243,114.554,134.369,115.46,134.385z M115.324,130.239
		h-1.287v1.287h-3.382v-1.287h-1.052v-0.685h1.052v-0.518h0.752v0.518h1.864v-0.518h0.765v0.518h1.287L115.324,130.239
		L115.324,130.239z M113.472,132.714h-2.318c0.237,0.359,0.599,0.682,1.086,0.967C112.796,133.361,113.207,133.039,113.472,132.714z
		 M113.271,130.85v-0.611h-1.864v0.611H113.271z"/>
</g>
<path fill="#49AA27" stroke="#49AA27" stroke-width="3" stroke-miterlimit="10" d="M131.901,126.776
	c-2.106,0-3.814-1.708-3.814-3.815c0-36.053-29.332-65.385-65.385-65.385c-2.107,0-3.815-1.708-3.815-3.815
	c0-2.107,1.708-3.815,3.815-3.815c40.26,0,73.014,32.754,73.014,73.015C135.716,125.068,134.008,126.776,131.901,126.776"/>
<path fill="#FFFFFF" d="M416.424,122.961c0,38.219-30.982,69.201-69.2,69.201c-38.218,0-69.2-30.982-69.2-69.201
	c0-38.217,30.981-69.2,69.2-69.2C385.441,53.761,416.424,84.744,416.424,122.961"/>
<path fill="none" stroke="#FFFFFF" stroke-miterlimit="10" d="M416.424,122.961c0,38.219-30.982,69.201-69.2,69.201
	c-38.218,0-69.2-30.982-69.2-69.201c0-38.217,30.981-69.2,69.2-69.2C385.441,53.761,416.424,84.744,416.424,122.961"/>
<circle fill="none" stroke="#A8CC06" stroke-width="6" stroke-miterlimit="10" cx="347.224" cy="122.961" r="69.2"/>
<g>
	<path fill="#2E320D" d="M329.706,122.548c-2.732-1.222-4.098-3.05-4.098-5.484c0-1.758,0.68-3.174,2.042-4.247
		c1.361-1.072,3.045-1.609,5.051-1.609c1.877,0,3.455,0.502,4.731,1.505c1.277,1.003,1.915,2.34,1.915,4.009
		c0,2.543-1.44,4.48-4.321,5.812v0.06c3.337,1.192,5.006,3.228,5.006,6.109c0,2.028-0.73,3.595-2.191,4.702
		c-1.46,1.108-3.413,1.662-5.856,1.662c-2.066,0-3.775-0.556-5.126-1.669c-1.352-1.112-2.027-2.593-2.027-4.441
		c0-2.891,1.624-5.007,4.873-6.349L329.706,122.548L329.706,122.548z M332.269,124.112c-2.672,1.063-4.009,2.617-4.009,4.665
		c0,1.073,0.397,1.935,1.193,2.584c0.794,0.652,1.808,0.977,3.04,0.977c1.203,0,2.188-0.318,2.958-0.954
		c0.77-0.635,1.155-1.49,1.155-2.563C336.605,126.706,335.16,125.135,332.269,124.112z M335.905,117.078
		c0-0.963-0.306-1.726-0.917-2.287c-0.611-0.561-1.429-0.842-2.452-0.842c-0.974,0-1.795,0.298-2.466,0.895
		c-0.671,0.596-1.006,1.335-1.006,2.22c0,1.809,1.132,3.174,3.397,4.099C334.757,120.208,335.905,118.847,335.905,117.078z"/>
	<path fill="#2E320D" d="M361.175,134.677h-14.35v-2.92l6.691-6.586c1.49-1.461,2.59-2.723,3.301-3.786
		c0.71-1.063,1.065-2.219,1.065-3.471c0-2.554-1.352-3.83-4.054-3.83c-2.027,0-3.974,0.849-5.841,2.548v-3.368
		c1.877-1.371,4.033-2.056,6.467-2.056c2.116,0,3.802,0.564,5.059,1.691c1.257,1.127,1.885,2.67,1.885,4.626
		c0,1.411-0.397,2.814-1.192,4.209c-0.795,1.396-2.181,3.047-4.158,4.955l-5.126,4.888v0.074h10.252L361.175,134.677
		L361.175,134.677z"/>
</g>
<g>
	<path fill="#2E320D" d="M375.314,132.873c-0.023,0.656-0.08,1.136-0.172,1.441c-0.091,0.305-0.242,0.51-0.453,0.613
		c-0.211,0.104-0.588,0.156-1.133,0.156c-0.373,0-0.664-0.01-0.873-0.027c-0.207-0.019-0.375-0.085-0.5-0.199
		c-0.125-0.114-0.188-0.276-0.188-0.487v-3.502h-1.348c-0.058,1.198-0.272,2.104-0.647,2.719c-0.375,0.616-0.994,1.144-1.858,1.583
		l-0.569-0.65c0.79-0.329,1.355-0.752,1.695-1.272s0.527-1.314,0.563-2.379h-2.039v-0.761h7.372v0.761h-2.356v3.216
		c0,0.091,0.029,0.15,0.088,0.179c0.058,0.029,0.297,0.043,0.716,0.043c0.325,0,0.528-0.019,0.612-0.058
		c0.082-0.039,0.137-0.099,0.162-0.179c0.026-0.082,0.055-0.252,0.086-0.513c0.03-0.261,0.053-0.604,0.063-1.033L375.314,132.873z
		 M374.639,128.443h-6.304v-0.77h6.304V128.443z"/>
</g>
<path fill="#FFFFFF" d="M700.945,122.961c0,38.219-30.981,69.201-69.199,69.201c-38.219,0-69.201-30.982-69.201-69.201
	c0-38.217,30.983-69.2,69.201-69.2S700.945,84.744,700.945,122.961"/>
<path fill="none" stroke="#FFFFFF" stroke-miterlimit="10" d="M700.945,122.961c0,38.219-30.981,69.201-69.199,69.201
	c-38.219,0-69.201-30.982-69.201-69.201c0-38.217,30.983-69.2,69.201-69.2S700.945,84.744,700.945,122.961"/>
<circle fill="none" stroke="#A8CC06" stroke-width="6" stroke-miterlimit="10" cx="631.745" cy="122.961" r="69.201"/>
<g>
	<path fill="#2E320D" d="M602.165,134.677h-13.59v-2.921h5.052v-16.674l-5.186,1.4v-3.069l8.688-2.28v20.624h5.036V134.677
		L602.165,134.677z"/>
	<path fill="#2E320D" d="M609.851,130.46c1.58,1.203,3.368,1.803,5.364,1.803c1.48,0,2.663-0.36,3.548-1.081
		c0.884-0.719,1.326-1.695,1.326-2.928c0-2.712-1.977-4.068-5.931-4.068h-1.969v-2.817h1.85c3.525,0,5.29-1.267,5.29-3.8
		c0-2.364-1.347-3.546-4.039-3.546c-1.59,0-3.109,0.537-4.562,1.609v-3.128c1.521-0.864,3.317-1.297,5.396-1.297
		c1.986,0,3.612,0.505,4.88,1.513c1.267,1.008,1.9,2.368,1.9,4.076c0,3.03-1.54,4.961-4.62,5.796v0.061
		c1.629,0.159,2.936,0.743,3.919,1.75c0.982,1.008,1.476,2.248,1.476,3.719c0,2.146-0.775,3.839-2.332,5.082
		c-1.556,1.241-3.578,1.862-6.071,1.862c-2.257,0-4.063-0.402-5.426-1.207V130.46z"/>
	<path fill="#2E320D" d="M631.188,132.949c0-0.606,0.221-1.108,0.656-1.505c0.438-0.397,0.958-0.597,1.564-0.597
		c0.596,0,1.111,0.197,1.55,0.589c0.437,0.393,0.655,0.897,0.655,1.513c0,0.576-0.209,1.07-0.626,1.482
		c-0.418,0.413-0.954,0.619-1.609,0.619c-0.604,0-1.123-0.201-1.55-0.604C631.4,134.043,631.188,133.544,631.188,132.949z"/>
	<path fill="#2E320D" d="M647.322,122.547c-2.731-1.222-4.1-3.05-4.1-5.484c0-1.758,0.683-3.174,2.041-4.247
		c1.36-1.072,3.045-1.609,5.054-1.609c1.878,0,3.455,0.502,4.729,1.505c1.276,1.003,1.915,2.34,1.915,4.008
		c0,2.543-1.44,4.481-4.322,5.813v0.059c3.341,1.192,5.009,3.229,5.009,6.11c0,2.027-0.73,3.594-2.19,4.702
		c-1.461,1.107-3.412,1.661-5.856,1.661c-2.063,0-3.773-0.556-5.125-1.669s-2.025-2.593-2.025-4.441
		c0-2.891,1.624-5.006,4.873-6.348L647.322,122.547L647.322,122.547z M649.886,124.112c-2.673,1.063-4.009,2.617-4.009,4.664
		c0,1.073,0.396,1.935,1.192,2.585c0.794,0.651,1.808,0.976,3.04,0.976c1.199,0,2.188-0.317,2.958-0.954
		c0.77-0.635,1.152-1.49,1.152-2.563C654.222,126.706,652.776,125.135,649.886,124.112z M653.521,117.078
		c0-0.963-0.307-1.726-0.916-2.288c-0.61-0.561-1.431-0.841-2.451-0.841c-0.976,0-1.796,0.298-2.467,0.894
		c-0.673,0.596-1.008,1.336-1.008,2.22c0,1.808,1.135,3.174,3.397,4.099C652.374,120.208,653.521,118.847,653.521,117.078z"/>
</g>
<g>
	<path fill="#2E320D" d="M666.691,127.699c-0.57,1.542-1.508,2.838-2.812,3.887l-0.501-0.667c1.173-0.881,2.018-2.042,2.531-3.486
		L666.691,127.699z M670.596,134.694l-0.694,0.483c-0.162-0.382-0.327-0.71-0.491-0.983c-1.351,0.316-2.998,0.605-4.948,0.867
		l-0.227-0.666c0.749-0.542,1.627-2.028,2.634-4.456l0.796,0.235c-0.71,1.662-1.44,2.988-2.189,3.977
		c1.314-0.151,2.494-0.358,3.54-0.62c-0.176-0.305-0.479-0.746-0.908-1.325l0.646-0.42
		C669.476,132.698,670.092,133.668,670.596,134.694z M671.169,130.957l-0.466,0.689c-1.084-0.767-1.894-1.885-2.425-3.353h-0.71
		v-0.745h1.27C669.285,129.042,670.063,130.179,671.169,130.957z"/>
	<path fill="#2E320D" d="M680.879,130.918h-2.313v4.195h-0.797v-4.195h-2.891c-0.061,1.871-0.411,3.279-1.053,4.225l-0.628-0.534
		c0.59-0.921,0.885-2.043,0.885-3.366v-3.258c2.507,0,4.448-0.192,5.824-0.578l0.437,0.693c-1.355,0.391-3.179,0.603-5.465,0.637
		v1.419h5.999L680.879,130.918L680.879,130.918z"/>
</g>
<rect x="971.058" y="-41.373" fill="#1580BC" width="139.493" height="113.967"/>
<g>
	<path fill="#FFFFFF" d="M23.055,240.824h-1.478v-2.275H10.629v2.291H9.093v-3.602h6.259v-2.291h1.494v2.291h6.209V240.824z
		 M22.201,249.764h-1.444v-0.715h-9.297v0.715H9.982v-6.268h12.219V249.764z M13.758,236.457l-1.552,0.523
		c-0.438-0.504-0.93-0.975-1.478-1.412l1.494-0.588C12.892,235.5,13.405,235.992,13.758,236.457z M15.385,245.654v-0.971h-3.926
		v0.971H15.385z M15.385,247.83v-1.006h-3.926v1.006H15.385z M20.59,242.641h-9.015v-3.244h9.015V242.641z M19.096,241.488v-0.922
		h-6.019v0.922H19.096z M20.756,245.654v-0.971h-3.91v0.971H20.756z M20.756,247.83v-1.006h-3.91v1.006H20.756z M21.404,235.619
		c-0.487,0.537-1.013,0.996-1.577,1.377l-1.486-0.713c0.564-0.35,1.115-0.789,1.652-1.32L21.404,235.619z"/>
	<path fill="#FFFFFF" d="M40.901,248.285c0,0.443-0.119,0.791-0.357,1.043c-0.237,0.252-0.647,0.389-1.229,0.414
		s-1.112,0.037-1.594,0.037c-0.453,0-0.888-0.01-1.303-0.033l-0.531-1.543c1.046,0.055,1.854,0.082,2.424,0.082
		c0.465,0,0.752-0.029,0.863-0.086c0.11-0.059,0.166-0.188,0.166-0.387v-3.029h-8.517c-0.321,1.998-1.143,3.693-2.466,5.088
		l-1.104-1.121c0.658-0.664,1.188-1.52,1.589-2.568c0.401-1.049,0.603-2.545,0.603-4.486v-6.434h11.455V248.285z M39.34,239.213
		v-2.432H30.99v2.432H39.34z M39.34,243.305v-2.613H30.99v2.613H39.34z"/>
	<path fill="#FFFFFF" d="M48.145,245.945c-0.144,1.389-0.42,2.668-0.83,3.834l-1.295-0.605c0.421-1.174,0.697-2.387,0.83-3.645
		L48.145,245.945z M52.005,244.65l-1.229,0.539c-0.056-0.299-0.116-0.57-0.183-0.813c-1.655,0.42-3.038,0.705-4.15,0.854
		l-0.374-1.178c0.902-0.785,1.805-1.953,2.706-3.504c-0.824,0.156-1.597,0.264-2.315,0.324l-0.183-1.336
		c0.974-1.162,1.796-2.723,2.465-4.682l1.337,0.613c-0.581,1.566-1.259,2.82-2.034,3.762c0.515-0.039,1.041-0.119,1.577-0.242
		c0.166-0.309,0.484-0.973,0.955-1.992l1.378,0.631c-1.307,2.68-2.576,4.668-3.811,5.969c0.604-0.1,1.29-0.262,2.059-0.49
		c-0.055-0.232-0.163-0.533-0.323-0.904l1.153-0.49C51.565,243.006,51.889,243.986,52.005,244.65z M50.17,249.016l-1.312,0.258
		c-0.055-1.494-0.169-2.598-0.34-3.313l1.229-0.273C49.991,246.977,50.132,248.086,50.17,249.016z M51.847,247.697l-1.104,0.389
		c-0.089-0.734-0.246-1.535-0.474-2.398l1.055-0.273C51.612,246.227,51.787,246.988,51.847,247.697z M53.873,245.297
		c-0.144,1.467-0.495,2.82-1.054,4.061l-1.204-0.664c0.465-1.029,0.806-2.328,1.021-3.895L53.873,245.297z M60.165,244.053h-7.836
		v-8.002h2.075c0.205-0.344,0.396-0.752,0.573-1.229l1.552,0.291c-0.044,0.166-0.188,0.479-0.432,0.938h4.067V244.053z
		 M58.687,242.75v-5.412h-4.864v5.412H58.687z M58.546,241.404l-0.83,0.914c-0.404-0.428-0.711-0.742-0.922-0.947
		c-0.409,0.52-0.777,0.934-1.104,1.236l-0.863-0.764c0.354-0.326,0.717-0.746,1.087-1.262c-0.177-0.176-0.307-0.301-0.39-0.373
		c-0.194,0.244-0.484,0.572-0.872,0.988l-0.78-0.814c0.232-0.221,0.487-0.502,0.764-0.846c-0.177-0.139-0.403-0.305-0.681-0.498
		l0.772-0.914c0.116,0.066,0.307,0.203,0.572,0.408c0.133-0.244,0.279-0.557,0.44-0.939l1.004,0.531l-0.556,1.072
		c0.216,0.166,0.352,0.279,0.406,0.34c0.282-0.393,0.537-0.877,0.764-1.453l0.988,0.531c-0.249,0.615-0.534,1.176-0.855,1.686
		L58.546,241.404z M59.028,247.34c-0.066,0.73-0.166,1.242-0.299,1.535s-0.329,0.502-0.59,0.623
		c-0.26,0.121-0.771,0.182-1.535,0.182c-0.481,0-0.877-0.01-1.188-0.033c-0.31-0.021-0.579-0.145-0.809-0.369
		c-0.23-0.225-0.345-0.514-0.345-0.867v-3.627h1.444v3.162c0,0.178,0.058,0.293,0.174,0.35c0.116,0.055,0.438,0.082,0.963,0.082
		c0.282,0,0.471-0.041,0.564-0.125c0.095-0.082,0.166-0.246,0.216-0.488c0.05-0.244,0.075-0.541,0.075-0.889L59.028,247.34z
		 M58.056,246.318l-1.22,0.557c-0.238-0.781-0.507-1.453-0.806-2.018l1.212-0.465C57.498,244.846,57.769,245.488,58.056,246.318z
		 M61.103,248.186l-1.195,0.73c-0.271-1.096-0.689-2.219-1.254-3.369l1.188-0.715C60.527,246.305,60.948,247.422,61.103,248.186z"/>
	<path fill="#FFFFFF" d="M72.374,237.305c-0.011,2.461-0.071,4.867-0.183,7.217c-0.11,2.35-0.229,3.707-0.356,4.072
		c-0.128,0.365-0.354,0.652-0.681,0.863c-0.327,0.209-0.847,0.314-1.561,0.314c-0.354,0-0.709-0.014-1.063-0.041l-0.424-1.494
		c0.46,0.033,0.836,0.049,1.129,0.049c0.714,0,1.128-0.213,1.241-0.639s0.233-3.387,0.361-8.881h-1.984
		c-0.16,4.791-1.143,8.488-2.946,11.09l-1.287-0.906c1.793-2.645,2.698-6.039,2.715-10.184h-2.308v-1.461h2.349l0.066-2.434h1.511
		l-0.066,2.434H72.374z M79.239,249.779h-1.494v-1.186h-2.772v1.17h-1.478v-13.547h5.744V249.779z M77.745,247.082v-9.371h-2.772
		v9.371H77.745z"/>
	<path fill="#FFFFFF" d="M98.312,237.387H86.466v5.578c0,2.783-0.584,5.074-1.751,6.873l-1.278-0.855
		c1.007-1.531,1.511-3.539,1.511-6.018v-6.914h5.578c-0.222-0.344-0.438-0.639-0.647-0.889l1.651-0.357
		c0.222,0.377,0.46,0.793,0.714,1.246h6.068V237.387z M98.412,248.352l-0.457,1.445c-2.03-0.117-3.939-0.539-5.728-1.27
		c-1.466,0.613-3.201,1.051-5.204,1.311l-0.697-1.443c1.731-0.096,3.148-0.352,4.25-0.773c-0.985-0.613-1.743-1.451-2.274-2.514
		h-0.747v-1.346h8.923v1.346c-0.586,0.906-1.466,1.746-2.64,2.514C95.127,248.076,96.652,248.318,98.412,248.352z M98.146,240.301
		h-2.499v2.498h-6.565v-2.498H87.04v-1.328h2.042v-1.004h1.461v1.004h3.619v-1.004h1.485v1.004h2.499V240.301z M94.551,245.107
		h-4.499c0.46,0.697,1.162,1.322,2.108,1.875C93.24,246.363,94.037,245.738,94.551,245.107z M94.162,241.488v-1.188h-3.619v1.188
		H94.162z"/>
	<path fill="#FFFFFF" d="M111.235,246.094h-2.059c-0.404,0.604-0.761,1.068-1.071,1.395c0.908,0.365,1.69,0.711,2.35,1.039
		l-0.839,1.086c-1.134-0.525-2.012-0.904-2.631-1.137c-1.517,0.758-2.934,1.24-4.25,1.445l-0.598-1.279
		c1.189-0.148,2.228-0.41,3.112-0.779c-0.868-0.316-1.599-0.537-2.191-0.664c0.537-0.576,0.863-0.943,0.979-1.105h-1.768v-1.152
		h2.689l0.631-0.973h-2.582v-2.805h2.972v-0.797h-3.013v-1.852h-0.764v-1.088h0.764v-1.826h3.013v-0.654h1.411v0.654h2.972v1.826
		h0.839v1.088h-0.839v1.852h-2.972v0.797h3.005v2.805h-3.104l-0.614,0.973h1.544c0.083-0.139,0.175-0.332,0.274-0.582l1.312,0.307
		c0,0.084-0.03,0.176-0.092,0.275h1.52V246.094z M105.98,237.428v-0.754h-1.651v0.754H105.98z M105.98,239.33v-0.814h-1.651v0.814
		H105.98z M105.98,242.883v-0.664h-1.602v0.664H105.98z M107.524,246.094h-1.677c-0.021,0.039-0.154,0.209-0.398,0.508L106.76,247
		C107.076,246.684,107.331,246.383,107.524,246.094z M108.985,237.428v-0.754h-1.594v0.754H108.985z M108.985,239.313v-0.797h-1.594
		v0.797H108.985z M109.043,242.883v-0.664h-1.652v0.664H109.043z M117.236,248.643l-0.747,1.262
		c-1.173-0.885-2.006-1.719-2.498-2.498c-0.687,0.951-1.464,1.773-2.333,2.465l-0.987-1.121c1.067-0.863,1.89-1.76,2.465-2.689
		c-0.559-0.99-0.982-2.125-1.27-3.402l1.303-0.715c0.238,1.041,0.477,1.83,0.714,2.367c0.421-1.385,0.664-3.238,0.73-5.563h-1.253
		c-0.531,1.572-1.06,2.773-1.586,3.604l-0.979-1.221c0.913-1.711,1.569-3.813,1.968-6.309l1.444,0.207
		c-0.072,0.486-0.225,1.256-0.457,2.309h3.246v1.41h-0.938c-0.121,3.105-0.551,5.537-1.286,7.297
		C115.44,247.074,116.262,247.939,117.236,248.643z"/>
</g>
<g>
	<path fill="#FFFFFF" d="M307.611,240.857h-1.478v-2.275h-10.949v2.291h-1.536v-3.602h6.259v-2.291h1.494v2.291h6.209V240.857z
		 M306.756,249.797h-1.444v-0.714h-9.297v0.714h-1.478v-6.268h12.219V249.797z M298.314,236.49l-1.552,0.523
		c-0.437-0.504-0.93-0.975-1.478-1.411l1.494-0.589C297.448,235.533,297.96,236.025,298.314,236.49z M299.941,245.688v-0.971h-3.926
		v0.971H299.941z M299.941,247.863v-1.005h-3.926v1.005H299.941z M305.146,242.675h-9.015v-3.245h9.015V242.675z M303.652,241.521
		V240.6h-6.018v0.922H303.652z M305.312,245.688v-0.971h-3.91v0.971H305.312z M305.312,247.863v-1.005h-3.91v1.005H305.312z
		 M305.959,235.652c-0.487,0.537-1.013,0.996-1.577,1.378l-1.486-0.714c0.564-0.349,1.115-0.789,1.652-1.32L305.959,235.652z"/>
	<path fill="#FFFFFF" d="M325.457,248.319c0,0.442-0.119,0.79-0.357,1.042s-0.647,0.39-1.229,0.415
		c-0.581,0.024-1.112,0.037-1.594,0.037c-0.454,0-0.888-0.011-1.303-0.033l-0.531-1.544c1.046,0.055,1.854,0.083,2.424,0.083
		c0.465,0,0.752-0.029,0.863-0.087c0.111-0.059,0.166-0.188,0.166-0.387v-3.029h-8.517c-0.321,1.998-1.143,3.693-2.465,5.088
		l-1.104-1.12c0.659-0.664,1.188-1.521,1.589-2.569c0.401-1.049,0.602-2.544,0.602-4.486v-6.434h11.455V248.319z M323.896,239.246
		v-2.432h-8.351v2.432H323.896z M323.896,243.339v-2.614h-8.351v2.614H323.896z"/>
	<path fill="#FFFFFF" d="M332.701,245.979c-0.144,1.389-0.42,2.668-0.83,3.835l-1.295-0.606c0.42-1.173,0.697-2.387,0.83-3.644
		L332.701,245.979z M336.561,244.684l-1.229,0.539c-0.055-0.299-0.116-0.569-0.183-0.813c-1.655,0.42-3.038,0.705-4.15,0.854
		l-0.374-1.179c0.902-0.785,1.804-1.953,2.706-3.503c-0.825,0.155-1.597,0.263-2.316,0.323l-0.183-1.336
		c0.974-1.162,1.796-2.723,2.465-4.682l1.336,0.614c-0.581,1.565-1.259,2.819-2.034,3.761c0.515-0.039,1.041-0.119,1.577-0.241
		c0.166-0.31,0.484-0.974,0.955-1.992l1.378,0.631c-1.306,2.679-2.576,4.668-3.81,5.968c0.603-0.1,1.29-0.262,2.059-0.489
		c-0.055-0.232-0.163-0.534-0.324-0.905l1.154-0.489C336.121,243.04,336.445,244.02,336.561,244.684z M334.727,249.05l-1.312,0.257
		c-0.055-1.494-0.169-2.598-0.34-3.312l1.229-0.274C334.547,247.011,334.688,248.12,334.727,249.05z M336.403,247.73l-1.104,0.39
		c-0.088-0.735-0.246-1.536-0.473-2.399l1.054-0.273C336.168,246.261,336.342,247.021,336.403,247.73z M338.429,245.331
		c-0.144,1.466-0.495,2.819-1.054,4.06l-1.204-0.664c0.465-1.029,0.805-2.328,1.021-3.894L338.429,245.331z M344.721,244.086h-7.836
		v-8.002h2.075c0.205-0.344,0.396-0.752,0.573-1.229l1.552,0.291c-0.044,0.166-0.188,0.479-0.432,0.938h4.067V244.086z
		 M343.243,242.783v-5.412h-4.864v5.412H343.243z M343.102,241.438l-0.83,0.914c-0.404-0.427-0.711-0.742-0.921-0.947
		c-0.41,0.521-0.777,0.934-1.104,1.237l-0.863-0.764c0.354-0.327,0.717-0.747,1.087-1.262c-0.177-0.177-0.307-0.302-0.39-0.374
		c-0.194,0.244-0.484,0.573-0.872,0.988l-0.78-0.813c0.232-0.222,0.487-0.503,0.764-0.847c-0.177-0.139-0.404-0.305-0.681-0.498
		l0.772-0.913c0.116,0.066,0.307,0.202,0.573,0.407c0.133-0.244,0.279-0.557,0.44-0.938l1.004,0.531l-0.556,1.071
		c0.216,0.166,0.352,0.279,0.407,0.34c0.282-0.393,0.537-0.877,0.764-1.453l0.988,0.531c-0.249,0.615-0.534,1.176-0.855,1.686
		L343.102,241.438z M343.583,247.373c-0.066,0.73-0.166,1.242-0.299,1.535c-0.133,0.294-0.329,0.502-0.589,0.623
		s-0.772,0.183-1.536,0.183c-0.481,0-0.877-0.011-1.187-0.033s-0.58-0.146-0.809-0.369c-0.23-0.225-0.345-0.514-0.345-0.868v-3.627
		h1.444v3.162c0,0.178,0.058,0.294,0.174,0.35c0.116,0.055,0.437,0.082,0.963,0.082c0.282,0,0.47-0.041,0.564-0.124
		s0.166-0.246,0.216-0.489c0.05-0.244,0.075-0.54,0.075-0.889L343.583,247.373z M342.612,246.352l-1.22,0.557
		c-0.238-0.78-0.506-1.453-0.805-2.018l1.212-0.465C342.053,244.88,342.325,245.521,342.612,246.352z M345.659,248.22l-1.195,0.73
		c-0.271-1.096-0.689-2.22-1.253-3.37l1.187-0.714C345.083,246.338,345.504,247.456,345.659,248.22z"/>
	<path fill="#FFFFFF" d="M356.93,237.338c-0.011,2.462-0.072,4.868-0.183,7.217c-0.111,2.35-0.229,3.707-0.357,4.072
		s-0.354,0.652-0.681,0.863c-0.327,0.21-0.847,0.314-1.561,0.314c-0.354,0-0.708-0.014-1.063-0.041l-0.423-1.494
		c0.459,0.033,0.835,0.05,1.129,0.05c0.714,0,1.127-0.213,1.241-0.64c0.114-0.426,0.234-3.387,0.361-8.881h-1.984
		c-0.161,4.792-1.143,8.488-2.947,11.09l-1.287-0.905c1.793-2.646,2.698-6.04,2.714-10.185h-2.308v-1.461h2.349l0.066-2.433h1.511
		l-0.066,2.433H356.93z M363.794,249.813H362.3v-1.187h-2.772v1.17h-1.478V236.25h5.744V249.813z M362.3,247.115v-9.371h-2.772
		v9.371H362.3z"/>
	<path fill="#FFFFFF" d="M383.025,239.836l-0.739,1.328c-0.819-0.344-1.668-0.764-2.548-1.262v0.955h-3.486v1.668h5.736v1.461
		h-5.736v3.959h6.143v1.445H368.64v-1.445h6.068v-3.959h-5.628v-1.461h5.628v-1.668h-3.536v-0.914
		c-0.642,0.388-1.406,0.783-2.291,1.188l-0.955-1.295c3.458-1.521,5.866-3.182,7.222-4.98l1.536,0.439
		c-0.039,0.1-0.113,0.208-0.224,0.324C377.738,237.086,379.926,238.491,383.025,239.836z M373.521,247.166l-1.428,0.489
		c-0.398-0.735-1.035-1.618-1.909-2.647l1.444-0.598C372.47,245.4,373.101,246.318,373.521,247.166z M378.925,239.43
		c-1.461-0.896-2.618-1.773-3.47-2.632c-0.974,0.946-2.105,1.823-3.395,2.632H378.925z M380.842,244.941
		c-0.586,1.084-1.198,1.979-1.834,2.681l-1.478-0.647c0.653-0.681,1.27-1.535,1.851-2.564L380.842,244.941z"/>
	<path fill="#FFFFFF" d="M394.513,243.422l-0.664,1.229c-1.008-0.697-2.031-1.309-3.072-1.834c-1.195,0.868-2.379,1.508-3.552,1.917
		l-0.714-1.253c1.162-0.35,2.13-0.792,2.905-1.328c-0.608-0.283-1.04-0.477-1.294-0.582c-0.21,0.172-0.374,0.297-0.49,0.374
		l-1.021-0.972c1.118-0.797,2.07-1.889,2.856-3.278l1.252,0.39c-0.037,0.155-0.127,0.35-0.266,0.582h2.906v1.262
		c-0.271,0.437-0.775,1.082-1.512,1.934C392.882,242.409,393.771,242.93,394.513,243.422z M394.138,238.226h-1.461v-0.806h-4.1
		v0.905H387.1v-2.225h2.739c-0.105-0.343-0.246-0.661-0.424-0.954l1.445-0.324c0.221,0.398,0.385,0.824,0.488,1.278h2.789V238.226z
		 M393.341,249.78h-1.477v-0.522h-2.573v0.506h-1.478V244.7h5.527V249.78z M391.757,239.928h-2.109
		c-0.232,0.304-0.418,0.522-0.556,0.655c0.726,0.294,1.233,0.509,1.526,0.647C391.112,240.76,391.491,240.326,391.757,239.928z
		 M391.864,247.912v-1.9h-2.573v1.9H391.864z M401.567,236.656h-2.805c-0.123,0.549-0.252,1.019-0.391,1.412h2.631v8.549h-4.365
		l0.938,0.872c-0.836,0.946-1.84,1.746-3.014,2.399l-0.979-1.162c0.957-0.432,1.902-1.135,2.838-2.109h-1.535v-8.549h1.975
		c0.156-0.482,0.285-0.952,0.391-1.412h-2.639v-1.377h6.955V236.656z M399.526,240.45v-1.071h-3.164v1.071H399.526z M399.526,242.85
		v-1.154h-3.164v1.154H399.526z M399.526,245.314v-1.245h-3.164v1.245H399.526z M401.726,248.709l-0.889,1.162
		c-0.842-0.774-1.732-1.389-2.672-1.842l0.871-1.121C399.915,247.307,400.812,247.907,401.726,248.709z"/>
</g>
<g>
	<path fill="#FFFFFF" d="M592.204,240.156h-1.478v-2.273h-10.948v2.291h-1.536v-3.604h6.259v-2.291h1.494v2.291h6.209V240.156z
		 M591.349,249.098h-1.443v-0.715h-9.297v0.715h-1.479v-6.268h12.219V249.098z M582.907,235.791l-1.553,0.523
		c-0.437-0.504-0.93-0.975-1.477-1.412l1.494-0.59C582.041,234.834,582.554,235.326,582.907,235.791z M584.534,244.988v-0.971
		h-3.926v0.971H584.534z M584.534,247.162v-1.004h-3.926v1.004H584.534z M589.739,241.975h-9.016v-3.246h9.016V241.975z
		 M588.245,240.82v-0.92h-6.019v0.92H588.245z M589.905,244.988v-0.971h-3.91v0.971H589.905z M589.905,247.162v-1.004h-3.91v1.004
		H589.905z M590.552,234.953c-0.486,0.535-1.012,0.996-1.576,1.377l-1.486-0.713c0.564-0.35,1.115-0.789,1.652-1.32L590.552,234.953
		z"/>
	<path fill="#FFFFFF" d="M610.05,247.619c0,0.443-0.119,0.791-0.357,1.043c-0.238,0.25-0.647,0.389-1.229,0.414
		s-1.112,0.037-1.594,0.037c-0.453,0-0.889-0.012-1.303-0.033l-0.531-1.543c1.045,0.055,1.854,0.082,2.424,0.082
		c0.465,0,0.752-0.029,0.863-0.086c0.11-0.059,0.166-0.188,0.166-0.387v-3.029h-8.518c-0.32,1.996-1.143,3.693-2.465,5.088
		l-1.104-1.121c0.658-0.664,1.188-1.52,1.589-2.568s0.603-2.545,0.603-4.486v-6.434h11.455V247.619z M608.489,238.547v-2.432h-8.352
		v2.432H608.489z M608.489,242.639v-2.615h-8.352v2.615H608.489z"/>
	<path fill="#FFFFFF" d="M620.913,236.215h-1.967c-0.261,1.195-0.596,2.367-1.005,3.52h2.614v8.092h-1.428v-0.68h-1.27v1.236h-1.411
		v-5.66c-0.343,0.398-0.564,0.65-0.664,0.754l-0.747-1.502c1.102-1.322,1.898-3.242,2.391-5.76h-2.191v-1.461h5.678V236.215z
		 M619.128,245.752v-4.574h-1.27v4.574H619.128z M629.994,240.332h-6.939v2.664c0,1.355-0.071,2.5-0.216,3.432
		c-0.145,0.934-0.462,1.881-0.955,2.844l-1.17-0.988c0.576-1.283,0.863-3.08,0.863-5.387v-3.959h8.417V240.332z M629.413,237.965
		h-7.753v-3.244h1.461v1.85h1.669v-2.273h1.461v2.273h1.685v-1.85h1.478V237.965z M630.218,248.135l-0.954,1.086
		c-1.162-0.707-2.069-1.809-2.723-3.303c-0.608,1.473-1.538,2.572-2.789,3.303l-0.896-1.053c0.94-0.66,1.655-1.422,2.142-2.287
		c0.486-0.867,0.73-2.014,0.73-3.441v-1.568h1.428v1.785c0,0.432,0.033,0.783,0.1,1.053c0.498-0.498,1.021-1.152,1.568-1.967
		l1.055,0.98c-0.697,0.918-1.425,1.723-2.184,2.414C628.177,246.355,629.018,247.354,630.218,248.135z M625.196,244.457l-1.27,0.531
		c-0.084-0.824-0.294-1.777-0.631-2.855l1.262-0.424C624.895,242.826,625.108,243.742,625.196,244.457z"/>
	<path fill="#FFFFFF" d="M638.394,242.008c-0.454,0.238-0.881,0.443-1.279,0.615v4.748c0,0.408-0.113,0.793-0.34,1.148
		c-0.227,0.357-0.747,0.535-1.561,0.535c-0.244,0-0.534-0.008-0.871-0.023l-0.44-1.412c0.925,0,1.444-0.02,1.561-0.059
		c0.116-0.037,0.175-0.16,0.175-0.365v-3.908l-1.428,0.488l-0.391-1.443c0.875-0.32,1.48-0.553,1.818-0.697v-3.195h-1.686v-1.479
		h1.686v-2.705h1.477v2.705h1.121v1.479h-1.121v2.531c0.465-0.188,0.828-0.357,1.088-0.506L638.394,242.008z M642.95,242.381
		c0,2.846-1.032,5.143-3.096,6.891l-1.121-1.121c1.345-1.035,2.188-2.25,2.531-3.645c-0.857,0.377-1.754,0.717-2.689,1.021
		l-0.622-1.336c1.112-0.299,2.282-0.725,3.511-1.279v-1.395h-2.647v-1.461h2.647v-2.008h-2.714v-1.461h2.714v-2.332h1.486V242.381z
		 M648.761,245.652h-3.08v3.479h-1.477v-14.875h1.477v2.332h2.964v1.461h-2.964v2.283h2.641v1.443h-2.641v2.391h3.08V245.652z"/>
	<path fill="#FFFFFF" d="M659.79,237.775h-3.976c0,0.707-0.011,1.398-0.033,2.074h3.229c0,1.959-0.035,3.732-0.104,5.316
		c-0.069,1.586-0.16,2.559-0.273,2.918c-0.114,0.359-0.312,0.619-0.594,0.781c-0.282,0.16-0.702,0.24-1.262,0.24
		c-0.304,0-0.62-0.014-0.946-0.041l-0.391-1.461c0.543,0.021,0.969,0.033,1.279,0.033c0.359,0,0.565-0.252,0.618-0.756
		c0.052-0.504,0.106-2.361,0.161-5.57h-1.801c-0.139,3.447-0.869,6.063-2.191,7.844l-1.004-1.377
		c0.613-0.863,1.078-1.975,1.395-3.332c0.314-1.359,0.461-3.582,0.439-6.67h-1.686v-1.428h3.047
		c-0.227-0.736-0.453-1.375-0.681-1.918l1.511-0.291c0.238,0.553,0.481,1.289,0.73,2.209h2.531V237.775z M667.544,247.992
		l-0.848,1.262c-1.41-0.719-2.578-1.58-3.502-2.58c-0.958,0.984-2.078,1.828-3.362,2.531l-0.888-1.262
		c1.3-0.631,2.41-1.447,3.328-2.449c-0.652-1.063-1.141-2.236-1.461-3.52l1.361-0.539c0.293,1.107,0.634,2.018,1.021,2.73
		c0.808-1.41,1.311-3.393,1.51-5.943h-2.465c-0.548,1.672-1.192,3.072-1.934,4.201l-1.071-1.072c1.124-1.809,1.95-4.24,2.481-7.295
		l1.445,0.355c-0.111,0.637-0.283,1.414-0.516,2.334h4.715v1.477h-1.195c-0.266,3.242-0.949,5.656-2.05,7.238
		C665.007,246.475,666.149,247.318,667.544,247.992z"/>
	<path fill="#FFFFFF" d="M686.177,248.865h-14.791v-1.072h6.665v-0.764h-5.661v-0.953h5.661v-0.73h-5.337v-4.15h12.102v4.15h-5.337
		v0.73h5.802v0.971h-5.802v0.746h6.698V248.865z M686.044,240.498H671.51v-1.172h14.534V240.498z M684.8,238.646h-12.104v-4.184
		H684.8V238.646z M683.339,236.064v-0.631h-9.215v0.631H683.339z M683.339,237.676v-0.697h-9.215v0.697H683.339z M678.051,242.83
		v-0.697h-3.909v0.697H678.051z M678.051,244.406v-0.697h-3.894l-0.016,0.697H678.051z M683.354,242.83v-0.697h-3.876v0.697H683.354
		z M683.354,244.406v-0.697h-3.876v0.697H683.354z"/>
</g>
</svg>
