<?xml version="1.0" encoding="utf-8"?>
<!-- Generator: Adobe Illustrator 16.0.0, SVG Export Plug-In . SVG Version: 6.00 Build 0)  -->
<!DOCTYPE svg PUBLIC "-//W3C//DTD SVG 1.1//EN" "http://www.w3.org/Graphics/SVG/1.1/DTD/svg11.dtd">
<svg version="1.1" id="圖層_1" xmlns="http://www.w3.org/2000/svg" xmlns:xlink="http://www.w3.org/1999/xlink" x="0px" y="0px"
	 width="1020.104px" height="314px" viewBox="-20.104 0 1020.104 314" enable-background="new -20.104 0 1020.104 314"
	 xml:space="preserve">
<g>
	<path fill="#8A8281" d="M984.513,171.896c0,17.785-30.346,32.189-67.783,32.189c-37.432,0-67.779-14.412-67.779-32.189
		c0-17.769,30.348-32.181,67.779-32.181C954.167,139.715,984.513,154.126,984.513,171.896"/>
	<path fill="#8A8281" d="M984.513,162.555c0,17.777-30.346,32.19-67.783,32.19c-37.432,0-67.779-14.417-67.779-32.19
		c0-17.769,30.348-32.181,67.779-32.181C954.167,130.374,984.513,144.786,984.513,162.555"/>
	<path fill="#C3BFB9" d="M984.513,162.555c0,17.777-30.346,32.19-67.783,32.19c-37.432,0-67.779-14.417-67.779-32.19
		c0-17.769,30.348-32.181,67.779-32.181C954.167,130.374,984.513,144.786,984.513,162.555"/>
	<path fill="#8A8281" d="M975.506,155.606c0,15.416-26.318,27.914-58.776,27.914c-32.457,0-58.783-12.498-58.783-27.914
		c0-15.411,26.326-27.907,58.783-27.907C949.188,127.7,975.506,140.195,975.506,155.606"/>
	<path fill="#8A8281" d="M975.506,147.504c0,15.412-26.318,27.909-58.776,27.909c-32.457,0-58.783-12.497-58.783-27.909
		c0-15.412,26.326-27.908,58.783-27.908C949.188,119.597,975.506,132.092,975.506,147.504"/>
	<polygon fill="#8A8281" points="975.506,156.188 972.57,159.592 972.57,148.003 975.506,148.003 	"/>
	<path fill="#C3BFB9" d="M975.506,147.504c0,15.412-26.318,27.909-58.776,27.909c-32.457,0-58.783-12.497-58.783-27.909
		c0-15.412,26.326-27.908,58.783-27.908C949.188,119.597,975.506,132.092,975.506,147.504"/>
	<path fill="#49AA27" d="M963.747,142.127c0,13.798-21.489,24.974-47.998,24.974c-26.506,0-47.997-11.176-47.997-24.974
		c0-13.797,21.491-24.977,47.997-24.977C942.258,117.151,963.747,128.33,963.747,142.127"/>
	<path fill="#8ECF7A" d="M928.008,146.145c0,3.408-5.503,6.168-12.287,6.168c-6.793,0-12.29-2.765-12.29-6.168
		s5.497-6.167,12.29-6.167C922.505,139.979,928.008,142.741,928.008,146.145"/>
	<path fill="#8ECF7A" d="M928.008,118.393c-0.046-9.803-5.525-16.847-12.287-16.847c-6.767,0-12.248,6.972-12.29,16.774l0.007,26.74
		h24.57V118.393L928.008,118.393z"/>
	<polygon fill="#8ECF7A" points="940.357,85.287 939.039,131.634 915.114,122.324 915.371,98.381 	"/>
	<path fill="#8ECF7A" d="M898.087,108.05c0,13.26-3.855,21.755-9.543,23.792c-4.718,1.693-10.184-10.53-10.184-23.783
		c0-13.261,5.742-26.137,10.184-23.805C893.506,86.859,898.087,94.792,898.087,108.05"/>
	<path fill="#8ECF7A" d="M914.999,98.217L888.33,84.258v47.584l26.669-9.516c1.241-0.451,4.199-5.604,4.199-12.29
		C919.198,103.357,916.462,98.972,914.999,98.217"/>
	<path fill="#6CBE51" d="M895.846,107.913c0,13.215-3.53,24.093-8.304,24.093c-4.762,0-9.182-10.878-9.182-24.093
		c0-13.218,4.223-23.369,8.954-23.924C890.847,83.572,895.846,94.695,895.846,107.913"/>
	<path fill="#8ECF7A" d="M930.886,108.654c0,12.927,3.469,21.276,8.646,23.196c5.502,2.041,9.767-10.466,9.767-23.386
		c0-12.924-3.648-26.202-8.937-23.177C935.876,87.85,930.886,95.736,930.886,108.654"/>
	<g opacity="0.7">
		<g>
			<g>
				<defs>
					<rect id="SVGID_1_" x="867.756" y="41.724" width="95.998" height="125.398"/>
				</defs>
				<clipPath id="SVGID_2_">
					<use xlink:href="#SVGID_1_"  overflow="visible"/>
				</clipPath>
				<path clip-path="url(#SVGID_2_)" fill="#63B622" d="M963.742,80.412c-0.161-21.391-21.586-38.695-47.993-38.695
					c-26.402,0-47.829,17.304-47.988,38.695h-0.009v0.246v61.47c0,13.798,21.487,24.972,47.997,24.972
					c26.509,0,47.998-11.174,47.998-24.972v-61.47v-0.246H963.742z"/>
			</g>
		</g>
	</g>
	<g opacity="0.9">
		<g>
			<g>
				<defs>
					<rect id="SVGID_3_" x="914.208" y="41.724" width="49.546" height="120.164"/>
				</defs>
				<clipPath id="SVGID_4_">
					<use xlink:href="#SVGID_3_"  overflow="visible"/>
				</clipPath>
				<path clip-path="url(#SVGID_4_)" fill="#49AA27" d="M963.742,80.412c-0.161-21.391-21.586-38.695-47.993-38.695
					c-0.515,0-1.023,0.021-1.541,0.033c0.02,0,27.24,1.284,30.591,38.662c0.22,2.453,0.341,5.061,0.341,7.837v23.185v10.952v19.742
					v19.743c11.314-4.573,18.607-11.71,18.607-19.743v-61.47C963.747,80.573,963.742,80.491,963.742,80.412"/>
			</g>
		</g>
	</g>
	<g opacity="0.9">
		<g>
			<g>
				<defs>
					<rect id="SVGID_5_" x="867.756" y="47.669" width="22.496" height="106.586"/>
				</defs>
				<clipPath id="SVGID_6_">
					<use xlink:href="#SVGID_5_"  overflow="visible"/>
				</clipPath>
				<path clip-path="url(#SVGID_6_)" fill="#49AA27" d="M890.252,47.676c-13.432,6.845-22.39,18.938-22.496,32.739h-0.009v61.713
					c0,4.401,2.201,8.534,6.041,12.128c0-0.03,0.022-4.862,0.042-12.128c0.011-3.572,0.028-7.731,0.035-12.201
					c0.045-19.659,0.071-45.25-0.07-52.78C873.41,57.841,888.354,48.748,890.252,47.676"/>
			</g>
		</g>
	</g>
	<path fill="#FFFFFF" d="M898.72,56.158c1.508,2.384-0.611,6.423-4.736,9.016c-4.119,2.601-8.678,2.77-10.182,0.385
		c-1.504-2.383,0.617-6.425,4.738-9.02C892.661,53.945,897.218,53.774,898.72,56.158"/>
</g>
<path fill="#4DAC27" d="M134.663,242.333c0-9.036-7.327-16.362-16.362-16.362c-0.462,0-0.918,0.023-1.371,0.061H9.399
	c-0.451-0.037-0.907-0.061-1.37-0.061c-9.036,0-16.363,7.326-16.363,16.362c0,9.034,7.327,16.362,16.363,16.362
	c0.017,0,0.034-0.001,0.05-0.001v0.062h110.27v-0.062C127.364,258.667,134.663,251.352,134.663,242.333"/>
<path fill="#FFFFFF" d="M47.013,245.768c-0.142,1.373-0.416,2.639-0.821,3.793l-1.281-0.6c0.416-1.16,0.689-2.361,0.821-3.604
	L47.013,245.768z M50.832,244.486l-1.215,0.534c-0.055-0.296-0.115-0.563-0.181-0.805c-1.637,0.417-3.005,0.698-4.105,0.846
	l-0.369-1.165c0.892-0.777,1.785-1.933,2.676-3.465c-0.815,0.153-1.579,0.26-2.291,0.32l-0.181-1.322
	c0.963-1.15,1.776-2.693,2.438-4.631l1.322,0.607c-0.575,1.549-1.245,2.789-2.012,3.72c0.509-0.038,1.029-0.118,1.561-0.238
	c0.164-0.307,0.479-0.963,0.944-1.971l1.363,0.624c-1.292,2.649-2.548,4.617-3.769,5.904c0.597-0.1,1.275-0.261,2.036-0.484
	c-0.055-0.23-0.161-0.529-0.32-0.895l1.141-0.484C50.396,242.861,50.717,243.829,50.832,244.486z M49.017,248.805l-1.297,0.255
	c-0.055-1.478-0.167-2.569-0.336-3.276l1.215-0.271C48.839,246.788,48.979,247.885,49.017,248.805z M50.675,247.5l-1.092,0.386
	c-0.087-0.728-0.244-1.519-0.468-2.373l1.042-0.271C50.443,246.046,50.615,246.799,50.675,247.5z M52.678,245.127
	c-0.142,1.45-0.49,2.788-1.042,4.015l-1.19-0.657c0.459-1.018,0.796-2.302,1.009-3.851L52.678,245.127z M58.902,243.895h-7.75
	v-7.914h2.053c0.203-0.339,0.392-0.744,0.567-1.215l1.535,0.287c-0.044,0.164-0.186,0.474-0.426,0.928h4.022L58.902,243.895
	L58.902,243.895z M57.44,242.605v-5.353h-4.811v5.353H57.44z M57.301,241.276l-0.821,0.903c-0.399-0.422-0.704-0.734-0.912-0.937
	c-0.405,0.515-0.769,0.923-1.092,1.224l-0.854-0.756c0.351-0.322,0.709-0.738,1.076-1.247c-0.175-0.175-0.304-0.299-0.386-0.37
	c-0.191,0.242-0.479,0.567-0.862,0.979l-0.772-0.805c0.23-0.219,0.482-0.498,0.755-0.838c-0.175-0.137-0.399-0.301-0.673-0.492
	l0.764-0.902c0.115,0.065,0.304,0.199,0.567,0.401c0.131-0.241,0.276-0.55,0.435-0.927l0.993,0.525l-0.55,1.059
	c0.213,0.164,0.348,0.277,0.402,0.336c0.279-0.389,0.531-0.867,0.755-1.437l0.978,0.525c-0.247,0.607-0.528,1.163-0.846,1.667
	L57.301,241.276z M57.777,247.146c-0.066,0.723-0.164,1.229-0.295,1.52c-0.132,0.289-0.326,0.495-0.583,0.615
	c-0.257,0.121-0.764,0.182-1.519,0.182c-0.477,0-0.867-0.012-1.174-0.033c-0.307-0.021-0.573-0.145-0.801-0.365
	c-0.228-0.222-0.34-0.508-0.34-0.858v-3.588h1.429v3.128c0,0.176,0.057,0.291,0.172,0.346c0.115,0.055,0.432,0.081,0.952,0.081
	c0.279,0,0.465-0.041,0.558-0.123s0.164-0.243,0.214-0.484c0.05-0.24,0.073-0.534,0.073-0.878L57.777,247.146z M56.817,246.137
	l-1.207,0.55c-0.235-0.772-0.501-1.437-0.797-1.995l1.199-0.46C56.264,244.681,56.532,245.315,56.817,246.137z M59.83,247.984
	l-1.183,0.722c-0.269-1.083-0.682-2.194-1.24-3.333l1.174-0.707C59.261,246.123,59.677,247.229,59.83,247.984z"/>
<path fill="#FFFFFF" d="M71.331,237.221c-0.011,2.436-0.071,4.814-0.181,7.139c-0.109,2.322-0.227,3.665-0.353,4.027
	c-0.126,0.361-0.351,0.646-0.673,0.854c-0.323,0.208-0.837,0.312-1.543,0.312c-0.35,0-0.701-0.014-1.051-0.041l-0.419-1.478
	c0.454,0.033,0.827,0.049,1.117,0.049c0.706,0,1.115-0.211,1.228-0.632c0.112-0.421,0.231-3.35,0.357-8.785h-1.962
	c-0.159,4.74-1.13,8.396-2.915,10.969l-1.272-0.895c1.773-2.616,2.668-5.974,2.685-10.074h-2.283v-1.445h2.323l0.066-2.405h1.495
	l-0.066,2.405L71.331,237.221L71.331,237.221z M78.12,249.561h-1.478v-1.174H73.9v1.156h-1.461v-13.398h5.681V249.561z
	 M76.643,246.892v-9.269H73.9v9.269H76.643z"/>
<path fill="#FFFFFF" d="M97.339,237.303H85.623v5.518c0,2.753-0.577,5.019-1.732,6.797l-1.265-0.846
	c0.996-1.516,1.494-3.5,1.494-5.951v-6.84h5.518c-0.22-0.339-0.433-0.632-0.641-0.879l1.634-0.353
	c0.219,0.372,0.454,0.782,0.707,1.231h6.001L97.339,237.303L97.339,237.303z M97.438,248.148l-0.452,1.428
	c-2.009-0.115-3.897-0.533-5.665-1.256c-1.451,0.607-3.167,1.039-5.148,1.297l-0.689-1.428c1.713-0.094,3.114-0.348,4.204-0.764
	c-0.975-0.607-1.725-1.438-2.25-2.488h-0.739v-1.33h8.827v1.33c-0.58,0.897-1.451,1.727-2.611,2.488
	C94.189,247.875,95.697,248.115,97.438,248.148z M97.175,240.184h-2.471v2.472h-6.495v-2.472h-2.02v-1.313h2.02v-0.994h1.446v0.994
	h3.579v-0.994h1.47v0.994h2.471V240.184z M93.62,244.938h-4.45c0.454,0.689,1.15,1.309,2.086,1.855
	C92.323,246.181,93.111,245.563,93.62,244.938z M93.234,241.358v-1.175h-3.579v1.175H93.234z"/>
<path fill="#FFFFFF" d="M110.474,245.915h-2.036c-0.399,0.597-0.752,1.057-1.06,1.38c0.897,0.361,1.672,0.703,2.323,1.025
	l-0.83,1.076c-1.122-0.52-1.99-0.895-2.603-1.125c-1.5,0.75-2.901,1.227-4.204,1.429l-0.591-1.265
	c1.177-0.147,2.203-0.404,3.079-0.771c-0.86-0.313-1.582-0.531-2.168-0.657c0.531-0.569,0.854-0.934,0.969-1.093h-1.749v-1.141
	h2.661l0.624-0.961h-2.554v-2.775h2.939v-0.788h-2.98v-1.831h-0.755v-1.074h0.755v-1.807h2.98v-0.648h1.396v0.648h2.939v1.807h0.829
	v1.074h-0.829v1.831h-2.939v0.788h2.972v2.775h-3.071l-0.607,0.961h1.527c0.082-0.137,0.172-0.329,0.271-0.574l1.298,0.303
	c0,0.082-0.03,0.173-0.09,0.271h1.502V245.915z M105.277,237.344v-0.746h-1.634v0.746H105.277z M105.277,239.224v-0.804h-1.634
	v0.804H105.277z M105.277,242.738v-0.658h-1.585v0.658H105.277z M106.804,245.915h-1.658c-0.022,0.038-0.153,0.205-0.395,0.501
	l1.297,0.395C106.36,246.498,106.612,246.199,106.804,245.915z M108.249,237.344v-0.746h-1.576v0.746H108.249z M108.249,239.207
	v-0.787h-1.576v0.787H108.249z M108.307,242.738v-0.658h-1.634v0.658H108.307z M116.41,248.436l-0.739,1.248
	c-1.161-0.876-1.984-1.699-2.471-2.471c-0.679,0.941-1.448,1.754-2.307,2.438l-0.978-1.107c1.057-0.854,1.869-1.741,2.438-2.66
	c-0.553-0.98-0.972-2.103-1.256-3.367l1.289-0.706c0.235,1.029,0.471,1.81,0.706,2.34c0.417-1.368,0.657-3.202,0.723-5.501h-1.24
	c-0.525,1.555-1.048,2.742-1.568,3.563l-0.969-1.208c0.903-1.69,1.552-3.771,1.946-6.239l1.429,0.206
	c-0.072,0.481-0.222,1.242-0.452,2.282h3.21v1.396h-0.928c-0.121,3.07-0.544,5.477-1.272,7.217
	C114.634,246.884,115.446,247.74,116.41,248.436z"/>
<path fill="#4DAC27" d="M419.185,242.333c0-9.036-7.325-16.362-16.362-16.362c-0.461,0-0.918,0.023-1.37,0.061H293.922
	c-0.452-0.037-0.908-0.061-1.371-0.061c-9.036,0-16.362,7.326-16.362,16.362c0,9.034,7.326,16.362,16.362,16.362
	c0.018,0,0.033-0.001,0.051-0.001v0.062h110.271v-0.062C411.886,258.667,419.185,251.352,419.185,242.333"/>
<path fill="#FFFFFF" d="M331.535,245.767c-0.142,1.374-0.416,2.638-0.821,3.793l-1.281-0.599c0.416-1.16,0.689-2.362,0.821-3.605
	L331.535,245.767z M335.354,244.486l-1.215,0.533c-0.055-0.295-0.115-0.564-0.181-0.805c-1.637,0.416-3.005,0.698-4.105,0.846
	l-0.369-1.166c0.892-0.776,1.785-1.932,2.676-3.464c-0.815,0.153-1.579,0.26-2.291,0.32l-0.181-1.322
	c0.963-1.149,1.776-2.692,2.438-4.63l1.322,0.607c-0.575,1.549-1.245,2.788-2.011,3.719c0.509-0.038,1.029-0.117,1.56-0.238
	c0.164-0.307,0.479-0.963,0.944-1.971l1.363,0.625c-1.292,2.648-2.548,4.617-3.769,5.902c0.597-0.098,1.275-0.26,2.036-0.483
	c-0.055-0.229-0.162-0.528-0.32-0.895l1.141-0.484C334.918,242.86,335.239,243.828,335.354,244.486z M333.539,248.805l-1.297,0.254
	c-0.055-1.478-0.167-2.57-0.336-3.275l1.215-0.271C333.361,246.787,333.5,247.885,333.539,248.805z M335.197,247.499l-1.092,0.386
	c-0.087-0.728-0.244-1.519-0.468-2.373l1.042-0.271C334.965,246.045,335.137,246.799,335.197,247.499z M337.201,245.126
	c-0.143,1.45-0.49,2.788-1.042,4.015l-1.19-0.657c0.459-1.019,0.796-2.302,1.009-3.851L337.201,245.126z M343.424,243.895h-7.75
	v-7.915h2.053c0.202-0.339,0.392-0.745,0.566-1.215l1.535,0.288c-0.044,0.164-0.186,0.473-0.427,0.927h4.023V243.895z
	 M341.962,242.605v-5.354h-4.811v5.354H341.962z M341.823,241.275l-0.821,0.903c-0.399-0.422-0.704-0.733-0.912-0.937
	c-0.405,0.515-0.769,0.922-1.092,1.224l-0.854-0.755c0.351-0.323,0.709-0.739,1.076-1.248c-0.175-0.176-0.304-0.299-0.386-0.369
	c-0.191,0.241-0.479,0.566-0.862,0.978l-0.772-0.805c0.23-0.22,0.482-0.498,0.755-0.837c-0.175-0.137-0.399-0.301-0.673-0.492
	l0.764-0.904c0.115,0.066,0.304,0.2,0.567,0.402c0.132-0.24,0.276-0.549,0.435-0.928l0.993,0.525l-0.55,1.061
	c0.214,0.164,0.348,0.276,0.402,0.336c0.279-0.389,0.531-0.867,0.755-1.438l0.978,0.525c-0.247,0.607-0.528,1.164-0.846,1.667
	L341.823,241.275z M342.299,247.146c-0.066,0.722-0.164,1.229-0.295,1.519s-0.326,0.495-0.583,0.616
	c-0.257,0.12-0.764,0.18-1.519,0.18c-0.476,0-0.867-0.011-1.174-0.032c-0.307-0.022-0.573-0.144-0.801-0.365
	c-0.228-0.222-0.34-0.508-0.34-0.858v-3.588h1.429v3.129c0,0.175,0.057,0.289,0.172,0.344c0.115,0.055,0.432,0.082,0.952,0.082
	c0.279,0,0.465-0.041,0.558-0.123s0.164-0.244,0.214-0.484s0.074-0.533,0.074-0.878L342.299,247.146z M341.339,246.136l-1.207,0.55
	c-0.235-0.771-0.501-1.437-0.797-1.995l1.199-0.46C340.786,244.68,341.054,245.314,341.339,246.136z M344.352,247.983l-1.183,0.722
	c-0.269-1.084-0.682-2.194-1.24-3.333l1.174-0.706C343.783,246.123,344.199,247.229,344.352,247.983z"/>
<path fill="#FFFFFF" d="M355.853,237.22c-0.011,2.437-0.071,4.815-0.181,7.139s-0.227,3.665-0.353,4.026
	c-0.126,0.362-0.35,0.646-0.673,0.854c-0.323,0.208-0.837,0.312-1.543,0.312c-0.35,0-0.701-0.014-1.051-0.041l-0.419-1.478
	c0.454,0.033,0.827,0.049,1.117,0.049c0.706,0,1.115-0.21,1.228-0.632c0.112-0.421,0.231-3.35,0.357-8.785h-1.963
	c-0.159,4.74-1.13,8.396-2.914,10.969l-1.272-0.895c1.773-2.615,2.668-5.974,2.685-10.074h-2.282v-1.445h2.323l0.066-2.405h1.495
	l-0.066,2.405L355.853,237.22L355.853,237.22z M362.642,249.56h-1.478v-1.175h-2.742v1.158h-1.461v-13.399h5.681V249.56z
	 M361.165,246.891v-9.269h-2.742v9.269H361.165z"/>
<path fill="#FFFFFF" d="M382.018,239.691l-0.731,1.313c-0.81-0.338-1.65-0.755-2.521-1.247v0.944h-3.449v1.65h5.674v1.445h-5.674
	v3.916h6.076v1.429h-13.604v-1.429h6.001v-3.916h-5.566v-1.445h5.566v-1.65h-3.498v-0.903c-0.635,0.384-1.39,0.774-2.266,1.175
	l-0.945-1.281c3.421-1.505,5.802-3.146,7.143-4.926l1.519,0.436c-0.039,0.098-0.112,0.205-0.221,0.32
	C376.788,236.971,378.952,238.361,382.018,239.691z M372.617,246.941l-1.412,0.483c-0.395-0.728-1.024-1.601-1.888-2.618
	l1.428-0.592C371.577,245.195,372.201,246.104,372.617,246.941z M377.961,239.289c-1.445-0.887-2.589-1.755-3.432-2.604
	c-0.963,0.937-2.083,1.804-3.358,2.604H377.961z M379.858,244.74c-0.58,1.072-1.185,1.957-1.814,2.652l-1.462-0.641
	c0.646-0.674,1.256-1.52,1.831-2.537L379.858,244.74z"/>
<path fill="#FFFFFF" d="M393.732,243.238l-0.657,1.215c-0.997-0.689-2.009-1.295-3.038-1.814c-1.183,0.859-2.353,1.491-3.514,1.896
	l-0.706-1.24c1.149-0.345,2.107-0.783,2.874-1.314c-0.602-0.278-1.029-0.471-1.281-0.574c-0.208,0.17-0.37,0.293-0.484,0.369
	l-1.009-0.96c1.105-0.788,2.047-1.869,2.824-3.243l1.24,0.386c-0.039,0.153-0.126,0.345-0.263,0.575h2.874v1.248
	c-0.269,0.432-0.767,1.069-1.495,1.912C392.12,242.236,392.998,242.75,393.732,243.238z M393.362,238.099h-1.445v-0.797h-4.056
	v0.895h-1.461v-2.2h2.709c-0.104-0.34-0.244-0.654-0.419-0.945l1.429-0.319c0.219,0.395,0.38,0.815,0.484,1.265h2.759
	L393.362,238.099L393.362,238.099z M392.574,249.527h-1.461v-0.518h-2.545v0.501h-1.461v-5.009h5.468V249.527z M391.006,239.781
	h-2.086c-0.229,0.301-0.413,0.518-0.55,0.648c0.717,0.291,1.22,0.504,1.51,0.641C390.368,240.605,390.743,240.176,391.006,239.781z
	 M391.112,247.68v-1.881h-2.545v1.881H391.112z M400.71,236.547h-2.775c-0.121,0.541-0.249,1.008-0.386,1.396h2.603v8.456h-4.319
	l0.928,0.861c-0.827,0.937-1.82,1.728-2.98,2.373l-0.969-1.149c0.947-0.427,1.883-1.122,2.808-2.085h-1.519v-8.457h1.954
	c0.154-0.477,0.282-0.941,0.386-1.396h-2.611v-1.362h6.88L400.71,236.547L400.71,236.547z M398.69,240.299v-1.061h-3.128v1.061
	H398.69z M398.69,242.672v-1.143h-3.128v1.143H398.69z M398.69,245.109v-1.23h-3.128v1.23H398.69z M400.866,248.467l-0.879,1.15
	c-0.832-0.767-1.713-1.374-2.643-1.823l0.861-1.108C399.077,247.08,399.963,247.674,400.866,248.467z"/>
<path fill="#4DAC27" d="M703.707,241.633c0-9.036-7.326-16.362-16.362-16.362c-0.461,0-0.918,0.023-1.369,0.061H578.444
	c-0.452-0.037-0.908-0.061-1.37-0.061c-9.036,0-16.362,7.326-16.362,16.362c0,9.035,7.326,16.362,16.362,16.362
	c0.016,0,0.033-0.001,0.049-0.001v0.062h110.271v-0.062C696.408,257.967,703.707,250.652,703.707,241.633"/>
<path fill="#FFFFFF" d="M619.637,236.102h-1.945c-0.257,1.182-0.589,2.342-0.994,3.48h2.586v8.006h-1.412v-0.674h-1.256v1.223
	h-1.396v-5.599c-0.339,0.395-0.559,0.644-0.657,0.747l-0.739-1.486c1.089-1.308,1.878-3.207,2.364-5.697h-2.168v-1.445h5.616
	L619.637,236.102L619.637,236.102z M617.872,245.535v-4.524h-1.256v4.524H617.872z M628.618,240.174h-6.863v2.635
	c0,1.342-0.071,2.473-0.214,3.396c-0.143,0.922-0.457,1.859-0.944,2.812l-1.157-0.978c0.569-1.27,0.854-3.046,0.854-5.328v-3.916
	h8.325V240.174z M628.044,237.834h-7.668v-3.211h1.445v1.831h1.649v-2.249h1.446v2.249h1.666v-1.831h1.462L628.044,237.834
	L628.044,237.834z M628.841,247.891l-0.944,1.076c-1.15-0.701-2.048-1.791-2.693-3.268c-0.602,1.455-1.521,2.545-2.759,3.268
	l-0.887-1.043c0.93-0.652,1.636-1.406,2.117-2.262c0.481-0.857,0.723-1.992,0.723-3.403v-1.552h1.412v1.766
	c0,0.426,0.033,0.773,0.099,1.042c0.493-0.492,1.01-1.142,1.553-1.945l1.042,0.969c-0.689,0.909-1.409,1.705-2.159,2.39
	C626.82,246.131,627.653,247.119,628.841,247.891z M623.873,244.254l-1.256,0.525c-0.082-0.815-0.29-1.757-0.624-2.824l1.247-0.419
	C623.575,242.642,623.786,243.548,623.873,244.254z"/>
<path fill="#FFFFFF" d="M637.279,241.832c-0.449,0.235-0.87,0.438-1.265,0.607v4.696c0,0.405-0.112,0.784-0.336,1.137
	c-0.225,0.353-0.739,0.53-1.544,0.53c-0.24,0-0.528-0.009-0.861-0.025l-0.436-1.395c0.915,0,1.429-0.02,1.544-0.059
	c0.115-0.038,0.172-0.158,0.172-0.361v-3.867l-1.412,0.484l-0.386-1.429c0.864-0.317,1.464-0.547,1.798-0.689v-3.161h-1.667v-1.461
	h1.667v-2.677h1.461v2.677h1.108v1.461h-1.108v2.504c0.46-0.186,0.818-0.354,1.075-0.501L637.279,241.832z M641.786,242.201
	c0,2.813-1.021,5.085-3.062,6.814l-1.108-1.107c1.329-1.024,2.164-2.226,2.504-3.605c-0.849,0.372-1.735,0.709-2.66,1.01
	l-0.616-1.322c1.1-0.295,2.258-0.717,3.473-1.264v-1.38h-2.619V239.9h2.619v-1.986h-2.685v-1.445h2.685v-2.307h1.47V242.201z
	 M647.534,245.436h-3.046v3.44h-1.462v-14.713h1.462v2.308h2.931v1.445h-2.931v2.258h2.611v1.428h-2.611v2.365h3.046V245.436z"/>
<path fill="#FFFFFF" d="M658.797,237.645h-3.932c0,0.701-0.012,1.385-0.033,2.053h3.193c0,1.938-0.034,3.691-0.102,5.259
	c-0.068,1.567-0.159,2.53-0.271,2.886s-0.308,0.613-0.587,0.771c-0.279,0.16-0.695,0.238-1.248,0.238
	c-0.301,0-0.613-0.014-0.936-0.041l-0.387-1.445c0.537,0.021,0.958,0.033,1.265,0.033c0.356,0,0.561-0.249,0.612-0.747
	s0.104-2.335,0.16-5.509h-1.782c-0.136,3.41-0.859,5.996-2.167,7.758l-0.994-1.362c0.607-0.854,1.067-1.952,1.38-3.296
	s0.457-3.543,0.436-6.598h-1.667v-1.412h3.013c-0.224-0.728-0.448-1.359-0.673-1.896l1.494-0.287
	c0.235,0.547,0.477,1.275,0.723,2.184h2.504L658.797,237.645L658.797,237.645z M666.466,247.752l-0.838,1.247
	c-1.396-0.712-2.551-1.563-3.464-2.554c-0.947,0.975-2.056,1.809-3.325,2.504l-0.879-1.248c1.286-0.624,2.384-1.431,3.292-2.422
	c-0.646-1.051-1.127-2.211-1.445-3.48l1.347-0.534c0.29,1.095,0.627,1.995,1.01,2.7c0.799-1.395,1.297-3.354,1.494-5.879h-2.438
	c-0.541,1.653-1.18,3.039-1.912,4.155l-1.06-1.06c1.111-1.79,1.93-4.195,2.455-7.217l1.429,0.354
	c-0.109,0.629-0.279,1.398-0.51,2.307h4.663v1.461h-1.183c-0.263,3.208-0.938,5.594-2.027,7.16
	C663.956,246.248,665.086,247.084,666.466,247.752z"/>
<path fill="#FFFFFF" d="M685.249,248.613h-14.631v-1.06h6.593v-0.755h-5.6v-0.945h5.6v-0.722h-5.279v-4.104h11.971v4.104h-5.279
	v0.722h5.738v0.961h-5.738v0.739h6.626V248.613z M685.117,240.338H670.74v-1.158h14.377V240.338z M683.885,238.507h-11.97v-4.138
	h11.97V238.507z M682.44,235.953v-0.624h-9.113v0.624H682.44z M682.44,237.547v-0.689h-9.113v0.689H682.44z M677.211,242.645v-0.689
	h-3.867v0.689H677.211z M677.211,244.205v-0.689h-3.851l-0.017,0.689H677.211z M682.457,242.645v-0.689h-3.835v0.689H682.457z
	 M682.457,244.205v-0.689h-3.835v0.689H682.457z"/>
<path fill="#4DAC27" d="M988.229,241.633c0-9.036-7.325-16.362-16.362-16.362c-0.462,0-0.918,0.023-1.371,0.061H862.967
	c-0.453-0.037-0.909-0.061-1.37-0.061c-9.037,0-16.363,7.326-16.363,16.362c0,9.035,7.326,16.362,16.363,16.362
	c0.017,0,0.032-0.001,0.049-0.001v0.062h110.271v-0.062C980.931,257.967,988.229,250.652,988.229,241.633"/>
<g>
	<path fill="#FFFFFF" d="M867.405,239.648c-0.202,1.921-0.522,3.36-0.96,4.318l-1.24-0.723c0.273-0.706,0.468-1.434,0.583-2.184
		h-1.108v6.511c0,0.339-0.146,0.649-0.439,0.928s-1.148,0.384-2.565,0.312l-0.427-1.445c0.821,0.021,1.357,0.021,1.609,0
		s0.378-0.139,0.378-0.354v-5.951h-2.323v-1.413h2.611c-0.548-0.8-1.205-1.646-1.972-2.537l1.248-0.722
		c0.312,0.361,0.613,0.73,0.903,1.107c0.613-0.646,1.045-1.174,1.298-1.584h-3.736v-1.429h5.436v1.429
		c-0.618,1.002-1.325,1.926-2.118,2.775c0.269,0.389,0.477,0.709,0.625,0.96L867.405,239.648L867.405,239.648z M875.525,235.879
		h-3.26c-0.093,0.362-0.244,0.822-0.452,1.38h3.194v8.392h-4.63l0.764,0.738c-1.227,1.139-2.444,2.01-3.654,2.611l-0.978-1.198
		c0.964-0.378,2.031-1.095,3.202-2.151h-1.872v-8.391h2.323c0.175-0.395,0.337-0.854,0.484-1.379h-3.374v-1.396h8.251
		L875.525,235.879L875.525,235.879z M873.506,239.565v-0.96h-4.203v0.96H873.506z M873.506,241.922v-1.025h-4.203v1.025H873.506z
		 M873.506,244.27v-1.042h-4.203v1.042H873.506z M875.747,247.735l-0.944,1.142c-1.045-0.701-2.083-1.26-3.111-1.676l0.861-1.199
		C873.758,246.495,874.822,247.072,875.747,247.735z"/>
	<path fill="#FFFFFF" d="M884.44,234.451c-0.187,0.564-0.477,1.27-0.87,2.117l-0.592,1.232v11.025h-1.502v-8.473
		c-0.378,0.498-0.764,0.963-1.158,1.396l-0.739-1.478c1.281-1.51,2.409-3.585,3.383-6.223L884.44,234.451z M894.375,238.745h-4.491
		v3.161h3.481v6.922h-1.511v-0.74h-5.533v0.74h-1.494v-6.922h3.547v-3.161h-4.557v-1.47h4.557v-3.055h1.511v3.055h4.491
		L894.375,238.745L894.375,238.745z M891.854,246.627v-3.276h-5.534v3.276H891.854z"/>
	<path fill="#FFFFFF" d="M912.755,240.001h-1.461v-2.249h-10.829v2.266h-1.52v-3.563h6.19v-2.266h1.478v2.266h6.142V240.001z
		 M911.91,248.844h-1.429v-0.707h-9.195v0.707h-1.462v-6.199h12.086V248.844z M903.56,235.682l-1.535,0.518
		c-0.432-0.498-0.92-0.963-1.461-1.396l1.478-0.582C902.703,234.735,903.21,235.223,903.56,235.682z M905.169,244.779v-0.961h-3.884
		v0.961H905.169z M905.169,246.93v-0.993h-3.884v0.993H905.169z M910.317,241.799H901.4v-3.21h8.917V241.799z M908.839,240.658
		v-0.912h-5.952v0.912H908.839z M910.481,244.779v-0.961h-3.868v0.961H910.481z M910.481,246.93v-0.993h-3.868v0.993H910.481z
		 M911.121,234.854c-0.481,0.531-1.002,0.984-1.56,1.362l-1.47-0.706c0.558-0.345,1.103-0.779,1.634-1.305L911.121,234.854z"/>
	<path fill="#FFFFFF" d="M930.759,247.383c0,0.438-0.118,0.78-0.354,1.029c-0.235,0.25-0.64,0.387-1.215,0.411
		c-0.574,0.024-1.1,0.037-1.576,0.037c-0.449,0-0.878-0.011-1.289-0.032l-0.525-1.527c1.035,0.055,1.834,0.082,2.397,0.082
		c0.46,0,0.745-0.029,0.854-0.087s0.163-0.185,0.163-0.382v-2.996h-8.423c-0.317,1.976-1.13,3.653-2.438,5.033l-1.092-1.109
		c0.651-0.656,1.176-1.503,1.572-2.541c0.396-1.037,0.596-2.516,0.596-4.438v-6.362h11.33L930.759,247.383L930.759,247.383z
		 M929.215,238.408v-2.406h-8.259v2.406H929.215z M929.215,242.455v-2.586h-8.259v2.586H929.215z"/>
	<path fill="#FFFFFF" d="M950.905,236.602h-11.716v5.518c0,2.754-0.577,5.02-1.732,6.798l-1.266-0.846
		c0.997-1.516,1.495-3.5,1.495-5.952v-6.84h5.517c-0.219-0.338-0.432-0.631-0.64-0.878l1.634-0.353
		c0.219,0.371,0.454,0.781,0.706,1.23h6.002V236.602L950.905,236.602z M951.004,247.447l-0.451,1.429
		c-2.009-0.115-3.897-0.534-5.666-1.257c-1.45,0.607-3.166,1.04-5.147,1.298l-0.689-1.429c1.713-0.093,3.114-0.348,4.203-0.764
		c-0.974-0.607-1.724-1.437-2.249-2.487h-0.739v-1.33h8.826v1.33c-0.58,0.897-1.45,1.727-2.611,2.487
		C947.756,247.174,949.264,247.415,951.004,247.447z M950.741,239.483h-2.471v2.472h-6.495v-2.472h-2.02v-1.313h2.02v-0.994h1.445
		v0.994h3.58v-0.994h1.47v0.994h2.471V239.483z M947.187,244.237h-4.45c0.454,0.689,1.149,1.308,2.086,1.854
		C945.889,245.48,946.678,244.861,947.187,244.237z M946.801,240.658v-1.175h-3.58v1.175H946.801z"/>
	<path fill="#FFFFFF" d="M964.04,245.215h-2.036c-0.399,0.597-0.753,1.057-1.06,1.379c0.897,0.361,1.673,0.703,2.323,1.026
		l-0.829,1.075c-1.123-0.52-1.99-0.895-2.603-1.124c-1.5,0.749-2.901,1.226-4.204,1.429l-0.591-1.265
		c1.177-0.147,2.203-0.405,3.079-0.772c-0.86-0.312-1.582-0.531-2.168-0.656c0.531-0.57,0.854-0.934,0.969-1.093h-1.749v-1.142
		h2.661l0.624-0.961h-2.554v-2.774h2.938v-0.788h-2.98v-1.831h-0.755v-1.075h0.755v-1.807h2.98v-0.648h1.396v0.648h2.939v1.807
		h0.829v1.075h-0.829v1.831h-2.939v0.788h2.973v2.774h-3.071l-0.607,0.961h1.527c0.082-0.137,0.173-0.328,0.271-0.574l1.297,0.305
		c0,0.081-0.029,0.172-0.09,0.271h1.503V245.215L964.04,245.215z M958.843,236.643v-0.746h-1.634v0.746H958.843z M958.843,238.523
		v-0.805h-1.634v0.805H958.843z M958.843,242.037v-0.657h-1.585v0.657H958.843z M960.37,245.215h-1.658
		c-0.022,0.038-0.153,0.205-0.395,0.5l1.298,0.395C959.927,245.797,960.179,245.499,960.37,245.215z M961.814,236.643v-0.746h-1.576
		v0.746H961.814z M961.814,238.507v-0.788h-1.576v0.788H961.814z M961.873,242.037v-0.657h-1.634v0.657H961.873z M969.976,247.735
		l-0.739,1.247c-1.16-0.875-1.983-1.699-2.471-2.471c-0.679,0.941-1.447,1.754-2.307,2.438l-0.978-1.108
		c1.057-0.854,1.869-1.74,2.438-2.66c-0.553-0.979-0.973-2.102-1.257-3.367l1.289-0.705c0.235,1.029,0.471,1.809,0.706,2.34
		c0.417-1.369,0.657-3.202,0.723-5.502h-1.24c-0.525,1.555-1.048,2.742-1.567,3.564l-0.97-1.208c0.903-1.69,1.553-3.771,1.946-6.239
		l1.428,0.205c-0.071,0.482-0.221,1.242-0.451,2.283h3.21v1.395h-0.928c-0.12,3.071-0.544,5.477-1.272,7.217
		C968.2,246.184,969.013,247.039,969.976,247.735z"/>
</g>
<path fill="#F5FBDC" d="M131.901,122.961c0,38.218-30.982,69.201-69.199,69.201c-38.22,0-69.201-30.982-69.201-69.201
	c0-38.217,30.981-69.2,69.201-69.2C100.919,53.761,131.901,84.744,131.901,122.961"/>
<path fill="none" stroke="#FFFFFF" stroke-miterlimit="10" d="M131.901,122.961c0,38.218-30.982,69.201-69.199,69.201
	c-38.22,0-69.201-30.982-69.201-69.201c0-38.217,30.981-69.2,69.201-69.2C100.919,53.761,131.901,84.744,131.901,122.961"/>
<circle fill="none" stroke="#96CE17" stroke-width="6" stroke-miterlimit="10" cx="62.702" cy="122.961" r="69.2"/>
<g>
	<path fill="#2E320D" d="M24.213,134.677H9.863v-2.921l6.691-6.585c1.49-1.461,2.59-2.723,3.301-3.786
		c0.71-1.063,1.065-2.22,1.065-3.472c0-2.553-1.352-3.83-4.054-3.83c-2.027,0-3.974,0.85-5.841,2.549v-3.368
		c1.877-1.371,4.033-2.057,6.467-2.057c2.116,0,3.802,0.564,5.059,1.691c1.257,1.127,1.885,2.67,1.885,4.627
		c0,1.411-0.397,2.814-1.192,4.21c-0.795,1.396-2.181,3.047-4.158,4.955l-5.126,4.888v0.074h10.252V134.677z"/>
	<path fill="#2E320D" d="M32.749,130.758c1.589,1.004,3.218,1.504,4.888,1.504c1.49,0,2.701-0.406,3.635-1.222
		c0.934-0.814,1.401-1.917,1.401-3.308c0-2.881-1.848-4.321-5.543-4.321c-0.874,0-2.101,0.074-3.681,0.223v-12.04h11.727v3.011
		h-8.583v6.004c0.864-0.049,1.515-0.074,1.952-0.074c2.364,0,4.236,0.611,5.618,1.832c1.381,1.222,2.072,2.921,2.072,5.097
		c0,2.314-0.765,4.16-2.295,5.535c-1.53,1.376-3.571,2.064-6.125,2.064c-2.186,0-3.875-0.323-5.067-0.969L32.749,130.758
		L32.749,130.758z"/>
</g>
<g>
	<path fill="#2E320D" d="M53.67,132.948c0-0.605,0.219-1.107,0.656-1.505c0.437-0.396,0.958-0.596,1.564-0.596
		c0.596,0,1.113,0.196,1.55,0.589s0.656,0.896,0.656,1.512c0,0.577-0.209,1.071-0.625,1.483c-0.418,0.412-0.954,0.619-1.609,0.619
		c-0.606,0-1.123-0.201-1.55-0.604C53.884,134.043,53.67,133.544,53.67,132.948z"/>
</g>
<g>
	<path fill="#2E320D" d="M64.713,123.575c0-4.054,0.693-7.128,2.079-9.224s3.395-3.145,6.028-3.145
		c5.017,0,7.525,3.939,7.525,11.817c0,3.854-0.686,6.824-2.056,8.912c-1.371,2.085-3.358,3.129-5.961,3.129
		c-2.513,0-4.411-0.983-5.692-2.951S64.713,127.3,64.713,123.575z M68.274,123.44c0,5.882,1.425,8.821,4.276,8.821
		c2.812,0,4.218-2.999,4.218-9c0-6.16-1.376-9.239-4.128-9.239C69.729,114.023,68.274,117.162,68.274,123.44z"/>
</g>
<g>
	<path fill="#2E320D" d="M101.272,134.677h-14.35v-2.921l6.691-6.585c1.49-1.461,2.59-2.723,3.3-3.786
		c0.71-1.063,1.066-2.22,1.066-3.472c0-2.553-1.352-3.83-4.054-3.83c-2.027,0-3.974,0.85-5.841,2.549v-3.368
		c1.877-1.371,4.033-2.057,6.467-2.057c2.116,0,3.802,0.564,5.059,1.691c1.257,1.127,1.885,2.67,1.885,4.627
		c0,1.411-0.397,2.814-1.192,4.21c-0.795,1.396-2.181,3.047-4.158,4.955l-5.126,4.888v0.074h10.252V134.677L101.272,134.677z"/>
</g>
<g>
	<path fill="#2E320D" d="M115.409,128.737h-6.102v2.874c0,1.434-0.301,2.613-0.902,3.541l-0.658-0.44
		c0.519-0.79,0.778-1.824,0.778-3.101v-3.562h2.874c-0.114-0.177-0.225-0.33-0.333-0.458l0.851-0.185
		c0.114,0.194,0.237,0.408,0.368,0.642h3.126V128.737z M115.46,134.385l-0.235,0.745c-1.046-0.061-2.03-0.278-2.95-0.655
		c-0.755,0.317-1.649,0.542-2.681,0.676l-0.359-0.745c0.892-0.048,1.622-0.181,2.189-0.397c-0.508-0.316-0.898-0.749-1.172-1.296
		h-0.385v-0.692h4.597v0.692c-0.302,0.468-0.755,0.9-1.36,1.296C113.769,134.243,114.554,134.369,115.46,134.385z M115.324,130.239
		h-1.287v1.287h-3.382v-1.287h-1.052v-0.685h1.052v-0.518h0.752v0.518h1.864v-0.518h0.765v0.518h1.287L115.324,130.239
		L115.324,130.239z M113.472,132.714h-2.318c0.237,0.359,0.599,0.682,1.086,0.967C112.796,133.361,113.207,133.039,113.472,132.714z
		 M113.271,130.85v-0.611h-1.864v0.611H113.271z"/>
</g>
<path fill="#4DAC27" d="M131.901,126.776c-2.106,0-3.814-1.708-3.814-3.815c0-36.053-29.332-65.385-65.385-65.385
	c-2.107,0-3.815-1.708-3.815-3.815c0-2.107,1.708-3.815,3.815-3.815c40.26,0,73.014,32.754,73.014,73.015
	C135.716,125.068,134.008,126.776,131.901,126.776"/>
<path fill="#F5FBDC" d="M416.424,122.961c0,38.218-30.982,69.201-69.2,69.201c-38.218,0-69.2-30.982-69.2-69.201
	c0-38.217,30.981-69.2,69.2-69.2C385.441,53.761,416.424,84.744,416.424,122.961"/>
<path fill="none" stroke="#FFFFFF" stroke-miterlimit="10" d="M416.424,122.961c0,38.218-30.982,69.201-69.2,69.201
	c-38.218,0-69.2-30.982-69.2-69.201c0-38.217,30.981-69.2,69.2-69.2C385.441,53.761,416.424,84.744,416.424,122.961"/>
<circle fill="none" stroke="#96CE17" stroke-width="6" stroke-miterlimit="10" cx="347.224" cy="122.961" r="69.2"/>
<g>
	<path fill="#2E320D" d="M329.706,122.548c-2.732-1.222-4.098-3.05-4.098-5.484c0-1.758,0.68-3.174,2.042-4.247
		c1.361-1.072,3.045-1.609,5.051-1.609c1.877,0,3.455,0.502,4.731,1.505c1.277,1.003,1.915,2.34,1.915,4.009
		c0,2.543-1.44,4.48-4.321,5.812v0.06c3.337,1.192,5.006,3.228,5.006,6.109c0,2.028-0.73,3.595-2.191,4.702
		c-1.46,1.108-3.413,1.662-5.856,1.662c-2.066,0-3.775-0.556-5.126-1.669c-1.352-1.112-2.027-2.593-2.027-4.441
		c0-2.891,1.624-5.007,4.873-6.349L329.706,122.548L329.706,122.548z M332.269,124.112c-2.672,1.063-4.009,2.617-4.009,4.665
		c0,1.073,0.397,1.935,1.193,2.584c0.794,0.652,1.808,0.977,3.04,0.977c1.203,0,2.188-0.318,2.958-0.954
		c0.77-0.635,1.155-1.49,1.155-2.563C336.605,126.706,335.16,125.135,332.269,124.112z M335.905,117.078
		c0-0.963-0.306-1.726-0.917-2.287s-1.429-0.842-2.452-0.842c-0.974,0-1.795,0.298-2.466,0.895c-0.671,0.596-1.006,1.335-1.006,2.22
		c0,1.809,1.132,3.174,3.397,4.099C334.757,120.208,335.905,118.847,335.905,117.078z"/>
	<path fill="#2E320D" d="M361.175,134.677h-14.35v-2.92l6.691-6.586c1.49-1.461,2.59-2.723,3.301-3.786
		c0.71-1.063,1.065-2.219,1.065-3.471c0-2.554-1.352-3.83-4.054-3.83c-2.027,0-3.974,0.849-5.841,2.548v-3.368
		c1.877-1.371,4.033-2.056,6.467-2.056c2.116,0,3.802,0.564,5.059,1.691c1.257,1.127,1.885,2.67,1.885,4.626
		c0,1.411-0.397,2.814-1.192,4.209c-0.795,1.396-2.181,3.047-4.158,4.955l-5.126,4.888v0.074h10.252V134.677L361.175,134.677z"/>
</g>
<g>
	<path fill="#2E320D" d="M375.314,132.873c-0.023,0.656-0.08,1.136-0.171,1.441c-0.091,0.305-0.242,0.51-0.453,0.613
		s-0.588,0.156-1.133,0.156c-0.374,0-0.664-0.01-0.873-0.027c-0.208-0.019-0.375-0.085-0.5-0.199
		c-0.125-0.114-0.188-0.276-0.188-0.487v-3.502h-1.347c-0.058,1.198-0.273,2.104-0.648,2.719c-0.375,0.616-0.994,1.144-1.858,1.583
		l-0.569-0.65c0.79-0.329,1.355-0.752,1.696-1.272c0.34-0.52,0.527-1.314,0.562-2.379h-2.039v-0.761h7.372v0.761h-2.356v3.216
		c0,0.091,0.029,0.15,0.087,0.179s0.297,0.043,0.716,0.043c0.325,0,0.529-0.019,0.612-0.058s0.137-0.099,0.163-0.179
		c0.026-0.082,0.054-0.252,0.085-0.513c0.031-0.261,0.053-0.604,0.063-1.033L375.314,132.873z M374.638,128.443h-6.303v-0.77h6.303
		V128.443z"/>
</g>
<path fill="#F5FBDC" d="M700.945,122.961c0,38.218-30.981,69.201-69.199,69.201c-38.219,0-69.201-30.982-69.201-69.201
	c0-38.217,30.983-69.2,69.201-69.2C669.964,53.761,700.945,84.744,700.945,122.961"/>
<path fill="none" stroke="#FFFFFF" stroke-miterlimit="10" d="M700.945,122.961c0,38.218-30.981,69.201-69.199,69.201
	c-38.219,0-69.201-30.982-69.201-69.201c0-38.217,30.983-69.2,69.201-69.2C669.964,53.761,700.945,84.744,700.945,122.961"/>
<circle fill="none" stroke="#96CE17" stroke-width="6" stroke-miterlimit="10" cx="631.745" cy="122.961" r="69.201"/>
<g>
	<path fill="#2E320D" d="M602.165,134.677h-13.59v-2.921h5.052v-16.674l-5.186,1.4v-3.069l8.688-2.28v20.624h5.036V134.677
		L602.165,134.677z"/>
	<path fill="#2E320D" d="M609.851,130.46c1.58,1.203,3.368,1.803,5.364,1.803c1.48,0,2.663-0.36,3.548-1.081
		c0.884-0.719,1.326-1.695,1.326-2.928c0-2.712-1.977-4.068-5.931-4.068h-1.968v-2.817h1.849c3.526,0,5.29-1.267,5.29-3.8
		c0-2.364-1.347-3.546-4.039-3.546c-1.59,0-3.109,0.537-4.56,1.609v-3.128c1.52-0.864,3.317-1.297,5.395-1.297
		c1.986,0,3.612,0.505,4.88,1.513c1.267,1.008,1.9,2.368,1.9,4.076c0,3.03-1.54,4.961-4.62,5.796v0.061
		c1.629,0.159,2.936,0.743,3.919,1.75c0.984,1.008,1.476,2.248,1.476,3.719c0,2.146-0.777,3.839-2.332,5.082
		c-1.556,1.241-3.579,1.862-6.073,1.862c-2.255,0-4.063-0.402-5.424-1.207V130.46z"/>
	<path fill="#2E320D" d="M631.188,132.949c0-0.606,0.219-1.108,0.656-1.505c0.437-0.397,0.958-0.597,1.564-0.597
		c0.596,0,1.112,0.197,1.55,0.589c0.437,0.393,0.655,0.897,0.655,1.513c0,0.576-0.209,1.07-0.626,1.482
		c-0.418,0.413-0.954,0.619-1.609,0.619c-0.606,0-1.123-0.201-1.55-0.604C631.4,134.043,631.188,133.544,631.188,132.949z"/>
	<path fill="#2E320D" d="M647.322,122.547c-2.731-1.222-4.098-3.05-4.098-5.484c0-1.758,0.681-3.174,2.041-4.247
		c1.36-1.072,3.045-1.609,5.052-1.609c1.878,0,3.455,0.502,4.731,1.505c1.276,1.003,1.915,2.34,1.915,4.008
		c0,2.543-1.441,4.481-4.322,5.813v0.059c3.339,1.192,5.007,3.229,5.007,6.11c0,2.027-0.73,3.594-2.19,4.702
		c-1.461,1.107-3.412,1.661-5.856,1.661c-2.065,0-3.775-0.556-5.125-1.669c-1.352-1.113-2.027-2.593-2.027-4.441
		c0-2.891,1.624-5.006,4.873-6.348V122.547L647.322,122.547z M649.886,124.112c-2.673,1.063-4.009,2.617-4.009,4.664
		c0,1.073,0.396,1.935,1.192,2.585c0.794,0.651,1.808,0.976,3.04,0.976c1.201,0,2.188-0.317,2.958-0.954
		c0.77-0.635,1.154-1.49,1.154-2.563C654.222,126.706,652.776,125.135,649.886,124.112z M653.521,117.078
		c0-0.963-0.305-1.726-0.916-2.288c-0.61-0.561-1.429-0.841-2.451-0.841c-0.974,0-1.796,0.298-2.467,0.894s-1.006,1.336-1.006,2.22
		c0,1.808,1.133,3.174,3.397,4.099C652.374,120.208,653.521,118.847,653.521,117.078z"/>
</g>
<g>
	<path fill="#2E320D" d="M666.691,127.699c-0.57,1.542-1.506,2.838-2.81,3.887l-0.501-0.667c1.173-0.881,2.016-2.042,2.531-3.486
		L666.691,127.699z M670.596,134.694l-0.696,0.483c-0.162-0.382-0.327-0.71-0.491-0.983c-1.349,0.316-2.998,0.605-4.948,0.867
		l-0.227-0.666c0.749-0.542,1.627-2.028,2.634-4.456l0.796,0.235c-0.71,1.662-1.44,2.988-2.189,3.977
		c1.314-0.151,2.494-0.358,3.54-0.62c-0.176-0.305-0.48-0.746-0.91-1.325l0.646-0.42
		C669.476,132.698,670.092,133.668,670.596,134.694z M671.169,130.957l-0.466,0.689c-1.084-0.767-1.892-1.885-2.425-3.353h-0.71
		v-0.745h1.27C669.285,129.042,670.063,130.179,671.169,130.957z"/>
	<path fill="#2E320D" d="M680.879,130.918h-2.313v4.195h-0.796v-4.195h-2.89c-0.061,1.871-0.411,3.279-1.053,4.225l-0.628-0.534
		c0.59-0.921,0.885-2.043,0.885-3.366v-3.258c2.507,0,4.448-0.192,5.824-0.578l0.437,0.693c-1.357,0.391-3.179,0.603-5.465,0.637
		v1.419h5.999V130.918z"/>
</g>
<g>
	<g>
		<path fill="#FFFFFF" d="M894.844,134.633h-13.59v-2.921h5.052v-16.675l-5.186,1.401v-3.07l8.687-2.279v20.623h5.037V134.633z"/>
		<path fill="#FFFFFF" d="M901.621,123.531c0-4.054,0.693-7.128,2.079-9.224c1.387-2.097,3.395-3.145,6.028-3.145
			c5.017,0,7.524,3.939,7.524,11.817c0,3.854-0.686,6.824-2.057,8.911c-1.37,2.086-3.358,3.13-5.961,3.13
			c-2.513,0-4.41-0.983-5.692-2.951C902.262,130.104,901.621,127.257,901.621,123.531z M905.183,123.396
			c0,5.882,1.426,8.821,4.276,8.821c2.812,0,4.218-2.999,4.218-9c0-6.159-1.376-9.239-4.128-9.239
			C906.638,113.979,905.183,117.118,905.183,123.396z"/>
		<path fill="#FFFFFF" d="M923.493,123.531c0-4.054,0.693-7.128,2.079-9.224c1.387-2.097,3.396-3.145,6.028-3.145
			c5.017,0,7.525,3.939,7.525,11.817c0,3.854-0.687,6.824-2.058,8.911c-1.37,2.086-3.357,3.13-5.961,3.13
			c-2.513,0-4.41-0.983-5.692-2.951C924.134,130.104,923.493,127.257,923.493,123.531z M927.055,123.396
			c0,5.882,1.426,8.821,4.276,8.821c2.812,0,4.218-2.999,4.218-9c0-6.159-1.376-9.239-4.128-9.239
			C928.511,113.979,927.055,117.118,927.055,123.396z"/>
	</g>
	<g>
		<path fill="#FFFFFF" d="M952.292,128.693h-6.103v2.874c0,1.434-0.301,2.613-0.902,3.541l-0.657-0.44
			c0.519-0.79,0.777-1.824,0.777-3.101v-3.562h2.874c-0.113-0.178-0.225-0.33-0.334-0.458l0.851-0.185
			c0.114,0.194,0.237,0.408,0.368,0.643h3.126V128.693L952.292,128.693z M952.343,134.342l-0.235,0.745
			c-1.046-0.061-2.029-0.278-2.95-0.655c-0.756,0.316-1.649,0.541-2.681,0.676l-0.359-0.745c0.892-0.048,1.621-0.181,2.189-0.396
			c-0.509-0.316-0.898-0.749-1.173-1.297h-0.385v-0.691h4.598v0.691c-0.303,0.469-0.756,0.9-1.359,1.297
			C950.651,134.199,951.437,134.325,952.343,134.342z M952.206,130.195h-1.287v1.286h-3.382v-1.286h-1.053v-0.685h1.053v-0.519
			h0.752v0.519h1.864v-0.519h0.766v0.519h1.287V130.195z M950.354,132.67h-2.318c0.237,0.359,0.599,0.682,1.087,0.967
			C949.679,133.317,950.089,132.995,950.354,132.67z M950.153,130.806v-0.61h-1.864v0.61H950.153z"/>
	</g>
</g>
<g>
	<path fill="#FFFFFF" d="M22.688,240.394h-1.564v-2.408H9.531v2.426H7.905v-3.814h6.627v-2.426h1.582v2.426h6.574V240.394z
		 M21.783,249.859h-1.529v-0.756H10.41v0.756H8.846v-6.636h12.938V249.859z M12.845,235.771l-1.644,0.554
		c-0.463-0.533-0.984-1.031-1.564-1.494l1.582-0.624C11.928,234.757,12.47,235.278,12.845,235.771z M14.567,245.509v-1.028H10.41
		v1.028H14.567z M14.567,247.812v-1.063H10.41v1.063H14.567z M20.078,242.318h-9.545v-3.437h9.545V242.318z M18.496,241.097v-0.976
		h-6.372v0.976H18.496z M20.254,245.509v-1.028h-4.14v1.028H20.254z M20.254,247.812v-1.063h-4.14v1.063H20.254z M20.939,234.883
		c-0.516,0.568-1.072,1.055-1.67,1.459l-1.573-0.756c0.598-0.369,1.181-0.835,1.749-1.397L20.939,234.883z"/>
	<path fill="#FFFFFF" d="M39.783,248.295c0,0.469-0.126,0.836-0.378,1.104c-0.252,0.266-0.686,0.412-1.301,0.439
		c-0.615,0.025-1.178,0.039-1.688,0.039c-0.48,0-0.94-0.012-1.38-0.035l-0.563-1.635c1.107,0.059,1.963,0.088,2.566,0.088
		c0.492,0,0.797-0.031,0.914-0.092c0.117-0.063,0.176-0.198,0.176-0.409v-3.208h-9.018c-0.34,2.115-1.21,3.911-2.61,5.388
		l-1.169-1.187c0.697-0.703,1.258-1.609,1.683-2.721c0.425-1.109,0.638-2.693,0.638-4.75v-6.812h12.129V248.295z M38.131,238.688
		v-2.575h-8.842v2.575H38.131z M38.131,243.021v-2.769h-8.842v2.769H38.131z"/>
</g>
<g>
	<path fill="#FFFFFF" d="M592.732,239.693h-1.564v-2.408h-11.593v2.426h-1.626v-3.814h6.627v-2.426h1.582v2.426h6.574V239.693z
		 M591.827,249.158h-1.529v-0.756h-9.844v0.756h-1.564v-6.635h12.938V249.158z M582.889,235.07l-1.644,0.553
		c-0.463-0.533-0.984-1.031-1.564-1.494l1.582-0.623C581.972,234.057,582.514,234.578,582.889,235.07z M584.611,244.809v-1.029
		h-4.157v1.029H584.611z M584.611,247.111v-1.064h-4.157v1.064H584.611z M590.122,241.617h-9.545v-3.436h9.545V241.617z
		 M588.54,240.396v-0.977h-6.372v0.977H588.54z M590.298,244.809v-1.029h-4.14v1.029H590.298z M590.298,247.111v-1.064h-4.14v1.064
		H590.298z M590.983,234.182c-0.516,0.568-1.072,1.055-1.67,1.459l-1.573-0.756c0.598-0.369,1.181-0.834,1.749-1.396
		L590.983,234.182z"/>
	<path fill="#FFFFFF" d="M609.827,247.594c0,0.469-0.126,0.836-0.378,1.104c-0.252,0.266-0.686,0.412-1.301,0.439
		c-0.615,0.025-1.178,0.039-1.688,0.039c-0.48,0-0.94-0.012-1.38-0.035l-0.563-1.635c1.107,0.059,1.963,0.088,2.566,0.088
		c0.492,0,0.797-0.031,0.914-0.092c0.117-0.063,0.176-0.197,0.176-0.408v-3.209h-9.018c-0.34,2.115-1.21,3.912-2.61,5.389
		l-1.169-1.188c0.697-0.703,1.258-1.609,1.683-2.721c0.425-1.109,0.638-2.693,0.638-4.75v-6.811h12.129V247.594z M608.175,237.988
		v-2.576h-8.842v2.576H608.175z M608.175,242.32v-2.768h-8.842v2.768H608.175z"/>
</g>
<g>
	<path fill="#FFFFFF" d="M307.21,240.394h-1.564v-2.408h-11.593v2.426h-1.626v-3.814h6.627v-2.426h1.582v2.426h6.574V240.394z
		 M306.305,249.859h-1.529v-0.756h-9.844v0.756h-1.564v-6.636h12.938V249.859z M297.366,235.771l-1.644,0.554
		c-0.463-0.533-0.984-1.031-1.564-1.494l1.582-0.624C296.449,234.757,296.991,235.278,297.366,235.771z M299.089,245.509v-1.028
		h-4.157v1.028H299.089z M299.089,247.812v-1.063h-4.157v1.063H299.089z M304.6,242.318h-9.545v-3.437h9.545V242.318z
		 M303.018,241.097v-0.976h-6.372v0.976H303.018z M304.775,245.509v-1.028h-4.14v1.028H304.775z M304.775,247.812v-1.063h-4.14
		v1.063H304.775z M305.461,234.883c-0.516,0.568-1.072,1.055-1.67,1.459l-1.573-0.756c0.598-0.369,1.181-0.835,1.749-1.397
		L305.461,234.883z"/>
	<path fill="#FFFFFF" d="M324.305,248.295c0,0.469-0.126,0.836-0.378,1.104c-0.252,0.266-0.686,0.412-1.301,0.439
		c-0.615,0.025-1.178,0.039-1.688,0.039c-0.48,0-0.94-0.012-1.38-0.035l-0.563-1.635c1.107,0.059,1.963,0.088,2.566,0.088
		c0.492,0,0.797-0.031,0.914-0.092c0.117-0.063,0.176-0.198,0.176-0.409v-3.208h-9.018c-0.34,2.115-1.21,3.911-2.61,5.388
		l-1.169-1.187c0.697-0.703,1.258-1.609,1.683-2.721c0.425-1.109,0.638-2.693,0.638-4.75v-6.812h12.129V248.295z M322.652,238.688
		v-2.575h-8.842v2.575H322.652z M322.652,243.021v-2.769h-8.842v2.769H322.652z"/>
</g>
</svg>
