<?xml version="1.0" encoding="utf-8"?>
<!-- Generator: Adobe Illustrator 16.0.0, SVG Export Plug-In . SVG Version: 6.00 Build 0)  -->
<!DOCTYPE svg PUBLIC "-//W3C//DTD SVG 1.1//EN" "http://www.w3.org/Graphics/SVG/1.1/DTD/svg11.dtd">
<svg version="1.1" id="圖層_1" xmlns="http://www.w3.org/2000/svg" xmlns:xlink="http://www.w3.org/1999/xlink" x="0px" y="0px"
	 width="402.5px" height="218.5px" viewBox="0 0 402.5 218.5" enable-background="new 0 0 402.5 218.5" xml:space="preserve">
<path fill="#4A80A8" d="M388.679,172.699l-34.978-43.616c7.502-8.785,12.16-21.092,12.133-34.719l-0.044-20.896
	c-0.056-26.631-17.963-48.181-39.997-48.135l-271.21,0.566C32.549,25.944,14.732,47.57,14.787,74.2l0.043,20.896
	c0.055,26.63,17.964,48.182,39.998,48.135l271.208-0.568c1.563-0.002,3.1-0.125,4.615-0.342L388.679,172.699z"/>
<path fill="#FFFFFF" d="M389.946,165.843l-34.979-43.616c7.504-8.786,12.16-21.092,12.133-34.719l-0.045-20.896
	c-0.055-26.63-17.963-48.182-39.996-48.136L55.852,19.043C33.817,19.089,16,40.714,16.055,67.344l0.044,20.896
	c0.056,26.63,17.964,48.183,39.998,48.138l271.207-0.566c1.563-0.004,3.104-0.127,4.615-0.344L389.946,165.843z"/>
<path fill="#162A53" d="M60.641,113.806l-1.291,0.003l-0.003-1.622l-12.604,0.025l0.003,1.623l-1.314,0.002l-0.043-20.633
	l15.208-0.032L60.641,113.806z M59.32,99.108l-0.01-4.703l-12.604,0.026l0.01,4.703L59.32,99.108z M59.331,104.914l-0.009-4.488
	l-12.604,0.025l0.01,4.488L59.331,104.914z M59.344,110.931l-0.01-4.68l-12.603,0.025l0.01,4.68L59.344,110.931z"/>
<path fill="#162A53" d="M90.25,96.794l-21.06,0.045l-0.002-1.209l21.06-0.044L90.25,96.794z M79.267,112.144
	c0,0.449-0.137,0.822-0.413,1.121c-0.276,0.295-0.659,0.451-1.148,0.469c-0.49,0.018-1.007,0.025-1.552,0.027
	c-0.45,0.002-0.868-0.01-1.256-0.033l-0.452-1.303c0.625,0.063,1.635,0.092,3.032,0.09c0.135,0,0.257-0.064,0.367-0.191
	c0.11-0.126,0.166-0.265,0.166-0.414l-0.007-3.518l-5.508,0.012c-0.414,2.204-1.187,4.051-2.321,5.535l-0.973-0.874
	c1.536-2.024,2.299-4.942,2.291-8.757l-0.012-5.365l7.758-0.017L79.267,112.144z M78.001,107.194l-0.006-2.973l-5.248,0.012
	c0.001,0.624-0.045,1.614-0.137,2.973L78.001,107.194z M77.992,102.956l-0.006-2.785l-5.248,0.012l0.006,2.783L77.992,102.956z
	 M77.975,94.734l-1.219,0.512c-0.602-0.725-1.413-1.47-2.433-2.233l1.337-0.536C76.586,93.217,77.357,93.969,77.975,94.734z
	 M85.386,93.049c-0.512,0.68-1.301,1.4-2.365,2.16l-1.293-0.661c0.875-0.545,1.723-1.242,2.542-2.089L85.386,93.049z
	 M83.609,109.683l-1.221,0.002l-0.021-10.398l1.22-0.003L83.609,109.683z M88.41,111.96c0.001,0.441-0.106,0.813-0.323,1.107
	c-0.216,0.296-0.484,0.479-0.805,0.553c-0.32,0.071-0.941,0.107-1.865,0.109c-0.529,0.002-1.097-0.014-1.705-0.043l-0.465-1.326
	l3.329,0.109c0.402,0.021,0.603-0.209,0.602-0.698l-0.027-13.077l1.232-0.002L88.41,111.96z"/>
<path fill="#162A53" d="M103.849,104.453l-0.649,1.092c-0.863-1.151-1.758-2.153-2.683-3.004l0.023,11.134l-1.256,0.002
	l-0.022-10.625c-0.754,1.882-1.632,3.528-2.631,4.934l-0.926-0.875c1.331-1.889,2.514-4.339,3.549-7.35l-3.327,0.007l-0.003-1.161
	l3.328-0.008l-0.008-3.671c-0.939,0.255-1.795,0.435-2.569,0.539l-0.606-1.065c2.968-0.606,5.123-1.207,6.463-1.802l0.808,0.969
	c-0.829,0.374-1.775,0.708-2.84,1.001l0.009,4.027l2.167-0.005l0.003,1.161l-2.168,0.005l0.002,1.231
	C101.994,102.329,103.106,103.483,103.849,104.453z M115.671,110.397l-7.106,0.016l0.582,0.674
	c-1.947,1.164-3.837,2.012-5.668,2.535l-0.677-1.041c1.965-0.598,3.685-1.317,5.16-2.166l-2.937,0.006l-0.018-8.859l10.648-0.021
	L115.671,110.397z M117.036,100.162l-13.361,0.027l-0.002-1.042l6.112-0.013l-0.003-1.505l-5.022,0.011l-0.002-1.042l5.022-0.011
	l-0.003-1.41l-5.602,0.012l-0.003-1.042l5.603-0.012l-0.004-1.729l1.208-0.003l0.004,1.73l5.484-0.012l0.003,1.042l-5.485,0.012
	l0.003,1.411l4.88-0.012l0.003,1.042l-4.88,0.011l0.003,1.505l6.041-0.013L117.036,100.162z M114.449,104.193l-0.003-1.528
	l-8.244,0.018l0.004,1.527L114.449,104.193z M114.455,106.765l-0.003-1.527l-8.245,0.016l0.003,1.529L114.455,106.765z
	 M114.461,109.335l-0.003-1.552l-8.244,0.017l0.003,1.553L114.461,109.335z M117.015,112.622l-0.602,1.066
	c-1.28-0.598-2.956-1.158-5.026-1.684l0.507-1.114C114.081,111.485,115.789,112.063,117.015,112.622z"/>
<path fill="#162A53" d="M131.113,92.918c-1.933,4.458-4.504,7.795-7.713,10.012l-0.878-0.994c3.115-2.091,5.552-5.223,7.313-9.396
	L131.113,92.918z M139.943,101.417c-0.035,2.599-0.184,4.932-0.448,7c-0.264,2.067-0.526,3.354-0.785,3.851
	c-0.26,0.499-0.62,0.854-1.082,1.067c-0.461,0.215-1.265,0.322-2.409,0.326c-0.498,0-1.142-0.02-1.931-0.058L133,112.3
	c0.885,0.078,1.702,0.115,2.452,0.113c0.727,0,1.195-0.05,1.403-0.145c0.209-0.096,0.391-0.23,0.543-0.409
	c0.154-0.179,0.324-0.709,0.513-1.589c0.188-0.881,0.337-1.973,0.449-3.271c0.11-1.297,0.185-2.729,0.221-4.292l-6.23,0.013
	c-0.535,4.763-3.197,8.511-7.983,11.244l-0.782-1.014c4.44-2.504,6.901-5.912,7.382-10.225l-4.584,0.01l-0.003-1.291
	L139.943,101.417z M143.864,101.728l-0.863,1.092c-3.202-2.268-5.428-5.24-6.675-8.917l-1.813,0.003l-0.002-1.303l2.712-0.006
	C138.44,96.623,140.654,99.666,143.864,101.728z"/>
<path fill="#162A53" d="M157.538,100.349c-0.002-0.387,0.137-0.717,0.412-0.99s0.596-0.41,0.959-0.41
	c0.379-0.001,0.703,0.135,0.973,0.406c0.268,0.271,0.403,0.601,0.404,0.988c0,0.387-0.135,0.715-0.406,0.984
	c-0.272,0.269-0.595,0.404-0.965,0.404c-0.363,0.001-0.684-0.131-0.961-0.395S157.539,100.745,157.538,100.349z M157.56,111.245
	c-0.001-0.387,0.137-0.717,0.412-0.99c0.276-0.271,0.597-0.407,0.96-0.41c0.379-0.002,0.702,0.137,0.971,0.406
	c0.27,0.271,0.404,0.604,0.406,0.988c0,0.381-0.137,0.705-0.408,0.979c-0.271,0.272-0.594,0.41-0.964,0.412
	c-0.363,0-0.684-0.133-0.961-0.396S157.561,111.641,157.56,111.245z"/>
<path fill="#FE0F09" stroke="#FE0F09" stroke-miterlimit="10" d="M184.836,112.29l-10.98,0.023l-0.004-1.789l5.332-5.389
	c1.764-1.789,2.849-3.084,3.254-3.886c0.404-0.802,0.607-1.653,0.604-2.555c-0.001-1.081-0.31-1.913-0.922-2.497
	c-0.614-0.583-1.492-0.873-2.638-0.87c-1.635,0.003-3.204,0.713-4.71,2.13l-0.004-2.109c1.41-1.131,3.068-1.701,4.971-1.704
	c1.58-0.003,2.846,0.432,3.8,1.307c0.952,0.874,1.431,2.063,1.434,3.563c0.003,1.152-0.309,2.288-0.935,3.406
	c-0.625,1.119-1.809,2.553-3.55,4.302l-4.268,4.237v0.047l8.61-0.02L184.836,112.29z"/>
<path fill="#FE0F09" stroke="#FE0F09" stroke-miterlimit="10" d="M190.215,103.479c-0.006-3.237,0.516-5.689,1.566-7.359
	c1.051-1.668,2.571-2.504,4.56-2.509c3.814-0.008,5.729,3.124,5.742,9.392c0.006,3.049-0.513,5.405-1.556,7.068
	c-1.042,1.664-2.563,2.498-4.56,2.503c-1.863,0.006-3.287-0.79-4.269-2.384C190.717,108.598,190.222,106.36,190.215,103.479z
	 M192.23,103.369c0.011,5.021,1.326,7.529,3.947,7.524c2.598-0.007,3.891-2.556,3.88-7.648c-0.012-5.298-1.283-7.945-3.817-7.939
	C193.555,95.312,192.219,98,192.23,103.369z"/>
<g>
	<path fill="#8A8281" d="M340.611,66.009c0,4.024-6.869,7.285-15.343,7.285c-8.475,0-15.342-3.262-15.342-7.285
		s6.867-7.285,15.342-7.285C333.742,58.725,340.611,61.986,340.611,66.009"/>
	<path fill="#8A8281" d="M340.611,63.895c0,4.023-6.869,7.285-15.343,7.285c-8.475,0-15.342-3.262-15.342-7.285
		s6.867-7.285,15.342-7.285C333.742,56.609,340.611,59.872,340.611,63.895"/>
	<path fill="#C3BFB9" d="M340.611,63.895c0,4.023-6.869,7.285-15.343,7.285c-8.475,0-15.342-3.262-15.342-7.285
		s6.867-7.285,15.342-7.285C333.742,56.609,340.611,59.872,340.611,63.895"/>
	<path fill="#8A8281" d="M338.572,62.321c0,3.489-5.957,6.317-13.304,6.317c-7.349,0-13.308-2.829-13.308-6.317
		c0-3.488,5.959-6.317,13.308-6.317C332.615,56.004,338.572,58.833,338.572,62.321"/>
	<path fill="#8A8281" d="M338.572,60.487c0,3.489-5.957,6.317-13.304,6.317c-7.349,0-13.308-2.829-13.308-6.317
		c0-3.488,5.959-6.317,13.308-6.317C332.615,54.17,338.572,57,338.572,60.487"/>
	<polygon fill="#8A8281" points="338.572,62.454 337.908,63.225 337.908,60.602 338.572,60.602 	"/>
	<path fill="#C3BFB9" d="M338.572,60.487c0,3.489-5.957,6.317-13.304,6.317c-7.349,0-13.308-2.829-13.308-6.317
		c0-3.488,5.959-6.317,13.308-6.317C332.615,54.17,338.572,57,338.572,60.487"/>
	<path fill="#49AA27" d="M335.911,59.271c0,3.123-4.864,5.654-10.864,5.654s-10.864-2.531-10.864-5.654s4.864-5.653,10.864-5.653
		S335.911,56.147,335.911,59.271"/>
	<path fill="#8ECF7A" d="M327.821,60.18c0,0.771-1.245,1.396-2.781,1.396c-1.537,0-2.781-0.626-2.781-1.396
		c0-0.771,1.244-1.396,2.781-1.396C326.576,58.784,327.821,59.409,327.821,60.18"/>
	<path fill="#8ECF7A" d="M327.821,53.898c-0.012-2.219-1.251-3.813-2.781-3.813c-1.531,0-2.771,1.578-2.781,3.797l0.002,6.053h5.563
		L327.821,53.898L327.821,53.898z"/>
	<polygon fill="#8ECF7A" points="330.616,46.404 330.318,56.896 324.902,54.789 324.961,49.368 	"/>
	<path fill="#8ECF7A" d="M321.05,51.558c0,3.001-0.873,4.924-2.16,5.386c-1.067,0.382-2.306-2.384-2.306-5.384
		c0-3.001,1.3-5.916,2.306-5.388C320.013,46.76,321.05,48.557,321.05,51.558"/>
	<path fill="#8ECF7A" d="M324.877,49.332l-6.036-3.16v10.771l6.036-2.154c0.281-0.102,0.95-1.269,0.95-2.782
		C325.827,50.496,325.208,49.502,324.877,49.332"/>
	<path fill="#6CBE51" d="M320.542,51.525c0,2.991-0.8,5.453-1.88,5.453c-1.078,0-2.078-2.462-2.078-5.453
		c0-2.992,0.955-5.29,2.026-5.415C319.41,46.017,320.542,48.534,320.542,51.525"/>
	<path fill="#8ECF7A" d="M328.474,51.693c0,2.926,0.785,4.816,1.957,5.25c1.246,0.462,2.211-2.369,2.211-5.293
		c0-2.925-0.826-5.931-2.022-5.246C329.603,46.984,328.474,48.771,328.474,51.693"/>
	<g opacity="0.7">
		<g>
			<g>
				<g>
					<g>
						<defs>
							<rect id="SVGID_1_" x="314.183" y="36.544" width="21.729" height="28.383"/>
						</defs>
						<clipPath id="SVGID_2_">
							<use xlink:href="#SVGID_1_"  overflow="visible"/>
						</clipPath>
						<path clip-path="url(#SVGID_2_)" fill="#63B622" d="M335.91,45.301c-0.037-4.842-4.888-8.758-10.863-8.758
							c-5.975,0-10.825,3.917-10.862,8.758h-0.002v0.056v13.913c0,3.123,4.863,5.653,10.864,5.653c6,0,10.864-2.53,10.864-5.653
							V45.357L335.91,45.301L335.91,45.301z"/>
					</g>
				</g>
			</g>
		</g>
	</g>
	<g opacity="0.9">
		<g>
			<g>
				<g>
					<g>
						<defs>
							<rect id="SVGID_3_" x="324.697" y="36.544" width="11.215" height="27.199"/>
						</defs>
						<clipPath id="SVGID_4_">
							<use xlink:href="#SVGID_3_"  overflow="visible"/>
						</clipPath>
						<path clip-path="url(#SVGID_4_)" fill="#49AA27" d="M335.91,45.301c-0.037-4.842-4.888-8.758-10.863-8.758
							c-0.116,0-0.231,0.004-0.35,0.007c0.005,0,6.166,0.291,6.925,8.751c0.05,0.555,0.077,1.146,0.077,1.774v5.248v2.479v4.468
							v4.469c2.562-1.035,4.212-2.65,4.212-4.469V45.357C335.911,45.337,335.91,45.319,335.91,45.301"/>
					</g>
				</g>
			</g>
		</g>
	</g>
	<g opacity="0.9">
		<g>
			<g>
				<g>
					<g>
						<defs>
							<rect id="SVGID_5_" x="314.183" y="37.891" width="5.092" height="24.125"/>
						</defs>
						<clipPath id="SVGID_6_">
							<use xlink:href="#SVGID_5_"  overflow="visible"/>
						</clipPath>
						<path clip-path="url(#SVGID_6_)" fill="#49AA27" d="M319.275,37.892c-3.04,1.549-5.068,4.287-5.093,7.41h-0.002v13.969
							c0,0.996,0.498,1.932,1.367,2.745c0-0.007,0.006-1.101,0.01-2.745c0.002-0.81,0.006-1.751,0.008-2.762
							c0.011-4.45,0.017-10.243-0.016-11.947C315.463,40.192,318.847,38.134,319.275,37.892"/>
					</g>
				</g>
			</g>
		</g>
	</g>
	<path fill="#FFFFFF" d="M321.19,39.812c0.343,0.54-0.137,1.454-1.07,2.041c-0.934,0.589-1.964,0.627-2.305,0.087
		c-0.342-0.54,0.14-1.455,1.072-2.042C319.819,39.311,320.851,39.272,321.19,39.812"/>
</g>
<g>
	<path fill="#162A53" d="M171.298,47.58h-17.332v6.691c0,4.352-0.879,7.945-2.637,10.781l-1.09-0.797
		c1.68-2.609,2.52-6.344,2.52-11.203v-6.68h8.859c-0.352-0.648-0.742-1.246-1.172-1.793l1.395-0.34
		c0.5,0.773,0.914,1.484,1.242,2.133h8.215V47.58L171.298,47.58z M171.849,64.325l-0.773,1.16c-3.273-0.539-5.961-1.301-8.063-2.285
		c-2.438,1.094-5.406,1.82-8.906,2.18l-0.621-1.242c3.438-0.266,6.125-0.816,8.063-1.652c-1.867-1.141-3.301-2.613-4.301-4.418
		h-0.902v-1.254h12.141v1.254c-0.938,1.828-2.32,3.285-4.148,4.371C166.134,63.221,168.638,63.85,171.849,64.325z M171.298,51.423
		h-4.137v3.902h-8.613v-3.902h-3.645v-1.184h3.645v-1.969h1.254v1.969h6.117v-1.969h1.242v1.969h4.137V51.423z M166.974,58.067
		h-8.238c1.016,1.641,2.41,2.887,4.184,3.738C164.778,60.782,166.13,59.537,166.974,58.067z M165.919,54.13v-2.707h-6.117v2.707
		H165.919z"/>
	<path fill="#162A53" d="M190.297,49.36h-1.629v2.742h-4.148v1.418h4.16v3.68h-4.219c-0.445,0.719-0.855,1.316-1.23,1.793h2.93
		c0.133-0.227,0.25-0.512,0.352-0.854l1.195,0.293c-0.031,0.203-0.086,0.391-0.164,0.563h2.543v1.066h-3.035
		c-0.578,1.109-1.305,2.008-2.18,2.695c1.367,0.617,2.52,1.188,3.457,1.711l-0.785,0.891c-1.164-0.656-2.418-1.262-3.762-1.816
		c-1.5,0.922-3.402,1.527-5.707,1.816l-0.445-1.137c2.023-0.258,3.609-0.676,4.758-1.254c-1.188-0.5-2.254-0.895-3.199-1.184
		c0.422-0.445,0.938-1.02,1.547-1.723h-3.316v-1.066h4.242c0.492-0.625,0.926-1.223,1.301-1.793h-3.844v-3.68h4.219v-1.418h-4.219
		V49.36h-1.699v-1.113h1.699v-2.531h4.219v-1.301h1.184v1.301h4.148v2.531h1.629v1.113H190.297z M183.336,48.248v-1.488h-3.023
		v1.488H183.336z M183.336,51.014V49.36h-3.023v1.652L183.336,51.014L183.336,51.014z M183.336,56.11v-1.5h-3.012v1.5H183.336z
		 M185.586,60.061h-3.234c-0.18,0.234-0.531,0.66-1.055,1.277c0.688,0.211,1.449,0.488,2.285,0.832
		C184.371,61.669,185.039,60.966,185.586,60.061z M187.485,48.248v-1.488h-2.965v1.488H187.485z M187.485,51.014V49.36h-2.965v1.652
		L187.485,51.014L187.485,51.014z M187.485,56.11v-1.5h-2.965v1.5H187.485z M198.312,49.432h-1.102
		c-0.164,5.008-1.008,8.875-2.531,11.602c0.844,1.227,2.039,2.371,3.585,3.434l-0.703,0.984c-1.539-0.961-2.77-2.094-3.691-3.398
		c-1.141,1.273-2.511,2.406-4.113,3.398l-0.727-0.984c1.758-1.125,3.132-2.277,4.125-3.457c-1.094-2.156-1.761-4.398-2.003-6.727
		l1.125-0.387c0.43,2.656,0.992,4.641,1.688,5.953c0.734-1.297,1.266-2.941,1.594-4.934c0.227-1.359,0.391-3.188,0.492-5.484h-3.27
		c-0.766,1.945-1.632,3.523-2.601,4.734l-0.949-0.703c1.539-2,2.769-5.047,3.691-9.141l1.16,0.211
		c-0.164,1.008-0.473,2.246-0.926,3.715h5.156L198.312,49.432L198.312,49.432z"/>
</g>
<g>
	<path fill="#162A53" d="M213.722,50.919c0.391,0,0.717,0.133,0.979,0.398s0.393,0.586,0.393,0.961s-0.131,0.693-0.393,0.955
		c-0.262,0.262-0.588,0.393-0.979,0.393c-0.375,0-0.697-0.129-0.968-0.387c-0.27-0.258-0.403-0.578-0.403-0.961
		c0-0.383,0.135-0.705,0.403-0.967C213.022,51.049,213.347,50.919,213.722,50.919z M213.722,61.712c0.391,0,0.717,0.131,0.979,0.393
		c0.262,0.262,0.393,0.588,0.393,0.979c0,0.375-0.129,0.697-0.387,0.967s-0.586,0.404-0.984,0.404c-0.383,0-0.707-0.133-0.973-0.398
		c-0.266-0.265-0.398-0.59-0.398-0.973c0-0.398,0.136-0.727,0.404-0.984C213.024,61.843,213.347,61.712,213.722,61.712z"/>
	<path fill="#FE0F09" stroke="#FE0F09" stroke-miterlimit="10" d="M239.56,64.162h-10.863v-1.77l5.285-5.32
		c1.75-1.766,2.826-3.045,3.229-3.838c0.403-0.793,0.604-1.635,0.604-2.525c0-1.07-0.303-1.895-0.906-2.473
		s-1.477-0.867-2.605-0.867c-1.617,0-3.174,0.699-4.664,2.098V47.38c1.396-1.117,3.039-1.676,4.922-1.676
		c1.563,0,2.813,0.434,3.756,1.301c0.941,0.867,1.412,2.043,1.412,3.527c0,1.141-0.313,2.264-0.934,3.369
		c-0.619,1.105-1.795,2.521-3.521,4.248l-4.229,4.184v0.047h8.521v1.781H239.56z"/>
	<path fill="#FE0F09" stroke="#FE0F09" stroke-miterlimit="10" d="M245.902,61.596c1.233,0.805,2.491,1.207,3.772,1.207
		c1.28,0,2.323-0.369,3.129-1.107c0.805-0.738,1.207-1.717,1.207-2.936c0-1.227-0.401-2.176-1.207-2.848
		c-0.806-0.672-1.966-1.008-3.479-1.008c-0.478,0-1.427,0.047-2.849,0.141v-9.035h8.694v1.781h-6.832v5.438
		c0.681-0.039,1.195-0.059,1.548-0.059c1.905,0,3.399,0.479,4.481,1.436s1.623,2.303,1.623,4.037c0,1.805-0.586,3.227-1.759,4.266
		c-1.172,1.039-2.711,1.559-4.616,1.559c-1.672,0-2.91-0.25-3.716-0.75L245.902,61.596L245.902,61.596z"/>
	<path fill="#FE0F09" stroke="#FE0F09" stroke-miterlimit="10" d="M260.921,63.071c0-0.383,0.137-0.709,0.41-0.979
		s0.59-0.404,0.949-0.404c0.375,0,0.695,0.135,0.961,0.404s0.398,0.596,0.398,0.979c0,0.375-0.137,0.697-0.404,0.967
		c-0.27,0.27-0.588,0.404-0.955,0.404c-0.359,0-0.676-0.131-0.949-0.393C261.058,63.788,260.921,63.462,260.921,63.071z"/>
	<path fill="#FE0F09" stroke="#FE0F09" stroke-miterlimit="10" d="M268.147,55.455c0-3.203,0.521-5.629,1.563-7.277
		s2.551-2.473,4.52-2.473c3.771,0,5.66,3.102,5.66,9.305c0,3.016-0.52,5.346-1.555,6.99c-1.033,1.644-2.541,2.467-4.518,2.467
		c-1.846,0-3.25-0.789-4.221-2.367C268.63,60.521,268.147,58.307,268.147,55.455z M270.14,55.35c0,4.969,1.297,7.453,3.893,7.453
		c2.568,0,3.854-2.52,3.854-7.559c0-5.242-1.254-7.863-3.762-7.863C271.468,47.38,270.14,50.037,270.14,55.35z"/>
	<path fill="#FE0F09" stroke="#FE0F09" stroke-miterlimit="10" d="M295.026,64.162h-10.863v-1.77l5.285-5.32
		c1.75-1.766,2.826-3.045,3.229-3.838c0.403-0.793,0.604-1.635,0.604-2.525c0-1.07-0.304-1.895-0.908-2.473
		s-1.476-0.867-2.606-0.867c-1.616,0-3.172,0.699-4.664,2.098V47.38c1.397-1.117,3.039-1.676,4.923-1.676
		c1.563,0,2.813,0.434,3.756,1.301c0.94,0.867,1.412,2.043,1.412,3.527c0,1.141-0.312,2.264-0.933,3.369s-1.795,2.521-3.521,4.248
		l-4.229,4.184v0.047h8.521v1.781H295.026z"/>
</g>
<g>
	<path fill="#162A53" d="M98.311,59.662c-0.281,2.055-0.746,3.949-1.395,5.684l-1.148-0.398c0.688-1.852,1.145-3.703,1.371-5.555
		L98.311,59.662z M104.171,57.916l-1.008,0.375c-0.063-0.273-0.176-0.625-0.34-1.055c-2.227,0.688-4.395,1.199-6.504,1.535
		L95.886,57.6c1.664-1.406,3.219-3.293,4.664-5.66c-1.5,0.297-2.871,0.512-4.113,0.645l-0.375-1.148
		c1.5-1.711,2.82-4.09,3.961-7.137l1.102,0.34c-1.008,2.734-2.199,4.934-3.574,6.598c1.047-0.125,2.301-0.348,3.762-0.668
		c0.586-0.961,1.129-2,1.629-3.117l1.113,0.48c-2,4.055-4.16,7.195-6.48,9.422c1.375-0.211,2.996-0.617,4.863-1.219
		c-0.078-0.391-0.277-0.926-0.598-1.605l1.008-0.48C103.432,55.337,103.874,56.626,104.171,57.916z M101.241,64.466l-1.172,0.234
		c-0.016-1.445-0.258-3.102-0.727-4.969l1.137-0.258C100.909,60.982,101.163,62.646,101.241,64.466z M103.854,62.064l-1.125,0.387
		c-0.164-0.969-0.418-1.953-0.762-2.953l1.078-0.387C103.39,60.024,103.659,61.009,103.854,62.064z M106.55,58.993
		c-0.508,2.32-1.156,4.184-1.945,5.59l-1.055-0.551c0.891-1.641,1.504-3.426,1.84-5.355L106.55,58.993z M115.163,56.955h-10.277
		V46.196h2.766c0.352-0.656,0.656-1.273,0.914-1.852l1.078,0.34c-0.195,0.57-0.418,1.074-0.668,1.512h6.188L115.163,56.955
		L115.163,56.955z M113.968,55.794v-8.426h-7.852v8.426H113.968z M113.265,53.85l-0.715,0.891c-0.609-0.703-1.129-1.262-1.559-1.676
		c-0.594,0.742-1.219,1.445-1.875,2.109l-0.844-0.691c0.711-0.742,1.328-1.465,1.852-2.168c-0.375-0.391-0.734-0.691-1.078-0.902
		c-0.344,0.469-0.84,1.027-1.488,1.676l-0.82-0.773c0.383-0.344,0.848-0.871,1.395-1.582c-0.398-0.336-0.773-0.605-1.125-0.809
		l0.598-0.914c0.383,0.227,0.781,0.48,1.195,0.762c0.367-0.57,0.711-1.176,1.031-1.816l0.984,0.457
		c-0.234,0.539-0.609,1.219-1.125,2.039c0.359,0.273,0.711,0.566,1.055,0.879c0.539-0.828,1.043-1.762,1.512-2.801l0.961,0.434
		c-0.391,0.984-0.926,2.023-1.605,3.117C111.956,52.423,112.507,53.014,113.265,53.85z M114.343,61.725
		c-0.047,0.727-0.17,1.367-0.369,1.922c-0.199,0.555-0.49,0.932-0.873,1.131c-0.383,0.199-1.121,0.299-2.215,0.299
		c-1.477,0-2.4-0.115-2.771-0.346s-0.557-0.705-0.557-1.424v-5.25h1.219v5.379c0,0.266,0.145,0.426,0.434,0.48
		c0.289,0.054,0.77,0.082,1.441,0.082c0.938,0,1.527-0.076,1.77-0.229c0.243-0.153,0.424-0.455,0.545-0.908
		c0.121-0.453,0.197-1.016,0.229-1.688L114.343,61.725z M112.55,60.764l-1.008,0.479c-0.641-1.344-1.258-2.414-1.852-3.211
		l1.102-0.48C111.573,58.669,112.159,59.739,112.55,60.764z M117.015,63.376l-1.031,0.75c-0.484-1.531-1.184-3.156-2.098-4.875
		l0.984-0.715C115.8,60.325,116.515,61.939,117.015,63.376z"/>
	<path fill="#162A53" d="M133.618,48.001c0.047,3.453-0.023,6.838-0.211,10.154c-0.188,3.316-0.342,5.191-0.463,5.625
		c-0.121,0.434-0.391,0.809-0.809,1.125c-0.418,0.316-1.17,0.475-2.256,0.475c-0.422,0-0.949-0.02-1.582-0.059l-0.316-1.266
		c0.789,0.047,1.449,0.07,1.98,0.07c0.703,0,1.168-0.09,1.395-0.27c0.227-0.18,0.383-0.439,0.469-0.779
		c0.086-0.34,0.205-2.188,0.357-5.543c0.152-3.354,0.209-6.119,0.17-8.291h-3.961c-0.031,6.43-1.512,11.824-4.441,16.184
		l-0.961-0.961c2.672-3.984,4.055-9.059,4.148-15.223h-3.785V48h3.832c0.078-1.297,0.129-2.5,0.152-3.609h1.266L128.485,48
		L133.618,48.001L133.618,48.001z M143.438,65.368h-1.301v-1.887h-4.969v1.887h-1.313V46.537h7.582L143.438,65.368L143.438,65.368z
		 M142.137,62.182V47.802h-4.969v14.379H142.137z"/>
</g>
<path fill="#162A53" d="M62.495,52.912H61.3v-3.797H44.765v3.797h-1.23v-4.945h8.883v-3.305h1.195v3.305h8.883L62.495,52.912
	L62.495,52.912z M61.488,65.604h-1.242v-1.078H45.843v1.078h-1.254v-8.684h16.898L61.488,65.604L61.488,65.604z M52.417,60.107
	v-2.039h-6.574v2.039H52.417z M52.417,63.354v-2.063h-6.574v2.063H52.417z M49.37,46.864l-1.125,0.691
	c-0.492-0.664-1.23-1.383-2.215-2.156l1.102-0.668C47.867,45.287,48.613,45.998,49.37,46.864z M59.062,55.337h-12.07v-4.395h12.07
	V55.337z M57.82,54.166v-2.098h-9.574v2.098H57.82z M60.245,60.107v-2.039h-6.563v2.039H60.245z M60.245,63.354v-2.063h-6.563v2.063
	H60.245z M60.316,45.564c-0.641,0.625-1.578,1.266-2.813,1.922l-1.031-0.938c1.055-0.461,2-1.051,2.836-1.77L60.316,45.564z"/>
<path fill="#162A53" d="M88.164,63.764c0,0.516-0.109,0.908-0.328,1.178c-0.219,0.27-0.5,0.441-0.844,0.516
	c-0.344,0.075-1.102,0.111-2.273,0.111c-0.734,0-1.41-0.02-2.027-0.059l-0.551-1.266c0.93,0.047,1.754,0.07,2.473,0.07
	c1.109,0,1.762-0.063,1.957-0.188c0.195-0.125,0.293-0.328,0.293-0.609v-5.543H73.786c-0.203,3.039-1.355,5.625-3.457,7.758
	l-1.055-0.961c1.102-1.023,1.934-2.299,2.496-3.826c0.562-1.527,0.844-3.693,0.844-6.498v-9.281h15.551L88.164,63.764L88.164,63.764
	z M86.864,56.708v-4.594H73.903c0.023,0.828,0.008,2.359-0.047,4.594H86.864z M86.864,50.85v-4.418H73.903v4.418H86.864z"/>
<g>
	<circle fill="#AC834C" cx="231.375" cy="103.252" r="17.32"/>
	<g>
		<circle fill="#F5D683" cx="229.283" cy="102.957" r="12.904"/>
		<path fill="#F5B867" stroke="#F5B867" stroke-width="0.8004" stroke-miterlimit="10" d="M229.283,119.879
			c-9.331,0-16.922-7.591-16.922-16.922c0-9.33,7.591-16.922,16.922-16.922s16.922,7.592,16.922,16.922
			C246.205,112.288,238.614,119.879,229.283,119.879z M229.283,89.749c-7.281,0-13.208,5.925-13.208,13.208
			c0,7.281,5.927,13.208,13.208,13.208s13.208-5.927,13.208-13.208C242.491,95.674,236.564,89.749,229.283,89.749z"/>
		<path fill="#36699C" d="M235.089,106.509c-0.663-1.884-2.069-4.831-5.042-6.864c-3.494-2.387-8.723-3.217-9.722-1.601
			c-0.995,1.61,2.048,5.915,5.772,7.932c3.246,1.753,6.617,1.564,8.583,1.25c-0.447,1.231-0.107,3.052,1.402,4.025
			c1.198-1.482,2.396-2.968,3.593-4.452C238.269,105.187,236.018,105.435,235.089,106.509"/>
		<path fill="#AC834C" d="M229.731,88.781c0,0.247-0.201,0.449-0.448,0.449l0,0c-0.246,0-0.447-0.203-0.447-0.449v-1.779
			c0-0.248,0.201-0.446,0.447-0.446l0,0c0.247,0,0.448,0.198,0.448,0.446V88.781z"/>
		<path fill="#AC834C" d="M229.731,117.133c0-0.249-0.201-0.448-0.448-0.448l0,0c-0.246,0-0.447,0.199-0.447,0.448v1.778
			c0,0.245,0.201,0.448,0.447,0.448l0,0c0.247,0,0.448-0.203,0.448-0.448V117.133z"/>
		<path fill="#AC834C" d="M224.146,89.812c0.096,0.229-0.013,0.489-0.241,0.585l0,0c-0.229,0.096-0.491-0.015-0.585-0.243
			l-0.683-1.641c-0.094-0.229,0.015-0.492,0.243-0.587l0,0c0.229-0.094,0.491,0.015,0.585,0.243L224.146,89.812z"/>
		<path fill="#AC834C" d="M219.261,92.852c0.177,0.173,0.177,0.458,0,0.634l0,0c-0.175,0.174-0.459,0.174-0.633,0l-1.259-1.258
			c-0.174-0.174-0.174-0.46,0-0.634l0,0c0.177-0.175,0.46-0.175,0.637,0L219.261,92.852z"/>
		<path fill="#AC834C" d="M216.318,97.134c0.226,0.094,0.336,0.358,0.241,0.585l0,0c-0.095,0.229-0.359,0.337-0.586,0.244
			l-1.642-0.68c-0.231-0.095-0.338-0.357-0.243-0.587l0,0c0.095-0.228,0.356-0.337,0.587-0.242L216.318,97.134z"/>
		<path fill="#AC834C" d="M224.146,116.1c0.096-0.226-0.013-0.489-0.241-0.584l0,0c-0.229-0.095-0.491,0.013-0.585,0.243
			l-0.683,1.642c-0.094,0.229,0.015,0.493,0.243,0.587l0,0c0.229,0.093,0.491-0.014,0.585-0.242L224.146,116.1z"/>
		<path fill="#AC834C" d="M219.261,113.061c0.177-0.174,0.177-0.458,0-0.633l0,0c-0.175-0.175-0.459-0.175-0.633,0l-1.259,1.256
			c-0.174,0.175-0.174,0.46,0,0.637l0,0c0.177,0.172,0.46,0.172,0.637,0L219.261,113.061z"/>
		<path fill="#AC834C" d="M216.318,108.778c0.226-0.092,0.336-0.355,0.241-0.586l0,0c-0.095-0.227-0.359-0.337-0.586-0.242
			l-1.642,0.679c-0.231,0.096-0.338,0.359-0.243,0.588l0,0c0.095,0.228,0.356,0.337,0.587,0.242L216.318,108.778z"/>
		<path fill="#AC834C" d="M215.108,102.508c0.248,0,0.447,0.202,0.447,0.449l0,0c0,0.247-0.199,0.448-0.447,0.448h-1.778
			c-0.247,0-0.449-0.202-0.449-0.448l0,0c0-0.247,0.202-0.449,0.449-0.449H215.108z"/>
		<path fill="#AC834C" d="M234.419,89.812c-0.094,0.229,0.014,0.489,0.242,0.585l0,0c0.229,0.096,0.492-0.015,0.585-0.243
			l0.682-1.641c0.095-0.229-0.014-0.492-0.242-0.587l0,0c-0.228-0.094-0.491,0.015-0.585,0.243L234.419,89.812z"/>
		<path fill="#AC834C" d="M239.306,92.852c-0.176,0.173-0.176,0.458,0,0.634l0,0c0.175,0.174,0.459,0.174,0.632,0l1.258-1.258
			c0.175-0.174,0.175-0.46,0-0.634l0,0c-0.176-0.175-0.459-0.175-0.635,0L239.306,92.852z"/>
		<path fill="#AC834C" d="M242.249,97.134c-0.227,0.094-0.337,0.358-0.241,0.585l0,0c0.093,0.229,0.357,0.337,0.586,0.244
			l1.641-0.68c0.231-0.095,0.338-0.357,0.243-0.587l0,0c-0.095-0.228-0.356-0.337-0.588-0.242L242.249,97.134z"/>
		<path fill="#AC834C" d="M234.419,116.1c-0.094-0.226,0.014-0.489,0.242-0.584l0,0c0.229-0.095,0.492,0.013,0.585,0.243
			l0.682,1.642c0.095,0.229-0.014,0.493-0.242,0.587l0,0c-0.228,0.093-0.491-0.014-0.585-0.242L234.419,116.1z"/>
		<path fill="#AC834C" d="M239.306,113.061c-0.176-0.174-0.176-0.458,0-0.633l0,0c0.175-0.175,0.459-0.175,0.632,0l1.258,1.256
			c0.175,0.175,0.175,0.46,0,0.637l0,0c-0.176,0.172-0.459,0.172-0.635,0L239.306,113.061z"/>
		<path fill="#AC834C" d="M242.249,108.778c-0.227-0.092-0.337-0.355-0.241-0.586l0,0c0.093-0.227,0.357-0.337,0.586-0.242
			l1.641,0.679c0.231,0.096,0.338,0.359,0.243,0.588l0,0c-0.095,0.228-0.356,0.337-0.588,0.242L242.249,108.778z"/>
		<path fill="#AC834C" d="M243.458,102.508c-0.246,0-0.446,0.202-0.446,0.449l0,0c0,0.247,0.2,0.448,0.446,0.448h1.779
			c0.246,0,0.447-0.202,0.447-0.448l0,0c0-0.247-0.201-0.449-0.447-0.449H243.458z"/>
	</g>
</g>
</svg>
