<?xml version="1.0" encoding="utf-8"?>
<!-- Generator: Adobe Illustrator 16.0.0, SVG Export Plug-In . SVG Version: 6.00 Build 0)  -->
<!DOCTYPE svg PUBLIC "-//W3C//DTD SVG 1.1//EN" "http://www.w3.org/Graphics/SVG/1.1/DTD/svg11.dtd">
<svg version="1.1" id="圖層_1" xmlns="http://www.w3.org/2000/svg" xmlns:xlink="http://www.w3.org/1999/xlink" x="0px" y="0px"
	 width="350px" height="247.5px" viewBox="0 0 497.5 247.5" enable-background="new 0 0 497.5 247.5" xml:space="preserve">
<path fill="#4A80A8" d="M428.602,11.462H76.177c-36.443,0-65.985,29.543-65.985,65.985v53.362c0,35.728,28.399,64.804,63.854,65.931
	l-41.846,44.565l105.019-44.511h291.384c36.442,0,65.985-29.543,65.985-65.985V77.448C494.587,41.006,465.044,11.462,428.602,11.462
	"/>
<path fill="#FFFFFF" d="M421.332,5.473H68.907c-36.443,0-65.985,29.542-65.985,65.985v53.362c0,35.729,28.399,64.803,63.854,65.932
	L24.93,235.316l105.019-44.512h291.384c36.442,0,65.985-29.541,65.985-65.984V71.458C487.317,35.016,457.774,5.473,421.332,5.473"/>
<g>
	<path fill="#162A53" d="M67.501,68.54h-2.835v-5.284h-9.891v6.363h-2.738v-6.363h-9.344v5.284h-2.803v-7.62h12.146v-1.192H41.115
		v-2.513h24.969v2.513H54.775v1.192h12.726V68.54z M68.098,81.797c-0.183,1.074-0.479,1.893-0.887,2.457
		c-0.408,0.564-0.854,0.902-1.337,1.015s-2.464,0.169-5.944,0.169c-2.889,0-4.743-0.048-5.565-0.145
		c-0.821-0.097-1.426-0.378-1.812-0.846c-0.387-0.467-0.58-1.13-0.58-1.989v-1.853h-10.6V70.521h23.889v10.084H54.808v0.999
		c0,0.451,0.169,0.739,0.508,0.862c0.338,0.124,2.257,0.186,5.759,0.186c1.503,0,2.44-0.011,2.811-0.032
		c0.371-0.021,0.642-0.161,0.813-0.419s0.258-0.602,0.258-1.031L68.098,81.797z M51.199,68.765
		c-2.052,0.376-4.446,0.618-7.185,0.725l-0.563-1.917c2.169-0.021,4.559-0.214,7.168-0.58L51.199,68.765z M51.038,64.48
		l-0.531,1.885c-2.213-0.301-4.452-0.467-6.718-0.5l0.596-1.853C46.2,63.98,48.418,64.136,51.038,64.48z M51.973,74.403v-1.772
		h-7.765v1.772H51.973z M51.973,78.398v-1.885h-7.765v1.885H51.973z M62.491,74.403v-1.772h-7.684v1.772H62.491z M62.491,78.398
		v-1.885h-7.684v1.885H62.491z M63.748,65.527c-2.234,0.376-4.677,0.618-7.33,0.725l-0.66-1.804c2.03-0.032,4.35-0.242,6.959-0.628
		L63.748,65.527z M63.538,67.814l-0.45,1.869c-2.621-0.429-5.064-0.693-7.33-0.789l0.66-1.869
		C58.373,67.068,60.746,67.331,63.538,67.814z"/>
	<path fill="#162A53" d="M103.791,68.54h-2.835v-5.284h-9.891v6.363h-2.738v-6.363h-9.344v5.284h-2.803v-7.62h12.146v-1.192H77.405
		v-2.513h24.969v2.513H91.065v1.192h12.726V68.54z M104.388,81.797c-0.183,1.074-0.479,1.893-0.887,2.457
		c-0.408,0.564-0.854,0.902-1.337,1.015s-2.464,0.169-5.944,0.169c-2.889,0-4.743-0.048-5.565-0.145
		c-0.821-0.097-1.426-0.378-1.812-0.846c-0.387-0.467-0.58-1.13-0.58-1.989v-1.853h-10.6V70.521h23.889v10.084H91.098v0.999
		c0,0.451,0.169,0.739,0.508,0.862c0.338,0.124,2.257,0.186,5.759,0.186c1.503,0,2.44-0.011,2.811-0.032
		c0.371-0.021,0.642-0.161,0.813-0.419s0.258-0.602,0.258-1.031L104.388,81.797z M87.489,68.765
		c-2.052,0.376-4.446,0.618-7.185,0.725l-0.563-1.917c2.169-0.021,4.559-0.214,7.168-0.58L87.489,68.765z M87.328,64.48
		l-0.531,1.885c-2.213-0.301-4.452-0.467-6.718-0.5l0.596-1.853C82.49,63.98,84.708,64.136,87.328,64.48z M88.263,74.403v-1.772
		h-7.765v1.772H88.263z M88.263,78.398v-1.885h-7.765v1.885H88.263z M98.781,74.403v-1.772h-7.684v1.772H98.781z M98.781,78.398
		v-1.885h-7.684v1.885H98.781z M100.038,65.527c-2.234,0.376-4.677,0.618-7.33,0.725l-0.66-1.804c2.03-0.032,4.35-0.242,6.959-0.628
		L100.038,65.527z M99.828,67.814l-0.45,1.869c-2.621-0.429-5.064-0.693-7.33-0.789l0.66-1.869
		C94.663,67.068,97.036,67.331,99.828,67.814z"/>
</g>
<g>
	<path fill="#162A53" d="M123.212,67.492c0-0.526,0.188-0.975,0.564-1.345c0.376-0.371,0.811-0.556,1.305-0.556
		c0.516,0,0.956,0.186,1.321,0.556c0.364,0.37,0.547,0.819,0.547,1.345c0,0.526-0.185,0.972-0.556,1.337
		c-0.37,0.365-0.808,0.547-1.313,0.547c-0.494,0-0.929-0.18-1.305-0.54S123.212,68.029,123.212,67.492z M123.212,82.313
		c0-0.526,0.188-0.975,0.564-1.345s0.811-0.556,1.305-0.556c0.516,0,0.956,0.185,1.321,0.556c0.364,0.371,0.547,0.819,0.547,1.345
		c0,0.516-0.185,0.958-0.556,1.329c-0.37,0.37-0.808,0.556-1.313,0.556c-0.494,0-0.929-0.18-1.305-0.54
		C123.4,83.298,123.212,82.85,123.212,82.313z"/>
	<path fill="#162A53" d="M165.407,80.943h-1.659v-1.885h-3.496v2.867h-1.675V59.293h6.83V80.943z M163.748,77.351V60.952h-3.496
		v16.399H163.748z M171.013,74.87c-1.396,4.188-2.867,7.727-4.414,10.616l-1.32-1.111c1.75-3.318,3.179-6.814,4.284-10.487
		L171.013,74.87z M171.367,69.425l-1.079,1.256c-1.579-1.579-2.986-2.765-4.221-3.56l1.015-1.321
		C168.715,66.864,170.143,68.072,171.367,69.425z M171.576,60.775l-1.159,1.224c-0.999-1.535-2.218-2.932-3.657-4.188l1.111-1.192
		C169.278,57.865,170.514,59.25,171.576,60.775z M185.962,61.645h-11.646c-0.709,1.632-1.778,3.249-3.206,4.849l-1.386-0.935
		c2.234-2.298,3.775-5.342,4.624-9.133l1.61,0.467c-0.236,0.956-0.553,1.987-0.95,3.093h10.954V61.645z M186.123,73.517h-2.143
		l-0.371,6.008h2.11v1.579h-2.207c-0.086,1.836-0.45,3.015-1.095,3.536s-1.745,0.781-3.303,0.781c-0.376,0-0.821-0.011-1.337-0.032
		l-0.596-1.675c0.858,0.021,1.573,0.032,2.143,0.032c0.912,0,1.506-0.072,1.779-0.217c0.274-0.145,0.476-0.454,0.604-0.926
		s0.193-0.972,0.193-1.498h-9.665c0.278-2.857,0.51-5.386,0.692-7.587h-2.046v-1.579h2.175c0.247-3.254,0.402-5.665,0.467-7.233
		h10.552c0,2.653-0.032,5.063-0.097,7.233h2.143V73.517z M182.257,73.517h-7.685l-0.531,6.008h7.926
		C182.074,78.022,182.171,76.02,182.257,73.517z M182.434,66.3h-7.329c-0.075,1.611-0.21,3.49-0.403,5.638h7.62
		C182.418,69.458,182.455,67.579,182.434,66.3z M180.211,77.898l-1.418,0.725c-0.43-0.966-1.197-2.196-2.304-3.689l1.386-0.725
		C178.906,75.627,179.685,76.857,180.211,77.898z M179.985,70.312l-1.354,0.902c-0.419-0.945-1.09-2.078-2.014-3.399l1.257-0.821
		C178.702,68.013,179.405,69.119,179.985,70.312z"/>
	<path fill="#162A53" d="M212.248,70.794c-0.086,1.687-0.553,2.997-1.401,3.931c-0.849,0.935-1.997,1.401-3.447,1.401
		c-1.268,0-2.803-0.644-4.607-1.933c-1.127-0.773-2.057-1.16-2.786-1.16c-1.633,0-2.481,1.026-2.546,3.077h-2.271
		c0.054-1.653,0.511-2.956,1.37-3.906c0.858-0.95,2.013-1.426,3.463-1.426c1.235,0,2.599,0.516,4.092,1.547
		c1.535,1.052,2.685,1.579,3.447,1.579c0.688,0,1.254-0.276,1.699-0.83s0.685-1.313,0.717-2.28H212.248z"/>
	<path fill="#162A53" d="M250.196,78.736c-0.279,1.364-0.696,2.747-1.249,4.148s-1.058,2.226-1.514,2.473
		c-0.457,0.247-0.927,0.371-1.41,0.371c-0.849,0-1.788-0.642-2.818-1.925c-1.031-1.283-1.891-2.79-2.578-4.519
		c-1.825,1.536-4.135,2.899-6.927,4.091l-1.191-1.45c3.179-1.246,5.675-2.695,7.49-4.349c-0.795-3.297-1.257-6.718-1.386-10.262
		h-7.845v5.799c1.601-0.204,3.699-0.719,6.299-1.546v1.82c-2.105,0.591-4.204,1.095-6.299,1.514v8.441
		c0,0.569-0.209,1.061-0.628,1.474c-0.419,0.413-1.025,0.625-1.82,0.636h-4.35l-0.499-1.772c1.374,0.064,2.937,0.097,4.688,0.097
		c0.591,0,0.886-0.274,0.886-0.822v-7.651c-2.835,0.548-5.219,0.95-7.152,1.208l-0.435-1.74c1.557-0.107,4.086-0.504,7.587-1.192
		v-6.267h-7.78v-1.708h7.78v-5.155c-3.437,0.548-5.622,0.854-6.556,0.918l-0.629-1.643c5.768-0.569,10.52-1.503,14.257-2.803
		l0.515,1.546c-1.771,0.591-3.727,1.117-5.863,1.579v5.557h7.78c-0.021-0.956-0.032-2.024-0.032-3.206
		c0-2.159,0.032-4.107,0.097-5.847h1.724c-0.086,1.536-0.129,3.324-0.129,5.364c0,1.321,0.021,2.55,0.064,3.688h9.827v1.708h-9.73
		c0.064,2.986,0.414,5.891,1.048,8.715c1.524-1.557,3.033-3.844,4.526-6.862l1.481,0.918c-1.89,3.49-3.694,6.121-5.412,7.893
		c0.526,1.601,1.237,3.004,2.135,4.212c0.896,1.208,1.549,1.813,1.957,1.813c0.236,0,0.44-0.134,0.612-0.403
		c0.171-0.268,0.48-0.991,0.926-2.167s0.781-2.397,1.007-3.665L250.196,78.736z M248.488,63.191l-1.417,1.015
		c-1.149-1.976-2.572-3.742-4.27-5.3l1.321-1.063C245.895,59.486,247.35,61.269,248.488,63.191z"/>
	<path fill="#162A53" d="M286.615,83.343l-0.58,1.627h-10.89c-2.825,0-5.117-0.368-6.879-1.104c-1.761-0.735-3.361-1.952-4.8-3.648
		c-1.096,1.654-2.68,3.367-4.752,5.139l-1.289-1.256c3.49-2.642,5.842-5.993,7.056-10.052l1.691,0.418
		c-0.387,1.461-0.982,2.873-1.788,4.237c2.18,2.696,4.591,4.167,7.232,4.414V72.631h-13.966v-1.659h28.738v1.659h-13.064v4.221
		h11.244v1.643h-11.244v4.752c0.977,0.064,2.067,0.097,3.27,0.097H286.615z M282.233,68.378h-20.281V57.424h20.281V68.378z
		 M280.413,61.967v-2.932h-16.688v2.932H280.413z M280.413,66.751V63.69h-16.688v3.061H280.413z"/>
	<path fill="#162A53" d="M322.019,68.54h-1.675v-5.638h-11.55v6.524h-1.659v-6.524h-10.777v5.638h-1.724v-7.201h12.501v-2.433
		h-11.309V57.36h25.113v1.546h-12.146v2.433h13.225V68.54z M323.018,81.507c-0.15,1.343-0.491,2.298-1.022,2.868
		c-0.532,0.569-1.472,0.894-2.819,0.975s-2.865,0.121-4.551,0.121c-1.461,0-2.841-0.032-4.14-0.097
		c-1.3-0.064-2.175-0.312-2.626-0.741c-0.451-0.43-0.677-1.112-0.677-2.046v-2.433h-10.535v-9.44h22.826v9.44h-10.551v2.562
		c0,0.279,0.097,0.489,0.289,0.628c0.193,0.14,0.895,0.25,2.103,0.331s2.554,0.121,4.035,0.121c2.566,0,4.076-0.062,4.526-0.185
		c0.451-0.124,0.781-0.454,0.991-0.991c0.209-0.537,0.341-1.208,0.395-2.014L323.018,81.507z M305.781,68.411
		c-2.642,0.688-5.123,1.101-7.442,1.24l-0.531-1.514c2.448-0.118,4.924-0.457,7.426-1.015L305.781,68.411z M305.781,65.044
		l-0.548,1.417c-1.826-0.451-4.226-0.794-7.2-1.031l0.725-1.418C301.507,64.249,303.849,64.593,305.781,65.044z M307.183,74.645
		v-2.384h-8.812v2.384H307.183z M307.183,78.591v-2.465h-8.812v2.465H307.183z M317.734,74.645v-2.384h-8.812v2.384H317.734z
		 M317.734,78.591v-2.465h-8.812v2.465H317.734z M318.717,68.443l-0.757,1.385c-2.31-0.612-4.903-1.042-7.781-1.289l0.726-1.321
		C314.287,67.508,316.891,67.917,318.717,68.443z M318.491,65.462c-2.729,0.483-5.235,0.806-7.523,0.967l-0.499-1.353
		c2.276-0.172,4.752-0.516,7.427-1.031L318.491,65.462z"/>
	<path fill="#162A53" d="M358.309,68.54h-1.675v-5.638h-11.55v6.524h-1.659v-6.524h-10.777v5.638h-1.724v-7.201h12.501v-2.433
		h-11.309V57.36h25.113v1.546h-12.146v2.433h13.225V68.54z M359.308,81.507c-0.15,1.343-0.491,2.298-1.022,2.868
		c-0.532,0.569-1.472,0.894-2.819,0.975s-2.865,0.121-4.551,0.121c-1.461,0-2.841-0.032-4.14-0.097
		c-1.3-0.064-2.175-0.312-2.626-0.741c-0.451-0.43-0.677-1.112-0.677-2.046v-2.433h-10.535v-9.44h22.826v9.44h-10.551v2.562
		c0,0.279,0.097,0.489,0.289,0.628c0.193,0.14,0.895,0.25,2.103,0.331s2.554,0.121,4.035,0.121c2.566,0,4.076-0.062,4.526-0.185
		c0.451-0.124,0.781-0.454,0.991-0.991c0.209-0.537,0.341-1.208,0.395-2.014L359.308,81.507z M342.071,68.411
		c-2.642,0.688-5.123,1.101-7.442,1.24l-0.531-1.514c2.448-0.118,4.924-0.457,7.426-1.015L342.071,68.411z M342.071,65.044
		l-0.548,1.417c-1.826-0.451-4.226-0.794-7.2-1.031l0.725-1.418C337.797,64.249,340.139,64.593,342.071,65.044z M343.473,74.645
		v-2.384h-8.812v2.384H343.473z M343.473,78.591v-2.465h-8.812v2.465H343.473z M354.024,74.645v-2.384h-8.812v2.384H354.024z
		 M354.024,78.591v-2.465h-8.812v2.465H354.024z M355.007,68.443l-0.757,1.385c-2.31-0.612-4.903-1.042-7.781-1.289l0.726-1.321
		C350.577,67.508,353.181,67.917,355.007,68.443z M354.781,65.462c-2.729,0.483-5.235,0.806-7.523,0.967l-0.499-1.353
		c2.276-0.172,4.752-0.516,7.427-1.031L354.781,65.462z"/>
	<path fill="#162A53" d="M367.439,82.28c0-0.526,0.186-0.972,0.556-1.337c0.371-0.365,0.803-0.548,1.297-0.548
		c0.483,0,0.913,0.183,1.289,0.548s0.563,0.811,0.563,1.337c0,0.494-0.177,0.924-0.531,1.289c-0.354,0.365-0.769,0.548-1.24,0.548
		c-0.569,0-1.034-0.183-1.394-0.548C367.619,83.204,367.439,82.774,367.439,82.28z M370.661,58.858l-0.306,17.978h-2.207
		l-0.307-17.978H370.661z"/>
</g>
<g>
	<path fill="#162A53" d="M49.299,108.56H39.295v-1.627h4.913c-0.29-0.752-0.784-1.718-1.482-2.9l1.515-0.692
		c0.752,1.364,1.326,2.561,1.724,3.592h3.335V108.56z M48.896,113.279h-8.812v-1.691h8.812V113.279z M48.896,118.225h-8.812v-1.724
		h8.812V118.225z M48.396,131.611h-1.676v-1.771h-4.559v2.593H40.52v-10.874h7.877V131.611z M46.721,128.18v-5.01h-4.559v5.01
		H46.721z M67.904,115.486H49.959v-1.514h8.247v-2.417h-6.83v-1.515h6.83v-2.287h-7.522v-1.514h7.522v-2.609h1.676v2.609h7.361
		v1.514h-7.361v2.287h6.604v1.515h-6.604v2.417h8.022V115.486z M65.891,129.84c0,0.826-0.256,1.484-0.766,1.973
		s-2.183,0.685-5.018,0.588l-0.58-1.676h3.657c0.226,0,0.445-0.096,0.66-0.289s0.322-0.403,0.322-0.629v-2.706H53.519
		c-0.494,2.19-1.267,4.017-2.319,5.478l-1.24-1.128c1.492-2.03,2.239-4.935,2.239-8.715v-5.171h13.692V129.84z M64.167,125.538
		v-2.497H53.776c0.032,0.816-0.011,1.648-0.129,2.497H64.167z M64.167,121.527v-2.385H53.809v2.385H64.167z"/>
	<path fill="#162A53" d="M91.822,114.826c-4.092,0.494-9.349,0.864-15.771,1.111l-0.161-1.386c2.856-0.042,5.273-0.161,7.249-0.354
		v-1.98h-5.541v-1.258h5.541v-1.707h-7.023v-1.256h7.023v-1.627h-5.541v-1.208h5.541v-1.482h1.659v1.482h5.51v1.208h-5.51v1.627
		h6.058v1.256h-6.058v1.707h5.51v1.258h-5.51v1.852c1.01-0.021,2.264-0.117,3.762-0.289s2.585-0.285,3.262-0.339V114.826z
		 M102.374,128.744c0,0.752-0.159,1.32-0.476,1.707s-0.755,0.604-1.313,0.652c-0.559,0.049-1.928,0.051-4.108,0.008l-0.499-1.514
		c0.591,0.064,1.294,0.097,2.11,0.097c1.246,0,2.008-0.073,2.287-0.218s0.419-0.379,0.419-0.701v-2.109H90.792v5.799h-1.579v-5.799
		h-9.858v4.526h-1.659v-5.815h11.518v-1.611h-9.069v-6.572h8.119l0.982-1.32l1.676,0.241l-0.758,1.079h9.843v6.572h-9.214v1.611
		h11.582V128.744z M98.347,119.771v-1.257H81.755v1.257H98.347z M98.347,122.445v-1.418H81.755v1.418H98.347z M104.388,108.189
		h-2.964v5.605c0,0.805-0.256,1.372-0.766,1.699c-0.51,0.328-1.399,0.491-2.666,0.491c-0.473,0-0.956-0.017-1.45-0.048l-0.563-1.547
		c0.645,0.043,1.229,0.064,1.756,0.064c0.956,0,1.533-0.059,1.731-0.178c0.199-0.117,0.298-0.3,0.298-0.547v-5.541h-7.845v-1.45
		h7.845v-3.109h1.66v3.109h2.964V108.189z M96.735,112.152l-1.256,0.982c-0.87-1.021-1.891-1.943-3.061-2.771l1.176-0.95
		C94.475,109.929,95.522,110.842,96.735,112.152z"/>
	<path fill="#162A53" d="M115.499,111.121c-0.387,2.642-1.009,5.182-1.868,7.619l-1.691-0.419c0.815-2.126,1.466-4.709,1.949-7.748
		L115.499,111.121z M123.521,114.616l-1.192,1.289c-1.438-1.567-2.689-2.776-3.753-3.624v20.297h-1.724V103.63h1.724v6.508
		C120.348,111.534,121.996,113.027,123.521,114.616z M140.71,111.588h-13.66v17.092c0,0.225,0.097,0.456,0.289,0.692
		c0.193,0.236,0.408,0.354,0.645,0.354h12.065v1.724h-12.033c-1.825,0-2.738-0.913-2.738-2.739v-17.123h-2.674v-1.707h8.876
		c-0.741-1.687-1.853-3.448-3.335-5.284l1.579-0.822c1.535,2.052,2.792,4.086,3.77,6.106h7.217V111.588z"/>
	<path fill="#162A53" d="M177.097,125.715c-0.279,1.364-0.696,2.747-1.249,4.148s-1.058,2.226-1.514,2.473
		c-0.457,0.247-0.927,0.371-1.41,0.371c-0.849,0-1.788-0.643-2.818-1.926c-1.031-1.283-1.891-2.789-2.578-4.518
		c-1.825,1.535-4.135,2.898-6.927,4.091l-1.191-1.45c3.179-1.245,5.675-2.695,7.49-4.349c-0.795-3.297-1.257-6.718-1.386-10.262
		h-7.845v5.8c1.601-0.204,3.699-0.72,6.299-1.547v1.82c-2.105,0.591-4.204,1.096-6.299,1.514v8.441c0,0.569-0.209,1.061-0.628,1.475
		c-0.419,0.412-1.025,0.625-1.82,0.636h-4.35l-0.499-1.772c1.374,0.064,2.937,0.098,4.688,0.098c0.591,0,0.886-0.274,0.886-0.822
		v-7.651c-2.835,0.548-5.219,0.95-7.152,1.208l-0.435-1.74c1.557-0.106,4.086-0.504,7.587-1.191v-6.267h-7.78v-1.708h7.78v-5.154
		c-3.437,0.548-5.622,0.854-6.556,0.918l-0.629-1.643c5.768-0.569,10.52-1.503,14.257-2.803l0.515,1.546
		c-1.771,0.591-3.727,1.117-5.863,1.579v5.557h7.78c-0.021-0.955-0.032-2.023-0.032-3.205c0-2.158,0.032-4.107,0.097-5.847h1.724
		c-0.086,1.536-0.129,3.324-0.129,5.365c0,1.32,0.021,2.55,0.064,3.688H177v1.708h-9.73c0.064,2.985,0.414,5.891,1.048,8.715
		c1.524-1.557,3.033-3.845,4.526-6.862l1.481,0.918c-1.89,3.49-3.694,6.121-5.412,7.894c0.526,1.601,1.237,3.005,2.135,4.212
		c0.896,1.209,1.549,1.813,1.957,1.813c0.236,0,0.44-0.134,0.612-0.402c0.171-0.268,0.48-0.99,0.926-2.166s0.781-2.398,1.007-3.666
		L177.097,125.715z M175.389,110.17l-1.417,1.016c-1.149-1.977-2.572-3.742-4.27-5.3l1.321-1.063
		C172.795,106.465,174.25,108.248,175.389,110.17z"/>
	<path fill="#162A53" d="M192.202,111.186h-2.529v5.686c0.397-0.246,1.122-0.729,2.175-1.449l0.29,1.771
		c-0.72,0.527-1.541,1.08-2.465,1.66V130c0,0.73-0.244,1.313-0.732,1.748c-0.489,0.436-1.179,0.652-2.07,0.652h-1.385l-0.629-1.74
		c1.472,0.076,2.36,0.038,2.666-0.112c0.307-0.15,0.459-0.407,0.459-0.772v-9.844c-1.535,0.924-2.577,1.521-3.125,1.789
		l-0.499-1.725c1.225-0.622,2.433-1.305,3.624-2.045v-6.766h-3.463v-1.611h3.463v-6.008h1.691v6.008h2.529V111.186z
		 M202.206,118.579l-0.725,0.161v11.164c0,0.547-0.159,1.057-0.476,1.529c-0.317,0.473-1.061,0.709-2.231,0.709h-1.288l-0.629-1.853
		c0.548,0.087,1.251,0.129,2.11,0.129c0.548,0,0.822-0.263,0.822-0.789v-10.519l-4.785,0.691c-0.172,5.273-1.068,9.462-2.689,12.565
		l-1.354-1.111c1.46-2.975,2.261-6.706,2.4-11.196l-1.418,0.193l-0.161-1.658l1.644-0.178l0.064-1.611v-9.375h2.738
		c0.43-1.052,0.87-2.384,1.321-3.995l1.627,0.467c-0.247,0.988-0.634,2.164-1.16,3.528h3.464v9.697l0.725-0.129V118.579z
		 M199.79,117.436v-8.393h-4.64v7.699l-0.032,1.418L199.79,117.436z M198.903,115.615l-1.449,0.66
		c-0.215-1.589-0.709-3.361-1.482-5.316l1.354-0.531C198.076,112.265,198.603,113.994,198.903,115.615z M199.032,126.295
		l-1.481,0.741c-0.279-1.794-0.72-3.554-1.321-5.284l1.386-0.499C198.237,122.778,198.71,124.459,199.032,126.295z M213.354,131.016
		l-1.16,1.385c-1.493-1.041-2.787-2.207-3.882-3.496c-1.568,1.504-3.228,2.691-4.979,3.561l-0.998-1.578
		c1.804-0.73,3.441-1.854,4.913-3.367c-1.493-2.223-2.567-4.973-3.222-8.248h-0.725v-1.707h9.326v1.707
		c-0.827,3.404-1.906,6.154-3.237,8.248C210.378,128.84,211.699,130.006,213.354,131.016z M213.418,115.213h-1.837
		c-0.58,0-1.071-0.18-1.474-0.54c-0.403-0.36-0.604-0.851-0.604-1.474v-6.686h-3.237c-0.022,4.746-0.779,7.947-2.271,9.601
		l-1.386-1.063c0.763-0.891,1.3-2.014,1.611-3.366s0.44-3.63,0.387-6.83h6.54v8.054c0,0.484,0.241,0.726,0.725,0.726h1.547V115.213z
		 M210.808,119.271h-5.074c0.494,2.729,1.354,4.973,2.578,6.734C209.653,123.578,210.485,121.334,210.808,119.271z"/>
	<path fill="#162A53" d="M238.464,116.437l-1.45,0.919c-0.634-1.343-1.229-2.449-1.788-3.318c-1.375,0.236-2.878,0.477-4.51,0.725
		v5.17h6.395v1.691h-6.395v6.75c2.566-0.365,5.004-0.8,7.313-1.305v1.707c-5.648,1.172-11.335,2.073-17.059,2.707l-0.387-1.676
		c3.727-0.461,6.54-0.826,8.441-1.096v-7.088h-7.523v-1.691h7.523v-4.945c-2.664,0.334-5.14,0.554-7.427,0.661l-0.29-1.418
		c2.803-2.169,4.935-4.875,6.396-8.119h-6.621v-1.74h16.914v1.74h-8.215c-1.515,2.899-3.281,5.45-5.3,7.652
		c4.253-0.376,7.528-0.806,9.826-1.289c-0.591-0.913-1.337-1.976-2.239-3.189l1.482-0.87
		C235.763,111.357,237.4,114.031,238.464,116.437z M242.088,126.23h-1.739v-20.442h1.739V126.23z M248.692,129.34
		c0,1.955-0.934,2.932-2.803,2.932c-2.266,0-3.753-0.011-4.462-0.032l-0.692-1.739c1.632,0.086,3.237,0.129,4.816,0.129
		c0.944,0,1.417-0.494,1.417-1.482v-25.677h1.724V129.34z"/>
	<path fill="#162A53" d="M286.03,130.789l-0.629,1.644c-6.594-0.397-12.055-1.46-16.383-3.189c-2.76,1.911-6.433,3.034-11.018,3.366
		l-0.87-1.691c4.081-0.139,7.415-0.961,10.004-2.465c-2.299-1.095-4.323-2.352-6.073-3.77l1.385-1.078
		c1.644,1.439,3.657,2.668,6.041,3.688c1.117-1.214,1.842-2.932,2.175-5.155h-10.229V109.8h10.391v-3.657h-13.419v-1.611h28.336
		v1.611h-13.161v3.657h10.084v12.339h-10.262c-0.354,2.492-1.079,4.43-2.174,5.816C274.458,129.533,279.726,130.479,286.03,130.789z
		 M270.823,114.986v-3.527h-8.57v3.527H270.823z M270.791,116.598h-8.538v3.898h8.474c0.064-0.87,0.097-1.707,0.097-2.514
		C270.823,117.511,270.813,117.049,270.791,116.598z M280.892,120.496v-3.898h-8.28c0,1.762-0.032,3.061-0.097,3.898H280.892z
		 M280.892,114.986v-3.527h-8.28v3.527H280.892z"/>
	<path fill="#162A53" d="M303.086,118.016l-1.24,1.225c-0.526-1.021-1.321-2.283-2.384-3.786v16.882h-1.74V116.05
		c-0.849,2.599-1.992,5.139-3.431,7.62l-1.16-1.531c1.954-3.113,3.458-6.787,4.511-11.018h-3.947v-1.644h4.027v-5.912h1.74v5.912
		h3.173v1.644h-3.173v2.045C300.653,114.445,301.861,116.061,303.086,118.016z M322.385,121.945l-1.112,1.354
		c-3.104-2.223-5.24-4.629-6.411-7.217h-5.831c-1.934,2.953-4.113,5.37-6.54,7.249l-1.144-1.321c2.072-1.6,3.962-3.576,5.67-5.928
		h-4.124v-1.595h5.155c0.612-1.085,1.036-1.976,1.272-2.674h-5.106v-1.546h5.734c0.226-0.559,0.478-1.348,0.757-2.369h-7.441v-1.659
		h7.813c0.333-1.16,0.553-2.126,0.66-2.899l1.611,0.29l-0.483,2.609h8.505v1.659h-8.94c-0.118,0.537-0.349,1.327-0.692,2.369h8.506
		v1.546h-9.037c-0.397,0.988-0.816,1.88-1.257,2.674h11.808v1.595h-5.074C317.874,118.283,319.774,120.238,322.385,121.945z
		 M320.967,127.262h-8.07v5.074h-1.756v-5.074h-7.556v-1.611h7.556v-3.141h-4.881v-1.578h4.881v-3.674h1.756v3.674h4.703v1.578
		h-4.703v3.141h8.07V127.262z"/>
	<path fill="#162A53" d="M341.132,131.805h-1.659v-2.836h-7.12v3.496h-1.675v-23.391h3.061c0.826-1.471,1.61-3.36,2.352-5.669
		l1.644,0.338c-0.387,1.16-1.134,2.938-2.239,5.332h5.638V131.805z M339.473,117.822v-7.088h-7.12v7.088H339.473z M339.473,127.294
		v-7.813h-7.12v7.813H339.473z M357.659,109.107c-0.129,4.939-0.367,9.531-0.717,13.773c-0.349,4.241-0.7,6.738-1.055,7.49
		c-0.354,0.751-0.809,1.285-1.361,1.603c-0.553,0.316-1.603,0.476-3.149,0.476c-0.677,0-1.563-0.017-2.658-0.049l-0.531-1.676
		c0.902,0.033,1.874,0.049,2.916,0.049c0.977,0,1.603-0.011,1.876-0.032c0.274-0.021,0.562-0.158,0.862-0.411
		c0.301-0.252,0.516-0.547,0.645-0.886s0.301-1.603,0.516-3.794c0.214-2.19,0.392-4.604,0.531-7.24s0.241-5.195,0.306-7.676h-8.602
		c-1.149,2.287-2.48,4.462-3.995,6.523l-1.354-0.95c2.889-3.79,4.935-8.017,6.138-12.677l1.676,0.435
		c-0.537,1.762-1.139,3.442-1.805,5.042H357.659z M351.587,123.895l-1.386,0.982c-1.063-2.447-2.658-5.01-4.784-7.684l1.417-0.918
		C348.811,118.66,350.395,121.199,351.587,123.895z"/>
	<path fill="#162A53" d="M394.513,129.533l-1.16,1.482c-4.135-2.148-7.249-4.773-9.343-7.878c0.161,0.892,0.241,1.847,0.241,2.868
		c0,2.748-0.435,4.502-1.305,5.259s-2.304,1.136-4.301,1.136c-0.612,0-1.166-0.021-1.659-0.064l-0.564-1.707
		c0.677,0.086,1.401,0.129,2.175,0.129c1.332,0,2.21-0.135,2.634-0.403c0.425-0.269,0.755-0.687,0.991-1.257
		c0.235-0.568,0.354-1.615,0.354-3.141c0-0.902-0.07-1.81-0.21-2.723c-4.081,3.222-9.214,5.815-15.399,7.781l-0.935-1.482
		c7.023-2.18,12.302-4.918,15.835-8.216c-0.247-1.042-0.543-1.874-0.886-2.497c-3.266,2.503-7.674,4.559-13.226,6.17l-0.967-1.627
		c5.349-1.225,9.826-3.26,13.435-6.105c-0.29-0.547-0.73-1.197-1.32-1.949c-3.254,1.611-6.696,2.803-10.326,3.576l-0.918-1.594
		c5.638-1.117,9.992-2.766,13.064-4.945h-9.602v-1.676h18.735v1.676h-6.605c-0.763,0.687-1.739,1.412-2.932,2.174
		c1.182,1.536,2.148,3.383,2.899,5.541c3.351-1.739,5.858-3.527,7.523-5.363l1.224,1.208c-1.75,1.89-4.172,3.662-7.265,5.315
		C386.796,124.723,390.066,127.492,394.513,129.533z M393.385,112.023h-1.707v-4.125h-22.569v4.125h-1.724v-5.784h12.549
		c-0.258-0.848-0.579-1.648-0.966-2.4l1.691-0.563c0.29,0.634,0.671,1.622,1.144,2.964h11.582V112.023z"/>
	<path fill="#162A53" d="M411.568,128.775h-1.659v-2.336h-4.816v3.094h-1.739v-23.616h8.215V128.775z M409.909,124.717v-17.124
		h-4.816v17.124H409.909z M431.189,126.199c-0.043,2.04-0.353,3.524-0.927,4.453c-0.574,0.93-1.828,1.394-3.762,1.394h-7.474
		c-2.557,0-3.834-1.245-3.834-3.737v-23.905h14.32v14.45h-12.646v9.326c0,1.472,0.741,2.207,2.224,2.207h8.183
		c1.515,0,2.271-1.578,2.271-4.736L431.189,126.199z M421.395,117.193v-11.115h-4.526v11.115H421.395z M427.758,117.193v-11.115
		h-4.575v11.115H427.758z"/>
	<path fill="#162A53" d="M439.498,129.26c0-0.526,0.186-0.973,0.556-1.338c0.371-0.365,0.803-0.547,1.297-0.547
		c0.483,0,0.913,0.182,1.289,0.547s0.563,0.812,0.563,1.338c0,0.494-0.177,0.924-0.531,1.288c-0.354,0.365-0.769,0.548-1.24,0.548
		c-0.569,0-1.034-0.183-1.394-0.548C439.678,130.184,439.498,129.754,439.498,129.26z M442.72,105.837l-0.306,17.978h-2.207
		l-0.307-17.978H442.72z"/>
</g>
</svg>
