<?xml version="1.0" encoding="utf-8"?>
<!-- Generator: Adobe Illustrator 16.0.0, SVG Export Plug-In . SVG Version: 6.00 Build 0)  -->
<!DOCTYPE svg PUBLIC "-//W3C//DTD SVG 1.1//EN" "http://www.w3.org/Graphics/SVG/1.1/DTD/svg11.dtd">
<svg version="1.1" id="圖層_1" xmlns="http://www.w3.org/2000/svg" xmlns:xlink="http://www.w3.org/1999/xlink" x="0px" y="0px"
	 width="195px" height="68px" viewBox="0 0 249.833 68" enable-background="new 0 0 249.833 68" xml:space="preserve">
<path fill="#345C8D" d="M216.032,67.297h-182c-18.227,0-33-14.773-33-33c0-18.226,14.773-33,33-33h182c18.226,0,33,14.774,33,33
	C249.032,52.524,234.258,67.297,216.032,67.297"/>
<path fill="#345C8D" d="M212.081,59.297H37.984c-13.808,0-25-11.191-25-25c0-13.807,11.192-25,25-25h174.097
	c13.807,0,25,11.193,25,25C237.081,48.106,225.888,59.297,212.081,59.297"/>
</svg>
