<?xml version="1.0" encoding="utf-8"?>
<!-- Generator: Adobe Illustrator 16.0.0, SVG Export Plug-In . SVG Version: 6.00 Build 0)  -->
<!DOCTYPE svg PUBLIC "-//W3C//DTD SVG 1.1//EN" "http://www.w3.org/Graphics/SVG/1.1/DTD/svg11.dtd">
<svg version="1.1" id="圖層_1" xmlns="http://www.w3.org/2000/svg" xmlns:xlink="http://www.w3.org/1999/xlink" x="0px" y="0px"
	 width="441px" height="560px" viewBox="0 0 549.678 560" enable-background="new 0 0 549.678 560" xml:space="preserve">
<text transform="matrix(1 0 0 1 50.1074 390.229)"><tspan x="0" y="0" fill="#FFFFFF" font-family="'MicrosoftJhengHeiBold'" font-size="24" letter-spacing="3">空氣清淨</tspan><tspan x="108" y="0" fill="#FFFFFF" font-family="'MicrosoftJhengHeiBold'" font-size="24">機</tspan></text>
<path fill="#366497" d="M520.096,556.608H29.697c-14.875,0-26.934-12.06-26.934-26.935V29.604c0-14.875,12.059-26.934,26.934-26.934
	h490.398c14.875,0,26.934,12.059,26.934,26.934v500.069C547.029,544.548,534.971,556.608,520.096,556.608"/>
<g opacity="0.2">
	<g>
		<defs>
			<rect id="SVGID_1_" x="2.765" y="513.516" width="544.06" height="43.09"/>
		</defs>
		<clipPath id="SVGID_2_">
			<use xlink:href="#SVGID_1_"  overflow="visible"/>
		</clipPath>
		<rect x="2.764" y="513.513" clip-path="url(#SVGID_2_)" fill="#FFFFFF" width="544.062" height="43.094"/>
	</g>
</g>
<g>
	<path fill="#FFFFFF" d="M54.037,94.997H35.826v-1.825h8.131V88.66h-6.43v-1.825h6.43v-4.44h-7.414V80.57h7.711
		c-0.266-0.882-0.728-1.911-1.384-3.086l1.887-0.502c0.588,1.135,1.097,2.331,1.528,3.589h6.992v1.825h-7.393v4.44h6.449v1.825
		h-6.449v4.512h8.152V94.997z"/>
	<path fill="#FFFFFF" d="M61.553,85.902l-1.527,0.615c-0.131-1.716-0.404-3.36-0.82-4.932l1.404-0.677
		C61.108,82.72,61.423,84.384,61.553,85.902z M66.137,92.393l-1.457,1.2c-0.451-0.978-0.987-1.938-1.609-2.881
		c-0.472,1.764-1.326,3.374-2.563,4.83l-1.261-1.548c1.749-1.928,2.625-4.672,2.625-8.234v-8.572h1.805v4.809
		c0.3-0.492,0.574-1.015,0.82-1.569l1.343,1.343c-0.649,1.162-1.378,2.177-2.185,3.045c-0.02,1.367-0.075,2.536-0.164,3.507
		C64.632,89.826,65.514,91.183,66.137,92.393z M77.918,84.21l-0.975,1.487c-0.991-0.663-1.88-1.446-2.666-2.348v1.271h-5.813v-1.025
		c-0.93,1.005-1.784,1.747-2.563,2.225l-1.148-1.384c0.93-0.574,1.705-1.23,2.328-1.969c-0.507-0.636-0.988-1.176-1.446-1.62
		l1.169-1.241c0.472,0.424,0.912,0.885,1.322,1.384c0.369-0.506,0.684-1.148,0.943-1.928h-3.229v-1.682h5.065v1.682
		c-0.526,1.497-1.207,2.799-2.041,3.907h5.107c-1.095-1.429-1.901-3.264-2.42-5.506l1.641-0.461c0.061,0.376,0.174,0.783,0.338,1.22
		c0.506-0.376,0.875-0.697,1.107-0.964l1.18,1.21c-0.459,0.458-1.013,0.923-1.662,1.395c0.137,0.308,0.25,0.53,0.339,0.667
		c0.643-0.396,1.251-0.913,1.825-1.548l1.221,1.169c-0.492,0.581-1.2,1.176-2.123,1.784C75.901,82.563,76.735,83.321,77.918,84.21z
		 M77.682,95.171H65.634V93.51h2.953c-0.116-0.533-0.396-1.22-0.841-2.061l1.436-0.779h-2.205v-4.871h8.881v4.871h-2.144
		l1.323,0.636c-0.261,0.759-0.548,1.494-0.861,2.205h3.506V95.171z M74.053,89.019V87.44h-5.23v1.579H74.053z M73.252,90.67h-3.783
		c0.424,0.937,0.789,1.883,1.098,2.84h1.701C72.609,92.765,72.938,91.818,73.252,90.67z"/>
</g>
<g>
	<path fill="#FFFFFF" d="M53.217,130.951H38.789v4.83c0,0.772-0.032,1.545-0.098,2.317c-0.064,0.772-0.164,1.535-0.297,2.287
		c-0.134,0.752-0.341,1.617-0.621,2.594s-0.495,1.538-0.646,1.682l-1.487-1.107c0.924-2.126,1.385-4.611,1.385-7.455v-9.352h16.191
		V130.951z M51.391,129.413v-1.148H38.789v1.148H51.391z M53.012,137.647H39.609v-4.809h13.402V137.647z M52.457,144.681h-1.824
		v-0.708H42.07v0.728h-1.805v-6.234h12.191V144.681z M45.443,136.324v-2.143h-4.132v2.143H45.443z M44.695,135.637l-1.6,0.523
		c-0.499-0.574-0.94-0.988-1.322-1.241l1.66-0.482C43.789,134.725,44.21,135.125,44.695,135.637z M44.982,132.171l-1.631,0.584
		c-0.567-0.479-1.073-0.848-1.518-1.107l1.662-0.595C43.939,131.32,44.436,131.693,44.982,132.171z M50.633,140.549v-0.779H42.07
		v0.779H50.633z M50.633,142.651v-0.861H42.07v0.861H50.633z M51.248,136.324v-2.143h-4.061v2.143H51.248z M50.93,131.854
		c-0.41,0.301-1.019,0.608-1.825,0.923l-1.579-0.841c0.567-0.171,1.183-0.451,1.846-0.841L50.93,131.854z M50.827,134.919
		c-0.465,0.513-0.92,0.906-1.364,1.179l-1.641-0.595c0.602-0.39,1.084-0.766,1.446-1.128L50.827,134.919z"/>
	<path fill="#FFFFFF" d="M66.803,135.658l-1.303,1.446c-0.273-0.636-0.7-1.35-1.281-2.143v9.7h-1.805v-9.003
		c-0.485,1.442-1.148,2.745-1.989,3.907l-1.282-1.579c1.278-1.606,2.342-3.719,3.189-6.337h-2.687v-1.743h2.769v-3.466h1.805v3.466
		h2.164v1.743h-2.164v0.625C65.388,133.552,66.249,134.68,66.803,135.658z M77.877,143.317l-1.117,1.518
		c-1.327-0.704-2.564-1.719-3.713-3.045c-0.95,1.025-2.259,2.047-3.927,3.066l-1.159-1.518c1.818-1.066,3.128-2.061,3.928-2.984
		c-1.107-1.661-1.921-3.961-2.44-6.901H69.09c-0.008,2.509-0.173,4.616-0.498,6.322c-0.324,1.706-1.034,3.354-2.127,4.947
		l-1.631-1.005c0.779-1.121,1.379-2.509,1.8-4.163c0.42-1.654,0.63-3.9,0.63-6.737v-5.978h10.172v1.764H69.09v3.086h7.648v1.764
		c-0.635,3.172-1.49,5.482-2.563,6.932C75.043,141.41,76.277,142.388,77.877,143.317z M74.832,133.453h-3.6
		c0.499,2.372,1.11,4.136,1.836,5.291C73.867,137.575,74.455,135.812,74.832,133.453z"/>
	<path fill="#FFFFFF" d="M85.178,135.083l-1.527,0.615c-0.131-1.716-0.404-3.36-0.82-4.932l1.404-0.677
		C84.733,131.901,85.048,133.566,85.178,135.083z M89.762,141.574l-1.457,1.2c-0.451-0.978-0.987-1.938-1.609-2.881
		c-0.472,1.764-1.326,3.374-2.563,4.83l-1.261-1.548c1.749-1.928,2.625-4.672,2.625-8.234v-8.572h1.805v4.809
		c0.3-0.492,0.574-1.015,0.82-1.569l1.343,1.343c-0.649,1.162-1.378,2.177-2.185,3.045c-0.02,1.367-0.075,2.536-0.164,3.507
		C88.257,139.007,89.139,140.364,89.762,141.574z M101.543,133.392l-0.975,1.487c-0.991-0.663-1.88-1.446-2.666-2.348v1.271h-5.813
		v-1.025c-0.93,1.005-1.784,1.747-2.563,2.225l-1.148-1.384c0.93-0.574,1.705-1.23,2.328-1.969c-0.507-0.636-0.988-1.176-1.446-1.62
		l1.169-1.241c0.472,0.424,0.912,0.885,1.322,1.384c0.369-0.506,0.684-1.148,0.943-1.928h-3.229v-1.682h5.065v1.682
		c-0.526,1.497-1.207,2.799-2.041,3.907h5.107c-1.095-1.429-1.901-3.264-2.42-5.506l1.641-0.461c0.061,0.376,0.174,0.783,0.338,1.22
		c0.506-0.376,0.875-0.697,1.107-0.964l1.18,1.21c-0.459,0.458-1.013,0.923-1.662,1.395c0.137,0.308,0.25,0.53,0.339,0.667
		c0.643-0.396,1.251-0.913,1.825-1.548l1.221,1.169c-0.492,0.581-1.2,1.176-2.123,1.784
		C99.526,131.744,100.36,132.503,101.543,133.392z M101.307,144.353H89.259v-1.661h2.953c-0.116-0.533-0.396-1.22-0.841-2.061
		l1.436-0.779h-2.205v-4.871h8.881v4.871h-2.144l1.323,0.636c-0.261,0.759-0.548,1.494-0.861,2.205h3.506V144.353z M97.678,138.201
		v-1.579h-5.23v1.579H97.678z M96.877,139.852h-3.783c0.424,0.937,0.789,1.883,1.098,2.84h1.701
		C96.234,141.947,96.563,141,96.877,139.852z"/>
</g>
<g>
	<path fill="#FFFFFF" d="M53.637,183.117h-1.805v-3.363h-6.296v4.05h-1.743v-4.05h-5.947v3.363h-1.784v-4.85h7.731v-0.759h-6.952
		v-1.6h15.894v1.6h-7.198v0.759h8.101V183.117z M54.016,191.556c-0.116,0.684-0.304,1.205-0.563,1.564
		c-0.26,0.358-0.544,0.574-0.851,0.646c-0.309,0.072-1.569,0.108-3.784,0.108c-1.839,0-3.02-0.031-3.543-0.092
		c-0.522-0.062-0.907-0.241-1.153-0.538c-0.246-0.298-0.369-0.72-0.369-1.267v-1.179h-6.747v-6.419h15.206v6.419h-6.654v0.636
		c0,0.287,0.107,0.47,0.323,0.548c0.215,0.079,1.437,0.118,3.665,0.118c0.957,0,1.554-0.007,1.79-0.021
		c0.235-0.014,0.408-0.103,0.518-0.267s0.164-0.383,0.164-0.656L54.016,191.556z M43.26,183.261
		c-1.306,0.239-2.83,0.393-4.573,0.461l-0.358-1.22c1.38-0.014,2.901-0.137,4.563-0.369L43.26,183.261z M43.157,180.533l-0.339,1.2
		c-1.408-0.191-2.833-0.297-4.275-0.318l0.379-1.179C40.077,180.215,41.489,180.314,43.157,180.533z M43.752,186.85v-1.128H38.81
		v1.128H43.752z M43.752,189.393v-1.2H38.81v1.2H43.752z M50.447,186.85v-1.128h-4.891v1.128H50.447z M50.447,189.393v-1.2h-4.891
		v1.2H50.447z M51.248,181.2c-1.423,0.239-2.978,0.393-4.666,0.461l-0.42-1.148c1.291-0.021,2.768-0.154,4.43-0.4L51.248,181.2z
		 M51.114,182.656l-0.287,1.189c-1.668-0.273-3.224-0.441-4.665-0.502l0.42-1.189C47.826,182.181,49.337,182.348,51.114,182.656z"/>
	<path fill="#FFFFFF" d="M77.938,189.454c-0.335,3.042-1.073,4.563-2.215,4.563c-0.868,0-1.47-0.805-1.805-2.415
		c-0.335-1.61-0.503-4.767-0.503-9.47c0-1.545,0.024-3.045,0.072-4.501H62.896v7.67c0,3.541-0.697,6.474-2.092,8.798l-1.498-1.22
		c1.176-1.75,1.764-4.156,1.764-7.219v-9.751h14.325c-0.13,2.83-0.194,5.643-0.194,8.439c0,2.837,0.082,4.758,0.246,5.763
		s0.272,1.507,0.328,1.507c0.108,0,0.246-0.379,0.41-1.138s0.249-1.442,0.256-2.051L77.938,189.454z M73.775,193.197l-1.62,0.82
		c-0.109-0.458-0.276-0.878-0.503-1.261c-2.885,0.383-5.731,0.697-8.541,0.943l-0.42-1.723c1.865-0.096,3.428-0.222,4.686-0.379
		v-3.025h-3.261v-6.255h3.261v-1.466h-3.742v-1.661h9.156v1.661h-3.65v1.466h3.209v6.255h-3.209v2.82
		c0.533-0.082,1.098-0.154,1.691-0.215c-0.253-0.547-0.475-0.954-0.666-1.22l1.527-0.728
		C72.514,190.377,73.208,191.7,73.775,193.197z M67.377,186.911v-2.953h-1.538v2.953H67.377z M70.627,186.911v-2.953h-1.486v2.953
		H70.627z"/>
	<path fill="#FFFFFF" d="M100.549,176.985c-3.631,0.615-8.341,0.937-14.131,0.964v1.025h13.904v4.245H86.398
		c0.006,5.031-0.615,8.63-1.867,10.797l-1.6-0.995c0.622-1.135,1.041-2.396,1.257-3.784c0.215-1.388,0.323-3.339,0.323-5.855v-6.942
		c4.087,0.027,7.121-0.034,9.1-0.185c1.979-0.15,3.922-0.414,5.83-0.79L100.549,176.985z M91.043,190.756
		c-1.518,0.69-2.933,1.224-4.245,1.6l-0.503-1.497c1.401-0.383,2.878-0.926,4.43-1.63L91.043,190.756z M98.498,181.692v-1.159
		h-12.08v1.159H98.498z M90.869,187.752l-0.842,1.415c-1.162-0.629-2.197-1.042-3.106-1.241l0.759-1.405
		C88.78,186.788,89.844,187.198,90.869,187.752z M93.309,192.417c0,0.41-0.178,0.774-0.533,1.092
		c-0.355,0.317-1.373,0.456-3.055,0.415l-0.462-1.712c1.162,0,1.834-0.027,2.015-0.082c0.182-0.055,0.271-0.205,0.271-0.451v-5.773
		h-4.49v-1.661h6.254V192.417z M98.457,190.838c-1.23,0.567-2.592,1.066-4.082,1.497l-0.522-1.579
		c1.559-0.376,2.974-0.872,4.245-1.487L98.457,190.838z M98.036,187.731l-0.738,1.395c-1.087-0.561-2.144-0.96-3.169-1.2
		l0.605-1.425C96.033,186.829,97.134,187.239,98.036,187.731z M100.743,192.079c0,1.189-0.526,1.784-1.579,1.784
		c-1.094,0-1.836-0.007-2.225-0.021l-0.462-1.63l1.928-0.021c0.144,0,0.275-0.065,0.395-0.195c0.12-0.13,0.18-0.27,0.18-0.42v-5.691
		h-4.687v-1.641h6.45V192.079z"/>
	<path fill="#FFFFFF" d="M116.473,192.838h-9.352v-2.01h3.477v-11.474l-3.568,0.964v-2.112l5.978-1.569v14.191h3.466V192.838z"/>
</g>
<g>
	<path fill="#FFFFFF" d="M53.637,232.299h-1.805v-3.363h-6.296v4.05h-1.743v-4.05h-5.947v3.363h-1.784v-4.85h7.731v-0.759h-6.952
		v-1.6h15.894v1.6h-7.198v0.759h8.101V232.299z M54.016,240.738c-0.116,0.684-0.304,1.205-0.563,1.564
		c-0.26,0.358-0.544,0.574-0.851,0.646c-0.309,0.072-1.569,0.108-3.784,0.108c-1.839,0-3.02-0.031-3.543-0.092
		c-0.522-0.062-0.907-0.241-1.153-0.538c-0.246-0.298-0.369-0.72-0.369-1.267v-1.179h-6.747v-6.419h15.206v6.419h-6.654v0.636
		c0,0.287,0.107,0.47,0.323,0.548c0.215,0.079,1.437,0.118,3.665,0.118c0.957,0,1.554-0.007,1.79-0.021
		c0.235-0.014,0.408-0.103,0.518-0.267s0.164-0.383,0.164-0.656L54.016,240.738z M43.26,232.443
		c-1.306,0.239-2.83,0.393-4.573,0.461l-0.358-1.22c1.38-0.014,2.901-0.137,4.563-0.369L43.26,232.443z M43.157,229.715l-0.339,1.2
		c-1.408-0.191-2.833-0.297-4.275-0.318l0.379-1.179C40.077,229.397,41.489,229.497,43.157,229.715z M43.752,236.032v-1.128H38.81
		v1.128H43.752z M43.752,238.575v-1.2H38.81v1.2H43.752z M50.447,236.032v-1.128h-4.891v1.128H50.447z M50.447,238.575v-1.2h-4.891
		v1.2H50.447z M51.248,230.382c-1.423,0.239-2.978,0.393-4.666,0.461l-0.42-1.148c1.291-0.021,2.768-0.154,4.43-0.4L51.248,230.382z
		 M51.114,231.838l-0.287,1.189c-1.668-0.273-3.224-0.441-4.665-0.502l0.42-1.189C47.826,231.363,49.337,231.53,51.114,231.838z"/>
	<path fill="#FFFFFF" d="M77.938,238.636c-0.335,3.042-1.073,4.563-2.215,4.563c-0.868,0-1.47-0.805-1.805-2.415
		c-0.335-1.61-0.503-4.767-0.503-9.47c0-1.545,0.024-3.045,0.072-4.501H62.896v7.67c0,3.541-0.697,6.474-2.092,8.798l-1.498-1.22
		c1.176-1.75,1.764-4.156,1.764-7.219v-9.751h14.325c-0.13,2.83-0.194,5.643-0.194,8.439c0,2.837,0.082,4.758,0.246,5.763
		s0.272,1.507,0.328,1.507c0.108,0,0.246-0.379,0.41-1.138s0.249-1.442,0.256-2.051L77.938,238.636z M73.775,242.379l-1.62,0.82
		c-0.109-0.458-0.276-0.878-0.503-1.261c-2.885,0.383-5.731,0.697-8.541,0.943l-0.42-1.723c1.865-0.096,3.428-0.222,4.686-0.379
		v-3.025h-3.261V231.5h3.261v-1.466h-3.742v-1.661h9.156v1.661h-3.65v1.466h3.209v6.255h-3.209v2.82
		c0.533-0.082,1.098-0.154,1.691-0.215c-0.253-0.547-0.475-0.954-0.666-1.22l1.527-0.728
		C72.514,239.559,73.208,240.882,73.775,242.379z M67.377,236.093v-2.953h-1.538v2.953H67.377z M70.627,236.093v-2.953h-1.486v2.953
		H70.627z"/>
	<path fill="#FFFFFF" d="M100.549,226.167c-3.631,0.615-8.341,0.937-14.131,0.964v1.025h13.904v4.245H86.398
		c0.006,5.031-0.615,8.63-1.867,10.797l-1.6-0.995c0.622-1.135,1.041-2.396,1.257-3.784c0.215-1.388,0.323-3.339,0.323-5.855v-6.942
		c4.087,0.027,7.121-0.034,9.1-0.185c1.979-0.15,3.922-0.414,5.83-0.79L100.549,226.167z M91.043,239.938
		c-1.518,0.69-2.933,1.224-4.245,1.6l-0.503-1.497c1.401-0.383,2.878-0.926,4.43-1.63L91.043,239.938z M98.498,230.874v-1.159
		h-12.08v1.159H98.498z M90.869,236.934l-0.842,1.415c-1.162-0.629-2.197-1.042-3.106-1.241l0.759-1.405
		C88.78,235.97,89.844,236.38,90.869,236.934z M93.309,241.6c0,0.41-0.178,0.774-0.533,1.092c-0.355,0.317-1.373,0.456-3.055,0.415
		l-0.462-1.712c1.162,0,1.834-0.027,2.015-0.082c0.182-0.055,0.271-0.205,0.271-0.451v-5.773h-4.49v-1.661h6.254V241.6z
		 M98.457,240.021c-1.23,0.567-2.592,1.066-4.082,1.497l-0.522-1.579c1.559-0.376,2.974-0.872,4.245-1.487L98.457,240.021z
		 M98.036,236.914l-0.738,1.395c-1.087-0.561-2.144-0.96-3.169-1.2l0.605-1.425C96.033,236.011,97.134,236.421,98.036,236.914z
		 M100.743,241.261c0,1.189-0.526,1.784-1.579,1.784c-1.094,0-1.836-0.007-2.225-0.021l-0.462-1.63l1.928-0.021
		c0.144,0,0.275-0.065,0.395-0.195c0.12-0.13,0.18-0.27,0.18-0.42v-5.691h-4.687v-1.641h6.45V241.261z"/>
	<path fill="#FFFFFF" d="M116.186,242.02h-9.875v-2.01l4.604-4.532c1.025-1.005,1.782-1.873,2.271-2.604
		c0.488-0.731,0.733-1.528,0.733-2.389c0-1.757-0.931-2.635-2.789-2.635c-1.395,0-2.735,0.584-4.02,1.753v-2.317
		c1.291-0.943,2.774-1.415,4.449-1.415c1.457,0,2.617,0.388,3.481,1.164c0.865,0.776,1.298,1.837,1.298,3.184
		c0,0.971-0.274,1.937-0.82,2.897c-0.548,0.96-1.501,2.097-2.861,3.409l-3.527,3.363v0.051h7.055V242.02z"/>
</g>
<g>
	<path fill="#FFFFFF" d="M40.45,285.172c-0.656,2.112-1.764,4.484-3.322,7.116l-1.569-1.189c1.17-1.866,2.267-4.156,3.292-6.87
		L40.45,285.172z M40.686,277.759l-1.395,1.282c-1.004-1.142-2.181-2.164-3.527-3.066l1.221-1.425
		C38.584,275.65,39.817,276.72,40.686,277.759z M54.16,280.363l-1.107,1.538c-0.938-0.553-1.87-1.186-2.8-1.896v1.159h-6.778v-1.548
		c-1.086,0.889-2.061,1.606-2.922,2.153l-1.344-1.425c3.452-2.181,5.817-4.385,7.096-6.614l1.877,0.523
		c-0.144,0.28-0.236,0.448-0.277,0.502C49.128,276.723,51.213,278.593,54.16,280.363z M52.632,284.69
		c-1.203,1.744-2.561,3.313-4.071,4.707c0.567,0.424,1.203,0.964,1.908,1.62l-1.2,1.466c-1.846-1.613-3.972-3.035-6.378-4.266
		l1.025-1.568c1.032,0.506,2.041,1.063,3.025,1.672c1.148-1.012,2.252-2.223,3.312-3.631h-9.218v-1.805h11.597V284.69z
		 M49.484,279.379c-1.107-0.95-2.014-1.938-2.718-2.963c-0.902,1.073-1.887,2.061-2.953,2.963H49.484z"/>
	<path fill="#FFFFFF" d="M77.18,276.713H63.736c-1.032,1.593-2.102,2.816-3.209,3.671l-1.322-1.261
		c1.537-1.23,2.895-3.021,4.07-5.373l1.846,0.482c-0.082,0.198-0.236,0.506-0.461,0.923h12.52V276.713z M64.619,288.659
		c-0.992,1.196-2.369,2.297-4.133,3.302l-1.281-1.384c1.674-0.875,2.99-1.863,3.947-2.964L64.619,288.659z M72.494,287.069h-5.455
		v5.179h-1.826v-5.179h-5.485v-1.6h5.485v-2.963h1.826v2.963h5.455V287.069z M64.332,284.332l-1.58,0.861
		c-0.69-0.779-1.377-1.442-2.061-1.989l1.6-0.923C63.146,282.964,63.825,283.648,64.332,284.332z M77.877,288.135
		c-0.171,1.299-0.438,2.324-0.8,3.076s-0.875,1.129-1.538,1.129c-0.444,0-0.836-0.18-1.174-0.539
		c-0.339-0.358-0.635-1.244-0.887-2.655c-0.254-1.411-0.38-3.171-0.38-5.276c0-0.697,0.017-1.381,0.052-2.051H61.307v-1.579h13.73
		c-0.041,1.169-0.063,2.28-0.063,3.333c0,2.427,0.088,4.125,0.262,5.096c0.175,0.971,0.316,1.457,0.426,1.457
		c0.041,0,0.13-0.254,0.267-0.76s0.246-1.244,0.328-2.215L77.877,288.135z M76,279.143H63.717v-1.405H76V279.143z M72.668,290.678
		l-1.363,1.17c-1.129-1.162-2.291-2.191-3.486-3.087l1.384-1.189C70.446,288.495,71.602,289.53,72.668,290.678z M71.592,283.224
		c-0.603,0.731-1.303,1.395-2.103,1.989l-1.548-0.964c0.867-0.731,1.53-1.354,1.988-1.866L71.592,283.224z"/>
</g>
<g>
	<path fill="#FFFFFF" d="M53.637,330.663h-1.805v-3.363h-6.296v4.051h-1.743v-4.051h-5.947v3.363h-1.784v-4.85h7.731v-0.76h-6.952
		v-1.6h15.894v1.6h-7.198v0.76h8.101V330.663z M54.016,339.102c-0.116,0.684-0.304,1.204-0.563,1.563
		c-0.26,0.358-0.544,0.574-0.851,0.646c-0.309,0.072-1.569,0.107-3.784,0.107c-1.839,0-3.02-0.03-3.543-0.092
		c-0.522-0.062-0.907-0.241-1.153-0.538c-0.246-0.298-0.369-0.72-0.369-1.267v-1.18h-6.747v-6.418h15.206v6.418h-6.654v0.637
		c0,0.287,0.107,0.47,0.323,0.548c0.215,0.079,1.437,0.118,3.665,0.118c0.957,0,1.554-0.007,1.79-0.021
		c0.235-0.014,0.408-0.103,0.518-0.267s0.164-0.383,0.164-0.656L54.016,339.102z M43.26,330.806
		c-1.306,0.239-2.83,0.394-4.573,0.462l-0.358-1.221c1.38-0.014,2.901-0.137,4.563-0.369L43.26,330.806z M43.157,328.079
		l-0.339,1.199c-1.408-0.191-2.833-0.297-4.275-0.317l0.379-1.179C40.077,327.76,41.489,327.86,43.157,328.079z M43.752,334.395
		v-1.128H38.81v1.128H43.752z M43.752,336.938v-1.199H38.81v1.199H43.752z M50.447,334.395v-1.128h-4.891v1.128H50.447z
		 M50.447,336.938v-1.199h-4.891v1.199H50.447z M51.248,328.745c-1.423,0.24-2.978,0.394-4.666,0.462l-0.42-1.148
		c1.291-0.021,2.768-0.153,4.43-0.399L51.248,328.745z M51.114,330.202l-0.287,1.189c-1.668-0.273-3.224-0.441-4.665-0.503
		l0.42-1.189C47.826,329.726,49.337,329.893,51.114,330.202z"/>
	<path fill="#FFFFFF" d="M68.74,328.397h-1.682v0.604c0,0.239,0.161,0.358,0.482,0.358h1.199v1.549h-1.938
		c-0.937,0-1.404-0.502-1.404-1.508v-1.004h-1.703c-0.321,1.346-1.537,2.416-3.65,3.209l-0.82-1.426
		c1.354-0.416,2.215-1.012,2.584-1.783h-2.266v-1.58h3.794v-0.984h-3.271v-1.559h3.271v-1.199h1.784v1.199h3.117v1.559h-3.117v0.984
		h3.619V328.397z M63.234,337.635c-0.581,1.538-1.316,2.826-2.205,3.865l-1.619-0.912c0.902-1.087,1.623-2.29,2.163-3.609
		L63.234,337.635z M68.628,335.411c-2.851,0.588-5.79,1.076-8.818,1.466l-0.358-1.62c1.605-0.15,2.908-0.318,3.906-0.502v-1.385
		h-3.025v-1.579h3.005v-1.651h1.784v1.651h2.943v1.579h-2.943v1.087l3.507-0.604V335.411z M67.767,341.101l-1.846,0.328
		c-0.109-1.162-0.424-2.513-0.943-4.05l1.784-0.421C67.254,338.374,67.589,339.754,67.767,341.101z M78.041,332.549
		c-0.164,1.552-0.392,2.606-0.682,3.163c-0.291,0.558-0.706,0.836-1.246,0.836c-0.567,0-1.005-0.326-1.313-0.979
		c-0.308-0.652-0.482-1.635-0.523-2.947s-0.061-3.021-0.061-5.127h-1.262c-0.041,1.381-0.168,2.724-0.379,4.029
		c0.539,0.718,1.018,1.473,1.436,2.266l-1.344,1.066c-0.232-0.465-0.472-0.885-0.718-1.261c-0.506,1.251-1.101,2.331-1.784,3.24
		l-1.6-0.923c0.964-1.306,1.672-2.687,2.123-4.143c-0.527-0.697-1.088-1.354-1.682-1.969l1.322-1.076
		c0.26,0.225,0.52,0.52,0.779,0.881c0.144-0.656,0.191-1.359,0.144-2.111h-1.825v-1.703h1.846c0.034-1.162,0.044-2.067,0.031-2.717
		h1.691c0,0.704-0.014,1.609-0.041,2.717h3.025c-0.041,1.928-0.063,3.518-0.063,4.769c0,1.408,0.027,2.335,0.082,2.778
		c0.055,0.445,0.091,0.719,0.108,0.82c0.017,0.104,0.066,0.154,0.148,0.154c0.021,0,0.046-0.007,0.077-0.021
		c0.03-0.014,0.09-0.313,0.18-0.897c0.088-0.584,0.149-1.146,0.184-1.687L78.041,332.549z M72.729,340.989l-1.764,0.461
		c-0.424-1.449-0.964-2.771-1.62-3.969l1.764-0.543C71.813,338.25,72.354,339.6,72.729,340.989z M77.703,340.926l-1.744,0.678
		c-0.561-1.436-1.302-2.797-2.225-4.082l1.723-0.769C76.428,338.285,77.176,339.676,77.703,340.926z"/>
	<path fill="#FFFFFF" d="M90.582,327.596c-0.459,5.305-2.595,9.434-6.409,12.387l-1.2-1.486c1.552-1.08,2.825-2.469,3.82-4.168
		c0.994-1.699,1.536-3.355,1.625-4.969h-4.83v-1.764H90.582z M101.43,338.323l-1.23,1.537c-3.309-2.18-5.605-4.826-6.891-7.936
		v7.342c0,0.602-0.114,1.061-0.343,1.379c-0.229,0.317-0.515,0.527-0.856,0.631c-0.342,0.102-0.899,0.153-1.672,0.153
		c-0.533,0-1.104-0.021-1.712-0.062l-0.563-1.887c0.806,0.075,1.448,0.113,1.928,0.113c0.594,0,0.965-0.039,1.112-0.118
		c0.146-0.079,0.22-0.245,0.22-0.497v-15.884h1.887v4.225c0.219,0.937,0.574,1.931,1.066,2.983c1.703-1.168,3.313-2.771,4.83-4.809
		l1.579,1.046c-1.661,2.194-3.524,4.003-5.589,5.425C96.48,334.446,98.559,336.565,101.43,338.323z"/>
	<path fill="#FFFFFF" d="M125.014,341.081h-18.395v-1.641h6.285v-1.477h-3.578v-4.717h3.578v-1.682h-3.947v1.989h-1.856v-3.589
		h17.37v3.589h-1.825v-1.989h-3.907v1.682h3.549v4.717h-3.549v1.477h6.275V341.081z M124.174,326.079h-7.517v1.241h6.368v1.579
		h-14.448v-1.579h6.234v-1.241h-7.454v-1.589h7.454v-1.323h1.846v1.323h7.517V326.079z M120.461,336.313v-1.477h-3.527v-3.271
		h-2.184v3.271h-3.63v1.477h3.63v3.127h2.184v-3.127H120.461z"/>
</g>
<g>
	<path fill="#FFFFFF" d="M40.307,378.707c1.128,1.641,1.691,3.175,1.691,4.604c0,2.037-1.056,3.008-3.168,2.912l-0.543-1.805
		c0.375,0.033,0.669,0.051,0.881,0.051c0.684,0,1.025-0.431,1.025-1.292c0-1.381-0.581-2.806-1.742-4.276
		c0.498-1.318,0.963-2.847,1.395-4.583h-1.856v16.272h-1.825v-18.057h5.486v1.784C41.294,375.726,40.847,377.189,40.307,378.707z
		 M45.885,384.715c-1.23,2.092-2.529,3.75-3.896,4.973l-1.374-1.363c1.374-1.148,2.621-2.673,3.743-4.573L45.885,384.715z
		 M54.16,377.465l-0.984,1.518c-0.459-0.211-1.006-0.539-1.641-0.984v1.148h-2.871v1.959h4.87v1.743h-4.87v5.671
		c0,1.441-0.735,2.163-2.205,2.163c-0.458,0-1.032-0.03-1.723-0.093l-0.636-1.783c1.012,0.041,1.719,0.061,2.122,0.061
		c0.383,0,0.574-0.208,0.574-0.625v-5.394h-4.398v-1.743h4.398v-1.959h-3.004v-1.302c-0.649,0.458-1.23,0.837-1.743,1.138
		l-1.056-1.496c2.666-1.498,4.723-3.316,6.172-5.455l1.764,0.543c-0.034,0.123-0.102,0.264-0.205,0.42
		C49.873,374.506,51.685,375.997,54.16,377.465z M50.693,377.383c-1.142-0.826-2.177-1.801-3.106-2.922
		c-0.896,0.998-1.945,1.973-3.147,2.922H50.693z M54.098,388.745l-1.568,0.943c-0.684-1.646-1.665-3.339-2.943-5.075l1.569-0.902
		C52.577,385.597,53.558,387.276,54.098,388.745z"/>
	<path fill="#FFFFFF" d="M63.87,380.368l-1.302,1.385c-0.896-1.039-2.01-1.982-3.344-2.83l1.241-1.416
		C61.867,378.395,63.002,379.349,63.87,380.368z M63.214,383.577c-0.588,2.551-1.384,4.902-2.39,7.055l-1.578-1.189
		c0.908-1.906,1.678-4.176,2.307-6.809L63.214,383.577z M64.157,374.903l-1.343,1.455c-0.678-0.908-1.727-1.883-3.148-2.922
		l1.363-1.281C62.376,373.09,63.419,374.006,64.157,374.903z M66.598,386.94c-0.574,1.484-1.275,2.731-2.102,3.743l-1.58-0.995
		c0.793-0.916,1.446-1.958,1.959-3.127L66.598,386.94z M70.709,385.854l-1.343,0.522c-0.082-0.308-0.182-0.646-0.298-1.015
		c-1.586,0.307-3.216,0.52-4.891,0.635l-0.42-1.322c1.059-0.472,2.102-1.221,3.127-2.246c-0.567,0.082-1.463,0.164-2.687,0.246
		l-0.38-1.168c1.039-0.609,1.921-1.617,2.646-3.025l1.578,0.543c-0.492,0.801-1.107,1.528-1.846,2.185
		c0.479,0,1.129-0.079,1.949-0.235c0.539-0.725,0.892-1.214,1.056-1.467l1.466,0.625c-1.073,1.654-2.509,3.076-4.307,4.266
		c0.868-0.055,1.597-0.16,2.185-0.317c-0.068-0.219-0.164-0.427-0.287-0.626l1.302-0.481
		C70.066,383.943,70.449,384.903,70.709,385.854z M76.678,378.225H64.66v-5.63h12.018V378.225z M74.78,374.739v-0.82h-8.203v0.82
		H74.78z M74.78,376.861V376h-8.203v0.861H74.78z M69.787,390.325l-1.805,0.287c-0.021-1.258-0.168-2.455-0.441-3.59l1.661-0.246
		C69.51,388,69.705,389.182,69.787,390.325z M77.744,385.597l-1.344,0.667c-0.096-0.383-0.209-0.705-0.338-0.965
		c-1.771,0.363-3.344,0.609-4.717,0.738l-0.359-1.302c1.012-0.636,1.887-1.411,2.625-2.327c-0.643,0.15-1.449,0.26-2.42,0.328
		l-0.267-1.17c0.82-0.758,1.483-1.753,1.989-2.983l1.477,0.522c-0.287,0.65-0.793,1.371-1.518,2.164
		c0.513,0,1.101-0.086,1.764-0.256c0.369-0.465,0.704-0.981,1.005-1.549l1.538,0.564c-1.094,1.764-2.304,3.213-3.63,4.348
		c0.759-0.082,1.395-0.188,1.907-0.318c-0.089-0.191-0.215-0.406-0.379-0.646l1.261-0.604
		C76.879,383.581,77.347,384.51,77.744,385.597z M73.57,390.262l-1.764,0.35c-0.171-1.285-0.458-2.482-0.861-3.59l1.661-0.358
		C73.085,387.956,73.406,389.155,73.57,390.262z M77.785,389.904l-1.61,0.708c-0.458-1.129-1.179-2.365-2.163-3.713l1.63-0.656
		C76.489,387.399,77.203,388.619,77.785,389.904z"/>
	<path fill="#FFFFFF" d="M88.726,381.085l-1.087,1.025c-0.328-0.738-0.595-1.271-0.8-1.6v10.192h-1.764v-9.27
		c-0.403,1.6-0.906,2.939-1.507,4.02l-0.82-2.205c0.847-1.627,1.51-3.51,1.988-5.649h-1.783v-1.764h2.122v-3.579h1.764v3.579h1.384
		v1.764h-1.384v0.328C87.721,379.158,88.35,380.21,88.726,381.085z M101.481,387.176c-0.376,2.44-1.142,3.66-2.297,3.66
		c-0.807,0-1.729-0.73-2.769-2.193c-1.709,1.072-3.09,1.794-4.143,2.163l-1.025-1.579c1.907-0.718,3.336-1.439,4.286-2.164
		c-0.396-0.854-0.725-1.91-0.984-3.168h-3.005l-0.02,0.502c1.305,0.896,2.187,1.569,2.645,2.021l-1.138,1.466
		c-0.369-0.424-0.943-0.933-1.723-1.527c-0.444,1.846-1.234,3.356-2.368,4.532l-1.518-1.025c1.489-1.422,2.262-3.411,2.316-5.968
		h-1.783v-1.723h6.275c-0.295-2.413-0.489-5.719-0.585-9.916h1.743c0.041,3.801,0.236,7.106,0.584,9.916h1.241
		c-0.041-0.198-0.153-0.414-0.339-0.646l1.949-0.399c0.149,0.239,0.341,0.588,0.574,1.046h1.824v1.723h-4.891
		c0.096,0.629,0.29,1.295,0.584,2c0.533-0.5,1.022-1.088,1.467-1.764l1.6,0.81c-0.69,1.032-1.433,1.894-2.225,2.584
		c0.628,0.868,1.045,1.302,1.25,1.302c0.383,0,0.646-0.875,0.79-2.625L101.481,387.176z M93.791,381.332l-1.322,0.339
		c-0.049-0.486-0.113-0.858-0.195-1.118c-1.155,0.198-2.219,0.345-3.189,0.44l-0.44-1.486c0.431-0.451,1.005-1.199,1.723-2.246
		c-0.636,0.055-1.146,0.082-1.528,0.082L88.5,376c0.759-1.039,1.333-2.286,1.723-3.743l1.609,0.514
		c-0.615,1.428-1.117,2.406-1.507,2.932c0.294,0.021,0.629-0.006,1.005-0.082c0.137-0.225,0.369-0.687,0.697-1.384l1.426,0.759
		c-0.876,1.668-1.877,3.131-3.005,4.389c0.451-0.021,0.943-0.078,1.477-0.174c-0.041-0.281-0.134-0.574-0.276-0.883l1.261-0.44
		C93.388,379.315,93.682,380.463,93.791,381.332z M101.266,381.229l-1.281,0.42l-0.205-1.179c-1.224,0.171-2.317,0.312-3.281,0.421
		l-0.482-1.467c0.424-0.383,0.998-1.09,1.723-2.123c-0.533,0.082-1.06,0.15-1.578,0.205L95.893,376
		c0.752-1.032,1.395-2.272,1.928-3.722l1.559,0.574c-0.362,0.889-0.943,1.917-1.742,3.086c0.41-0.027,0.771-0.075,1.086-0.144
		c0.342-0.574,0.608-1.053,0.801-1.436l1.486,0.574c-0.711,1.395-1.709,2.851-2.994,4.368c0.294-0.014,0.748-0.064,1.363-0.154
		c-0.061-0.273-0.146-0.525-0.256-0.758l1.281-0.41C100.821,379.065,101.108,380.149,101.266,381.229z"/>
</g>
<path fill-rule="evenodd" clip-rule="evenodd" fill="#FFFFFF" d="M274.921,539.379c0.138-0.199,0.203-0.33,0.299-0.428
	c3.526-3.531,7.055-7.061,10.586-10.591c0.809-0.808,1.71-0.987,2.584-0.517c1.095,0.584,1.409,2.027,0.651,3.01
	c-0.107,0.139-0.231,0.27-0.356,0.395c-4.049,4.052-8.099,8.104-12.148,12.151c-1.059,1.058-2.214,1.064-3.265,0.015
	c-4.068-4.068-8.137-8.137-12.203-12.205c-0.99-0.993-0.972-2.357,0.035-3.166c0.739-0.596,1.794-0.599,2.532,0
	c0.156,0.127,0.304,0.27,0.447,0.412c3.493,3.494,6.985,6.987,10.479,10.483C274.659,539.036,274.738,539.154,274.921,539.379"/>
<g opacity="0.5">
	<g>
		<defs>
			<rect id="SVGID_3_" x="17.444" y="56.626" width="514.58" height="0.9"/>
		</defs>
		<clipPath id="SVGID_4_">
			<use xlink:href="#SVGID_3_"  overflow="visible"/>
		</clipPath>
		
			<polyline clip-path="url(#SVGID_4_)" fill="none" stroke="#FFFFFF" stroke-width="0.898" stroke-linecap="round" stroke-miterlimit="10" points="
			17.89,57.074 186.369,57.074 531.578,57.074 		"/>
	</g>
</g>
<g opacity="0.5">
	<g>
		<defs>
			<rect id="SVGID_5_" x="17.614" y="411.846" width="514.58" height="0.9"/>
		</defs>
		<clipPath id="SVGID_6_">
			<use xlink:href="#SVGID_5_"  overflow="visible"/>
		</clipPath>
		
			<polyline clip-path="url(#SVGID_6_)" fill="none" stroke="#FFFFFF" stroke-width="0.898" stroke-linecap="round" stroke-miterlimit="10" points="
			18.061,412.295 186.539,412.295 531.748,412.295 		"/>
	</g>
</g>
<g opacity="0.5">
	<g>
		<defs>
			<rect id="SVGID_7_" x="16.484" y="467.446" width="514.58" height="0.9"/>
		</defs>
		<clipPath id="SVGID_8_">
			<use xlink:href="#SVGID_7_"  overflow="visible"/>
		</clipPath>
		
			<polyline clip-path="url(#SVGID_8_)" fill="none" stroke="#FFFFFF" stroke-width="0.898" stroke-linecap="round" stroke-miterlimit="10" points="
			16.932,467.899 185.41,467.899 530.619,467.899 		"/>
	</g>
</g>
<g>
	<path fill="#FFFFFF" d="M85.492,499.765H68.148v-1.738h7.744v-4.297H69.77v-1.738h6.123v-4.229h-7.061v-1.738h7.344
		c-0.254-0.84-0.693-1.819-1.318-2.939l1.797-0.479c0.56,1.081,1.045,2.22,1.455,3.418h6.66v1.738h-7.041v4.229h6.143v1.738h-6.143
		v4.297h7.764V499.765z"/>
	<path fill="#FFFFFF" d="M99.477,485.527h-2.783v2.656h2.119v5.859h-2.119v3.164h2.324v1.719H91.01v-15.137h8.467V485.527z
		 M94.936,488.183v-2.656h-2.158v2.656H94.936z M97.035,492.382v-2.52h-4.219v2.52H97.035z M94.936,497.207v-3.164h-2.1v3.164
		H94.936z M108.197,498.71l-1.025,1.621c-1.875-2.07-3.174-4.798-3.896-8.184c-0.364,2.962-1.26,5.71-2.686,8.242l-1.436-1.182
		c0.911-1.38,1.668-3.118,2.271-5.215s0.903-4.932,0.903-8.506c0-0.774-0.013-1.66-0.039-2.656h1.787
		c0.02,0.944,0.029,2.49,0.029,4.639c0,1.973,0.364,4.004,1.094,6.094S106.928,497.37,108.197,498.71z"/>
	<path fill="#FFFFFF" d="M130.512,499.726h-17.383v-1.563h7.783v-1.855h-6.621v-1.582h6.621v-1.621
		c-1.621,0.117-3.613,0.166-5.977,0.146l-0.342-1.504c1.399-0.364,2.852-1.306,4.355-2.822h-3.018v-1.563h11.699v1.563h-6.221
		c-1.152,1.204-2.266,2.119-3.34,2.744c1.96-0.013,4.388-0.179,7.285-0.498c-0.183-0.176-0.628-0.505-1.338-0.986l1.377-0.977
		c1.966,1.276,3.425,2.441,4.375,3.496l-1.279,1.182c-0.417-0.456-0.882-0.908-1.396-1.357c-1.433,0.149-2.894,0.283-4.385,0.4
		v1.797h6.699v1.582h-6.699v1.855h7.803V499.726z M130.014,488.291h-1.758v-2.363h-12.92v2.441h-1.787v-4.043h7.246
		c-0.313-0.521-0.586-0.94-0.82-1.26l1.797-0.439c0.267,0.397,0.615,0.964,1.045,1.699h7.197V488.291z"/>
</g>
<path fill-rule="evenodd" clip-rule="evenodd" fill="#FFFFFF" d="M45.063,492.477c-0.117-0.079-0.194-0.117-0.25-0.174
	c-2.065-2.062-4.13-4.127-6.194-6.19c-0.473-0.474-0.577-1-0.302-1.511c0.341-0.642,1.185-0.824,1.76-0.381
	c0.082,0.063,0.157,0.135,0.231,0.209c2.368,2.366,4.738,4.734,7.105,7.104c0.619,0.619,0.622,1.295,0.008,1.909
	c-2.38,2.379-4.757,4.759-7.137,7.137c-0.581,0.579-1.379,0.567-1.852-0.021c-0.348-0.434-0.35-1.051,0-1.481
	c0.074-0.092,0.158-0.178,0.241-0.261c2.044-2.044,4.087-4.086,6.13-6.128C44.862,492.63,44.931,492.583,45.063,492.477"/>
<g>
	<path fill="#FFFFFF" d="M87.313,36.39l-0.678,1.661c-3.083-0.403-5.861-1.111-8.336-2.123c-2.591,0.957-5.418,1.63-8.48,2.02
		l-0.717-1.702c2.48-0.212,4.856-0.673,7.126-1.384c-1.217-0.841-2.044-1.449-2.481-1.825c-0.889,0.67-1.757,1.265-2.604,1.784
		L69.9,33.457c2.365-1.36,4.242-2.922,5.63-4.686h-4.132v2.902h-1.877v-4.604h7.496c-0.041-0.15-0.25-0.55-0.626-1.2l1.979-0.461
		c0.218,0.308,0.502,0.861,0.851,1.661h7.67v4.604h-1.887v-2.902h-9.177l1.425,0.8c-0.219,0.287-0.472,0.588-0.759,0.902h7.649
		v1.641c-1.36,1.128-2.643,2.058-3.845,2.789C82.555,35.668,84.893,36.164,87.313,36.39z M84.688,43.957h-1.908v-0.779h-9.136v0.779
		h-1.917v-6.009h12.961V43.957z M82.779,41.476V39.63h-9.136v1.846H82.779z M81.303,32.114h-5.998
		c0.875,0.738,1.853,1.388,2.933,1.948C79.481,33.406,80.504,32.756,81.303,32.114z"/>
	<path fill="#FFFFFF" d="M110.916,28.156H95.289v6.932c0,3.944-0.413,6.962-1.24,9.054l-1.568-1.179
		c0.307-0.82,0.552-1.772,0.732-2.855c0.182-1.083,0.271-2.771,0.271-5.061V26.71h7.496c-0.103-0.267-0.291-0.602-0.564-1.005
		l1.928-0.318c0.26,0.383,0.506,0.824,0.738,1.323h7.834V28.156z M99.371,38.348c-0.261,0.103-0.667,0.205-1.221,0.308v1.056h1.005
		v1.22H98.15v0.82c0.294-0.055,0.649-0.133,1.066-0.236v1.364c-1.039,0.287-2.314,0.526-3.824,0.718l-0.268-1.364l1.528-0.215
		v-1.087h-1.128v-1.22h1.128v-0.759l-0.749,0.062l-0.42-1.302c1.422-0.116,2.598-0.325,3.527-0.625L99.371,38.348z M101.842,30.34
		h-0.564v13.545h-1.578v-7.403c-1.648,0.219-2.943,0.349-3.887,0.39l-0.328-1.364c0.28,0.027,0.536,0.014,0.77-0.041V30.34h-0.482
		v-1.364h6.07V30.34z M99.699,31.181V30.34h-1.826v0.841H99.699z M99.699,33.119v-0.8h-1.826v0.8H99.699z M99.699,35.026v-0.708
		h-1.826v1.005C98.762,35.2,99.371,35.101,99.699,35.026z M103.708,39.958c-0.137,1.23-0.485,2.464-1.046,3.702l-1.24-0.697
		c0.478-1.046,0.816-2.215,1.015-3.507L103.708,39.958z M110.896,38.153h-8.881v-1.446h8.881V38.153z M110.599,31.037h-3.404v0.882
		h3.22v3.989h-8.213v-3.989h3.301v-0.882h-3.281v-1.466h3.281v-0.902h1.692v0.902h3.404V31.037z M104.59,34.626V33.16h-0.852v1.466
		H104.59z M108.896,41.496c0,0.417-0.07,0.834-0.21,1.251c-0.141,0.417-0.337,0.692-0.59,0.826c-0.253,0.133-0.824,0.2-1.712,0.2
		c-1.006,0-1.646-0.109-1.923-0.328c-0.277-0.219-0.415-0.574-0.415-1.066v-2.902h1.6v2.502c0,0.246,0.263,0.369,0.789,0.369
		c0.349,0,0.598-0.048,0.748-0.144s0.246-0.513,0.287-1.251L108.896,41.496z M108.015,40.43l-1.425,0.523
		c-0.205-0.581-0.562-1.261-1.066-2.041l1.384-0.502C107.331,38.929,107.7,39.603,108.015,40.43z M106.773,34.626V33.16h-0.922
		v1.466H106.773z M108.917,34.626V33.16h-0.882v1.466H108.917z M111.121,42.46l-1.384,0.718c-0.287-1.244-0.783-2.54-1.487-3.886
		l1.364-0.523C110.4,40.211,110.902,41.441,111.121,42.46z"/>
</g>
<path fill-rule="evenodd" clip-rule="evenodd" fill="#FFFFFF" d="M43.96,38.083c0.08-0.117,0.118-0.193,0.175-0.25
	c2.062-2.065,4.126-4.129,6.19-6.193c0.473-0.473,1-0.578,1.511-0.303c0.641,0.342,0.824,1.185,0.381,1.76
	c-0.063,0.082-0.136,0.158-0.209,0.231c-2.367,2.369-4.734,4.738-7.104,7.106c-0.619,0.619-1.295,0.622-1.909,0.008
	c-2.379-2.379-4.759-4.757-7.138-7.137c-0.578-0.58-0.566-1.379,0.021-1.851c0.433-0.349,1.05-0.35,1.48,0
	c0.093,0.073,0.179,0.157,0.262,0.241c2.044,2.043,4.086,4.086,6.128,6.13C43.807,37.882,43.853,37.951,43.96,38.083"/>
<g>
	<path fill="#FFFFFF" d="M86.375,434.355h-14.6v7.422c0,2.897-0.488,5.264-1.465,7.1l-1.338-1.309
		c0.71-1.511,1.064-3.542,1.064-6.094v-8.682h7.061c-0.188-0.391-0.43-0.791-0.723-1.201l1.875-0.42
		c0.234,0.364,0.537,0.905,0.908,1.621h7.217V434.355z M80.252,447.529c-2.884,0.56-5.576,0.979-8.076,1.26l-0.342-1.475
		c0.781-0.078,1.521-0.173,2.217-0.283c-0.13-0.501-0.423-1.133-0.879-1.895l1.201-0.742H72.83v-4.121h6.641v4.121h-1.719
		l1.24,0.596c-0.183,0.469-0.394,0.915-0.635,1.338c0.71-0.085,1.335-0.188,1.875-0.313L80.252,447.529z M80.076,437.089H76.99
		v1.025h2.705v1.377h-7.041v-1.377h2.617v-1.006h-2.939l-0.02-1.357h2.959v-0.82h1.719v0.82h3.086V437.089z M77.811,442.988v-1.357
		H74.52v1.357H77.811z M77.41,444.394h-2.715c0.442,0.931,0.769,1.731,0.977,2.402l0.742-0.127
		C76.733,446.129,77.065,445.371,77.41,444.394z M82.752,444.296l-1.494,0.654c-0.241-1.491-0.583-2.815-1.025-3.975l1.484-0.664
		C82.225,441.667,82.569,442.995,82.752,444.296z M86.395,439.228h-1.357v7.568c0,0.612-0.137,1.103-0.41,1.47
		s-0.97,0.552-2.09,0.552c-0.371,0-0.771-0.017-1.201-0.049l-0.557-1.66h2.217c0.241,0,0.361-0.127,0.361-0.381v-7.5h-2.861v-1.66
		h2.861v-2.656h1.68v2.656h1.357V439.228z"/>
	<path fill="#FFFFFF" d="M108.113,432.509c-3.958,0.853-7.806,1.279-11.543,1.279h-1.631v0.986h12.891v4.316H94.939
		c-0.124,4.153-0.957,7.399-2.5,9.736l-1.162-1.533c1.25-2.063,1.875-4.919,1.875-8.564v-6.494h3.643
		c3.796,0,7.243-0.374,10.342-1.123L108.113,432.509z M108.855,442.314h-8.398l-0.186,1.24h7.666
		c-0.065,1.211-0.193,2.241-0.386,3.091s-0.516,1.404-0.972,1.665s-1.257,0.391-2.402,0.391c-0.501,0-1.175-0.017-2.021-0.049
		l-0.537-1.68c0.769,0.052,1.553,0.078,2.354,0.078c0.69,0,1.121-0.01,1.294-0.029s0.324-0.14,0.454-0.361s0.215-0.765,0.254-1.631
		H99.91c-0.911,1.829-2.522,3.118-4.834,3.867l-1.045-1.523c3.066-0.866,4.593-2.552,4.58-5.059h-3.115v-1.504h5.439
		c-0.163-0.306-0.384-0.632-0.664-0.977l1.924-0.42c0.254,0.345,0.515,0.811,0.781,1.396h5.879V442.314z M106.033,437.568v-1.318
		H94.939v1.318H106.033z"/>
</g>
<path fill-rule="evenodd" clip-rule="evenodd" fill="#FFFFFF" d="M45.985,441.022c-0.118-0.08-0.194-0.117-0.251-0.174
	c-2.064-2.063-4.129-4.127-6.193-6.19c-0.473-0.474-0.577-1-0.303-1.513c0.342-0.64,1.186-0.822,1.761-0.379
	c0.081,0.063,0.157,0.135,0.231,0.207c2.368,2.368,4.736,4.736,7.104,7.105c0.62,0.619,0.623,1.295,0.009,1.909
	c-2.38,2.379-4.757,4.758-7.138,7.136c-0.58,0.58-1.378,0.568-1.851-0.021c-0.348-0.432-0.35-1.049,0-1.479
	c0.074-0.092,0.157-0.178,0.241-0.262c2.044-2.043,4.086-4.085,6.13-6.127C45.784,441.175,45.853,441.128,45.985,441.022"/>
</svg>
