<?xml version="1.0" encoding="utf-8"?>
<!-- Generator: Adobe Illustrator 16.0.0, SVG Export Plug-In . SVG Version: 6.00 Build 0)  -->
<!DOCTYPE svg PUBLIC "-//W3C//DTD SVG 1.1//EN" "http://www.w3.org/Graphics/SVG/1.1/DTD/svg11.dtd">
<svg version="1.1" id="圖層_1" xmlns="http://www.w3.org/2000/svg" xmlns:xlink="http://www.w3.org/1999/xlink" x="0px" y="0px"
	 width="760px" height="600px" viewBox="0 0 948 566" enable-background="new 0 0 948 566" xml:space="preserve">
<text transform="matrix(1 0 0 1 282.9204 180.103)"><tspan x="0" y="0" fill="#FFFFFF" font-family="'MicrosoftJhengHeiBold'" font-size="21.547" letter-spacing="2">12月03</tspan><tspan x="85.925" y="0" fill="#FFFFFF" font-family="'MicrosoftJhengHeiBold'" font-size="21.547">日</tspan></text>
<rect x="6.862" y="5.737" fill="#FFFFFF" width="779.282" height="553.937"/>
<g opacity="0.5">
	<g>
		<defs>
			<rect id="SVGID_1_" x="6.862" y="5.733" width="779.282" height="553.94"/>
		</defs>
		<clipPath id="SVGID_2_">
			<use xlink:href="#SVGID_1_"  overflow="visible"/>
		</clipPath>
		<rect x="6.862" y="5.737" clip-path="url(#SVGID_2_)" fill="#FFFFFF" width="779.282" height="553.937"/>
	</g>
</g>
<g opacity="0.4">
	<g>
		<defs>
			<rect id="SVGID_3_" x="6.862" y="5.733" width="779.282" height="553.94"/>
		</defs>
		<clipPath id="SVGID_4_">
			<use xlink:href="#SVGID_3_"  overflow="visible"/>
		</clipPath>
		<path clip-path="url(#SVGID_4_)" fill="#87CCC7" d="M786.144,559.675H33.794c-14.875,0-26.933-12.06-26.933-26.935V32.672
			c0-14.875,12.058-26.934,26.933-26.934h752.349V559.675z"/>
	</g>
</g>
<path fill="#366497" d="M916.256,559.675h-160.66V5.738h160.66c14.898,0,26.979,12.079,26.979,26.978v499.981
	C943.234,547.598,931.154,559.675,916.256,559.675"/>
<path fill="#FFFFFF" d="M889.816,61.401h-89.779c-11.653,0-21.098-9.446-21.098-21.098c0-11.652,9.444-21.098,21.098-21.098h89.779
	c11.652,0,21.098,9.446,21.098,21.098C910.914,51.956,901.469,61.401,889.816,61.401"/>
<g>
	<path fill="#345C8D" d="M815.936,39.154h-1.805v-3.363h-6.297v4.05h-1.742v-4.05h-5.947v3.363h-1.785v-4.85h7.732v-0.759h-6.953
		v-1.6h15.895v1.6h-7.199v0.759h8.102V39.154z M816.314,47.593c-0.117,0.684-0.305,1.205-0.564,1.564
		c-0.26,0.358-0.543,0.574-0.85,0.646c-0.309,0.072-1.57,0.108-3.785,0.108c-1.838,0-3.02-0.031-3.543-0.092
		c-0.521-0.062-0.906-0.241-1.152-0.538c-0.246-0.298-0.369-0.72-0.369-1.267v-1.179h-6.748v-6.419h15.207v6.419h-6.654v0.636
		c0,0.287,0.107,0.47,0.322,0.548c0.215,0.079,1.438,0.118,3.666,0.118c0.957,0,1.553-0.007,1.789-0.021s0.408-0.103,0.518-0.267
		s0.164-0.383,0.164-0.656L816.314,47.593z M805.559,39.297c-1.307,0.239-2.83,0.393-4.574,0.461l-0.358-1.22
		c1.381-0.014,2.901-0.137,4.563-0.369L805.559,39.297z M805.455,36.57l-0.338,1.2c-1.408-0.191-2.834-0.297-4.275-0.318
		l0.379-1.179C802.376,36.252,803.787,36.351,805.455,36.57z M806.051,42.886v-1.128h-4.943v1.128H806.051z M806.051,45.429v-1.2
		h-4.943v1.2H806.051z M812.746,42.886v-1.128h-4.891v1.128H812.746z M812.746,45.429v-1.2h-4.891v1.2H812.746z M813.547,37.236
		c-1.424,0.239-2.979,0.393-4.666,0.461l-0.42-1.148c1.291-0.021,2.768-0.154,4.43-0.4L813.547,37.236z M813.412,38.692
		l-0.287,1.189c-1.668-0.273-3.223-0.441-4.664-0.502l0.42-1.189C810.125,38.217,811.635,38.385,813.412,38.692z"/>
	<path fill="#345C8D" d="M840.174,43.419l-0.82,1.743c-0.232-0.041-0.514-0.113-0.842-0.215v5.014h-1.824v-1.005h-3.168v1.005
		h-1.836v-6.46h3.506c-1.436-0.93-2.465-1.842-3.086-2.738h-2.533c-0.922,1.073-2.084,1.986-3.486,2.738h3.795v6.46h-1.785v-1.005
		h-3.209v1.005h-1.783v-5.014c-0.24,0.103-0.492,0.181-0.76,0.236l-0.943-1.559c2.236-0.766,4.084-1.719,5.547-2.861h-5.209v-1.63
		h6.902c0.271-0.349,0.566-0.817,0.881-1.405l1.938,0.226c-0.156,0.349-0.375,0.742-0.656,1.179h4.502
		c-0.355-0.26-0.748-0.492-1.18-0.697l1.488-0.882c0.607,0.301,1.127,0.66,1.559,1.077l-0.82,0.502h3.363v1.63h-5.25
		C835.822,42.049,837.727,42.934,840.174,43.419z M829.652,37.431h-6.768v-5.424h6.768V37.431z M827.848,35.811v-2.205h-3.158v2.205
		H827.848z M828.094,47.316v-2.225h-3.209v2.225H828.094z M838.635,37.431h-6.992v-5.424h6.992V37.431z M836.852,35.811v-2.205
		h-3.385v2.205H836.852z M836.688,47.316v-2.225h-3.168v2.225H836.688z"/>
	<path fill="#345C8D" d="M863.52,47.993l-0.523,1.764c-1.354,0.034-2.83,0.051-4.43,0.051c-1.736,0-3.154-0.014-4.254-0.041
		c-1.102-0.027-2.201-0.215-3.297-0.564c-1.098-0.349-2.033-0.892-2.805-1.63c-0.828,1.265-1.449,2.126-1.867,2.584l-1.424-1.22
		c1.666-1.948,2.662-3.907,2.982-5.875h-2.584v-1.784c0.971-1.251,1.74-2.434,2.309-3.548h-2.523v-1.774h4.543v1.774
		c-0.609,1.162-1.344,2.372-2.205,3.63h2.266c0.035,0.273,0.053,0.557,0.053,0.851c0,1.244-0.271,2.499-0.811,3.763
		c0.656,0.643,1.418,1.133,2.287,1.471c0.867,0.339,2.037,0.53,3.512,0.574c1.473,0.045,2.793,0.067,3.963,0.067
		C860.42,48.085,862.023,48.054,863.52,47.993z M849.596,34.068l-1.252,1.282c-0.773-0.902-1.713-1.777-2.82-2.625l1.283-1.261
		C848.139,32.543,849.068,33.412,849.596,34.068z M863.191,44.568h-13.002V43.04h3.127v-1.241h-2.666v-1.559h2.666v-1.025h1.785
		v1.025h3.107v-1.025h1.783v1.025h2.646v1.559h-2.646v1.241h3.199V44.568z M856.219,38.139l-5.383,1.056l-0.379-1.559
		c0.266-0.089,0.398-0.297,0.398-0.625v-5.209h5.148v3.886h-3.467v1.682c0.533-0.075,1.746-0.314,3.641-0.718L856.219,38.139z
		 M855.736,45.911c-0.922,0.581-2.219,1.101-3.885,1.559l-1.303-1.405c1.236-0.273,2.521-0.714,3.855-1.323L855.736,45.911z
		 M854.301,34.242v-1.015h-1.764v1.015H854.301z M858.209,43.04v-1.241h-3.107v1.241H858.209z M862.936,38.58h-4.133
		c-0.547,0-0.953-0.13-1.221-0.39c-0.266-0.26-0.398-0.738-0.398-1.436v-4.953h5.168v3.866h-3.467v1.087
		c0,0.239,0.119,0.359,0.359,0.359h3.691V38.58z M863.037,46.27l-1.148,1.364c-1.34-0.622-2.686-1.118-4.039-1.487l1.139-1.364
		C860.156,45.118,861.506,45.614,863.037,46.27z M860.648,34.242v-1.015h-1.764v1.015H860.648z"/>
	<path fill="#345C8D" d="M873.936,36.672h-1.486v3.343c0.512-0.26,0.945-0.492,1.303-0.697l0.164,1.825
		c-0.563,0.335-1.051,0.608-1.467,0.82v6.347c0,0.533-0.164,0.931-0.492,1.195c-0.328,0.263-0.738,0.395-1.23,0.395
		c-0.445,0-0.941-0.014-1.486-0.041l-0.514-1.805c0.342,0.014,0.648,0.021,0.924,0.021c0.518,0,0.832-0.031,0.938-0.092
		s0.158-0.178,0.158-0.349v-4.871c-0.697,0.321-1.326,0.581-1.887,0.779l-0.338-1.743c0.895-0.301,1.637-0.602,2.225-0.902v-4.225
		h-2.102V34.95h2.102v-3.333h1.703v3.333h1.486V36.672z M886.979,47.429h-5.588v2.451h-1.785v-2.451h-5.414V45.87h5.414v-1.241
		h-4.676v-1.507h2.574c-0.199-0.574-0.461-1.162-0.789-1.764h-2.318v-1.518h5.148v-1.046h-4.389v-1.466h4.389v-0.933h-4.912v-4.43
		h11.781v4.43h-5.064v0.933h4.645v1.466h-4.645v1.046h5.465v1.518h-2.225c-0.314,0.786-0.574,1.374-0.779,1.764h2.41v1.507h-4.83
		v1.241h5.588V47.429z M877.996,34.929v-1.446h-1.578v1.446H877.996z M882.59,41.358h-3.928c0.301,0.615,0.547,1.203,0.738,1.764
		h2.41C882.111,42.589,882.371,42.001,882.59,41.358z M881.268,34.929v-1.446h-1.527v1.446H881.268z M884.65,34.929v-1.446h-1.66
		v1.446H884.65z"/>
</g>
<path fill-rule="evenodd" clip-rule="evenodd" fill="#FFFFFF" d="M849.439,542.447c0.139-0.199,0.203-0.33,0.299-0.428
	c3.527-3.531,7.055-7.061,10.586-10.592c0.809-0.807,1.709-0.986,2.584-0.516c1.094,0.584,1.408,2.026,0.65,3.01
	c-0.107,0.139-0.23,0.269-0.355,0.395c-4.049,4.051-8.098,8.104-12.148,12.15c-1.059,1.059-2.215,1.064-3.266,0.015
	c-4.068-4.067-8.137-8.136-12.203-12.205c-0.99-0.993-0.971-2.356,0.035-3.165c0.74-0.596,1.795-0.6,2.533,0
	c0.156,0.126,0.303,0.27,0.447,0.412c3.494,3.494,6.984,6.986,10.479,10.482C849.178,542.104,849.258,542.221,849.439,542.447"/>
<g opacity="0.2">
	<g>
		<defs>
			<rect id="SVGID_5_" x="755.596" y="516.584" width="187.641" height="43.09"/>
		</defs>
		<clipPath id="SVGID_6_">
			<use xlink:href="#SVGID_5_"  overflow="visible"/>
		</clipPath>
		<rect x="755.596" y="516.582" clip-path="url(#SVGID_6_)" fill="#FFFFFF" width="187.639" height="43.094"/>
	</g>
</g>
</svg>
