<?xml version="1.0" encoding="utf-8"?>
<!-- Generator: Adobe Illustrator 16.0.0, SVG Export Plug-In . SVG Version: 6.00 Build 0)  -->
<!DOCTYPE svg PUBLIC "-//W3C//DTD SVG 1.1//EN" "http://www.w3.org/Graphics/SVG/1.1/DTD/svg11.dtd">
<svg version="1.1" id="圖層_1" xmlns="http://www.w3.org/2000/svg" xmlns:xlink="http://www.w3.org/1999/xlink" x="0px" y="0px"
	 width="620px" height="690px" viewBox="0 0 754.463 452.977" enable-background="new 0 0 754.463 452.977"
	 xml:space="preserve">
<g>
	<text transform="matrix(1 0 0 1 49.9419 365.6196)" fill="#366497" font-family="'MicrosoftJhengHeiBold'" font-size="9.8418">1</text>
	<text transform="matrix(1 0 0 1 49.9419 417.5747)" fill="#366497" font-family="'MicrosoftJhengHeiBold'" font-size="9.8418">0</text>
	<text transform="matrix(1 0 0 1 42.8462 313.9897)" fill="#366497" font-family="'MicrosoftJhengHeiBold'" font-size="9.8418">2</text>
	<text transform="matrix(1 0 0 1 42.8462 262.3599)" fill="#366497" font-family="'MicrosoftJhengHeiBold'" font-size="9.8418">3</text>
	<text transform="matrix(1 0 0 1 42.8462 210.2769)" fill="#366497" font-family="'MicrosoftJhengHeiBold'" font-size="9.8418">4</text>
	<text transform="matrix(1 0 0 1 42.8462 158.647)" fill="#366497" font-family="'MicrosoftJhengHeiBold'" font-size="9.8418">5</text>
	<text transform="matrix(1 0 0 1 42.8462 107.0171)" fill="#366497" font-family="'MicrosoftJhengHeiBold'" font-size="9.8418">6</text>
	<g opacity="0.8">
		<g>
			<defs>
				<rect id="SVGID_1_" x="8.781" y="7.184" width="738.194" height="439.96"/>
			</defs>
			<clipPath id="SVGID_2_">
				<use xlink:href="#SVGID_1_"  overflow="visible"/>
			</clipPath>
			<g clip-path="url(#SVGID_2_)">
				<defs>
					<rect id="SVGID_3_" x="8.781" y="7.189" width="738.19" height="439.951"/>
				</defs>
				<clipPath id="SVGID_4_">
					<use xlink:href="#SVGID_3_"  overflow="visible"/>
				</clipPath>
				<path clip-path="url(#SVGID_4_)" fill="#87CCC7" d="M721.451,447.139H34.298c-14.093,0-25.516-9.573-25.516-21.383V28.577
					c0-11.811,11.423-21.385,25.516-21.385h687.153c14.095,0,25.52,9.574,25.52,21.385v397.18
					C746.971,437.566,735.546,447.139,721.451,447.139"/>
			</g>
		</g>
	</g>
	<g>
		<defs>
			<path id="SVGID_5_" d="M8.696,60.797v364.958c0,11.81,11.423,21.384,25.516,21.384h687.152c14.097,0,25.518-9.574,25.518-21.384
				V60.797H8.696z"/>
		</defs>
		<clipPath id="SVGID_6_">
			<use xlink:href="#SVGID_5_"  overflow="visible"/>
		</clipPath>
		<path clip-path="url(#SVGID_6_)" fill="#7DADBD" d="M729.315,207.2c-10.21,18.027-27.991,34.912-40.367,43.438
			c-23.736,16.353-51.847,22.364-79.796,21.403c-10.851-0.373-24.812-0.847-33.616-8.621c-10.898-9.615-10.688-29.455-8.634-43.108
			c0.693-4.628,1.945-14.589-3.662-16.296c-5.581-1.699-10.23,7.86-14.542,10.09c-7.189,3.717-15.376,5.199-23.269,5.773
			c-22.524,1.642-43.156-8.942-59.309-25.515c-7.449-7.64-17.754-19.83-27.787-23.382c-7.041-2.491-15.445-0.059-22.84-0.911
			c-17.57-2.02-35.465-9.606-43.123-27.932c-5.692-13.619-7.383-20.959,0.168-33.544c5.438-9.067,11.652-16.916,18.921-24.4
			c10.743-11.061,19.891-16.731,30.979-21.483c-14.691-1.261-29.585-1.913-44.651-1.913c-46.632,0-91.621,6.183-133.97,17.656
			c13.987,22.86,29.544,50.25,28.121,56.857c-2.545,11.809-42.397,13.626-56.815,39.064c-14.416,25.439-97.514,36.34-135.671,19.079
			c-10.772-4.872-15.124-12.714-15.326-22.174c-46.964,39.422-84.324,87.607-108.695,141.567
			c27.356-2.18,40.716,55.197,50.217,88.547c10.793,37.883-35.946,127.386-35.946,127.386s-18.764-0.391-39.815-1.697
			c36.224,188.681,222.968,332.403,447.9,332.403c250.882,0,454.257-178.792,454.257-399.343
			C832.045,364.152,793.518,276.073,729.315,207.2 M301.615,445.108c-12.72,59.96-69.531,117.194-103.448,47.241
			C164.245,422.395,70.124,474.18,87.93,415.127c17.806-59.053-26.287-124.617,36.471-139.077
			c15.891-3.663,45.384-7.542,74.092-5.792c36.1,2.201,70.961,13.303,75.988,44.936
			C281.263,357.893,314.337,385.147,301.615,445.108 M717.963,539.591c-44.094,43.607-61.051,80.855-105.993,48.148
			c-30.737-22.365-36.601-49.063-64.444-75.402c-17.406-16.461-71.23-9.995-47.587-69.544c9.028-22.742,42.366-23.271,64.21-30.287
			c3.252-1.047,6.068-1.303,8.847-1.385c3.606-0.105,7.147,0.088,11.479-0.762c16.171-3.171,23.946-22.587,32.887-35.381
			c12.553-17.973,29.266-32.133,51.42-27.988c36.615,6.848,78.938,4.868,89.885,51.789
			C770.537,449.653,762.056,495.985,717.963,539.591"/>
		<path clip-path="url(#SVGID_6_)" fill="#46A75A" d="M372.54,108.595c-7.552,12.585-5.861,19.925-0.168,33.544
			c7.658,18.326,25.553,25.912,43.123,27.933c7.395,0.851,15.799-1.581,22.84,0.91c10.033,3.552,20.336,15.742,27.787,23.383
			c16.152,16.572,36.784,27.156,59.31,25.515c7.89-0.574,16.078-2.057,23.268-5.773c4.311-2.229,8.961-11.789,14.542-10.09
			c5.609,1.707,4.356,11.668,3.662,16.296c-2.056,13.653-2.265,33.492,8.634,43.108c8.805,7.775,22.767,8.248,33.616,8.621
			c27.949,0.961,56.06-5.051,79.796-21.403c12.376-8.526,30.157-25.411,40.367-43.438C654.867,127.334,545.896,73.3,422.439,62.712
			c-11.09,4.752-20.235,10.422-30.979,21.483C384.191,91.679,377.977,99.528,372.54,108.595"/>
		<path clip-path="url(#SVGID_6_)" fill="#46A75A" d="M198.493,270.258c-28.708-1.75-58.201,2.129-74.092,5.792
			c-62.758,14.461-18.664,80.024-36.471,139.075c-17.807,59.055,76.314,7.27,110.237,77.224
			c33.917,69.955,90.729,12.72,103.448-47.241c12.72-59.961-20.351-87.214-27.134-129.915
			C269.453,283.56,234.593,272.458,198.493,270.258"/>
		<path clip-path="url(#SVGID_6_)" fill="#46A75A" d="M758.666,398.778c-10.947-46.92-53.27-44.938-89.885-51.787
			c-22.154-4.145-38.867,10.017-51.42,27.988c-8.94,12.793-16.715,32.209-32.887,35.379c-4.332,0.851-7.873,0.658-11.48,0.764
			c-2.777,0.081-5.594,0.34-8.846,1.384c-21.844,7.017-55.182,7.546-64.21,30.289c-23.644,59.548,30.181,53.083,47.587,69.543
			c27.844,26.339,33.707,53.037,64.441,75.404c44.945,32.706,61.902-4.543,105.996-48.151
			C762.056,495.984,770.537,449.653,758.666,398.778"/>
		<path clip-path="url(#SVGID_6_)" fill="#46A75A" d="M79.453,193.455c38.157,17.261,121.255,6.359,135.671-19.079
			c14.418-25.437,54.27-27.255,56.815-39.065c1.422-6.606-14.134-33.998-28.12-56.856c-68.124,18.457-129.408,50.618-179.692,92.826
			C64.329,180.741,68.681,188.583,79.453,193.455"/>
		<path clip-path="url(#SVGID_6_)" fill="#46A75A" d="M5.649,401.393c-9.502-33.348-22.86-90.725-50.217-88.545
			c-20.584,45.578-31.902,95.273-31.902,147.295c0,22.812,2.178,45.173,6.357,66.939c21.051,1.308,39.815,1.699,39.815,1.699
			S16.442,439.279,5.649,401.393"/>
	</g>
	<g opacity="0.6">
		<g>
			<defs>
				<rect id="SVGID_7_" x="8.696" y="6.911" width="738.183" height="440.507"/>
			</defs>
			<clipPath id="SVGID_8_">
				<use xlink:href="#SVGID_7_"  overflow="visible"/>
			</clipPath>
			<path clip-path="url(#SVGID_8_)" fill="#FFFFFF" d="M721.359,447.419H34.212c-14.094,0-25.516-9.586-25.516-21.412V28.32
				c0-11.825,11.422-21.412,25.516-21.412h687.147c14.096,0,25.52,9.587,25.52,21.412v397.687
				C746.879,437.833,735.455,447.419,721.359,447.419"/>
		</g>
	</g>
</g>
</svg>
