<?xml version="1.0" encoding="utf-8"?>
<!-- Generator: Adobe Illustrator 16.0.0, SVG Export Plug-In . SVG Version: 6.00 Build 0)  -->
<!DOCTYPE svg PUBLIC "-//W3C//DTD SVG 1.1//EN" "http://www.w3.org/Graphics/SVG/1.1/DTD/svg11.dtd">
<svg version="1.1" id="圖層_1" xmlns="http://www.w3.org/2000/svg" xmlns:xlink="http://www.w3.org/1999/xlink" x="0px" y="0px"
	 width="180px" height="68px" viewBox="0 0 228 68" enable-background="new 0 0 228 68" xml:space="preserve">
<g>
	<path fill="#366497" d="M193.777,0.953c-0.775,0-1.541,0.037-2.303,0.09H36.689c-0.761-0.053-1.526-0.09-2.301-0.09
		c-18.225,0-33.001,14.778-33.001,33.003c0,18.126,14.613,32.83,32.699,32.994v0.098h159.425v-0.096
		c0.088,0,0.176,0.004,0.266,0.004c18.227,0,33.002-14.773,33.002-33S212.004,0.953,193.777,0.953"/>
	<path fill="#366497" d="M216.797,33.448c0-12.899-10.457-23.354-23.354-23.354c-0.66,0-1.313,0.034-1.957,0.087H38.003
		c-0.645-0.053-1.296-0.087-1.955-0.087c-12.899,0-23.354,10.456-23.354,23.354c0,12.896,10.455,23.355,23.354,23.355
		c0.022,0,0.047-0.002,0.07-0.002v0.09h157.394v-0.09C206.377,56.762,216.797,46.323,216.797,33.448"/>
</g>
</svg>
