<?xml version="1.0" encoding="utf-8"?>
<!-- Generator: Adobe Illustrator 16.0.0, SVG Export Plug-In . SVG Version: 6.00 Build 0)  -->
<!DOCTYPE svg PUBLIC "-//W3C//DTD SVG 1.1//EN" "http://www.w3.org/Graphics/SVG/1.1/DTD/svg11.dtd">
<svg version="1.1" id="圖層_1" xmlns="http://www.w3.org/2000/svg" xmlns:xlink="http://www.w3.org/1999/xlink" x="0px" y="0px"
	 width="112.375px" height="34.125px" viewBox="0 0 112.375 34.125" enable-background="new 0 0 112.375 34.125"
	 xml:space="preserve">
<g>
	
		<circle fill="none" stroke="#FFFFFF" stroke-width="2" stroke-linecap="round" stroke-linejoin="round" stroke-miterlimit="10" cx="721.5" cy="2655.314" r="28.927"/>
	<g>
		<path fill="#FFFFFF" d="M750.427,2655.314c0,15.977-12.951,28.928-28.927,28.928s-28.927-12.951-28.927-28.928
			c0-15.975,12.951-28.926,28.927-28.926S750.427,2639.34,750.427,2655.314"/>
		<path fill="#386DA6" d="M703.193,2656.599h-6.885c-0.71,0-1.283-0.574-1.283-1.284c0-0.709,0.573-1.283,1.283-1.283h6.885
			V2656.599z"/>
		<path fill="#386DA6" d="M746.691,2656.599h-6.885v-2.567h6.885c0.709,0,1.284,0.574,1.284,1.283
			C747.976,2656.024,747.4,2656.599,746.691,2656.599"/>
		<path fill="#386DA6" d="M722.797,2630.076v6.885h-2.566v-6.885c0-0.709,0.574-1.283,1.282-1.283
			C722.222,2628.793,722.797,2629.367,722.797,2630.076"/>
		<path fill="#386DA6" d="M740.244,2638.455l-4.868,4.867l-1.815-1.814l4.868-4.868c0.501-0.501,1.314-0.501,1.815,0
			S740.745,2637.953,740.244,2638.455"/>
		<path fill="#386DA6" d="M704.518,2636.559l4.868,4.868l-1.814,1.815l-4.868-4.868c-0.501-0.501-0.501-1.313,0-1.815
			C703.204,2636.058,704.017,2636.058,704.518,2636.559"/>
		<path fill="#386DA6" d="M743.38,2651.892l-3.84,0.665l-0.248-1.433l3.84-0.664c0.396-0.068,0.772,0.196,0.84,0.592
			C744.041,2651.447,743.776,2651.824,743.38,2651.892"/>
		<path fill="#386DA6" d="M742.348,2647.922l-3.543,1.625l-0.606-1.32l3.543-1.625c0.365-0.167,0.796-0.007,0.964,0.357
			C742.872,2647.324,742.713,2647.756,742.348,2647.922"/>
		<path fill="#386DA6" d="M740.438,2643.993l-3.145,2.304l-0.858-1.172l3.144-2.304c0.323-0.237,0.778-0.167,1.015,0.156
			C740.831,2643.301,740.761,2643.756,740.438,2643.993"/>
		<path fill="#386DA6" d="M734.396,2637.207l-2.135,3.262l-1.216-0.797l2.135-3.26c0.22-0.336,0.67-0.43,1.006-0.211
			C734.521,2636.421,734.617,2636.871,734.396,2637.207"/>
		<path fill="#386DA6" d="M730.896,2635.123l-1.542,3.58l-1.334-0.574l1.541-3.58c0.158-0.368,0.586-0.538,0.955-0.38
			C730.885,2634.328,731.056,2634.756,730.896,2635.123"/>
		<path fill="#386DA6" d="M726.543,2633.65l-0.639,3.846l-1.434-0.238l0.638-3.846c0.066-0.396,0.44-0.662,0.836-0.597
			C726.341,2632.881,726.608,2633.254,726.543,2633.65"/>
		<path fill="#386DA6" d="M699.608,2651.892l3.841,0.665l0.247-1.433l-3.84-0.664c-0.395-0.068-0.771,0.196-0.84,0.592
			S699.213,2651.824,699.608,2651.892"/>
		<path fill="#386DA6" d="M700.642,2647.922l3.543,1.625l0.605-1.32l-3.543-1.625c-0.365-0.167-0.796-0.007-0.963,0.357
			C700.117,2647.324,700.276,2647.756,700.642,2647.922"/>
		<path fill="#386DA6" d="M702.552,2643.993l3.145,2.304l0.857-1.172l-3.143-2.304c-0.323-0.237-0.778-0.167-1.017,0.156
			C702.158,2643.301,702.228,2643.756,702.552,2643.993"/>
		<path fill="#386DA6" d="M708.593,2637.207l2.135,3.262l1.216-0.797l-2.135-3.26c-0.22-0.336-0.67-0.43-1.006-0.211
			C708.467,2636.421,708.372,2636.871,708.593,2637.207"/>
		<path fill="#386DA6" d="M712.093,2635.123l1.542,3.58l1.335-0.574l-1.542-3.58c-0.159-0.368-0.586-0.538-0.955-0.38
			C712.104,2634.328,711.934,2634.756,712.093,2635.123"/>
		<path fill="#386DA6" d="M716.446,2633.65l0.638,3.846l1.434-0.238l-0.638-3.846c-0.065-0.396-0.439-0.662-0.836-0.597
			C716.648,2632.881,716.38,2633.254,716.446,2633.65"/>
		<path fill="#386DA6" d="M706.409,2671.179h-3.617c-0.441,0-0.8-0.357-0.8-0.799v-4.437c0-0.44,0.358-0.8,0.8-0.8h3.617
			c0.442,0,0.8,0.359,0.8,0.8v4.437C707.209,2670.821,706.852,2671.179,706.409,2671.179"/>
		<path fill="#386DA6" d="M713.169,2671.179h-3.617c-0.441,0-0.8-0.357-0.8-0.799v-4.437c0-0.44,0.358-0.8,0.8-0.8h3.617
			c0.441,0,0.8,0.359,0.8,0.8v4.437C713.969,2670.821,713.61,2671.179,713.169,2671.179"/>
		<path fill="#386DA6" d="M719.929,2671.179h-3.617c-0.442,0-0.8-0.357-0.8-0.799v-4.437c0-0.44,0.357-0.8,0.8-0.8h3.617
			c0.441,0,0.8,0.359,0.8,0.8v4.437C720.729,2670.821,720.37,2671.179,719.929,2671.179"/>
		<path fill="#386DA6" d="M726.688,2671.179h-3.617c-0.442,0-0.8-0.357-0.8-0.799v-4.437c0-0.44,0.357-0.8,0.8-0.8h3.617
			c0.44,0,0.8,0.359,0.8,0.8v4.437C727.488,2670.821,727.129,2671.179,726.688,2671.179"/>
		<path fill="#386DA6" d="M733.447,2671.179h-3.617c-0.441,0-0.8-0.357-0.8-0.799v-4.437c0-0.44,0.358-0.8,0.8-0.8h3.617
			c0.442,0,0.8,0.359,0.8,0.8v4.437C734.247,2670.821,733.89,2671.179,733.447,2671.179"/>
		<path fill="#386DA6" d="M740.207,2671.179h-3.617c-0.441,0-0.8-0.357-0.8-0.799v-4.437c0-0.44,0.358-0.8,0.8-0.8h3.617
			c0.442,0,0.8,0.359,0.8,0.8v4.437C741.007,2670.821,740.649,2671.179,740.207,2671.179"/>
		<path fill="#DFCE53" d="M721.877,2645.252h6.445c0.186,0,0.292,0.211,0.181,0.359l-5.815,7.84c-0.111,0.149-0.004,0.36,0.181,0.36
			h5.38c0.197,0,0.299,0.236,0.164,0.38l-12.581,13.331c-0.176,0.186-0.477-0.018-0.369-0.25l4.323-9.273
			c0.07-0.15-0.039-0.321-0.204-0.321h-5.847c-0.182,0-0.289-0.203-0.188-0.353l8.144-11.975
			C721.733,2645.289,721.802,2645.252,721.877,2645.252"/>
	</g>
</g>
<path fill="#FFFFFF" d="M95.6,0.914c-0.113,0-0.223,0.006-0.334,0.008V0.914H17.059C8.086,0.92,0.814,8.126,0.814,17.013
	c0,8.888,7.271,16.091,16.244,16.097v0.045h78.207v-0.053c0.111,0.002,0.221,0.008,0.334,0.008c8.98,0,16.258-7.207,16.258-16.098
	S104.58,0.914,95.6,0.914"/>
<path fill="#366497" d="M29.26,17.034c0,6.356-5.15,11.507-11.506,11.507c-6.354,0-11.506-5.15-11.506-11.507
	c0-6.354,5.151-11.506,11.506-11.506C24.109,5.528,29.26,10.68,29.26,17.034"/>
<text transform="matrix(1 0 0 1 11.7021 21.5098)" fill="#FFFFFF" font-family="'MicrosoftJhengHeiBold'" font-size="12.0067">日</text>
<text transform="matrix(1 0 0 1 37.4199 21.5098)" fill="#366497" font-family="'MicrosoftJhengHeiBold'" font-size="12.0067">週</text>
<text transform="matrix(1 0 0 1 88.8574 21.5098)" fill="#366497" font-family="'MicrosoftJhengHeiBold'" font-size="12.0067">年</text>
<text transform="matrix(1 0 0 1 63.1387 21.5098)" fill="#366497" font-family="'MicrosoftJhengHeiBold'" font-size="12.0067">月</text>
</svg>
