<?xml version="1.0" encoding="utf-8"?>
<!-- Generator: Adobe Illustrator 23.0.2, SVG Export Plug-In . SVG Version: 6.00 Build 0)  -->
<svg version="1.1" id="圖層_1" xmlns="http://www.w3.org/2000/svg" xmlns:xlink="http://www.w3.org/1999/xlink" x="0px" y="0px"
	 viewBox="0 0 408.3 356.3" style="enable-background:new 0 0 408.3 356.3;" xml:space="preserve">
<style type="text/css">
	.st0{fill:#FFFFFF;}
	.st1{fill:#231815;stroke:#231815;stroke-width:1.5061;stroke-miterlimit:10;}
	.st2{fill:#2D3457;}
	.st3{fill:#246F9C;stroke:#246F9C;stroke-width:0.1851;stroke-miterlimit:10;}
</style>
<title>db</title>
<path class="st0" d="M33,0H301c18.2,0,33,14.8,33,33v225.5c0,18.2-14.8,33-33,33H33c-18.2,0-33-14.8-33-33V33C0,14.8,14.8,0,33,0z"
	/>
<path class="st1" d="M315,42.5H17.6c-1.5,0-2.6-0.2-2.6-0.3l0,0c0-0.2,1.2-0.3,2.6-0.3H315c1.5,0,2.6,0.2,2.6,0.3l0,0
	C317.6,42.4,316.4,42.5,315,42.5z"/>
<path class="st2" d="M33.8,215.1H26v2.9c2.3,1.1,4.5,2.5,6.5,4.1l-1,1.4c-1.7-1.4-3.6-2.7-5.5-3.7v9h-1.7v-13.7h-6.2v-1.6h15.8
	V215.1z"/>
<path class="st2" d="M44.2,223.5h-5.9v-1.6h5.9V223.5z M43.8,217h-5v-1.6h5V217z M54.3,227.7l-1,1.4c-2.4-1.3-4.2-3.4-5.3-5.9
	c-1.1,2.6-3.1,4.7-5.6,5.8l-1.1-1.2c2.3-1.3,3.9-2.5,4.7-3.8c0.9-1.5,1.3-3.3,1.2-5c0-0.4,0-0.7,0-1.1h1.6c0,0.3,0,0.6,0,0.9
	c0,1.3,0.2,2.5,0.6,3.7c0.5,1.1,1.2,2.1,2.1,3C52.2,226.4,53.2,227.1,54.3,227.7L54.3,227.7z M53.9,215.5c-0.3,2.2-1.1,4.4-2.2,6.3
	l-1.4-0.7c0.8-1.2,1.3-2.6,1.6-4h-5.7c-0.6,1.3-1.4,2.5-2.3,3.6l-1.2-1c1.6-2,2.8-4.3,3.4-6.7l1.6,0.3c-0.2,0.7-0.5,1.4-0.8,2.2
	L53.9,215.5z"/>
<path class="st2" d="M64.7,217.6h-2.1v2.6c0.2-0.1,0.7-0.3,1.4-0.7l0.2,1.7c-0.8,0.4-1.3,0.6-1.5,0.7v5.3c0.1,0.8-0.5,1.6-1.4,1.7
	c-0.1,0-0.3,0-0.4,0c-0.5,0-1,0-1.5-0.1l-0.4-1.5h1.6c0.3,0,0.5-0.1,0.5-0.4v-4.4c-0.7,0.3-1.3,0.6-2,0.8l-0.4-1.6
	c0.8-0.3,1.6-0.6,2.5-1v-3.2h-2.3V216H61v-2.9h1.5v2.9h2.1L64.7,217.6z M74.2,221.6c-0.6,1.7-1.7,3.3-3.1,4.5
	c-1.8,1.5-4,2.4-6.3,2.8l-0.8-1.4c2-0.3,3.9-1.1,5.6-2.2c1.4-1.1,2.5-2.7,3.1-4.4L74.2,221.6z M67.9,215.4c-0.4,2.2-1,4.3-2,6.3
	l-1.4-0.8c0.8-1.9,1.4-3.9,1.8-5.9L67.9,215.4z M70.2,223.5h-1.6v-10.3h1.6V223.5z M74.6,219.9l-1.5,0.7c-0.6-1.8-1.3-3.5-2.2-5.1
	l1.5-0.6C73.2,216.4,74,218.1,74.6,219.9L74.6,219.9z"/>
<path class="st2" d="M94.7,219.9v1.6h-8c-0.5,0.6-1,1.2-1.6,1.7v3.8c1.2-0.2,2.4-0.5,3.6-0.8v1.7c-1.7,0.5-3.4,0.9-5.2,1.2l-0.5-1.5
	c0.3-0.2,0.5-0.6,0.5-1v-2.1c-1.2,0.8-2.5,1.5-3.9,2l-0.8-1.6c2.2-0.6,4.2-1.8,5.8-3.4h-5.6V220H86v-1.3h-5.9v-1.5H86v-1.3h-6.7
	v-1.5H86v-1.2h1.7v1.2h6.6v1.5h-6.6v1.3h5.8v1.5h-5.8v1.3L94.7,219.9z M94.9,227.5l-0.9,1.5c-1.6-0.5-3.2-1.4-4.4-2.5
	c-1.2-1.2-2-2.7-2.5-4.2l1.7-0.2c0.3,0.8,0.7,1.6,1.2,2.3c1-0.6,1.9-1.4,2.7-2.3l1.5,0.9c-0.9,1-1.9,1.9-3.1,2.6
	C92.2,226.6,93.5,227.2,94.9,227.5L94.9,227.5z"/>
<path class="st2" d="M113.1,228.9h-1.7v-1.2h-8.6v1.2h-1.7v-15.3h12L113.1,228.9z M111.4,219.6v-4.5h-8.6v4.5H111.4z M111.4,226.1
	v-4.9h-8.6v4.9H111.4z"/>
<path class="st2" d="M33.5,62.7h-1.5v-2.9h-5.4v3.5H25v-3.5h-5.1v2.9h-1.5v-4.2H25v-0.7h-6v-1.3h13.7v1.4h-6.2v0.7h7L33.5,62.7z
	 M33.8,70c-0.1,0.5-0.2,0.9-0.5,1.3c-0.2,0.3-0.4,0.5-0.7,0.6C31.5,72,30.4,72,29.3,72c-1.6,0-2.6,0-3.1-0.1c-0.4,0-0.7-0.2-1-0.5
	c-0.2-0.3-0.3-0.7-0.3-1.1v-1h-5.8v-5.5h13.1v5.5h-5.7v0.5c0,0.2,0.1,0.4,0.3,0.5c1.1,0.1,2.1,0.1,3.2,0.1c0.8,0,1.3,0,1.5,0
	c0.2,0,0.3-0.1,0.4-0.2c0.1-0.2,0.2-0.4,0.1-0.6L33.8,70z M24.6,62.8c-1.3,0.2-2.6,0.4-3.9,0.4l-0.3-1.1c1.3,0,2.6-0.1,3.9-0.3
	L24.6,62.8z M24.5,60.5l-0.3,1c-1.2-0.2-2.5-0.3-3.7-0.3l0.3-1C22,60.2,23.3,60.3,24.5,60.5L24.5,60.5z M25,65.9v-1h-4.3v1H25z
	 M25,68.1v-1h-4.3v1H25z M30.8,65.9v-1h-4.2v1H30.8z M30.8,68.1v-1h-4.2v1H30.8z M31.5,61c-1.3,0.2-2.7,0.3-4,0.4l-0.4-1
	c1.3,0,2.6-0.1,3.8-0.3L31.5,61z M31.3,62.3l-0.2,1c-1.3-0.2-2.7-0.4-4-0.4l0.4-1C28.7,61.9,30,62,31.3,62.3z"/>
<path class="st2" d="M54.1,63v1.6h-8c-0.5,0.6-1,1.2-1.6,1.7v3.8c1.2-0.2,2.4-0.5,3.6-0.8v1.7c-1.7,0.5-3.4,0.9-5.2,1.2l-0.5-1.5
	c0.3-0.2,0.5-0.6,0.5-1v-2.1c-1.2,0.8-2.6,1.5-4,2L38.1,68c2.2-0.6,4.2-1.8,5.8-3.4h-5.5V63h7.1v-1.3h-5.9v-1.5h5.9V59h-6.7v-1.5
	h6.7v-1.2h1.7v1.2h6.6V59h-6.6v1.3h5.8v1.5h-5.8V63H54.1z M54.3,70.6l-0.9,1.5c-1.7-0.5-3.2-1.4-4.4-2.5c-1.2-1.2-2-2.6-2.5-4.2
	l1.6-0.2c0.3,0.8,0.7,1.6,1.2,2.3c1-0.6,1.9-1.4,2.7-2.3l1.5,0.9c-0.9,1-1.9,1.9-3.1,2.6C51.6,69.7,52.9,70.3,54.3,70.6L54.3,70.6z"
	/>
<path class="st2" d="M74.4,63v1.6h-8c-0.5,0.6-1,1.2-1.6,1.7v3.8c1.2-0.2,2.4-0.5,3.6-0.8v1.7c-1.7,0.5-3.4,0.9-5.2,1.2l-0.5-1.5
	c0.3-0.2,0.5-0.6,0.5-1v-2.1c-1.2,0.8-2.5,1.5-3.9,2L58.4,68c2.2-0.6,4.2-1.8,5.8-3.4h-5.6V63h7.1v-1.3h-5.9v-1.5h5.9V59H59v-1.5
	h6.7v-1.2h1.7v1.2H74V59h-6.6v1.3h5.8v1.5h-5.8V63H74.4z M74.6,70.6l-0.9,1.5c-1.6-0.5-3.2-1.4-4.4-2.6c-1.2-1.2-2-2.6-2.5-4.2
	l1.6-0.2c0.3,0.8,0.7,1.6,1.2,2.3c1-0.6,1.9-1.4,2.7-2.3l1.5,0.9c-0.9,1-1.9,1.9-3.1,2.6C71.9,69.6,73.2,70.3,74.6,70.6L74.6,70.6z"
	/>
<path class="st2" d="M85.3,64H82l-0.5,1.6h3.1c-0.1,1.7-0.2,3-0.3,3.8c0,0.6-0.1,1.1-0.4,1.7c-0.2,0.3-0.4,0.5-0.7,0.6
	c-0.4,0.2-0.9,0.3-1.3,0.3c-0.4,0-0.8,0-1.4-0.1L80,70.5h1.5c0.3,0,0.6,0,0.9-0.1c0.1-0.1,0.2-0.2,0.3-0.3c0.1-0.3,0.2-0.7,0.2-1
	c0.1-0.6,0.1-1.2,0.1-2h-3.4l0.8-3h-1.5v-1.5h6.4L85.3,64z M84.6,61.5h-5.1v-4.9h5.1V61.5z M83.1,60.1v-2H81v2L83.1,60.1z
	 M94.6,59.6c-0.1,1-0.3,1.9-0.7,2.8l-1.4-0.4c0.1-0.3,0.2-0.6,0.3-0.9h-2.2v1l1.7-0.1v1.3l-1.7,0.1v0.5c0,0.2,0.1,0.3,0.3,0.4
	c0,0,0.1,0,0.1,0h3.3v1.4h-4.1c-0.3,0-0.6-0.1-0.8-0.4C89.2,65,89,64.7,89,64.4v-1l-1.2,0.1v-1.3l1.2-0.1V61h-1.8v4.7
	c0.1,2.3-0.5,4.6-1.7,6.5l-1.2-1c1-1.9,1.5-4,1.4-6.1v-5.5h3v-3.4h1.6v0.9h3.5v1.4h-3.5v1L94.6,59.6z M89.8,66.2c0,0.4,0,0.8,0,1.1
	c0,1-0.1,2-0.5,2.9c-0.3,0.8-0.9,1.4-1.6,1.9L86.7,71c0.6-0.4,1-0.9,1.3-1.5c0.3-0.8,0.4-1.6,0.4-2.4c0-0.3,0-0.6,0-1L89.8,66.2z
	 M94.8,68.7c-0.1,1.5-0.2,2.4-0.6,2.7c-0.4,0.4-1,0.6-1.6,0.5c-1.2,0-1.8-0.4-1.8-1.2v-4.6h1.5V70c0,0.3,0.2,0.4,0.4,0.4
	c0.2,0,0.3-0.1,0.4-0.3c0.1-0.7,0.2-1.4,0.2-2.1L94.8,68.7z"/>
<path class="st2" d="M33.5,94.1h-1.5v-2.9h-5.4v3.5H25v-3.5h-5.1v2.9h-1.5v-4.2H25v-0.7h-6v-1.4h13.7v1.4h-6.2v0.7h7L33.5,94.1z
	 M33.8,101.3c-0.1,0.5-0.2,0.9-0.5,1.3c-0.2,0.3-0.4,0.5-0.7,0.6c-1.1,0.1-2.2,0.1-3.3,0.1c-1.6,0-2.6,0-3.1-0.1
	c-0.4,0-0.7-0.2-1-0.5c-0.2-0.3-0.3-0.7-0.3-1.1v-1h-5.8v-5.5h13.1v5.5h-5.7v0.5c0,0.2,0.1,0.4,0.3,0.5c1.1,0.1,2.1,0.1,3.2,0.1
	c0.8,0,1.3,0,1.5,0c0.2,0,0.3-0.1,0.4-0.2c0.1-0.2,0.2-0.4,0.1-0.6L33.8,101.3z M24.6,94.2c-1.3,0.2-2.6,0.4-3.9,0.4l-0.3-1.1
	c1.3,0,2.6-0.1,3.9-0.3L24.6,94.2z M24.5,91.9l-0.3,1c-1.2-0.2-2.5-0.3-3.7-0.3l0.3-1C22.1,91.6,23.3,91.7,24.5,91.9L24.5,91.9z
	 M25,97.3v-1h-4.3v1H25z M25,99.5v-1.1h-4.3v1L25,99.5z M30.8,97.3v-1h-4.2v1H30.8z M30.8,99.5v-1.1h-4.2v1L30.8,99.5z M31.5,92.5
	c-1.3,0.2-2.7,0.3-4,0.4l-0.4-1c1.3,0,2.6-0.2,3.8-0.3L31.5,92.5z M31.4,93.7l-0.2,1c-1.3-0.2-2.7-0.4-4-0.4l0.4-1
	C28.8,93.3,30,93.5,31.4,93.7L31.4,93.7z"/>
<path class="st2" d="M54.1,94.4V96h-8c-0.5,0.6-1,1.2-1.6,1.7v3.8c1.2-0.2,2.4-0.5,3.6-0.8v1.7c-1.7,0.5-3.4,0.9-5.2,1.2l-0.5-1.5
	c0.3-0.2,0.5-0.6,0.5-1V99c-1.2,0.8-2.6,1.5-4,2l-0.8-1.6c2.2-0.6,4.2-1.8,5.8-3.4h-5.5v-1.6h7.1v-1.3h-5.9v-1.5h5.9v-1.3h-6.7v-1.5
	h6.7v-1.2h1.7v1.2h6.6v1.5h-6.6v1.3h5.8v1.5h-5.8v1.3H54.1z M54.3,102l-0.9,1.5c-1.7-0.5-3.2-1.4-4.4-2.5c-1.2-1.2-2-2.6-2.5-4.2
	l1.6-0.2c0.3,0.8,0.7,1.6,1.2,2.3c1-0.6,1.9-1.4,2.7-2.3l1.5,0.9c-0.9,1-1.9,1.9-3.1,2.6C51.6,101,52.9,101.7,54.3,102L54.3,102z"/>
<path class="st2" d="M74.4,94.4V96h-8c-0.5,0.6-1,1.2-1.6,1.7v3.8c1.2-0.2,2.4-0.5,3.6-0.8v1.7c-1.7,0.5-3.4,0.9-5.2,1.2l-0.5-1.5
	c0.3-0.2,0.5-0.6,0.5-1V99c-1.2,0.8-2.5,1.5-3.9,2l-0.8-1.6c2.2-0.6,4.2-1.8,5.8-3.4h-5.6v-1.6h7.1v-1.3h-5.9v-1.5h5.9v-1.3H59v-1.5
	h6.7v-1.2h1.7v1.2H74v1.5h-6.6v1.3h5.8v1.5h-5.8v1.3H74.4z M74.6,102l-0.9,1.5c-1.6-0.5-3.2-1.4-4.4-2.6c-1.2-1.2-2-2.6-2.5-4.2
	l1.6-0.2c0.3,0.8,0.7,1.6,1.2,2.3c1-0.6,1.9-1.4,2.7-2.3l1.5,0.9c-0.9,1-1.9,1.9-3.1,2.6C71.9,101,73.2,101.7,74.6,102L74.6,102z"/>
<path class="st2" d="M87.9,95.8c-0.1,3.7-0.3,5.8-0.7,6.5c-0.5,0.7-1.3,1.1-2.2,1c-0.5,0-1,0-1.5,0l-0.5-1.5l2,0.1
	c0.5,0,0.8-0.3,0.8-0.8c0.2-1.2,0.3-2.4,0.3-3.6h-3.4c-0.4,2.7-1.3,4.7-2.7,6.1l-1.2-1.1c1.8-1.8,2.7-4.7,2.7-8.6h-1.6v-6h7.9v6
	h-4.7c0,0.8-0.1,1.4-0.1,2L87.9,95.8z M86.2,92.3v-2.9h-4.5v2.9H86.2z M90.9,100.1h-1.6V88.8h1.6L90.9,100.1z M94.3,101.2
	c0.1,0.6-0.1,1.2-0.5,1.7c-0.4,0.3-0.9,0.5-1.5,0.5h-1.9l-0.5-1.6c0.6,0,1.3,0.1,2.2,0.1c0.2,0,0.3-0.1,0.4-0.2
	c0.1-0.1,0.2-0.3,0.2-0.4V87.6h1.6V101.2z"/>
<path class="st2" d="M197.4,64.5c0-2.4,0.4-4.2,1.2-5.5c0.8-1.2,2.1-1.9,3.6-1.9c3,0,4.5,2.3,4.5,7c0.1,1.8-0.3,3.7-1.2,5.3
	c-0.8,1.2-2.1,1.9-3.5,1.9c-1.4,0.1-2.6-0.6-3.4-1.8C197.7,68,197.3,66.2,197.4,64.5z M199.5,64.4c0,3.5,0.8,5.2,2.5,5.2
	s2.5-1.8,2.5-5.3c0-3.6-0.8-5.5-2.4-5.5C200.5,58.8,199.5,60.7,199.5,64.4z"/>
<path class="st2" d="M213.4,63.9c-1.6-0.7-2.4-1.8-2.4-3.2c0-1,0.4-1.9,1.2-2.5c0.9-0.6,1.9-1,3-1c1,0,2,0.3,2.8,0.9
	c0.7,0.6,1.2,1.5,1.1,2.4c0,1.5-0.9,2.7-2.6,3.4l0,0c2,0.7,3,1.9,3,3.6c0.1,1.1-0.4,2.1-1.3,2.8c-1,0.7-2.2,1.1-3.4,1
	c-1.1,0-2.2-0.3-3-1c-0.8-0.6-1.2-1.6-1.2-2.6C210.5,66,211.5,64.7,213.4,63.9L213.4,63.9z M214.9,64.8c-1.6,0.6-2.4,1.6-2.4,2.8
	c0,0.6,0.2,1.2,0.7,1.5c0.5,0.4,1.2,0.6,1.8,0.6c0.6,0,1.3-0.2,1.8-0.6c0.5-0.4,0.7-0.9,0.7-1.5C217.5,66.3,216.6,65.4,214.9,64.8
	L214.9,64.8z M217,60.6c0-0.5-0.2-1-0.5-1.4c-0.4-0.4-0.9-0.5-1.4-0.5c-0.5,0-1.1,0.2-1.5,0.5c-0.4,0.3-0.6,0.8-0.6,1.3
	c0,1.1,0.7,1.9,2,2.4C216.4,62.5,217,61.7,217,60.6L217,60.6z"/>
<path class="st2" d="M232,71.1h-8.5v-1.7l4-3.9c0.7-0.7,1.4-1.4,2-2.2c0.4-0.6,0.6-1.3,0.6-2.1c0-1.5-0.8-2.3-2.4-2.3
	c-1.3,0-2.5,0.6-3.5,1.5v-2c1.1-0.8,2.5-1.2,3.8-1.2c1.1-0.1,2.2,0.3,3,1c0.8,0.7,1.2,1.7,1.1,2.7c0,0.9-0.3,1.8-0.7,2.5
	c-0.7,1.1-1.5,2.1-2.5,2.9l-3,2.9l0,0h6.1L232,71.1z"/>
<path class="st2" d="M236.8,68.6c0.9,0.7,2,1.1,3.2,1.1c0.8,0,1.5-0.2,2.1-0.6c0.5-0.4,0.8-1.1,0.8-1.7c0-1.6-1.2-2.4-3.5-2.4h-1.2
	v-1.7h1.1c2.1,0,3.1-0.8,3.1-2.3c0-1.4-0.8-2.1-2.4-2.1c-1,0-1.9,0.4-2.7,1v-1.9c1-0.5,2.1-0.8,3.2-0.8c1,0,2.1,0.3,2.9,0.9
	c0.7,0.6,1.2,1.5,1.1,2.4c0.1,1.7-1.1,3.2-2.7,3.5l0,0c0.9,0,1.7,0.4,2.4,1c0.6,0.6,0.9,1.4,0.8,2.2c0,1.2-0.5,2.3-1.4,3
	c-1,0.8-2.3,1.2-3.6,1.1c-1.1,0.1-2.2-0.2-3.2-0.7L236.8,68.6z"/>
<path class="st2" d="M257.7,59.4c-0.7-0.4-1.5-0.6-2.2-0.6c-1.1,0-2.2,0.5-2.8,1.5c-0.7,1.2-1.1,2.5-1,3.9h0c0.6-1.1,1.8-1.8,3-1.8
	c1.1,0,2.1,0.4,2.8,1.2c0.7,0.9,1.1,1.9,1,3.1c0,1.2-0.4,2.4-1.3,3.3c-0.8,0.9-2,1.4-3.2,1.3c-1.4,0.1-2.6-0.6-3.4-1.7
	c-0.9-1.4-1.3-3-1.2-4.6c-0.1-2,0.4-4,1.5-5.7c1-1.4,2.6-2.3,4.3-2.2c0.8,0,1.6,0.1,2.3,0.4L257.7,59.4z M251.7,66.6
	c0,0.8,0.2,1.5,0.7,2.2c0.4,0.6,1.1,0.9,1.8,0.9c0.7,0,1.3-0.3,1.7-0.8c0.8-1.2,0.8-2.8,0-4c-0.4-0.5-1.1-0.8-1.8-0.7
	c-0.6,0-1.2,0.3-1.7,0.7C251.9,65.3,251.7,65.9,251.7,66.6L251.7,66.6z"/>
<path class="st2" d="M263,68.7c0.9,0.6,1.9,0.9,2.9,0.9c0.8,0,1.6-0.2,2.2-0.7c0.6-0.5,0.9-1.2,0.8-2c0-1.7-1.1-2.5-3.3-2.5
	c-0.5,0-1.3,0-2.2,0.1v-7.2h6.9v1.8h-5v3.6c0.5,0,0.9-0.1,1.2-0.1c1.2-0.1,2.4,0.3,3.4,1.1c0.8,0.8,1.3,1.9,1.2,3
	c0.1,1.2-0.4,2.4-1.4,3.3c-1,0.9-2.3,1.3-3.6,1.2c-1,0.1-2.1-0.1-3-0.6L263,68.7z"/>
<path class="st2" d="M275.2,64.5c0-2.4,0.4-4.2,1.2-5.5c0.8-1.2,2.1-1.9,3.6-1.9c3,0,4.5,2.3,4.5,7c0.1,1.8-0.3,3.7-1.2,5.3
	c-0.8,1.2-2.1,1.9-3.5,1.9c-1.4,0.1-2.6-0.6-3.4-1.8C275.5,68,275.1,66.2,275.2,64.5z M277.3,64.4c0,3.5,0.8,5.2,2.5,5.2
	c1.7,0,2.5-1.8,2.5-5.3c0-3.6-0.8-5.5-2.4-5.5S277.3,60.7,277.3,64.4z"/>
<path class="st2" d="M296.5,59.4c-0.7-0.4-1.5-0.6-2.2-0.6c-1.1,0-2.2,0.5-2.8,1.5c-0.7,1.2-1.1,2.5-1,3.9l0,0
	c0.6-1.1,1.8-1.8,3-1.8c1.1-0.1,2.1,0.4,2.8,1.2c0.7,0.9,1.1,1.9,1,3.1c0,1.2-0.4,2.4-1.3,3.3c-0.8,0.9-2,1.4-3.2,1.3
	c-1.4,0.1-2.6-0.6-3.4-1.7c-0.9-1.4-1.3-3-1.2-4.6c-0.1-2,0.4-4,1.5-5.7c1-1.4,2.6-2.3,4.3-2.2c0.8,0,1.6,0.1,2.3,0.4L296.5,59.4z
	 M290.6,66.6c0,0.8,0.2,1.5,0.7,2.2c0.4,0.6,1,0.9,1.7,0.9c0.7,0,1.3-0.3,1.7-0.8c0.8-1.2,0.8-2.8,0-4c-0.4-0.5-1.1-0.8-1.8-0.7
	c-0.6,0-1.2,0.3-1.7,0.7C290.8,65.3,290.6,65.9,290.6,66.6z"/>
<path class="st2" d="M310.1,71.1H302v-1.7h3v-9.9l-3.1,0.8v-1.8l5.1-1.3v12.2h3V71.1z"/>
<path class="st2" d="M258.2,196.6h-8.1v-1.7h3V185l-3.1,0.8V184l5.1-1.4v12.2h3V196.6z"/>
<path class="st2" d="M271.6,193.2h-1.7v3.4h-2v-3.4h-6.3v-1.3l6-9h2.3v8.7h1.7V193.2z M267.9,191.6v-5.4c0-0.4,0-0.8,0-1.4l0,0
	c-0.2,0.4-0.3,0.7-0.5,1.1l-3.8,5.7H267.9z"/>
<path class="st2" d="M275.7,194.1c0.9,0.7,2,1.1,3.2,1.1c0.8,0,1.5-0.2,2.1-0.6c0.5-0.4,0.8-1.1,0.8-1.7c0-1.6-1.2-2.4-3.5-2.4h-1.2
	v-1.7h1.1c2.1,0,3.1-0.8,3.1-2.3c0-1.5-0.8-2.1-2.4-2.1c-1,0-1.9,0.3-2.7,1v-1.9c1-0.5,2.1-0.8,3.2-0.8c1,0,2.1,0.3,2.9,0.9
	c0.7,0.6,1.2,1.5,1.1,2.4c0.1,1.7-1.1,3.2-2.7,3.4l0,0c0.9,0.1,1.7,0.4,2.3,1c0.6,0.6,0.9,1.4,0.8,2.2c0,1.2-0.5,2.3-1.4,3
	c-1,0.8-2.3,1.2-3.6,1.1c-1.1,0.1-2.2-0.2-3.2-0.7L275.7,194.1z"/>
<path class="st2" d="M297.1,196.6H289v-1.7h3V185l-3.1,0.8V184l5.1-1.4v12.2h3L297.1,196.6z"/>
<path class="st2" d="M301.9,194.3c0.8,0.6,1.8,0.9,2.9,0.9c0.8,0,1.6-0.2,2.2-0.7c0.6-0.5,0.9-1.2,0.8-2c0-1.7-1.1-2.5-3.3-2.6
	c-0.5,0-1.3,0.1-2.2,0.1v-7.2h6.9v1.8h-5v3.6c0.5,0,0.9,0,1.2,0c1.2-0.1,2.4,0.3,3.4,1.1c0.8,0.8,1.3,1.9,1.2,3
	c0.1,1.2-0.4,2.4-1.4,3.3c-1,0.9-2.3,1.3-3.6,1.2c-1,0.1-2.1-0.1-3-0.6L301.9,194.3z"/>
<path class="st2" d="M211.9,228h-8.1v-1.8h3v-9.9l-3.1,0.8v-1.8l5.1-1.4v12.2h3L211.9,228z"/>
<path class="st2" d="M215.9,221.4c-0.1-1.9,0.3-3.8,1.2-5.5c0.8-1.2,2.1-1.9,3.6-1.9c3,0,4.5,2.3,4.5,7c0.1,1.8-0.3,3.7-1.2,5.3
	c-0.8,1.2-2.1,1.9-3.5,1.9c-1.4,0.1-2.6-0.6-3.4-1.8C216.2,224.9,215.8,223.2,215.9,221.4z M218.1,221.3c0,3.5,0.8,5.2,2.5,5.2
	c1.7,0,2.5-1.8,2.5-5.3s-0.8-5.5-2.4-5.5S218.1,217.6,218.1,221.3L218.1,221.3z"/>
<path class="st2" d="M229.7,225.9c0.8,0.4,1.6,0.7,2.5,0.7c1.1,0.1,2.1-0.5,2.8-1.4c0.7-1.1,1-2.5,1-3.8h0c-0.6,1.1-1.7,1.7-2.9,1.6
	c-1.1,0-2.1-0.4-2.9-1.2c-0.7-0.8-1.1-1.9-1.1-3c-0.1-1.2,0.4-2.5,1.3-3.4c0.9-0.9,2.1-1.4,3.3-1.3c1.3,0,2.6,0.6,3.3,1.7
	c0.9,1.4,1.3,3,1.2,4.7c0.1,2-0.4,4-1.5,5.8c-1,1.4-2.5,2.2-4.2,2.1c-0.9,0-1.8-0.1-2.6-0.5L229.7,225.9z M231.1,218.5
	c0,0.7,0.2,1.5,0.6,2c0.5,0.5,1.1,0.8,1.8,0.8c0.6,0,1.2-0.2,1.7-0.7c0.4-0.4,0.7-1.1,0.7-1.7c0-0.8-0.2-1.6-0.7-2.2
	c-0.7-1-2.1-1.2-3-0.5c-0.2,0.1-0.3,0.2-0.4,0.4C231.3,217.1,231,217.8,231.1,218.5z"/>
<path class="st2" d="M249.2,214.3l-6.6,16h-1.9l6.6-16L249.2,214.3z"/>
<path class="st2" d="M261,228H253v-1.8h3v-9.9l-3.1,0.8v-1.8l5.1-1.4v12.2h3V228z"/>
<path class="st2" d="M273.7,228h-8.5v-1.8l4-3.9c0.7-0.7,1.4-1.4,2-2.2c0.4-0.6,0.6-1.3,0.6-2.1c0-1.5-0.8-2.3-2.4-2.3
	c-1.3,0-2.5,0.6-3.5,1.5v-2c1.1-0.8,2.5-1.2,3.8-1.2c1.1-0.1,2.2,0.3,3,1c0.8,0.7,1.2,1.7,1.1,2.7c0,0.9-0.3,1.8-0.7,2.5
	c-0.7,1.1-1.5,2.1-2.5,2.9l-3,2.9v0h6.1L273.7,228z"/>
<path class="st2" d="M285.4,214.3l-6.6,16h-1.9l6.6-16L285.4,214.3z"/>
<path class="st2" d="M297.1,228H289v-1.8h3v-9.9l-3.1,0.8v-1.8l5.1-1.4v12.2h3L297.1,228z"/>
<path class="st2" d="M309.5,216.3c-0.7-0.4-1.5-0.6-2.2-0.6c-1.1,0-2.2,0.5-2.8,1.5c-0.7,1.2-1.1,2.5-1,3.9h0c0.6-1.1,1.8-1.8,3-1.8
	c1.1,0,2.1,0.4,2.8,1.2c0.7,0.9,1.1,1.9,1,3.1c0,1.2-0.4,2.4-1.3,3.3c-0.8,0.9-2,1.4-3.2,1.3c-1.3,0.1-2.6-0.6-3.4-1.7
	c-0.9-1.4-1.3-3-1.2-4.6c-0.1-2,0.4-4,1.5-5.7c0.9-1.4,2.6-2.3,4.3-2.2c0.8,0,1.6,0.1,2.3,0.4L309.5,216.3z M303.6,223.5
	c0,0.8,0.2,1.5,0.7,2.2c0.4,0.6,1.1,0.9,1.8,0.9c0.7,0,1.3-0.3,1.7-0.8c0.4-0.6,0.7-1.3,0.6-2c0-0.7-0.2-1.5-0.6-2.1
	c-0.4-0.5-1.1-0.8-1.8-0.7c-0.6,0-1.2,0.3-1.7,0.7C303.8,222.2,303.5,222.8,303.6,223.5L303.6,223.5z"/>
<path class="st2" d="M288.2,95.9c0-2.4,0.4-4.2,1.2-5.5c0.8-1.2,2.1-1.9,3.6-1.9c3,0,4.5,2.3,4.5,7c0.1,1.8-0.3,3.7-1.2,5.3
	c-0.8,1.2-2.1,1.9-3.5,1.9c-1.4,0.1-2.6-0.6-3.4-1.8C288.4,99.4,288,97.6,288.2,95.9z M290.3,95.8c0,3.5,0.8,5.2,2.5,5.2
	s2.5-1.8,2.5-5.3c0-3.7-0.8-5.5-2.4-5.5C291.1,90.2,290.3,92.1,290.3,95.8z"/>
<path class="st2" d="M310.1,102.5H302v-1.7h3v-9.9l-3.1,0.8v-1.8l5.1-1.3v12.2h3V102.5z"/>
<path class="st2" d="M258.2,165.2h-8.1v-1.7h3v-9.9l-3.1,0.8v-1.8l5.1-1.4v12.2h3V165.2z"/>
<path class="st2" d="M262.8,162.7c0.9,0.7,2,1.1,3.2,1.1c0.8,0,1.5-0.2,2.1-0.6c0.5-0.4,0.8-1.1,0.8-1.7c0-1.6-1.2-2.4-3.5-2.4h-1.2
	v-1.7h1.1c2.1,0,3.1-0.8,3.1-2.3c0-1.5-0.8-2.1-2.4-2.1c-1,0-1.9,0.4-2.7,1v-1.9c1-0.5,2.1-0.8,3.2-0.8c1,0,2.1,0.3,2.9,0.9
	c0.7,0.6,1.2,1.5,1.1,2.4c0.1,1.7-1.1,3.2-2.7,3.4l0,0c0.9,0.1,1.7,0.4,2.3,1c0.6,0.6,0.9,1.4,0.8,2.2c0,1.2-0.5,2.3-1.4,3
	c-1,0.8-2.3,1.2-3.6,1.1c-1.1,0-2.2-0.2-3.2-0.7L262.8,162.7z"/>
<path class="st2" d="M278.2,158c-1.6-0.7-2.4-1.8-2.4-3.3c0-1,0.4-1.9,1.2-2.5c0.9-0.7,1.9-1,3-1c1,0,2,0.3,2.8,0.9
	c0.7,0.6,1.2,1.4,1.1,2.4c0,1.5-0.8,2.7-2.5,3.4l0,0c2,0.7,3,1.9,3,3.6c0.1,1.1-0.4,2.1-1.3,2.8c-1,0.7-2.2,1.1-3.5,1
	c-1.1,0-2.2-0.3-3-1c-0.8-0.6-1.2-1.6-1.2-2.6C275.4,160.1,276.3,158.8,278.2,158L278.2,158z M279.7,159c-1.6,0.6-2.4,1.5-2.4,2.8
	c0,0.6,0.2,1.2,0.7,1.5c0.5,0.4,1.2,0.6,1.8,0.6c0.6,0,1.3-0.2,1.8-0.6c0.5-0.4,0.7-0.9,0.7-1.5C282.3,160.5,281.4,159.6,279.7,159
	L279.7,159z M281.9,154.7c0-0.5-0.2-1-0.5-1.4c-0.4-0.3-0.9-0.5-1.4-0.5c-0.5,0-1.1,0.2-1.5,0.5c-0.4,0.3-0.6,0.9-0.6,1.4
	c0,1.1,0.7,1.9,2,2.4C281.2,156.6,281.9,155.8,281.9,154.7L281.9,154.7z"/>
<path class="st2" d="M291.2,158c-1.6-0.7-2.4-1.8-2.4-3.3c0-1,0.4-1.9,1.2-2.5c0.9-0.7,1.9-1,3-1c1,0,2,0.3,2.8,0.9
	c0.7,0.6,1.2,1.4,1.1,2.4c0,1.5-0.9,2.7-2.6,3.4l0,0c2,0.7,3,1.9,3,3.6c0.1,1.1-0.4,2.1-1.3,2.8c-1,0.7-2.2,1.1-3.5,1
	c-1.1,0-2.2-0.3-3-1c-0.8-0.6-1.2-1.6-1.2-2.6C288.3,160.1,289.2,158.8,291.2,158L291.2,158z M292.7,159c-1.6,0.6-2.4,1.5-2.4,2.8
	c0,0.6,0.2,1.2,0.7,1.5c0.5,0.4,1.2,0.6,1.8,0.6c0.6,0,1.3-0.2,1.8-0.6c0.5-0.4,0.7-0.9,0.7-1.5C295.3,160.5,294.4,159.6,292.7,159
	L292.7,159z M294.8,154.7c0-0.5-0.2-1-0.5-1.4c-0.4-0.3-0.9-0.5-1.4-0.5c-0.5,0-1.1,0.2-1.5,0.5c-0.4,0.3-0.6,0.8-0.6,1.3
	c0,1.1,0.7,1.9,2,2.4C294.2,156.6,294.8,155.8,294.8,154.7L294.8,154.7z"/>
<path class="st2" d="M301.7,162.7c0.9,0.7,2,1.1,3.2,1.1c0.8,0,1.5-0.2,2.1-0.6c0.5-0.4,0.8-1.1,0.8-1.7c0-1.6-1.2-2.4-3.5-2.4H303
	v-1.7h1.1c2.1,0,3.1-0.8,3.1-2.3c0-1.5-0.8-2.1-2.4-2.1c-1,0-1.9,0.4-2.7,1v-1.9c1-0.5,2.1-0.8,3.2-0.8c1,0,2.1,0.3,2.9,0.9
	c0.7,0.6,1.2,1.5,1.1,2.4c0.1,1.7-1.1,3.2-2.7,3.4l0,0c0.9,0.1,1.7,0.4,2.3,1c0.6,0.6,0.9,1.4,0.8,2.2c0,1.2-0.5,2.3-1.4,3
	c-1,0.8-2.3,1.2-3.6,1.1c-1.1,0.1-2.2-0.2-3.2-0.7L301.7,162.7z"/>
<path class="st2" d="M262.2,127.3c-0.1-1.9,0.3-3.8,1.2-5.5c0.8-1.2,2.1-1.9,3.6-1.9c3,0,4.5,2.3,4.5,7c0.1,1.8-0.3,3.7-1.2,5.3
	c-0.8,1.2-2.1,1.9-3.5,1.9c-1.4,0.1-2.6-0.6-3.4-1.8C262.5,130.8,262.1,129,262.2,127.3z M264.3,127.2c0,3.5,0.8,5.2,2.5,5.2
	c1.7,0,2.5-1.8,2.5-5.3c0-3.6-0.8-5.5-2.4-5.5S264.3,123.4,264.3,127.2L264.3,127.2z"/>
<path class="st2" d="M275.2,127.3c-0.1-1.9,0.3-3.8,1.2-5.5c0.8-1.2,2.1-1.9,3.6-1.9c3,0,4.5,2.3,4.5,7c0.1,1.8-0.3,3.7-1.2,5.3
	c-0.8,1.2-2.1,1.9-3.5,1.9c-1.4,0.1-2.6-0.6-3.4-1.8C275.5,130.8,275.1,129,275.2,127.3z M277.3,127.2c0,3.5,0.8,5.2,2.5,5.2
	c1.7,0,2.5-1.8,2.5-5.3c0-3.7-0.8-5.5-2.4-5.5C278.2,121.6,277.3,123.5,277.3,127.2L277.3,127.2z"/>
<path class="st2" d="M288.2,127.3c-0.1-1.9,0.3-3.8,1.2-5.5c0.8-1.2,2.1-1.9,3.6-1.9c3,0,4.5,2.3,4.5,7c0.1,1.8-0.3,3.7-1.2,5.3
	c-0.8,1.2-2.1,1.9-3.5,1.9c-1.4,0.1-2.6-0.6-3.4-1.8C288.4,130.8,288,129,288.2,127.3z M290.3,127.2c0,3.5,0.8,5.2,2.5,5.2
	s2.5-1.8,2.5-5.3c0-3.6-0.8-5.5-2.4-5.5S290.3,123.4,290.3,127.2L290.3,127.2z"/>
<path class="st2" d="M310.1,133.8H302v-1.7h3v-9.9l-3.1,0.8v-1.8l5.1-1.3v12.2h3V133.8z"/>
<path class="st2" d="M33.5,125.5h-1.5v-2.9h-5.4v3.5H25v-3.5h-5.1v2.9h-1.5v-4.2H25v-0.7h-6v-1.4h13.7v1.4h-6.2v0.7h7L33.5,125.5z
	 M33.8,132.7c-0.1,0.5-0.2,0.9-0.5,1.3c-0.2,0.3-0.4,0.5-0.7,0.6c-1.1,0.1-2.2,0.1-3.3,0.1c-1.6,0-2.6,0-3.1-0.1
	c-0.4,0-0.7-0.2-1-0.5c-0.2-0.3-0.3-0.7-0.3-1.1v-1h-5.8v-5.6h13.1v5.6h-5.7v0.6c0,0.2,0.1,0.4,0.3,0.5c1.1,0.1,2.1,0.1,3.2,0.1
	c0.8,0,1.3,0,1.5,0c0.2,0,0.3-0.1,0.4-0.2c0.1-0.2,0.2-0.4,0.1-0.6L33.8,132.7z M24.6,125.6c-1.3,0.2-2.6,0.4-3.9,0.4l-0.3-1.1
	c1.3,0,2.6-0.1,3.9-0.3L24.6,125.6z M24.5,123.2l-0.3,1c-1.2-0.2-2.5-0.3-3.7-0.3l0.3-1C22,123,23.3,123.1,24.5,123.2L24.5,123.2z
	 M25,128.7v-1h-4.3v1H25z M25,130.9v-1h-4.3v1H25z M30.8,128.7v-1h-4.2v1H30.8z M30.8,130.9v-1h-4.2v1H30.8z M31.5,123.8
	c-1.3,0.2-2.7,0.3-4,0.4l-0.4-1c1.3,0,2.6-0.1,3.8-0.3L31.5,123.8z M31.3,125.1l-0.2,1c-1.3-0.2-2.7-0.4-4-0.4l0.4-1
	C28.7,124.7,30,124.8,31.3,125.1L31.3,125.1z"/>
<path class="st2" d="M54.1,125.8v1.6h-8c-0.5,0.6-1,1.2-1.6,1.7v3.8c1.2-0.2,2.4-0.5,3.6-0.8v1.7c-1.7,0.5-3.4,0.9-5.2,1.2l-0.5-1.5
	c0.3-0.2,0.5-0.6,0.5-1v-2.1c-1.2,0.8-2.6,1.5-4,2l-0.8-1.6c2.2-0.6,4.2-1.8,5.8-3.4h-5.5v-1.6h7.1v-1.3h-5.9v-1.5h5.9v-1.3h-6.7
	v-1.5h6.7V119h1.7v1.2h6.6v1.5h-6.6v1.3h5.8v1.5h-5.8v1.3L54.1,125.8z M54.3,133.4l-0.9,1.5c-1.6-0.5-3.2-1.4-4.4-2.6
	c-1.2-1.2-2-2.6-2.5-4.2l1.7-0.3c0.3,0.8,0.7,1.6,1.2,2.3c1-0.6,1.9-1.4,2.7-2.3l1.5,0.9c-0.9,1-1.9,1.9-3.1,2.6
	C51.6,132.4,52.9,133.1,54.3,133.4z"/>
<path class="st2" d="M63.3,119.3c-0.2,0.8-0.4,1.6-0.7,2.4l-0.5,1.5v11.6h-1.6v-8.6c-0.3,0.5-0.7,0.9-1,1.3l-0.9-1.5
	c1.6-2.2,2.7-4.7,3.2-7.3L63.3,119.3z M74.4,126.7H62.8v-1.5h3c-0.3-0.8-0.7-1.6-1.2-2.4l1.1-0.8h-2.3v-1.5h4.2
	c-0.2-0.4-0.4-0.8-0.7-1.2l1.6-0.6c0.4,0.5,0.7,1.1,1,1.7H74v1.5h-2.5l1.2,0.7c-0.3,0.8-0.6,1.6-1,2.4h2.7L74.4,126.7z M73.2,134.8
	h-1.6V134h-5.9v0.8h-1.7v-6.7h9.1L73.2,134.8z M71.6,132.4v-2.8h-5.9v2.8H71.6z M71.3,122h-5c0.5,1,1,2.1,1.4,3.1H70
	C70.5,124.2,70.9,123.1,71.3,122L71.3,122z"/>
<path class="st2" d="M88.5,130.8h-2.2c-0.3,0.5-0.7,1-1.1,1.5c1,0.4,1.8,0.8,2.5,1.1l-0.9,1.2c-1.2-0.6-2.1-1-2.8-1.2
	c-1.4,0.7-2.9,1.3-4.5,1.5l-0.6-1.4c1.1-0.1,2.3-0.4,3.3-0.8c-0.8-0.3-1.5-0.5-2.3-0.7c0.4-0.4,0.7-0.8,1-1.2H79v-1.3h2.9l0.7-1
	h-2.8v-3H83v-0.8h-3.2v-2h-0.8v-1.2h0.8v-1.9H83v-0.7h1.5v0.7h3.2v1.9h0.9v1.2h-0.9v2h-3.2v0.8h3.2v3h-3.4l-0.7,1h1.7
	c0.1-0.2,0.2-0.4,0.3-0.6l1.4,0.3c0,0.1,0,0.2-0.1,0.3h1.6V130.8z M82.9,121.6v-0.8h-1.8v0.8H82.9z M82.9,123.6v-0.8h-1.8v0.8H82.9z
	 M82.9,127.4v-0.7h-1.7v0.7H82.9z M84.6,130.8h-1.8c0,0-0.2,0.2-0.4,0.5l1.4,0.4C84.1,131.5,84.4,131.2,84.6,130.8L84.6,130.8z
	 M86.2,121.5v-0.8h-1.7v0.8H86.2z M86.2,123.5v-0.8h-1.7v0.8H86.2z M86.2,127.3v-0.7h-1.8v0.7H86.2z M95,133.5l-0.8,1.3
	c-1-0.7-1.9-1.6-2.7-2.7c-0.7,1-1.5,1.9-2.5,2.6l-1.1-1.2c1-0.8,1.9-1.8,2.6-2.9c-0.6-1.1-1.1-2.4-1.4-3.6l1.4-0.8
	c0.2,0.9,0.4,1.7,0.8,2.5c0.5-1.9,0.8-3.9,0.8-5.9h-1.3c-0.4,1.3-1,2.6-1.7,3.8l-1-1.3c1.1-2.1,1.8-4.4,2.1-6.7l1.5,0.2
	c-0.1,0.5-0.2,1.3-0.5,2.5h3.4v1.5h-1c0,2.6-0.5,5.3-1.4,7.8C93,131.8,93.9,132.8,95,133.5L95,133.5z"/>
<path class="st2" d="M33.8,165.7H18v-1.6h6.5v-13.7h1.7v5.4H33v1.6h-6.8v6.7h7.6L33.8,165.7z"/>
<path class="st2" d="M42.4,162.8c-0.8,1.3-1.8,2.4-2.9,3.4l-1.2-1.1c1.1-0.9,2-1.9,2.8-3.1L42.4,162.8z M47.1,161.7h-8.7v-1.4h1.5
	v-6.6h-1.2v-1.4h1.2v-1.9h1.6v1.9h2.7v-1.9h1.6v1.9h1.3v1.4h-1.3v6.6h1.4L47.1,161.7z M44.1,154.9v-1.3h-2.7v1.3H44.1z M44.1,157.5
	v-1.3h-2.7v1.3H44.1z M44.1,160.2v-1.3h-2.7v1.3H44.1z M46.1,164.3l-1.2,0.9c-0.5-0.8-1.1-1.6-1.8-2.3l1.2-0.8
	C45,162.8,45.6,163.5,46.1,164.3L46.1,164.3z M53.6,164c0,1.4-0.7,2.1-2,2.1c-0.3,0-0.8,0-1.3,0l-0.5-1.6h1c0.3,0,0.7,0,1-0.2
	c0.1-0.1,0.2-0.3,0.2-0.5v-3.2h-2.9c-0.1,2-0.7,3.9-1.9,5.6l-1.4-0.8c1.2-1.6,1.9-3.9,1.9-7.1v-7.7h5.9L53.6,164z M52,154.8v-2.5
	h-2.7v2.5H52z M52,159.2v-2.9h-2.7v2.8L52,159.2z"/>
<path class="st2" d="M64.5,158.2l-2.1,0.9v5.4c0,1-0.7,1.6-2.2,1.6c-0.3,0-0.6,0-1,0l-0.5-1.6c0.5,0,1.1,0,1.5,0
	c0.1,0,0.2,0,0.3-0.1c0.1-0.1,0.2-0.2,0.2-0.3v-4.2c-0.7,0.3-1.4,0.5-1.9,0.7l-0.4-1.6c1.2-0.4,1.9-0.7,2.3-0.8v-3.4h-2.2v-1.5h2.2
	v-2.9h1.5v2.9h1.9v1.5h-1.9v2.8c0.6-0.2,1.2-0.5,1.9-0.8L64.5,158.2z M74.4,156.7h-7.7c-0.5,0-0.9-0.2-1.2-0.5
	c-0.3-0.4-0.5-0.9-0.4-1.4v-4.4h1.6v1.4h7v1.5h-7v1.2c0,0.3,0.2,0.6,0.5,0.7c0.1,0,0.1,0,0.2,0h7.1L74.4,156.7z M73.6,166.1H72v-0.8
	h-5.2v0.9h-1.6v-8.1h8.4L73.6,166.1z M72,160.9v-1.4h-5.2v1.4H72z M72,163.8v-1.5h-5.2v1.5H72z"/>
<path class="st2" d="M88.5,162.2h-2.2c-0.3,0.5-0.7,1-1.1,1.5c1,0.4,1.8,0.8,2.5,1.1l-0.9,1.2c-1.2-0.6-2.1-1-2.8-1.2
	c-1.4,0.7-2.9,1.3-4.5,1.5l-0.6-1.4c1.1-0.1,2.3-0.4,3.3-0.8c-0.8-0.3-1.5-0.5-2.3-0.7c0.4-0.4,0.7-0.8,1-1.2H79V161h2.9l0.7-1h-2.8
	v-3H83v-0.8h-3.2v-2h-0.8V153h0.8V151H83v-0.7h1.5v0.7h3.2v1.9h0.9v1.2h-0.9v2h-3.2v0.8h3.2v3h-3.4l-0.7,1h1.7
	c0.1-0.2,0.2-0.4,0.3-0.6l1.4,0.3c0,0.1,0,0.2-0.1,0.3h1.6V162.2z M82.9,153v-0.8h-1.8v0.8H82.9z M82.9,155v-0.8h-1.8v0.8H82.9z
	 M82.9,158.8v-0.7h-1.7v0.7H82.9z M84.6,162.2h-1.8c-0.1,0.2-0.3,0.4-0.4,0.5l1.4,0.4C84.1,162.9,84.4,162.5,84.6,162.2L84.6,162.2z
	 M86.2,152.9v-0.8h-1.7v0.8H86.2z M86.2,154.9v-0.8h-1.7v0.8H86.2z M86.2,158.7V158h-1.8v0.7H86.2z M94.9,164.9l-0.8,1.3
	c-1-0.7-1.9-1.6-2.7-2.7c-0.7,1-1.5,1.9-2.5,2.6l-1.1-1.2c1-0.8,1.9-1.8,2.6-2.9c-0.6-1.1-1.1-2.4-1.4-3.6l1.4-0.8
	c0.2,0.9,0.4,1.7,0.8,2.5c0.5-1.9,0.8-3.9,0.8-5.9h-1.3c-0.4,1.3-1,2.6-1.7,3.8l-1-1.3c1.1-2.1,1.8-4.4,2.1-6.7l1.5,0.2
	c-0.1,0.5-0.2,1.3-0.5,2.5h3.4v1.5h-1c0,2.6-0.5,5.3-1.4,7.8C93,163.2,93.9,164.2,94.9,164.9z"/>
<path class="st2" d="M33.9,193.6l-1.1,1.2c-2.6-1.9-4.7-4.6-6-7.6v5.9h3.6v1.6h-3.6v2.9h-1.7v-2.9h-3.6v-1.6h3.6v-6
	c-1.3,3.1-3.4,5.7-6.1,7.6l-1.1-1.2c2.6-1.9,4.7-4.5,6.1-7.4h-5.5v-1.6h6.6v-2.7h1.7v2.7h6.7v1.6h-5.6
	C29.1,189.1,31.2,191.7,33.9,193.6z"/>
<path class="st2" d="M42.4,194.2c-0.8,1.3-1.8,2.4-2.9,3.4l-1.2-1.1c1.1-0.9,2-1.9,2.8-3.1L42.4,194.2z M47.1,193h-8.7v-1.4h1.5V185
	h-1.2v-1.4h1.2v-1.9h1.6v1.9h2.7v-1.9h1.6v1.9h1.3v1.4h-1.3v6.6h1.4L47.1,193z M44.1,186.3V185h-2.7v1.3H44.1z M44.1,188.9v-1.3
	h-2.7v1.3L44.1,188.9z M44.1,191.6v-1.3h-2.7v1.3H44.1z M46.1,195.7l-1.2,0.9c-0.5-0.8-1.1-1.6-1.8-2.3l1.2-0.9
	C45,194.1,45.6,194.9,46.1,195.7L46.1,195.7z M53.6,195.4c0,1.4-0.7,2.1-2,2.1c-0.3,0-0.8,0-1.3,0l-0.5-1.6h1c0.3,0,0.7,0,1-0.2
	c0.1-0.1,0.2-0.3,0.2-0.5v-3.2h-2.9c-0.1,2-0.7,4-1.9,5.6l-1.4-0.9c1.2-1.6,1.9-4,1.9-7.1V182h5.9L53.6,195.4z M52,186.1v-2.6h-2.7
	v2.6H52z M52,190.6v-2.9h-2.7v2.8L52,190.6z"/>
<path class="st2" d="M64.5,189.6l-2.1,0.9v5.4c0,1-0.7,1.6-2.2,1.6c-0.3,0-0.6,0-1,0l-0.5-1.6c0.5,0,1.1,0,1.5,0
	c0.1,0,0.2,0,0.3-0.1c0.1-0.1,0.2-0.2,0.2-0.3v-4.2c-0.7,0.3-1.4,0.5-1.9,0.7l-0.4-1.6c1.2-0.4,1.9-0.7,2.3-0.8v-3.4h-2.2v-1.5h2.2
	v-2.9h1.5v2.9h1.9v1.5h-1.9v2.8c0.6-0.2,1.2-0.5,1.9-0.8L64.5,189.6z M74.4,188h-7.7c-0.5,0-0.9-0.2-1.2-0.5
	c-0.3-0.4-0.5-0.9-0.4-1.4v-4.4h1.6v1.4h7v1.5h-7v1.2c0,0.3,0.2,0.6,0.5,0.7c0.1,0,0.1,0,0.2,0h7.1L74.4,188z M73.6,197.5H72v-0.9
	h-5.2v0.9h-1.6v-8.1h8.4L73.6,197.5z M72,192.2v-1.4h-5.2v1.4H72z M72,195.1v-1.5h-5.2v1.5H72z"/>
<path class="st2" d="M88.5,193.6h-2.2c-0.3,0.5-0.7,1-1.1,1.5c1,0.4,1.8,0.8,2.5,1.1l-0.9,1.2c-1.2-0.6-2.1-1-2.8-1.2
	c-1.4,0.7-2.9,1.3-4.5,1.5l-0.6-1.4c1.1-0.1,2.3-0.4,3.3-0.8c-0.8-0.3-1.5-0.5-2.3-0.7c0.4-0.4,0.7-0.8,1-1.2H79v-1.2h2.9l0.7-1
	h-2.8v-3H83v-0.8h-3.2v-2h-0.8v-1.2h0.8v-1.9H83v-0.7h1.5v0.7h3.2v1.9h0.9v1.2h-0.9v2h-3.2v0.8h3.2v3h-3.4l-0.7,1h1.7
	c0.1-0.2,0.2-0.4,0.3-0.6l1.4,0.3c0,0.1,0,0.2-0.1,0.3h1.6V193.6z M82.9,184.3v-0.8h-1.8v0.8H82.9z M82.9,186.4v-0.8h-1.8v0.8H82.9z
	 M82.9,190.1v-0.7h-1.7v0.7L82.9,190.1z M84.6,193.6h-1.8c-0.1,0.2-0.3,0.4-0.4,0.5l1.4,0.4C84.1,194.2,84.4,193.9,84.6,193.6
	L84.6,193.6z M86.2,184.3v-0.8h-1.7v0.8H86.2z M86.2,186.3v-0.8h-1.7v0.8H86.2z M86.2,190.1v-0.7h-1.8v0.7L86.2,190.1z M95,196.2
	l-0.8,1.3c-1-0.7-1.9-1.6-2.7-2.7c-0.7,1-1.5,1.9-2.5,2.6l-1.1-1.2c1-0.8,1.9-1.8,2.6-2.9c-0.6-1.1-1.1-2.4-1.4-3.6l1.4-0.8
	c0.2,0.9,0.4,1.7,0.8,2.5c0.5-1.9,0.8-3.9,0.8-5.9h-1.3c-0.4,1.3-1,2.6-1.7,3.8l-1-1.3c1.1-2.1,1.8-4.4,2.1-6.7l1.5,0.2
	c-0.1,0.5-0.2,1.3-0.5,2.5h3.4v1.5h-1c0,2.6-0.5,5.3-1.4,7.8C93,194.6,93.9,195.5,95,196.2L95,196.2z"/>
<path class="st3" d="M33.5,27.4h-1.6v-2.9h-5.4V28H25v-3.5h-5.1v2.9h-1.5v-4.2H25v-0.6h-6v-1.4h13.7v1.4h-6.2v0.6h7L33.5,27.4z
	 M33.8,34.6c-0.1,0.5-0.2,0.9-0.5,1.3c-0.2,0.3-0.4,0.5-0.7,0.6c-1.1,0.1-2.2,0.1-3.3,0.1c-1.6,0-2.6,0-3.1-0.1
	c-0.4,0-0.7-0.2-1-0.5C25.1,35.8,25,35.4,25,35v-1h-5.8v-5.5h13.1V34h-5.7v0.5c0,0.2,0.1,0.4,0.3,0.5c1.1,0.1,2.1,0.1,3.2,0.1
	c0.8,0,1.3,0,1.5,0c0.2,0,0.3-0.1,0.4-0.2c0.1-0.2,0.2-0.4,0.1-0.6L33.8,34.6z M24.6,27.5c-1.3,0.2-2.6,0.4-3.9,0.4l-0.3-1.1
	c1.3,0,2.6-0.1,3.9-0.3L24.6,27.5z M24.5,25.1l-0.3,1c-1.2-0.2-2.5-0.3-3.7-0.3l0.3-1C22.1,24.9,23.3,25,24.5,25.1L24.5,25.1z
	 M25,30.6v-1h-4.3v1L25,30.6z M25,32.8v-1h-4.3v1.1L25,32.8z M30.8,30.6v-1h-4.2v1L30.8,30.6z M30.8,32.8v-1h-4.2v1.1L30.8,32.8z
	 M31.5,25.7c-1.3,0.2-2.7,0.3-4,0.4l-0.4-1c1.3,0,2.6-0.1,3.8-0.3L31.5,25.7z M31.3,27l-0.2,1c-1.3-0.2-2.7-0.4-4-0.4l0.4-1
	C28.7,26.6,30,26.7,31.3,27z"/>
<path class="st3" d="M54.1,27.7v1.6h-8c-0.5,0.6-1.1,1.2-1.7,1.7v3.8c1.2-0.2,2.4-0.5,3.6-0.9v1.7c-1.7,0.5-3.4,0.9-5.2,1.2
	l-0.5-1.5c0.3-0.2,0.5-0.6,0.5-1v-2.1c-1.2,0.8-2.5,1.5-3.9,2l-0.8-1.6c2.2-0.6,4.2-1.8,5.8-3.4h-5.6v-1.6h7.1v-1.3h-5.9v-1.5h5.9
	v-1.3h-6.7v-1.5h6.7v-1.3h1.7v1.3h6.6v1.5h-6.6v1.3h5.8v1.5h-5.8v1.3H54.1z M54.3,35.3l-0.9,1.5c-1.6-0.5-3.2-1.4-4.4-2.5
	c-1.2-1.2-2-2.6-2.5-4.2l1.6-0.2c0.3,0.8,0.7,1.6,1.2,2.3c1-0.6,1.9-1.4,2.7-2.3l1.5,0.9c-0.9,1-1.9,1.9-3.1,2.6
	C51.6,34.4,52.9,35,54.3,35.3L54.3,35.3z"/>
<path class="st3" d="M73.6,34.9c0,0.4-0.1,0.9-0.4,1.2c-0.3,0.4-1,0.5-2.1,0.5c-0.5,0-0.9,0-1.4-0.1L69,35c0.9,0,1.7,0,2.2,0
	c0.2,0,0.4-0.1,0.5-0.2c0.1-0.1,0.2-0.3,0.2-0.5v-8.7h-4.1c0.6,2.5,1.9,4.7,3.8,6.4l-1,1.3c-1.9-1.6-3.3-3.7-4.1-6.1
	c-0.8,2.4-2.3,4.5-4.1,6.1l-1-1.2c2.2-2.2,3.7-4.4,4.2-6.5h-4.7v11.1h-1.6V24h6.4c-0.1-0.5-0.1-1-0.1-1.5h-1.7v-1.6h3.2
	c0,0.5,0.1,1.6,0.3,3.1h6.1L73.6,34.9z"/>
<path class="st3" d="M94.8,30.8l-0.8,1.3c-0.2-0.1-0.7-0.2-1.4-0.5v5.2h-1.7v-0.8h-8.2v0.8H81v-5.1c-0.4,0.2-0.8,0.4-1.4,0.6
	l-0.9-1.3c3-1.1,5.6-2.8,7.8-5l1.5,0.6c0,0.1-0.1,0.1-0.1,0.2c0,0-0.1,0.1-0.1,0.2C89.8,28.5,92.2,29.9,94.8,30.8z M85.6,25.1
	c-1.6,1.4-3.3,2.6-5.2,3.6l-1-1.3c1.9-0.8,3.6-1.9,5-3.2L85.6,25.1z M94.2,25.8h-1.6v-2H81v1.9h-1.6v-3.4h6.7
	c-0.2-0.4-0.4-0.9-0.7-1.3l1.7-0.3c0.3,0.5,0.5,1.1,0.8,1.6h6.3L94.2,25.8z M90.9,30.8C89.4,30,88,29,86.8,27.9
	c-1.2,1.1-2.6,2.1-4.1,2.9H90.9z M90.9,34.4v-2.1h-8.2v2.1L90.9,34.4z M94.3,27.7l-1,1.2c-1.6-1.4-3.3-2.5-5.2-3.6l1-1.2
	C91,25.2,92.7,26.4,94.3,27.7L94.3,27.7z"/>
</svg>
