<?xml version="1.0" encoding="utf-8"?>
<!-- Generator: Adobe Illustrator 23.0.2, SVG Export Plug-In . SVG Version: 6.00 Build 0)  -->
<svg version="1.1" id="圖層_1" xmlns="http://www.w3.org/2000/svg" xmlns:xlink="http://www.w3.org/1999/xlink" x="0px" y="0px"
	 viewBox="0 0 45 45" style="enable-background:new 0 0 45 45;" xml:space="preserve">
<style type="text/css">
	.st0{fill:#FFFFFF;fill-opacity:0;}
	.st1{fill:#345987;fill-opacity:0;}
	.st2{fill:#DECE6B;fill-opacity:0;}
	.st3{opacity:0;fill:#0A2A49;}
</style>
<title>dbicon</title>
<circle class="st0" cx="19" cy="12.2" r="5.4"/>
<path class="st1" d="M15.6,12.5h-1.3c-0.1,0-0.3-0.1-0.3-0.3l0,0c0-0.1,0.1-0.3,0.3-0.3h1.3V12.5z"/>
<path class="st1" d="M23.8,12.5h-1.3V12h1.3c0.1,0,0.3,0.1,0.3,0.3l0,0C24,12.4,23.9,12.5,23.8,12.5z"/>
<path class="st1" d="M19.3,7.5v1.3h-0.5V7.5c0-0.1,0.1-0.3,0.3-0.3l0,0C19.2,7.2,19.3,7.3,19.3,7.5z"/>
<path class="st1" d="M22.5,9l-0.9,1l-0.3-0.3l0.9-0.9c0.1-0.1,0.2-0.1,0.3,0l0,0C22.6,8.8,22.6,9,22.5,9z"/>
<path class="st1" d="M15.8,8.7l0.9,0.9l-0.3,0.3L15.5,9c-0.1-0.1-0.1-0.2,0-0.3l0,0C15.6,8.6,15.7,8.6,15.8,8.7z"/>
<path class="st1" d="M23.1,11.6l-0.7,0.1v-0.3l0.7-0.1c0.1,0,0.1,0,0.2,0.1l0,0l0,0C23.3,11.5,23.2,11.6,23.1,11.6L23.1,11.6z"/>
<path class="st1" d="M22.9,10.8l-0.7,0.3l-0.1-0.3l0.7-0.3c0.1,0,0.1,0,0.2,0.1l0,0l0,0C23,10.7,23,10.8,22.9,10.8L22.9,10.8z"/>
<path class="st1" d="M22.6,10.1L22,10.5l-0.2-0.2l0.6-0.4c0.1,0,0.1,0,0.2,0l0,0l0,0C22.7,10,22.6,10,22.6,10.1L22.6,10.1z"/>
<path class="st1" d="M21.4,8.8L21,9.4l-0.2-0.1l0.4-0.6c0-0.1,0.1-0.1,0.2,0l0,0l0,0C21.5,8.7,21.5,8.7,21.4,8.8L21.4,8.8z"/>
<path class="st1" d="M20.8,8.4l-0.3,0.7L20.2,9l0.3-0.7c0-0.1,0.1-0.1,0.2-0.1l0,0l0,0C20.8,8.3,20.8,8.3,20.8,8.4L20.8,8.4z"/>
<path class="st1" d="M20,8.1l-0.1,0.7h-0.3l0.1-0.7C19.7,8,19.8,8,19.8,8l0,0l0,0C19.9,8,20,8.1,20,8.1z"/>
<path class="st1" d="M14.9,11.6l0.7,0.1v-0.3l-0.7-0.1c-0.1,0-0.1,0-0.2,0.1l0,0C14.8,11.5,14.8,11.6,14.9,11.6L14.9,11.6z"/>
<path class="st1" d="M15.1,10.8l0.7,0.3l0.1-0.3l-0.7-0.3c-0.1,0-0.1,0-0.2,0.1l0,0l0,0C15,10.7,15,10.8,15.1,10.8z"/>
<path class="st1" d="M15.4,10.1l0.6,0.4l0.2-0.2l-0.6-0.4c-0.1,0-0.1,0-0.2,0l0,0l0,0C15.4,10,15.4,10,15.4,10.1z"/>
<path class="st1" d="M16.6,8.8L17,9.4l0.2-0.1l-0.4-0.6c0-0.1-0.1-0.1-0.2,0l0,0l0,0C16.6,8.7,16.5,8.7,16.6,8.8L16.6,8.8z"/>
<path class="st1" d="M17.2,8.4l0.3,0.7L17.8,9l-0.3-0.7c0-0.1-0.1-0.1-0.2-0.1l0,0l0,0C17.2,8.3,17.2,8.3,17.2,8.4z"/>
<path class="st1" d="M18.1,8.1l0.1,0.7h0.3l-0.1-0.7C18.3,8,18.2,8,18.2,8l0,0l0,0C18.1,8,18,8.1,18.1,8.1z"/>
<path class="st1" d="M16.2,15.2h-0.7c-0.1,0-0.2-0.1-0.2-0.2l0,0v-0.8c0-0.1,0.1-0.2,0.2-0.2h0.7c0.1,0,0.2,0.1,0.2,0.2V15
	C16.3,15.1,16.3,15.2,16.2,15.2L16.2,15.2z"/>
<path class="st1" d="M17.4,15.2h-0.7c-0.1,0-0.2-0.1-0.2-0.2v-0.8c0-0.1,0.1-0.2,0.2-0.2h0.7c0.1,0,0.2,0.1,0.2,0.2V15
	C17.6,15.1,17.5,15.2,17.4,15.2L17.4,15.2z"/>
<path class="st1" d="M18.7,15.2H18c-0.1,0-0.2-0.1-0.2-0.2v-0.8c0-0.1,0.1-0.2,0.2-0.2h0.7c0.1,0,0.2,0.1,0.2,0.2V15
	C18.9,15.1,18.8,15.2,18.7,15.2L18.7,15.2z"/>
<path class="st1" d="M20,15.2h-0.7c-0.1,0-0.2-0.1-0.2-0.2l0,0v-0.8c0-0.1,0.1-0.2,0.2-0.2H20c0.1,0,0.2,0.1,0.2,0.2V15
	C20.1,15.1,20.1,15.2,20,15.2z"/>
<path class="st1" d="M21.3,15.2h-0.7c-0.1,0-0.2-0.1-0.2-0.2l0,0v-0.8c0-0.1,0.1-0.2,0.2-0.2h0.7c0.1,0,0.2,0.1,0.2,0.2V15
	C21.4,15.1,21.3,15.2,21.3,15.2L21.3,15.2z"/>
<path class="st1" d="M22.5,15.2h-0.7c-0.1,0-0.2-0.1-0.2-0.2v-0.8c0-0.1,0.1-0.2,0.2-0.2h0.7c0.1,0,0.2,0.1,0.2,0.2V15
	C22.7,15.1,22.6,15.2,22.5,15.2L22.5,15.2z"/>
<path class="st2" d="M19.1,10.3h1.2l0,0l0,0l-1.1,1.5c0,0,0,0,0,0.1l0,0h1l0,0l0,0l-2.4,2.5c0,0,0,0-0.1,0c0,0,0,0,0-0.1l0.8-1.8
	c0,0,0,0,0-0.1l0,0h-1.1l0,0l0,0L19.1,10.3C19,10.3,19.1,10.3,19.1,10.3z"/>
<rect x="7.9" y="4.2" class="st3" width="15.1" height="16.3"/>
</svg>
