<?xml version="1.0" encoding="utf-8"?>
<!-- Generator: Adobe Illustrator 16.0.0, SVG Export Plug-In . SVG Version: 6.00 Build 0)  -->
<!DOCTYPE svg PUBLIC "-//W3C//DTD SVG 1.1//EN" "http://www.w3.org/Graphics/SVG/1.1/DTD/svg11.dtd">
<svg version="1.1" id="圖層_1" xmlns="http://www.w3.org/2000/svg" xmlns:xlink="http://www.w3.org/1999/xlink" x="0px" y="0px"
	 width="290px" height="73px" viewBox="0 0 387.906 73" enable-background="new 0 0 387.906 73" xml:space="preserve">
<path fill="#366497" d="M356.964,70.675c16.992,0,30.767-14.947,30.767-33.387c0-18.438-13.775-33.385-30.767-33.385H30.934
	c-16.992,0-30.767,14.947-30.767,33.385c0,18.439,13.775,33.387,30.767,33.387H356.964z"/>
<g>
	<path fill="#FFFFFF" d="M83.357,35.462l-1.852,1.488c-0.453-0.727-0.949-1.43-1.488-2.109c-6.172,0.727-11.891,1.164-17.156,1.313
		l-0.504-2.016c2.297-0.742,4.789-3.27,7.477-7.582l2.426,0.48c-1.594,2.578-3.488,4.875-5.684,6.891
		c3.133-0.117,7.086-0.43,11.859-0.938c-0.992-1.094-2.195-2.215-3.609-3.363l1.852-1.418
		C79.545,30.693,81.771,33.111,83.357,35.462z M81.236,47.697h-2.18v-1.078H66.436v1.078h-2.191v-9.926h16.992V47.697z
		 M79.057,44.533v-4.676H66.436v4.676H79.057z"/>
	<path fill="#FFFFFF" d="M109.582,35.392h-2.063v-3.844h-7.195v4.629h-1.992v-4.629h-6.797v3.844h-2.039v-5.543h8.836v-0.867h-7.945
		v-1.828h18.164v1.828h-8.227v0.867h9.258V35.392z M110.015,45.037c-0.133,0.781-0.348,1.377-0.645,1.787s-0.621,0.656-0.973,0.738
		s-1.793,0.123-4.324,0.123c-2.102,0-3.451-0.035-4.049-0.105s-1.037-0.275-1.318-0.615s-0.422-0.822-0.422-1.447v-1.348h-7.711
		v-7.336h17.379v7.336h-7.605v0.727c0,0.328,0.123,0.537,0.369,0.627s1.643,0.135,4.189,0.135c1.094,0,1.775-0.008,2.045-0.023
		s0.467-0.117,0.592-0.305s0.188-0.438,0.188-0.75L110.015,45.037z M97.722,35.556c-1.492,0.273-3.234,0.449-5.227,0.527
		l-0.41-1.395c1.578-0.016,3.316-0.156,5.215-0.422L97.722,35.556z M97.605,32.439l-0.387,1.371
		c-1.609-0.219-3.238-0.34-4.887-0.363l0.434-1.348C94.085,32.076,95.699,32.189,97.605,32.439z M98.285,39.658v-1.289h-5.648v1.289
		H98.285z M98.285,42.564v-1.371h-5.648v1.371H98.285z M105.937,39.658v-1.289h-5.59v1.289H105.937z M105.937,42.564v-1.371h-5.59
		v1.371H105.937z M106.851,33.201c-1.625,0.273-3.402,0.449-5.332,0.527l-0.48-1.313c1.477-0.023,3.164-0.176,5.063-0.457
		L106.851,33.201z M106.699,34.865l-0.328,1.359c-1.906-0.313-3.684-0.504-5.332-0.574l0.48-1.359
		C102.941,34.322,104.667,34.513,106.699,34.865z"/>
	<path fill="#FFFFFF" d="M123.841,42.904c-2.008,1.578-4.207,2.824-6.598,3.738l-1.277-1.723c2.32-0.844,4.41-1.973,6.27-3.387
		L123.841,42.904z M136.65,40.572l-1.793,1.277c-0.555-0.789-0.996-1.375-1.324-1.758c-2.25,0.281-4.219,0.48-5.906,0.598v4.898
		c0.031,0.648-0.162,1.162-0.58,1.541s-1.686,0.568-3.803,0.568l-0.844-2.133c0.867,0.063,1.684,0.094,2.449,0.094
		c0.43,0,0.645-0.207,0.645-0.621v-4.148c-3.281,0.164-5.719,0.258-7.313,0.281l-0.504-1.84c2.023-0.563,4.383-1.555,7.078-2.977
		c-2.805,0.141-4.797,0.211-5.977,0.211l-0.34-1.559c3.297-1.031,6.234-2.695,8.813-4.992l1.969,1.125
		c-1.578,1.406-3.523,2.598-5.836,3.574l1.898-0.094l2.895-0.223c0.133-0.016,0.668-0.355,1.605-1.02l1.664-1.23l1.875,1.301
		c-3.758,2.672-7.293,4.582-10.605,5.73c2.797-0.117,5.891-0.387,9.281-0.809c-0.406-0.43-0.879-0.887-1.418-1.371l1.898-1.078
		C134.259,37.583,135.65,39.134,136.65,40.572z M129.291,27.728c-2.406,1.953-5.781,3.516-10.125,4.688l-1.23-1.828
		c3.859-0.828,7.043-2.164,9.551-4.008L129.291,27.728z M137.166,45.177l-1.441,1.617c-1.617-1.367-3.723-2.688-6.316-3.961
		l1.488-1.488C133.458,42.619,135.548,43.896,137.166,45.177z"/>
	<path fill="#FFFFFF" d="M145.894,42.107c-0.305,2.383-0.816,4.305-1.535,5.766l-1.805-0.82c0.711-1.367,1.234-3.125,1.57-5.273
		L145.894,42.107z M151.729,40.525l-1.875,0.645c0-0.094-0.086-0.508-0.258-1.242c-2.102,0.625-4.215,1.098-6.34,1.418l-0.363-1.641
		c1.383-1.117,2.824-2.754,4.324-4.91c-1.273,0.195-2.508,0.336-3.703,0.422l-0.258-1.406c1.781-1.984,3.211-4.387,4.289-7.207
		l1.992,0.703c-1.016,2.336-2.172,4.309-3.469,5.918c0.82-0.07,1.586-0.164,2.297-0.281c0.477-0.727,0.859-1.43,1.148-2.109
		l1.852,0.961c-1.664,3-3.352,5.391-5.063,7.172c1.008-0.203,1.93-0.453,2.766-0.75c-0.164-0.461-0.293-0.805-0.387-1.031
		l1.652-0.715C150.991,37.83,151.456,39.181,151.729,40.525z M149.034,46.888l-1.816,0.41c0.039-1.555-0.16-3.277-0.598-5.168
		l1.652-0.434C148.718,43.603,148.972,45.333,149.034,46.888z M151.823,44.849l-1.605,0.645c-0.25-1.375-0.563-2.504-0.938-3.387
		l1.582-0.598C151.284,42.376,151.604,43.49,151.823,44.849z M164.069,42.06c-0.148,2.516-0.293,3.896-0.434,4.143
		s-0.381,0.533-0.721,0.861s-1.162,0.492-2.467,0.492c-1.094,0-1.813-0.164-2.156-0.492s-0.516-0.988-0.516-1.98v-8.086
		c-0.789,0.125-1.398,0.215-1.828,0.27c0,1.734-0.082,3.191-0.246,4.371s-0.561,2.322-1.189,3.428s-1.471,2.08-2.525,2.924
		l-1.535-1.465c0.695-0.484,1.338-1.141,1.928-1.969s1.006-1.738,1.248-2.73s0.344-2.434,0.305-4.324l-2.109,0.234l-0.387-1.582
		c1.359-1.664,2.473-3.414,3.34-5.25h-3.551v-1.969h4.371c0.195-0.453,0.457-1.191,0.785-2.215l2.191,0.34
		c-0.273,0.773-0.508,1.398-0.703,1.875h5.953v1.969h-6.82c-0.695,1.516-1.613,3.074-2.754,4.676
		c2.039-0.125,3.918-0.355,5.637-0.691c-0.289-0.461-0.703-0.988-1.242-1.582l1.699-1.113c1.656,1.977,2.832,3.641,3.527,4.992
		l-1.77,1.184c-0.422-0.781-0.793-1.414-1.113-1.898l-1.219,0.211v8.426c0,0.391,0.355,0.586,1.066,0.586
		c0.57,0,0.918-0.211,1.043-0.633s0.223-1.645,0.293-3.668L164.069,42.06z"/>
	<path fill="#FFFFFF" d="M179.806,28.982c-1.203,1.742-3.004,3.27-5.402,4.582h4.324v5.449h-4.746l-0.246,2.086h5.262
		c-0.039,2.164-0.176,3.678-0.41,4.541s-0.613,1.422-1.137,1.676s-1.563,0.381-3.117,0.381c-0.523,0-1.172-0.008-1.945-0.023
		l-0.715-1.969c0.82,0.055,2.156,0.082,4.008,0.082c0.75,0,1.125-0.961,1.125-2.883h-5.402l0.703-5.695h4.559v-1.816h-3.984v-1.008
		c-0.508,0.25-1.164,0.504-1.969,0.762l-0.984-1.746c1.227-0.383,2.402-0.863,3.527-1.441c-0.586-0.367-1.273-0.727-2.063-1.078
		l1.418-1.488c0.656,0.273,1.527,0.73,2.613,1.371c0.789-0.531,1.469-1.125,2.039-1.781h-5.402v-1.875h7.945V28.982z M190.997,33.47
		l-1.09,1.676c-0.828-0.359-1.563-0.734-2.203-1.125v2.426c0,0.258,0.137,0.387,0.41,0.387h2.133v1.816h-2.813
		c-1.148,0-1.723-0.59-1.723-1.77v-1.465h-2.355c0,1.664-0.918,2.953-2.754,3.867l-1.301-1.57c0.633-0.266,1.135-0.623,1.506-1.072
		s0.557-1.178,0.557-2.186v-0.891h5.543c-2.984-1.828-5.023-3.957-6.117-6.387l1.898-0.598c0.219,0.547,0.625,1.188,1.219,1.922
		c0.703-0.578,1.313-1.219,1.828-1.922l1.723,1.078c-0.758,0.93-1.5,1.676-2.227,2.238c0.234,0.234,0.594,0.539,1.078,0.914
		c0.898-0.742,1.676-1.488,2.332-2.238l1.652,1.055c-0.789,0.922-1.582,1.684-2.379,2.285
		C188.688,32.404,189.716,32.923,190.997,33.47z M190.54,46.525l-1.488,1.348c-1.016-0.758-2.191-1.535-3.527-2.332
		c-1.367,1.016-3.074,1.816-5.121,2.402l-1.055-1.758c1.875-0.492,3.301-1.066,4.277-1.723c-1.273-0.742-2.355-1.328-3.246-1.758
		l1.23-1.266h-1.418v-1.852h8.977v1.852c-0.656,0.977-1.359,1.879-2.109,2.707C188.263,44.912,189.423,45.705,190.54,46.525z
		 M186.696,41.439h-4.512c1.086,0.547,2.133,1.105,3.141,1.676C185.927,42.482,186.384,41.923,186.696,41.439z"/>
	<path fill="#FFFFFF" d="M203.346,41.966h-4.336l1.336,0.844c-0.586,2.039-1.289,3.695-2.109,4.969l-1.746-1.23
		c0.883-1.43,1.555-2.957,2.016-4.582h-1.184v-14.59h6.023V41.966z M201.354,31.642v-2.25h-2.039v2.25H201.354z M201.354,35.779
		v-2.285h-2.039v2.285H201.354z M201.354,39.998v-2.355h-2.039v2.355H201.354z M204.307,46.337l-1.887,0.785
		c-0.336-1.297-0.914-2.641-1.734-4.031l1.734-0.785C203.116,43.369,203.745,44.712,204.307,46.337z M217.702,43.958h-1.512v1.559
		c0,0.797-0.172,1.373-0.516,1.729s-1.012,0.533-2.004,0.533c-0.398,0-0.895-0.027-1.488-0.082l-0.715-2.016
		c0.398,0.039,0.824,0.059,1.277,0.059c0.695,0,1.1-0.039,1.213-0.117s0.17-0.219,0.17-0.422v-1.242h-6.797v3.785h-2.086v-3.785
		h-1.418v-1.699h1.418v-5.531h4.512v-1.289h-5.871v-1.711h3.164v-1.172h-1.992v-1.559h1.992v-1.148h-2.543v-1.641h2.543v-1.359
		h2.063v1.359h3.457v-1.359h2.063v1.359h2.859v1.641h-2.859v1.148h1.945v1.559h-1.945v1.172h3.07v1.711h-5.824v1.289h4.313v5.531
		h1.512V43.958z M209.756,39.564v-1.102h-2.426v1.102H209.756z M209.756,42.259v-1.113h-2.426v1.113H209.756z M212.569,30.951
		v-1.102h-3.457v1.102H212.569z M212.569,33.728v-1.172h-3.457v1.172H212.569z M214.127,39.564v-1.102h-2.25v1.102H214.127z
		 M214.127,42.259v-1.113h-2.25v1.113H214.127z"/>
	<path fill="#FFFFFF" d="M244.102,35.392h-2.063v-3.844h-7.195v4.629h-1.992v-4.629h-6.797v3.844h-2.039v-5.543h8.836v-0.867h-7.945
		v-1.828h18.164v1.828h-8.227v0.867h9.258V35.392z M244.535,45.037c-0.133,0.781-0.348,1.377-0.645,1.787s-0.621,0.656-0.973,0.738
		s-1.793,0.123-4.324,0.123c-2.102,0-3.451-0.035-4.049-0.105s-1.037-0.275-1.318-0.615s-0.422-0.822-0.422-1.447v-1.348h-7.711
		v-7.336h17.379v7.336h-7.605v0.727c0,0.328,0.123,0.537,0.369,0.627s1.643,0.135,4.189,0.135c1.094,0,1.775-0.008,2.045-0.023
		s0.467-0.117,0.592-0.305s0.188-0.438,0.188-0.75L244.535,45.037z M232.242,35.556c-1.492,0.273-3.234,0.449-5.227,0.527
		l-0.41-1.395c1.578-0.016,3.316-0.156,5.215-0.422L232.242,35.556z M232.125,32.439l-0.387,1.371
		c-1.609-0.219-3.238-0.34-4.887-0.363l0.434-1.348C228.605,32.076,230.219,32.189,232.125,32.439z M232.805,39.658v-1.289h-5.648
		v1.289H232.805z M232.805,42.564v-1.371h-5.648v1.371H232.805z M240.457,39.658v-1.289h-5.59v1.289H240.457z M240.457,42.564
		v-1.371h-5.59v1.371H240.457z M241.371,33.201c-1.625,0.273-3.402,0.449-5.332,0.527l-0.48-1.313
		c1.477-0.023,3.164-0.176,5.063-0.457L241.371,33.201z M241.219,34.865l-0.328,1.359c-1.906-0.313-3.684-0.504-5.332-0.574
		l0.48-1.359C237.461,34.322,239.188,34.513,241.219,34.865z"/>
	<path fill="#FFFFFF" d="M271.486,47.369h-20.883v-1.512h9.41v-1.078h-7.992v-1.348h7.992V42.4h-7.535v-5.859h17.086V42.4h-7.535
		v1.031h8.191v1.371h-8.191v1.055h9.457V47.369z M271.299,35.556h-20.52v-1.652h20.52V35.556z M269.541,32.943h-17.086v-5.906
		h17.086V32.943z M267.479,29.298v-0.891h-13.008v0.891H267.479z M267.479,31.572v-0.984h-13.008v0.984H267.479z M260.014,38.849
		v-0.984h-5.52v0.984H260.014z M260.014,41.076v-0.984h-5.496l-0.023,0.984H260.014z M267.502,38.849v-0.984h-5.473v0.984H267.502z
		 M267.502,41.076v-0.984h-5.473v0.984H267.502z"/>
	<path fill="#FFFFFF" d="M280.554,42.224c-0.313,2.117-0.809,4-1.488,5.648l-1.77-0.82c0.703-1.773,1.176-3.559,1.418-5.355
		L280.554,42.224z M286.343,40.138l-1.723,0.773c-0.063-0.289-0.16-0.617-0.293-0.984c-2.047,0.539-4.168,1.004-6.363,1.395
		l-0.48-1.805c1.313-1.008,2.664-2.559,4.055-4.652c-1.195,0.188-2.355,0.332-3.48,0.434l-0.445-1.688
		c1.492-1.57,2.906-3.938,4.242-7.102l1.945,0.75c-0.984,2.172-2.16,4.145-3.527,5.918c1-0.109,1.848-0.254,2.543-0.434
		c0.398-0.648,0.734-1.27,1.008-1.863l1.875,0.914c-1.547,2.914-3.25,5.297-5.109,7.148c0.719-0.117,1.734-0.367,3.047-0.75
		c-0.18-0.453-0.348-0.82-0.504-1.102l1.676-0.762C285.441,37.494,285.953,38.763,286.343,40.138z M283.753,46.712l-1.852,0.504
		c-0.055-1.492-0.293-3.203-0.715-5.133l1.699-0.41C283.308,43.173,283.597,44.853,283.753,46.712z M286.589,45.517l-1.711,0.504
		c-0.203-1.414-0.578-2.855-1.125-4.324l1.676-0.48C286.039,42.818,286.425,44.251,286.589,45.517z M298.367,31.642h-5.18v2.648
		h4.723v1.969h-11.32v-1.969h4.453v-2.648h-5.133v-2.039h5.133v-2.801h2.145v2.801h5.18V31.642z M297.5,47.72h-2.156v-1.125h-6.141
		v1.125h-2.238v-9.211H297.5V47.72z M295.343,44.603v-4.102h-6.141v4.102H295.343z"/>
	<path fill="#FFFFFF" d="M311.442,37.232l-1.359,1.664c-0.281-0.648-0.602-1.313-0.961-1.992v10.793h-2.063v-9.984
		c-0.578,1.672-1.156,2.977-1.734,3.914l-1.102-2.297c1.07-1.781,1.965-3.926,2.684-6.434h-2.391V30.81h2.543v-4.066h2.063v4.066
		h1.699v2.086h-1.699v1.078C309.919,34.958,310.692,36.044,311.442,37.232z M325.493,43.888h-1.688v1.746
		c0,0.703-0.23,1.203-0.691,1.5s-1.543,0.453-3.246,0.469l-0.762-2.039c1.234,0.016,1.994,0.014,2.279-0.006
		s0.428-0.178,0.428-0.475v-1.195h-7.488v3.785h-2.016v-3.785h-1.723v-1.711h1.723v-5.543h4.734v-1.289h-6.387v-1.711h3.164v-1.172
		h-2.063v-1.605h2.063v-1.031h-2.859v-1.758h2.859V26.72h1.969v1.348h4.324V26.72h1.969v1.348h3.023v1.758h-3.023v1.031h2.496v1.605
		h-2.496v1.172h3.328v1.711h-6.328v1.289h4.723v5.543h1.688V43.888z M317.044,39.33v-1.031h-2.719v1.031H317.044z M317.044,42.177
		v-1.242h-2.719v1.242H317.044z M320.114,30.857v-1.031h-4.324v1.031H320.114z M320.114,33.634v-1.172h-4.324v1.172H320.114z
		 M321.813,39.33v-1.031h-2.73v1.031H321.813z M321.813,42.177v-1.242h-2.73v1.242H321.813z"/>
</g>
</svg>
