<?xml version="1.0" encoding="utf-8"?>
<!-- Generator: Adobe Illustrator 16.0.0, SVG Export Plug-In . SVG Version: 6.00 Build 0)  -->
<!DOCTYPE svg PUBLIC "-//W3C//DTD SVG 1.1//EN" "http://www.w3.org/Graphics/SVG/1.1/DTD/svg11.dtd">
<svg version="1.1" id="圖層_1" xmlns="http://www.w3.org/2000/svg" xmlns:xlink="http://www.w3.org/1999/xlink" x="0px" y="0px"
	 width="290px" height="73px" viewBox="0 0 387.906 73" enable-background="new 0 0 387.906 73" xml:space="preserve">
<path fill="#FA535B" d="M356.969,69.886c16.991,0,30.766-14.947,30.766-33.387c0-18.438-13.774-33.385-30.766-33.385H30.938
	c-16.991,0-30.766,14.947-30.766,33.385c0,18.439,13.774,33.387,30.766,33.387H356.969z"/>
<g>
	<path fill="#FFFFFF" d="M110.254,41.264h-2.273v3.738c0,0.477-0.117,0.885-0.352,1.225s-0.535,0.57-0.902,0.691
		s-1.105,0.182-2.215,0.182c-0.641,0-1.246-0.035-1.816-0.105l-0.797-2.086c0.859,0.055,1.605,0.082,2.238,0.082
		c0.766,0,1.24-0.049,1.424-0.146s0.275-0.26,0.275-0.486v-3.094H93.695v5.73h-2.133v-5.73h-2.191v-1.969h2.191v-8.379h7.125v-2.32
		h-9.387V26.65h20.883v1.945h-9.316v2.32h7.113v8.379h2.273V41.264z M98.688,35.053v-2.215h-4.992v2.215H98.688z M98.688,39.295
		V37.01h-4.992v2.285H98.688z M105.836,35.053v-2.215h-4.969v2.215H105.836z M105.836,39.295V37.01h-4.969v2.285H105.836z"/>
	<path fill="#FFFFFF" d="M137.041,46.373h-20.813v-2.109h9.68v-5.238h-7.277v-2.109h7.277v-4.582h-5.379
		c-0.883,1.531-1.859,2.844-2.93,3.938l-1.629-1.559c2.18-2.234,3.641-4.98,4.383-8.238l2.145,0.504
		c-0.273,1.023-0.602,2.105-0.984,3.246h4.395v-4.207h2.203v4.207h8.613v2.109h-8.613v4.582h7.629v2.109h-7.629v5.238h8.93V46.373z"
		/>
	<path fill="#FFFFFF" d="M153.163,45.131c0,0.461-0.113,0.84-0.34,1.137s-0.494,0.498-0.803,0.604s-0.842,0.158-1.6,0.158
		c-0.359,0-0.836-0.012-1.43-0.035l-0.504-1.992c0.383,0.031,0.809,0.047,1.277,0.047c0.648,0,1.029-0.035,1.143-0.105
		s0.17-0.176,0.17-0.316v-2.59c-2.805,1.219-4.27,1.824-4.395,1.816l-0.551-1.008c-0.258,1.672-0.723,3.098-1.395,4.277
		l-1.699-1.441c0.781-1.313,1.172-3.465,1.172-6.457v-5.18h8.953V45.131z M154.675,31.924l-1.723,1.16
		c-0.313-0.539-0.594-0.965-0.844-1.277c-2.57,0.445-5.371,0.797-8.402,1.055l-0.504-1.652c1.711-1.547,3.023-3.316,3.938-5.309
		l2.063,0.656c-0.992,1.781-2,3.172-3.023,4.172c1.242-0.078,2.789-0.277,4.641-0.598c-0.531-0.68-1.102-1.289-1.711-1.828
		l1.758-1.195C152.421,28.67,153.69,30.275,154.675,31.924z M151.077,39.939v-3.938h-4.676v1.301
		c1.578,0.188,2.961,0.477,4.148,0.867l-0.715,1.77c-0.664-0.227-1.824-0.473-3.48-0.738c0,0.859-0.035,1.77-0.105,2.73
		C147.226,41.674,148.835,41.01,151.077,39.939z M164.108,42.775c-0.055,1.594-0.225,2.582-0.51,2.965s-0.582,0.664-0.891,0.844
		s-1.494,0.27-3.557,0.27c-1.578,0-2.557-0.08-2.936-0.24s-0.666-0.42-0.861-0.779s-0.293-0.754-0.293-1.184v-8.426h2.086v3.094
		h6.246v1.898h-6.246v3.188c0,0.32,0.168,0.48,0.504,0.48h3.527c0.289,0,0.504-0.137,0.645-0.41s0.238-1.047,0.293-2.32
		L164.108,42.775z M163.827,35.451h-6.656c-0.617,0-1.115-0.201-1.494-0.604s-0.568-0.92-0.568-1.553v-7.172h2.086v2.66h6.223v1.898
		h-6.223v2.426c0,0.086,0.057,0.18,0.17,0.281s0.225,0.152,0.334,0.152h6.129V35.451z"/>
	<path fill="#FFFFFF" d="M174.571,39.084c-0.727,2.828-1.637,5.441-2.73,7.84l-1.852-1.313c1.078-2.406,1.965-5.023,2.66-7.852
		L174.571,39.084z M175.169,34.783l-1.383,1.805c-1-1.063-2.25-2.016-3.75-2.859l1.301-1.781
		C172.563,32.58,173.841,33.525,175.169,34.783z M175.321,29.17l-1.488,1.676c-0.875-1.148-2.066-2.27-3.574-3.363l1.559-1.605
		C173.185,26.908,174.353,28.006,175.321,29.17z M190.919,28.35h-5.227c-0.18,0.539-0.422,1.164-0.727,1.875h5.238v8.859h-4.418
		v6.234c0,0.563-0.205,0.975-0.615,1.236s-1.084,0.393-2.021,0.393c-0.43,0-0.832-0.016-1.207-0.047l-0.867-2.156
		c0.563,0.039,1.098,0.059,1.605,0.059c0.469,0,0.746-0.039,0.832-0.117s0.129-0.203,0.129-0.375v-5.227h-4.383v-8.859h3.188
		c0.211-0.438,0.449-1.063,0.715-1.875h-5.156v8.156c0,4.195-0.793,7.734-2.379,10.617l-1.816-1.207
		c1.375-2.781,2.063-5.988,2.063-9.621v-9.938h15.047V28.35z M182.47,40.924c-0.93,2.031-2.023,3.754-3.281,5.168l-1.758-1.441
		c1.195-1.297,2.203-2.906,3.023-4.828L182.47,40.924z M188.106,33.705v-1.652h-6.738v1.652H188.106z M188.106,37.209v-1.711h-6.738
		v1.711H188.106z M191.259,44.744l-1.875,1.371c-0.406-1.383-1.207-3.137-2.402-5.262l1.828-1.055
		C189.81,41.346,190.626,42.994,191.259,44.744z"/>
	<path fill="#FFFFFF" d="M217.823,28.514h-2.203v16.23c0,0.695-0.186,1.227-0.557,1.594s-0.811,0.568-1.318,0.604
		s-2.078,0.053-4.711,0.053l-0.715-2.25c1.055,0.063,2.055,0.094,3,0.094s1.479-0.014,1.6-0.041s0.232-0.105,0.334-0.234
		s0.152-0.268,0.152-0.416V28.514h-16.441v-2.133h20.859V28.514z M209.808,41.838h-10.582V31.643h10.582V41.838z M207.628,39.752
		v-6.023h-6.223v6.023H207.628z"/>
	<path fill="#FFFFFF" d="M243.602,44.58c0,0.648-0.234,1.215-0.703,1.699s-1.293,0.727-2.473,0.727c-0.539,0-1.098-0.02-1.676-0.059
		l-0.645-2.109l2.684-0.023c0.188,0,0.355-0.08,0.504-0.24s0.223-0.334,0.223-0.521v-4.324h-5.906v6.715h-2.039v-6.715h-5.813
		c-0.266,3.086-0.977,5.543-2.133,7.371l-1.898-1.23c0.672-1,1.191-2.322,1.559-3.967s0.551-3.217,0.551-4.717V26.557h17.766V44.58z
		 M233.57,32.123v-3.48h-5.602v3.48H233.57z M233.57,37.713v-3.598h-5.602v3.598H233.57z M241.516,32.123v-3.48h-5.906v3.48H241.516
		z M241.516,37.713v-3.598h-5.906v3.598H241.516z"/>
	<path fill="#FFFFFF" d="M271.221,34.666h-2.063v-3.844h-7.195v4.629h-1.992v-4.629h-6.797v3.844h-2.039v-5.543h8.836v-0.867h-7.945
		v-1.828h18.164v1.828h-8.227v0.867h9.258V34.666z M271.654,44.311c-0.133,0.781-0.348,1.377-0.645,1.787s-0.621,0.656-0.973,0.738
		s-1.793,0.123-4.324,0.123c-2.102,0-3.451-0.035-4.049-0.105s-1.037-0.275-1.318-0.615s-0.422-0.822-0.422-1.447v-1.348h-7.711
		v-7.336h17.379v7.336h-7.605v0.727c0,0.328,0.123,0.537,0.369,0.627s1.643,0.135,4.189,0.135c1.094,0,1.775-0.008,2.045-0.023
		s0.467-0.117,0.592-0.305s0.188-0.438,0.188-0.75L271.654,44.311z M259.361,34.83c-1.492,0.273-3.234,0.449-5.227,0.527
		l-0.41-1.395c1.578-0.016,3.316-0.156,5.215-0.422L259.361,34.83z M259.244,31.713l-0.387,1.371
		c-1.609-0.219-3.238-0.34-4.887-0.363l0.434-1.348C255.725,31.35,257.338,31.463,259.244,31.713z M259.924,38.932v-1.289h-5.648
		v1.289H259.924z M259.924,41.838v-1.371h-5.648v1.371H259.924z M267.576,38.932v-1.289h-5.59v1.289H267.576z M267.576,41.838
		v-1.371h-5.59v1.371H267.576z M268.49,32.475c-1.625,0.273-3.402,0.449-5.332,0.527l-0.48-1.313
		c1.477-0.023,3.164-0.176,5.063-0.457L268.49,32.475z M268.338,34.139l-0.328,1.359c-1.906-0.313-3.684-0.504-5.332-0.574
		l0.48-1.359C264.58,33.596,266.307,33.787,268.338,34.139z"/>
	<path fill="#FFFFFF" d="M298.605,46.643h-20.883v-1.512h9.41v-1.078h-7.992v-1.348h7.992v-1.031h-7.535v-5.859h17.086v5.859h-7.535
		v1.031h8.191v1.371h-8.191v1.055h9.457V46.643z M298.418,34.83h-20.52v-1.652h20.52V34.83z M296.66,32.217h-17.086v-5.906h17.086
		V32.217z M294.598,28.572v-0.891H281.59v0.891H294.598z M294.598,30.846v-0.984H281.59v0.984H294.598z M287.133,38.123v-0.984
		h-5.52v0.984H287.133z M287.133,40.35v-0.984h-5.496l-0.023,0.984H287.133z M294.621,38.123v-0.984h-5.473v0.984H294.621z
		 M294.621,40.35v-0.984h-5.473v0.984H294.621z"/>
</g>
</svg>
