<?xml version="1.0" encoding="utf-8"?>
<!-- Generator: Adobe Illustrator 16.0.0, SVG Export Plug-In . SVG Version: 6.00 Build 0)  -->
<!DOCTYPE svg PUBLIC "-//W3C//DTD SVG 1.1//EN" "http://www.w3.org/Graphics/SVG/1.1/DTD/svg11.dtd">
<svg version="1.1" id="圖層_1" xmlns="http://www.w3.org/2000/svg" xmlns:xlink="http://www.w3.org/1999/xlink" x="0px" y="0px"
	 width="13.75px" height="23.75px" viewBox="0 0 13.75 23.75" enable-background="new 0 0 13.75 23.75" xml:space="preserve">
<path fill-rule="evenodd" clip-rule="evenodd" fill="#FFFFFF" d="M4.084,22.324c0-3.474,0-6.929,0-10.419c-0.699,0-1.356,0-2.049,0
	c0-1.41,0-2.787,0-4.207c0.656,0,1.313,0,2.008,0c0.01-0.184,0.016-0.327,0.023-0.472c0.035-0.811-0.019-1.636,0.117-2.426
	c0.355-2.039,1.668-3.225,3.737-3.355c1.241-0.08,2.495-0.016,3.774-0.016c0,1.191,0,2.369,0,3.596
	c-0.703,0-1.398-0.008-2.094,0.007C9.38,5.034,9.148,5.06,8.943,5.135c-0.315,0.112-0.457,0.393-0.47,0.709
	C8.452,6.439,8.467,7.037,8.467,7.683c1.1,0,2.18,0,3.313,0c-0.13,1.424-0.253,2.798-0.384,4.21c-1.032,0-2.039,0-3.088,0
	c0,3.495,0,6.95,0,10.432C6.885,22.324,5.507,22.324,4.084,22.324z"/>
</svg>
