<?xml version="1.0" encoding="utf-8"?>
<!-- Generator: Adobe Illustrator 16.0.0, SVG Export Plug-In . SVG Version: 6.00 Build 0)  -->
<!DOCTYPE svg PUBLIC "-//W3C//DTD SVG 1.1//EN" "http://www.w3.org/Graphics/SVG/1.1/DTD/svg11.dtd">
<svg version="1.1" id="圖層_1" xmlns="http://www.w3.org/2000/svg" xmlns:xlink="http://www.w3.org/1999/xlink" x="0px" y="0px"
	 width="170.5px" height="44.064px" viewBox="0 0 170.5 44.064" enable-background="new 0 0 170.5 44.064" xml:space="preserve">
<g>
	<g>
		
			<circle fill-rule="evenodd" clip-rule="evenodd" fill="#2B2125" stroke="#FFFFFF" stroke-width="1.3691" stroke-miterlimit="10" cx="84.862" cy="22.169" r="20.487"/>
		<g>
			<path fill-rule="evenodd" clip-rule="evenodd" fill="#FFFFFF" d="M85.083,13.753c2.642,0.03,5.331,0.036,7.984,0.268
				c2.318,0.201,3.241,1.168,3.503,3.476c0.368,3.218,0.409,6.439-0.08,9.651c-0.314,2.061-1.328,2.964-3.432,3.14
				c-4.259,0.355-8.527,0.384-12.794,0.217c-1.426-0.055-2.85-0.183-4.27-0.336c-1.403-0.149-2.325-0.971-2.62-2.327
				c-0.251-1.145-0.392-2.324-0.441-3.495c-0.107-2.471-0.113-4.945,0.312-7.397c0.304-1.751,1.328-2.752,3.101-2.913
				c1.518-0.139,3.043-0.224,4.565-0.272C82.3,13.718,83.692,13.753,85.083,13.753C85.085,13.692,85.081,13.814,85.083,13.753z
				 M88.611,22.146c-2.104-1.199-4.102-2.337-6.128-3.491c0,2.376,0,4.645,0,6.989C84.531,24.473,86.519,23.343,88.611,22.146z"/>
			
				<path fill-rule="evenodd" clip-rule="evenodd" fill="#2B2125" stroke="#FFFFFF" stroke-width="0.5071" stroke-miterlimit="10" d="
				M88.611,22.146c-2.093,1.196-4.08,2.326-6.128,3.498c0-2.345,0-4.613,0-6.989C84.51,19.81,86.507,20.947,88.611,22.146z"/>
		</g>
	</g>
	<g>
		
			<circle fill-rule="evenodd" clip-rule="evenodd" fill="#2B2125" stroke="#FFFFFF" stroke-width="1.3691" stroke-miterlimit="10" cx="21.203" cy="22.169" r="20.487"/>
		<path fill-rule="evenodd" clip-rule="evenodd" fill="#FFFFFF" d="M18.38,32.629c0-3.474,0-6.929,0-10.419
			c-0.699,0-1.356,0-2.049,0c0-1.41,0-2.787,0-4.207c0.656,0,1.313,0,2.008,0c0.01-0.184,0.016-0.327,0.023-0.472
			c0.035-0.811-0.019-1.636,0.117-2.426c0.355-2.039,1.668-3.225,3.737-3.355c1.241-0.08,2.495-0.016,3.774-0.016
			c0,1.191,0,2.369,0,3.596c-0.703,0-1.398-0.008-2.094,0.007c-0.222,0.002-0.453,0.027-0.658,0.103
			c-0.315,0.112-0.457,0.393-0.47,0.709c-0.021,0.596-0.007,1.193-0.007,1.839c1.1,0,2.18,0,3.313,0
			c-0.13,1.424-0.253,2.798-0.384,4.21c-1.032,0-2.039,0-3.088,0c0,3.495,0,6.95,0,10.432C21.181,32.629,19.803,32.629,18.38,32.629
			z"/>
	</g>
	<g>
		<path fill-rule="evenodd" clip-rule="evenodd" fill="#2B2125" stroke="#FFFFFF" stroke-width="1.3691" stroke-miterlimit="10" d="
			M169.008,22.17c0,11.314-9.174,20.485-20.485,20.485c-11.315,0-20.489-9.171-20.489-20.485c0-11.315,9.174-20.487,20.489-20.487
			C159.834,1.683,169.008,10.854,169.008,22.17z"/>
		<g>
			<path fill-rule="evenodd" clip-rule="evenodd" fill="#FFFFFF" d="M148.484,33.421c-2.229-0.019-4.449,0.029-6.604-0.387
				c-2.683-0.518-4.381-2.548-4.478-5.285c-0.137-3.821-0.129-7.653,0.014-11.473c0.1-2.696,2.336-5.104,5.025-5.232
				c4.036-0.194,8.098-0.186,12.133-0.004c2.613,0.117,4.909,2.415,5.022,5.021c0.181,4.039,0.193,8.098-0.004,12.133
				c-0.134,2.701-2.527,4.771-5.229,5.063c-0.536,0.058-1.069,0.149-1.605,0.158C151.332,33.438,149.907,33.421,148.484,33.421
				C148.479,33.477,148.487,33.368,148.484,33.421z M148.504,31.338c1.682,0,3.36,0.042,5.036-0.011
				c2.495-0.075,4.146-1.716,4.186-4.229c0.057-3.324,0.06-6.651,0-9.975c-0.04-2.51-1.691-4.166-4.203-4.209
				c-3.355-0.063-6.714-0.066-10.067,0.001c-2.453,0.048-4.098,1.716-4.142,4.175c-0.057,3.356-0.057,6.716,0.002,10.071
				c0.042,2.446,1.704,4.081,4.154,4.164C145.146,31.384,146.828,31.338,148.504,31.338z"/>
			
				<path fill-rule="evenodd" clip-rule="evenodd" fill="#2B2125" stroke="#FFFFFF" stroke-width="0.0475" stroke-miterlimit="10" d="
				M148.504,31.338c-1.676,0-3.357,0.046-5.034-0.013c-2.45-0.083-4.112-1.718-4.154-4.164c-0.059-3.355-0.059-6.715-0.002-10.071
				c0.044-2.459,1.688-4.127,4.142-4.175c3.354-0.067,6.712-0.064,10.067-0.001c2.512,0.043,4.163,1.699,4.203,4.209
				c0.06,3.323,0.057,6.65,0,9.975c-0.04,2.514-1.69,4.154-4.186,4.229C151.864,31.38,150.186,31.338,148.504,31.338z
				 M148.569,16.311c-3.211-0.016-5.827,2.55-5.856,5.735c-0.027,3.207,2.538,5.851,5.711,5.88c3.261,0.029,5.897-2.556,5.907-5.783
				C154.335,18.938,151.752,16.323,148.569,16.311z M153.247,16.036c-0.014,0.753,0.546,1.332,1.303,1.351
				c0.758,0.016,1.315-0.532,1.325-1.298c0.012-0.807-0.478-1.313-1.274-1.327C153.825,14.749,153.259,15.282,153.247,16.036z"/>
			<path fill-rule="evenodd" clip-rule="evenodd" fill="#FFFFFF" d="M148.569,16.311c3.183,0.013,5.766,2.628,5.762,5.832
				c-0.01,3.228-2.646,5.813-5.907,5.783c-3.173-0.029-5.738-2.673-5.711-5.88C142.742,18.86,145.358,16.295,148.569,16.311z
				 M148.484,25.95c1.984,0.052,3.785-1.706,3.867-3.771c0.073-1.968-1.682-3.797-3.746-3.893c-1.991-0.095-3.902,1.77-3.918,3.816
				C144.674,24.109,146.437,25.897,148.484,25.95z"/>
			<path fill-rule="evenodd" clip-rule="evenodd" fill="#FFFFFF" d="M153.247,16.036c0.012-0.754,0.578-1.287,1.354-1.274
				c0.797,0.014,1.286,0.521,1.274,1.327c-0.01,0.766-0.567,1.313-1.325,1.298C153.793,17.368,153.233,16.789,153.247,16.036z"/>
			
				<path fill-rule="evenodd" clip-rule="evenodd" fill="#2B2125" stroke="#FFFFFF" stroke-width="0.0475" stroke-miterlimit="10" d="
				M148.484,25.95c-2.048-0.053-3.811-1.841-3.797-3.847c0.016-2.047,1.927-3.911,3.918-3.816c2.064,0.096,3.819,1.925,3.746,3.893
				C152.27,24.244,150.469,26.002,148.484,25.95z"/>
		</g>
	</g>
</g>
</svg>
