<?xml version="1.0" encoding="utf-8"?>
<!-- Generator: Adobe Illustrator 16.0.0, SVG Export Plug-In . SVG Version: 6.00 Build 0)  -->
<!DOCTYPE svg PUBLIC "-//W3C//DTD SVG 1.1//EN" "http://www.w3.org/Graphics/SVG/1.1/DTD/svg11.dtd">
<svg version="1.1" id="圖層_1" xmlns="http://www.w3.org/2000/svg" xmlns:xlink="http://www.w3.org/1999/xlink" x="0px" y="0px"
	 width="180px" height="162.581px" viewBox="0 0 198.064 162.581" enable-background="new 0 0 198.064 162.581"
	 xml:space="preserve">
<path fill="#FFFFFF" d="M148.299,52.824c0,27.362-22.182,49.545-49.545,49.545c-27.361,0-49.543-22.183-49.543-49.545
	S71.393,3.279,98.754,3.279C126.117,3.279,148.299,25.461,148.299,52.824"/>
<g>
	<path fill="#2B2125" d="M93.622,42.328H90.08v1.529c0,0.463-0.135,0.855-0.404,1.178s-0.835,0.483-1.696,0.483
		c-0.363,0-0.917-0.015-1.661-0.044l-0.413-1.424c1.201,0.018,1.929,0.012,2.185-0.018c0.254-0.029,0.382-0.161,0.382-0.396v-1.31
		H77.925v-1.301h10.547v-0.554h1.608v0.554h3.542V42.328z M93.446,40.007l-1.336,0.773c-0.334-0.422-0.586-0.718-0.756-0.888
		c-5.057,0.287-9.258,0.407-12.604,0.36l-0.413-1.274c0.867,0.018,1.869,0.026,3.006,0.026c1.506,0,2.719-0.015,3.639-0.044v-0.958
		h-5.493V32.8h5.493v-0.844h-6.838v-1.239h6.838V29.83h1.547v0.888h6.732v1.239h-6.732V32.8h5.563v5.203h-0.466
		C92.307,38.695,92.913,39.363,93.446,40.007z M85,44.2l-1.204,1.116c-0.645-0.48-1.576-1.022-2.795-1.626l1.195-1.116
		C83.274,43.078,84.209,43.62,85,44.2z M84.982,34.875v-0.879h-3.92v0.879H84.982z M84.982,36.764v-0.809h-3.92v0.809H84.982z
		 M90.546,34.875v-0.879h-4.017v0.879H90.546z M90.546,36.764v-0.809h-4.017v0.809H90.546z M90.581,38.003h-4.052v0.905
		c1.652-0.053,2.871-0.126,3.656-0.22c-0.135-0.164-0.249-0.284-0.343-0.36L90.581,38.003z"/>
	<path fill="#2B2125" d="M102.26,41.299c-0.234,1.664-0.606,3.085-1.116,4.263l-1.274-0.554c0.504-1.283,0.864-2.622,1.081-4.017
		L102.26,41.299z M106.496,33.178c-1.318,2.396-2.687,4.33-4.104,5.801c0.463-0.076,1.104-0.231,1.925-0.466
		c-0.1-0.316-0.214-0.589-0.343-0.817l1.169-0.431c0.498,0.979,0.847,1.928,1.046,2.848l-1.204,0.431
		c-0.07-0.369-0.138-0.633-0.202-0.791c-1.324,0.369-2.807,0.686-4.447,0.949l-0.325-1.239c1.096-0.938,2.13-2.124,3.103-3.56
		c-0.762,0.141-1.649,0.272-2.663,0.396l-0.29-1.134c1.219-1.43,2.291-3.261,3.217-5.493l1.424,0.545
		c-0.639,1.482-1.485,2.968-2.54,4.456c0.668-0.059,1.257-0.135,1.767-0.229c0.34-0.504,0.683-1.104,1.028-1.802L106.496,33.178z
		 M104.677,44.824l-1.424,0.29c0-1.219-0.149-2.484-0.448-3.797l1.31-0.29C104.407,42.357,104.595,43.623,104.677,44.824z
		 M106.654,42.635l-1.169,0.431c-0.164-0.709-0.422-1.4-0.773-2.074l1.169-0.343C106.18,41.293,106.438,41.956,106.654,42.635z
		 M109.73,38.381c0.1,2.35-0.984,4.611-3.252,6.785l-1.063-1.002c1.559-1.324,2.499-2.777,2.821-4.359h-1.819v-1.424H109.73z
		 M115.892,43.769l-1.081,1.362c-1.102-0.867-2.127-2.109-3.076-3.727v2.681c0,0.539-0.211,0.929-0.633,1.169s-1.269,0.36-2.54,0.36
		l-0.431-1.635c0.803,0.023,1.339,0.025,1.608,0.004c0.27-0.02,0.404-0.118,0.404-0.294v-6.425h-3.366v-5.959h2.232
		c0.328-0.486,0.601-1.025,0.817-1.617l1.564,0.343c-0.158,0.451-0.357,0.876-0.598,1.274h3.981v5.959h-3.041v1.389
		c0.129,0.258,0.319,0.589,0.571,0.993c0.521-0.381,1.151-0.964,1.89-1.749l1.099,0.993c-0.586,0.633-1.318,1.304-2.197,2.013
		C113.771,41.841,114.702,42.796,115.892,43.769z M113.229,33.635v-1.028h-4.878v1.028H113.229z M113.229,35.991v-1.063h-4.878
		v1.063H113.229z"/>
</g>
<g>
	<path fill="#2B2125" d="M74.251,73.478H63.563v-2.297h3.973V58.068l-4.078,1.102v-2.414l6.832-1.793v16.219h3.961V73.478z"/>
	<path fill="#2B2125" d="M83.179,70.689c1.008,0.594,2.105,0.891,3.293,0.891c1.586,0,2.805-0.602,3.656-1.805
		s1.277-2.891,1.277-5.063c-0.023,0-0.043-0.004-0.059-0.012c-0.789,1.422-2.094,2.133-3.914,2.133
		c-1.539,0-2.799-0.535-3.779-1.605s-1.471-2.41-1.471-4.02c0-1.813,0.557-3.297,1.67-4.453s2.564-1.734,4.354-1.734
		c1.883,0,3.342,0.727,4.377,2.18s1.553,3.516,1.553,6.188c0,3.25-0.652,5.795-1.957,7.635s-3.172,2.76-5.602,2.76
		c-1.305,0-2.438-0.211-3.398-0.633V70.689z M84.925,60.904c0,1.125,0.287,2.021,0.861,2.689s1.369,1.002,2.385,1.002
		c0.883,0,1.619-0.305,2.209-0.914s0.885-1.355,0.885-2.238c0-1.164-0.291-2.156-0.873-2.977s-1.365-1.23-2.35-1.23
		c-0.914,0-1.662,0.355-2.244,1.066S84.925,59.88,84.925,60.904z"/>
	<path fill="#2B2125" d="M113.645,73.478h-10.688v-2.297h3.973V58.068l-4.078,1.102v-2.414l6.832-1.793v16.219h3.961V73.478z"/>
	<path fill="#2B2125" d="M133.342,73.478h-10.688v-2.297h3.973V58.068l-4.078,1.102v-2.414l6.832-1.793v16.219h3.961V73.478z"/>
</g>
<g>
	<path fill="#FFFFFF" stroke="#FFFFFF" stroke-miterlimit="10" d="M30.757,131.1c0-0.633,0.077-1.176,0.233-1.631
		c0.154-0.453,0.391-0.871,0.707-1.252s0.713-0.758,1.191-1.129c0.477-0.373,1.038-0.793,1.683-1.262
		c0.861-0.615,1.474-1.123,1.837-1.525c0.363-0.4,0.637-0.822,0.822-1.266c0.184-0.441,0.276-0.941,0.276-1.498
		c0-0.873-0.245-1.563-0.733-2.066c-0.49-0.504-1.186-0.756-2.088-0.756c-1.131,0-2.265,0.508-3.401,1.521v-1.064
		c1.09-0.855,2.273-1.283,3.551-1.283c1.096,0,1.974,0.322,2.632,0.967c0.66,0.645,0.989,1.492,0.989,2.541
		c0,0.668-0.107,1.264-0.321,1.789c-0.214,0.523-0.52,1.014-0.918,1.471s-1.116,1.059-2.153,1.803
		c-1.025,0.721-1.751,1.287-2.175,1.701c-0.426,0.412-0.726,0.818-0.901,1.217s-0.264,0.861-0.264,1.389v0.141h6.768v0.826h-7.734
		V131.1z"/>
	<path fill="#FFFFFF" stroke="#FFFFFF" stroke-miterlimit="10" d="M49.087,118.117v9.256h2.127v0.816h-2.127v3.543h-0.905v-3.543
		h-6.486v-0.879c1.254-1.418,2.479-2.979,3.678-4.684s2.114-3.209,2.747-4.51H49.087z M48.182,127.373v-7.656
		c-0.703,1.207-1.533,2.488-2.492,3.842c-0.957,1.354-1.94,2.625-2.948,3.814H48.182z"/>
	<path fill="#FFFFFF" stroke="#FFFFFF" stroke-miterlimit="10" d="M58.18,120.719c-0.779,3.504-1.96,6.311-3.542,8.42l-0.527-0.43
		c1.553-2.18,2.692-4.904,3.419-8.174L58.18,120.719z M62.557,131.371c0,0.322-0.092,0.584-0.277,0.783
		c-0.184,0.199-0.393,0.324-0.623,0.377c-0.232,0.053-0.664,0.08-1.297,0.08c-0.563,0-1.002-0.012-1.318-0.035l-0.246-0.738
		c0.422,0.023,0.926,0.035,1.512,0.035c0.34,0,0.621-0.004,0.844-0.01s0.393-0.082,0.51-0.229s0.176-0.324,0.176-0.535v-14.107
		h0.721V131.371z M69.79,128.797l-0.598,0.289c-0.844-2.771-1.893-5.531-3.146-8.279l0.598-0.289
		C67.979,123.395,69.028,126.154,69.79,128.797z"/>
	<path fill="#FFFFFF" stroke="#FFFFFF" stroke-miterlimit="10" d="M78.32,131.459H77.6v-1.133h-2.733v1.643h-0.721v-13.771h4.175
		V131.459z M77.6,123.795v-4.93h-2.733v4.93H77.6z M77.6,129.658v-5.195h-2.733v5.195H77.6z M89.104,126.547h-2.127v5.01
		c0,0.223-0.067,0.422-0.202,0.602c-0.135,0.178-0.316,0.297-0.545,0.355s-0.732,0.088-1.512,0.088l-1.213-0.025l-0.29-0.738
		c0.645,0.041,1.213,0.061,1.705,0.061c0.527,0,0.882-0.02,1.063-0.057c0.182-0.039,0.272-0.219,0.272-0.541v-4.754h-7.049v-0.686
		h7.049v-1.855h0.721v1.855h2.127V126.547z M88.92,119.928h-4.421v2.734h3.665v0.65h-8.06v-0.65h3.674v-2.734h-4.43v-0.686h4.43
		v-2.25h0.721v2.25h4.421V119.928z M83.523,130.238l-0.633,0.43c-0.592-1.078-1.304-2.068-2.136-2.971l0.589-0.43
		C82.152,128.1,82.879,129.09,83.523,130.238z"/>
	<path fill="#FFFFFF" stroke="#FFFFFF" stroke-miterlimit="10" d="M108.366,126.678l-0.378,0.643
		c-2.988-0.398-5.449-1.07-7.383-2.014c-2.273,0.99-4.828,1.662-7.664,2.014l-0.325-0.643c2.789-0.34,5.206-0.922,7.251-1.748
		c-1.084-0.615-2.115-1.395-3.094-2.338c-0.814,0.703-1.685,1.314-2.61,1.836l-0.483-0.545c1.898-1.008,3.498-2.393,4.799-4.156
		l0.668,0.289c-0.281,0.416-0.636,0.854-1.063,1.311h7.128v0.668c-1.043,1.213-2.309,2.191-3.797,2.936
		C103.143,125.709,105.46,126.291,108.366,126.678z M107.716,122.082h-0.721v-2.893H94.304v2.893h-0.721v-3.543h6.864
		c-0.152-0.416-0.393-0.902-0.721-1.459l0.738-0.254c0.357,0.604,0.633,1.174,0.826,1.713h6.425V122.082z M105.844,132.576h-0.721
		v-0.879h-9.035v0.879h-0.721v-4.809h10.477V132.576z M105.123,131.029v-2.594h-9.035v2.594H105.123z M104.49,122.012h-6.908
		l-0.123,0.105c1.031,1.02,2.159,1.848,3.384,2.486C102.284,123.924,103.5,123.061,104.49,122.012z"/>
	<path fill="#FFFFFF" stroke="#FFFFFF" stroke-miterlimit="10" d="M118.101,131.389c0,0.498-0.138,0.824-0.413,0.98
		c-0.275,0.154-0.797,0.232-1.564,0.232l-0.923-0.025l-0.193-0.721c0.357,0.029,0.735,0.043,1.134,0.043
		c0.568,0,0.917-0.033,1.046-0.1c0.129-0.068,0.193-0.205,0.193-0.41v-5.018h-3.146c-0.141,2.109-0.633,4.189-1.477,6.24
		l-0.65-0.572c0.973-2.115,1.459-4.496,1.459-7.145v-7.488h4.535V131.389z M117.38,125.703v-3.49h-3.094l-0.018,3.49H117.38z
		 M117.38,121.545v-3.471h-3.094v3.471H117.38z M127.856,132.092l-0.448,0.555c-1.236-0.58-2.291-1.336-3.164-2.268
		c-0.732,0.768-1.664,1.523-2.795,2.268l-0.519-0.467c1.201-0.744,2.153-1.512,2.856-2.303c-1.248-1.488-2.104-3.4-2.566-5.738
		h-0.686v8.438h-0.721v-15.17h7.488c-0.111,1.846-0.232,3.02-0.365,3.52c-0.131,0.502-0.344,0.836-0.637,1.002
		c-0.293,0.168-0.92,0.25-1.881,0.25l-0.914-0.025l-0.308-0.695c0.516,0.035,0.97,0.053,1.362,0.053
		c0.744,0,1.227-0.063,1.445-0.188c0.221-0.127,0.4-1.209,0.541-3.248h-6.012v5.396h6.478c-0.211,2.678-0.979,4.801-2.303,6.371
		C125.595,130.779,126.644,131.529,127.856,132.092z M126.274,124.139h-4.342c0.34,1.98,1.116,3.709,2.329,5.186
		C125.381,127.912,126.052,126.184,126.274,124.139z"/>
	<path fill="#FFFFFF" stroke="#FFFFFF" stroke-miterlimit="10" d="M147.118,129.262h-3.885v1.951c0,0.463-0.114,0.809-0.343,1.037
		s-0.639,0.344-1.23,0.344l-1.67-0.018l-0.237-0.686c0.568,0.029,1.116,0.043,1.644,0.043c0.498,0,0.809-0.043,0.932-0.127
		s0.185-0.236,0.185-0.453v-2.092h-11.021v-0.623h11.021v-1.012h0.721v1.012h3.885V129.262z M146.898,118.785H139.7v1.389h5.73
		v4.738h-1.046c0.867,0.779,1.635,1.625,2.303,2.539l-0.563,0.467c-0.293-0.434-0.586-0.807-0.879-1.117
		c-4.682,0.352-9.108,0.537-13.28,0.555l-0.167-0.678h0.492c1.764,0,3.993-0.055,6.688-0.166v-1.6h-5.722v-4.738h5.722v-1.389
		h-7.251v-0.623h7.251v-1.17h0.721v1.17h7.198V118.785z M138.979,122.23v-1.441h-5.001v1.441H138.979z M138.979,124.297v-1.477
		h-5.001v1.477H138.979z M137.688,131.529l-0.483,0.545c-0.75-0.674-1.608-1.279-2.575-1.818l0.431-0.52
		C136.044,130.264,136.92,130.861,137.688,131.529z M144.71,122.23v-1.441h-5.01v1.441H144.71z M144.71,124.297v-1.477h-5.01v1.477
		H144.71z M144.728,126.203c-0.299-0.34-0.601-0.633-0.905-0.879l0.448-0.412h-4.57v1.582
		C141.429,126.459,143.104,126.361,144.728,126.203z"/>
	<path fill="#FFFFFF" stroke="#FFFFFF" stroke-miterlimit="10" d="M152.625,128.313c-0.27,1.518-0.653,2.957-1.151,4.316
		l-0.686-0.299c0.475-1.172,0.847-2.566,1.116-4.184L152.625,128.313z M157.055,120.121c-1.172,2.133-2.859,4.33-5.063,6.592
		c1.113-0.188,2.326-0.465,3.639-0.834l-0.571-1.381l0.677-0.254c0.604,1.412,0.981,2.408,1.134,2.988l-0.712,0.254
		c-0.023-0.123-0.126-0.453-0.308-0.992c-1.436,0.393-2.991,0.734-4.667,1.027l-0.246-0.633c1.629-1.729,2.851-3.148,3.665-4.262
		c-0.697,0.111-1.705,0.248-3.023,0.412l-0.176-0.668c1.318-1.646,2.405-3.451,3.261-5.414l0.694,0.264
		c-0.92,1.91-1.939,3.592-3.059,5.045l2.848-0.395c0.363-0.527,0.776-1.213,1.239-2.057L157.055,120.121z M154.998,132.127
		l-0.729,0.123c-0.088-1.389-0.252-2.707-0.492-3.955l0.686-0.148C154.731,129.389,154.91,130.715,154.998,132.127z
		 M157.143,129.982l-0.721,0.221c-0.135-0.598-0.354-1.295-0.659-2.092l0.659-0.211
		C156.727,128.604,156.967,129.297,157.143,129.982z M160.386,125.809c-0.234,2.672-1.471,4.783-3.709,6.336l-0.466-0.535
		c1.898-1.26,3.026-2.971,3.384-5.133h-2.285v-0.668H160.386z M166.591,131.301l-0.483,0.572c-1.781-1.219-3.126-2.635-4.034-4.246
		v3.568c0,0.908-0.492,1.363-1.477,1.363h-1.362l-0.255-0.686c0.357,0.029,0.727,0.043,1.107,0.043c0.563,0,0.914-0.037,1.055-0.109
		c0.141-0.074,0.211-0.242,0.211-0.506v-7.25h-3.507v-5.406h2.338c0.334-0.439,0.718-1.045,1.151-1.818l0.668,0.342
		c-0.246,0.428-0.563,0.92-0.949,1.477h4.386v5.406h-3.366v2.012c0.164,0.422,0.381,0.871,0.65,1.346
		c0.791-0.645,1.547-1.4,2.268-2.268l0.545,0.527c-0.721,0.832-1.544,1.594-2.47,2.285
		C163.846,129.137,165.021,130.252,166.591,131.301z M164.719,121v-1.688h-6.152V121H164.719z M164.719,123.383v-1.715h-6.152v1.715
		H164.719z"/>
</g>
<g>
	<path fill="#FFFFFF" stroke="#FFFFFF" stroke-miterlimit="10" d="M19.556,150.773c-0.123,1.248-0.272,2.027-0.448,2.338
		s-0.416,0.523-0.721,0.639c-0.305,0.113-1.11,0.17-2.417,0.17c-1.494,0-2.413-0.1-2.755-0.299
		c-0.344-0.199-0.515-0.621-0.515-1.266v-4.025h-1.028c-0.973,3.217-3.469,5.16-7.488,5.828l-0.343-0.625
		c3.85-0.709,6.208-2.443,7.075-5.203H5.985v-4.736c-0.545,0.381-1.078,0.711-1.6,0.992l-0.308-0.545
		c2.238-1.201,4.242-3.029,6.012-5.484l0.606,0.316c-0.375,0.533-0.765,1.025-1.169,1.477h5.783v0.668
		c-0.504,0.627-1.277,1.439-2.32,2.436h4.852v4.877h-4.421v4.025c0,0.498,0.13,0.779,0.392,0.844c0.26,0.064,0.9,0.098,1.92,0.098
		c1.23,0,1.967-0.027,2.211-0.084c0.242-0.055,0.438-0.271,0.584-0.646s0.243-1.074,0.29-2.1L19.556,150.773z M14.44,141.018H8.938
		c-0.826,0.873-1.746,1.686-2.76,2.436h5.871C13.011,142.539,13.808,141.727,14.44,141.018z M11.584,144.129H6.706v3.516h4.412
		C11.347,146.719,11.502,145.547,11.584,144.129z M17.13,147.645v-3.516h-4.825c-0.082,1.406-0.234,2.578-0.457,3.516H17.13z"/>
	<path fill="#FFFFFF" stroke="#FFFFFF" stroke-miterlimit="10" d="M27.708,138.662c-0.141,0.516-0.375,1.182-0.703,1.996
		l-0.501,1.133v12.385h-0.721v-11.014c-0.65,1.125-1.412,2.15-2.285,3.076l-0.431-0.588c1.904-2.121,3.211-4.535,3.92-7.242
		L27.708,138.662z M38.87,142.6h-2.391v10.459c0,0.744-0.422,1.117-1.266,1.117h-2.426l-0.29-0.668h2.751
		c0.34,0,0.51-0.156,0.51-0.467V142.6h-8.016v-0.658h8.016v-3.35h0.721v3.35h2.391V142.6z M32.929,149.746l-0.703,0.359
		c-0.633-1.617-1.491-3.199-2.575-4.746l0.686-0.342C31.502,146.723,32.366,148.299,32.929,149.746z"/>
	<path fill="#FFFFFF" stroke="#FFFFFF" stroke-miterlimit="10" d="M57.947,143.338c-0.059,1.096-0.145,1.766-0.26,2.01
		c-0.113,0.242-0.262,0.393-0.443,0.447c-0.182,0.057-0.68,0.084-1.494,0.084v6.012h-7.409l0.396,0.51
		c-1.664,0.803-3.598,1.412-5.801,1.828l-0.378-0.625c2.068-0.334,3.94-0.904,5.616-1.713H45.08v-5.564
		c-0.674,0.293-1.4,0.539-2.18,0.738l-0.378-0.641c2.244-0.469,3.812-1.293,4.702-2.471h-3.639l0.466-2.557h4.175
		c0.076-0.539,0.12-0.965,0.132-1.275h-5.326v-0.615h5.344v-0.932h0.721v0.932h3.199v-0.932h0.721v0.932h4.192v2.506h-4.192v1.326
		H57.947z M48.121,142.012h-3.437l-0.255,1.326h3.19C47.843,142.945,48.01,142.504,48.121,142.012z M55.038,147.539v-1.248h-9.237
		v1.248H55.038z M55.038,149.385v-1.238h-9.237v1.238H55.038z M55.038,151.283V150h-9.237v1.283H55.038z M57.174,143.953h-4.157
		v1.223h-0.721v-1.223h-4.192c-0.428,0.656-1.028,1.234-1.802,1.732h9.202l-0.149-0.475l1.318,0.018
		C57.007,145.229,57.174,144.803,57.174,143.953z M52.296,143.338v-1.326h-3.419c-0.082,0.445-0.226,0.887-0.431,1.326H52.296z
		 M52.296,141.396v-1.275h-3.217c-0.023,0.439-0.062,0.865-0.114,1.275H52.296z M58.202,153.621l-0.325,0.625
		c-1.717-0.563-3.606-0.994-5.669-1.293l0.308-0.633C54.402,152.584,56.298,153.018,58.202,153.621z M56.488,141.396v-1.275h-3.472
		v1.275H56.488z"/>
	<path fill="#FFFFFF" stroke="#FFFFFF" stroke-miterlimit="10" d="M69.492,147.936c-0.41-0.217-0.615-0.492-0.615-0.826
		c0-0.223,0.07-0.406,0.211-0.549c0.141-0.145,0.337-0.217,0.589-0.217c0.27,0,0.473,0.094,0.61,0.277
		c0.138,0.186,0.207,0.443,0.207,0.777c0,0.586-0.34,1.152-1.02,1.697l-0.352-0.299C69.369,148.457,69.492,148.17,69.492,147.936z"
		/>
	<path fill="#FFFFFF" stroke="#FFFFFF" stroke-miterlimit="10" d="M87.365,138.803c-1.049,3.223-2.933,5.84-5.651,7.85l-0.58-0.555
		c2.643-1.881,4.474-4.395,5.493-7.541L87.365,138.803z M95.513,153.982l-0.642,0.377c-0.305-0.744-0.683-1.531-1.134-2.363
		c-3.568,0.955-6.935,1.578-10.099,1.871l-0.22-0.791c1.811-2.174,3.551-5.293,5.221-9.359l0.721,0.307
		c-1.523,3.697-3.155,6.697-4.896,9c2.285-0.164,5.25-0.727,8.895-1.688c-0.551-0.955-1.327-2.139-2.329-3.551l0.65-0.377
		C93.38,149.793,94.657,151.984,95.513,153.982z M96.954,145.932l-0.466,0.633c-2.174-1.494-3.902-3.877-5.186-7.146h-1.345v-0.686
		H91.9C92.99,142.008,94.675,144.408,96.954,145.932z"/>
	<path fill="#FFFFFF" stroke="#FFFFFF" stroke-miterlimit="10" d="M106.715,149.807c-1.553,1.787-3.448,3.273-5.687,4.457
		l-0.475-0.572c2.244-1.207,4.075-2.654,5.493-4.342L106.715,149.807z M116.163,148.4h-15.495v-0.686h4.14v-4.789h-3.463v-0.686
		h3.463v-3.648h0.721v3.648h5.722v-3.648h0.721v3.648h3.56v0.686h-3.56v4.789h4.192V148.4z M111.232,147.715v-4.789h-5.73v4.789
		H111.232z M115.908,153.656l-0.589,0.572c-1.318-1.371-3.018-2.805-5.098-4.299l0.536-0.518
		C112.539,150.648,114.256,152.063,115.908,153.656z"/>
	<path fill="#FFFFFF" stroke="#FFFFFF" stroke-miterlimit="10" d="M135.117,145h-0.721v-3.209h-6.302v3.691h-0.721v-3.691h-6.302
		V145h-0.712v-3.832h7.014v-1.539h-6.478v-0.623h13.676v0.623h-6.478v1.539h7.022V145z M135.671,151.855
		c-0.059,0.744-0.217,1.285-0.475,1.621s-0.688,0.529-1.292,0.576s-1.503,0.07-2.698,0.07c-1.805,0-2.895-0.072-3.27-0.215
		c-0.375-0.145-0.563-0.529-0.563-1.156v-1.346h-5.757v-5.133h12.243v5.133h-5.766v1.512c0,0.199,0.053,0.332,0.158,0.396
		s0.44,0.111,1.007,0.141c0.564,0.029,1.272,0.043,2.122,0.043c1.582,0,2.562-0.043,2.94-0.127c0.377-0.084,0.607-0.693,0.689-1.824
		L135.671,151.855z M126.346,144.85c-1.559,0.352-2.95,0.598-4.175,0.738l-0.193-0.605c1.389-0.141,2.763-0.375,4.122-0.703
		L126.346,144.85z M126.328,143.145l-0.246,0.59c-1.195-0.287-2.522-0.49-3.981-0.607l0.308-0.58
		C123.785,142.664,125.092,142.863,126.328,143.145z M127.374,148.506v-1.6h-5.036v1.6H127.374z M127.374,150.773v-1.635h-5.036
		v1.635H127.374z M133.14,148.506v-1.6h-5.045v1.6H133.14z M133.14,150.773v-1.635h-5.045v1.635H133.14z M133.57,145.035
		l-0.343,0.588c-1.459-0.363-2.9-0.609-4.324-0.738l0.325-0.553C130.822,144.479,132.27,144.713,133.57,145.035z M133.438,143.18
		c-1.646,0.322-3.032,0.521-4.157,0.598l-0.211-0.598c1.148-0.088,2.534-0.287,4.157-0.598L133.438,143.18z"/>
	<path fill="#FFFFFF" stroke="#FFFFFF" stroke-miterlimit="10" d="M145.396,141.088h-6.108v-0.658h2.707
		c-0.164-0.639-0.404-1.223-0.721-1.75l0.721-0.289c0.334,0.557,0.604,1.236,0.809,2.039h2.593V141.088z M144.799,143.682h-5.071
		v-0.668h5.071V143.682z M144.799,146.344h-5.071v-0.658h5.071V146.344z M144.605,153.832h-0.721v-1.037h-3.243v1.381h-0.721v-5.811
		h4.685V153.832z M143.885,152.127v-3.094h-3.243v3.094H143.885z M154.845,144.297H150.6v3.129h3.129v6.75h-0.721v-1.24h-5.546v1.24
		h-0.721v-6.75h3.138v-3.129h-4.254v-0.686h4.254v-3.367c-1.447,0.199-2.637,0.32-3.568,0.361l-0.246-0.686
		c2.672-0.146,5.364-0.561,8.077-1.24l0.308,0.668c-1.154,0.293-2.438,0.557-3.85,0.791v3.473h4.245V144.297z M153.008,152.25
		v-4.139h-5.546v4.139H153.008z"/>
	<path fill="#FFFFFF" stroke="#FFFFFF" stroke-miterlimit="10" d="M161.705,144.094c1.195,0.979,1.793,2.449,1.793,4.412
		c0,1.371-0.759,2.057-2.276,2.057l-0.782-0.018l-0.246-0.738c0.422,0.047,0.762,0.07,1.02,0.07c0.516,0,0.905-0.119,1.169-0.359
		s0.396-0.686,0.396-1.336c0-1.688-0.627-3-1.881-3.938c0.721-1.611,1.283-3.129,1.688-4.553h-2.646v14.484h-0.721v-15.152h4.14
		v0.668C162.854,141.396,162.303,142.863,161.705,144.094z M166.961,148.99c-1.137,1.67-2.332,3.02-3.586,4.051l-0.615-0.518
		c1.307-1.037,2.49-2.359,3.551-3.965L166.961,148.99z M174.212,143.541l-0.431,0.668c-1.986-1.242-3.715-2.725-5.186-4.447
		c-1.078,1.436-2.698,2.918-4.86,4.447l-0.519-0.598c2.268-1.4,4.072-3.117,5.414-5.15l0.65,0.342
		c-0.064,0.129-0.138,0.244-0.22,0.344C170.468,140.887,172.185,142.352,174.212,143.541z M173.764,147.373h-4.72v5.326
		c0,0.973-0.527,1.459-1.582,1.459h-1.204l-0.29-0.721l0.861,0.035c0.674,0,1.091-0.059,1.253-0.176
		c0.16-0.117,0.241-0.285,0.241-0.502v-5.422h-4.192v-0.668h4.192v-2.496h-3.199v-0.668h7.163v0.668h-3.243v2.496h4.72V147.373z
		 M174.089,152.629l-0.615,0.412c-0.82-1.406-1.811-2.742-2.971-4.008l0.58-0.439C172.29,149.889,173.292,151.234,174.089,152.629z"
		/>
	<path fill="#FFFFFF" stroke="#FFFFFF" stroke-miterlimit="10" d="M186.144,141.053c-0.129,3.387-0.779,6.07-1.951,8.047
		c-1.172,1.979-3.018,3.688-5.537,5.129l-0.448-0.572c2.326-1.23,4.055-2.771,5.186-4.623c-1.113-1.605-2.259-3.006-3.437-4.201
		c-0.352,0.598-0.844,1.295-1.477,2.092l-0.527-0.545c1.787-2.063,2.959-4.689,3.516-7.883l0.721,0.166
		c-0.152,0.873-0.34,1.67-0.563,2.391H186.144z M185.37,141.738h-3.955c-0.264,0.773-0.63,1.592-1.099,2.453
		c1.266,1.283,2.429,2.656,3.489,4.121C184.708,146.59,185.229,144.398,185.37,141.738z M193.579,148.076l-0.501,0.553
		c-1.365-1.547-2.807-2.859-4.324-3.938v9.484h-0.721v-15.584h0.721v5.256C190.471,145.031,192.079,146.441,193.579,148.076z"/>
</g>
</svg>
