<?xml version="1.0" encoding="utf-8"?>
<!-- Generator: Adobe Illustrator 23.0.2, SVG Export Plug-In . SVG Version: 6.00 Build 0)  -->
<svg version="1.1" id="圖層_1" xmlns="http://www.w3.org/2000/svg" xmlns:xlink="http://www.w3.org/1999/xlink" x="0px" y="0px"
	 viewBox="0 0 851.7 537" style="enable-background:new 0 0 851.7 537;" xml:space="preserve">
<style type="text/css">
	.st0{fill:#FFFFFF;}
	.st1{fill:#2174A4;stroke:#2174A4;stroke-width:0.3175;stroke-miterlimit:10;}
	.st2{fill:#231815;stroke:#231815;stroke-width:2.6391;stroke-miterlimit:10;}
	.st3{fill:#231815;stroke:#231815;stroke-width:1.3195;stroke-miterlimit:10;}
	.st4{fill:#2F3559;}
</style>
<title>gbzl</title>
<g>
	<path class="st0" d="M576.1,526.6H93.3c-32.9,0-59.4-26.6-59.4-59.4V63.3C34.1,30.4,60.6,3.9,93.3,3.9h482.7
		c32.9,0,59.4,26.6,59.4,59.4v404.1C635.5,500.1,608.8,526.6,576.1,526.6z"/>
	<g>
		<path class="st1" d="M96.4,61.1l-1.6,2.3c-1.6-0.6-3.2-1.6-4.8-2.8v1.9h-6.3V65h11.4v2.5H69.7V65h11.2v-2.5h-6.2v-1.9
			c-1.6,1.3-3.2,2.2-5,2.9l-1.5-2.5c2.6-0.9,4.8-2.2,6.2-4h-5.9v-2.5h5.1v-9.7h-4.4v-2.5h4.4v-2.1h2.8v2.1h11.6v-2.1h2.8v2.1h4.5
			v2.5h-4.5v9.7H96v2.5h-5.9C91.7,58.7,93.8,60.1,96.4,61.1z M89.2,59.9c-1.3-1.2-2.2-2.1-2.8-2.8h-8.7c-0.7,1.2-1.5,2.1-2.3,2.8
			h5.4v-2.1h2.9v2.1H89.2z M87.9,46.7v-1.8H76.3v1.6h11.6V46.7z M87.9,50.7v-1.8H76.3v1.8H87.9z M87.9,54.6v-1.9H76.3v1.9H87.9z"/>
		<path class="st1" d="M131.6,61.2l-2.1,2.1c-5-3.8-8.4-8.2-10.4-13.4v10.4h6.3v2.8h-6.3v5h-2.9v-5h-6.3v-2.8h6.3V49.9
			c-2.2,5.3-5.9,9.7-10.7,13.2l-1.9-2.2c4.7-3.5,8.2-7.8,10.7-13.1h-9.7v-2.8h11.6v-4.7h2.9v4.7h11.7v2.8h-9.8
			C123.1,53,126.7,57.6,131.6,61.2z"/>
		<path class="st1" d="M167.3,50.1l-1.3,2.5c-0.9-0.1-1.8-0.4-2.8-0.7v11.9h-13.4l1.3,1.6c-2.9,1.3-6.5,2.3-10.6,3.1l-1.3-2.5
			c3.1-0.3,5.9-1,8.7-2.1h-4.7v-12h6l-1.2-1.8c3.7-0.9,6.5-2.6,8.2-5l2.9,0.6c-0.3,0.6-0.6,0.9-0.7,1
			C160.8,48.2,163.8,49.3,167.3,50.1z M148.8,49.2h-9.2v-2.6h9.2V49.2z M148.5,44.1H140v-2.5h8.5V44.1z M160.4,55.1v-1.2h-14.1v1.2
			H160.4z M160.4,58.3v-1.2h-14.1v1.2H160.4z M160.4,61.7v-1.2h-14.1v1.2H160.4z M166.7,44.5c-1,1.5-1.9,2.6-2.8,3.5l-2.3-1.5
			c0.3-0.3,0.9-1,1.8-2.1h-10c-1,1.2-1.9,2.1-2.8,2.8l-2.2-1.9c1.6-1.2,3.2-2.9,4.7-5.4l2.6,0.9c-0.1,0.3-0.3,0.7-0.6,1.2h11.6
			C166.7,42,166.7,44.5,166.7,44.5z M162.9,51.7c-2.1-0.7-4.3-1.8-6.2-3.1c-1.3,1.2-3.1,2.2-5.1,3.1H162.9z M167.1,65.9l-1.5,2.5
			c-2.8-0.9-5.9-1.5-9.2-1.9l1.5-2.3C161.1,64.5,164.2,65,167.1,65.9z"/>
		<path class="st1" d="M179.8,54.5c-0.6,3.5-1.3,6.6-2.3,9.2l-2.5-1.2c1-2.6,1.8-5.6,2.2-8.8L179.8,54.5z M179.6,48.3l-2.6,0.9
			c-0.4-2.2-1-4.3-1.8-6.2l2.5-0.9C178.4,44.1,179,46.1,179.6,48.3z M187.8,52.9h-4.3V68h-2.8V52.9h-5.3v-2.6h5.3v-9.8h2.8v9.8h4.3
			V52.9z M188.6,61.8l-2.5,0.7c-0.3-3.1-0.9-5.7-1.6-7.9l2.3-0.7C187.7,56.1,188.3,58.9,188.6,61.8z M188.9,42.7
			c-0.4,2.2-1,4.4-1.8,6.5l-2.5-1.2c0.9-2.2,1.3-4.3,1.8-6.2L188.9,42.7z M195.8,54.5l-1.9,1.9c-1.2-1.6-2.9-3.5-5.3-5.4l1.8-2.2
			C192.7,50.8,194.4,52.7,195.8,54.5z M196.1,46.9l-2.1,1.9c-1.2-1.9-2.8-3.7-4.7-5.3l1.8-2.1C193.3,43.2,194.9,44.9,196.1,46.9z
			 M202.7,59.9l-2.8,0.4V68h-2.8v-7.2l-7.3,1.3l-0.1-2.8l7.6-1.3V40.4h2.8v17.2l2.5-0.4L202.7,59.9z"/>
	</g>
	<path class="st2" d="M585.5,78.4H64.9c-2.5,0-4.5-0.3-4.5-0.6l0,0c0-0.3,2.1-0.6,4.5-0.6h520.6c2.5,0,4.5,0.3,4.5,0.6l0,0
		C590,78.1,588,78.4,585.5,78.4z"/>
	<path class="st3" d="M600.3,382.4H55.5c-0.7,0-1.2-0.4-1.2-0.9l0,0c0-0.4,0.6-0.9,1.2-0.9h544.8c0.7,0,1.2,0.4,1.2,0.9l0,0
		C601.5,382,601,382.4,600.3,382.4z"/>
	<g>
		<g>
			<path class="st4" d="M80,125.6l-1.9,2.1c-0.7-0.7-1.6-1.8-2.8-2.9c-1.5,2.2-3.2,4.1-5.1,5.6l-1.9-1.9c1.9-1.5,3.5-3.2,4.8-5.4
				c-1.3-1.2-2.8-2.3-4.4-3.5c0.9-2.5,1.5-5.1,1.9-7.8c-0.7,0-1.5,0-2.3,0v-2.8c0.6,0,1.5,0,2.8,0c0.4-2.5,0.7-4.5,0.7-6.5l2.8,0.4
				c-0.1,1.3-0.3,3.2-0.7,5.7c0.9,0,1.6,0,2.3-0.1c0-1,0-1.9,0-2.5l2.8,0.1v1.9c0.1,0,0.6,0,1,0v2.6c-0.6,0.1-1,0.1-1.2,0.1
				c-0.4,4.7-1.2,8.4-2.3,11.3C77.9,123.4,79.1,124.8,80,125.6z M76,111.3l-2.6,0.3c-0.3,2.2-0.9,4.4-1.6,6.7
				c0.9,0.6,1.8,1.3,2.5,1.9C75.3,117.4,75.9,114.5,76,111.3z M96,130H79.3v-2.8h7.3v-6.7h-6.3v-2.8h6.3v-6.2h-3.1
				c-0.6,1.9-1.3,3.4-2.1,4.5l-2.3-1.5c1.5-2.5,2.5-6,3.1-10.4l2.6,0.6c0,0.7-0.3,2.1-0.7,4h2.3v-6h2.8v6h6.2v2.8h-6.2v6.2H95v2.8
				h-5.7v6.7h6.6v2.8H96z"/>
			<path class="st4" d="M129.7,130.3h-2.9v-1.6h-13.1v1.6h-2.9v-10.4c-2.1,0.7-3.8,1.3-5.3,1.8l-1.6-2.5c4.8-1.3,9-2.8,12.2-4.4
				c-1.2-1.5-2.6-2.9-4.4-4.5c-1.6,1-3.2,1.9-5,2.8l-1.9-2.2c4.8-2.3,8.8-5.1,11.7-8.5l3.1,0.9c-0.4,0.4-0.9,1-1.6,1.8h11.2v2.8
				c-3.2,4.1-7,7.2-11.7,9.7h12.3V130.3z M126.7,125.9v-5.9h-13.1v5.9H126.7z M125.2,107.7h-10.3c-0.4,0.3-0.7,0.6-1,0.9
				c1.8,1.6,3.4,3.2,4.5,4.8C121.1,111.7,123.3,109.8,125.2,107.7z"/>
		</g>
	</g>
	<g>
		<path class="st4" d="M505.5,129h-27.4v-2.8h12.3v-9.7h-10.7v-2.8h10.7v-8.1h-11.4v-2.8h25.7v2.8h-11.4v8.1h10.7v2.8h-10.7v9.7
			h12.3V129z"/>
		<path class="st4" d="M521.6,126.1h-2.5v-1.9h-2.2v2.8h-2.6v-23.3h7.3V126.1z M519.1,112.6v-6.3h-2.2v6.3H519.1z M519.1,121.5v-6.5
			h-2.2v6.5H519.1z M541.4,125.4c0,1.3-0.3,2.3-0.6,2.9c-0.3,0.6-0.7,0.9-1,1.2c-0.4,0.1-1.2,0.3-2.1,0.3c-1.9,0-3.2-0.1-3.8-0.4
			c-0.6-0.3-0.9-1-0.9-2.2V123h-3.2c-0.3,4-2.9,6.5-7.8,7.2l-1.2-2.5c4.1-0.4,6.2-2.1,6.2-4.7h-4.3v-2.5h18.3v2.5h-5.3v3.5
			c0,0.3,0.1,0.4,0.3,0.6s0.6,0.1,1.2,0.1c0.7,0,1.2-0.1,1.3-0.4c0.1-0.3,0.3-1,0.1-2.2L541.4,125.4z M531,117.9
			c-3.1,0.7-5.9,1.3-8.2,1.8l-0.3-2.3c1-0.1,2.1-0.3,3.1-0.4v-2.2H523v-2.2h2.6V111h2.6v1.5h2.8v2.2h-2.8v1.6
			c0.6-0.1,1.6-0.3,2.8-0.6V117.9z M540.9,110.1h-18.2v-2.2h7.6v-1.6h-6.7v-2.2h6.7v-1.9h2.8v1.8h6.7v2.2h-6.7v1.6h7.8V110.1z
			 M541.3,118.8h-9.4v-2.3h3.1v-1.9h-2.6v-2.1h2.6V111h2.6v1.5h2.9v2.2h-2.9v1.9h3.7V118.8z"/>
		<path class="st4" d="M559.8,125.9H557v-1.8h-4.4v2.5h-2.8v-23h10V125.9z M557,112.6v-6.2h-4.4v6.2H557z M557,121.5v-6.3h-4.4v6.3
			H557z M575.9,126.5c0,1-0.1,1.8-0.4,2.2s-0.7,0.7-1.2,0.9c-0.4,0.1-1.5,0.1-2.8,0.1c-0.9,0-1.8,0-2.6,0l-1-2.8c1.8,0,3.1,0,4.3,0
			c0.7,0,1-0.3,1-0.9v-5.9h-7.3c-0.4,4.3-1.6,7.5-3.4,10l-2.3-1.6c2.1-2.9,3.1-6.9,3.1-11.7v-13.8h12.9v23.5H575.9z M573,110.1v-4.4
			h-7.2v4.4H573z M573,117.6v-4.7h-7.2v4.7H573z"/>
	</g>
	<g>
		<path class="st4" d="M77.9,179.3c-3.4,1.8-6.3,3.1-8.8,4l-0.7-2.6c1.2-0.3,2.2-0.7,3.5-1.3v-11.6h-3.1v-2.6h3.1v-7.2h2.8v7.2h2.8
			v2.6h-2.8v10.4c1-0.4,2.1-0.9,3.1-1.5L77.9,179.3z M96.3,179.2c-0.1,2.1-0.3,3.5-0.9,4.3c-0.4,0.7-1.3,1.2-2.5,1.3
			c-1.2,0.1-3.2,0.1-6.2,0.1c-2.3,0-4,0-4.7-0.1c-0.9-0.1-1.5-0.4-1.9-0.9c-0.4-0.6-0.7-1.3-0.7-2.5v-10.1l-2.2,0.9l-0.3-2.8l2.5-1
			v-7h2.8v5.9l3.7-1.5v-8.1h2.8v7l6.6-2.6c-0.1,5.4-0.6,10-1.3,13.8l-2.6-0.9c0.6-2.9,1-5.9,1.2-8.8l-3.7,1.5v11.9H86v-10.7
			l-3.7,1.5v11c0,0.6,0.3,0.9,0.7,1c0.4,0,1.9,0.1,4.4,0.1s4.1,0,4.8,0s1.2-0.4,1.3-1.2c0.1-0.7,0.1-1.8,0.1-3.1L96.3,179.2z"/>
		<path class="st4" d="M114.8,179.1c-4.3,1.8-7.6,3.1-10.3,4l-0.9-2.8c1.3-0.3,2.9-0.9,4.7-1.5v-10.3h-4v-2.8h4v-7.9h2.8v7.9h3.4
			v2.8h-3.4v9.2c0.7-0.3,1.9-0.7,3.5-1.3L114.8,179.1z M131.5,184.6h-18.9v-2.8h3.5V162h2.9v19.8h3.8v-24.1h2.9v8.8h5.1v2.8h-5.3
			v12.5h5.7v2.8H131.5z"/>
	</g>
	<g>
		<path class="st4" d="M399.3,176.6H380c0,0.6,0,1.2-0.1,1.9h5.3c0,2.8-0.1,4.7-0.3,5.6s-0.6,1.5-1.3,1.8c-0.6,0.3-1.9,0.4-3.7,0.4
			l-1-2.6h2.5c0.4,0,0.6-0.1,0.7-0.4c0.1-0.3,0.3-1.2,0.3-2.5h-2.9c-1.2,2.8-3.2,4.7-6.2,5.9l-1.9-2.2c2.5-0.9,4.1-2.1,5-3.7h-4
			v-2.1h4.7c0.1-0.6,0.1-1.2,0.1-1.9h-5.7v-2.2h8.2c-0.4-0.9-0.7-1.5-1-1.8H374v-5.6h22.9v5.6h-4.8c-0.3,0.4-0.6,1-1,1.8h8.1v2.1
			H399.3z M399.3,161.9h-12.3v1.5h10.4v2.1h-24.1v-2.1H384v-1.5h-12.5v-2.2H384v-1.3h2.9v1.3h12.3V161.9z M394,170.4v-1.5h-17.2v1.5
			H394z M388.8,172.6h-6.7c0.3,0.4,0.6,1,0.9,1.8h4.8C388.3,173.8,388.6,173.2,388.8,172.6z M397.7,186.1h-2.8v-1h-5.3v1h-2.8v-8.4
			h10.7v8.4H397.7z M394.9,183v-3.1h-5.3v3.1H394.9z"/>
		<path class="st4" d="M434.6,170.5H407v-2.2h12.2V167h-9.5V165h9.5v-1.3h-11v-2.2h24.9v2.2h-11v1.3h9.4v2.1h-9.4v1.3h12.3v2.2
			H434.6z M435.1,182c-0.9,2.9-2.1,4.4-3.8,4.4c-1.3,0-2.9-1-4.8-2.9c-2.1,0.9-4.3,1.6-6.5,2.2l-1.2-2.3c2.5-0.6,4.7-1.2,6.2-1.9
			c-0.4-0.9-1-2.3-1.6-4.3h-6.6v1.9l4.4-0.6l0.1,2.1c-1.2,0.1-2.6,0.4-4.5,0.6v2.5c0,0.7-0.3,1.3-0.7,1.8s-1.2,0.7-1.9,0.7
			c-0.7,0-2.2,0-4.1,0l-0.6-2.1c2.6,0,4,0,4.3-0.1c0.3-0.1,0.3-0.3,0.3-0.7v-1.8c-2.5,0.1-4.4,0.3-6.2,0.4l-0.6-2.1
			c2.3,0,4.5-0.1,6.7-0.4V177h-6.5v-1.9h6.5v-1.5c-1.8,0.1-3.4,0.1-4.8,0.1l-0.7-1.9c0.6,0,1,0,1.6,0c2.9,0,6.2-0.3,9.8-1l1,1.8
			c-0.9,0.1-2.2,0.4-4,0.6v1.8h6.2c-0.3-1.9-0.4-3.1-0.4-3.7h2.6c0,1,0.3,2.2,0.6,3.7h9.2v1.9h-8.7c0.3,1,0.7,2.1,1.3,2.9
			c0.7-0.4,1.6-1.2,2.8-2.3l2.2,1.3c-0.9,1-1.9,2.1-3.4,3.1c0.3,0.4,0.6,0.7,1.2,1c0.4,0.3,0.9,0.6,1,0.6c0.4,0,0.7-0.3,1-0.7
			c0.3-0.6,0.6-1.3,0.7-2.2L435.1,182z M418.6,160.1l-3.4,1c-1-0.7-2.1-1.5-2.9-1.8l3.4-1C416.6,158.7,417.5,159.2,418.6,160.1z
			 M429.9,159.1c-0.6,0.6-1.6,1.2-2.9,1.9l-3.5-1c1.2-0.6,2.2-1.2,3.1-1.9L429.9,159.1z M433.2,173.5l-2.8,1.2
			c-0.7-0.7-1.6-1.6-2.8-2.5l2.6-1C431.4,171.9,432.3,172.6,433.2,173.5z"/>
		<path class="st4" d="M470.3,164.7H458v3.8h10.6v11.4c0,2.5-1,3.7-3.1,3.7c-1.8,0-3.1,0-3.8,0l-0.9-2.9c1.5,0.1,2.8,0.1,4,0.1
			c0.1,0,0.3,0,0.6-0.1c0.1-0.1,0.3-0.3,0.3-0.4v-8.8H458v14.8H455v-14.8h-7.6v12.3h-2.9v-15.1h10.4v-3.8h-12.3V162h12.3
			c-0.4-0.9-1-1.9-1.8-2.8l3.1-0.7c0.7,1,1.3,2.2,1.9,3.5H470v2.6H470.3z"/>
		<path class="st4" d="M504.2,177h-10.9v9.1h-2.9V177h-10.9v-13.4h10.9v-5.1h2.9v5.1h10.9V177z M490.4,174.2v-7.8h-7.9v7.8H490.4z
			 M501.2,174.2v-7.8h-7.9v7.8H501.2z"/>
		<path class="st4" d="M539.8,186.1h-2.9v-1.5h-21.7v-21.1h2.9v18.3h8.1v-23.5h2.8v23.5h7.9v-18.3h2.9V186.1z"/>
		<path class="st4" d="M576.8,185.4h-23.2c-0.9,0-1.6-0.3-2.1-0.9c-0.4-0.6-0.7-1.3-0.7-2.2v-20.5h-1.5v-2.5h27.3v2.5h-23v20.4
			c0,0.1,0.1,0.4,0.3,0.6c0.1,0.1,0.4,0.3,0.6,0.3h22.4v2.3H576.8z M564,181.1h-8.8v-8.8h8.8V181.1z M572,170.5h-14.1v-7.2H572
			V170.5z M561.4,178.6v-4h-3.5v4H561.4z M569,168.2v-2.5h-8.4v2.5H569z M574.7,181.1h-9v-8.8h9V181.1z M572.1,178.6v-4h-3.7v4
			H572.1z"/>
		<path class="st4" d="M323,218.2c-0.3,1.3-0.6,2.6-1,4l-0.6,1.9v21.4h-2.6V231c-0.3,0.6-0.7,1.3-1.2,2.1l-1.6-2.8
			c1.9-3.2,3.2-7.3,4.4-12.6L323,218.2z M344.1,242.6l-0.9,2.8c-5.9,0-9.8-0.3-11.7-0.7c-1.9-0.6-3.5-1.5-4.7-2.8
			c-0.9,1.5-1.8,2.6-2.6,3.8l-2.3-1.8c1.5-1.5,2.5-2.8,3.2-4.3c-1-1.6-1.8-3.2-2.5-5.1l2.2-1.5c0.4,1.5,0.9,2.6,1.3,3.5
			c0.4-1.3,0.6-3.1,0.7-5.3h-3.5v-2.2c0.9-1.8,1.9-4,3.1-6.6h-3.2V220h6.2v2.5c-0.7,1.8-1.6,3.8-2.8,6.3h2.9c0,4.1-0.4,7.6-1.5,10.7
			c0.9,1,1.8,1.8,2.9,2.2c1,0.6,2.3,0.9,4,0.9c1.5,0.1,3.2,0.1,5.3,0.1C341.5,242.7,342.9,242.7,344.1,242.6z M344,226.7H342v4.3
			h-4.7v2.1h5.9v2.3h-5.9v1.8h6.6v2.2h-6.6v2.3h-2.6v-2.3h-5.1v-2.2h5.1v-1.8h-4.4V233h4.4V231h-3.8v-2.2h3.8v-2.1h-5v-2.3h5v-1.8
			H331v-2.2h3.7v-2.5h2.6v2.5h4.7v4h1.9V226.7z M339.4,224.5v-1.8h-2.1v1.8H339.4z M339.4,228.8v-2.1h-2.1v2.1H339.4z"/>
		<path class="st4" d="M379.5,230.4h-2.9v4h-7.9v8.1c0,1.2-0.3,1.9-0.9,2.3c-0.6,0.4-1.5,0.7-2.8,0.7c-0.6,0-1,0-1.8,0l-0.7-2.5
			c0.7,0,1.3,0,1.6,0c0.9,0,1.3,0,1.5-0.1c0.1-0.1,0.3-0.3,0.3-0.6v-7.8h-7.2v-2.2h7.2v-1.8h-9.1c0,4.4-0.3,7.8-0.7,10
			c-0.6,2.2-1.2,3.8-2.1,5.1l-2.2-1.6c1.5-2.8,2.2-7,2.2-12.9v-11h11.2c-0.1-0.3-0.3-0.9-0.7-1.5l2.8-1c0.4,0.9,0.9,1.8,1.2,2.5h11
			v2.5h-10.6v1.8h7.9v4h2.8L379.5,230.4L379.5,230.4z M364.5,241.6c-2.2,1.3-4.5,2.5-6.9,3.4l-1.5-2.2c2.3-0.9,4.5-1.9,6.9-3.2
			L364.5,241.6z M365.8,228.2v-1.6h-7.2v-2.3h7.2v-1.8h-9.1v5.7H365.8z M364.3,236.9l-1.6,2.2c-1.8-0.7-3.5-1.3-5.3-1.9l1.6-2.2
			C361.4,235.7,363.2,236.3,364.3,236.9z M373.7,228.2v-1.6h-5.1v1.6H373.7z M373.7,232.2v-1.8h-5.1v1.8H373.7z M377.6,237
			c-1.8,0.9-3.8,1.6-6.2,2.1l-1.5-2.3c1.8-0.3,3.8-0.9,6.2-1.9L377.6,237z M378.6,243.2l-1.8,1.9c-1.9-1.3-4.3-2.5-6.9-3.5l1.6-2.1
			C374.3,240.5,376.7,241.9,378.6,243.2z"/>
		<path class="st4" d="M398.5,241.9c-3.5,1.5-7.2,2.6-10.7,3.5l-0.7-2.5c0.6-0.1,1-0.3,1.3-0.4v-12.2h2.5v11.4
			c0.3,0,0.7-0.1,1.5-0.4v-13.2h-4.1v-9.4h9.5v9.4h-2.5v4.1h3.1v2.6h-3.1v5.6c0.9-0.3,1.9-0.6,3.2-1.2V241.9z M395,225.4v-4.1h-4
			v4.1H395z M415.3,230.8l-1.5,2.5c-2.8-0.9-5.1-2.1-7.2-3.5c-2.3,1.5-4.7,2.6-7,3.5l-1.5-2.5c2.9-1,5-1.9,6.3-2.9
			c-0.9-0.7-1.6-1.8-2.5-3.1c-0.7,0.6-1.3,1.2-2.1,1.6l-1.6-2.2c2.8-2.1,4.8-4.3,6-6.7l2.6,0.7c-0.1,0.6-0.4,1-0.9,1.6h7.3v2.6
			c-1.5,2.3-2.9,4.1-4.4,5.3C410.4,229.1,412.6,230,415.3,230.8z M413.4,245.5h-2.9v-1h-7.3v1h-2.8v-11.7h13.2v11.7H413.4z
			 M410.4,241.9v-5.3h-7.3v5.3H410.4z M410.3,222.8h-6.2l-0.1,0.1c0.6,1.3,1.5,2.5,2.6,3.5C407.9,225.4,409.2,224.2,410.3,222.8z"/>
		<path class="st4" d="M437.7,243.9h-14.1v-3.1h5.3v-17.3l-5.4,1.5v-3.2l9-2.3v21.4h5.3V243.9z"/>
		<path class="st4" d="M460.4,243.9h-14.1v-3.1h5.3v-17.3l-5.4,1.5v-3.2l9-2.3v21.4h5.3V243.9z"/>
		<path class="st4" d="M496.1,234.8l-1.3,2.5c-1.9-0.7-3.8-1.8-5.6-3.2v5.4h-12.6v2.1c0,0.6,0.6,0.9,1.6,0.9c1,0,3.4,0.1,7,0.1
			c2.5,0,4.1,0,4.7-0.1c0.6-0.1,1.2-0.4,1.5-1c0.3-0.6,0.4-1.5,0.4-2.6l2.8,1c0,1.9-0.4,3.2-1,4c-0.6,0.7-1.5,1.2-2.3,1.3
			c-0.9,0.1-3.7,0.1-8.5,0.1c-3.1,0-5,0-6-0.1c-1,0-1.6-0.3-2.2-0.9c-0.4-0.6-0.7-1.3-0.7-2.3v-7.3c-1.8,1.2-3.2,2.1-4.5,2.6
			l-1.5-2.3c3.4-1.3,5.9-3.1,7.6-5.6h-6.7v-2.6h7.3v-3.2h-6v-2.6h6v-2.6h2.8v2.8h6.3v-2.8h2.8v2.8h6v2.6H488v3.2h7.3v2.6h-6.7
			C490.2,231.6,492.7,233.5,496.1,234.8z M487.3,232c-0.6-0.7-1.2-1.6-1.8-2.8h-6.9c-0.7,1.2-1.3,2.1-1.9,2.8H487.3z M486.4,237
			v-2.6h-9.7v2.6H486.4z M485.2,226.6v-3.2h-6.3v3.2H485.2z"/>
		<path class="st4" d="M518.6,243.9h-14.1v-3.1h5.3v-17.3l-5.4,1.5v-3.2l9-2.3v21.4h5.3V243.9z"/>
		<path class="st4" d="M541.3,243.9h-14.1v-3.1h5.3v-17.3l-5.4,1.5v-3.2l9-2.3v21.4h5.3V243.9z"/>
		<path class="st4" d="M560.2,231.6h-5.7l-0.7,2.8h5.3c-0.1,3.1-0.3,5.3-0.6,6.7c-0.1,1.5-0.4,2.5-0.6,2.9c-0.3,0.4-0.6,0.9-1.2,1.2
			c-0.6,0.3-1.3,0.4-2.3,0.4c-0.6,0-1.5,0-2.5-0.1l-0.9-2.6c1,0,1.9,0,2.6,0c0.9,0,1.3,0,1.6-0.1c0.1-0.1,0.3-0.3,0.4-0.4
			c0.1-0.1,0.3-0.9,0.3-1.8c0.1-1,0.1-2.2,0.3-3.5h-6l1.5-5.3h-2.6v-2.6h11.2L560.2,231.6L560.2,231.6z M559,227h-9v-8.5h9V227z
			 M556.6,224.5v-3.4h-3.8v3.4H556.6z M576.7,223.7c-0.1,1.9-0.6,3.5-1.2,4.8l-2.5-0.7c0.3-0.7,0.4-1.2,0.6-1.6h-3.8v1.8l3.1-0.1
			v2.3l-3.1,0.1v1c0,0.4,0.1,0.6,0.6,0.6h5.7v2.3h-7c-0.6,0-1-0.1-1.5-0.6c-0.4-0.4-0.6-0.9-0.6-1.5v-1.8l-2.1,0.1v-2.2l2.1-0.1
			v-1.9h-3.1v8.1c0,4.5-1,8.4-2.9,11.4l-2.2-1.8c1.6-2.8,2.3-6.3,2.3-10.7v-9.5h5.3v-5.9h2.8v1.6h6v2.5h-6v1.8h7.5V223.7z
			 M568.1,235.4c0,0.7,0,1.3,0,1.9c0,2.1-0.3,3.8-0.7,5.1c-0.6,1.3-1.5,2.5-2.8,3.4l-1.9-1.9c1.2-0.7,1.9-1.8,2.3-2.6
			c0.4-1,0.6-2.3,0.6-4.1c0-0.6,0-1.2,0-1.6h2.5V235.4z M576.8,239.7c-0.1,2.5-0.4,4.1-1,4.7c-0.6,0.6-1.5,0.9-2.8,0.9
			c-2.1,0-3.1-0.7-3.1-2.2v-7.9h2.6v6.7c0,0.4,0.3,0.7,0.7,0.7c0.3,0,0.4-0.1,0.6-0.4s0.3-1.5,0.4-3.7L576.8,239.7z"/>
	</g>
	<g>
		<path class="st4" d="M95.4,278.8h-2.8v-5h-9.5v6.2h-2.6v-6.2h-9v5.1h-2.6v-7.3h11.6v-1.2H70V268h23.9v2.3H83.1v1.2h12.2v7.3H95.4z
			 M96,291.6c-0.1,1-0.4,1.8-0.9,2.3c-0.4,0.6-0.9,0.9-1.3,1c-0.4,0.1-2.3,0.1-5.7,0.1c-2.8,0-4.5,0-5.3-0.1s-1.3-0.3-1.8-0.9
			c-0.4-0.4-0.6-1-0.6-1.9v-1.8H70.3v-9.7h23v9.7h-10v1c0,0.4,0.1,0.7,0.4,0.9c0.3,0.1,2.2,0.1,5.6,0.1c1.5,0,2.3,0,2.6,0
			c0.3,0,0.6-0.1,0.7-0.4c0.1-0.3,0.3-0.6,0.3-1L96,291.6z M79.8,279.1c-1.9,0.3-4.3,0.6-6.9,0.7l-0.6-1.9c2.1,0,4.4-0.1,6.9-0.6
			L79.8,279.1z M79.7,275l-0.4,1.8c-2.1-0.3-4.3-0.4-6.5-0.4l0.6-1.8C75,274.6,77.1,274.7,79.7,275z M80.6,284.5v-1.8h-7.5v1.8H80.6
			z M80.6,288.4v-1.8h-7.5v1.8H80.6z M90.7,284.5v-1.8h-7.3v1.8H90.7z M90.7,288.4v-1.8h-7.3v1.8H90.7z M91.9,276
			c-2.2,0.3-4.5,0.6-7,0.7l-0.6-1.8c1.9,0,4.1-0.3,6.7-0.6L91.9,276z M91.6,278.2l-0.4,1.8c-2.5-0.4-4.8-0.7-7-0.7l0.6-1.8
			C86.7,277.5,88.9,277.8,91.6,278.2z"/>
		<path class="st4" d="M114.9,273h-10.9v-2.5h4.3c-0.1-0.7-0.4-1.5-1-2.3l2.8-0.7c0.4,0.7,0.7,1.8,1.2,3.1h3.7
			C114.9,270.5,114.9,273,114.9,273z M114.2,277.7h-9.4v-2.5h9.4V277.7z M114.2,282.2h-9.4v-2.5h9.4V282.2z M114,294.8h-2.8v-1.5
			h-3.8v2.1h-2.8v-10.9h9.4V294.8z M111.4,290.9v-4h-3.8v4H111.4z M131.6,278.4H125v4.1h5v12.8h-2.8v-1.9h-7.3v1.9h-2.8v-12.8h5.1
			v-4.1h-6.7v-2.6h6.7v-4.1l-5.6,0.4l-0.9-2.6c5.3-0.1,10-0.9,13.9-1.9l1.3,2.5c-1,0.3-3.1,0.7-6.2,1.3v4.4h6.6v2.6H131.6z
			 M127.2,290.7v-5.4h-7.3v5.4H127.2z"/>
	</g>
	<g>
		<path class="st4" d="M316.5,281.6c0-4.3,0.7-7.3,2.2-9.5c1.5-2.2,3.5-3.2,6.3-3.2c5.1,0,7.8,4.1,7.8,12.3c0,4-0.7,7-2.2,9.2
			c-1.5,2.2-3.5,3.2-6.2,3.2s-4.5-1-5.9-3.1C317.2,288.5,316.5,285.4,316.5,281.6z M320.3,281.5c0,6.2,1.5,9.1,4.4,9.1
			s4.4-3.1,4.4-9.4c0-6.5-1.5-9.5-4.3-9.5C321.8,271.6,320.3,274.9,320.3,281.5z"/>
		<path class="st4" d="M340.3,288.7c1.6,1.3,3.5,1.9,5.6,1.9c1.5,0,2.8-0.4,3.7-1.2c0.9-0.7,1.3-1.8,1.3-3.1c0-2.8-2.1-4.3-6.2-4.3
			h-2.1v-2.9h1.9c3.7,0,5.4-1.3,5.4-4c0-2.5-1.5-3.7-4.3-3.7c-1.6,0-3.2,0.6-4.7,1.6v-3.2c1.6-0.9,3.4-1.3,5.6-1.3
			c2.1,0,3.8,0.6,5.1,1.6s1.9,2.5,1.9,4.3c0,3.1-1.6,5.1-4.8,6l0,0c1.8,0.1,3.1,0.7,4.1,1.8c1,1,1.5,2.3,1.5,3.8
			c0,2.2-0.7,4-2.3,5.3c-1.6,1.3-3.7,1.9-6.3,1.9c-2.3,0-4.3-0.4-5.6-1.3v-3.2H340.3z"/>
		<path class="st4" d="M372.1,285H363v-2.6h9.1V285z"/>
		<path class="st4" d="M395.2,293.1h-14.1V290h5.3v-17.3l-5.4,1.5v-3.2l9-2.3V290h5.3V293.1z"/>
		<path class="st4" d="M417.5,293.1h-14.8V290l6.9-6.9c1.6-1.5,2.6-2.8,3.4-4c0.7-1.2,1.2-2.3,1.2-3.7c0-2.6-1.5-4-4.3-4
			c-2.1,0-4.1,0.9-6,2.6v-3.2c1.9-1.5,4.3-2.2,6.7-2.2c2.2,0,4,0.6,5.3,1.8s1.9,2.8,1.9,4.8c0,1.5-0.4,2.9-1.2,4.4
			c-0.9,1.5-2.2,3.2-4.3,5.1L407,290v0.1h10.7v2.9H417.5z"/>
		<path class="st4" d="M425.8,288.7c1.6,1.3,3.5,1.9,5.6,1.9c1.5,0,2.8-0.4,3.7-1.2s1.3-1.8,1.3-3.1c0-2.8-2.1-4.3-6.2-4.3h-2.1
			v-2.9h1.9c3.7,0,5.4-1.3,5.4-4c0-2.5-1.5-3.7-4.3-3.7c-1.6,0-3.2,0.6-4.7,1.6v-3.2c1.6-0.9,3.4-1.3,5.6-1.3c2.1,0,3.8,0.6,5.1,1.6
			s1.9,2.5,1.9,4.3c0,3.1-1.6,5.1-4.8,6l0,0c1.8,0.1,3.1,0.7,4.1,1.8c1,1,1.5,2.3,1.5,3.8c0,2.2-0.7,4-2.3,5.3
			c-1.6,1.3-3.7,1.9-6.3,1.9c-2.3,0-4.3-0.4-5.6-1.3v-3.2H425.8z"/>
		<path class="st4" d="M464.1,287.2h-2.9v5.9h-3.4v-5.9h-11v-2.3l10.4-15.7h4v15.3h2.9L464.1,287.2L464.1,287.2z M457.7,284.4V275
			c0-0.7,0-1.5,0-2.3l0,0c-0.3,0.6-0.6,1.3-0.9,1.9l-6.6,10h7.5V284.4z"/>
		<path class="st4" d="M471.7,288.9c1.6,1,3.4,1.6,5.1,1.6c1.6,0,2.8-0.4,3.8-1.3c1-0.9,1.5-2.1,1.5-3.4c0-2.9-1.9-4.5-5.7-4.5
			c-0.9,0-2.2,0.1-3.8,0.3v-12.5h12.2v3.1h-9v6.2c0.9,0,1.6-0.1,2.1-0.1c2.5,0,4.4,0.6,5.9,1.9c1.5,1.3,2.2,3.1,2.2,5.3
			c0,2.3-0.7,4.3-2.3,5.7c-1.6,1.5-3.7,2.2-6.3,2.2c-2.2,0-4-0.3-5.3-1v-3.4H471.7z"/>
		<path class="st4" d="M507.7,272.7c-1.2-0.6-2.5-1-4-1c-2.1,0-3.7,0.9-4.8,2.6s-1.8,4-1.8,6.7h0.1c1.2-2.1,2.9-3.1,5.3-3.1
			c2.1,0,3.7,0.7,5,2.1c1.2,1.3,1.8,3.1,1.8,5.4s-0.7,4.3-2.2,5.9c-1.5,1.6-3.4,2.3-5.6,2.3c-2.6,0-4.5-1-6-2.9
			c-1.5-1.9-2.1-4.7-2.1-8.1c0-4.1,0.9-7.3,2.6-10c1.8-2.6,4.3-3.8,7.5-3.8c1.8,0,3.1,0.3,4.1,0.7V272.7z M497.3,285.3
			c0,1.5,0.4,2.8,1.2,3.8c0.7,1,1.8,1.6,3.1,1.6c1.3,0,2.2-0.4,2.9-1.5c0.7-0.9,1.2-2.1,1.2-3.5c0-1.6-0.3-2.8-1-3.7
			c-0.7-0.9-1.8-1.3-3.1-1.3c-1.2,0-2.2,0.4-2.9,1.3C497.7,282.9,497.3,284,497.3,285.3z"/>
		<path class="st4" d="M531.8,270.6l-9.1,22.6h-3.8l8.8-20.8h-11.7v-3.1h15.8V270.6z"/>
		<path class="st4" d="M543.6,280.4c-2.8-1.3-4.3-3.2-4.3-5.7c0-1.8,0.7-3.2,2.1-4.4c1.5-1.2,3.2-1.6,5.3-1.6c1.9,0,3.5,0.6,4.8,1.6
			c1.3,1,2.1,2.5,2.1,4.1c0,2.6-1.5,4.7-4.5,6l0,0c3.5,1.2,5.1,3.4,5.1,6.3c0,2.1-0.7,3.7-2.2,4.8c-1.5,1.2-3.5,1.8-6,1.8
			c-2.2,0-4-0.6-5.3-1.8c-1.5-1.2-2.1-2.6-2.1-4.5C538.7,284.1,540.3,281.9,543.6,280.4L543.6,280.4z M546.4,282.1
			c-2.8,1.2-4.1,2.8-4.1,4.8c0,1.2,0.4,2.1,1.2,2.6c0.9,0.7,1.9,1,3.2,1c1.3,0,2.2-0.3,3.1-1c0.7-0.6,1.2-1.6,1.2-2.6
			C550.8,284.8,549.4,283.2,546.4,282.1z M550.1,274.9c0-1-0.3-1.8-0.9-2.3c-0.6-0.6-1.5-0.9-2.5-0.9c-1,0-1.9,0.3-2.5,0.9
			c-0.7,0.6-1,1.3-1,2.3c0,1.9,1.2,3.2,3.5,4.3C548.9,278.1,550.1,276.6,550.1,274.9z"/>
		<path class="st4" d="M562.6,289.4c1.3,0.7,2.8,1.2,4.4,1.2c2.1,0,3.7-0.7,4.8-2.3c1.2-1.6,1.6-3.8,1.6-6.7c0,0,0,0-0.1,0
			c-1,1.9-2.8,2.8-5.1,2.8c-2.1,0-3.7-0.7-5-2.1c-1.3-1.5-1.9-3.2-1.9-5.3c0-2.3,0.7-4.4,2.2-5.9c1.5-1.5,3.4-2.3,5.7-2.3
			c2.5,0,4.4,1,5.7,2.9s2.1,4.7,2.1,8.2c0,4.3-0.9,7.6-2.6,10.1s-4.3,3.7-7.3,3.7c-1.8,0-3.2-0.3-4.5-0.9v-3.4H562.6z M564.9,276.5
			c0,1.5,0.4,2.6,1.2,3.5c0.7,0.9,1.8,1.3,3.1,1.3c1.2,0,2.2-0.4,2.9-1.2c0.7-0.7,1.2-1.8,1.2-2.9c0-1.5-0.4-2.8-1.2-4
			c-0.7-1-1.8-1.6-3.1-1.6c-1.2,0-2.2,0.4-2.9,1.5C565.2,274,564.9,275.2,564.9,276.5z"/>
	</g>
	<g>
		<path class="st4" d="M96.1,346.9l-0.7,2.8c-1.8,0-3.5,0-5.1,0c-6,0-9.8-0.1-11.7-0.6c-1.9-0.4-3.5-1.3-4.8-2.6
			c-1,1.5-2.1,2.8-3.1,4l-2.2-1.8c2.8-2.8,4.5-5.9,5.3-9h-4.5v-2.8c1.8-2.1,3.1-3.8,4-5.3h-4.7V329h8.1v2.6c-1,1.6-2.2,3.2-3.8,5.3
			h3.8v2.6c-0.4,1.6-0.9,3.1-1.6,4.4c0.7,0.9,1.8,1.6,2.9,2.1c1.2,0.4,2.8,0.7,4.7,0.9c1.9,0,3.8,0.1,5.9,0.1
			C91.3,347.1,93.9,346.9,96.1,346.9z M76.2,326.4l-2.1,1.9c-1.6-1.6-3.2-3.1-5-4.1l1.9-1.9C73.2,323.6,74.9,324.9,76.2,326.4z
			 M95.3,342.9c0,0.9-0.3,1.5-0.9,1.9s-1.9,0.6-3.7,0.6l-0.9-2.6c0.6,0,1,0,1.5,0c0.9,0,1.3-0.3,1.3-0.7v-1.3h-4.4v4.5h-2.8v-4.5H81
			v4.5h-2.8V329h6.3c-1-0.6-2.5-1-4-1.6l2.1-1.6c1.3,0.4,2.5,0.9,3.4,1.3c1.3-0.6,2.5-1.2,3.7-1.9H77.9v-2.5h16.7v2.5
			c-2.1,1.3-4,2.5-5.7,3.4l0.4,0.3h6v14.1H95.3z M85.4,334v-2.3H81v2.3H85.4z M85.4,338.5v-2.3H81v2.3H85.4z M92.5,334v-2.3h-4.4
			v2.3H92.5z M92.5,338.5v-2.3h-4.4v2.3H92.5z"/>
		<path class="st4" d="M118.9,337.8h-5.7c-0.1,0.4-0.1,0.9-0.3,1c2.5,2.6,4.5,5.1,5.7,7.3l-2.1,1.9c-1.5-2.5-2.9-4.7-4.5-6.3
			c-1.8,3.7-3.8,6.6-6.2,8.8l-1.9-2.1c3.5-3.7,5.7-7.2,6.3-10.7h-6.2v-2.6h6.6c0.1-1.9,0.1-4,0.1-6h-2.1c-1,1.6-1.9,3.1-2.9,4.3
			l-2.1-1.9c2.2-2.8,4-5.9,5.1-9.1l2.5,0.6c-0.3,1.2-0.9,2.3-1.5,3.7h7.9v2.5h-4.4c0,1.5,0,3.5-0.1,6h5.4v2.6H118.9z M130.6,349.4
			h-2.8v-2.2h-5.1v2.2h-2.8v-24.5h10.7V349.4z M127.8,344.6v-17h-5.1v17H127.8z"/>
		<path class="st4" d="M167.1,346h-12.3v4.1H152V346h-12.3v-2.3H152v-1.8h-9.4v-10.6h21.9v10.6H155v1.8h12.3v2.3H167.1z M152,329.7
			h-10.7v-6.6H152V329.7z M149.2,327.4v-1.9h-5.1v1.9H149.2z M151.9,335.5v-1.9h-6.7v1.9H151.9z M151.9,339.6v-1.9h-6.7v1.9H151.9z
			 M165.2,329.7h-10.6v-6.6h10.6V329.7z M161.4,335.5v-1.9h-6.7v1.9H161.4z M161.4,339.6v-1.9h-6.7v1.9H161.4z M162.5,327.4v-1.9
			h-5.1v1.9H162.5z"/>
		<path class="st4" d="M186.1,336.2h-5.7l-0.7,2.8h5.3c-0.1,3.1-0.3,5.3-0.6,6.7c-0.1,1.5-0.4,2.5-0.6,2.9c-0.3,0.4-0.6,0.9-1.2,1.2
			c-0.6,0.3-1.3,0.4-2.3,0.4c-0.6,0-1.5,0-2.5-0.1l-0.9-2.6c1,0,1.9,0,2.6,0c0.9,0,1.3,0,1.6-0.1c0.1-0.1,0.3-0.3,0.4-0.4
			c0.1-0.1,0.3-0.9,0.3-1.8c0.1-1,0.1-2.2,0.3-3.5h-6l1.5-5.3h-2.6v-2.6h11.2L186.1,336.2L186.1,336.2z M184.9,331.6h-9v-8.5h9
			V331.6z M182.4,329.2v-3.4h-3.8v3.4H182.4z M202.5,328.3c-0.1,1.9-0.6,3.5-1.2,4.8l-2.5-0.7c0.3-0.7,0.4-1.2,0.6-1.6h-3.8v1.8
			l3.1-0.1v2.3l-3.1,0.1v1c0,0.4,0.1,0.6,0.6,0.6h5.7v2.3h-7c-0.6,0-1-0.1-1.5-0.6s-0.6-0.9-0.6-1.5V335l-2.1,0.1v-2.3l2.1-0.1v-1.9
			h-3.1v8.1c0,4.5-1,8.4-2.9,11.4l-2.2-1.8c1.6-2.8,2.3-6.3,2.3-10.7v-9.5h5.3v-5.9h2.8v1.6h6v2.5h-6v1.8H202.5z M194,339.9
			c0,0.7,0,1.3,0,1.9c0,2.1-0.3,3.8-0.7,5.1c-0.6,1.3-1.5,2.5-2.8,3.4l-1.9-1.9c1.2-0.7,1.9-1.8,2.3-2.6c0.4-0.9,0.6-2.3,0.6-4.1
			c0-0.6,0-1.2,0-1.6h2.5V339.9z M202.7,344.3c-0.1,2.5-0.4,4.1-1,4.7s-1.5,0.9-2.8,0.9c-2.1,0-3.1-0.7-3.1-2.2v-7.8h2.6v6.7
			c0,0.4,0.3,0.7,0.7,0.7c0.3,0,0.4-0.1,0.6-0.4c0.1-0.3,0.3-1.5,0.4-3.7L202.7,344.3z"/>
	</g>
	<g>
		<path class="st4" d="M241,348.1h-13.2v-23.9h12.8v3.2h-9.2v7h8.4v3.2h-8.4v7.3h9.5v3.1H241z"/>
		<path class="st4" d="M257.5,340h-9.1v-2.6h9.1V340z"/>
		<path class="st4" d="M282.8,325.6l-13.4,19.2h13.1v3.2h-18.3v-1.6l13.4-19.2h-12.3V324h17.6V325.6z"/>
		<path class="st4" d="M290.2,344.3c1.3,0.7,2.8,1.2,4.4,1.2c2.1,0,3.7-0.7,4.8-2.3c1.2-1.6,1.6-3.8,1.6-6.7c0,0,0,0-0.1,0
			c-1,1.9-2.8,2.8-5.1,2.8c-2.1,0-3.7-0.7-5-2.1c-1.3-1.5-1.9-3.2-1.9-5.3c0-2.3,0.7-4.4,2.2-5.9c1.5-1.5,3.4-2.3,5.7-2.3
			c2.5,0,4.4,1,5.7,2.9s2.1,4.7,2.1,8.2c0,4.3-0.9,7.6-2.6,10.1c-1.8,2.5-4.3,3.7-7.3,3.7c-1.8,0-3.2-0.3-4.5-0.9v-3.4H290.2z
			 M292.6,331.4c0,1.5,0.4,2.6,1.2,3.5c0.7,0.9,1.8,1.3,3.1,1.3c1.2,0,2.2-0.4,2.9-1.2c0.7-0.7,1.2-1.8,1.2-2.9c0-1.5-0.4-2.8-1.2-4
			c-0.7-1-1.8-1.6-3.1-1.6c-1.2,0-2.2,0.4-2.9,1.5C292.9,328.9,292.6,330,292.6,331.4z"/>
		<path class="st4" d="M327.1,348.1H313V345h5.3v-17.3l-5.4,1.5v-3.2l9-2.3V345h5.3V348.1L327.1,348.1z"/>
		<path class="st4" d="M334.1,336.5c0-4.3,0.7-7.3,2.2-9.5c1.5-2.2,3.5-3.2,6.3-3.2c5.1,0,7.8,4.1,7.8,12.3c0,4-0.7,7-2.2,9.2
			c-1.5,2.2-3.5,3.2-6.2,3.2c-2.6,0-4.5-1-5.9-3.1C334.9,343.4,334.1,340.3,334.1,336.5z M337.8,336.3c0,6.2,1.5,9.1,4.4,9.1
			s4.4-3.1,4.4-9.4c0-6.5-1.5-9.5-4.3-9.5C339.4,326.5,337.8,329.9,337.8,336.3z"/>
		<path class="st4" d="M372.9,325.5l-9.1,22.6h-3.8l8.8-20.8H357v-3.1h15.8L372.9,325.5L372.9,325.5z"/>
		<path class="st4" d="M395.2,348.1h-14.1V345h5.3v-17.3l-5.4,1.5v-3.2l9-2.3V345h5.3V348.1z"/>
		<path class="st4" d="M417.5,348.1h-14.8V345l6.9-6.9c1.6-1.5,2.6-2.8,3.4-4c0.7-1.2,1.2-2.3,1.2-3.7c0-2.6-1.5-4-4.3-4
			c-2.1,0-4.1,0.9-6,2.6v-3.5c1.9-1.5,4.3-2.2,6.7-2.2c2.2,0,4,0.6,5.3,1.8s1.9,2.8,1.9,4.8c0,1.5-0.4,2.9-1.2,4.4
			c-0.9,1.5-2.2,3.2-4.3,5.1l-5.3,5.1v0.1h10.7v3.2H417.5z"/>
		<path class="st4" d="M424.9,336.5c0-4.3,0.7-7.3,2.2-9.5c1.5-2.2,3.5-3.2,6.3-3.2c5.1,0,7.8,4.1,7.8,12.3c0,4-0.7,7-2.2,9.2
			c-1.5,2.2-3.5,3.2-6.2,3.2c-2.6,0-4.5-1-5.9-3.1C425.7,343.4,424.9,340.3,424.9,336.5z M428.6,336.3c0,6.2,1.5,9.1,4.4,9.1
			c2.9,0,4.4-3.1,4.4-9.4c0-6.5-1.5-9.5-4.3-9.5C430.2,326.5,428.6,329.9,428.6,336.3z"/>
		<path class="st4" d="M449,344c1.6,1,3.4,1.6,5.1,1.6c1.6,0,2.8-0.4,3.8-1.3c1-0.9,1.5-2.1,1.5-3.4c0-2.9-1.9-4.5-5.7-4.5
			c-0.9,0-2.2,0.1-3.8,0.3v-12.5h12.2v3.1h-9v6.2c0.9,0,1.6-0.1,2.1-0.1c2.5,0,4.4,0.6,5.9,1.9c1.5,1.3,2.2,3.1,2.2,5.3
			c0,2.3-0.7,4.3-2.3,5.7c-1.6,1.5-3.7,2.2-6.3,2.2c-2.2,0-4-0.3-5.3-1V344H449z"/>
		<path class="st4" d="M471.3,343.7c1.6,1.3,3.5,1.9,5.6,1.9c1.5,0,2.8-0.4,3.7-1.2c0.9-0.7,1.3-1.8,1.3-3.1c0-2.8-2.1-4.3-6.2-4.3
			h-2.1v-2.9h1.9c3.7,0,5.4-1.3,5.4-4c0-2.5-1.5-3.7-4.3-3.7c-1.6,0-3.2,0.6-4.7,1.6v-3.2c1.6-0.9,3.4-1.3,5.6-1.3
			c2.1,0,3.8,0.6,5.1,1.6c1.3,1,1.9,2.5,1.9,4.3c0,3.1-1.6,5.1-4.8,6l0,0c1.8,0.1,3.1,0.7,4.1,1.8c1,1,1.5,2.3,1.5,3.8
			c0,2.2-0.7,4-2.3,5.3c-1.6,1.3-3.7,1.9-6.3,1.9c-2.3,0-4.3-0.4-5.6-1.3v-3.2H471.3z"/>
		<path class="st4" d="M494.5,344.3c1.3,0.7,2.8,1.2,4.4,1.2c2.1,0,3.7-0.7,4.8-2.3c1.2-1.6,1.6-3.8,1.6-6.7c0,0,0,0-0.1,0
			c-1,1.9-2.8,2.8-5.1,2.8c-2.1,0-3.7-0.7-5-2.1c-1.3-1.5-1.9-3.2-1.9-5.3c0-2.3,0.7-4.4,2.2-5.9c1.5-1.5,3.4-2.3,5.7-2.3
			c2.5,0,4.4,1,5.7,2.9s2.1,4.7,2.1,8.2c0,4.3-0.9,7.6-2.6,10.1c-1.8,2.5-4.3,3.7-7.3,3.7c-1.8,0-3.2-0.3-4.5-0.9v-3.4H494.5z
			 M496.8,331.4c0,1.5,0.4,2.6,1.2,3.5c0.7,0.9,1.8,1.3,3.1,1.3c1.2,0,2.2-0.4,2.9-1.2s1.2-1.8,1.2-2.9c0-1.5-0.4-2.8-1.2-4
			c-0.7-1-1.8-1.6-3.1-1.6c-1.2,0-2.2,0.4-2.9,1.5C497.1,328.9,496.8,330,496.8,331.4z"/>
		<path class="st4" d="M531,348.1h-14.8V345l6.9-6.9c1.6-1.5,2.6-2.8,3.4-4c0.7-1.2,1.2-2.3,1.2-3.7c0-2.6-1.5-4-4.3-4
			c-2.1,0-4.1,0.9-6,2.6v-3.5c1.9-1.5,4.3-2.2,6.7-2.2c2.2,0,4,0.6,5.3,1.8s1.9,2.8,1.9,4.8c0,1.5-0.4,2.9-1.2,4.4
			c-0.9,1.5-2.2,3.2-4.3,5.1l-5.3,5.1v0.1h10.7v3.2H531z"/>
		<path class="st4" d="M538.5,336.5c0-4.3,0.7-7.3,2.2-9.5c1.5-2.2,3.5-3.2,6.3-3.2c5.1,0,7.8,4.1,7.8,12.3c0,4-0.7,7-2.2,9.2
			c-1.5,2.2-3.5,3.2-6.2,3.2c-2.6,0-4.5-1-5.9-3.1C539.1,343.4,538.5,340.3,538.5,336.5z M542.2,336.3c0,6.2,1.5,9.1,4.4,9.1
			s4.4-3.1,4.4-9.4c0-6.5-1.5-9.5-4.3-9.5C543.6,326.5,542.2,329.9,542.2,336.3z"/>
		<path class="st4" d="M562.6,344.3c1.3,0.7,2.8,1.2,4.4,1.2c2.1,0,3.7-0.7,4.8-2.3c1.2-1.6,1.6-3.8,1.6-6.7c0,0,0,0-0.1,0
			c-1,1.9-2.8,2.8-5.1,2.8c-2.1,0-3.7-0.7-5-2.1c-1.3-1.5-1.9-3.2-1.9-5.3c0-2.3,0.7-4.4,2.2-5.9c1.5-1.5,3.4-2.3,5.7-2.3
			c2.5,0,4.4,1,5.7,2.9s2.1,4.7,2.1,8.2c0,4.3-0.9,7.6-2.6,10.1s-4.3,3.7-7.3,3.7c-1.8,0-3.2-0.3-4.5-0.9v-3.4H562.6z M564.9,331.4
			c0,1.5,0.4,2.6,1.2,3.5c0.7,0.9,1.8,1.3,3.1,1.3c1.2,0,2.2-0.4,2.9-1.2c0.7-0.7,1.2-1.8,1.2-2.9c0-1.5-0.4-2.8-1.2-4
			c-0.7-1-1.8-1.6-3.1-1.6c-1.2,0-2.2,0.4-2.9,1.5C565.2,328.9,564.9,330,564.9,331.4z"/>
	</g>
	<g>
		<path class="st4" d="M80,418.9l-1.6,2.2c-0.4-0.6-0.9-1-1.3-1.5v1.9h-5.3v-1.3c-1,0.9-1.9,1.6-2.6,2.2l-1-2.8
			c2.5-1.8,4.4-3.7,5.7-6l2.8,1c-0.1,0.3-0.3,0.6-0.3,0.6C77.5,416.3,78.8,417.6,80,418.9z M79.4,439l-2.3,1.2
			c-0.1-0.6-0.3-1-0.6-1.3c-2.5,1.2-4.5,2.1-6.2,2.5l-1-2.1c0.3-0.3,0.4-0.6,0.4-1v-15.4h8.5v10.4h-5.9v4.7c0.9-0.3,1.9-0.7,2.9-1.3
			c-0.3-0.6-0.6-1.2-1-1.9l2.3-1C77.6,435.1,78.5,436.8,79.4,439z M75.6,426.9v-1.6h-3.2v1.6H75.6z M75.6,430.8v-1.8h-3.2v1.8H75.6z
			 M76.6,419.2c-0.6-0.6-1.3-1.3-2.1-1.9c-0.6,0.7-1,1.3-1.6,1.9H76.6z M94.7,437.3h-9.1l1.2,0.9c-1.3,1.3-3.2,2.6-5.7,3.8l-1.9-2.1
			c1.9-0.7,3.4-1.6,4.8-2.6h-3.2v-11.6h14.1v11.6H94.7z M96.1,424.4H79.3v-2.1h7V421h-5.7v-5.3h5.7v-1.6h2.6v1.6h5.9v5.3h-5.9v1.3h7
			v2.1H96.1z M86.3,419.1v-1.6h-3.1v1.6H86.3z M92,428.9v-1.3h-8.8v1.3H92z M92,432.2v-1.3h-8.8v1.3H92z M92,435.2v-1.5h-8.8v1.5H92
			z M92.3,419.1v-1.6h-3.4v1.6H92.3z M96.4,439.6l-1,2.3c-2.1-1-4.1-1.8-5.9-2.2l1.2-2.2C92.3,438,94.2,438.8,96.4,439.6z"/>
		<path class="st4" d="M108,434.2c-0.4,2.9-1,5.4-1.9,7.5l-2.2-1c0.9-2.2,1.5-4.5,1.9-7L108,434.2z M115.5,419.8
			c-2.3,4.3-4.7,7.6-7.2,10.3c0.9-0.1,1.9-0.4,3.4-0.9c-0.1-0.6-0.4-1-0.6-1.5l2.1-0.7c0.9,1.8,1.5,3.4,1.9,5l-2.1,0.7
			c-0.1-0.6-0.3-1.2-0.3-1.3c-2.3,0.6-5,1.2-7.8,1.6l-0.6-2.2c1.9-1.6,3.8-3.7,5.4-6.3c-1.3,0.3-2.9,0.4-4.7,0.7l-0.4-2.1
			c2.2-2.5,4-5.7,5.7-9.7l2.1,1.2c-1.2,2.6-2.6,5.3-4.4,7.8c1.2-0.1,2.2-0.3,3.1-0.4c0.6-0.9,1.2-1.9,1.8-3.2L115.5,419.8z
			 M112.3,440.4l-2.5,0.4c0-2.2-0.3-4.4-0.7-6.7l2.3-0.4C111.8,436,112.1,438.2,112.3,440.4z M115.6,436.6l-2.1,0.7
			c-0.3-1.3-0.7-2.5-1.3-3.7l2.1-0.6C114.9,434.2,115.4,435.2,115.6,436.6z M121.1,429.1c0.1,4.1-1.8,8.1-5.7,11.9l-1.9-1.8
			c2.8-2.3,4.4-4.8,5-7.6h-3.1v-2.5L121.1,429.1L121.1,429.1z M131.9,438.5l-1.9,2.3c-1.9-1.5-3.8-3.7-5.4-6.6v4.7
			c0,0.9-0.4,1.6-1.2,2.1c-0.7,0.4-2.2,0.6-4.4,0.6l-0.7-2.9c1.5,0,2.3,0,2.8,0c0.4,0,0.7-0.1,0.7-0.6v-11.3h-5.9v-10.4h4
			c0.6-0.9,1-1.8,1.5-2.8l2.8,0.6c-0.3,0.7-0.6,1.6-1,2.2h7v10.4h-5.3v2.5c0.3,0.4,0.6,1,1,1.8c0.9-0.7,2.1-1.8,3.4-3.1l1.9,1.8
			c-1,1.2-2.3,2.3-3.8,3.5C128.3,435.1,129.9,436.8,131.9,438.5z M127.2,420.7v-1.8h-8.5v1.8H127.2z M127.2,424.8v-1.9h-8.5v1.9
			H127.2z"/>
		<path class="st4" d="M147.9,414.4c-0.4,1.3-0.7,2.2-1,3.1l-1,2.6v21.6h-2.8v-16.1c-0.4,0.7-1.2,1.8-2.2,3.1l-1.5-3.1
			c2.5-3.2,4.4-7,5.7-11.7L147.9,414.4z M167,423.8l-10.7,1c0.3,4.5,1.3,7.9,2.8,10.4c1.5,2.3,2.6,3.7,3.4,3.7
			c0.9,0,1.5-1.8,1.8-5.4l2.8,1.3c-0.4,4.8-1.9,7.2-4.4,7.2c-1.8,0-3.7-1.3-5.6-4.1c-1.9-2.8-3.1-7-3.8-12.6l-6.2,0.6l-0.1-2.8
			l6-0.6c-0.1-2.3-0.3-5.1-0.1-8.5h2.8c0,3.5,0.1,6.3,0.3,8.2l11-1L167,423.8z M165.1,418.9l-2.3,1.9c-1.2-1.6-2.5-3.2-4.4-4.7
			l2.2-1.8C162.3,415.9,163.9,417.3,165.1,418.9z"/>
		<path class="st4" d="M186.1,427.7h-5.7l-0.7,2.8h5.3c-0.1,3.1-0.3,5.3-0.6,6.7c-0.1,1.5-0.4,2.5-0.6,2.9c-0.3,0.4-0.6,0.9-1.2,1.2
			c-0.6,0.3-1.3,0.4-2.3,0.4c-0.6,0-1.5,0-2.5-0.1l-0.9-2.6c1,0,1.9,0,2.6,0c0.9,0,1.3,0,1.6-0.1c0.1-0.1,0.3-0.3,0.4-0.4
			c0.1-0.1,0.3-0.9,0.3-1.8c0.1-1,0.1-2.2,0.3-3.5h-6l1.5-5.3h-2.6v-2.6h11.2L186.1,427.7L186.1,427.7z M184.9,423.2h-9v-8.5h9
			V423.2z M182.4,420.7v-3.4h-3.8v3.4H182.4z M202.5,419.8c-0.1,1.9-0.6,3.5-1.2,4.8l-2.5-0.7c0.3-0.7,0.4-1.2,0.6-1.6h-3.8v1.8
			l3.1-0.1v2.3l-3.1,0.1v1c0,0.4,0.1,0.6,0.6,0.6h5.7v2.3h-7c-0.6,0-1-0.1-1.5-0.6s-0.6-0.9-0.6-1.5v-1.8l-2.1,0.1v-2.3l2.1-0.1
			v-1.9h-3.1v8.1c0,4.5-1,8.4-2.9,11.4l-2.2-1.8c1.6-2.8,2.3-6.3,2.3-10.7v-9.5h5.3V414h2.8v1.6h6v2.5h-6v1.8L202.5,419.8
			L202.5,419.8z M194,431.4c0,0.7,0,1.3,0,1.9c0,2.1-0.3,3.8-0.7,5.1c-0.6,1.3-1.5,2.5-2.8,3.4l-1.9-1.9c1.2-0.7,1.9-1.8,2.3-2.6
			c0.4-1,0.6-2.3,0.6-4.1c0-0.6,0-1.2,0-1.6h2.5V431.4z M202.7,435.8c-0.1,2.5-0.4,4.1-1,4.7c-0.6,0.6-1.5,0.9-2.8,0.9
			c-2.1,0-3.1-0.7-3.1-2.2v-7.9h2.6v6.7c0,0.4,0.3,0.7,0.7,0.7c0.3,0,0.4-0.1,0.6-0.4c0.1-0.3,0.3-1.5,0.4-3.7L202.7,435.8z"/>
	</g>
	<g>
		<path class="st4" d="M79.6,492.5h-4.3v4.1h-2.5v-4.1h-4.4V490h4.4v-1.9h-3.5v-12.6h3.5v-1.9h-4.4v-2.3h4.4v-2.3h2.5v2.3h4.3v2.3
			h-4.3v1.9h3.4v12.6h-3.5v1.9h4.3v2.5H79.6z M72.8,480.6v-2.6h-1.5v2.6H72.8z M72.8,485.7v-2.8h-1.5v2.8H72.8z M76.6,480.6v-2.6
			h-1.3v2.6H76.6z M76.6,485.7v-2.8h-1.3v2.8H76.6z M96.4,475.6l-1.5,2.3c-0.9-0.4-1.6-1-2.5-1.5v1.9h-9.4v-1.9
			c-0.9,0.7-1.6,1.2-2.2,1.5l-1.5-2.2c3.7-2.1,6.2-4.4,7.8-7.2l2.6,0.7c-0.1,0.3-0.3,0.6-0.4,0.7C91.1,472.4,93.5,474.1,96.4,475.6z
			 M94.8,494.4c0,0.6-0.1,1-0.4,1.5c-0.3,0.3-0.6,0.6-0.9,0.6c-0.3,0.1-0.9,0.1-1.8,0.1l-0.7-2.8c0.1,0,0.3,0,0.4,0
			c0.4,0,0.7-0.1,0.7-0.4v-4.3h-1.6v6.7h-2.2v-6.7h-1.6v6.7h-2.2v-6.7h-1.5v7.5h-2.5v-16.1h14.2V494.4z M84.7,486.6v-3.7h-1.6v3.7
			H84.7z M91.7,475.9c-1.5-1.2-2.9-2.3-4-3.8c-1.3,1.5-2.5,2.6-4,3.8H91.7z M88.5,486.6v-3.7h-1.6v3.7H88.5z M92.3,486.6v-3.7h-1.6
			v3.7H92.3z"/>
		<path class="st4" d="M110.8,480.7l-1.8,2.3c-1.5-1.5-3.2-2.8-5.4-4.1l1.8-2.3C107.7,477.9,109.5,479.4,110.8,480.7z M110.7,485.9
			c-1,3.8-2.5,7.5-4.5,11l-2.3-1.6c2.2-4,3.7-7.6,4.4-10.7L110.7,485.9z M111,473.2l-1.9,2.2c-1-1.3-2.6-2.9-4.8-4.5l2.1-2.2
			C107.9,469.9,109.5,471.5,111,473.2z M116.4,483.2c0,0.4,0,0.9,0,1.5c0,3.4-0.4,5.9-1.2,7.8c-0.9,1.9-2.1,3.4-3.7,4.4l-2.1-2.1
			c2.8-1.6,4.1-4.8,4.1-9.8c0-0.6,0-1.2,0-1.8L116.4,483.2L116.4,483.2z M131.6,481.6l-2.6,1.3c-0.4-0.6-0.9-1.2-1.3-1.9
			c-6.6,0.6-11.9,0.9-15.6,0.9l-0.4-2.3c1.5-0.7,3.1-2.5,5-5.1h-5.1v-2.5h6.7c0.4-0.7,1-1.8,1.6-3.2l2.9,0.6
			c-0.3,0.9-0.7,1.8-1.3,2.6h9.7v2.6h-11.2c-1,1.6-2.5,3.2-4.1,4.7c3.2,0,6.5-0.3,9.7-0.6c-0.4-0.6-1.2-1.3-2.1-2.1l2.6-1.3
			C128.3,477.2,130,479.2,131.6,481.6z M122,496.7h-2.8v-13.4h2.8V496.7z M131.5,496.4h-4.3c-0.7,0-1.3-0.1-1.8-0.6
			c-0.4-0.4-0.6-1-0.6-1.8v-10.7h2.8v9.8c0,0.1,0,0.3,0.1,0.4c0.1,0.1,0.3,0.1,0.4,0.1h3.2V496.4z"/>
		<path class="st4" d="M146.8,469.4c-0.1,0.7-0.4,1.8-0.9,3.2l-0.6,2.1v22h-2.8v-15.3c-0.6,1.2-1.2,2.2-1.9,2.8l-1.3-3.1
			c2.1-3.1,3.5-7.3,4.7-12.5L146.8,469.4z M167,473.5h-20.2v-2.3h8.7c-0.3-0.6-0.6-1.3-1-1.9l2.8-0.7c0.4,0.7,0.9,1.6,1.2,2.5h8.7
			C167,471,167,473.5,167,473.5z M166.7,486.1h-2.8v-1.8h-14.1v1.8H147V482h19.7V486.1z M164.7,480.6h-15.4v-5.9h15.4V480.6z
			 M163.2,488.6h-4.5v5.6c0,0.4-0.1,1-0.4,1.5c-0.3,0.4-0.7,0.7-1,0.9c-0.3,0.1-1.3,0.1-2.9,0.1c-0.6,0-1.2,0-1.6,0l-0.9-2.6
			c0.7,0,1.5,0,2.2,0c1,0,1.6,0,1.8-0.1c0.1-0.1,0.3-0.3,0.3-0.4v-4.7h-5.1v-2.3h12.5v2.2H163.2z M161.7,478.4v-1.5H152v1.5H161.7z"
			/>
		<path class="st4" d="M201.9,480.3h-2.8v-5.1h-9.5v6.2H187v-6.2h-9v5.1h-2.5v-7.3h11.6v-1h-10.4v-2.3h23.9v2.3h-10.9v1.2h12.2
			V480.3z M202.5,493c-0.1,1-0.4,1.8-0.9,2.3c-0.4,0.6-0.9,0.9-1.3,1c-0.4,0.1-2.3,0.1-5.7,0.1c-2.8,0-4.5,0-5.3-0.1
			c-0.7-0.1-1.3-0.3-1.8-0.9c-0.4-0.4-0.6-1-0.6-1.9v-1.8h-10.1v-9.7h22.9v9.7h-10v1c0,0.4,0.1,0.7,0.4,0.9s2.2,0.1,5.6,0.1
			c1.5,0,2.3,0,2.6,0s0.6-0.1,0.7-0.4c0.1-0.3,0.3-0.6,0.3-1L202.5,493z M186.4,480.6c-1.9,0.3-4.3,0.6-6.9,0.7l-0.6-1.9
			c2.1,0,4.4-0.1,6.9-0.6L186.4,480.6z M186.1,476.5l-0.4,1.8c-2.1-0.3-4.3-0.4-6.5-0.4l0.6-1.8C181.5,475.9,183.6,476,186.1,476.5z
			 M187.1,486v-1.8h-7.5v1.8H187.1z M187.1,489.8v-1.8h-7.5v1.8H187.1z M197.1,486v-1.8h-7.3v1.8H197.1z M197.1,489.8v-1.8h-7.3v1.8
			H197.1z M198.4,477.5c-2.2,0.3-4.5,0.6-7,0.7l-0.6-1.8c1.9,0,4.1-0.3,6.7-0.6L198.4,477.5z M198.1,479.5l-0.4,1.8
			c-2.5-0.4-4.8-0.7-7-0.7l0.6-1.8C193.1,479,195.5,479.1,198.1,479.5z"/>
		<path class="st4" d="M214.5,489.7c-0.1,2.5-0.7,4.8-1.8,7l-2.5-1.3c0.7-1.9,1.3-4,1.6-6.3L214.5,489.7z M222.8,486.9l-2.3,1
			c-0.1-0.6-0.3-1-0.4-1.6c-2.3,0.7-5.3,1.5-8.7,2.2l-0.7-2.5c2.2-1.6,4.1-3.8,5.9-6.5c-1.5,0.3-3.2,0.4-5.1,0.7l-0.4-2.3
			c2.1-1.9,4-5,5.7-9.2l2.9,0.9c-1.3,2.8-2.8,5.3-4.4,7.5c1.2-0.1,2.2-0.3,3.4-0.6c0.6-0.9,1.2-1.9,1.9-3.1l2.5,1.3
			c-2.2,4.1-4.7,7.5-7.3,10.1c1.2-0.1,2.3-0.6,3.7-1c-0.1-0.4-0.3-0.9-0.4-1.3l2.3-0.9C221.6,482.9,222.2,484.7,222.8,486.9z
			 M218.5,495.2l-2.6,0.6c0.1-1.9-0.1-4-0.7-6.5l2.3-0.4C218.1,491,218.4,493.2,218.5,495.2z M222.3,492.3l-2.2,0.9
			c-0.3-1.6-0.7-2.9-1.2-4.1l2.1-0.7C221.3,489.4,221.9,490.7,222.3,492.3z M238,495.8h-16.3v-2.6h1.6v-23.5h12.8v23.5h1.9V495.8z
			 M233.5,477.2v-4.8h-7v4.8H233.5z M233.5,485v-5h-7v5H233.5z M233.5,493.2v-5.7h-7v5.7H233.5z"/>
		<path class="st4" d="M261.6,483.4c-0.1,6.5-0.6,10.3-1.2,11.4c-0.6,1.2-1.9,1.8-3.8,1.8c-0.7,0-1.8,0-2.6,0l-0.9-2.6
			c1.8,0,3.1,0.1,3.5,0.1c0.9,0,1.3-0.4,1.5-1.5c0.1-1,0.3-3.1,0.6-6.3h-6c-0.7,4.7-2.3,8.4-4.8,10.7l-2.2-1.9
			c3.1-3.2,4.7-8.2,4.7-15h-2.8v-10.4h13.8v10.4h-8.1c0,1.3-0.1,2.5-0.3,3.5h8.7V483.4z M258.6,477.2v-5.1h-7.9v5.1H258.6z
			 M266.9,490.8h-2.8v-19.7h2.8V490.8z M272.8,492.7c0,1.5-0.3,2.5-0.9,2.9c-0.6,0.6-1.5,0.9-2.5,0.9c-1.6,0-2.8,0-3.4,0l-0.9-2.8
			c1,0,2.3,0.1,3.8,0.1c0.3,0,0.6-0.1,0.7-0.3c0.1-0.3,0.3-0.4,0.3-0.7V469h2.8L272.8,492.7L272.8,492.7z"/>
	</g>
	<g>
		<path class="st4" d="M496.1,428.3c0.6-3.8,2.2-6.9,4.5-9.2c2.5-2.3,5.6-3.5,9.1-3.5c3.4,0,5.9,1.2,7.6,3.4
			c1.6,2.2,2.2,5.1,1.8,8.7c-0.6,3.8-2.1,6.7-4.5,9.1c-2.5,2.3-5.4,3.5-9,3.5c-3.4,0-6-1.2-7.6-3.4
			C496.1,434.8,495.5,431.9,496.1,428.3z M500.1,428c-0.4,2.6-0.1,4.8,1,6.5c1,1.8,2.8,2.5,5.1,2.5c2.3,0,4.4-0.9,6-2.5
			c1.6-1.6,2.6-3.8,3.1-6.6c0.4-2.8,0.1-5-0.9-6.7c-1-1.6-2.8-2.5-5.1-2.5c-2.3,0-4.3,0.9-6,2.6C501.5,423.2,500.5,425.4,500.1,428z
			"/>
		<path class="st4" d="M543.3,440.1h-5l-6.7-10.7c-0.3-0.4-0.4-0.7-0.4-1H531l-1.9,11.7h-3.7l3.8-23.9h3.7l-1.8,11.3h0.1
			c0.1-0.3,0.4-0.6,0.7-1l9.7-10.3h4.5l-11.4,11.4L543.3,440.1z"/>
		<path class="st4" d="M550,435.7c1.5,1.3,3.2,1.9,5.3,1.9c1.5,0,2.8-0.4,3.8-1.2s1.6-1.8,1.9-3.1c0.4-2.8-1.3-4.3-5.4-4.3h-2.1
			l0.4-2.9h1.9c3.7,0,5.7-1.3,6.2-4c0.4-2.5-0.9-3.7-3.7-3.7c-1.6,0-3.4,0.6-5,1.6l0.4-3.2c1.8-0.9,3.7-1.3,5.9-1.3
			c2.1,0,3.7,0.6,4.8,1.6c1.2,1,1.6,2.5,1.3,4.3c-0.4,3.1-2.3,5.1-5.7,6l0,0c1.6,0.1,2.9,0.7,3.8,1.8c0.9,1,1.2,2.3,0.9,3.8
			c-0.3,2.2-1.5,4-3.2,5.3c-1.8,1.3-4,1.9-6.6,1.9c-2.3,0-4.1-0.4-5.4-1.3L550,435.7z"/>
		<path class="st4" d="M573.1,436.4c1.2,0.7,2.6,1.2,4.1,1.2c2.1,0,3.8-0.7,5.1-2.3c1.3-1.6,2.3-3.8,2.8-6.7c0,0,0,0-0.1,0
			c-1.3,1.9-3.2,2.8-5.6,2.8c-2.1,0-3.5-0.7-4.7-2.1c-1-1.5-1.5-3.2-1.2-5.3c0.4-2.3,1.5-4.4,3.1-5.9c1.8-1.5,3.8-2.3,6.2-2.3
			c2.5,0,4.3,1,5.3,2.9c1,1.9,1.3,4.7,0.7,8.2c-0.7,4.3-2.1,7.6-4.1,10.1c-2.1,2.5-4.7,3.7-7.9,3.7c-1.8,0-3.2-0.3-4.4-0.9
			L573.1,436.4z M577.4,423.5c-0.3,1.5,0,2.6,0.6,3.5c0.6,0.9,1.6,1.3,2.9,1.3c1.2,0,2.2-0.4,3.1-1.2c0.9-0.7,1.5-1.8,1.6-2.9
			c0.3-1.5,0-2.8-0.6-4c-0.6-1-1.6-1.6-2.8-1.6s-2.2,0.4-3.2,1.5C578.3,421,577.7,422,577.4,423.5z"/>
	</g>
	<g>
		<path class="st4" d="M558.5,494.9l3.8-23.9h7.3c8.5,0,12,4,10.9,11.7c-0.6,3.8-2.2,6.7-5,9c-2.8,2.2-6,3.4-9.8,3.4h-7.2V494.9z
			 M565.5,474.3l-2.8,17.6h3.2c2.8,0,5.1-0.7,7-2.3c1.9-1.6,3.1-3.8,3.5-6.6c0.4-2.8,0-5-1.3-6.3c-1.3-1.5-3.4-2.2-6.3-2.2h-3.4
			V474.3z"/>
	</g>
</g>
</svg>
