<?xml version="1.0" encoding="utf-8"?>
<!-- Generator: Adobe Illustrator 16.0.0, SVG Export Plug-In . SVG Version: 6.00 Build 0)  -->
<!DOCTYPE svg PUBLIC "-//W3C//DTD SVG 1.1//EN" "http://www.w3.org/Graphics/SVG/1.1/DTD/svg11.dtd">
<svg version="1.1" id="圖層_1" xmlns="http://www.w3.org/2000/svg" xmlns:xlink="http://www.w3.org/1999/xlink" x="0px" y="0px"
	 width="75.974px" height="97.403px" viewBox="0 0 75.974 97.403" enable-background="new 0 0 75.974 97.403" xml:space="preserve">
<g>
	<path fill="#8A8281" d="M72.584,74.082c0,8.751-14.938,15.843-33.365,15.843S5.856,82.831,5.856,74.082
		c0-8.747,14.936-15.841,33.363-15.841S72.584,65.335,72.584,74.082"/>
	<path fill="#8A8281" d="M72.584,69.484c0,8.747-14.938,15.843-33.365,15.843S5.856,78.231,5.856,69.484
		s14.936-15.842,33.363-15.842S72.584,60.737,72.584,69.484"/>
	<path fill="#C4BFB9" d="M72.584,69.484c0,8.747-14.938,15.843-33.365,15.843S5.856,78.231,5.856,69.484
		s14.936-15.842,33.363-15.842S72.584,60.737,72.584,69.484"/>
	<path fill="#8A8281" d="M68.151,66.063c0,7.588-12.955,13.738-28.932,13.738c-15.98,0-28.939-6.152-28.939-13.738
		c0-7.585,12.959-13.734,28.939-13.734C55.196,52.328,68.151,58.478,68.151,66.063"/>
	<path fill="#8A8281" d="M68.151,62.075c0,7.587-12.955,13.737-28.932,13.737c-15.98,0-28.939-6.152-28.939-13.737
		c0-7.586,12.959-13.737,28.939-13.737C55.196,48.338,68.151,54.489,68.151,62.075"/>
	<polygon fill="#8A8281" points="68.151,66.352 66.708,68.027 66.708,62.323 68.151,62.323 	"/>
	<path fill="#C4BFB9" d="M68.151,62.075c0,7.587-12.955,13.737-28.932,13.737c-15.98,0-28.939-6.152-28.939-13.737
		c0-7.586,12.959-13.737,28.939-13.737C55.196,48.338,68.151,54.489,68.151,62.075"/>
	<path fill="#4AA236" d="M62.364,59.429c0,6.792-10.578,12.296-23.625,12.296c-13.049,0-23.627-5.504-23.627-12.296
		c0-6.791,10.578-12.293,23.627-12.293C51.786,47.135,62.364,52.638,62.364,59.429"/>
	<path fill="#8BC778" d="M44.772,61.406c0,1.676-2.709,3.034-6.049,3.034c-3.344,0-6.049-1.361-6.049-3.034
		c0-1.678,2.705-3.037,6.049-3.037C42.063,58.371,44.772,59.73,44.772,61.406"/>
	<path fill="#8BC778" d="M44.772,47.747c-0.025-4.825-2.721-8.292-6.049-8.292c-3.33,0-6.027,3.432-6.049,8.257l0.004,13.163h12.098
		L44.772,47.747L44.772,47.747z"/>
	<polygon fill="#8BC778" points="50.85,31.45 50.202,54.267 38.424,49.683 38.551,37.895 	"/>
	<path fill="#8BC778" d="M30.045,42.656c0,6.526-1.898,10.707-4.697,11.712c-2.32,0.83-5.014-5.184-5.014-11.708
		c0-6.526,2.826-12.865,5.014-11.717C27.79,32.224,30.045,36.131,30.045,42.656"/>
	<path fill="#8BC778" d="M38.368,37.816l-13.125-6.872v23.422l13.125-4.684c0.613-0.222,2.068-2.759,2.068-6.05
		C40.436,40.347,39.088,38.188,38.368,37.816"/>
	<path fill="#6AB551" d="M28.942,42.586c0,6.505-1.74,11.859-4.088,11.859c-2.346,0-4.52-5.354-4.52-11.859
		c0-6.507,2.076-11.504,4.406-11.775C26.479,30.607,28.942,36.082,28.942,42.586"/>
	<path fill="#8BC778" d="M46.19,42.952c0,6.363,1.707,10.472,4.256,11.417c2.709,1.005,4.809-5.152,4.809-11.51
		c0-6.36-1.797-12.898-4.398-11.408C48.645,32.711,46.19,36.596,46.19,42.952"/>
	<g opacity="0.7">
		<g>
			<g>
				<g>
					<g>
						<defs>
							<rect id="SVGID_1_" x="15.112" y="10.009" width="47.252" height="61.72"/>
						</defs>
						<clipPath id="SVGID_2_">
							<use xlink:href="#SVGID_1_"  overflow="visible"/>
						</clipPath>
						<path clip-path="url(#SVGID_2_)" fill="#62AD31" d="M62.362,29.052c-0.08-10.529-10.629-19.045-23.623-19.045
							s-23.541,8.518-23.623,19.045h-0.004v0.122v30.255c0,6.792,10.576,12.292,23.627,12.292c13.047,0,23.625-5.5,23.625-12.292
							V29.173L62.362,29.052L62.362,29.052z"/>
					</g>
				</g>
			</g>
		</g>
	</g>
	<g opacity="0.9">
		<g>
			<g>
				<g>
					<g>
						<defs>
							<rect id="SVGID_3_" x="37.977" y="10.009" width="24.389" height="59.146"/>
						</defs>
						<clipPath id="SVGID_4_">
							<use xlink:href="#SVGID_3_"  overflow="visible"/>
						</clipPath>
						<path clip-path="url(#SVGID_4_)" fill="#4AA236" d="M62.362,29.052c-0.08-10.529-10.629-19.045-23.623-19.045
							c-0.254,0-0.504,0.008-0.762,0.015c0.012,0,13.41,0.633,15.061,19.03c0.107,1.207,0.166,2.492,0.166,3.857v11.412v5.391v9.716
							v9.719c5.57-2.252,9.16-5.765,9.16-9.719V29.173C62.364,29.13,62.362,29.091,62.362,29.052"/>
					</g>
				</g>
			</g>
		</g>
	</g>
	<g opacity="0.9">
		<g>
			<g>
				<g>
					<g>
						<defs>
							<rect id="SVGID_5_" x="15.112" y="12.937" width="11.072" height="52.462"/>
						</defs>
						<clipPath id="SVGID_6_">
							<use xlink:href="#SVGID_5_"  overflow="visible"/>
						</clipPath>
						<path clip-path="url(#SVGID_6_)" fill="#4AA236" d="M26.186,12.938c-6.609,3.368-11.021,9.322-11.074,16.113h-0.004v30.377
							c0,2.167,1.084,4.201,2.973,5.97c0-0.015,0.014-2.394,0.021-5.97c0.004-1.763,0.012-3.808,0.018-6.005
							c0.023-9.678,0.035-22.275-0.035-25.981C17.895,17.942,25.254,13.466,26.186,12.938"/>
					</g>
				</g>
			</g>
		</g>
	</g>
	<path fill="#FFFFFF" d="M30.352,17.113c0.744,1.175-0.299,3.162-2.328,4.438c-2.031,1.281-4.27,1.363-5.012,0.189
		c-0.742-1.174,0.305-3.164,2.332-4.44C27.37,16.024,29.612,15.941,30.352,17.113"/>
</g>
</svg>
