<?xml version="1.0" encoding="utf-8"?>
<!-- Generator: Adobe Illustrator 23.0.2, SVG Export Plug-In . SVG Version: 6.00 Build 0)  -->
<svg version="1.1" id="圖層_1" xmlns="http://www.w3.org/2000/svg" xmlns:xlink="http://www.w3.org/1999/xlink" x="0px" y="0px"
	 viewBox="0 0 184.5 210.4" style="enable-background:new 0 0 184.5 210.4;" xml:space="preserve">
<style type="text/css">
	.st0{fill:#FFFFFF;fill-opacity:0;}
	.st1{fill:#325782;fill-opacity:0;}
	.st2{opacity:0;fill:#235384;}
</style>
<title>grzl</title>
<path class="st0" d="M160.6,74c0,37.8-30.7,68.5-68.5,68.5S23.6,111.8,23.6,74S54.3,5.5,92.1,5.5l0,0C130,5.5,160.6,36.1,160.6,74
	L160.6,74z"/>
<path class="st1" d="M143,95.1c0,6.6-5.4,12-12,12H53.4c-6.6,0-12-5.4-12-12V53.3c0-6.6,5.4-12,12-12H131c6.6,0,12,5.4,12,12V95.1z"
	/>
<path class="st0" d="M70.5,51.9c-12.3,0-22.2,9.9-22.2,22.2c0,6.5,2.9,12.7,7.8,16.9c0.7-6.1,5.9-10.8,12.1-10.8h4.6
	c6.2,0,11.4,4.6,12.1,10.8c9.3-7.9,10.5-22,2.5-31.3C83.2,54.7,77,51.9,70.5,51.9 M70.5,78.6c-3.9,0-7.2-3.2-7.2-7.1
	s3.2-7.2,7.1-7.2s7.2,3.2,7.2,7.1l0,0C77.6,75.4,74.4,78.6,70.5,78.6 M82.2,73.5c-0.1,0.7-0.8,1.3-1.5,1.3c-0.1,0-0.2,0-0.3,0
	c-0.8-0.1-1.4-0.9-1.2-1.7l0,0c0.1-0.5,0.1-1,0.1-1.6c0-4.9-4-8.9-8.9-8.9s-8.9,4-8.9,8.9c0,0.5,0.1,1,0.2,1.6
	c0.1,0.8-0.4,1.6-1.2,1.8c-0.8,0.1-1.6-0.4-1.8-1.2l0,0c-0.1-0.7-0.2-1.4-0.2-2.1c0-6.6,5.3-11.9,11.9-11.9S82.3,65,82.3,71.6
	C82.4,72.2,82.4,72.9,82.2,73.5"/>
<path class="st0" d="M70.5,97.5c-12.9,0-23.3-10.4-23.3-23.3s10.4-23.3,23.3-23.3s23.3,10.4,23.3,23.3C93.8,87,83.4,97.4,70.5,97.5
	 M70.5,53c-11.6,0-21.1,9.4-21.1,21.1c0,11.6,9.4,21.1,21.1,21.1s21.1-9.4,21.1-21.1l0,0C91.5,62.5,82.1,53.1,70.5,53"/>
<path class="st0" d="M136,79.5c0,1-0.8,1.9-1.9,1.9h-32.7c-1,0-1.9-0.8-1.9-1.9l0,0c0-1,0.8-1.9,1.8-1.9l0,0H134
	C135.2,77.6,136,78.5,136,79.5L136,79.5L136,79.5z"/>
<path class="st0" d="M136,88.4c0,1-0.8,1.9-1.8,1.9l0,0h-32.7c-1,0-1.9-0.8-1.9-1.9l0,0l0,0c0-1,0.8-1.8,1.9-1.8l0,0h32.7
	C135.2,86.6,136,87.4,136,88.4L136,88.4L136,88.4z"/>
<path class="st0" d="M136,97.4c0,1-0.8,1.9-1.9,1.9h-32.7c-1,0-1.9-0.8-1.9-1.9l0,0c0-1,0.8-1.9,1.8-1.9l0,0H134
	C135.2,95.5,136,96.4,136,97.4L136,97.4L136,97.4z"/>
<path class="st0" d="M137.2,66.1c0,3-2.5,5.5-5.5,5.5l0,0H104c-3,0-5.5-2.5-5.5-5.5l0,0V55.5c0-3,2.5-5.5,5.5-5.5h27.7
	c3,0,5.5,2.5,5.5,5.5V66.1z"/>
<rect x="39.6" y="16.7" class="st2" width="105.2" height="101"/>
</svg>
