<?xml version="1.0" encoding="utf-8"?>
<!-- Generator: Adobe Illustrator 16.0.0, SVG Export Plug-In . SVG Version: 6.00 Build 0)  -->
<!DOCTYPE svg PUBLIC "-//W3C//DTD SVG 1.1//EN" "http://www.w3.org/Graphics/SVG/1.1/DTD/svg11.dtd">
<svg version="1.1" id="圖層_1" xmlns="http://www.w3.org/2000/svg" xmlns:xlink="http://www.w3.org/1999/xlink" x="0px" y="0px"
	 width="112px" height="112.5px" viewBox="429.445 138.974 112 112.5" enable-background="new 429.445 138.974 112 112.5"
	 xml:space="preserve">
<title>gz</title>
<path fill="#DFF0F5" d="M485.095,141.233c-29.51,0-53.451,23.941-53.451,53.451c0,29.51,23.941,53.451,53.451,53.451
	c29.51-0.044,53.451-23.941,53.451-53.451C538.546,165.174,514.605,141.233,485.095,141.233z"/>
<g>
	<defs>
		<circle id="SVGID_1_" cx="485.095" cy="194.684" r="48.277"/>
	</defs>
	<clipPath id="SVGID_2_">
		<use xlink:href="#SVGID_1_"  overflow="visible"/>
	</clipPath>
	<g clip-path="url(#SVGID_2_)">
		
			<image overflow="visible" width="2704" height="4176" xlink:href="../../../../pexels-min-an-752819.jpg"  transform="matrix(0.0967 0 0 0.0967 327.5405 97.7339)">
		</image>
	</g>
</g>
<g>
	<circle fill="#4291BE" cx="521.49" cy="232.657" r="11.532"/>
	<path fill="#DFF0F5" d="M514.562,236.691v-7.016c0-0.043,0-0.043,0-0.087c0.131-0.79,0.832-1.403,1.621-1.447
		c0.57,0,1.184,0,1.754,0c0.088,0,0.219-0.044,0.264-0.132c0.307-0.526,0.658-1.008,1.008-1.491
		c0.045-0.088,0.133-0.132,0.264-0.132h4.428c0.088,0,0.221,0.044,0.264,0.132c0.352,0.526,0.701,1.008,1.01,1.579
		c0.043,0.087,0.131,0.131,0.219,0.087h1.578c0.658-0.043,1.316,0.351,1.623,0.921c0.088,0.219,0.174,0.438,0.219,0.658v6.972
		c0,0.043,0,0.043,0,0.087c-0.045,0.263-0.131,0.526-0.307,0.702c-0.352,0.482-0.965,0.79-1.578,0.746h-10.48
		c-0.834,0.044-1.578-0.482-1.799-1.272C514.648,236.822,514.605,236.778,514.562,236.691z M521.708,236.998h5.262
		c0.352,0,0.658-0.263,0.658-0.614v-0.044c0-2.104,0-4.253,0-6.358c0.043-0.351-0.176-0.658-0.527-0.702c-0.043,0-0.086,0-0.174,0
		c-0.703,0-1.447,0-2.148,0c-0.088,0-0.176-0.044-0.221-0.131l-1.008-1.579c-0.045-0.088-0.131-0.131-0.219-0.088h-3.246
		c-0.088,0-0.174,0.044-0.219,0.088c-0.352,0.526-0.701,1.052-1.008,1.579c-0.045,0.087-0.133,0.131-0.221,0.131
		c-0.35,0-0.701,0-1.051,0c-0.352,0-0.789,0-1.186,0c-0.307,0-0.613,0.219-0.613,0.57v0.044v6.489c0,0.132,0.045,0.219,0.088,0.307
		c0.131,0.175,0.352,0.307,0.57,0.263L521.708,236.998z"/>
	<path fill="#DFF0F5" d="M521.708,229.895c1.623,0,2.982,1.315,2.938,2.981c0,1.623-1.314,2.981-2.98,2.938
		c-1.623,0-2.982-1.315-2.939-2.982l0,0C518.726,231.21,520.085,229.895,521.708,229.895z M521.708,231.122
		c-0.965,0-1.754,0.789-1.754,1.798c0,0.965,0.789,1.754,1.797,1.754c1.01,0,1.754-0.789,1.754-1.798
		C523.462,231.911,522.673,231.122,521.708,231.122L521.708,231.122z"/>
</g>
</svg>
