<?xml version="1.0" encoding="utf-8"?>
<!-- Generator: Adobe Illustrator 16.0.0, SVG Export Plug-In . SVG Version: 6.00 Build 0)  -->
<!DOCTYPE svg PUBLIC "-//W3C//DTD SVG 1.1//EN" "http://www.w3.org/Graphics/SVG/1.1/DTD/svg11.dtd">
<svg version="1.1" id="圖層_1" xmlns="http://www.w3.org/2000/svg" xmlns:xlink="http://www.w3.org/1999/xlink" x="0px" y="0px"
	 width="60.833px" height="61.833px" viewBox="0 0 60.833 61.833" enable-background="new 0 0 60.833 61.833" xml:space="preserve">
<g>
	<g>
		<path fill="#FFFFFF" d="M59.295,30.993c0,15.976-12.951,28.927-28.927,28.927c-15.977,0-28.928-12.951-28.928-28.927
			S14.392,2.066,30.369,2.066C46.344,2.066,59.295,15.017,59.295,30.993"/>
		<path fill="#1580BC" d="M12.062,32.277H5.177c-0.71,0-1.283-0.575-1.283-1.284s0.573-1.283,1.283-1.283h6.885V32.277z"/>
		<path fill="#1580BC" d="M55.56,32.277h-6.885v-2.567h6.885c0.709,0,1.283,0.574,1.283,1.283S56.269,32.277,55.56,32.277"/>
		<path fill="#1580BC" d="M31.666,5.753v6.886h-2.566V5.753c0-0.709,0.574-1.282,1.282-1.282C31.09,4.471,31.666,5.044,31.666,5.753
			"/>
		<path fill="#1580BC" d="M49.113,14.132L44.244,19l-1.814-1.815l4.868-4.868c0.501-0.501,1.313-0.501,1.815,0
			C49.613,12.818,49.613,13.631,49.113,14.132"/>
		<path fill="#1580BC" d="M13.386,12.236l4.868,4.869l-1.815,1.815l-4.867-4.869c-0.502-0.501-0.502-1.313,0-1.815
			C12.072,11.735,12.885,11.735,13.386,12.236"/>
		<path fill="#1580BC" d="M52.249,27.57l-3.84,0.664l-0.248-1.432L52,26.138c0.396-0.068,0.772,0.196,0.84,0.592
			C52.91,27.125,52.644,27.501,52.249,27.57"/>
		<path fill="#1580BC" d="M51.216,23.6l-3.543,1.625l-0.606-1.321l3.543-1.625c0.364-0.166,0.796-0.006,0.964,0.358
			C51.741,23.001,51.582,23.433,51.216,23.6"/>
		<path fill="#1580BC" d="M49.306,19.671l-3.145,2.304l-0.859-1.172l3.145-2.304c0.322-0.238,0.777-0.168,1.015,0.156
			C49.7,18.979,49.629,19.434,49.306,19.671"/>
		<path fill="#1580BC" d="M43.265,12.885l-2.135,3.261l-1.217-0.797l2.136-3.26c0.22-0.336,0.67-0.43,1.006-0.21
			C43.39,12.098,43.486,12.549,43.265,12.885"/>
		<path fill="#1580BC" d="M39.765,10.801l-1.543,3.58l-1.334-0.575l1.541-3.58c0.159-0.368,0.586-0.538,0.955-0.38
			C39.753,10.005,39.923,10.433,39.765,10.801"/>
		<path fill="#1580BC" d="M35.412,9.328l-0.639,3.846l-1.434-0.238l0.638-3.845c0.065-0.396,0.44-0.663,0.836-0.598
			S35.477,8.932,35.412,9.328"/>
		<path fill="#1580BC" d="M8.477,27.57l3.841,0.664l0.247-1.432l-3.84-0.664c-0.396-0.068-0.771,0.196-0.84,0.592
			S8.082,27.501,8.477,27.57"/>
		<path fill="#1580BC" d="M9.509,23.6l3.543,1.625l0.606-1.321l-3.543-1.625c-0.365-0.166-0.796-0.006-0.963,0.358
			S9.144,23.433,9.509,23.6"/>
		<path fill="#1580BC" d="M11.42,19.671l3.144,2.304l0.858-1.172L12.279,18.5c-0.322-0.238-0.777-0.168-1.016,0.156
			C11.027,18.979,11.096,19.434,11.42,19.671"/>
		<path fill="#1580BC" d="M17.46,12.885l2.135,3.261l1.217-0.797l-2.135-3.26c-0.221-0.336-0.67-0.43-1.006-0.21
			C17.335,12.098,17.241,12.549,17.46,12.885"/>
		<path fill="#1580BC" d="M20.96,10.801l1.543,3.58l1.334-0.575l-1.541-3.58c-0.16-0.368-0.586-0.538-0.955-0.38
			C20.973,10.005,20.802,10.433,20.96,10.801"/>
		<path fill="#1580BC" d="M25.314,9.328l0.639,3.846l1.434-0.238L26.749,9.09c-0.065-0.396-0.44-0.663-0.836-0.598
			S25.249,8.932,25.314,9.328"/>
		<path fill="#1580BC" d="M15.278,46.857h-3.617c-0.442,0-0.8-0.357-0.8-0.8v-4.437c0-0.44,0.357-0.799,0.8-0.799h3.617
			c0.442,0,0.8,0.358,0.8,0.799v4.437C16.078,46.5,15.72,46.857,15.278,46.857"/>
		<path fill="#1580BC" d="M22.038,46.857H18.42c-0.442,0-0.8-0.357-0.8-0.8v-4.437c0-0.44,0.357-0.799,0.8-0.799h3.617
			c0.44,0,0.8,0.358,0.8,0.799v4.437C22.837,46.5,22.478,46.857,22.038,46.857"/>
		<path fill="#1580BC" d="M28.796,46.857h-3.617c-0.441,0-0.799-0.357-0.799-0.8v-4.437c0-0.44,0.357-0.799,0.799-0.799h3.617
			c0.442,0,0.801,0.358,0.801,0.799v4.437C29.597,46.5,29.239,46.857,28.796,46.857"/>
		<path fill="#1580BC" d="M35.556,46.857h-3.617c-0.441,0-0.799-0.357-0.799-0.8v-4.437c0-0.44,0.357-0.799,0.799-0.799h3.617
			c0.441,0,0.801,0.358,0.801,0.799v4.437C36.357,46.5,35.998,46.857,35.556,46.857"/>
		<path fill="#1580BC" d="M42.316,46.857h-3.617c-0.441,0-0.8-0.357-0.8-0.8v-4.437c0-0.44,0.358-0.799,0.8-0.799h3.617
			c0.441,0,0.8,0.358,0.8,0.799v4.437C43.116,46.5,42.757,46.857,42.316,46.857"/>
		<path fill="#1580BC" d="M49.076,46.857h-3.617c-0.441,0-0.8-0.357-0.8-0.8v-4.437c0-0.44,0.358-0.799,0.8-0.799h3.617
			c0.441,0,0.8,0.358,0.8,0.799v4.437C49.875,46.5,49.517,46.857,49.076,46.857"/>
		<path fill="#E6D46B" d="M30.746,20.929h6.445c0.186,0,0.291,0.211,0.181,0.36l-5.815,7.84c-0.111,0.149-0.004,0.36,0.181,0.36
			h5.38c0.197,0,0.299,0.236,0.164,0.38L24.7,43.201c-0.177,0.186-0.478-0.018-0.369-0.25l4.323-9.274
			c0.07-0.149-0.039-0.321-0.204-0.321h-5.847c-0.182,0-0.289-0.203-0.188-0.353l8.143-11.974
			C30.601,20.966,30.67,20.929,30.746,20.929"/>
	</g>
	<g>
		<path fill="#1580BC" d="M30.369,60.92c-16.502,0-29.928-13.425-29.928-29.927S13.867,1.066,30.369,1.066
			s29.927,13.426,29.927,29.928S46.871,60.92,30.369,60.92z M30.369,3.066c-15.398,0-27.928,12.528-27.928,27.928
			c0,15.398,12.529,27.927,27.928,27.927s27.927-12.528,27.927-27.927C58.295,15.594,45.767,3.066,30.369,3.066z"/>
	</g>
</g>
</svg>
