<?xml version="1.0" encoding="utf-8"?>
<!-- Generator: Adobe Illustrator 16.0.0, SVG Export Plug-In . SVG Version: 6.00 Build 0)  -->
<!DOCTYPE svg PUBLIC "-//W3C//DTD SVG 1.1//EN" "http://www.w3.org/Graphics/SVG/1.1/DTD/svg11.dtd">
<svg version="1.1" id="圖層_1" xmlns="http://www.w3.org/2000/svg" xmlns:xlink="http://www.w3.org/1999/xlink" x="0px" y="0px"
	 width="23.063px" height="23.188px" viewBox="0 0 23.063 23.188" enable-background="new 0 0 23.063 23.188" xml:space="preserve">
<g>
	<path fill-rule="evenodd" clip-rule="evenodd" fill="#FFFFFF" d="M11.501,22.783c-2.229-0.02-4.449,0.029-6.604-0.387
		c-2.683-0.518-4.381-2.549-4.478-5.285C0.282,13.289,0.29,9.458,0.433,5.638c0.1-2.696,2.336-5.104,5.025-5.232
		c4.036-0.194,8.098-0.186,12.133-0.004c2.613,0.117,4.909,2.415,5.022,5.021c0.181,4.039,0.193,8.098-0.004,12.133
		c-0.134,2.701-2.527,4.771-5.229,5.063c-0.536,0.057-1.069,0.148-1.605,0.158C14.349,22.799,12.924,22.783,11.501,22.783
		C11.496,22.838,11.504,22.73,11.501,22.783z M11.521,20.699c1.682,0,3.36,0.043,5.036-0.01c2.495-0.076,4.146-1.717,4.186-4.23
		c0.057-3.324,0.06-6.651,0-9.974c-0.04-2.51-1.691-4.166-4.203-4.209C13.184,2.212,9.825,2.209,6.472,2.277
		C4.019,2.325,2.374,3.993,2.33,6.452c-0.057,3.356-0.057,6.716,0.002,10.072c0.042,2.445,1.704,4.08,4.154,4.164
		C8.163,20.746,9.845,20.699,11.521,20.699z"/>
	<path fill-rule="evenodd" clip-rule="evenodd" fill="none" stroke="#FFFFFF" stroke-width="0.0475" stroke-miterlimit="10" d="
		M11.521,20.699c-1.676,0-3.357,0.047-5.034-0.012c-2.45-0.084-4.112-1.719-4.154-4.164C2.273,13.168,2.273,9.808,2.33,6.452
		c0.044-2.459,1.688-4.127,4.142-4.175c3.354-0.067,6.712-0.064,10.067-0.001c2.512,0.043,4.163,1.699,4.203,4.209
		c0.06,3.323,0.057,6.65,0,9.974c-0.04,2.514-1.69,4.154-4.186,4.23C14.881,20.742,13.202,20.699,11.521,20.699z M11.586,5.672
		c-3.211-0.016-5.827,2.55-5.856,5.736c-0.027,3.207,2.538,5.85,5.711,5.879c3.261,0.029,5.897-2.555,5.907-5.783
		C17.352,8.3,14.769,5.685,11.586,5.672z M16.264,5.398C16.25,6.151,16.81,6.73,17.566,6.749c0.758,0.016,1.315-0.532,1.325-1.298
		c0.012-0.807-0.478-1.313-1.274-1.327C16.842,4.111,16.275,4.644,16.264,5.398z"/>
	<path fill-rule="evenodd" clip-rule="evenodd" fill="#FFFFFF" d="M11.586,5.672c3.183,0.013,5.766,2.628,5.762,5.832
		c-0.01,3.229-2.646,5.813-5.907,5.783c-3.173-0.029-5.738-2.672-5.711-5.879C5.759,8.222,8.375,5.657,11.586,5.672z M11.501,15.313
		c1.984,0.051,3.785-1.707,3.867-3.771c0.073-1.967-1.682-3.796-3.746-3.892c-1.991-0.095-3.902,1.77-3.918,3.816
		C7.69,13.471,9.453,15.26,11.501,15.313z"/>
	<path fill-rule="evenodd" clip-rule="evenodd" fill="#FFFFFF" d="M16.264,5.398c0.012-0.754,0.578-1.287,1.354-1.274
		c0.797,0.014,1.286,0.521,1.274,1.327c-0.01,0.766-0.567,1.313-1.325,1.298C16.81,6.73,16.25,6.151,16.264,5.398z"/>
	<path fill-rule="evenodd" clip-rule="evenodd" fill="none" stroke="#FFFFFF" stroke-width="0.0475" stroke-miterlimit="10" d="
		M11.501,15.313c-2.048-0.053-3.811-1.842-3.797-3.848c0.016-2.046,1.927-3.911,3.918-3.816c2.064,0.096,3.819,1.925,3.746,3.892
		C15.286,13.605,13.485,15.363,11.501,15.313z"/>
</g>
</svg>
