<?xml version="1.0" encoding="utf-8"?>
<!-- Generator: Adobe Illustrator 16.0.0, SVG Export Plug-In . SVG Version: 6.00 Build 0)  -->
<!DOCTYPE svg PUBLIC "-//W3C//DTD SVG 1.1//EN" "http://www.w3.org/Graphics/SVG/1.1/DTD/svg11.dtd">
<svg version="1.1" id="圖層_1" xmlns="http://www.w3.org/2000/svg" xmlns:xlink="http://www.w3.org/1999/xlink" x="0px" y="0px"
	 width="187.49px" height="314px" viewBox="0 0 187.49 314" enable-background="new 0 0 187.49 314" xml:space="preserve">
<g>
	<path fill="#8A8281" d="M161.526,171.896c0,17.785-30.346,32.188-67.782,32.188c-37.433,0-67.779-14.412-67.779-32.188
		c0-17.77,30.348-32.182,67.779-32.182C131.181,139.715,161.526,154.126,161.526,171.896"/>
	<path fill="#8A8281" d="M161.526,162.555c0,17.777-30.346,32.19-67.782,32.19c-37.433,0-67.779-14.417-67.779-32.19
		c0-17.769,30.348-32.181,67.779-32.181C131.181,130.374,161.526,144.786,161.526,162.555"/>
	<path fill="#C3BFB9" d="M161.526,162.555c0,17.777-30.346,32.19-67.782,32.19c-37.433,0-67.779-14.417-67.779-32.19
		c0-17.769,30.348-32.181,67.779-32.181C131.181,130.374,161.526,144.786,161.526,162.555"/>
	<path fill="#8A8281" d="M152.52,155.606c0,15.416-26.318,27.914-58.775,27.914s-58.783-12.498-58.783-27.914
		c0-15.411,26.326-27.907,58.783-27.907C126.201,127.7,152.52,140.195,152.52,155.606"/>
	<path fill="#8A8281" d="M152.52,147.504c0,15.412-26.318,27.909-58.775,27.909s-58.783-12.497-58.783-27.909
		s26.326-27.908,58.783-27.908C126.201,119.597,152.52,132.092,152.52,147.504"/>
	<polygon fill="#8A8281" points="152.52,156.188 149.584,159.592 149.584,148.003 152.52,148.003 	"/>
	<path fill="#C3BFB9" d="M152.52,147.504c0,15.412-26.318,27.909-58.775,27.909s-58.783-12.497-58.783-27.909
		s26.326-27.908,58.783-27.908C126.201,119.597,152.52,132.092,152.52,147.504"/>
	<path fill="#49AA27" d="M140.761,142.127c0,13.798-21.489,24.975-47.998,24.975c-26.506,0-47.997-11.177-47.997-24.975
		c0-13.797,21.491-24.977,47.997-24.977C119.271,117.151,140.761,128.33,140.761,142.127"/>
	<path fill="#8ECF7A" d="M105.021,146.145c0,3.408-5.503,6.168-12.287,6.168c-6.793,0-12.29-2.765-12.29-6.168
		s5.497-6.167,12.29-6.167C99.519,139.979,105.021,142.741,105.021,146.145"/>
	<path fill="#8ECF7A" d="M105.021,118.393c-0.046-9.803-5.524-16.847-12.287-16.847c-6.767,0-12.248,6.972-12.29,16.774l0.008,26.74
		h24.569V118.393L105.021,118.393z"/>
	<polygon fill="#8ECF7A" points="117.371,85.287 116.053,131.634 92.128,122.324 92.385,98.381 	"/>
	<path fill="#8ECF7A" d="M75.101,108.05c0,13.26-3.854,21.755-9.543,23.792c-4.718,1.693-10.184-10.53-10.184-23.783
		c0-13.261,5.741-26.137,10.184-23.805C70.52,86.859,75.101,94.792,75.101,108.05"/>
	<path fill="#8ECF7A" d="M92.013,98.217L65.344,84.258v47.584l26.669-9.516c1.241-0.451,4.199-5.604,4.199-12.29
		C96.212,103.357,93.476,98.972,92.013,98.217"/>
	<path fill="#6CBE51" d="M72.859,107.913c0,13.215-3.529,24.093-8.304,24.093c-4.762,0-9.182-10.878-9.182-24.093
		c0-13.218,4.223-23.369,8.954-23.924C67.86,83.572,72.859,94.695,72.859,107.913"/>
	<path fill="#8ECF7A" d="M107.899,108.654c0,12.927,3.47,21.276,8.646,23.196c5.502,2.041,9.767-10.466,9.767-23.386
		c0-12.924-3.647-26.202-8.937-23.177C112.89,87.85,107.899,95.736,107.899,108.654"/>
	<g opacity="0.7">
		<g>
			<g>
				<g>
					<defs>
						<rect id="SVGID_1_" x="44.77" y="41.724" width="95.998" height="125.398"/>
					</defs>
					<clipPath id="SVGID_2_">
						<use xlink:href="#SVGID_1_"  overflow="visible"/>
					</clipPath>
					<path clip-path="url(#SVGID_2_)" fill="#63B622" d="M140.756,80.412c-0.161-21.391-21.586-38.695-47.993-38.695
						c-26.402,0-47.829,17.304-47.988,38.695h-0.009v0.246v61.47c0,13.798,21.487,24.972,47.997,24.972
						c26.509,0,47.998-11.174,47.998-24.972v-61.47v-0.246H140.756z"/>
				</g>
			</g>
		</g>
	</g>
	<g opacity="0.9">
		<g>
			<g>
				<g>
					<defs>
						<rect id="SVGID_3_" x="91.222" y="41.724" width="49.546" height="120.165"/>
					</defs>
					<clipPath id="SVGID_4_">
						<use xlink:href="#SVGID_3_"  overflow="visible"/>
					</clipPath>
					<path clip-path="url(#SVGID_4_)" fill="#49AA27" d="M140.756,80.412c-0.161-21.391-21.586-38.695-47.993-38.695
						c-0.515,0-1.023,0.021-1.541,0.033c0.021,0,27.24,1.284,30.591,38.662c0.22,2.453,0.341,5.061,0.341,7.837v23.185v10.952
						v19.742v19.743c11.314-4.573,18.607-11.71,18.607-19.743v-61.47C140.761,80.573,140.756,80.491,140.756,80.412"/>
				</g>
			</g>
		</g>
	</g>
	<g opacity="0.9">
		<g>
			<g>
				<g>
					<defs>
						<rect id="SVGID_5_" x="44.77" y="47.669" width="22.496" height="106.586"/>
					</defs>
					<clipPath id="SVGID_6_">
						<use xlink:href="#SVGID_5_"  overflow="visible"/>
					</clipPath>
					<path clip-path="url(#SVGID_6_)" fill="#49AA27" d="M67.266,47.676c-13.432,6.845-22.39,18.938-22.496,32.739h-0.009v61.713
						c0,4.401,2.201,8.534,6.041,12.128c0-0.03,0.022-4.862,0.042-12.128c0.011-3.572,0.028-7.731,0.035-12.201
						c0.045-19.659,0.07-45.25-0.07-52.78C50.424,57.841,65.367,48.748,67.266,47.676"/>
				</g>
			</g>
		</g>
	</g>
	<path fill="#FFFFFF" d="M75.733,56.158c1.508,2.384-0.61,6.423-4.735,9.016c-4.119,2.601-8.679,2.77-10.183,0.385
		c-1.504-2.383,0.617-6.425,4.738-9.02C69.675,53.945,74.231,53.774,75.733,56.158"/>
</g>
<g>
	<g>
		<path fill="#FFFFFF" d="M71.857,134.633h-13.59v-2.921h5.052v-16.675l-5.186,1.401v-3.07l8.687-2.279v20.623h5.037V134.633z"/>
		<path fill="#FFFFFF" d="M78.635,123.531c0-4.054,0.693-7.128,2.079-9.224c1.387-2.097,3.395-3.145,6.027-3.145
			c5.018,0,7.524,3.939,7.524,11.817c0,3.854-0.686,6.824-2.057,8.911c-1.37,2.086-3.358,3.13-5.961,3.13
			c-2.514,0-4.41-0.983-5.692-2.951C79.275,130.104,78.635,127.257,78.635,123.531z M82.196,123.396
			c0,5.882,1.427,8.821,4.276,8.821c2.813,0,4.218-2.999,4.218-9c0-6.159-1.376-9.239-4.128-9.239
			C83.651,113.979,82.196,117.118,82.196,123.396z"/>
		<path fill="#FFFFFF" d="M100.507,123.531c0-4.054,0.692-7.128,2.079-9.224c1.387-2.097,3.396-3.145,6.027-3.145
			c5.018,0,7.525,3.939,7.525,11.817c0,3.854-0.688,6.824-2.058,8.911c-1.37,2.086-3.357,3.13-5.961,3.13
			c-2.514,0-4.41-0.983-5.692-2.951C101.147,130.104,100.507,127.257,100.507,123.531z M104.068,123.396
			c0,5.882,1.427,8.821,4.276,8.821c2.812,0,4.218-2.999,4.218-9c0-6.159-1.376-9.239-4.128-9.239
			C105.524,113.979,104.068,117.118,104.068,123.396z"/>
	</g>
	<g>
		<path fill="#FFFFFF" d="M129.306,128.693h-6.103v2.874c0,1.434-0.302,2.613-0.902,3.541l-0.657-0.44
			c0.52-0.79,0.777-1.824,0.777-3.101v-3.562h2.874c-0.113-0.178-0.226-0.33-0.334-0.458l0.851-0.185
			c0.114,0.194,0.237,0.408,0.368,0.643h3.126V128.693L129.306,128.693z M129.356,134.342l-0.234,0.745
			c-1.046-0.061-2.029-0.278-2.95-0.655c-0.756,0.316-1.649,0.541-2.682,0.676l-0.358-0.745c0.892-0.048,1.621-0.181,2.188-0.396
			c-0.509-0.316-0.897-0.749-1.173-1.297h-0.385v-0.691h4.598v0.691c-0.303,0.469-0.756,0.9-1.358,1.297
			C127.665,134.199,128.451,134.325,129.356,134.342z M129.22,130.195h-1.287v1.286h-3.382v-1.286h-1.053v-0.685h1.053v-0.519h0.752
			v0.519h1.864v-0.519h0.766v0.519h1.287V130.195z M127.367,132.67h-2.317c0.237,0.359,0.599,0.682,1.087,0.967
			C126.692,133.317,127.103,132.995,127.367,132.67z M127.167,130.806v-0.61h-1.864v0.61H127.167z"/>
	</g>
</g>
</svg>
