<?xml version="1.0" encoding="utf-8"?>
<!-- Generator: Adobe Illustrator 16.0.0, SVG Export Plug-In . SVG Version: 6.00 Build 0)  -->
<!DOCTYPE svg PUBLIC "-//W3C//DTD SVG 1.1//EN" "http://www.w3.org/Graphics/SVG/1.1/DTD/svg11.dtd">
<svg version="1.1" id="圖層_1" xmlns="http://www.w3.org/2000/svg" xmlns:xlink="http://www.w3.org/1999/xlink" x="0px" y="0px"
	 width="166px" height="50px" viewBox="0 0 166 50" enable-background="new 0 0 166 50" xml:space="preserve">
<path fill="#4DAC27" d="M154.497,24.969c0-9.035-7.324-16.361-16.361-16.361c-0.462,0-0.918,0.022-1.371,0.062H29.234
	c-0.453-0.037-0.908-0.062-1.369-0.062c-9.037,0-16.362,7.326-16.362,16.361s7.325,16.362,16.362,16.362
	c0.018,0,0.031-0.001,0.05-0.001v0.063h110.271V41.33C147.199,41.303,154.497,33.988,154.497,24.969"/>
<g>
	<path fill="#FFFFFF" d="M35.325,23.104c-0.205,1.942-0.528,3.397-0.971,4.366l-1.254-0.73c0.276-0.714,0.473-1.45,0.59-2.208
		h-1.121v6.582c0,0.344-0.148,0.656-0.444,0.938s-1.16,0.387-2.594,0.315l-0.432-1.461c0.83,0.021,1.372,0.021,1.627,0
		c0.255-0.022,0.382-0.142,0.382-0.357v-6.018h-2.35v-1.428h2.641c-0.554-0.809-1.218-1.663-1.992-2.565l1.262-0.73
		c0.314,0.365,0.619,0.739,0.912,1.121c0.62-0.653,1.058-1.188,1.313-1.603h-3.777v-1.444h5.495v1.444
		c-0.625,1.013-1.339,1.948-2.142,2.806c0.271,0.394,0.481,0.717,0.631,0.972H35.325z M43.534,19.293h-3.295
		c-0.094,0.365-0.246,0.83-0.457,1.395h3.229v8.483H38.33l0.772,0.747c-1.24,1.151-2.472,2.031-3.694,2.64l-0.987-1.212
		c0.974-0.382,2.053-1.106,3.236-2.175h-1.893v-8.483h2.35c0.177-0.398,0.34-0.863,0.49-1.395h-3.412v-1.411h8.342V19.293z
		 M41.493,23.021v-0.972h-4.25v0.972H41.493z M41.493,25.402v-1.037h-4.25v1.037H41.493z M41.493,27.776v-1.054h-4.25v1.054H41.493z
		 M43.758,31.279l-0.955,1.154c-1.057-0.709-2.105-1.273-3.146-1.693l0.872-1.212C41.747,30.026,42.823,30.61,43.758,31.279z"/>
	<path fill="#FFFFFF" d="M52.191,17.849c-0.188,0.57-0.482,1.284-0.881,2.142l-0.598,1.245v11.148h-1.519v-8.566
		c-0.382,0.503-0.772,0.974-1.171,1.411l-0.746-1.494c1.295-1.527,2.435-3.625,3.42-6.292L52.191,17.849z M62.234,22.19h-4.54v3.195
		h3.52v6.998h-1.527v-0.747h-5.595v0.747h-1.511v-6.998h3.586V22.19H51.56v-1.486h4.606v-3.088h1.527v3.088h4.54V22.19z
		 M59.686,30.159v-3.313h-5.595v3.313H59.686z"/>
	<path fill="#FFFFFF" d="M80.461,23.46h-1.478v-2.274H68.036v2.291H66.5v-3.603h6.259v-2.291h1.494v2.291h6.209V23.46z M79.606,32.4
		h-1.443v-0.714h-9.297V32.4h-1.479v-6.268h12.219V32.4z M71.165,19.094l-1.553,0.523c-0.437-0.504-0.93-0.975-1.477-1.411
		l1.494-0.59C70.298,18.137,70.81,18.629,71.165,19.094z M72.792,28.291V27.32h-3.926v0.971H72.792z M72.792,30.466v-1.004h-3.926
		v1.004H72.792z M77.997,25.278h-9.016v-3.246h9.016V25.278z M76.502,24.124v-0.921h-6.019v0.921H76.502z M78.163,28.291V27.32
		h-3.91v0.971H78.163z M78.163,30.466v-1.004h-3.91v1.004H78.163z M78.809,18.256c-0.486,0.536-1.012,0.996-1.576,1.378
		l-1.486-0.714c0.564-0.349,1.115-0.789,1.652-1.32L78.809,18.256z"/>
	<path fill="#FFFFFF" d="M98.305,30.923c0,0.442-0.117,0.79-0.355,1.042c-0.238,0.251-0.648,0.39-1.229,0.415
		c-0.582,0.024-1.113,0.037-1.594,0.037c-0.455,0-0.889-0.012-1.305-0.033l-0.531-1.544c1.047,0.055,1.855,0.083,2.424,0.083
		c0.465,0,0.754-0.029,0.863-0.087c0.111-0.059,0.166-0.188,0.166-0.387V27.42h-8.516c-0.32,1.997-1.143,3.693-2.465,5.088
		l-1.105-1.12c0.66-0.664,1.189-1.521,1.59-2.569c0.402-1.049,0.602-2.544,0.602-4.486v-6.434h11.455V30.923z M96.744,21.85v-2.432
		h-8.35v2.432H96.744z M96.744,25.942v-2.615h-8.35v2.615H96.744z"/>
	<path fill="#FFFFFF" d="M118.318,20.023h-11.846v5.578c0,2.784-0.584,5.075-1.752,6.873l-1.277-0.854
		c1.006-1.533,1.51-3.539,1.51-6.019v-6.914h5.578c-0.221-0.344-0.438-0.64-0.646-0.889l1.65-0.356
		c0.223,0.376,0.459,0.791,0.715,1.245h6.068V20.023z M118.418,30.989l-0.457,1.444c-2.031-0.116-3.941-0.54-5.729-1.271
		c-1.467,0.614-3.201,1.052-5.203,1.312l-0.697-1.444c1.73-0.094,3.148-0.352,4.25-0.771c-0.986-0.614-1.744-1.453-2.275-2.516
		h-0.746v-1.345h8.922v1.345c-0.586,0.908-1.467,1.746-2.639,2.516C115.133,30.712,116.658,30.956,118.418,30.989z M118.152,22.938
		h-2.5v2.498h-6.564v-2.498h-2.043v-1.328h2.043v-1.005h1.461v1.005h3.619v-1.005h1.484v1.005h2.5V22.938z M114.557,27.743h-4.498
		c0.459,0.697,1.162,1.323,2.107,1.876C113.246,29,114.043,28.374,114.557,27.743z M114.168,24.124v-1.187h-3.619v1.187H114.168z"/>
	<path fill="#FFFFFF" d="M131.24,28.731h-2.059c-0.404,0.603-0.762,1.067-1.07,1.395c0.906,0.365,1.689,0.711,2.348,1.037
		l-0.838,1.088c-1.135-0.526-2.012-0.905-2.631-1.138c-1.516,0.759-2.934,1.24-4.25,1.444l-0.598-1.278
		c1.189-0.149,2.227-0.409,3.113-0.78c-0.869-0.315-1.6-0.536-2.191-0.664c0.537-0.575,0.863-0.943,0.979-1.104h-1.768v-1.154h2.689
		l0.631-0.971h-2.582v-2.806h2.973v-0.797h-3.014v-1.852h-0.764v-1.087h0.764v-1.826h3.014v-0.656h1.41v0.656h2.973v1.826h0.838
		v1.087h-0.838v1.852h-2.973v0.797h3.006v2.806h-3.105l-0.613,0.971h1.543c0.084-0.138,0.174-0.332,0.273-0.581l1.313,0.308
		c0,0.083-0.031,0.174-0.092,0.273h1.52V28.731z M125.986,20.065V19.31h-1.652v0.756H125.986z M125.986,21.966v-0.813h-1.652v0.813
		H125.986z M125.986,25.519v-0.664h-1.604v0.664H125.986z M127.529,28.731h-1.676c-0.023,0.038-0.156,0.207-0.398,0.506l1.311,0.398
		C127.082,29.32,127.336,29.019,127.529,28.731z M128.99,20.065V19.31h-1.594v0.756H128.99z M128.99,21.949v-0.797h-1.594v0.797
		H128.99z M129.049,25.519v-0.664h-1.652v0.664H129.049z M137.242,31.279l-0.748,1.262c-1.172-0.885-2.006-1.718-2.498-2.498
		c-0.686,0.951-1.463,1.773-2.332,2.465l-0.988-1.12c1.068-0.863,1.891-1.76,2.465-2.689c-0.559-0.991-0.982-2.125-1.27-3.403
		l1.303-0.714c0.238,1.04,0.477,1.829,0.715,2.365c0.42-1.383,0.664-3.237,0.73-5.562h-1.254c-0.531,1.572-1.061,2.772-1.586,3.603
		l-0.979-1.22c0.912-1.71,1.568-3.813,1.967-6.309l1.443,0.207c-0.07,0.487-0.223,1.257-0.455,2.308H137v1.411h-0.938
		c-0.121,3.104-0.551,5.537-1.287,7.297C135.445,29.711,136.268,30.577,137.242,31.279z"/>
</g>
</svg>
