<?xml version="1.0" encoding="utf-8"?>
<!-- Generator: Adobe Illustrator 16.0.0, SVG Export Plug-In . SVG Version: 6.00 Build 0)  -->
<!DOCTYPE svg PUBLIC "-//W3C//DTD SVG 1.1//EN" "http://www.w3.org/Graphics/SVG/1.1/DTD/svg11.dtd">
<svg version="1.1" id="圖層_1" xmlns="http://www.w3.org/2000/svg" xmlns:xlink="http://www.w3.org/1999/xlink" x="0px" y="0px"
	 width="67.25px" height="63.875px" viewBox="0 0 67.25 63.875" enable-background="new 0 0 67.25 63.875" xml:space="preserve">
<g>
	
		<circle fill="none" stroke="#FFFFFF" stroke-width="2" stroke-linecap="round" stroke-linejoin="round" stroke-miterlimit="10" cx="712.375" cy="2675.939" r="28.927"/>
	<g>
		<path fill="#FFFFFF" d="M741.302,2675.939c0,15.977-12.951,28.928-28.927,28.928s-28.927-12.951-28.927-28.928
			c0-15.975,12.951-28.926,28.927-28.926S741.302,2659.965,741.302,2675.939"/>
		<path fill="#386DA6" d="M694.068,2677.224h-6.885c-0.71,0-1.283-0.574-1.283-1.284c0-0.709,0.573-1.283,1.283-1.283h6.885
			V2677.224z"/>
		<path fill="#386DA6" d="M737.566,2677.224h-6.885v-2.567h6.885c0.709,0,1.284,0.574,1.284,1.283
			C738.851,2676.649,738.275,2677.224,737.566,2677.224"/>
		<path fill="#386DA6" d="M713.672,2650.701v6.885h-2.566v-6.885c0-0.709,0.574-1.283,1.282-1.283
			C713.097,2649.418,713.672,2649.992,713.672,2650.701"/>
		<path fill="#386DA6" d="M731.119,2659.08l-4.868,4.867l-1.815-1.814l4.868-4.868c0.501-0.501,1.314-0.501,1.815,0
			S731.62,2658.578,731.119,2659.08"/>
		<path fill="#386DA6" d="M695.393,2657.184l4.868,4.868l-1.814,1.815l-4.868-4.868c-0.501-0.501-0.501-1.313,0-1.815
			C694.079,2656.683,694.892,2656.683,695.393,2657.184"/>
		<path fill="#386DA6" d="M734.255,2672.517l-3.84,0.665l-0.248-1.433l3.84-0.664c0.396-0.068,0.772,0.196,0.84,0.592
			C734.916,2672.072,734.651,2672.449,734.255,2672.517"/>
		<path fill="#386DA6" d="M733.223,2668.547l-3.543,1.625l-0.606-1.32l3.543-1.625c0.365-0.167,0.796-0.007,0.964,0.357
			C733.747,2667.949,733.588,2668.381,733.223,2668.547"/>
		<path fill="#386DA6" d="M731.313,2664.618l-3.145,2.304l-0.858-1.172l3.144-2.304c0.323-0.237,0.778-0.167,1.015,0.156
			C731.706,2663.926,731.636,2664.381,731.313,2664.618"/>
		<path fill="#386DA6" d="M725.271,2657.832l-2.135,3.262l-1.216-0.797l2.135-3.26c0.22-0.336,0.67-0.43,1.006-0.211
			C725.396,2657.046,725.492,2657.496,725.271,2657.832"/>
		<path fill="#386DA6" d="M721.771,2655.748l-1.542,3.58l-1.334-0.574l1.541-3.58c0.158-0.368,0.586-0.538,0.955-0.38
			C721.76,2654.953,721.931,2655.381,721.771,2655.748"/>
		<path fill="#386DA6" d="M717.418,2654.275l-0.639,3.846l-1.434-0.238l0.638-3.846c0.066-0.396,0.44-0.662,0.836-0.597
			C717.216,2653.506,717.483,2653.879,717.418,2654.275"/>
		<path fill="#386DA6" d="M690.483,2672.517l3.841,0.665l0.247-1.433l-3.84-0.664c-0.395-0.068-0.771,0.196-0.84,0.592
			S690.088,2672.449,690.483,2672.517"/>
		<path fill="#386DA6" d="M691.517,2668.547l3.543,1.625l0.605-1.32l-3.543-1.625c-0.365-0.167-0.796-0.007-0.963,0.357
			C690.992,2667.949,691.151,2668.381,691.517,2668.547"/>
		<path fill="#386DA6" d="M693.427,2664.618l3.145,2.304l0.857-1.172l-3.143-2.304c-0.323-0.237-0.778-0.167-1.017,0.156
			C693.033,2663.926,693.103,2664.381,693.427,2664.618"/>
		<path fill="#386DA6" d="M699.468,2657.832l2.135,3.262l1.216-0.797l-2.135-3.26c-0.22-0.336-0.67-0.43-1.006-0.211
			C699.342,2657.046,699.247,2657.496,699.468,2657.832"/>
		<path fill="#386DA6" d="M702.968,2655.748l1.542,3.58l1.335-0.574l-1.542-3.58c-0.159-0.368-0.586-0.538-0.955-0.38
			C702.979,2654.953,702.809,2655.381,702.968,2655.748"/>
		<path fill="#386DA6" d="M707.321,2654.275l0.638,3.846l1.434-0.238l-0.638-3.846c-0.065-0.396-0.439-0.662-0.836-0.597
			C707.523,2653.506,707.255,2653.879,707.321,2654.275"/>
		<path fill="#386DA6" d="M697.284,2691.804h-3.617c-0.441,0-0.8-0.357-0.8-0.799v-4.437c0-0.44,0.358-0.8,0.8-0.8h3.617
			c0.442,0,0.8,0.359,0.8,0.8v4.437C698.084,2691.446,697.727,2691.804,697.284,2691.804"/>
		<path fill="#386DA6" d="M704.044,2691.804h-3.617c-0.441,0-0.8-0.357-0.8-0.799v-4.437c0-0.44,0.358-0.8,0.8-0.8h3.617
			c0.441,0,0.8,0.359,0.8,0.8v4.437C704.844,2691.446,704.485,2691.804,704.044,2691.804"/>
		<path fill="#386DA6" d="M710.804,2691.804h-3.617c-0.442,0-0.8-0.357-0.8-0.799v-4.437c0-0.44,0.357-0.8,0.8-0.8h3.617
			c0.441,0,0.8,0.359,0.8,0.8v4.437C711.604,2691.446,711.245,2691.804,710.804,2691.804"/>
		<path fill="#386DA6" d="M717.563,2691.804h-3.617c-0.442,0-0.8-0.357-0.8-0.799v-4.437c0-0.44,0.357-0.8,0.8-0.8h3.617
			c0.44,0,0.8,0.359,0.8,0.8v4.437C718.363,2691.446,718.004,2691.804,717.563,2691.804"/>
		<path fill="#386DA6" d="M724.322,2691.804h-3.617c-0.441,0-0.8-0.357-0.8-0.799v-4.437c0-0.44,0.358-0.8,0.8-0.8h3.617
			c0.442,0,0.8,0.359,0.8,0.8v4.437C725.122,2691.446,724.765,2691.804,724.322,2691.804"/>
		<path fill="#386DA6" d="M731.082,2691.804h-3.617c-0.441,0-0.8-0.357-0.8-0.799v-4.437c0-0.44,0.358-0.8,0.8-0.8h3.617
			c0.442,0,0.8,0.359,0.8,0.8v4.437C731.882,2691.446,731.524,2691.804,731.082,2691.804"/>
		<path fill="#DFCE53" d="M712.752,2665.877h6.445c0.186,0,0.292,0.211,0.181,0.359l-5.815,7.84c-0.111,0.149-0.004,0.36,0.181,0.36
			h5.38c0.197,0,0.299,0.236,0.164,0.38l-12.581,13.331c-0.176,0.186-0.477-0.018-0.369-0.25l4.323-9.273
			c0.07-0.15-0.039-0.321-0.204-0.321h-5.847c-0.182,0-0.289-0.203-0.188-0.353l8.144-11.975
			C712.608,2665.914,712.677,2665.877,712.752,2665.877"/>
	</g>
</g>
<g>
	
		<circle fill="none" stroke="#FFFFFF" stroke-width="2" stroke-linecap="round" stroke-linejoin="round" stroke-miterlimit="10" cx="33.375" cy="31.939" r="28.927"/>
	<g>
		<path fill="#FFFFFF" d="M62.302,31.939c0,15.977-12.951,28.928-28.927,28.928S4.448,47.916,4.448,31.939
			c0-15.975,12.951-28.926,28.927-28.926S62.302,15.965,62.302,31.939"/>
		<path fill="#386DA6" d="M15.068,33.224H8.184c-0.71,0-1.283-0.574-1.283-1.284c0-0.709,0.573-1.283,1.283-1.283h6.885V33.224z"/>
		<path fill="#386DA6" d="M58.566,33.224h-6.885v-2.567h6.885c0.709,0,1.284,0.574,1.284,1.283
			C59.851,32.649,59.275,33.224,58.566,33.224"/>
		<path fill="#386DA6" d="M34.672,6.701v6.885h-2.566V6.701c0-0.709,0.574-1.283,1.282-1.283
			C34.097,5.418,34.672,5.992,34.672,6.701"/>
		<path fill="#386DA6" d="M52.119,15.08l-4.868,4.867l-1.815-1.814l4.868-4.868c0.501-0.501,1.314-0.501,1.815,0
			S52.62,14.578,52.119,15.08"/>
		<path fill="#386DA6" d="M16.393,13.184l4.868,4.868l-1.814,1.815l-4.868-4.868c-0.501-0.501-0.501-1.313,0-1.815
			C15.079,12.683,15.892,12.683,16.393,13.184"/>
		<path fill="#386DA6" d="M55.255,28.517l-3.84,0.665l-0.248-1.433l3.84-0.664c0.396-0.068,0.772,0.196,0.84,0.592
			C55.916,28.072,55.651,28.449,55.255,28.517"/>
		<path fill="#386DA6" d="M54.223,24.547l-3.543,1.625l-0.606-1.32l3.543-1.625c0.365-0.167,0.796-0.007,0.964,0.357
			C54.747,23.949,54.588,24.381,54.223,24.547"/>
		<path fill="#386DA6" d="M52.313,20.618l-3.145,2.304L48.31,21.75l3.144-2.304c0.323-0.237,0.778-0.167,1.015,0.156
			C52.706,19.926,52.636,20.381,52.313,20.618"/>
		<path fill="#386DA6" d="M46.271,13.832l-2.135,3.262l-1.216-0.797l2.135-3.26c0.22-0.336,0.67-0.43,1.006-0.211
			C46.396,13.046,46.492,13.496,46.271,13.832"/>
		<path fill="#386DA6" d="M42.771,11.748l-1.542,3.58l-1.334-0.574l1.541-3.58c0.158-0.368,0.586-0.538,0.955-0.38
			C42.76,10.953,42.931,11.381,42.771,11.748"/>
		<path fill="#386DA6" d="M38.418,10.275l-0.639,3.846l-1.434-0.238l0.638-3.846c0.066-0.396,0.44-0.662,0.836-0.597
			C38.216,9.506,38.483,9.879,38.418,10.275"/>
		<path fill="#386DA6" d="M11.483,28.517l3.841,0.665l0.247-1.433l-3.84-0.664c-0.395-0.068-0.771,0.196-0.84,0.592
			S11.088,28.449,11.483,28.517"/>
		<path fill="#386DA6" d="M12.517,24.547l3.543,1.625l0.605-1.32l-3.543-1.625c-0.365-0.167-0.796-0.007-0.963,0.357
			C11.992,23.949,12.151,24.381,12.517,24.547"/>
		<path fill="#386DA6" d="M14.427,20.618l3.145,2.304l0.857-1.172l-3.143-2.304c-0.323-0.237-0.778-0.167-1.017,0.156
			C14.033,19.926,14.103,20.381,14.427,20.618"/>
		<path fill="#386DA6" d="M20.468,13.832l2.135,3.262l1.216-0.797l-2.135-3.26c-0.22-0.336-0.67-0.43-1.006-0.211
			C20.342,13.046,20.247,13.496,20.468,13.832"/>
		<path fill="#386DA6" d="M23.968,11.748l1.542,3.58l1.335-0.574l-1.542-3.58c-0.159-0.368-0.586-0.538-0.955-0.38
			C23.979,10.953,23.809,11.381,23.968,11.748"/>
		<path fill="#386DA6" d="M28.321,10.275l0.638,3.846l1.434-0.238l-0.638-3.846c-0.065-0.396-0.439-0.662-0.836-0.597
			C28.523,9.506,28.255,9.879,28.321,10.275"/>
		<path fill="#386DA6" d="M18.284,47.804h-3.617c-0.441,0-0.8-0.357-0.8-0.799v-4.437c0-0.44,0.358-0.8,0.8-0.8h3.617
			c0.442,0,0.8,0.359,0.8,0.8v4.437C19.084,47.446,18.727,47.804,18.284,47.804"/>
		<path fill="#386DA6" d="M25.044,47.804h-3.617c-0.441,0-0.8-0.357-0.8-0.799v-4.437c0-0.44,0.358-0.8,0.8-0.8h3.617
			c0.441,0,0.8,0.359,0.8,0.8v4.437C25.844,47.446,25.485,47.804,25.044,47.804"/>
		<path fill="#386DA6" d="M31.804,47.804h-3.617c-0.442,0-0.8-0.357-0.8-0.799v-4.437c0-0.44,0.357-0.8,0.8-0.8h3.617
			c0.441,0,0.8,0.359,0.8,0.8v4.437C32.604,47.446,32.245,47.804,31.804,47.804"/>
		<path fill="#386DA6" d="M38.563,47.804h-3.617c-0.442,0-0.8-0.357-0.8-0.799v-4.437c0-0.44,0.357-0.8,0.8-0.8h3.617
			c0.44,0,0.8,0.359,0.8,0.8v4.437C39.363,47.446,39.004,47.804,38.563,47.804"/>
		<path fill="#386DA6" d="M45.322,47.804h-3.617c-0.441,0-0.8-0.357-0.8-0.799v-4.437c0-0.44,0.358-0.8,0.8-0.8h3.617
			c0.442,0,0.8,0.359,0.8,0.8v4.437C46.122,47.446,45.765,47.804,45.322,47.804"/>
		<path fill="#386DA6" d="M52.082,47.804h-3.617c-0.441,0-0.8-0.357-0.8-0.799v-4.437c0-0.44,0.358-0.8,0.8-0.8h3.617
			c0.442,0,0.8,0.359,0.8,0.8v4.437C52.882,47.446,52.524,47.804,52.082,47.804"/>
		<path fill="#DFCE53" d="M33.752,21.877h6.445c0.186,0,0.292,0.211,0.181,0.359l-5.815,7.84c-0.111,0.149-0.004,0.36,0.181,0.36
			h5.38c0.197,0,0.299,0.236,0.164,0.38L27.706,44.147c-0.176,0.186-0.477-0.018-0.369-0.25l4.323-9.273
			c0.07-0.15-0.039-0.321-0.204-0.321h-5.847c-0.182,0-0.289-0.203-0.188-0.353l8.144-11.975
			C33.608,21.914,33.677,21.877,33.752,21.877"/>
	</g>
</g>
</svg>
