<svg id="圖層_1" data-name="圖層 1" xmlns="http://www.w3.org/2000/svg" viewBox="0 0 59.85 59.85"><defs><style>.cls-1{fill:none;stroke:#fff;stroke-linecap:round;stroke-linejoin:round;stroke-width:2px;}.cls-2{fill:#fff;}.cls-3{fill:#e7d46b;}</style></defs><title>mainlogo</title><circle class="cls-1" cx="29.93" cy="29.93" r="28.93"/><path class="cls-2" d="M12.26,31.45H5.37a1.28,1.28,0,0,1-1.28-1.28h0a1.29,1.29,0,0,1,1.28-1.29h6.89Z" transform="translate(-0.64 -0.24)"/><path class="cls-2" d="M55.76,31.45H48.87V28.88h6.89A1.28,1.28,0,0,1,57,30.17h0A1.28,1.28,0,0,1,55.76,31.45Z" transform="translate(-0.64 -0.24)"/><path class="cls-2" d="M31.86,4.93v6.88H29.3V4.93a1.28,1.28,0,0,1,1.28-1.28h0A1.28,1.28,0,0,1,31.86,4.93Z" transform="translate(-0.64 -0.24)"/><path class="cls-2" d="M49.31,13.31l-4.87,4.87-1.81-1.82,4.86-4.87a1.29,1.29,0,0,1,1.82,0h0A1.29,1.29,0,0,1,49.31,13.31Z" transform="translate(-0.64 -0.24)"/><path class="cls-2" d="M13.58,11.41l4.87,4.87L16.64,18.1l-4.87-4.87a1.29,1.29,0,0,1,0-1.82h0A1.28,1.28,0,0,1,13.58,11.41Z" transform="translate(-0.64 -0.24)"/><path class="cls-2" d="M52.45,26.74l-3.84.67L48.36,26l3.84-.67a.73.73,0,0,1,.84.59h0A.72.72,0,0,1,52.45,26.74Z" transform="translate(-0.64 -0.24)"/><path class="cls-2" d="M51.41,22.78,47.87,24.4l-.61-1.32,3.55-1.63a.74.74,0,0,1,1,.36h0A.73.73,0,0,1,51.41,22.78Z" transform="translate(-0.64 -0.24)"/><path class="cls-2" d="M49.5,18.85l-3.14,2.3L45.5,20l3.14-2.31a.74.74,0,0,1,1,.16h0A.73.73,0,0,1,49.5,18.85Z" transform="translate(-0.64 -0.24)"/><path class="cls-2" d="M43.46,12.06l-2.13,3.26-1.22-.79,2.14-3.27a.73.73,0,0,1,1-.21h0A.73.73,0,0,1,43.46,12.06Z" transform="translate(-0.64 -0.24)"/><path class="cls-2" d="M40,10l-1.54,3.58L37.09,13,38.63,9.4A.72.72,0,0,1,39.58,9h0A.73.73,0,0,1,40,10Z" transform="translate(-0.64 -0.24)"/><path class="cls-2" d="M35.61,8.5,35,12.35l-1.43-.24.63-3.84a.73.73,0,0,1,.84-.6h0A.72.72,0,0,1,35.61,8.5Z" transform="translate(-0.64 -0.24)"/><path class="cls-2" d="M8.67,26.74l3.85.67L12.76,26l-3.84-.67a.73.73,0,0,0-.84.59h0A.72.72,0,0,0,8.67,26.74Z" transform="translate(-0.64 -0.24)"/><path class="cls-2" d="M9.71,22.78l3.54,1.62.61-1.32-3.55-1.63a.74.74,0,0,0-1,.36h0A.73.73,0,0,0,9.71,22.78Z" transform="translate(-0.64 -0.24)"/><path class="cls-2" d="M11.62,18.85l3.14,2.3L15.62,20l-3.14-2.31a.74.74,0,0,0-1,.16h0A.73.73,0,0,0,11.62,18.85Z" transform="translate(-0.64 -0.24)"/><path class="cls-2" d="M17.66,12.06l2.13,3.26L21,14.53l-2.14-3.27a.73.73,0,0,0-1-.21h0A.73.73,0,0,0,17.66,12.06Z" transform="translate(-0.64 -0.24)"/><path class="cls-2" d="M21.16,10l1.54,3.58L24,13,22.49,9.4A.72.72,0,0,0,21.54,9h0A.73.73,0,0,0,21.16,10Z" transform="translate(-0.64 -0.24)"/><path class="cls-2" d="M25.51,8.5l.64,3.85,1.43-.24L27,8.27a.73.73,0,0,0-.84-.6h0A.72.72,0,0,0,25.51,8.5Z" transform="translate(-0.64 -0.24)"/><rect class="cls-2" x="10.42" y="39.76" width="5.22" height="6.04" rx="0.8"/><rect class="cls-2" x="17.18" y="39.76" width="5.22" height="6.04" rx="0.8"/><rect class="cls-2" x="23.94" y="39.76" width="5.22" height="6.04" rx="0.8"/><rect class="cls-2" x="30.7" y="39.76" width="5.22" height="6.04" rx="0.8"/><rect class="cls-2" x="37.46" y="39.76" width="5.22" height="6.04" rx="0.8"/><rect class="cls-2" x="44.22" y="39.76" width="5.22" height="6.04" rx="0.8"/><path class="cls-3" d="M30.94,20.1h6.45a.23.23,0,0,1,.18.36L31.75,28.3a.23.23,0,0,0,.18.36h5.38a.23.23,0,0,1,.17.38L24.9,42.38a.23.23,0,0,1-.37-.25l4.32-9.28a.22.22,0,0,0-.2-.32H22.8a.23.23,0,0,1-.19-.35l8.15-12A.22.22,0,0,1,30.94,20.1Z" transform="translate(-0.64 -0.24)"/></svg>