<?xml version="1.0" encoding="utf-8"?>
<!-- Generator: Adobe Illustrator 16.0.0, SVG Export Plug-In . SVG Version: 6.00 Build 0)  -->
<!DOCTYPE svg PUBLIC "-//W3C//DTD SVG 1.1//EN" "http://www.w3.org/Graphics/SVG/1.1/DTD/svg11.dtd">
<svg version="1.1" id="圖層_1" xmlns="http://www.w3.org/2000/svg" xmlns:xlink="http://www.w3.org/1999/xlink" x="0px" y="0px"
	 width="1500px" height="710px" viewBox="0 0 1500 710" enable-background="new 0 0 1500 710" xml:space="preserve">
<g>
	<path fill="#345C8D" d="M1197.283,319.159h-1.547v-2.883h-5.396v3.472h-1.494v-3.472h-5.098v2.883h-1.529v-4.157h6.627v-0.65
		h-5.959v-1.371h13.623v1.371h-6.17v0.65h6.943V319.159z M1197.607,326.393c-0.1,0.586-0.26,1.032-0.482,1.341
		c-0.223,0.307-0.467,0.492-0.73,0.553c-0.264,0.063-1.344,0.093-3.242,0.093c-1.576,0-2.588-0.026-3.037-0.079
		c-0.447-0.053-0.777-0.207-0.988-0.461c-0.211-0.256-0.316-0.617-0.316-1.086v-1.011h-5.783v-5.502h13.033v5.502h-5.703v0.545
		c0,0.246,0.092,0.403,0.277,0.47c0.184,0.068,1.23,0.102,3.141,0.102c0.82,0,1.332-0.006,1.535-0.018
		c0.201-0.012,0.35-0.088,0.443-0.229s0.141-0.328,0.141-0.563L1197.607,326.393z M1188.389,319.282
		c-1.119,0.205-2.426,0.337-3.92,0.396l-0.309-1.046c1.184-0.012,2.488-0.117,3.912-0.316L1188.389,319.282z M1188.301,316.944
		l-0.291,1.028c-1.207-0.164-2.428-0.255-3.664-0.272l0.324-1.011C1185.66,316.672,1186.871,316.757,1188.301,316.944z
		 M1188.811,322.358v-0.967h-4.236v0.967H1188.811z M1188.811,324.538v-1.028h-4.236v1.028H1188.811z M1194.549,322.358v-0.967
		h-4.191v0.967H1194.549z M1194.549,324.538v-1.028h-4.191v1.028H1194.549z M1195.234,317.516c-1.219,0.205-2.551,0.337-3.998,0.396
		l-0.361-0.984c1.107-0.018,2.373-0.132,3.797-0.343L1195.234,317.516z M1195.121,318.764l-0.246,1.02
		c-1.43-0.234-2.764-0.378-4-0.431l0.361-1.02C1192.303,318.356,1193.598,318.5,1195.121,318.764z"/>
	<path fill="#345C8D" d="M1216.756,317.393c-0.029,1.383-0.164,2.197-0.404,2.443s-0.514,0.393-0.818,0.439l-0.721,0.105v5.977
		h-7.77l0.756,0.773c-1.857,0.738-3.832,1.189-5.924,1.354l-0.686-1.266c1.881-0.158,3.496-0.445,4.844-0.861h-2.541v-5.256
		c-0.592,0.141-1.166,0.249-1.723,0.325l-0.633-1.424c1.951-0.182,3.361-0.691,4.229-1.529h-3.473l0.572-3.006h3.893v-0.861h-4.684
		v-1.063h4.684v-0.87h1.547v0.87h2.541v-0.87h1.547v0.87h4.156v3.006h-4.156v0.844H1216.756z M1206.244,316.549h-2.426l-0.123,0.844
		h2.338C1206.127,317.094,1206.197,316.813,1206.244,316.549z M1213.213,321.62v-0.738h-8.139v0.738H1213.213z M1213.213,323.439
		v-0.791h-8.139v0.791H1213.213z M1213.213,325.241v-0.773h-8.139v0.773H1213.213z M1215.156,318.474h-3.164v0.879h-1.547v-0.879
		h-3.262c-0.205,0.357-0.594,0.794-1.168,1.31h8.059l-0.264-0.694c0.627,0.029,1.008,0.003,1.143-0.079
		S1215.156,318.749,1215.156,318.474z M1210.445,317.393v-0.844h-2.594c-0.047,0.352-0.107,0.633-0.184,0.844H1210.445z
		 M1210.445,315.468v-0.844h-2.541v0.844H1210.445z M1217.08,327.368l-0.676,1.204c-1.834-0.451-3.66-0.727-5.477-0.826l0.615-1.213
		C1213.869,326.703,1215.715,326.981,1217.08,327.368z M1214.584,315.468v-0.844h-2.592v0.844H1214.584z"/>
	<path fill="#345C8D" d="M1236.492,317.841l-0.781,1.406c-0.867-0.363-1.768-0.809-2.699-1.336v1.011h-3.691v1.767h6.074v1.547
		h-6.074v4.192h6.504v1.529h-14.563v-1.529h6.424v-4.192h-5.959v-1.547h5.959v-1.767h-3.744v-0.967
		c-0.68,0.41-1.488,0.829-2.426,1.257l-1.01-1.371c3.662-1.611,6.211-3.369,7.646-5.273l1.625,0.466
		c-0.041,0.105-0.119,0.22-0.236,0.343C1230.895,314.929,1233.211,316.417,1236.492,317.841z M1226.43,325.602l-1.512,0.519
		c-0.422-0.779-1.096-1.714-2.021-2.804l1.529-0.633C1225.316,323.732,1225.984,324.705,1226.43,325.602z M1232.15,317.41
		c-1.547-0.949-2.771-1.878-3.674-2.786c-1.031,1.002-2.229,1.931-3.594,2.786H1232.15z M1234.182,323.246
		c-0.621,1.148-1.27,2.095-1.943,2.839l-1.564-0.686c0.691-0.721,1.346-1.626,1.961-2.716L1234.182,323.246z"/>
	<path fill="#345C8D" d="M1248.205,321.638l-0.703,1.301c-1.066-0.738-2.15-1.386-3.252-1.942c-1.266,0.92-2.52,1.597-3.762,2.03
		l-0.756-1.327c1.23-0.369,2.256-0.838,3.076-1.406c-0.645-0.299-1.102-0.504-1.371-0.615c-0.223,0.182-0.396,0.313-0.52,0.396
		l-1.08-1.028c1.184-0.844,2.191-2.001,3.023-3.472l1.326,0.413c-0.041,0.164-0.135,0.369-0.281,0.615h3.076v1.336
		c-0.287,0.463-0.82,1.146-1.6,2.048C1246.479,320.565,1247.42,321.116,1248.205,321.638z M1247.809,316.136h-1.547v-0.853h-4.342
		v0.958h-1.564v-2.355h2.9c-0.111-0.363-0.26-0.7-0.447-1.011l1.529-0.343c0.234,0.422,0.406,0.873,0.518,1.354h2.953V316.136z
		 M1246.965,328.37h-1.564v-0.554h-2.725v0.536h-1.564v-5.361h5.854V328.37z M1245.287,317.938h-2.232
		c-0.246,0.322-0.443,0.554-0.59,0.694c0.768,0.311,1.307,0.539,1.617,0.686C1244.604,318.819,1245.006,318.359,1245.287,317.938z
		 M1245.4,326.393v-2.013h-2.725v2.013H1245.4z M1255.676,314.475h-2.971c-0.129,0.58-0.268,1.078-0.414,1.494h2.787v9.053h-4.623
		l0.992,0.923c-0.885,1.002-1.947,1.849-3.189,2.54l-1.037-1.23c1.014-0.457,2.016-1.201,3.006-2.232h-1.627v-9.053h2.092
		c0.164-0.51,0.303-1.008,0.414-1.494h-2.795v-1.459h7.365V314.475z M1253.514,318.491v-1.134h-3.35v1.134H1253.514z
		 M1253.514,321.031v-1.222h-3.35v1.222H1253.514z M1253.514,323.642v-1.318h-3.35v1.318H1253.514z M1255.842,327.236l-0.939,1.23
		c-0.891-0.82-1.834-1.471-2.83-1.951l0.922-1.187C1253.926,325.751,1254.875,326.387,1255.842,327.236z"/>
</g>
<rect x="0.478" y="47.491" fill="none" width="1500" height="1523.795"/>
<path fill="#FFFFFF" d="M1319.125,691.592H859.736c-10.229,0-18.519-8.289-18.519-18.516V489.435
	c0-10.228,8.29-18.517,18.519-18.517h459.389c10.227,0,18.518,8.289,18.518,18.517v183.644
	C1337.643,683.303,1329.352,691.592,1319.125,691.592"/>
<path fill="#FFFFFF" d="M640.263,691.592H180.875c-10.227,0-18.517-8.289-18.517-18.516V489.435
	c0-10.228,8.291-18.517,18.517-18.517h459.389c10.229,0,18.519,8.289,18.519,18.517v183.644
	C658.779,683.303,650.489,691.592,640.263,691.592"/>
<path fill="#345C8D" d="M380.182,75.439H175.223c-15.749,0-28.516-12.766-28.516-28.516c0-15.749,12.767-28.516,28.516-28.516
	h204.959c15.749,0,28.516,12.767,28.516,28.516C408.698,62.673,395.931,75.439,380.182,75.439"/>
<g>
	<path fill="#FFFFFF" d="M181.749,53.651h-10.062v-2.047l4.69-4.618c1.045-1.024,1.816-1.909,2.314-2.654s0.747-1.556,0.747-2.435
		c0-1.79-0.947-2.685-2.842-2.685c-1.42,0-2.786,0.595-4.095,1.787v-2.361c1.316-0.961,2.828-1.441,4.535-1.441
		c1.483,0,2.666,0.396,3.547,1.186c0.88,0.791,1.321,1.872,1.321,3.244c0,0.989-0.278,1.973-0.836,2.952s-1.529,2.137-2.915,3.474
		l-3.594,3.426v0.052h7.188v2.121L181.749,53.651L181.749,53.651z"/>
	<path fill="#FFFFFF" d="M186.793,45.868c0-2.842,0.486-4.997,1.457-6.467c0.972-1.47,2.38-2.204,4.227-2.204
		c3.517,0,5.276,2.762,5.276,8.285c0,2.702-0.48,4.785-1.441,6.248s-2.355,2.194-4.179,2.194c-1.762,0-3.092-0.69-3.99-2.069
		C187.242,50.475,186.793,48.479,186.793,45.868z M189.29,45.774c0,4.123,0.999,6.185,2.998,6.185c1.971,0,2.957-2.103,2.957-6.31
		c0-4.318-0.965-6.478-2.894-6.478C190.31,39.171,189.29,41.373,189.29,45.774z"/>
	<path fill="#FFFFFF" d="M212.419,53.651h-10.061v-2.047l4.69-4.618c1.044-1.024,1.816-1.909,2.314-2.654s0.747-1.556,0.747-2.435
		c0-1.79-0.947-2.685-2.842-2.685c-1.42,0-2.786,0.595-4.095,1.787v-2.361c1.316-0.961,2.828-1.441,4.534-1.441
		c1.484,0,2.666,0.396,3.547,1.186s1.321,1.872,1.321,3.244c0,0.989-0.278,1.973-0.836,2.952c-0.558,0.979-1.529,2.137-2.915,3.474
		l-3.594,3.426v0.052h7.188L212.419,53.651L212.419,53.651z"/>
	<path fill="#FFFFFF" d="M217.463,45.868c0-2.842,0.486-4.997,1.457-6.467c0.972-1.47,2.38-2.204,4.227-2.204
		c3.517,0,5.276,2.762,5.276,8.285c0,2.702-0.48,4.785-1.441,6.248s-2.355,2.194-4.179,2.194c-1.762,0-3.092-0.69-3.991-2.069
		C217.912,50.475,217.463,48.479,217.463,45.868z M219.959,45.774c0,4.123,0.999,6.185,2.999,6.185c1.97,0,2.956-2.103,2.956-6.31
		c0-4.318-0.965-6.478-2.894-6.478C220.979,39.171,219.959,41.373,219.959,45.774z"/>
	<path fill="#FFFFFF" d="M251.979,50.319h-7.292v4.398h-1.974v-4.398h-9.351v-1.871h2.832v-5.453h6.52V39.85h-4.859
		c-1.176,1.421-2.281,2.619-3.312,3.594l-1.368-1.41c2.006-1.734,3.653-3.782,4.941-6.143l1.964,0.387
		c-0.209,0.578-0.516,1.156-0.919,1.734h12.066v1.839h-6.54v3.145h6.049v1.839h-6.049v3.615h7.292V50.319L251.979,50.319z
		 M242.712,48.448v-3.615h-4.576v3.615H242.712z"/>
	<path fill="#FFFFFF" d="M267.366,53.651h-9.528v-2.047h3.542V39.913l-3.636,0.982v-2.152l6.091-1.599v14.459h3.531V53.651
		L267.366,53.651z"/>
	<path fill="#FFFFFF" d="M282.702,53.651h-9.528v-2.047h3.542V39.913l-3.636,0.982v-2.152l6.09-1.599v14.459h3.531L282.702,53.651
		L282.702,53.651z"/>
	<path fill="#FFFFFF" d="M296.188,37.469l-7.805,18.868h-2.236l7.784-18.868H296.188z"/>
	<path fill="#FFFFFF" d="M310.048,53.651h-9.528v-2.047h3.541V39.913l-3.636,0.982v-2.152l6.091-1.599v14.459h3.531L310.048,53.651
		L310.048,53.651z"/>
	<path fill="#FFFFFF" d="M325.091,53.651H315.03v-2.047l4.691-4.618c1.044-1.024,1.816-1.909,2.314-2.654s0.747-1.556,0.747-2.435
		c0-1.79-0.947-2.685-2.842-2.685c-1.42,0-2.786,0.595-4.095,1.787v-2.361c1.316-0.961,2.828-1.441,4.534-1.441
		c1.483,0,2.666,0.396,3.547,1.186c0.88,0.791,1.321,1.872,1.321,3.244c0,0.989-0.278,1.973-0.836,2.952
		c-0.558,0.979-1.529,2.137-2.915,3.474l-3.594,3.426v0.052h7.188L325.091,53.651L325.091,53.651z"/>
	<path fill="#FFFFFF" d="M347.667,52.858c0,0.557-0.15,0.994-0.449,1.311c-0.299,0.316-0.815,0.49-1.546,0.521
		c-0.731,0.031-1.4,0.047-2.005,0.047c-0.571,0-1.118-0.014-1.641-0.041l-0.668-1.943c1.316,0.07,2.333,0.105,3.051,0.105
		c0.585,0,0.947-0.037,1.086-0.11c0.14-0.073,0.209-0.235,0.209-0.486v-3.813h-10.719c-0.405,2.514-1.438,4.649-3.103,6.405
		l-1.389-1.411c0.829-0.836,1.496-1.914,2.001-3.234c0.504-1.319,0.757-3.202,0.757-5.647v-8.097h14.418v16.393H347.667z
		 M345.702,41.438v-3.061h-10.51v3.061H345.702z M345.702,46.589v-3.291h-10.51v3.291H345.702z"/>
</g>
<path fill="#49AA27" d="M1316.679,75.439H605.741c-15.748,0-28.518-12.766-28.518-28.516c0-15.749,12.77-28.516,28.518-28.516
	h710.938c15.749,0,28.518,12.767,28.518,28.516C1345.194,62.673,1332.428,75.439,1316.679,75.439"/>
<g>
	<path fill="#FFFFFF" d="M617.771,46.453h-1.611V43.45h-5.621v3.616h-1.557V43.45h-5.312v3.003h-1.593v-4.331h6.9v-0.677h-6.205
		v-1.428h14.189v1.428h-6.428v0.677h7.23v4.331H617.771z M618.111,53.988c-0.104,0.61-0.272,1.076-0.504,1.396
		c-0.232,0.32-0.485,0.513-0.763,0.577c-0.272,0.064-1.398,0.096-3.378,0.096c-1.643,0-2.695-0.027-3.163-0.082
		s-0.811-0.215-1.028-0.48c-0.221-0.266-0.329-0.642-0.329-1.13v-1.053h-6.024V47.58h13.577v5.731h-5.941v0.568
		c0,0.256,0.099,0.419,0.288,0.49c0.192,0.07,1.284,0.105,3.273,0.105c0.854,0,1.387-0.006,1.598-0.018
		c0.211-0.012,0.364-0.091,0.462-0.238c0.1-0.146,0.147-0.342,0.147-0.586L618.111,53.988z M608.507,46.581
		c-1.165,0.213-2.524,0.351-4.083,0.412l-0.32-1.09c1.232-0.013,2.592-0.122,4.074-0.33L608.507,46.581z M608.415,44.146
		l-0.303,1.071c-1.257-0.171-2.529-0.266-3.817-0.284l0.339-1.053C605.666,43.862,606.926,43.951,608.415,44.146z M608.946,49.786
		v-1.007h-4.413v1.007H608.946z M608.946,52.056v-1.071h-4.413v1.071H608.946z M614.925,49.786v-1.007h-4.367v1.007H614.925z
		 M614.925,52.056v-1.071h-4.367v1.071H614.925z M615.639,44.741c-1.27,0.213-2.655,0.351-4.165,0.412l-0.375-1.026
		c1.153-0.018,2.474-0.138,3.955-0.357L615.639,44.741z M615.52,46.042l-0.256,1.062c-1.487-0.245-2.879-0.394-4.166-0.448
		l0.375-1.063C612.584,45.617,613.933,45.767,615.52,46.042z"/>
	<path fill="#FFFFFF" d="M629.379,47.836h-3.396l-0.47,1.657h3.168c-0.108,1.782-0.215,3.111-0.313,3.987
		c-0.102,0.876-0.224,1.444-0.366,1.703c-0.143,0.259-0.377,0.479-0.7,0.659c-0.323,0.181-0.773,0.271-1.354,0.271
		c-0.393,0-0.894-0.021-1.502-0.064l-0.54-1.556c0.641,0.018,1.156,0.027,1.547,0.027c0.501,0,0.808-0.027,0.921-0.082
		s0.206-0.147,0.278-0.275c0.071-0.128,0.141-0.488,0.202-1.08c0.061-0.592,0.108-1.291,0.146-2.097h-3.543l0.879-3.149h-1.556
		v-1.539h6.601L629.379,47.836L629.379,47.836z M628.72,45.181h-5.301v-5.008h5.301V45.181z M627.182,43.698v-2.023h-2.226v2.023
		H627.182z M639.111,43.185c-0.122,1.123-0.367,2.081-0.733,2.875l-1.465-0.467c0.171-0.397,0.277-0.705,0.32-0.925h-2.289v1.053
		l1.784-0.11v1.383l-1.784,0.091v0.568c0,0.25,0.125,0.375,0.375,0.375h3.415v1.419h-4.202c-0.317,0-0.599-0.13-0.838-0.389
		c-0.24-0.259-0.361-0.548-0.361-0.865v-1.007l-1.254,0.091v-1.373l1.254-0.092v-1.145h-1.84v4.807c0,2.722-0.573,4.971-1.724,6.748
		l-1.271-1.035c0.946-1.654,1.419-3.766,1.419-6.335v-5.667h3.112v-3.442h1.64v0.916h3.598v1.465h-3.598v1.062L639.111,43.185
		L639.111,43.185z M634.104,50.052c0.02,0.439,0.027,0.805,0.027,1.098c0,1.251-0.156,2.266-0.468,3.044
		c-0.313,0.778-0.857,1.436-1.639,1.973l-1.163-1.09c0.651-0.476,1.104-1,1.354-1.57c0.25-0.571,0.375-1.39,0.375-2.458
		c0-0.323-0.01-0.656-0.025-0.998L634.104,50.052L634.104,50.052z M639.239,52.624c-0.063,1.508-0.252,2.446-0.572,2.815
		s-0.874,0.554-1.661,0.554c-1.231,0-1.85-0.431-1.85-1.291v-4.65h1.593v4.01c0,0.269,0.152,0.403,0.458,0.403
		c0.178,0,0.303-0.093,0.375-0.279s0.158-0.902,0.256-2.147L639.239,52.624z"/>
</g>
<g>
	<path fill="#FFFFFF" d="M658.976,48.762c0-2.491,0.428-4.379,1.277-5.667c0.854-1.289,2.086-1.932,3.703-1.932
		c3.082,0,4.624,2.42,4.624,7.26c0,2.368-0.422,4.193-1.264,5.475c-0.844,1.282-2.063,1.923-3.662,1.923
		c-1.545,0-2.711-0.604-3.498-1.813S658.976,51.05,658.976,48.762z M661.164,48.679c0,3.613,0.876,5.42,2.627,5.42
		c1.729,0,2.591-1.843,2.591-5.53c0-3.784-0.845-5.676-2.536-5.676C662.059,42.893,661.164,44.822,661.164,48.679z"/>
	<path fill="#FFFFFF" d="M682.155,52.085h-1.775v3.498h-2.042v-3.498h-6.491v-1.391l6.182-9.293h2.354v9.045h1.775L682.155,52.085
		L682.155,52.085z M678.338,50.446v-5.549c0-0.415,0.012-0.891,0.036-1.428h-0.036c-0.152,0.378-0.333,0.744-0.54,1.098
		l-3.898,5.877L678.338,50.446L678.338,50.446z"/>
	<path fill="#FFFFFF" d="M691.877,50.821h-5.402v-1.593h5.402V50.821z"/>
	<path fill="#FFFFFF" d="M705.727,42.243l-5.409,13.339h-2.243l5.219-12.332h-6.957v-1.849h9.395v0.842H705.727z"/>
	<path fill="#FFFFFF" d="M718.697,55.582h-8.816v-1.794l4.111-4.047c0.916-0.897,1.592-1.673,2.028-2.326
		c0.436-0.653,0.652-1.364,0.652-2.133c0-1.569-0.83-2.354-2.489-2.354c-1.244,0-2.44,0.522-3.59,1.566v-2.069
		c1.153-0.842,2.479-1.263,3.975-1.263c1.301,0,2.336,0.346,3.107,1.039c0.772,0.693,1.157,1.641,1.157,2.843
		c0,0.867-0.244,1.729-0.731,2.587c-0.487,0.858-1.341,1.872-2.556,3.043l-3.147,3.003v0.046h6.299V55.582L718.697,55.582z"/>
	<path fill="#FFFFFF" d="M729.143,50.821h-5.4v-1.593h5.4V50.821z"/>
	<path fill="#FFFFFF" d="M742.991,42.243l-5.411,13.339h-2.242l5.219-12.332h-6.958v-1.849h9.395L742.991,42.243L742.991,42.243z"/>
	<path fill="#FFFFFF" d="M756.22,55.582h-8.351v-1.794h3.104V43.543l-3.187,0.861v-1.886l5.338-1.402v12.671h3.095L756.22,55.582
		L756.22,55.582z"/>
	<path fill="#FFFFFF" d="M760.941,52.991c0.971,0.738,2.066,1.108,3.296,1.108c0.909,0,1.636-0.221,2.179-0.664
		s0.815-1.042,0.815-1.799c0-1.666-1.217-2.499-3.646-2.499h-1.209v-1.73h1.135c2.167,0,3.25-0.778,3.25-2.334
		c0-1.452-0.827-2.179-2.479-2.179c-0.979,0-1.91,0.33-2.802,0.989v-1.922c0.934-0.531,2.038-0.797,3.313-0.797
		c1.222,0,2.221,0.309,2.999,0.929c0.778,0.62,1.167,1.454,1.167,2.504c0,1.862-0.946,3.048-2.838,3.562v0.037
		c1,0.098,1.804,0.456,2.407,1.076c0.603,0.62,0.905,1.381,0.905,2.284c0,1.319-0.479,2.359-1.434,3.122
		c-0.955,0.763-2.198,1.146-3.729,1.146c-1.386,0-2.495-0.247-3.332-0.741L760.941,52.991L760.941,52.991z"/>
	<path fill="#FFFFFF" d="M774.682,53.403c0.788,0.464,1.646,0.696,2.573,0.696c1.239,0,2.191-0.47,2.856-1.41
		c0.664-0.94,0.997-2.258,0.997-3.956c-0.02,0-0.033-0.003-0.046-0.009c-0.616,1.111-1.638,1.667-3.06,1.667
		c-1.202,0-2.187-0.418-2.952-1.254c-0.765-0.836-1.147-1.883-1.147-3.141c0-1.417,0.435-2.576,1.305-3.479
		c0.869-0.903,2.003-1.354,3.401-1.354c1.471,0,2.609,0.568,3.42,1.703c0.809,1.135,1.213,2.747,1.213,4.834
		c0,2.539-0.51,4.527-1.529,5.965c-1.019,1.438-2.478,2.156-4.376,2.156c-1.02,0-1.905-0.165-2.655-0.495V53.403L774.682,53.403z
		 M776.046,45.759c0,0.879,0.227,1.579,0.673,2.101c0.448,0.522,1.069,0.783,1.863,0.783c0.689,0,1.265-0.238,1.726-0.714
		s0.691-1.059,0.691-1.749c0-0.909-0.229-1.685-0.682-2.326c-0.455-0.642-1.066-0.961-1.837-0.961c-0.715,0-1.3,0.277-1.754,0.833
		C776.273,44.281,776.046,44.958,776.046,45.759z"/>
	<path fill="#FFFFFF" d="M793.283,50.821h-5.401v-1.593h5.401V50.821z"/>
	<path fill="#FFFFFF" d="M798.207,52.991c0.971,0.738,2.068,1.108,3.296,1.108c0.909,0,1.636-0.221,2.179-0.664
		s0.815-1.042,0.815-1.799c0-1.666-1.215-2.499-3.644-2.499h-1.209v-1.73h1.135c2.167,0,3.25-0.778,3.25-2.334
		c0-1.452-0.827-2.179-2.48-2.179c-0.977,0-1.91,0.33-2.802,0.989v-1.922c0.934-0.531,2.038-0.797,3.313-0.797
		c1.222,0,2.221,0.309,2.997,0.929c0.778,0.62,1.169,1.454,1.169,2.504c0,1.862-0.946,3.048-2.84,3.562v0.037
		c1,0.098,1.806,0.456,2.407,1.076c0.604,0.62,0.906,1.381,0.906,2.284c0,1.319-0.479,2.359-1.435,3.122
		c-0.953,0.763-2.196,1.146-3.729,1.146c-1.385,0-2.496-0.247-3.333-0.741L798.207,52.991L798.207,52.991z"/>
	<path fill="#FFFFFF" d="M820.828,52.085h-1.775v3.498h-2.042v-3.498h-6.491v-1.391l6.182-9.293h2.354v9.045h1.775L820.828,52.085
		L820.828,52.085z M817.01,50.446v-5.549c0-0.415,0.015-0.891,0.037-1.428h-0.037c-0.15,0.378-0.332,0.744-0.539,1.098l-3.898,5.877
		L817.01,50.446L817.01,50.446z"/>
	<path fill="#FFFFFF" d="M830.549,50.821h-5.399v-1.593h5.399V50.821z"/>
	<path fill="#FFFFFF" d="M843.932,55.582h-8.814v-1.794l4.108-4.047c0.916-0.897,1.594-1.673,2.028-2.326
		c0.438-0.653,0.654-1.364,0.654-2.133c0-1.569-0.83-2.354-2.49-2.354c-1.245,0-2.441,0.522-3.589,1.566v-2.069
		c1.153-0.842,2.478-1.263,3.974-1.263c1.302,0,2.336,0.346,3.108,1.039c0.771,0.693,1.157,1.641,1.157,2.843
		c0,0.867-0.244,1.729-0.732,2.587c-0.488,0.858-1.34,1.872-2.555,3.043l-3.149,3.003v0.046h6.3V55.582z"/>
</g>
<g>
	<path fill="#FFFFFF" d="M874.308,51.143c-0.091,1.629-0.358,3.091-0.806,4.385l-1.309-0.769c0.4-1.124,0.671-2.454,0.805-3.991
		L874.308,51.143z M877.65,42.454c-0.873,2.539-1.977,4.553-3.307,6.042c0.521-0.104,1.05-0.247,1.594-0.431
		c-0.051-0.36-0.136-0.668-0.258-0.925l1.146-0.448c0.354,0.946,0.623,1.965,0.806,3.058l-1.181,0.504
		c-0.074-0.458-0.125-0.757-0.156-0.897c-1.195,0.354-2.414,0.653-3.652,0.897l-0.375-1.291c1.025-1.007,1.906-2.271,2.646-3.791
		l-2.041,0.412l-0.395-1.401c0.915-1.349,1.663-3.119,2.241-5.31l1.559,0.375c-0.501,1.678-1.193,3.235-2.078,4.669
		c0.744-0.147,1.208-0.253,1.392-0.32c0.231-0.452,0.454-1.031,0.668-1.74L877.65,42.454z M876.186,54.494l-1.254,0.302
		c0.02-0.323,0.027-0.646,0.027-0.97c0-0.94-0.08-1.874-0.238-2.801l1.146-0.202C876.133,52.122,876.24,53.346,876.186,54.494z
		 M877.988,52.543l-1.126,0.394c-0.067-0.635-0.204-1.333-0.411-2.097l1.043-0.302C877.726,51.173,877.891,51.841,877.988,52.543z
		 M883.573,49.092h-3.259c0,0.275-0.015,0.57-0.037,0.888h2.994c-0.052,2.686-0.242,4.259-0.577,4.72s-0.8,0.691-1.394,0.691
		l-1.043-0.018l-0.422-1.492l0.916,0.018c0.244,0,0.423-0.045,0.536-0.133c0.113-0.088,0.209-0.388,0.288-0.897
		c0.079-0.509,0.119-1.018,0.119-1.524h-1.539c-0.256,1.605-1.014,3.024-2.271,4.257l-1.136-1.199
		c1.367-1.099,2.063-2.869,2.078-5.311h-1.126v-1.346h2.115c-0.02-0.128-0.122-0.378-0.313-0.751l1.574-0.412
		c0.232,0.445,0.406,0.833,0.521,1.163h1.97L883.573,49.092L883.573,49.092L883.573,49.092z M883.088,46.391h-5.025v-5.978h1.348
		c0.207-0.501,0.378-1.038,0.512-1.612l1.594,0.266c-0.065,0.28-0.223,0.729-0.468,1.346h2.042L883.088,46.391L883.088,46.391z
		 M881.568,42.72v-0.86h-1.935v0.861L881.568,42.72L881.568,42.72z M881.568,44.935V44.01h-1.935v0.925H881.568z M888.975,54.292
		l-1.125,1.163c-0.658-0.72-1.24-1.489-1.749-2.307c-0.519,0.799-1.135,1.569-1.849,2.307l-0.943-1.336
		c0.836-0.836,1.47-1.712,1.896-2.627c-0.573-1.251-1.011-2.82-1.312-4.706l1.348-0.467c0.15,1.092,0.385,2.13,0.694,3.113
		c0.415-1.508,0.653-3.5,0.716-5.979h-0.997c-0.336,1.087-0.729,2.054-1.184,2.902l-1.08-1.291c0.824-1.678,1.36-3.748,1.611-6.207
		l1.456,0.302c-0.063,0.733-0.205,1.639-0.431,2.719h2.663v1.575h-0.576c-0.085,3.266-0.506,5.954-1.265,8.065
		C887.369,52.427,888.077,53.353,888.975,54.292z"/>
	<path fill="#FFFFFF" d="M909.463,43.919c-0.031,1.44-0.172,2.289-0.422,2.545c-0.249,0.256-0.534,0.409-0.852,0.458l-0.75,0.11
		v6.226h-8.096l0.788,0.806c-1.936,0.769-3.991,1.239-6.17,1.41l-0.715-1.319c1.96-0.165,3.641-0.464,5.045-0.897h-2.646v-5.475
		c-0.616,0.147-1.217,0.259-1.795,0.339l-0.658-1.483c2.03-0.189,3.5-0.72,4.401-1.593h-3.614l0.596-3.131h4.055v-0.897h-4.879
		V39.91h4.879v-0.906h1.612v0.906h2.646v-0.906h1.612v0.906h4.33v3.131h-4.33v0.879L909.463,43.919L909.463,43.919z M898.514,43.04
		h-2.525l-0.128,0.879h2.436C898.391,43.608,898.464,43.315,898.514,43.04z M905.773,48.323v-0.769h-8.479v0.769H905.773z
		 M905.773,50.218v-0.824h-8.479v0.824H905.773z M905.773,52.095v-0.806h-8.479v0.806H905.773z M907.796,45.045H904.5v0.916h-1.611
		v-0.916h-3.396c-0.213,0.373-0.619,0.827-1.218,1.364h8.396l-0.275-0.723c0.653,0.03,1.052,0.003,1.19-0.082
		C907.724,45.519,907.796,45.332,907.796,45.045z M902.889,43.919V43.04h-2.698c-0.052,0.366-0.113,0.659-0.192,0.879H902.889z
		 M902.889,41.914v-0.879h-2.646v0.879H902.889z M909.802,54.31l-0.705,1.254c-1.909-0.47-3.812-0.757-5.704-0.861l0.643-1.263
		C906.457,53.617,908.38,53.908,909.802,54.31z M907.201,41.914v-0.879h-2.7v0.879H907.201z"/>
	<path fill="#FFFFFF" d="M918.561,51.966c-0.934,1.422-1.944,2.603-3.039,3.543l-1.271-1.108c1.068-0.861,2.042-1.935,2.921-3.223
		L918.561,51.966z M923.377,50.749h-9.055v-1.483h1.556V42.4h-1.254v-1.483h1.254v-1.932h1.612v1.932h2.828v-1.932h1.64v1.932h1.31
		V42.4h-1.31v6.866h1.419V50.749L923.377,50.749z M920.318,43.718V42.4h-2.828v1.318H920.318z M920.318,46.456v-1.3h-2.828v1.3
		H920.318z M920.318,49.266v-1.374h-2.828v1.374H920.318z M922.424,53.505l-1.254,0.952c-0.562-0.909-1.168-1.709-1.821-2.398
		l1.235-0.916C921.194,51.734,921.808,52.522,922.424,53.505z M930.151,53.202c0,1.447-0.679,2.17-2.032,2.17
		c-0.343,0-0.785-0.013-1.328-0.037l-0.559-1.611c0.443,0.018,0.797,0.027,1.054,0.027c0.567,0,0.919-0.053,1.053-0.16
		c0.135-0.107,0.202-0.273,0.202-0.5v-3.323h-2.967c-0.152,2.246-0.803,4.184-1.95,5.813l-1.446-0.916
		c1.275-1.636,1.913-4.098,1.913-7.388v-7.954h6.063L930.151,53.202L930.151,53.202z M928.54,43.581v-2.664h-2.819v2.664H928.54z
		 M928.54,48.158v-2.93h-2.819v2.93H928.54z"/>
	<path fill="#FFFFFF" d="M940.047,44.725c1.044,1.508,1.565,2.933,1.565,4.276c0,1.751-0.86,2.627-2.582,2.627
		c-0.185,0-0.381-0.006-0.595-0.018l-0.47-1.676c0.238,0.043,0.518,0.064,0.833,0.064c0.439,0,0.738-0.061,0.896-0.183
		c0.159-0.122,0.236-0.366,0.236-0.732c0-1.38-0.555-2.774-1.666-4.184c0.354-0.873,0.784-2.173,1.291-3.9H937.5v14.41h-1.611
		V39.323h5.41v1.676C940.898,42.366,940.479,43.608,940.047,44.725z M950.813,47.197h-6.711v6.024
		c0.86-0.263,1.778-0.626,2.757-1.09l0.092,1.749c-1.69,0.732-3.104,1.236-4.239,1.511l-0.604-1.401
		c0.237-0.152,0.355-0.397,0.355-0.733V39.378h8.352v7.819H950.813z M949.138,42.555v-1.676h-5.034v1.676H949.138z M949.138,45.705
		v-1.676h-5.034v1.676H949.138z M951.857,54.137l-0.953,1.374c-2.66-1.612-4.403-3.988-5.229-7.132l1.511-0.467
		c0.228,0.799,0.506,1.508,0.834,2.124c0.813-0.586,1.604-1.337,2.381-2.252l1.197,1.09c-0.928,1.124-1.834,2.005-2.719,2.646
		C949.669,52.538,950.661,53.41,951.857,54.137z"/>
</g>
<g>
	<path fill="#FFFFFF" d="M980.832,54.307h-8.35v-1.794h3.104V42.268l-3.186,0.861v-1.886l5.337-1.401v12.671h3.095V54.307
		L980.832,54.307z"/>
	<path fill="#FFFFFF" d="M984.996,47.487c0-2.491,0.426-4.379,1.277-5.667c0.852-1.288,2.086-1.932,3.701-1.932
		c3.082,0,4.623,2.42,4.623,7.26c0,2.368-0.421,4.193-1.263,5.475c-0.843,1.282-2.063,1.923-3.663,1.923
		c-1.544,0-2.71-0.604-3.497-1.813S984.996,49.776,984.996,47.487z M987.185,47.404c0,3.613,0.876,5.42,2.628,5.42
		c1.729,0,2.592-1.843,2.592-5.53c0-3.784-0.848-5.676-2.536-5.676C988.078,41.618,987.185,43.547,987.185,47.404z"/>
	<path fill="#FFFFFF" d="M999.295,52.128c0.787,0.464,1.646,0.696,2.572,0.696c1.239,0,2.189-0.47,2.854-1.41
		s0.997-2.259,0.997-3.956c-0.018,0-0.031-0.003-0.046-0.009c-0.616,1.111-1.636,1.667-3.058,1.667
		c-1.202,0-2.188-0.418-2.952-1.254c-0.765-0.836-1.149-1.883-1.149-3.141c0-1.417,0.438-2.576,1.307-3.479
		c0.87-0.903,2.003-1.354,3.399-1.354c1.474,0,2.611,0.568,3.42,1.703c0.811,1.135,1.214,2.747,1.214,4.834
		c0,2.539-0.51,4.527-1.527,5.965c-1.021,1.438-2.479,2.156-4.377,2.156c-1.021,0-1.904-0.165-2.654-0.494V52.128L999.295,52.128z
		 M1000.658,44.483c0,0.879,0.225,1.579,0.673,2.101s1.069,0.783,1.863,0.783c0.688,0,1.265-0.238,1.726-0.714
		s0.691-1.059,0.691-1.749c0-0.91-0.229-1.685-0.684-2.326c-0.455-0.642-1.064-0.961-1.836-0.961c-0.714,0-1.299,0.277-1.753,0.833
		C1000.886,43.006,1000.658,43.685,1000.658,44.483z"/>
	<path fill="#FFFFFF" d="M1019.525,40.126l-6.841,16.534h-1.959l6.82-16.534H1019.525z"/>
	<path fill="#FFFFFF" d="M1031.673,54.307h-8.351v-1.794h3.104V42.268l-3.187,0.861v-1.886l5.338-1.401v12.671h3.095
		L1031.673,54.307L1031.673,54.307z"/>
	<path fill="#FFFFFF" d="M1044.854,54.307h-8.814v-1.794l4.11-4.047c0.916-0.897,1.592-1.673,2.027-2.326
		c0.438-0.653,0.654-1.364,0.654-2.133c0-1.568-0.83-2.353-2.49-2.353c-1.246,0-2.439,0.522-3.59,1.566v-2.069
		c1.154-0.842,2.479-1.263,3.974-1.263c1.302,0,2.337,0.346,3.108,1.039c0.772,0.693,1.158,1.641,1.158,2.843
		c0,0.866-0.244,1.729-0.732,2.587c-0.487,0.857-1.34,1.872-2.555,3.043l-3.149,3.003v0.046h6.299V54.307L1044.854,54.307z"/>
	<path fill="#FFFFFF" d="M1056.929,40.126l-6.839,16.534h-1.959l6.82-16.534H1056.929z"/>
	<path fill="#FFFFFF" d="M1069.076,54.307h-8.353v-1.794h3.104V42.268l-3.188,0.861v-1.886l5.338-1.401v12.671h3.096
		L1069.076,54.307L1069.076,54.307z"/>
	<path fill="#FFFFFF" d="M1074.063,51.899c0.979,0.616,1.979,0.925,3.005,0.925c0.916,0,1.659-0.25,2.231-0.751
		c0.573-0.5,0.861-1.178,0.861-2.033c0-1.77-1.136-2.655-3.405-2.655c-0.538,0-1.291,0.046-2.262,0.138v-7.397h7.205v1.849h-5.273
		v3.69c0.531-0.031,0.933-0.046,1.199-0.046c1.452,0,2.604,0.375,3.451,1.126c0.849,0.75,1.271,1.794,1.271,3.131
		c0,1.422-0.471,2.555-1.409,3.401c-0.939,0.846-2.194,1.268-3.764,1.268c-1.343,0-2.381-0.199-3.111-0.595V51.899L1074.063,51.899z
		"/>
</g>
<g>
	<path fill="#FFFFFF" d="M1244.577,39.31l-6.763,16.674h-2.807l6.523-15.415h-8.697v-2.312h11.741L1244.577,39.31L1244.577,39.31z"
		/>
	<path fill="#FFFFFF" d="M1261.111,55.983h-10.438V53.74h3.88V40.935l-3.98,1.076v-2.358l6.672-1.751V53.74h3.867V55.983
		L1261.111,55.983z"/>
	<path fill="#FFFFFF" d="M1278.493,51.612h-2.221v4.372h-2.554v-4.372h-8.112v-1.74l7.725-11.616h2.941v11.307h2.221V51.612z
		 M1273.721,49.563v-6.936c0-0.519,0.018-1.114,0.046-1.785h-0.046c-0.189,0.473-0.416,0.931-0.676,1.374l-4.875,7.347H1273.721z"/>
	<path fill="#FFFFFF" d="M1312.866,51.154c-0.063,1.755-0.213,3.041-0.458,3.857c-0.244,0.816-0.648,1.364-1.213,1.643
		c-0.564,0.278-1.576,0.418-3.033,0.418c-0.999,0-1.777-0.025-2.334-0.074s-1.003-0.228-1.339-0.532
		c-0.336-0.304-0.504-0.74-0.504-1.305v-9.374h-3.604c-0.152,3.205-0.729,5.63-1.734,7.278c-1.004,1.647-2.658,3.059-4.973,4.234
		l-1.521-1.74c2.111-0.877,3.626-2.013,4.536-3.405c0.911-1.392,1.413-3.516,1.507-6.369h-5.459v-2.037h19.729v2.037h-6.306v8.606
		c0,0.245,0.078,0.405,0.232,0.48c0.156,0.075,0.797,0.114,1.917,0.114c0.869,0,1.416-0.052,1.639-0.155
		c0.221-0.103,0.364-0.263,0.436-0.48c0.068-0.217,0.146-0.675,0.229-1.374c0.083-0.698,0.142-1.62,0.172-2.764L1312.866,51.154z
		 M1311.058,39.298h-16.868v-2.061h16.868V39.298z"/>
</g>
<g>
	<path fill="#FFFFFF" d="M1131.365,39.509h-16.975v4.898c1.224-1.122,2.277-2.655,3.172-4.601l1.924,0.423
		c-0.468,1-0.988,1.984-1.568,2.953v7.336h-1.945v-4.83l-0.869,0.847l-0.709-1.923v4.944c0,2.785-0.6,5.28-1.798,7.484l-1.691-1.339
		c0.969-1.846,1.453-4.223,1.453-7.13v-10.78h8.228c-0.129-0.282-0.354-0.656-0.675-1.122l2.289-0.401
		c0.343,0.526,0.618,1.034,0.823,1.522h8.344L1131.365,39.509L1131.365,39.509z M1118.124,51.948
		c-0.557,1.641-1.354,3.14-2.392,4.498l-1.685-1.099c1.03-1.343,1.755-2.686,2.177-4.028L1118.124,51.948z M1131.182,50.495h-11.535
		v-4.749c-0.158,0.152-0.378,0.34-0.65,0.561l-0.87-1.876c1.327-1.335,2.389-2.884,3.182-4.646l1.876,0.492
		c-0.176,0.42-0.36,0.813-0.561,1.179h2.415c-0.198-0.419-0.424-0.813-0.675-1.179l2.082-0.32c0.26,0.428,0.512,0.928,0.756,1.5
		h3.765v1.613h-4.165v0.938h3.893v1.453h-3.893v0.961h3.893v1.477h-3.893v1.007h4.383L1131.182,50.495L1131.182,50.495z
		 M1127.875,53.962c-0.138,1.816-0.912,2.724-2.323,2.724l-4.737,0.022c-1.259,0-1.889-0.587-1.889-1.762v-3.582h2.037v2.998
		c0,0.199,0.089,0.338,0.27,0.418c0.181,0.081,0.766,0.121,1.758,0.121c1.523,0,2.359-0.057,2.506-0.172
		c0.146-0.115,0.254-0.319,0.327-0.613c0.069-0.293,0.106-0.586,0.106-0.875L1127.875,53.962z M1124.877,44.006v-0.938h-3.193
		l-0.112,0.16v0.778H1124.877z M1124.877,46.421V45.46h-3.308v0.961H1124.877z M1124.877,48.905v-1.007h-3.308v1.007H1124.877z
		 M1125.46,53.242l-1.785,0.824c-0.442-0.786-1.024-1.606-1.751-2.46l1.797-0.847C1124.369,51.514,1124.949,52.341,1125.46,53.242z
		 M1131.502,55.004l-1.75,0.95c-0.695-1.297-1.604-2.575-2.724-3.834l1.737-0.916C1129.6,52.082,1130.511,53.349,1131.502,55.004z"
		/>
	<path fill="#FFFFFF" d="M1139.683,51.605c-0.112,2.037-0.448,3.864-1.007,5.482l-1.637-0.961c0.504-1.404,0.839-3.067,1.007-4.99
		L1139.683,51.605z M1143.86,40.745c-1.091,3.174-2.47,5.691-4.132,7.553c0.646-0.13,1.313-0.31,1.99-0.538
		c-0.062-0.45-0.168-0.835-0.318-1.156l1.43-0.561c0.442,1.183,0.778,2.457,1.008,3.822l-1.477,0.63
		c-0.092-0.572-0.156-0.946-0.195-1.122c-1.495,0.442-3.017,0.816-4.566,1.122l-0.469-1.613c1.281-1.259,2.385-2.838,3.309-4.737
		l-2.555,0.515l-0.49-1.751c1.145-1.686,2.078-3.898,2.805-6.637l1.945,0.469c-0.626,2.099-1.492,4.044-2.6,5.837
		c0.932-0.183,1.512-0.316,1.739-0.401c0.29-0.565,0.569-1.289,0.835-2.174L1143.86,40.745z M1142.029,55.794l-1.568,0.377
		c0.022-0.404,0.034-0.809,0.034-1.213c0-1.175-0.099-2.342-0.298-3.502l1.431-0.251
		C1141.964,52.83,1142.098,54.359,1142.029,55.794z M1144.283,53.356l-1.407,0.492c-0.084-0.794-0.256-1.667-0.515-2.621
		l1.305-0.377C1143.955,51.644,1144.161,52.479,1144.283,53.356z M1151.264,49.042h-4.072c0,0.343-0.018,0.713-0.047,1.11h3.741
		c-0.061,3.357-0.302,5.323-0.721,5.899c-0.42,0.576-0.999,0.864-1.74,0.864l-1.305-0.022l-0.526-1.866l1.146,0.022
		c0.306,0,0.526-0.055,0.67-0.166c0.141-0.111,0.261-0.484,0.359-1.122c0.1-0.638,0.146-1.271,0.146-1.906h-1.922
		c-0.32,2.006-1.268,3.781-2.839,5.322l-1.419-1.499c1.71-1.374,2.574-3.586,2.598-6.638h-1.407v-1.683h2.646
		c-0.022-0.16-0.152-0.473-0.391-0.938l1.971-0.515c0.289,0.557,0.507,1.042,0.65,1.453h2.46L1151.264,49.042L1151.264,49.042z
		 M1150.658,45.666h-6.283v-7.473h1.682c0.262-0.625,0.475-1.297,0.643-2.014l1.99,0.332c-0.084,0.351-0.276,0.912-0.584,1.682
		h2.555L1150.658,45.666L1150.658,45.666z M1148.758,41.077v-1.076h-2.415v1.076H1148.758z M1148.758,43.846V42.69h-2.415v1.156
		H1148.758z M1158.017,55.542l-1.406,1.453c-0.824-0.9-1.554-1.861-2.188-2.883c-0.646,0.999-1.419,1.961-2.312,2.883l-1.182-1.671
		c1.046-1.045,1.836-2.14,2.369-3.284c-0.717-1.564-1.263-3.525-1.637-5.882l1.682-0.583c0.191,1.366,0.48,2.663,0.87,3.891
		c0.521-1.884,0.816-4.376,0.894-7.473h-1.246c-0.42,1.358-0.912,2.567-1.479,3.628l-1.352-1.613
		c1.028-2.098,1.701-4.684,2.015-7.759l1.819,0.377c-0.076,0.916-0.258,2.048-0.537,3.399h3.33v1.969h-0.723
		c-0.105,4.082-0.634,7.442-1.578,10.082C1156.01,53.211,1156.895,54.367,1158.017,55.542z"/>
	<path fill="#FFFFFF" d="M1184.13,43.159l-1.019,1.832c-1.129-0.473-2.303-1.053-3.516-1.74v1.316h-4.807v2.3h7.908v2.014h-7.908
		v5.458h8.469v1.991h-18.963v-1.99h8.365v-5.458h-7.76v-2.014h7.76v-2.3h-4.875v-1.259c-0.887,0.534-1.938,1.08-3.158,1.637
		l-1.316-1.785c4.771-2.099,8.09-4.387,9.956-6.866l2.117,0.606c-0.053,0.138-0.156,0.286-0.31,0.446
		C1176.839,39.368,1179.857,41.306,1184.13,43.159z M1171.025,53.265l-1.971,0.675c-0.549-1.015-1.426-2.231-2.632-3.651
		l1.991-0.824C1169.576,50.831,1170.446,52.098,1171.025,53.265z M1178.476,42.599c-2.014-1.236-3.606-2.445-4.781-3.628
		c-1.345,1.305-2.903,2.514-4.683,3.628H1178.476z M1181.119,50.198c-0.809,1.495-1.651,2.727-2.528,3.696l-2.037-0.893
		c0.9-0.938,1.751-2.117,2.555-3.536L1181.119,50.198z"/>
	<path fill="#FFFFFF" d="M1200.458,48.103l-0.916,1.694c-1.388-0.961-2.8-1.805-4.234-2.529c-1.646,1.198-3.278,2.079-4.896,2.644
		l-0.984-1.728c1.604-0.48,2.938-1.091,4.006-1.831c-0.839-0.389-1.435-0.656-1.784-0.801c-0.289,0.236-0.516,0.408-0.676,0.515
		l-1.406-1.339c1.541-1.099,2.854-2.605,3.937-4.521l1.729,0.538c-0.056,0.213-0.178,0.48-0.366,0.801h4.005v1.74
		c-0.374,0.603-1.067,1.491-2.083,2.667C1198.211,46.707,1199.436,47.424,1200.458,48.103z M1199.943,40.939h-2.017v-1.11h-5.651
		v1.248h-2.036V38.01h3.774c-0.146-0.473-0.34-0.912-0.584-1.316l1.992-0.446c0.307,0.549,0.53,1.137,0.675,1.762h3.847V40.939
		L1199.943,40.939z M1198.845,56.87h-2.037v-0.721h-3.548v0.698h-2.036v-6.981h7.622L1198.845,56.87L1198.845,56.87z
		 M1196.658,43.285h-2.906c-0.32,0.419-0.576,0.721-0.767,0.904c0.999,0.405,1.699,0.702,2.104,0.893
		C1195.77,44.434,1196.292,43.834,1196.658,43.285z M1196.807,54.294v-2.62h-3.547v2.62H1196.807z M1210.186,38.776h-3.866
		c-0.168,0.756-0.349,1.404-0.538,1.945h3.629v11.788h-6.021l1.293,1.202c-1.15,1.305-2.536,2.407-4.152,3.307l-1.353-1.603
		c1.319-0.595,2.624-1.564,3.914-2.907h-2.116V40.722h2.725c0.213-0.664,0.393-1.313,0.537-1.945h-3.641v-1.9h9.59V38.776
		L1210.186,38.776z M1207.37,44.006V42.53h-4.36v1.477L1207.37,44.006L1207.37,44.006z M1207.37,47.314v-1.59h-4.36v1.59H1207.37z
		 M1207.37,50.712v-1.716h-4.36v1.716H1207.37z M1210.402,55.393l-1.227,1.602c-1.159-1.068-2.388-1.915-3.685-2.541l1.201-1.545
		C1207.908,53.459,1209.145,54.287,1210.402,55.393z"/>
</g>
<g>
	<path fill="#FFFFFF" stroke="#335986" stroke-width="5.5" stroke-miterlimit="10" d="M347.195,217.185
		c0,41.616-33.734,75.359-75.345,75.359c-41.622,0-75.359-33.742-75.359-75.359c0-41.617,33.737-75.358,75.359-75.358
		C313.46,141.828,347.195,175.568,347.195,217.185z"/>
	<path fill="#335986" d="M327.75,240.38c0,7.29-5.919,13.211-13.208,13.211h-85.329c-7.29,0-13.209-5.92-13.209-13.211v-45.994
		c0-7.288,5.919-13.207,13.209-13.207h85.329c7.288,0,13.208,5.919,13.208,13.207V240.38z"/>
	<g>
		<g>
			<path fill="#FFFFFF" stroke="#FFFFFF" stroke-width="0.394" stroke-miterlimit="10" d="M248.055,192.861
				c-13.498,0-24.429,10.933-24.429,24.433c0,7.434,3.336,14.101,8.584,18.583c0.768-6.68,6.431-11.86,13.306-11.86h5.062
				c6.894,0,12.555,5.181,13.306,11.86c5.267-4.482,8.602-11.149,8.602-18.583C272.486,203.794,261.535,192.861,248.055,192.861
				 M248.055,222.292c-4.34,0-7.868-3.529-7.868-7.867c0-4.343,3.528-7.854,7.868-7.854c4.341,0,7.854,3.512,7.854,7.854
				C255.908,218.763,252.396,222.292,248.055,222.292 M260.969,216.701c-0.135,0.811-0.834,1.374-1.633,1.374
				c-0.1,0-0.185-0.008-0.286-0.025c-0.896-0.147-1.514-1.017-1.346-1.915c0.111-0.61,0.149-1.165,0.149-1.71
				c0-5.411-4.387-9.798-9.799-9.798c-5.411,0-9.816,4.386-9.816,9.798c0,0.543,0.057,1.095,0.171,1.71
				c0.148,0.897-0.453,1.767-1.351,1.915c-0.917,0.171-1.768-0.434-1.934-1.347c-0.131-0.8-0.204-1.549-0.204-2.277
				c0-7.232,5.883-13.116,13.134-13.116c7.233,0,13.116,5.885,13.116,13.116C261.171,215.157,261.116,215.906,260.969,216.701"/>
			<path fill="#FFFFFF" d="M248.055,243.055c-14.162,0-25.671-11.524-25.671-25.686c0-14.146,11.509-25.669,25.671-25.669
				c14.146,0,25.672,11.523,25.672,25.669C273.727,231.531,262.201,243.055,248.055,243.055 M248.055,194.195
				c-12.786,0-23.188,10.403-23.188,23.175c0,12.786,10.402,23.189,23.188,23.189c12.782,0,23.173-10.403,23.173-23.189
				C271.229,204.598,260.837,194.195,248.055,194.195"/>
		</g>
		<path fill="#FFFFFF" d="M320.127,223.25c0,1.123-0.911,2.047-2.049,2.047h-35.954c-1.136,0-2.048-0.924-2.048-2.047l0,0
			c0-1.137,0.912-2.049,2.048-2.049h35.954C319.216,221.201,320.127,222.112,320.127,223.25L320.127,223.25z"/>
		<path fill="#FFFFFF" d="M320.127,233.078c0,1.137-0.911,2.051-2.049,2.051h-35.954c-1.136,0-2.048-0.914-2.048-2.051l0,0
			c0-1.118,0.912-2.029,2.048-2.029h35.954C319.216,231.048,320.127,231.959,320.127,233.078L320.127,233.078z"/>
		<path fill="#FFFFFF" d="M320.127,242.926c0,1.135-0.911,2.048-2.049,2.048h-35.954c-1.136,0-2.048-0.913-2.048-2.048l0,0
			c0-1.137,0.912-2.048,2.048-2.048h35.954C319.216,240.878,320.127,241.79,320.127,242.926L320.127,242.926z"/>
		<path fill="#FFFFFF" d="M321.37,208.488c0,3.341-2.709,6.052-6.05,6.052h-30.436c-3.341,0-6.051-2.711-6.051-6.052v-11.659
			c0-3.341,2.71-6.049,6.051-6.049h30.436c3.341,0,6.05,2.708,6.05,6.049V208.488z"/>
	</g>
</g>
<g>
	<path fill="#345C8D" d="M250.3,324.441l-0.905,1.325c-0.932-0.361-1.854-0.896-2.769-1.6v1.063h-3.621v1.439h6.469v1.406h-14.423
		v-1.406h6.319v-1.439h-3.489v-1.081c-0.943,0.727-1.875,1.271-2.795,1.635l-0.879-1.362c1.541-0.525,2.722-1.266,3.542-2.215
		h-3.366v-1.424h2.918v-5.467h-2.54v-1.406h2.54v-1.188h1.582v1.188h6.557v-1.188h1.617v1.188h2.575v1.406h-2.575v5.467h2.953v1.424
		h-3.313C247.581,323.1,248.782,323.844,250.3,324.441z M246.143,323.809c-0.75-0.654-1.28-1.188-1.591-1.6h-4.896
		c-0.416,0.645-0.87,1.178-1.362,1.6h3.076v-1.149h1.635v1.149H246.143z M245.439,316.268v-0.947h-6.557v0.947H245.439z
		 M245.439,318.5v-0.993h-6.557v0.993H245.439z M245.439,320.785v-1.046h-6.557v1.046H245.439z"/>
	<path fill="#345C8D" d="M269.933,324.512l-1.134,1.151c-2.795-2.146-4.781-4.664-5.959-7.561v5.906h3.586v1.564h-3.586v2.854
		h-1.635v-2.854h-3.621v-1.564h3.621v-5.939c-1.271,3-3.311,5.508-6.117,7.521l-1.063-1.222c2.684-1.969,4.699-4.43,6.047-7.383
		h-5.476v-1.582h6.609v-2.683h1.635v2.683h6.645v1.582h-5.599C265.063,319.906,267.079,322.414,269.933,324.512z"/>
	<path fill="#345C8D" d="M289.786,318.175l-0.756,1.441c-0.463-0.094-0.984-0.243-1.564-0.448v6.768h-7.594l0.773,0.896
		c-1.693,0.779-3.691,1.355-5.994,1.73l-0.773-1.44c1.711-0.205,3.349-0.603,4.913-1.188h-2.646v-6.803h3.401l-0.686-0.993
		c2.104-0.532,3.671-1.468,4.702-2.804l1.635,0.36c-0.176,0.32-0.308,0.522-0.396,0.604
		C286.08,317.129,287.741,317.753,289.786,318.175z M279.256,317.674h-5.238v-1.477h5.238V317.674z M279.098,314.809h-4.843v-1.439
		h4.843V314.809z M285.848,321.04v-0.633h-8.024v0.633H285.848z M285.848,322.877v-0.668h-8.024v0.668H285.848z M285.848,324.749
		v-0.703h-8.024v0.703H285.848z M289.469,315.011c-0.557,0.797-1.081,1.468-1.573,2.015l-1.362-0.811
		c0.152-0.176,0.475-0.577,0.967-1.204h-5.669c-0.551,0.633-1.078,1.16-1.582,1.582l-1.222-1.046
		c0.932-0.674,1.825-1.693,2.681-3.059l1.477,0.501c-0.053,0.205-0.167,0.416-0.343,0.633h6.627v1.389H289.469L289.469,315.011z
		 M287.29,319.133c-1.207-0.393-2.379-0.97-3.516-1.729c-0.75,0.68-1.726,1.257-2.927,1.729H287.29z M289.68,327.245l-0.861,1.389
		c-1.57-0.504-3.328-0.87-5.273-1.099l0.826-1.354C286.27,326.346,288.04,326.7,289.68,327.245z"/>
	<path fill="#345C8D" d="M296.463,320.732c-0.311,1.975-0.753,3.727-1.327,5.256l-1.406-0.668c0.557-1.514,0.979-3.173,1.266-4.983
		L296.463,320.732z M296.375,317.182l-1.477,0.512c-0.229-1.236-0.557-2.414-0.984-3.533l1.415-0.536
		C295.763,314.741,296.112,315.928,296.375,317.182z M301.042,319.792h-2.452v8.604h-1.564v-8.604h-3.041v-1.529h3.041v-5.555h1.564
		v5.555h2.452V319.792z M301.508,324.872l-1.441,0.378c-0.199-1.729-0.498-3.234-0.896-4.518l1.362-0.433
		C301.007,321.649,301.333,323.173,301.508,324.872z M301.649,314.035c-0.211,1.266-0.557,2.502-1.037,3.709l-1.406-0.65
		c0.469-1.242,0.791-2.423,0.967-3.542L301.649,314.035z M305.56,320.697l-1.081,1.114c-0.68-0.938-1.676-1.969-2.988-3.094
		l1.028-1.213C303.808,318.614,304.822,319.678,305.56,320.697z M305.789,316.355l-1.134,1.114
		c-0.703-1.055-1.591-2.063-2.663-3.021l1.028-1.151C304.133,314.299,305.056,315.318,305.789,316.355z M309.48,323.773
		l-1.547,0.255v4.368h-1.6v-4.078l-4.21,0.712l-0.114-1.564l4.324-0.721v-10.037h1.6v9.738l1.441-0.222L309.48,323.773z"/>
</g>
<g>
	<path fill="#FFFFFF" stroke="#335986" stroke-width="5.5" stroke-miterlimit="10" d="M662.875,217.185
		c0,41.616-33.736,75.359-75.354,75.359c-41.616,0-75.351-33.742-75.351-75.359c0-41.617,33.733-75.358,75.351-75.358
		C629.138,141.827,662.875,175.568,662.875,217.185z"/>
	<g>
		<path fill="#335986" stroke="#335986" stroke-width="0.3652" stroke-miterlimit="10" d="M541.241,220.639h-17.419
			c-1.801,0-3.244-1.459-3.244-3.262c0-1.784,1.443-3.241,3.244-3.241h17.419V220.639L541.241,220.639z"/>
		<path fill="#335986" stroke="#335986" stroke-width="0.3652" stroke-miterlimit="10" d="M651.294,220.639h-17.421v-6.503h17.421
			c1.781,0,3.241,1.458,3.241,3.241C654.542,219.176,653.076,220.639,651.294,220.639"/>
		<path fill="#335986" stroke="#335986" stroke-width="0.3652" stroke-miterlimit="10" d="M590.843,153.524v17.418h-6.5v-17.418
			c0-1.783,1.459-3.243,3.241-3.243C589.384,150.281,590.843,151.741,590.843,153.524"/>
		<path fill="#335986" stroke="#335986" stroke-width="0.3652" stroke-miterlimit="10" d="M634.982,174.728l-12.325,12.312
			l-4.59-4.586l12.314-12.313c1.263-1.266,3.324-1.266,4.601,0C636.251,171.405,636.251,173.461,634.982,174.728"/>
		<path fill="#335986" stroke="#335986" stroke-width="0.3652" stroke-miterlimit="10" d="M544.591,169.926l12.317,12.326
			l-4.585,4.59l-12.315-12.313c-1.282-1.282-1.282-3.321,0-4.604C541.269,168.664,543.331,168.664,544.591,169.926"/>
		<path fill="#335986" stroke="#335986" stroke-width="0.3652" stroke-miterlimit="10" d="M642.915,208.718l-9.715,1.683
			l-0.627-3.622l9.715-1.68c1.002-0.163,1.952,0.505,2.117,1.505C644.589,207.603,643.915,208.555,642.915,208.718"/>
		<path fill="#335986" stroke="#335986" stroke-width="0.3652" stroke-miterlimit="10" d="M640.307,198.672l-8.977,4.118
			l-1.525-3.34l8.96-4.116c0.92-0.41,2.016-0.021,2.444,0.913C641.632,197.168,641.227,198.265,640.307,198.672"/>
		<path fill="#335986" stroke="#335986" stroke-width="0.3652" stroke-miterlimit="10" d="M635.466,188.737l-7.953,5.837
			l-2.177-2.964l7.966-5.836c0.809-0.596,1.967-0.427,2.563,0.4C636.46,186.982,636.295,188.141,635.466,188.737"/>
		<path fill="#335986" stroke="#335986" stroke-width="0.3652" stroke-miterlimit="10" d="M620.186,171.562l-5.4,8.265l-3.084-2.016
			l5.404-8.256c0.553-0.846,1.696-1.078,2.537-0.529C620.503,169.576,620.741,170.721,620.186,171.562"/>
		<path fill="#335986" stroke="#335986" stroke-width="0.3652" stroke-miterlimit="10" d="M611.324,166.294l-3.899,9.059
			l-3.376-1.446l3.896-9.055c0.4-0.942,1.486-1.362,2.418-0.971C611.296,164.283,611.733,165.369,611.324,166.294"/>
		<path fill="#335986" stroke="#335986" stroke-width="0.3652" stroke-miterlimit="10" d="M600.31,162.565l-1.61,9.733l-3.626-0.6
			l1.606-9.731c0.179-1.002,1.12-1.676,2.122-1.503C599.806,160.624,600.482,161.564,600.31,162.565"/>
		<path fill="#335986" stroke="#335986" stroke-width="0.3652" stroke-miterlimit="10" d="M532.166,208.718l9.72,1.683l0.623-3.622
			l-9.716-1.68c-0.999-0.163-1.945,0.505-2.114,1.505C530.497,207.606,531.167,208.555,532.166,208.718"/>
		<path fill="#335986" stroke="#335986" stroke-width="0.3652" stroke-miterlimit="10" d="M534.782,198.672l8.965,4.118l1.536-3.34
			l-8.962-4.116c-0.938-0.41-2.016-0.021-2.44,0.913C533.453,197.168,533.857,198.265,534.782,198.672"/>
		<path fill="#335986" stroke="#335986" stroke-width="0.3652" stroke-miterlimit="10" d="M539.62,188.737l7.956,5.837l2.178-2.964
			l-7.968-5.836c-0.809-0.596-1.967-0.427-2.565,0.4C538.625,186.982,538.796,188.141,539.62,188.737"/>
		<path fill="#335986" stroke="#335986" stroke-width="0.3652" stroke-miterlimit="10" d="M554.9,171.562l5.405,8.265l3.077-2.016
			l-5.403-8.256c-0.551-0.846-1.694-1.078-2.548-0.529C554.581,169.576,554.345,170.721,554.9,171.562"/>
		<path fill="#335986" stroke="#335986" stroke-width="0.3652" stroke-miterlimit="10" d="M563.761,166.294l3.896,9.059l3.383-1.446
			l-3.901-9.055c-0.4-0.942-1.487-1.362-2.416-0.971C563.788,164.283,563.357,165.369,563.761,166.294"/>
		<path fill="#335986" stroke="#335986" stroke-width="0.3652" stroke-miterlimit="10" d="M574.774,162.565l1.612,9.733l3.622-0.6
			l-1.608-9.731c-0.176-1.002-1.114-1.676-2.119-1.503C575.28,160.624,574.6,161.564,574.774,162.565"/>
		<path fill="#335986" stroke="#335986" stroke-width="0.3652" stroke-miterlimit="10" d="M549.383,257.516h-9.16
			c-1.119,0-2.021-0.899-2.021-2.024v-11.219c0-1.119,0.898-2.026,2.021-2.026h9.16c1.108,0,2.024,0.904,2.024,2.026v11.218
			C551.406,256.61,550.491,257.516,549.383,257.516"/>
		<path fill="#335986" stroke="#335986" stroke-width="0.3652" stroke-miterlimit="10" d="M566.477,257.516h-9.146
			c-1.12,0-2.025-0.899-2.025-2.024v-11.219c0-1.119,0.901-2.026,2.025-2.026h9.146c1.115,0,2.02,0.904,2.02,2.026v11.218
			C568.496,256.61,567.591,257.516,566.477,257.516"/>
		<path fill="#335986" stroke="#335986" stroke-width="0.3652" stroke-miterlimit="10" d="M583.579,257.516h-9.143
			c-1.124,0-2.025-0.899-2.025-2.024v-11.219c0-1.119,0.899-2.026,2.025-2.026h9.143c1.121,0,2.021,0.904,2.021,2.026v11.218
			C585.6,256.61,584.7,257.516,583.579,257.516"/>
		<path fill="#335986" stroke="#335986" stroke-width="0.3652" stroke-miterlimit="10" d="M600.677,257.516h-9.146
			c-1.116,0-2.019-0.899-2.019-2.024v-11.219c0-1.119,0.897-2.026,2.019-2.026h9.146c1.119,0,2.028,0.904,2.028,2.026v11.218
			C602.706,256.61,601.8,257.516,600.677,257.516"/>
		<path fill="#335986" stroke="#335986" stroke-width="0.3652" stroke-miterlimit="10" d="M617.782,257.516h-9.157
			c-1.106,0-2.027-0.899-2.027-2.024v-11.219c0-1.119,0.922-2.026,2.027-2.026h9.157c1.123,0,2.024,0.904,2.024,2.026v11.218
			C619.807,256.61,618.909,257.516,617.782,257.516"/>
		<path fill="#335986" stroke="#335986" stroke-width="0.3652" stroke-miterlimit="10" d="M634.888,257.516h-9.156
			c-1.104,0-2.025-0.899-2.025-2.024v-11.219c0-1.119,0.921-2.026,2.025-2.026h9.156c1.111,0,2.022,0.904,2.022,2.026v11.218
			C636.911,256.61,636,257.516,634.888,257.516"/>
		<path fill="#335986" stroke="#335986" stroke-width="0.3652" stroke-miterlimit="10" d="M588.516,191.931h16.306
			c0.459,0,0.738,0.527,0.444,0.903l-14.713,19.842c-0.276,0.363-0.007,0.904,0.467,0.904h13.605c0.505,0,0.76,0.594,0.421,0.96
			l-31.839,33.724c-0.438,0.48-1.2-0.046-0.931-0.63l10.934-23.462c0.185-0.38-0.088-0.803-0.51-0.803h-14.796
			c-0.453,0-0.734-0.524-0.468-0.902l20.599-30.292C588.15,192.013,588.318,191.931,588.516,191.931"/>
	</g>
</g>
<g>
	<path fill="#345C8D" d="M565.131,319.168h-1.547v-2.883h-5.396v3.472h-1.492v-3.472h-5.1v2.883h-1.527v-4.157h6.627v-0.648h-5.959
		v-1.371h13.623v1.371h-6.172v0.648h6.943V319.168z M565.456,326.401c-0.1,0.586-0.261,1.03-0.483,1.341
		c-0.223,0.307-0.466,0.492-0.729,0.553c-0.264,0.063-1.345,0.093-3.243,0.093c-1.576,0-2.588-0.024-3.037-0.079
		c-0.449-0.053-0.778-0.207-0.989-0.461c-0.211-0.256-0.314-0.615-0.314-1.086v-1.011h-5.783v-5.502h13.034v5.502h-5.704v0.545
		c0,0.246,0.092,0.403,0.277,0.47c0.185,0.068,1.23,0.104,3.142,0.104c0.82,0,1.332-0.006,1.534-0.02
		c0.202-0.012,0.35-0.088,0.443-0.229c0.095-0.141,0.142-0.328,0.142-0.563L565.456,326.401z M556.236,319.291
		c-1.119,0.205-2.428,0.337-3.92,0.396l-0.31-1.046c1.186-0.012,2.487-0.115,3.911-0.314L556.236,319.291z M556.148,316.953
		l-0.29,1.028c-1.207-0.164-2.431-0.257-3.665-0.272l0.323-1.011C553.509,316.681,554.719,316.766,556.148,316.953z
		 M556.658,322.367V321.4h-4.236v0.967H556.658z M556.658,324.547v-1.028h-4.236v1.028H556.658z M562.396,322.367V321.4h-4.191
		v0.967H562.396z M562.396,324.547v-1.028h-4.191v1.028H562.396z M563.083,317.524c-1.219,0.203-2.552,0.337-3.999,0.396
		l-0.36-0.984c1.107-0.018,2.373-0.132,3.798-0.343L563.083,317.524z M562.969,318.772l-0.246,1.02
		c-1.43-0.234-2.763-0.378-3.999-0.431l0.36-1.021C560.15,318.365,561.445,318.509,562.969,318.772z"/>
	<path fill="#345C8D" d="M585.256,319.493l-0.018,1.547H577.3c-0.633,0.727-1.175,1.277-1.626,1.652v3.813
		c1.26-0.229,2.438-0.521,3.533-0.879v1.67c-1.693,0.533-3.422,0.934-5.186,1.195l-0.483-1.459c0.334-0.229,0.501-0.562,0.501-0.993
		v-2.048c-1.242,0.838-2.537,1.515-3.885,2.03l-0.826-1.582c2.432-0.799,4.345-1.933,5.739-3.401h-5.528v-1.547h7.093v-1.283h-5.854
		v-1.459h5.854v-1.274h-6.645v-1.512h6.645v-1.239h1.67v1.239h6.559v1.512h-6.559v1.274h5.783v1.459h-5.783v1.283L585.256,319.493
		L585.256,319.493z M585.493,327.069l-0.905,1.527c-1.881-0.654-3.349-1.509-4.403-2.558c-1.054-1.049-1.884-2.458-2.485-4.229
		l1.635-0.235c0.375,0.949,0.771,1.711,1.187,2.285c1.037-0.615,1.939-1.365,2.707-2.25l1.45,0.923
		c-0.879,0.967-1.893,1.837-3.041,2.608C582.59,325.982,583.876,326.624,585.493,327.069z"/>
	<path fill="#345C8D" d="M604.23,326.691c0,0.449-0.144,0.856-0.428,1.222s-0.992,0.545-2.123,0.545
		c-0.463,0-0.929-0.021-1.396-0.062l-0.589-1.705c0.908,0.021,1.646,0.033,2.215,0.033c0.199,0,0.369-0.062,0.51-0.185
		s0.211-0.278,0.211-0.466v-8.71h-4.122c0.436,2.277,1.699,4.409,3.797,6.39l-0.976,1.257c-1.857-1.582-3.208-3.607-4.052-6.082
		c-0.682,2.104-2.042,4.139-4.087,6.102l-0.969-1.239c2.25-2.25,3.659-4.392,4.229-6.425h-4.642v11.03h-1.607v-12.577h6.39
		c-0.059-0.527-0.1-1.031-0.123-1.514h-1.723v-1.6h3.182c0,0.504,0.093,1.541,0.272,3.111h6.029V326.691L604.23,326.691z"/>
	<path fill="#345C8D" d="M624.979,322.534l-0.824,1.327c-0.229-0.064-0.703-0.243-1.426-0.536v5.133h-1.635v-0.782h-8.121v0.756
		h-1.635v-5.069c-0.393,0.197-0.844,0.396-1.354,0.598l-0.879-1.336c3.285-1.271,5.866-2.934,7.741-4.983l1.459,0.606
		c-0.012,0.035-0.05,0.088-0.112,0.158c-0.064,0.068-0.105,0.118-0.123,0.147C619.94,320.264,622.243,321.591,624.979,322.534z
		 M615.838,316.918c-1.16,1.172-2.9,2.354-5.221,3.542l-1.011-1.292c2.063-0.908,3.727-1.983,4.99-3.226L615.838,316.918z
		 M624.373,317.568l-1.564-0.026v-1.96h-11.593v1.925h-1.573v-3.384h6.662c-0.17-0.428-0.393-0.854-0.668-1.274l1.696-0.343
		c0.404,0.779,0.656,1.318,0.756,1.617h6.284V317.568L624.373,317.568z M621.129,322.552c-1.688-0.914-3.062-1.881-4.122-2.898
		c-1.266,1.16-2.608,2.127-4.034,2.898H621.129z M621.094,326.182v-2.136h-8.121v2.136H621.094z M624.479,319.511l-1.012,1.151
		c-1.699-1.406-3.419-2.59-5.159-3.551l1.021-1.169C621.203,317.003,622.919,318.192,624.479,319.511z"/>
</g>
<g>
	<path fill="#345C8D" d="M880.863,326.656c0,0.484-0.178,0.911-0.527,1.272c-0.351,0.363-0.971,0.545-1.854,0.545
		c-0.404,0-0.822-0.015-1.258-0.044l-0.482-1.582l2.014-0.018c0.143,0,0.268-0.061,0.377-0.18c0.111-0.12,0.168-0.251,0.168-0.394
		v-3.243h-4.43v5.036h-1.529v-5.036h-4.357c-0.199,2.314-0.732,4.157-1.602,5.528l-1.424-0.923c0.504-0.75,0.895-1.741,1.168-2.976
		c0.275-1.233,0.414-2.412,0.414-3.537v-7.974h13.324L880.863,326.656L880.863,326.656z M873.34,317.313v-2.608h-4.201v2.608H873.34
		z M873.34,321.506v-2.698h-4.201v2.698H873.34z M879.299,317.313v-2.608h-4.43v2.608H879.299z M879.299,321.506v-2.698h-4.43v2.698
		H879.299z"/>
	<path fill="#345C8D" d="M901.199,319.221h-1.547v-2.883h-5.396v3.472h-1.494v-3.472h-5.098v2.883h-1.529v-4.155h6.627v-0.65h-5.959
		v-1.371h13.623v1.371h-6.17v0.65h6.943V319.221z M901.523,326.454c-0.102,0.586-0.262,1.032-0.482,1.341
		c-0.223,0.307-0.467,0.492-0.73,0.553c-0.264,0.063-1.344,0.095-3.24,0.095c-1.576,0-2.592-0.026-3.037-0.079
		c-0.449-0.055-0.777-0.207-0.988-0.461c-0.211-0.258-0.314-0.617-0.314-1.086v-1.013h-5.783v-5.502h13.033v5.502h-5.703v0.545
		c0,0.246,0.092,0.403,0.273,0.472c0.188,0.066,1.232,0.102,3.145,0.102c0.818,0,1.332-0.006,1.533-0.018
		c0.201-0.014,0.352-0.088,0.443-0.229c0.093-0.141,0.143-0.328,0.143-0.563L901.523,326.454z M892.305,319.344
		c-1.119,0.205-2.426,0.337-3.92,0.396l-0.309-1.046c1.184-0.014,2.488-0.117,3.912-0.316L892.305,319.344z M892.217,317.006
		l-0.291,1.028c-1.207-0.164-2.428-0.255-3.664-0.272l0.324-1.011C889.576,316.733,890.787,316.818,892.217,317.006z
		 M892.727,322.42v-0.967h-4.234v0.967H892.727z M892.727,324.6v-1.026h-4.234v1.026H892.727z M898.465,322.42v-0.967h-4.189v0.967
		H898.465z M898.465,324.6v-1.026h-4.189v1.026H898.465z M899.15,317.577c-1.221,0.205-2.553,0.337-3.998,0.396l-0.361-0.982
		c1.107-0.02,2.373-0.132,3.797-0.343L899.15,317.577z M899.037,318.825l-0.246,1.02c-1.43-0.232-2.764-0.378-4-0.431l0.361-1.021
		C896.219,318.418,897.514,318.563,899.037,318.825z"/>
	<path fill="#345C8D" d="M920.498,326.744c0,0.451-0.143,0.856-0.426,1.222c-0.285,0.363-0.992,0.545-2.123,0.545
		c-0.463,0-0.932-0.021-1.398-0.062l-0.588-1.705c0.908,0.021,1.646,0.035,2.215,0.035c0.199,0,0.369-0.063,0.51-0.187
		c0.143-0.123,0.213-0.276,0.213-0.466v-8.71h-4.123c0.434,2.279,1.697,4.409,3.797,6.39l-0.977,1.259
		c-1.855-1.582-3.209-3.609-4.053-6.082c-0.68,2.104-2.041,4.137-4.086,6.1l-0.967-1.239c2.25-2.25,3.658-4.392,4.227-6.425h-4.641
		v11.03h-1.607v-12.577h6.391c-0.061-0.527-0.102-1.031-0.123-1.512h-1.725v-1.602h3.184c0,0.504,0.092,1.541,0.271,3.111h6.029
		V326.744L920.498,326.744z"/>
	<path fill="#345C8D" d="M941.246,322.587l-0.826,1.327c-0.229-0.064-0.703-0.243-1.424-0.536v5.133h-1.635v-0.782h-8.121v0.758
		h-1.635v-5.071c-0.395,0.199-0.846,0.396-1.354,0.598l-0.879-1.336c3.287-1.271,5.869-2.933,7.744-4.981l1.459,0.604
		c-0.014,0.035-0.052,0.088-0.115,0.158s-0.104,0.12-0.123,0.147C936.207,320.316,938.51,321.644,941.246,322.587z M932.105,316.971
		c-1.16,1.172-2.9,2.354-5.223,3.542l-1.01-1.292c2.063-0.906,3.727-1.981,4.992-3.226L932.105,316.971z M940.641,317.621
		l-1.563-0.026v-1.96h-11.594v1.925h-1.572v-3.384h6.662c-0.17-0.428-0.395-0.853-0.668-1.272l1.693-0.345
		c0.404,0.779,0.656,1.318,0.756,1.617h6.285V317.621L940.641,317.621z M937.396,322.604c-1.688-0.912-3.063-1.881-4.121-2.898
		c-1.268,1.16-2.611,2.127-4.035,2.898H937.396z M937.361,326.234v-2.138h-8.121v2.138H937.361z M940.746,319.563l-1.012,1.151
		c-1.699-1.406-3.418-2.59-5.158-3.551l1.02-1.169C937.471,317.056,939.188,318.245,940.746,319.563z"/>
</g>
<path fill="#FFFFFF" stroke="#335986" stroke-width="5.5" stroke-miterlimit="10" d="M979.121,217.143
	c0,41.616-33.734,75.36-75.36,75.36c-41.605,0-75.344-33.744-75.344-75.36c0-41.617,33.737-75.357,75.344-75.357
	C945.387,141.785,979.121,175.523,979.121,217.143z"/>
<path fill="#335986" d="M911.848,163.534h-37.274c-5.972,0-10.8,4.011-10.8,8.974v87.505c0,4.948,4.83,8.962,10.8,8.962h60.681
	c5.969,0,10.815-4.014,10.815-8.962v-65.006L911.848,163.534z"/>
<path fill="#FFFFFF" d="M912.445,186.14c0,4.896,4.628,8.87,10.341,8.87h22.393l-32.732-31.152L912.445,186.14L912.445,186.14z"/>
<g>
	<path fill="#FFFFFF" d="M940.606,235.655h-5.591v-9.152c0-0.806-0.658-1.466-1.465-1.466c-0.823,0-1.479,0.66-1.479,1.466v9.152
		h-7.441v-9.152c0-0.806-0.661-1.466-1.481-1.466s-1.48,0.66-1.48,1.466v9.152h-5.577c-1.968,0-3.56,1.594-3.56,3.56
		c0,1.967,1.592,3.562,3.56,3.562h0.809v8.836l0,0c0.052,6.126,5.151,11.07,11.44,11.07c6.307,0,11.397-4.944,11.458-11.07l0,0
		v-8.836h0.808c1.967,0,3.577-1.595,3.577-3.562C944.182,237.249,942.572,235.655,940.606,235.655z"/>
	<path fill="#335986" stroke="#FFFFFF" stroke-width="0.2229" stroke-miterlimit="10" d="M928.89,244.531h4.084
		c0.108,0,0.182,0.138,0.106,0.232l-3.686,4.969c-0.064,0.083-0.004,0.225,0.119,0.225h3.414c0.112,0,0.184,0.154,0.09,0.232
		l-7.967,8.449c-0.101,0.125-0.299-0.011-0.227-0.166l2.738-5.865c0.048-0.098-0.024-0.197-0.134-0.197h-3.705
		c-0.107,0-0.176-0.134-0.109-0.234l5.149-7.579C928.795,244.554,928.838,244.531,928.89,244.531"/>
</g>
<g>
	<rect x="871.455" y="175.192" fill="#FFFFFF" width="39.023" height="16.947"/>
	<g>
		<path fill="#FFFFFF" d="M938.37,203.541c0,1.14-0.928,2.084-2.068,2.084h-62.78c-1.139,0-2.065-0.944-2.065-2.084l0,0
			c0-1.154,0.928-2.083,2.065-2.083h62.78C937.442,201.458,938.37,202.385,938.37,203.541L938.37,203.541z"/>
		<path fill="#FFFFFF" d="M938.37,216.46c0,1.157-0.928,2.085-2.068,2.085h-62.78c-1.139,0-2.065-0.928-2.065-2.085l0,0
			c0-1.139,0.928-2.08,2.065-2.08h62.78C937.442,214.38,938.37,215.322,938.37,216.46L938.37,216.46z"/>
		<path fill="#FFFFFF" d="M914.357,229.387c0,1.153-0.93,2.079-2.082,2.079h-38.754c-1.14,0-2.066-0.925-2.066-2.079l0,0
			c0-1.143,0.928-2.07,2.066-2.07h38.754C913.429,227.317,914.357,228.245,914.357,229.387L914.357,229.387z"/>
		<path fill="#FFFFFF" d="M906.801,242.321c0,1.14-0.928,2.084-2.085,2.084h-31.191c-1.14,0-2.067-0.944-2.067-2.084l0,0
			c0-1.155,0.929-2.083,2.067-2.083h31.191C905.873,240.239,906.801,241.167,906.801,242.321L906.801,242.321z"/>
		<path fill="#FFFFFF" d="M906.801,255.243c0,1.156-0.928,2.086-2.085,2.086h-31.191c-1.14,0-2.067-0.929-2.067-2.086l0,0
			c0-1.139,0.929-2.083,2.067-2.083h31.191C905.873,253.16,906.801,254.104,906.801,255.243L906.801,255.243z"/>
	</g>
</g>
<rect x="926.199" y="268.628" fill="#335986" width="4.299" height="19.663"/>
<rect x="926.199" y="262.348" fill="#FFFFFF" width="4.299" height="6.627"/>
<g>
	<path fill="#FFFFFF" stroke="#335986" stroke-width="5.5" stroke-miterlimit="10" d="M1294.391,217.185
		c0,41.616-33.753,75.359-75.344,75.359c-41.625,0-75.377-33.742-75.377-75.359c0-41.617,33.753-75.358,75.377-75.358
		C1260.638,141.828,1294.391,175.568,1294.391,217.185z"/>
	<g>
		<g>
			<g>
				<polygon fill="#335986" points="1267.675,201.133 1188.53,237.714 1171.735,201.37 1250.875,164.8 				"/>
				<g>
					<path fill="#FFFFFF" d="M1232.43,195.375c3.243,7.021,0.161,15.338-6.846,18.597c-7.033,3.239-15.337,0.175-18.578-6.846
						c-3.238-7.018-0.193-15.338,6.823-18.579C1220.854,185.289,1229.188,188.354,1232.43,195.375z"/>
					<g>
						<path fill="#335986" d="M1227.923,204.367c-0.149,0.85-0.593,1.639-1.265,2.406c-0.676,0.763-1.512,1.424-2.588,1.978
							l0.707,1.537c0.094,0.183,0.098,0.384,0.009,0.577c-0.088,0.189-0.248,0.349-0.451,0.458
							c-0.211,0.082-0.425,0.103-0.604,0.041c-0.212-0.044-0.365-0.183-0.467-0.38l-0.709-1.539
							c-1.72,0.682-3.468,1.081-5.271,1.202c-0.2,0.019-0.435-0.033-0.661-0.152c-0.195-0.117-0.354-0.257-0.446-0.457
							c-0.125-0.259-0.131-0.521-0.021-0.79c0.112-0.267,0.316-0.479,0.586-0.601c0.186-0.084,0.358-0.127,0.486-0.128
							c1.524-0.068,3.013-0.399,4.464-0.992l-2.318-4.979c-1.214,0.242-2.229,0.381-3.081,0.399
							c-1.041,0.034-1.886-0.125-2.604-0.513c-0.723-0.386-1.255-0.96-1.631-1.735c-0.335-0.747-0.462-1.556-0.344-2.398
							c0.121-0.873,0.486-1.692,1.109-2.48c0.622-0.79,1.46-1.476,2.486-2.06l-0.696-1.503c-0.091-0.195-0.095-0.385-0.013-0.602
							c0.084-0.197,0.234-0.354,0.45-0.439c0.186-0.102,0.405-0.114,0.632-0.044c0.195,0.072,0.353,0.192,0.442,0.39l0.688,1.478
							c1.607-0.647,3.066-1.047,4.453-1.182c0.563-0.056,0.916,0.129,1.129,0.571c0.11,0.229,0.112,0.501,0.01,0.783
							c-0.104,0.28-0.297,0.48-0.553,0.613c-0.11,0.053-0.259,0.083-0.438,0.093c-1.208,0.125-2.449,0.464-3.726,1.011l2.366,5.148
							c1.188-0.266,2.276-0.442,3.213-0.499c0.988-0.065,1.863,0.078,2.594,0.45c0.748,0.369,1.334,1.005,1.768,1.92
							C1227.969,202.711,1228.077,203.528,1227.923,204.367z M1215.628,200.63c0.655,0.11,1.566,0.051,2.795-0.184l-2.213-4.768
							c-0.938,0.601-1.569,1.229-1.903,1.9c-0.36,0.676-0.393,1.323-0.092,1.947C1214.508,200.136,1214.975,200.503,1215.628,200.63
							z M1225.355,202.831c-0.22-0.52-0.698-0.836-1.36-0.903c-0.667-0.088-1.64,0.003-2.953,0.253l2.144,4.651
							C1225.327,205.655,1226.052,204.318,1225.355,202.831z"/>
					</g>
				</g>
			</g>
			<g>
				<polygon fill="#335986" points="1281.143,227.337 1197.35,251.419 1186.307,212.946 1270.068,188.865 				"/>
				<g>
					<path fill="#FFFFFF" d="M1247.188,216.273c2.115,7.43-2.163,15.18-9.601,17.322c-7.438,2.142-15.187-2.165-17.326-9.586
						c-2.142-7.436,2.165-15.197,9.595-17.34C1237.276,204.543,1245.043,208.835,1247.188,216.273z"/>
					<g>
						<path fill="#335986" d="M1241.361,224.47c-0.283,0.81-0.818,1.54-1.602,2.188c-0.786,0.648-1.754,1.162-2.873,1.556
							l0.453,1.616c0.063,0.211,0.033,0.395-0.073,0.571c-0.092,0.191-0.273,0.323-0.525,0.377
							c-0.206,0.066-0.407,0.053-0.609-0.041c-0.192-0.074-0.299-0.234-0.362-0.445l-0.488-1.614
							c-1.809,0.394-3.597,0.521-5.396,0.371c-0.202-0.015-0.424-0.1-0.63-0.253c-0.174-0.134-0.307-0.314-0.366-0.507
							c-0.083-0.276-0.047-0.552,0.104-0.8c0.153-0.247,0.355-0.426,0.677-0.5c0.188-0.057,0.337-0.07,0.501-0.049
							c1.515,0.161,3.036,0.069,4.527-0.3l-1.488-5.275c-1.274,0.048-2.295,0.019-3.142-0.08c-1.005-0.114-1.843-0.409-2.492-0.908
							c-0.654-0.48-1.082-1.131-1.327-1.955c-0.246-0.794-0.239-1.61,0.009-2.423c0.266-0.849,0.75-1.611,1.489-2.292
							c0.742-0.681,1.646-1.223,2.786-1.65l-0.479-1.594c-0.06-0.193-0.033-0.397,0.077-0.581c0.117-0.197,0.289-0.315,0.486-0.382
							c0.233-0.067,0.454-0.046,0.631,0.059c0.213,0.105,0.349,0.248,0.409,0.441l0.441,1.584c1.689-0.401,3.197-0.572,4.59-0.501
							c0.555,0.03,0.886,0.271,1.023,0.74c0.072,0.243,0.036,0.511-0.113,0.775c-0.15,0.262-0.355,0.428-0.645,0.515
							c-0.122,0.035-0.272,0.044-0.424,0.025c-1.241-0.054-2.521,0.097-3.867,0.434l1.582,5.451
							c1.213-0.071,2.294-0.074,3.246-0.001c0.992,0.084,1.797,0.361,2.48,0.849c0.689,0.485,1.189,1.189,1.445,2.161
							C1241.671,222.841,1241.648,223.666,1241.361,224.47z M1229.784,218.891c0.624,0.215,1.535,0.304,2.758,0.25l-1.422-5.045
							c-1.024,0.444-1.752,0.965-2.188,1.586c-0.43,0.613-0.563,1.247-0.393,1.909
							C1228.73,218.239,1229.156,218.677,1229.784,218.891z M1239.073,222.558c-0.167-0.551-0.56-0.921-1.204-1.109
							c-0.643-0.175-1.646-0.245-2.983-0.191l1.42,4.92C1238.598,225.358,1239.52,224.139,1239.073,222.558z"/>
					</g>
				</g>
			</g>
			<g>
				<polygon fill="#335986" points="1269.396,256.668 1182.241,257.083 1182.047,217.043 1269.232,216.642 				"/>
				<g>
					<path fill="#FFFFFF" d="M1239.737,236.787c0.039,7.736-6.21,14.032-13.932,14.07c-7.752,0.039-14.034-6.197-14.071-13.933
						c-0.037-7.736,6.184-14.032,13.931-14.071C1233.39,222.815,1239.7,229.052,1239.737,236.787z"/>
					<g>
						<path fill="#335986" d="M1231.91,243.104c-0.508,0.694-1.229,1.258-2.133,1.659c-0.938,0.415-1.988,0.669-3.205,0.726
							l0.006,1.686c0,0.22-0.047,0.39-0.208,0.542c-0.167,0.137-0.379,0.215-0.604,0.215c-0.241,0-0.438-0.069-0.574-0.198
							c-0.163-0.141-0.249-0.314-0.249-0.55l-0.012-1.685c-1.854-0.092-3.641-0.463-5.292-1.096
							c-0.219-0.082-0.41-0.226-0.537-0.411c-0.154-0.201-0.236-0.395-0.236-0.596c0-0.304,0.107-0.544,0.313-0.739
							c0.201-0.212,0.481-0.302,0.773-0.303c0.203-0.002,0.38,0.031,0.525,0.08c1.378,0.584,2.868,0.896,4.442,0.958l-0.025-5.494
							c-1.211-0.281-2.215-0.59-2.992-0.922c-0.937-0.383-1.657-0.902-2.146-1.553c-0.517-0.646-0.746-1.382-0.75-2.243
							c-0.003-0.825,0.2-1.61,0.673-2.339c0.463-0.741,1.146-1.336,2.05-1.79c0.868-0.448,1.93-0.724,3.115-0.83l-0.011-1.661
							c0-0.202,0.083-0.391,0.247-0.536c0.144-0.161,0.333-0.243,0.572-0.243c0.209-0.001,0.416,0.078,0.592,0.236
							c0.177,0.145,0.263,0.332,0.265,0.533l0.006,1.636c1.707,0.076,3.233,0.33,4.552,0.779c0.502,0.166,0.771,0.494,0.773,0.98
							c0.003,0.253-0.108,0.486-0.331,0.714c-0.219,0.212-0.448,0.327-0.762,0.328c-0.131,0-0.245-0.032-0.412-0.099
							c-1.151-0.383-2.442-0.587-3.812-0.632l0.025,5.683c1.192,0.247,2.224,0.536,3.132,0.869c0.898,0.35,1.615,0.854,2.171,1.502
							c0.524,0.647,0.77,1.459,0.774,2.454C1232.633,241.625,1232.409,242.411,1231.91,243.104z M1222.275,234.588
							c0.537,0.385,1.418,0.717,2.604,1l-0.023-5.243c-1.074,0.14-1.925,0.448-2.516,0.923c-0.589,0.459-0.9,1.05-0.896,1.738
							C1221.448,233.682,1221.735,234.205,1222.275,234.588z M1230.219,240.644c-0.003-0.574-0.303-1.043-0.87-1.394
							c-0.567-0.352-1.484-0.685-2.794-0.999l0.009,5.131C1229.018,243.204,1230.229,242.292,1230.219,240.644z"/>
					</g>
				</g>
			</g>
		</g>
		<g>
			<g>
				<path fill="#FFFFFF" stroke="#335986" stroke-width="2.9322" stroke-miterlimit="10" d="M1192.035,224.146
					c1.81,9.602-4.488,18.875-14.108,20.683c-9.583,1.826-18.875-4.486-20.683-14.102c-1.811-9.606,4.49-18.861,14.104-20.688
					C1180.971,208.23,1190.224,214.543,1192.035,224.146z"/>
				<g>
					<path fill="#335986" d="M1183.766,233.791c-0.475,0.977-1.24,1.836-2.287,2.565c-1.071,0.716-2.338,1.265-3.775,1.628
						l0.382,2.097c0.054,0.255-0.007,0.488-0.175,0.699c-0.174,0.229-0.387,0.354-0.706,0.415c-0.263,0.057-0.529,0.014-0.772-0.112
						c-0.206-0.134-0.352-0.337-0.406-0.626l-0.384-2.083c-2.353,0.298-4.607,0.239-6.843-0.17
						c-0.294-0.051-0.533-0.167-0.774-0.384c-0.236-0.199-0.351-0.422-0.401-0.694c-0.07-0.359,0.006-0.688,0.194-0.985
						c0.229-0.298,0.544-0.478,0.925-0.553c0.25-0.049,0.439-0.048,0.642,0.001c1.872,0.389,3.786,0.441,5.735,0.146l-1.285-6.81
						c-1.552-0.079-2.854-0.228-3.908-0.477c-1.261-0.252-2.268-0.73-3.035-1.409c-0.761-0.691-1.24-1.575-1.445-2.634
						c-0.207-1.034-0.102-2.044,0.281-3.05c0.437-1.026,1.148-1.938,2.134-2.694c1.028-0.772,2.253-1.353,3.719-1.757l-0.407-2.067
						c-0.053-0.252,0.007-0.494,0.172-0.73c0.169-0.218,0.385-0.367,0.666-0.425c0.295-0.04,0.539-0.004,0.795,0.152
						c0.254,0.158,0.375,0.357,0.429,0.612l0.399,2.033c2.133-0.302,4.104-0.33,5.837-0.087c0.671,0.105,1.056,0.456,1.174,1.05
						c0.063,0.318-0.021,0.636-0.233,0.954c-0.192,0.316-0.498,0.52-0.854,0.595c-0.161,0.029-0.35,0.022-0.539-0.021
						c-1.538-0.219-3.182-0.186-4.903,0.076l1.336,7.059c1.555,0.042,2.92,0.17,4.102,0.373c1.213,0.233,2.208,0.678,3.022,1.361
						c0.811,0.685,1.327,1.644,1.571,2.886C1184.35,231.775,1184.221,232.799,1183.766,233.791z M1169.814,225.402
						c0.771,0.352,1.921,0.578,3.479,0.645l-1.224-6.511c-1.318,0.438-2.311,1.013-2.941,1.732
						c-0.624,0.722-0.839,1.499-0.703,2.364C1168.596,224.461,1169.056,225.052,1169.814,225.402z M1181.09,231.105
						c-0.119-0.717-0.604-1.221-1.372-1.522c-0.796-0.305-2.03-0.513-3.737-0.596l1.196,6.368
						C1180.188,234.58,1181.486,233.162,1181.09,231.105z"/>
				</g>
			</g>
			<g>
				<path fill="#FFFFFF" stroke="#335986" stroke-width="2.9322" stroke-miterlimit="10" d="M1212.995,214.848
					c1.552,8.324-3.894,16.35-12.234,17.922c-8.323,1.584-16.346-3.893-17.915-12.216c-1.588-8.322,3.891-16.348,12.231-17.919
					C1203.383,201.048,1211.405,206.526,1212.995,214.848z"/>
				<g>
					<path fill="#335986" d="M1205.809,223.212c-0.397,0.838-1.062,1.578-1.988,2.206c-0.896,0.628-2.014,1.104-3.28,1.416
						l0.358,1.82c0.046,0.22-0.008,0.419-0.149,0.616c-0.15,0.181-0.33,0.304-0.608,0.357c-0.256,0.047-0.454,0.012-0.665-0.108
						c-0.206-0.118-0.336-0.292-0.354-0.528l-0.354-1.819c-2.029,0.254-4.002,0.211-5.922-0.133
						c-0.258-0.045-0.453-0.159-0.664-0.33c-0.208-0.186-0.335-0.378-0.379-0.613c-0.031-0.313,0.004-0.592,0.2-0.85
						c0.192-0.253,0.437-0.423,0.791-0.492c0.22-0.04,0.383-0.04,0.553,0.003c1.646,0.338,3.289,0.383,5.001,0.138l-1.141-5.901
						c-1.364-0.067-2.483-0.212-3.396-0.408c-1.084-0.229-1.976-0.629-2.639-1.229c-0.657-0.609-1.063-1.354-1.243-2.282
						c-0.164-0.894-0.089-1.772,0.271-2.654c0.345-0.882,0.957-1.667,1.843-2.333c0.885-0.665,1.934-1.165,3.194-1.512l-0.321-1.795
						c-0.043-0.219,0.006-0.438,0.149-0.63c0.117-0.188,0.315-0.315,0.571-0.364c0.228-0.05,0.465-0.002,0.687,0.13
						c0.188,0.122,0.321,0.31,0.364,0.526l0.351,1.766c1.862-0.258,3.535-0.284,5.047-0.075c0.581,0.092,0.94,0.393,1.044,0.902
						c0.02,0.29-0.013,0.563-0.205,0.838c-0.193,0.271-0.443,0.448-0.762,0.497c-0.14,0.025-0.302,0.021-0.462-0.02
						c-1.326-0.173-2.742-0.144-4.25,0.081l1.146,6.12c1.337,0.035,2.542,0.136,3.561,0.321c1.039,0.185,1.933,0.582,2.627,1.17
						c0.701,0.604,1.144,1.429,1.354,2.503C1206.32,221.459,1206.21,222.357,1205.809,223.212z M1193.75,215.946
						c0.664,0.303,1.652,0.481,2.995,0.552l-1.056-5.646c-1.166,0.38-1.985,0.873-2.56,1.491c-0.542,0.637-0.717,1.32-0.607,2.051
						C1192.665,215.121,1193.089,215.646,1193.75,215.946z M1203.503,220.885c-0.12-0.619-0.508-1.066-1.196-1.325
						c-0.687-0.265-1.779-0.442-3.22-0.528l1.029,5.526C1202.707,223.888,1203.822,222.668,1203.503,220.885z"/>
				</g>
			</g>
			<g>
				<path fill="#FFFFFF" stroke="#335986" stroke-width="2.9322" stroke-miterlimit="10" d="M1207.337,238.803
					c1.33,7.044-3.292,13.839-10.321,15.171c-7.063,1.332-13.857-3.294-15.188-10.338c-1.328-7.043,3.298-13.837,10.354-15.169
					C1199.211,227.134,1206.003,231.761,1207.337,238.803z"/>
				<g>
					<path fill="#335986" d="M1201.271,245.878c-0.328,0.718-0.885,1.343-1.666,1.884c-0.778,0.524-1.717,0.926-2.782,1.187
						l0.305,1.53c0.011,0.199-0.003,0.363-0.128,0.531c-0.124,0.149-0.308,0.255-0.542,0.299c-0.185,0.041-0.38,0.012-0.553-0.091
						c-0.146-0.101-0.252-0.244-0.291-0.441l-0.307-1.544c-1.699,0.214-3.384,0.188-4.997-0.125
						c-0.212-0.021-0.409-0.117-0.553-0.275c-0.18-0.142-0.287-0.318-0.322-0.501c-0.058-0.262,0-0.512,0.17-0.728
						c0.158-0.211,0.363-0.355,0.664-0.412c0.173-0.036,0.316-0.033,0.464,0.001c1.38,0.283,2.786,0.32,4.225,0.117l-0.959-4.996
						c-1.142-0.057-2.113-0.179-2.882-0.344c-0.908-0.197-1.654-0.544-2.206-1.045c-0.554-0.509-0.928-1.152-1.081-1.918
						c-0.117-0.764-0.059-1.517,0.232-2.256c0.32-0.739,0.834-1.398,1.572-1.974c0.743-0.559,1.623-0.99,2.713-1.281l-0.299-1.507
						c-0.036-0.197,0.007-0.367,0.126-0.543c0.128-0.156,0.265-0.266,0.479-0.306c0.22-0.042,0.424-0.004,0.574,0.11
						c0.188,0.116,0.299,0.258,0.334,0.456l0.267,1.481c1.591-0.218,3.021-0.237,4.292-0.063c0.489,0.077,0.792,0.328,0.878,0.771
						c0.046,0.229-0.014,0.475-0.171,0.704c-0.163,0.226-0.362,0.376-0.639,0.431c-0.118,0.022-0.261,0.017-0.403-0.016
						c-1.128-0.161-2.313-0.137-3.58,0.052l0.961,5.18c1.149,0.031,2.134,0.126,3.02,0.268c0.901,0.173,1.622,0.506,2.232,0.999
						c0.586,0.509,0.955,1.214,1.134,2.115C1201.709,244.41,1201.613,245.148,1201.271,245.878z M1191.074,239.741
						c0.556,0.253,1.38,0.402,2.537,0.462l-0.915-4.781c-0.944,0.319-1.659,0.746-2.148,1.281c-0.451,0.52-0.633,1.093-0.507,1.719
						C1190.161,239.048,1190.484,239.472,1191.074,239.741z M1199.313,243.915c-0.104-0.52-0.428-0.896-1-1.129
						c-0.579-0.218-1.498-0.365-2.73-0.429l0.869,4.668C1198.643,246.448,1199.609,245.425,1199.313,243.915z"/>
				</g>
			</g>
		</g>
	</g>
</g>
<g>
	<path fill="#335986" stroke="#335986" stroke-width="1.9598" stroke-miterlimit="10" d="M911.622,186.472
		c0.638,7.242,7.244,9.02,13.652,9.02c6.452,0,12.906,0,19.36,0c0.413,0,0.648-0.513,0.341-0.797
		c-10.845-10.012-21.688-20.026-32.528-30.038c-0.303-0.279-0.824-0.084-0.824,0.331
		C911.622,172.149,911.622,179.311,911.622,186.472c0,0.602,0.965,0.602,0.965,0c0-3.408,0-6.816,0-10.224c0-2.569,0-5.14,0-7.708
		c0-0.858,0-1.716,0-2.574c0-1.605-0.056,0.06-0.8-0.626c5.939,5.482,11.876,10.964,17.813,16.447
		c3.67,3.388,7.336,6.773,11.006,10.16c1.028,0.951,2.06,1.903,3.09,2.853c0.885,0.818,1.222-0.243-0.073-0.243
		c-4.941,0-9.881,0-14.822,0c-6.501,0-15.454,0.504-16.212-8.086C912.535,185.875,911.569,185.872,911.622,186.472z"/>
</g>
</svg>
