<?xml version="1.0" encoding="utf-8"?>
<!-- Generator: Adobe Illustrator 16.0.0, SVG Export Plug-In . SVG Version: 6.00 Build 0)  -->
<!DOCTYPE svg PUBLIC "-//W3C//DTD SVG 1.1//EN" "http://www.w3.org/Graphics/SVG/1.1/DTD/svg11.dtd">
<svg version="1.1" id="圖層_1" xmlns="http://www.w3.org/2000/svg" xmlns:xlink="http://www.w3.org/1999/xlink" x="0px" y="0px"
	 width="602.94px" height="767.322px" viewBox="0 0 602.94 767.322" enable-background="new 0 0 602.94 767.322"
	 xml:space="preserve">
<rect fill="#6AACBF" width="602.94" height="767.322"/>
<path fill="#DAF1EC" d="M542.054,442.678H62.377c-10.717,0-19.405-8.688-19.405-19.404v-14.922c0-10.717,8.688-19.405,19.405-19.405
	h479.677c10.717,0,19.405,8.688,19.405,19.405v14.922C561.459,433.99,552.771,442.678,542.054,442.678"/>
<path fill="#DAF1EC" d="M540.429,510.916H64.002c-11.614,0-21.03-9.414-21.03-21.029v-11.67c0-11.615,9.416-21.031,21.03-21.031
	h476.427c11.614,0,21.03,9.416,21.03,21.031v11.67C561.459,501.502,552.043,510.916,540.429,510.916"/>
<path fill="#DAF1EC" d="M540.846,579.156H63.585c-11.384,0-20.613-9.229-20.613-20.613v-12.506c0-11.385,9.229-20.613,20.613-20.613
	h477.261c11.384,0,20.613,9.229,20.613,20.613v12.506C561.459,569.928,552.229,579.156,540.846,579.156"/>
<path fill="#DAF1EC" d="M539.731,647.395H64.699c-11.999,0-21.728-9.729-21.728-21.729v-10.275c0-12,9.729-21.727,21.728-21.727
	h475.032c11.999,0,21.728,9.727,21.728,21.727v10.275C561.459,637.666,551.73,647.395,539.731,647.395"/>
<path fill="#DAF1EC" d="M372.013,737.025H227.709c-7.729,0-13.994-6.266-13.994-13.994v-21.605c0-7.729,6.266-13.994,13.994-13.994
	h144.304c7.729,0,13.994,6.266,13.994,13.994v21.605C386.007,730.76,379.741,737.025,372.013,737.025"/>
<path fill="#DAF1EC" d="M382.344,361.955H214.775c-19.271,0-34.894-15.622-34.894-34.893v-36.644
	c0-19.272,15.622-34.894,34.894-34.894h167.568c19.271,0,34.894,15.622,34.894,34.894v36.644
	C417.237,346.333,401.615,361.955,382.344,361.955"/>
<g>
	<path fill="#FE1A0A" d="M274.857,334.755h-28.213v-5.742l13.154-12.949c2.93-2.871,5.093-5.351,6.489-7.441
		c1.396-2.09,2.095-4.365,2.095-6.826c0-5.02-2.656-7.529-7.969-7.529c-3.984,0-7.813,1.67-11.484,5.01v-6.621
		c3.691-2.695,7.93-4.043,12.715-4.043c4.16,0,7.476,1.109,9.946,3.325c2.471,2.217,3.706,5.249,3.706,9.097
		c0,2.773-0.781,5.533-2.344,8.276c-1.563,2.744-4.287,5.991-8.174,9.741l-10.078,9.609v0.146h20.156V334.755z"/>
	<path fill="#FE1A0A" d="M287.742,312.929c0-7.969,1.362-14.014,4.087-18.135c2.725-4.121,6.675-6.182,11.851-6.182
		c9.863,0,14.795,7.745,14.795,23.232c0,7.578-1.348,13.418-4.043,17.52s-6.602,6.152-11.719,6.152
		c-4.941,0-8.672-1.934-11.191-5.801S287.742,320.253,287.742,312.929z M294.744,312.666c0,11.563,2.803,17.344,8.408,17.344
		c5.527,0,8.291-5.898,8.291-17.695c0-12.109-2.705-18.164-8.115-18.164C297.605,294.15,294.744,300.322,294.744,312.666z"/>
</g>
<path fill="#4A80A8" d="M359.187,327.004c3.317-4.15,7.988-11.474,8.392-21.04c0.473-11.245-5.017-24.213-10.069-24.194
	c-5.038,0.018-10.469,12.951-9.772,24.194c0.606,9.792,5.781,17.132,9.262,21.126c-3.409,0.724-7.037,4.05-7.11,8.832
	c5.034,0.613,10.068,1.227,15.103,1.841C366.647,332.313,362.92,327.583,359.187,327.004"/>
<g>
	<path fill="#4A80A8" d="M91.104,407.555h-1.241v16.889h-0.984v-3.999l-4.389,1.6l-0.421-0.943c0.581-0.198,1.036-0.358,1.364-0.481
		v-13.064h-1.128v-0.943h6.799V407.555z M88.878,410.847v-3.292h-2.409v3.292H88.878z M88.878,415.246v-3.385h-2.409v3.385H88.878z
		 M88.878,419.378v-3.128h-2.409v4.01C87.117,420.034,87.921,419.74,88.878,419.378z M96.148,415.03l-0.883,0.462
		c-0.096-0.328-0.188-0.609-0.276-0.842c-1.114,0.301-2.543,0.596-4.286,0.883l-0.287-0.779c1.025-0.916,2.041-2.133,3.045-3.65
		c-0.772,0.164-1.578,0.304-2.42,0.42l-0.297-0.759c0.984-1.244,1.798-2.841,2.44-4.788l0.923,0.358
		c-0.711,1.777-1.439,3.151-2.184,4.122c1.018-0.164,1.746-0.305,2.184-0.42l1.035-1.836l0.924,0.461
		c-1.375,2.393-2.735,4.307-4.082,5.742c0.909-0.156,1.798-0.361,2.666-0.615c-0.191-0.424-0.338-0.717-0.44-0.881l0.841-0.441
		C95.406,413.021,95.771,413.875,96.148,415.03z M95.728,418.66c0,1.702-0.301,2.988-0.902,3.861
		c-0.602,0.871-1.535,1.539-2.8,2.004l-0.584-0.882c1.866-0.533,2.908-1.613,3.127-3.24h-3.271v-3.927h1.025v2.922h2.399v-3.404
		h1.005V418.66z M102.342,415.01l-0.861,0.42c-0.076-0.293-0.145-0.533-0.205-0.717c-1.669,0.361-3.183,0.629-4.543,0.799
		l-0.297-0.881c1.059-0.938,2.033-2.1,2.922-3.486c-1.094,0.211-1.996,0.365-2.707,0.461l-0.297-0.82
		c0.997-1.107,1.91-2.711,2.737-4.809l0.964,0.317c-0.779,1.805-1.6,3.22-2.461,4.245c0.902-0.144,1.695-0.297,2.379-0.461
		c0.355-0.492,0.704-1.118,1.046-1.877l0.923,0.338c-1.066,2.291-2.417,4.252-4.051,5.887c0.854-0.109,1.877-0.314,3.066-0.615
		c-0.082-0.268-0.243-0.629-0.482-1.088l0.842-0.358C101.768,413.082,102.108,413.964,102.342,415.01z M101.645,420.957h-3.271
		v3.486h-1.025v-8.449h1.025v3.988h2.266v-3.506h1.006V420.957z"/>
	<path fill="#4A80A8" d="M114.623,417.973l-0.984,0.544c-0.109-0.424-0.25-0.823-0.42-1.2c-2.018,0.615-3.866,1.05-5.548,1.303
		l-0.421-0.964c1.6-1.388,2.923-2.956,3.969-4.706c-1.661,0.225-2.772,0.358-3.332,0.399l-0.257-0.964
		c1.47-1.62,2.639-3.783,3.507-6.49l1.035,0.379c-0.854,2.372-1.89,4.33-3.106,5.875c0.369-0.006,1.319-0.129,2.851-0.369
		c0.328-0.574,0.77-1.428,1.322-2.563l1.047,0.399c-1.785,3.521-3.497,6.073-5.138,7.659c1.23-0.205,2.461-0.512,3.691-0.922
		c-0.171-0.473-0.38-0.934-0.626-1.385l0.902-0.523C113.778,415.752,114.281,416.928,114.623,417.973z M109.609,419.439
		c-0.295,1.873-0.742,3.541-1.344,5.004l-0.994-0.554c0.471-1.005,0.905-2.595,1.302-4.769L109.609,419.439z M112.131,423.828
		l-1.076,0.215c-0.041-1.736-0.188-3.291-0.441-4.665l1.047-0.257C111.939,420.934,112.097,422.502,112.131,423.828z
		 M114.859,422.506l-1.016,0.522c-0.212-1.183-0.533-2.413-0.964-3.691l0.923-0.399
		C114.165,419.771,114.517,420.961,114.859,422.506z M125.584,415.492l-0.666,0.943c-1.9-0.656-3.562-1.545-4.983-2.666
		c-1.401,1.031-2.905,1.893-4.512,2.584l-0.759-0.902c1.791-0.684,3.277-1.467,4.461-2.349c-0.999-1.094-1.744-2.103-2.236-3.024
		c-0.417,0.553-0.98,1.209-1.691,1.969l-0.779-0.667c1.709-1.805,2.871-3.585,3.486-5.343l0.984,0.257
		c-0.137,0.438-0.376,0.991-0.718,1.661h5.804v1.025c-1.005,1.593-2.078,2.96-3.22,4.102
		C121.965,413.998,123.574,414.801,125.584,415.492z M123.574,424.393h-1.097v-1.066h-5.517v1.066h-1.076v-7.476h7.689V424.393z
		 M122.437,422.301v-4.328h-5.455v4.328H122.437z M122.652,408.98h-5.025l-0.082,0.195c0.649,1.236,1.453,2.3,2.41,3.188
		C120.796,411.564,121.694,410.437,122.652,408.98z"/>
	<path fill="#4A80A8" d="M148.162,413.605h-1.066v-3.59h-7.353v4.153h-1.056v-4.153h-6.86v3.59h-1.097v-4.584h7.957v-1.549h-7.198
		v-0.984h15.986v0.984h-7.732v1.549h8.419V413.605z M148.798,421.859c-0.096,0.854-0.313,1.463-0.651,1.825
		c-0.338,0.362-0.937,0.569-1.794,0.62c-0.858,0.051-1.824,0.077-2.896,0.077c-0.931,0-1.809-0.021-2.636-0.062
		s-1.384-0.198-1.671-0.472s-0.432-0.708-0.432-1.302v-1.549h-6.705v-6.009h14.529v6.009h-6.717v1.631
		c0,0.178,0.063,0.311,0.186,0.399s0.568,0.159,1.338,0.21c0.769,0.051,1.625,0.077,2.568,0.077c1.634,0,2.594-0.039,2.881-0.118
		c0.287-0.078,0.498-0.289,0.631-0.631c0.134-0.342,0.217-0.769,0.252-1.281L148.798,421.859z M137.826,413.523
		c-1.682,0.438-3.261,0.7-4.737,0.789l-0.338-0.964c1.559-0.075,3.134-0.29,4.727-0.646L137.826,413.523z M137.826,411.38
		l-0.349,0.902c-1.162-0.287-2.69-0.506-4.584-0.656l0.462-0.902C135.105,410.874,136.596,411.093,137.826,411.38z M138.718,417.491
		v-1.518h-5.608v1.518H138.718z M138.718,420.004v-1.569h-5.608v1.569H138.718z M145.435,417.491v-1.518h-5.609v1.518H145.435z
		 M145.435,420.004v-1.569h-5.609v1.569H145.435z M146.06,413.543l-0.481,0.883c-1.47-0.391-3.121-0.664-4.952-0.82l0.461-0.842
		C143.24,412.949,144.897,413.209,146.06,413.543z M145.917,411.646c-1.737,0.308-3.333,0.513-4.789,0.615l-0.318-0.861
		c1.449-0.109,3.025-0.328,4.728-0.656L145.917,411.646z"/>
	<path fill="#4A80A8" d="M160.536,409.277h-7.105v-1.056h3.106c-0.212-0.766-0.481-1.442-0.81-2.03l1.004-0.297
		c0.35,0.629,0.67,1.404,0.965,2.327h2.84V409.277z M160.044,412.323h-6.132v-1.056h6.132V412.323z M160.044,415.348h-6.132v-1.035
		h6.132V415.348z M159.818,423.849h-1.066v-1.087h-3.486v1.65h-1.118v-6.962h5.671V423.849z M158.752,421.664v-3.147h-3.486v3.147
		H158.752z M171.62,412.785h-4.891v3.404h3.691v8.223h-1.087v-1.568h-6.173v1.568h-1.117v-8.223h3.588v-3.404h-4.594v-1.077h4.594
		v-3.394c-1.244,0.129-2.566,0.205-3.968,0.225l-0.399-1.045c3.855-0.041,6.992-0.503,9.412-1.385l0.544,0.984
		c-1.497,0.479-2.994,0.827-4.491,1.046v3.568h4.891V412.785z M169.334,421.818v-4.584h-6.173v4.584H169.334z"/>
	<path fill="#4A80A8" d="M185.585,411.738c0.342,0,0.627,0.117,0.856,0.35c0.229,0.232,0.344,0.512,0.344,0.84
		s-0.115,0.607-0.344,0.836c-0.229,0.229-0.515,0.344-0.856,0.344c-0.328,0-0.61-0.113-0.846-0.338
		c-0.236-0.227-0.354-0.506-0.354-0.842c0-0.334,0.118-0.616,0.354-0.846C184.975,411.854,185.257,411.738,185.585,411.738z
		 M185.585,421.183c0.342,0,0.627,0.114,0.856,0.343c0.229,0.23,0.344,0.516,0.344,0.857c0,0.328-0.113,0.609-0.339,0.846
		s-0.513,0.354-0.861,0.354c-0.335,0-0.619-0.116-0.851-0.349c-0.233-0.232-0.35-0.517-0.35-0.851c0-0.35,0.118-0.637,0.354-0.861
		C184.975,421.295,185.257,421.183,185.585,421.183z"/>
	<path fill="#4A80A8" d="M208.521,423.582c-1.661,0-2.955-0.674-3.881-2.02c-0.927-1.348-1.39-3.299-1.39-5.855
		c0-2.81,0.482-4.93,1.445-6.363c0.965-1.432,2.349-2.147,4.153-2.147c3.486,0,5.229,2.71,5.229,8.132
		c0,2.68-0.487,4.725-1.461,6.137C211.643,422.877,210.277,423.582,208.521,423.582z M208.767,408.621
		c-2.516,0-3.773,2.332-3.773,6.994c0,4.354,1.237,6.531,3.712,6.531c1.169,0,2.066-0.567,2.691-1.702
		c0.626-1.135,0.938-2.786,0.938-4.952c0-2.311-0.282-4.033-0.846-5.168C210.925,409.189,210.018,408.621,208.767,408.621z"/>
	<path fill="#4A80A8" d="M227.334,423.049v-1.631c0.991,0.486,1.965,0.729,2.922,0.729c1.58,0,2.807-0.593,3.682-1.779
		c0.875-1.186,1.313-2.879,1.313-5.08h-0.062c-0.759,1.408-2.055,2.111-3.886,2.111c-1.436,0-2.606-0.459-3.513-1.379
		c-0.905-0.919-1.358-2.104-1.358-3.553c0-1.565,0.504-2.836,1.513-3.809c1.008-0.975,2.288-1.462,3.84-1.462
		c1.634,0,2.907,0.61,3.819,1.831c0.913,1.219,1.369,3.02,1.369,5.398c0,2.926-0.599,5.184-1.795,6.771
		c-1.196,1.59-2.867,2.385-5.014,2.385C229.139,423.582,228.195,423.404,227.334,423.049z M231.62,408.621
		c-0.978,0-1.796,0.344-2.456,1.031c-0.659,0.688-0.989,1.55-0.989,2.589c0,1.128,0.324,2.032,0.974,2.712
		c0.649,0.681,1.508,1.021,2.574,1.021c0.943,0,1.739-0.314,2.389-0.943s0.975-1.378,0.975-2.245c0-1.244-0.325-2.25-0.975-3.016
		S232.632,408.621,231.62,408.621z"/>
	<path fill="#4A80A8" d="M250.537,423.326v-1.467h3.845v-12.664l-3.988,1.148v-1.589l5.67-1.682v14.786h3.846v1.467H250.537z"/>
	<path fill="#4A80A8" d="M273.637,423.326v-1.467h3.845v-12.664l-3.988,1.148v-1.589l5.67-1.682v14.786h3.846v1.467H273.637z"/>
	<path fill="#4A80A8" d="M299.465,415.03l0.021-0.062c-2.044-0.909-3.065-2.205-3.065-3.887c0-1.127,0.454-2.057,1.363-2.789
		c0.909-0.73,2.082-1.097,3.518-1.097c1.313,0,2.385,0.339,3.219,1.015c0.834,0.678,1.252,1.549,1.252,2.615
		c0,1.784-1.057,3.158-3.169,4.122v0.062c1.189,0.39,2.105,0.957,2.748,1.702s0.964,1.606,0.964,2.584
		c0,1.285-0.49,2.321-1.472,3.106c-0.98,0.787-2.36,1.18-4.138,1.18c-1.429,0-2.601-0.387-3.517-1.158
		c-0.916-0.773-1.374-1.768-1.374-2.984C295.814,417.43,297.031,415.96,299.465,415.03z M300.941,415.83
		c-2.256,0.848-3.384,2.03-3.384,3.548c0,0.793,0.324,1.452,0.974,1.979c0.649,0.525,1.515,0.789,2.595,0.789
		c1.039,0,1.873-0.264,2.502-0.789c0.629-0.527,0.943-1.173,0.943-1.938C304.571,417.813,303.361,416.616,300.941,415.83z
		 M301.085,414.23c1.962-0.752,2.942-1.809,2.942-3.168c0-0.752-0.26-1.348-0.779-1.785s-1.22-0.656-2.102-0.656
		c-0.841,0-1.549,0.23-2.123,0.693c-0.574,0.461-0.861,1.037-0.861,1.727C298.162,412.402,299.137,413.465,301.085,414.23z"/>
	<path fill="#4A80A8" d="M328.594,407.617v1.641c-0.902-0.424-1.805-0.637-2.707-0.637c-1.552,0-2.794,0.646-3.728,1.938
		c-0.933,1.292-1.399,3.008-1.399,5.147h0.041c0.868-1.545,2.215-2.317,4.04-2.317c1.442,0,2.596,0.451,3.461,1.354
		c0.864,0.902,1.297,2.075,1.297,3.517c0,1.566-0.496,2.844-1.487,3.836c-0.991,0.99-2.245,1.486-3.763,1.486
		c-1.641,0-2.939-0.633-3.896-1.896c-0.957-1.266-1.436-3.049-1.436-5.354c0-2.803,0.629-5.025,1.887-6.67
		c1.258-1.644,2.905-2.466,4.942-2.466C326.851,407.196,327.767,407.336,328.594,407.617z M324.42,414.825
		c-1.025,0-1.874,0.335-2.548,1.005c-0.673,0.67-1.01,1.439-1.01,2.307c0,1.066,0.33,2.002,0.989,2.805
		c0.66,0.804,1.523,1.205,2.59,1.205c1.031,0,1.862-0.342,2.491-1.025s0.943-1.559,0.943-2.625c0-1.135-0.306-2.03-0.918-2.687
		C326.347,415.153,325.5,414.825,324.42,414.825z"/>
	<path fill="#4A80A8" d="M342.731,422.946v-1.805c1.21,0.67,2.372,1.005,3.486,1.005c1.258,0,2.261-0.328,3.01-0.984
		c0.748-0.656,1.122-1.518,1.122-2.584c0-1.06-0.384-1.885-1.153-2.477c-0.769-0.591-1.875-0.887-3.317-0.887
		c-0.465,0-0.953,0.018-1.466,0.051l-1.159,0.082v-7.895h8.061v1.445h-6.42v4.871c0.432-0.027,0.947-0.041,1.549-0.041
		c1.777,0,3.16,0.426,4.147,1.275c0.988,0.852,1.481,2.009,1.481,3.472c0,1.49-0.52,2.714-1.559,3.671s-2.484,1.436-4.337,1.436
		C344.755,423.582,343.606,423.37,342.731,422.946z"/>
	<path fill="#4A80A8" d="M365.935,423.049v-1.631c0.991,0.486,1.965,0.729,2.922,0.729c1.58,0,2.807-0.593,3.682-1.779
		c0.875-1.186,1.313-2.879,1.313-5.08h-0.062c-0.759,1.408-2.055,2.111-3.886,2.111c-1.436,0-2.606-0.459-3.513-1.379
		c-0.905-0.919-1.358-2.104-1.358-3.553c0-1.565,0.504-2.836,1.513-3.809c1.008-0.975,2.288-1.462,3.84-1.462
		c1.634,0,2.907,0.61,3.819,1.831c0.913,1.219,1.369,3.02,1.369,5.398c0,2.926-0.599,5.184-1.795,6.771
		c-1.196,1.59-2.867,2.385-5.014,2.385C367.739,423.582,366.796,423.404,365.935,423.049z M370.221,408.621
		c-0.978,0-1.796,0.344-2.456,1.031c-0.659,0.688-0.989,1.55-0.989,2.589c0,1.128,0.324,2.032,0.974,2.712
		c0.649,0.681,1.508,1.021,2.574,1.021c0.943,0,1.739-0.314,2.389-0.943s0.975-1.378,0.975-2.245c0-1.244-0.325-2.25-0.975-3.016
		S371.232,408.621,370.221,408.621z"/>
	<path fill="#4A80A8" d="M390.315,423.326l6.357-14.407h-8.664v-1.466h10.726v0.522l-6.675,15.351H390.315z"/>
	<path fill="#4A80A8" d="M419.989,419.061v4.266h-1.682v-4.266h-7.937v-1.107l7.557-10.5h2.062v10.223h2.204v1.385H419.989z
		 M418.287,409.083c-0.424,0.916-2.434,3.78-6.029,8.593h6.05v-7.772c0-0.308,0.007-0.581,0.021-0.82H418.287z"/>
</g>
<g>
	<path fill="#4A80A8" d="M101.962,550.525h-1.066v-3.59h-7.353v4.154h-1.056v-4.154h-6.86v3.59H84.53v-4.584h7.957v-1.549h-7.198
		v-0.984h15.986v0.984h-7.732v1.549h8.419V550.525z M102.598,558.779c-0.096,0.855-0.313,1.463-0.651,1.826
		c-0.338,0.361-0.937,0.568-1.794,0.619c-0.858,0.051-1.824,0.078-2.896,0.078c-0.931,0-1.809-0.021-2.636-0.063
		s-1.384-0.199-1.671-0.471c-0.287-0.275-0.432-0.709-0.432-1.303v-1.549h-6.705v-6.008h14.529v6.008h-6.717v1.631
		c0,0.178,0.063,0.311,0.186,0.4c0.123,0.088,0.568,0.158,1.338,0.209c0.769,0.051,1.625,0.078,2.568,0.078
		c1.634,0,2.594-0.041,2.881-0.119s0.498-0.289,0.631-0.631c0.134-0.342,0.217-0.768,0.252-1.281L102.598,558.779z M91.626,550.443
		c-1.682,0.438-3.261,0.701-4.737,0.789l-0.338-0.963c1.559-0.076,3.134-0.291,4.727-0.646L91.626,550.443z M91.626,548.301
		l-0.349,0.902c-1.162-0.287-2.69-0.506-4.584-0.656l0.462-0.902C88.905,547.795,90.396,548.014,91.626,548.301z M92.518,554.412
		v-1.518h-5.608v1.518H92.518z M92.518,556.924v-1.568h-5.608v1.568H92.518z M99.234,554.412v-1.518h-5.609v1.518H99.234z
		 M99.234,556.924v-1.568h-5.609v1.568H99.234z M99.859,550.463l-0.481,0.883c-1.47-0.391-3.121-0.664-4.952-0.82l0.461-0.842
		C97.04,549.869,98.697,550.129,99.859,550.463z M99.717,548.566c-1.737,0.309-3.333,0.514-4.789,0.615l-0.318-0.861
		c1.449-0.109,3.025-0.328,4.728-0.656L99.717,548.566z"/>
	<path fill="#4A80A8" d="M125.441,552.668h-8.46v7.014c0,0.479-0.159,0.873-0.477,1.184c-0.318,0.313-0.74,0.467-1.267,0.467
		c-0.834,0-1.74-0.014-2.717-0.041l-0.421-1.127c1.593,0.041,2.68,0.061,3.261,0.061c0.137,0,0.255-0.061,0.354-0.184
		c0.1-0.123,0.148-0.25,0.148-0.379v-6.994h-8.633v-1.117h8.633v-2.729c2.105-1.236,4.01-2.652,5.712-4.244h-12.028v-1.129h13.607
		v1.129c-2.01,1.893-4.067,3.51-6.173,4.85v2.123h8.46V552.668z"/>
	<path fill="#4A80A8" d="M135.601,543.338c-0.198,0.635-0.492,1.418-0.881,2.348l-0.585,1.354v14.365h-1.066v-12.283
		c-0.902,1.422-1.688,2.512-2.358,3.27l-0.564-1.004c1.935-2.338,3.411-5.148,4.43-8.43L135.601,543.338z M148.521,546.475h-12.939
		v-1.076h5.885c-0.109-0.492-0.424-1.18-0.943-2.061l1.025-0.4c0.444,0.766,0.793,1.586,1.047,2.461h5.926V546.475z
		 M147.536,549.541h-11.135v-1.035h11.135V549.541z M147.536,552.709h-11.135v-1.035h11.135V552.709z M147.198,561.426h-1.046
		v-0.996h-8.429v0.996h-1.087v-6.574h10.562V561.426z M146.152,559.363v-3.465h-8.429v3.465H146.152z"/>
	<path fill="#4A80A8" d="M162.104,545.758h-5.957c-0.561,0.744-1.234,1.533-2.02,2.367l-0.883-0.625
		c1.559-1.578,2.643-3.135,3.251-4.666l1.015,0.34c-0.178,0.553-0.438,1.086-0.779,1.6h5.373V545.758z M162.208,556.482
		l-0.667,0.861c-0.916-1.326-1.911-2.516-2.983-3.568v7.537h-1.047v-7.322c-0.971,1.928-2.105,3.58-3.404,4.953l-0.738-0.799
		c1.627-1.689,2.994-3.822,4.102-6.398h-3.763v-0.996h3.804v-2.266h1.047v2.266h3.465v0.996h-3.465v0.748
		C160.108,553.881,161.325,555.211,162.208,556.482z M160.157,548.002l-1.016,0.463c-0.294-0.643-0.69-1.266-1.189-1.867
		l0.882-0.482C159.333,546.588,159.773,547.217,160.157,548.002z M171.323,545.758h-6.818c-0.835,1.004-1.6,1.807-2.297,2.408
		l-0.883-0.625c1.873-1.701,3.121-3.277,3.743-4.727l1.025,0.379c-0.383,0.746-0.67,1.271-0.861,1.58h6.091V545.758z M170.8,561.291
		h-1.086v-1.322h-5.63v1.322h-1.097v-12.15h7.813V561.291z M169.714,552.309v-2.143h-5.63v2.143H169.714z M169.714,555.621v-2.287
		h-5.63v2.287H169.714z M169.714,558.984v-2.348h-5.63v2.348H169.714z M168.452,547.9l-0.943,0.502
		c-0.328-0.689-0.735-1.318-1.221-1.887l0.943-0.461C167.594,546.52,168.001,547.135,168.452,547.9z"/>
	<path fill="#4A80A8" d="M185.585,548.658c0.342,0,0.627,0.117,0.856,0.35c0.229,0.232,0.344,0.512,0.344,0.84
		s-0.115,0.607-0.344,0.836c-0.229,0.229-0.515,0.344-0.856,0.344c-0.328,0-0.61-0.113-0.846-0.338
		c-0.236-0.227-0.354-0.506-0.354-0.842c0-0.334,0.118-0.617,0.354-0.846C184.975,548.773,185.257,548.658,185.585,548.658z
		 M185.585,558.104c0.342,0,0.627,0.113,0.856,0.342c0.229,0.23,0.344,0.516,0.344,0.857c0,0.328-0.113,0.609-0.339,0.846
		s-0.513,0.354-0.861,0.354c-0.335,0-0.619-0.117-0.851-0.348c-0.233-0.232-0.35-0.518-0.35-0.852c0-0.35,0.118-0.637,0.354-0.861
		C184.975,558.215,185.257,558.104,185.585,558.104z"/>
	<path fill="#4A80A8" d="M212.13,560.246v-1.979h-0.041c-0.943,1.49-2.42,2.234-4.43,2.234c-1.524,0-2.757-0.506-3.696-1.518
		c-0.94-1.012-1.41-2.389-1.41-4.133c0-1.893,0.518-3.398,1.554-4.516c1.035-1.119,2.4-1.678,4.097-1.678
		c1.783,0,3.079,0.623,3.886,1.867h0.041v-7.055h1.702v16.775H212.13z M212.13,553.416c0-0.922-0.353-1.709-1.056-2.357
		c-0.705-0.65-1.594-0.975-2.666-0.975c-1.266,0-2.271,0.414-3.016,1.24c-0.745,0.828-1.117,1.967-1.117,3.416
		c0,1.34,0.359,2.395,1.076,3.168c0.719,0.771,1.654,1.158,2.811,1.158c1.175,0,2.131-0.375,2.865-1.127
		c0.735-0.752,1.103-1.68,1.103-2.779V553.416z"/>
	<path fill="#4A80A8" d="M235.947,544.957c-0.417-0.197-0.858-0.297-1.322-0.297c-1.443,0-2.164,0.826-2.164,2.48v1.764h2.994v1.426
		h-2.994v9.916h-1.702v-9.916h-2.185v-1.426h2.185v-1.846c0-1.189,0.358-2.127,1.077-2.814c0.717-0.688,1.616-1.029,2.696-1.029
		c0.615,0,1.087,0.07,1.415,0.215V544.957z"/>
	<path fill="#4A80A8" d="M259.048,544.957c-0.417-0.197-0.858-0.297-1.322-0.297c-1.443,0-2.164,0.826-2.164,2.48v1.764h2.994v1.426
		h-2.994v9.916h-1.702v-9.916h-2.185v-1.426h2.185v-1.846c0-1.189,0.358-2.127,1.077-2.814c0.717-0.688,1.616-1.029,2.696-1.029
		c0.615,0,1.087,0.07,1.415,0.215V544.957z"/>
	<path fill="#4A80A8" d="M282.147,544.957c-0.417-0.197-0.858-0.297-1.322-0.297c-1.443,0-2.164,0.826-2.164,2.48v1.764h2.994v1.426
		h-2.994v9.916h-1.702v-9.916h-2.185v-1.426h2.185v-1.846c0-1.189,0.358-2.127,1.077-2.814c0.717-0.688,1.616-1.029,2.696-1.029
		c0.615,0,1.087,0.07,1.415,0.215V544.957z"/>
	<path fill="#4A80A8" d="M297.435,559.805V558c0.403,0.301,0.918,0.555,1.543,0.76c0.626,0.205,1.167,0.307,1.626,0.307
		c1.723,0,2.584-0.561,2.584-1.682c0-0.438-0.192-0.809-0.574-1.113c-0.384-0.303-1.095-0.66-2.133-1.07
		c-1.107-0.418-1.889-0.873-2.344-1.369c-0.454-0.496-0.682-1.137-0.682-1.922c0-0.938,0.403-1.713,1.21-2.328
		s1.832-0.924,3.076-0.924c0.991,0,1.873,0.176,2.646,0.523v1.723c-0.834-0.547-1.768-0.82-2.799-0.82
		c-0.712,0-1.287,0.154-1.729,0.461c-0.44,0.309-0.661,0.709-0.661,1.201c0,0.465,0.148,0.838,0.446,1.121
		c0.297,0.285,0.985,0.639,2.066,1.063c1.25,0.484,2.097,0.984,2.537,1.496c0.441,0.514,0.662,1.119,0.662,1.816
		c0,0.957-0.398,1.738-1.195,2.348c-0.796,0.607-1.875,0.912-3.234,0.912C299.414,560.502,298.398,560.27,297.435,559.805z"/>
	<path fill="#4A80A8" d="M326.205,555.58h-0.041c-0.574,1.764-1.635,2.646-3.18,2.646c-1.012,0-1.826-0.369-2.445-1.107
		c-0.618-0.738-0.928-1.748-0.928-3.025c0-1.668,0.426-3.055,1.276-4.158c0.852-1.104,1.971-1.656,3.358-1.656
		c0.52,0,0.993,0.133,1.42,0.4c0.428,0.266,0.695,0.615,0.805,1.045h0.063c0-0.082,0.017-0.293,0.051-0.635l0.062-0.666h1.343
		c-0.007,0.115-0.027,0.334-0.061,0.656c-0.328,3.117-0.492,4.982-0.492,5.598c0,1.545,0.464,2.318,1.395,2.318
		c0.792,0,1.466-0.436,2.02-1.303c0.554-0.869,0.83-1.996,0.83-3.385c0-2.016-0.644-3.68-1.933-4.988
		c-1.288-1.309-3.095-1.963-5.419-1.963c-2.188,0-4.008,0.77-5.46,2.313c-1.453,1.541-2.179,3.471-2.179,5.787
		c0,2.283,0.689,4.127,2.07,5.527s3.23,2.102,5.548,2.102c1.812,0,3.366-0.301,4.665-0.902v1.324
		c-1.299,0.545-2.895,0.82-4.788,0.82c-2.659,0-4.811-0.814-6.455-2.441c-1.644-1.627-2.466-3.752-2.466-6.377
		c0-2.688,0.859-4.922,2.579-6.701c1.719-1.781,3.911-2.672,6.577-2.672c2.502,0,4.575,0.744,6.22,2.23
		c1.644,1.486,2.466,3.402,2.466,5.748c0,1.818-0.435,3.291-1.303,4.418c-0.868,1.129-1.91,1.693-3.127,1.693
		C327.083,558.227,326.259,557.344,326.205,555.58z M324.205,549.51c-0.937,0-1.688,0.439-2.256,1.318
		c-0.567,0.877-0.852,1.967-0.852,3.266c0,0.881,0.193,1.582,0.58,2.102c0.386,0.52,0.907,0.779,1.563,0.779
		c0.93,0,1.666-0.471,2.21-1.41c0.543-0.939,0.814-2.15,0.814-3.635c0-0.779-0.183-1.377-0.548-1.795
		C325.352,549.719,324.848,549.51,324.205,549.51z"/>
	<path fill="#4A80A8" d="M352.452,559.344c0,2.023-0.552,3.564-1.656,4.625c-1.104,1.059-2.716,1.588-4.835,1.588
		c-1.414,0-2.73-0.266-3.947-0.799v-1.682c1.395,0.703,2.71,1.057,3.947,1.057c1.593,0,2.786-0.398,3.579-1.189
		c0.793-0.795,1.189-1.908,1.189-3.344v-1.303h-0.041c-0.984,1.471-2.454,2.205-4.409,2.205c-1.524,0-2.76-0.508-3.707-1.523
		c-0.946-1.014-1.42-2.377-1.42-4.086c0-1.865,0.508-3.371,1.522-4.516c1.016-1.146,2.397-1.719,4.147-1.719
		c1.777,0,3.066,0.623,3.866,1.867h0.041v-1.621h1.723V559.344z M350.75,553.396c0-0.896-0.357-1.672-1.071-2.328
		c-0.715-0.656-1.581-0.984-2.6-0.984c-1.299,0-2.321,0.418-3.065,1.252c-0.746,0.834-1.118,1.984-1.118,3.455
		c0,1.277,0.355,2.311,1.066,3.096c0.711,0.787,1.644,1.18,2.8,1.18c1.168,0,2.125-0.373,2.871-1.117
		c0.744-0.746,1.117-1.676,1.117-2.789V553.396z"/>
	<path fill="#4A80A8" d="M377.501,560.246v-6.572c0-1.211-0.236-2.115-0.707-2.713c-0.473-0.598-1.228-0.896-2.267-0.896
		c-0.889,0-1.645,0.355-2.267,1.066s-0.933,1.578-0.933,2.604v6.512h-1.682v-6.758c0-2.283-0.984-3.424-2.953-3.424
		c-0.923,0-1.69,0.344-2.302,1.035c-0.612,0.689-0.918,1.576-0.918,2.656v6.49h-1.702v-11.342h1.702v1.805h0.041
		c0.875-1.387,2.197-2.08,3.969-2.08c1.735,0,2.897,0.799,3.486,2.398c0.881-1.6,2.262-2.398,4.143-2.398
		c2.713,0,4.07,1.633,4.07,4.9v6.717H377.501z"/>
	<path fill="#4A80A8" d="M396.232,558.4h-0.041c-0.854,1.4-2.198,2.102-4.03,2.102c-1.203,0-2.154-0.299-2.855-0.896
		c-0.7-0.6-1.051-1.387-1.051-2.363c0-1.039,0.34-1.867,1.021-2.482c0.68-0.615,1.646-1.006,2.896-1.174s2.604-0.334,4.061-0.498
		c0-2.002-0.923-3.004-2.769-3.004c-1.463,0-2.799,0.461-4.01,1.385v-1.744c0.432-0.279,1.063-0.527,1.897-0.742
		c0.834-0.217,1.6-0.324,2.297-0.324c1.395,0,2.457,0.357,3.188,1.072s1.098,1.762,1.098,3.143v7.373h-1.702V558.4z
		 M396.232,554.432c-2.57,0.295-4.252,0.574-5.045,0.842c-0.793,0.266-1.189,0.881-1.189,1.846c0,0.566,0.229,1.033,0.687,1.398
		s1.091,0.549,1.897,0.549c1.046,0,1.916-0.33,2.609-0.99c0.694-0.658,1.041-1.49,1.041-2.496V554.432z"/>
	<path fill="#4A80A8" d="M417.405,558.82h2.851v1.426h-7.383v-1.426h2.83v-8.49h-2.83v-1.426h4.532V558.82z M416.544,546.033
		c-0.314,0-0.583-0.111-0.805-0.332c-0.223-0.223-0.333-0.49-0.333-0.805s0.11-0.58,0.333-0.795c0.222-0.217,0.49-0.324,0.805-0.324
		c0.321,0,0.595,0.107,0.82,0.318c0.226,0.213,0.339,0.479,0.339,0.801c0,0.314-0.117,0.582-0.35,0.805
		C417.121,545.922,416.852,546.033,416.544,546.033z"/>
	<path fill="#4A80A8" d="M440.505,558.82h2.851v1.426h-7.383v-1.426h2.83v-13.924h-2.83v-1.426h4.532V558.82z"/>
	<path fill="#4A80A8" d="M453.494,559.293c0-0.336,0.119-0.621,0.359-0.857c0.238-0.236,0.516-0.354,0.83-0.354
		c0.328,0,0.608,0.117,0.841,0.354s0.349,0.521,0.349,0.857c0,0.328-0.118,0.609-0.354,0.846c-0.236,0.234-0.515,0.354-0.836,0.354
		c-0.314,0-0.592-0.115-0.83-0.344C453.613,559.92,453.494,559.635,453.494,559.293z"/>
	<path fill="#4A80A8" d="M474.327,559.703c-0.95,0.533-2.078,0.799-3.383,0.799c-1.744,0-3.157-0.529-4.24-1.59
		c-1.084-1.059-1.625-2.42-1.625-4.08c0-1.846,0.586-3.336,1.758-4.471c1.173-1.135,2.723-1.703,4.65-1.703
		c0.991,0,1.951,0.189,2.881,0.564v1.744c-0.937-0.588-1.924-0.883-2.963-0.883c-1.354,0-2.456,0.422-3.307,1.266
		c-0.852,0.846-1.277,1.947-1.277,3.309c0,1.34,0.407,2.408,1.221,3.209c0.813,0.799,1.887,1.199,3.22,1.199
		c1.094,0,2.115-0.328,3.065-0.984V559.703z"/>
	<path fill="#4A80A8" d="M492.722,560.502c-1.825,0-3.279-0.535-4.363-1.605c-1.083-1.068-1.625-2.469-1.625-4.197
		c0-1.914,0.569-3.4,1.707-4.457c1.139-1.055,2.647-1.584,4.527-1.584c1.846,0,3.284,0.523,4.317,1.57
		c1.031,1.045,1.548,2.48,1.548,4.307c0,1.805-0.552,3.25-1.656,4.336C496.073,559.959,494.588,560.502,492.722,560.502z
		 M492.845,550.084c-1.319,0-2.377,0.404-3.174,1.211c-0.796,0.807-1.194,1.92-1.194,3.342c0,1.367,0.393,2.447,1.18,3.24
		c0.785,0.793,1.849,1.189,3.188,1.189c1.367,0,2.416-0.389,3.147-1.164s1.098-1.877,1.098-3.307c0-1.449-0.371-2.563-1.112-3.342
		C495.235,550.475,494.191,550.084,492.845,550.084z"/>
	<path fill="#4A80A8" d="M523.02,560.246v-6.572c0-1.211-0.236-2.115-0.707-2.713c-0.473-0.598-1.228-0.896-2.267-0.896
		c-0.889,0-1.645,0.355-2.267,1.066s-0.933,1.578-0.933,2.604v6.512h-1.682v-6.758c0-2.283-0.984-3.424-2.953-3.424
		c-0.923,0-1.69,0.344-2.302,1.035c-0.612,0.689-0.918,1.576-0.918,2.656v6.49h-1.702v-11.342h1.702v1.805h0.041
		c0.875-1.387,2.197-2.08,3.969-2.08c1.735,0,2.897,0.799,3.486,2.398c0.881-1.6,2.262-2.398,4.143-2.398
		c2.713,0,4.07,1.633,4.07,4.9v6.717H523.02z"/>
</g>
<g>
	<path fill="#4A80A8" d="M171.601,612.115h-8.531v1.6h7.27v1.006h-15.668v-1.006h7.311v-1.6h-8.613v-1.004h8.613v-0.965h1.088v0.965
		h8.531V612.115z M171.642,621.775h-12.787c-0.041,0.424-0.106,0.957-0.195,1.6h3.641c0,0.936-0.05,1.809-0.148,2.619
		c-0.1,0.811-0.205,1.336-0.318,1.578c-0.112,0.244-0.31,0.447-0.59,0.611s-0.83,0.246-1.65,0.246c-0.314,0-0.646-0.014-0.994-0.041
		l-0.359-1.047c0.328,0.027,0.677,0.041,1.046,0.041c0.711,0,1.151-0.059,1.323-0.18c0.17-0.119,0.302-0.377,0.395-0.773
		c0.092-0.396,0.139-1.08,0.139-2.051h-2.748c-0.582,1.832-1.969,3.221-4.164,4.164l-0.728-0.801
		c1.839-0.834,3.104-1.955,3.794-3.363h-3.384v-1.004h3.661c0.082-0.391,0.149-0.924,0.205-1.6h-4.369v-1.025h5.906
		c-0.307-0.574-0.602-1.043-0.881-1.406h-3.087v-3.342h14.427v3.342h-3.127c-0.267,0.486-0.561,0.955-0.882,1.406h5.876V621.775z
		 M168.678,618.289v-1.242h-12.264v1.242H168.678z M165.366,619.344h-5.568c0.301,0.514,0.554,0.982,0.759,1.406h3.855
		C164.781,620.313,165.099,619.844,165.366,619.344z M170.236,628.449h-1.097v-0.984h-4.389v1.006h-1.066v-5.414h6.552V628.449z
		 M169.14,626.42v-2.338h-4.389v2.338H169.14z"/>
	<path fill="#4A80A8" d="M196.799,625.824c-0.553,1.84-1.336,2.76-2.348,2.76c-0.813,0-1.853-0.773-3.117-2.318
		c-1.299,0.67-2.81,1.223-4.532,1.662l-0.604-0.943c2.029-0.514,3.554-1.061,4.572-1.641c-0.588-1.08-1.008-2.137-1.261-3.17h-5.097
		v1.764c1.354-0.164,2.472-0.33,3.354-0.502l0.021,0.965c-1.012,0.17-2.137,0.338-3.374,0.502v1.979c0,0.424-0.092,0.76-0.276,1.006
		s-0.39,0.41-0.615,0.492s-0.646,0.123-1.261,0.123c-0.473,0-1.022-0.012-1.651-0.031l-0.462-1.025
		c1.457,0.02,2.355,0.01,2.697-0.031s0.513-0.252,0.513-0.635v-1.744c-2.591,0.24-4.095,0.369-4.512,0.391l-0.358-0.965
		c2.187-0.137,3.811-0.27,4.87-0.4v-1.887h-4.532v-1.004h4.532v-1.24c-0.752,0.027-1.48,0.041-2.185,0.041
		c-0.492,0-0.933-0.008-1.322-0.021l-0.42-0.943c3.158,0.055,5.742-0.133,7.752-0.564l0.461,0.852
		c-0.991,0.246-2.068,0.418-3.23,0.514v1.363h4.83c-0.103-0.561-0.223-1.471-0.359-2.729h1.025c0.13,1.258,0.271,2.168,0.421,2.729
		h6.234v1.004h-5.958c0.164,0.814,0.52,1.695,1.066,2.646c0.766-0.438,1.508-1.088,2.226-1.949l0.841,0.586
		c-0.554,0.744-1.378,1.5-2.471,2.266c0.231,0.355,0.58,0.736,1.045,1.143s0.842,0.611,1.129,0.611c0.56,0,1.045-0.752,1.455-2.256
		L196.799,625.824z M196.799,617.848h-18.23v-0.984h8.551V615.5h-6.675v-0.965h6.675v-1.322h-7.588v-1.016h16.283v1.016h-7.607
		v1.322h6.705v0.965h-6.705v1.363h8.592V617.848z M185.735,611.172l-1.036,0.646c-0.526-0.506-1.056-0.896-1.589-1.17l0.923-0.656
		C184.505,610.219,185.072,610.611,185.735,611.172z M192.473,610.516c-0.555,0.582-1.136,1.021-1.744,1.322l-1.004-0.686
		c0.683-0.383,1.243-0.777,1.682-1.18L192.473,610.516z M195.395,620.072l-0.8,0.719c-0.684-0.65-1.49-1.23-2.42-1.744l0.759-0.697
		C193.87,618.85,194.69,619.424,195.395,620.072z"/>
	<path fill="#4A80A8" d="M221.896,613.838h-8.572v3.322h7.117v7.855c0,0.465-0.131,0.832-0.391,1.102s-0.579,0.426-0.958,0.467
		c-0.38,0.041-1.253,0.047-2.62,0.02l-0.564-1.127c0.492,0.027,0.984,0.041,1.477,0.041c0.924,0,1.482-0.051,1.677-0.148
		c0.195-0.1,0.292-0.27,0.292-0.508v-6.613h-6.029v10.273h-1.107v-10.273h-5.967v8.355h-1.139v-9.443h7.105v-3.322h-8.592v-1.098
		h8.838c-0.362-0.662-0.902-1.41-1.619-2.244l1.035-0.523c0.561,0.566,1.21,1.49,1.948,2.768h8.069V613.838z"/>
	<path fill="#4A80A8" d="M246.04,622.195h-7.393v6.295h-1.107v-6.295h-7.435v-8.357h7.435v-3.723h1.107v3.723h7.393V622.195z
		 M237.54,621.066v-6.111h-6.327v6.111H237.54z M244.912,621.066v-6.111h-6.265v6.111H244.912z"/>
	<path fill="#4A80A8" d="M271.096,628.49h-1.158v-1.025h-14.51v-13.986h1.158v12.859h6.092v-16.191h1.127v16.191h6.133v-12.859
		h1.158V628.49z"/>
	<path fill="#4A80A8" d="M297.515,627.988h-14.703c-0.623,0-1.146-0.199-1.569-0.6s-0.636-0.941-0.636-1.625v-14.109h-1.303v-1.066
		h17.791v1.066h-15.371v14.15c0,0.293,0.127,0.553,0.38,0.779c0.253,0.225,0.495,0.338,0.728,0.338h14.684V627.988z
		 M288.737,624.984h-5.506v-5.271h5.506V624.984z M287.641,623.959v-3.189h-3.292v3.189H287.641z M293.67,617.908h-8.542v-4.553
		h8.542V617.908z M292.583,616.863v-2.461h-6.348v2.461H292.583z M296.09,625.016h-5.425v-5.281h5.425V625.016z M295.034,623.979
		v-3.188h-3.271v3.188H295.034z"/>
	<path fill="#4A80A8" d="M308.872,610.146c-0.143,0.527-0.383,1.275-0.717,2.246l-0.492,1.426v14.652h-1.077v-12.264
		c-0.417,0.93-0.964,1.959-1.641,3.086l-0.687-0.922c1.407-2.379,2.61-5.199,3.609-8.461L308.872,610.146z M322.694,627.199
		l-0.276,1.025c-3.575,0.047-6.111-0.119-7.608-0.498s-2.67-1.074-3.518-2.086c-0.629,1.039-1.384,1.988-2.266,2.85l-0.718-0.748
		c0.978-0.977,1.746-1.979,2.308-3.004c-0.732-1.189-1.327-2.443-1.785-3.764l0.883-0.441c0.423,1.176,0.885,2.191,1.384,3.047
		c0.431-1.266,0.704-2.889,0.82-4.871h-2.687v-1.006c0.786-1.313,1.6-2.914,2.44-4.809h-2.42v-0.984h3.589v0.984
		c-0.943,1.996-1.74,3.592-2.389,4.789h2.543c-0.049,2.631-0.441,4.969-1.18,7.014c0.875,1.094,1.96,1.795,3.256,2.102
		C316.366,627.107,318.907,627.24,322.694,627.199z M322.571,624.195h-4.521v2.162h-1.046v-2.162h-3.825v-1.016h3.825v-1.908h-3.229
		v-0.984h3.229v-1.682h-2.502v-0.984h2.502v-1.896h-3.671v-1.004h3.671v-1.826h-2.604v-1.035h2.604v-1.744h1.046v1.744h3.179v2.861
		h1.251v1.004h-1.251v2.881h-3.179v1.682h4.204v0.984h-4.204v1.908h4.521V624.195z M320.192,614.721v-1.826h-2.143v1.826H320.192z
		 M320.192,617.621v-1.896h-2.143v1.896H320.192z"/>
	<path fill="#4A80A8" d="M347.996,618.268h-2.327v2.584h-5.332v5.928c0,0.588-0.147,1.004-0.44,1.25
		c-0.295,0.246-0.612,0.381-0.954,0.404c-0.342,0.025-0.93,0.037-1.764,0.037l-0.44-1.107c0.279,0.02,0.618,0.031,1.015,0.031
		c0.677,0,1.09-0.029,1.241-0.088c0.149-0.059,0.225-0.18,0.225-0.363v-6.092h-4.809v-1.004h4.809v-1.58h-6.552
		c-0.007,4.67-0.656,8.076-1.948,10.223l-0.943-0.666c1.189-2.084,1.784-4.898,1.784-8.439v-7.588h7.476
		c-0.158-0.416-0.397-0.857-0.719-1.322l1.025-0.461c0.438,0.73,0.742,1.326,0.913,1.783h7.454v1.078h-7.372v1.805h5.332v2.543
		h2.327V618.268z M339.219,617.223v-1.498h-4.809v-1.045h4.809v-1.805h-6.552v4.348H339.219z M337.938,625.537
		c-1.654,1.025-3.172,1.863-4.553,2.514l-0.543-0.924c1.482-0.689,2.973-1.535,4.471-2.533L337.938,625.537z M337.65,623.139
		L336.953,624c-1.169-0.787-2.239-1.361-3.209-1.723l0.666-0.842C335.572,621.867,336.652,622.434,337.65,623.139z M344.592,617.223
		v-1.498h-4.255v1.498H344.592z M344.592,619.848v-1.58h-4.255v1.58H344.592z M346.336,622.338
		c-1.177,0.678-2.492,1.252-3.948,1.723l-0.563-0.922c1.414-0.473,2.717-1.025,3.906-1.662L346.336,622.338z M347.012,627.322
		l-0.676,0.861c-1.348-1.012-2.845-1.914-4.492-2.707l0.564-0.883C344.11,625.395,345.645,626.303,347.012,627.322z"/>
	<path fill="#4A80A8" d="M362.296,625.959c-2.297,0.902-4.71,1.697-7.239,2.389l-0.298-1.107c0.492-0.117,0.865-0.223,1.118-0.318
		v-8.551h1.046v8.232c0.294-0.055,0.875-0.221,1.743-0.502v-9.301h-3.024v-5.967h6.008v5.967h-1.917v3.23h2.317v1.076h-2.317v4.615
		c0.848-0.268,1.702-0.596,2.563-0.984V625.959z M360.553,615.766v-3.875h-3.814v3.875H360.553z M373.216,619.17l-0.666,0.984
		c-1.791-0.676-3.388-1.473-4.789-2.389c-1.271,0.957-2.987,1.777-5.146,2.461l-0.719-1.016c2.058-0.588,3.705-1.289,4.943-2.102
		c-0.91-0.787-1.696-1.736-2.359-2.852c-0.704,0.596-1.271,1.023-1.701,1.283l-0.861-0.82c2.152-1.279,3.646-2.848,4.48-4.707
		l1.066,0.338c-0.232,0.547-0.513,1.074-0.841,1.58h5.312v0.984c-0.95,1.701-2.027,3.072-3.23,4.111
		C369.982,617.861,371.486,618.576,373.216,619.17z M371.709,628.471h-1.097v-0.965h-5.794v0.965h-1.107v-7.701h7.998V628.471z
		 M370.612,626.461v-4.625h-5.794v4.625H370.612z M370.571,612.936h-4.769c-0.041,0.068-0.123,0.172-0.246,0.313
		s-0.202,0.23-0.235,0.271c0.607,1.176,1.428,2.131,2.461,2.861C368.875,615.479,369.805,614.33,370.571,612.936z"/>
	<path fill="#4A80A8" d="M389.444,627.404h-8.921v-1.527h3.609v-12.49l-3.702,1.117v-1.65l5.414-1.691v14.715h3.6V627.404z"/>
	<path fill="#4A80A8" d="M405.815,627.404h-8.921v-1.527h3.609v-12.49l-3.702,1.117v-1.65l5.414-1.691v14.715h3.6V627.404z"/>
	<path fill="#4A80A8" d="M431.118,621.529l-0.646,0.943c-1.477-0.547-2.827-1.354-4.051-2.42v4.326h-8.572v2.246
		c0,0.279,0.145,0.457,0.432,0.533c0.287,0.074,1.742,0.113,4.367,0.113c3.221,0,5.056-0.051,5.507-0.15
		c0.451-0.098,0.755-1.053,0.913-2.865l1.045,0.4c-0.109,1.414-0.362,2.359-0.758,2.834c-0.397,0.477-0.876,0.732-1.436,0.77
		c-0.562,0.037-2.123,0.057-4.687,0.057c-3.158,0-4.901-0.02-5.229-0.061s-0.619-0.188-0.871-0.438
		c-0.254-0.248-0.38-0.582-0.38-0.998v-6.266c-1.032,0.84-2.171,1.514-3.415,2.02l-0.738-0.943c2.564-0.902,4.44-2.33,5.63-4.285
		h-5.045v-1.047h5.086v-2.861h-4.266v-1.045h4.266v-2.246h1.107v2.246h5.004v-2.246h1.107v2.266h4.368v1.025h-4.368v2.861h5.321
		v1.047h-5.229C426.742,619.279,428.588,620.674,431.118,621.529z M425.98,619.59c-0.69-0.648-1.244-1.396-1.661-2.244h-4.871
		c-0.465,0.826-0.998,1.574-1.6,2.244H425.98z M425.304,623.293v-2.605h-7.455v2.605H425.304z M424.381,616.299v-2.861h-5.004v2.861
		H424.381z"/>
	<path fill="#4A80A8" d="M447.366,627.404h-8.921v-1.527h3.609v-12.49l-3.702,1.117v-1.65l5.414-1.691v14.715h3.6V627.404z"/>
	<path fill="#4A80A8" d="M463.737,627.404h-8.921v-1.527h3.609v-12.49l-3.702,1.117v-1.65l5.414-1.691v14.715h3.6V627.404z"/>
	<path fill="#4A80A8" d="M477.832,618.77h-4.163l-0.666,2.605h3.793c0,1.291-0.099,2.646-0.297,4.064
		c-0.198,1.42-0.494,2.266-0.887,2.539c-0.394,0.273-1.157,0.41-2.292,0.41c-0.335,0-0.633-0.014-0.892-0.041l-0.359-1.047
		c0.54,0.041,1.012,0.063,1.415,0.063c0.711,0,1.179-0.059,1.405-0.174c0.225-0.117,0.423-0.807,0.594-2.066
		c0.171-1.262,0.26-2.166,0.268-2.713h-4.071l0.902-3.641h-1.917v-1.025h7.167V618.77z M477.411,616.043h-5.824v-5.455h5.824
		V616.043z M476.355,615.037v-3.465h-3.712v3.465H476.355z M488.537,614.258c-0.116,1.143-0.339,2.172-0.667,3.088l-1.015-0.359
		c0.219-0.609,0.38-1.189,0.481-1.744h-3.732v1.867l2.502-0.164l0.041,0.984l-2.543,0.174v1.066c0,0.15,0.063,0.297,0.19,0.441
		c0.126,0.143,0.265,0.215,0.415,0.215h3.988v0.924h-4.173c-0.95,0-1.425-0.455-1.425-1.365v-1.137l-1.979,0.102l-0.062-1.025
		l2.041-0.123v-1.959h-2.841v4.328c0,3.555-0.636,6.521-1.907,8.9l-0.841-0.605c1.176-2.42,1.764-5.232,1.764-8.439v-5.168h3.568
		v-4.143h1.025v1.477h4.43v1.006h-4.43v1.66H488.537z M482.702,621.775c-0.055,3.021-0.84,5.311-2.357,6.869l-0.79-0.615
		c1.347-1.381,2.058-3.465,2.133-6.254H482.702z M488.876,624.482c-0.056,1.373-0.214,2.354-0.478,2.941
		c-0.263,0.588-0.788,0.883-1.573,0.883l-1.098-0.041c-0.772,0-1.158-0.449-1.158-1.344v-5.127h1.045v5.107
		c0,0.143,0.055,0.244,0.164,0.301c0.109,0.059,0.369,0.088,0.779,0.088c0.391,0,0.648-0.049,0.774-0.148
		c0.127-0.1,0.248-0.436,0.364-1.01s0.174-1.266,0.174-2.072L488.876,624.482z"/>
</g>
<g>
	<path fill="#4A80A8" d="M102.547,482.541c-0.938,0.855-1.952,1.711-3.046,2.564v5.773c0,0.547-0.132,0.953-0.395,1.219
		c-0.264,0.268-0.738,0.418-1.426,0.451c-0.687,0.035-1.39,0.053-2.106,0.053c-0.438,0-0.861-0.008-1.271-0.021l-0.298-1.086
		c1.032,0.033,1.866,0.051,2.502,0.051c0.916,0,1.463-0.047,1.641-0.145c0.178-0.094,0.267-0.289,0.267-0.584v-4.891
		c-2.83,2.393-7.465,4.529-13.904,6.408l-0.502-1.035c5.481-1.498,9.737-3.336,12.766-5.518c-4.211,0.596-8.278,1.016-12.202,1.262
		l-0.267-1.098c0.711,0,1.438-0.033,2.184-0.102v-9.701h2.666c0.842-0.826,1.416-1.506,1.723-2.039l1.282,0.256
		c-0.273,0.404-0.766,0.998-1.477,1.783h8.818v7.559c0.595-0.418,1.374-1.084,2.338-2L102.547,482.541z M98.414,478.973v-1.764
		H87.617v1.764H98.414z M98.414,481.979v-1.887H87.617v1.887H98.414z M98.414,484.541v-1.445H87.617v2.645
		C90.474,485.576,94.073,485.178,98.414,484.541z"/>
	<path fill="#4A80A8" d="M114.582,474.729c-1.682,3.855-3.914,6.74-6.695,8.654l-0.76-0.861c2.7-1.805,4.816-4.512,6.348-8.121
		L114.582,474.729z M122.211,482.102c-0.034,2.248-0.168,4.27-0.4,6.059c-0.232,1.793-0.461,2.902-0.687,3.334
		c-0.226,0.43-0.538,0.738-0.938,0.922c-0.399,0.186-1.096,0.277-2.086,0.277c-0.432,0-0.988-0.018-1.672-0.051l-0.246-1.129
		c0.766,0.068,1.473,0.104,2.123,0.104c0.628,0,1.033-0.041,1.215-0.123c0.181-0.082,0.338-0.201,0.472-0.354
		c0.133-0.154,0.282-0.613,0.446-1.375s0.295-1.705,0.395-2.83c0.099-1.125,0.165-2.363,0.199-3.717h-5.393
		c-0.473,4.121-2.783,7.361-6.932,9.721l-0.678-0.883c3.849-2.158,5.985-5.105,6.409-8.838h-3.968v-1.117H122.211z M125.605,482.377
		l-0.749,0.943c-2.769-1.969-4.689-4.545-5.763-7.73h-1.568v-1.129h2.348C120.919,477.947,122.829,480.588,125.605,482.377z"/>
	<path fill="#4A80A8" d="M136.637,477.445h-6.347v-0.994h2.983c-0.123-0.457-0.383-1.1-0.779-1.928l0.902-0.359
		c0.431,0.938,0.725,1.699,0.882,2.287h2.358V477.445z M136.134,480.398h-5.321v-0.984h5.321V480.398z M136.134,483.639h-5.321
		v-1.035h5.321V483.639z M136.021,492.18h-1.066v-1.23h-2.983v1.693h-1.066v-7.014h5.116V492.18z M134.955,489.914v-3.209h-2.983
		v3.209H134.955z M142.153,475.785c0,0.26-0.381,1.125-1.144,2.6c-0.762,1.473-1.971,2.943-3.624,4.414l-0.79-0.697
		c1.135-1.006,2.003-1.908,2.604-2.707c-0.547-0.561-1.166-1.084-1.855-1.57l0.697-0.676c0.478,0.322,1.059,0.783,1.742,1.385
		c0.608-0.998,1.05-1.914,1.323-2.748h-3.763v-0.965h4.809V475.785z M148.306,492.18h-11.484v-0.984h3.384
		c-0.13-0.594-0.465-1.609-1.005-3.045l0.748-0.666h-1.701v-4.369h8.367v4.369h-1.477l0.779,0.666
		c-0.425,1.313-0.804,2.328-1.139,3.045h3.527V492.18z M145.517,486.469v-2.348h-6.173v2.348H145.517z M145.034,481.578h-5.127
		v-0.965h5.127V481.578z M144.911,487.484h-4.85c0.424,0.971,0.841,2.209,1.251,3.711h2.379
		C144.108,490.328,144.515,489.092,144.911,487.484z M148.583,481.896l-0.697,0.861c-2.681-2.133-4.379-4.758-5.097-7.875
		l0.902-0.574c0.246,0.861,0.447,1.514,0.604,1.957c0.588-0.43,1.176-0.977,1.764-1.641l0.697,0.656
		c-0.465,0.549-1.151,1.189-2.061,1.928c0.267,0.563,0.506,1.002,0.718,1.324c0.554-0.404,1.189-1.047,1.907-1.928l0.738,0.584
		c-0.643,0.848-1.33,1.568-2.061,2.164C146.702,480.275,147.563,481.123,148.583,481.896z"/>
	<path fill="#4A80A8" d="M171.683,486.623h-8.542v4.512c0,0.539-0.178,0.936-0.533,1.184c-0.355,0.25-1.214,0.375-2.573,0.375
		c-0.369,0-0.756-0.01-1.159-0.031l-0.399-1.189c0.566,0.055,1.134,0.082,1.701,0.082c0.889,0,1.412-0.045,1.569-0.139
		c0.157-0.092,0.235-0.232,0.235-0.426v-4.367h-8.572v-1.117h8.572v-1.365c1.853-1.092,3.303-2.029,4.348-2.809h-9.535v-1.098h11.34
		v1.098c-1.332,1.066-2.997,2.191-4.993,3.373v0.801h8.542V486.623z M170.821,481.352h-1.107v-3.824h-14.325v3.824h-1.118v-4.922
		h7.938c-0.186-0.443-0.541-1.01-1.066-1.701l1.004-0.523c0.485,0.67,0.927,1.412,1.323,2.225h7.353V481.352z"/>
	<path fill="#4A80A8" d="M183.657,482.963h-4.163l-0.666,2.604h3.793c0,1.293-0.099,2.648-0.297,4.066s-0.494,2.264-0.887,2.537
		c-0.394,0.273-1.157,0.41-2.292,0.41c-0.335,0-0.633-0.014-0.892-0.041l-0.359-1.045c0.54,0.041,1.012,0.061,1.415,0.061
		c0.711,0,1.179-0.057,1.405-0.174c0.225-0.115,0.423-0.805,0.594-2.066s0.26-2.164,0.268-2.713h-4.071l0.902-3.639h-1.917v-1.025
		h7.167V482.963z M183.236,480.234h-5.824v-5.455h5.824V480.234z M182.181,479.23v-3.467h-3.712v3.467H182.181z M194.362,478.451
		c-0.116,1.141-0.339,2.17-0.667,3.086l-1.015-0.359c0.219-0.607,0.38-1.189,0.481-1.742h-3.732v1.865l2.502-0.164l0.041,0.984
		l-2.543,0.174v1.066c0,0.152,0.063,0.299,0.19,0.441c0.126,0.145,0.265,0.215,0.415,0.215h3.988v0.924h-4.173
		c-0.95,0-1.425-0.455-1.425-1.363v-1.139l-1.979,0.102l-0.062-1.025l2.041-0.123v-1.957h-2.841v4.326
		c0,3.555-0.636,6.521-1.907,8.9l-0.841-0.605c1.176-2.42,1.764-5.232,1.764-8.438v-5.168h3.568v-4.143h1.025v1.477h4.43v1.004
		h-4.43v1.662H194.362z M188.527,485.967c-0.055,3.021-0.84,5.311-2.357,6.869l-0.79-0.615c1.347-1.379,2.058-3.465,2.133-6.254
		H188.527z M194.701,488.674c-0.056,1.373-0.214,2.355-0.478,2.943c-0.263,0.588-0.788,0.881-1.573,0.881l-1.098-0.041
		c-0.772,0-1.158-0.447-1.158-1.344v-5.127h1.045v5.107c0,0.143,0.055,0.244,0.164,0.303s0.369,0.086,0.779,0.086
		c0.391,0,0.648-0.049,0.774-0.148c0.127-0.098,0.248-0.436,0.364-1.01s0.174-1.264,0.174-2.07L194.701,488.674z"/>
	<path fill="#4A80A8" d="M208.685,480.01c0.342,0,0.627,0.115,0.856,0.348c0.229,0.232,0.344,0.514,0.344,0.842
		s-0.115,0.605-0.344,0.836c-0.229,0.229-0.515,0.342-0.856,0.342c-0.328,0-0.61-0.111-0.846-0.338
		c-0.236-0.225-0.354-0.506-0.354-0.84c0-0.336,0.118-0.617,0.354-0.846C208.074,480.123,208.356,480.01,208.685,480.01z
		 M208.685,489.453c0.342,0,0.627,0.115,0.856,0.344c0.229,0.229,0.344,0.514,0.344,0.855c0,0.328-0.113,0.611-0.339,0.846
		c-0.226,0.236-0.513,0.354-0.861,0.354c-0.335,0-0.619-0.115-0.851-0.348c-0.233-0.232-0.35-0.516-0.35-0.852
		c0-0.348,0.118-0.635,0.354-0.861C208.074,489.566,208.356,489.453,208.685,489.453z"/>
	<path fill="#4A80A8" d="M237.69,491.596v-10.725c0-0.814,0.055-1.836,0.164-3.066h-0.052c-0.191,0.752-0.348,1.25-0.471,1.496
		l-5.537,12.295h-0.779l-5.527-12.213c-0.144-0.32-0.297-0.846-0.461-1.578h-0.052c0.062,0.561,0.093,1.572,0.093,3.035v10.756
		h-1.703v-15.883h2.277l4.973,11.188c0.39,0.881,0.636,1.506,0.738,1.875h0.072c0.205-0.553,0.461-1.195,0.769-1.928l5.086-11.135
		h2.153v15.883H237.69z"/>
	<path fill="#4A80A8" d="M248.804,491.596v-1.537l5.373-5.127c1.019-0.965,1.787-1.824,2.308-2.58
		c0.519-0.754,0.779-1.586,0.779-2.496c0-0.936-0.291-1.664-0.872-2.184s-1.388-0.779-2.42-0.779c-1.504,0-2.939,0.594-4.307,1.783
		v-1.805c1.319-0.936,2.837-1.404,4.553-1.404c1.483,0,2.648,0.381,3.497,1.143c0.847,0.764,1.271,1.783,1.271,3.061
		c0,1.041-0.284,2.018-0.852,2.934s-1.347,1.854-2.338,2.809c-0.991,0.959-2.643,2.518-4.953,4.676v0.041h8.02v1.467H248.804z"/>
	<path fill="#4A80A8" d="M272.283,490.99v-1.814c1.23,0.828,2.519,1.24,3.865,1.24c1.224,0,2.194-0.287,2.912-0.865
		s1.076-1.338,1.076-2.281c0-1.02-0.42-1.801-1.261-2.35c-0.841-0.545-2.03-0.82-3.568-0.82h-1.343v-1.445h1.271
		c1.395,0,2.461-0.264,3.199-0.795c0.738-0.529,1.107-1.266,1.107-2.209c0-0.867-0.286-1.545-0.856-2.031
		c-0.571-0.484-1.376-0.727-2.415-0.727c-1.128,0-2.242,0.373-3.343,1.117v-1.662c1.155-0.586,2.416-0.881,3.784-0.881
		c1.407,0,2.528,0.35,3.363,1.051c0.833,0.701,1.25,1.598,1.25,2.691c0,2.086-1.117,3.443-3.353,4.07v0.041
		c1.23,0.123,2.196,0.535,2.896,1.236c0.701,0.701,1.052,1.551,1.052,2.549c0,1.4-0.539,2.543-1.615,3.424
		c-1.077,0.883-2.494,1.322-4.25,1.322C274.565,491.852,273.309,491.564,272.283,490.99z"/>
	<path fill="#4A80A8" d="M304.745,475.887v1.641c-0.902-0.424-1.805-0.635-2.707-0.635c-1.552,0-2.794,0.645-3.728,1.938
		c-0.933,1.291-1.399,3.008-1.399,5.146h0.041c0.868-1.543,2.215-2.316,4.04-2.316c1.442,0,2.596,0.451,3.461,1.354
		c0.864,0.902,1.297,2.074,1.297,3.518c0,1.564-0.496,2.844-1.487,3.834c-0.991,0.992-2.245,1.486-3.763,1.486
		c-1.641,0-2.939-0.631-3.896-1.896c-0.957-1.264-1.436-3.049-1.436-5.352c0-2.803,0.629-5.027,1.887-6.67
		c1.258-1.645,2.905-2.467,4.942-2.467C303.002,475.467,303.918,475.607,304.745,475.887z M300.571,483.096
		c-1.025,0-1.874,0.336-2.548,1.004c-0.673,0.672-1.01,1.439-1.01,2.309c0,1.066,0.33,2,0.989,2.805
		c0.66,0.803,1.523,1.203,2.59,1.203c1.031,0,1.862-0.34,2.491-1.025c0.629-0.682,0.943-1.559,0.943-2.625
		c0-1.133-0.306-2.029-0.918-2.686C302.498,483.424,301.651,483.096,300.571,483.096z"/>
	<path fill="#4A80A8" d="M320.267,491.596l6.357-14.406h-8.664v-1.467h10.726v0.523l-6.675,15.35H320.267z"/>
	<path fill="#4A80A8" d="M344.915,483.301l0.021-0.063c-2.044-0.908-3.065-2.203-3.065-3.885c0-1.129,0.454-2.059,1.363-2.789
		c0.909-0.732,2.082-1.098,3.518-1.098c1.313,0,2.385,0.338,3.219,1.016c0.834,0.676,1.252,1.547,1.252,2.613
		c0,1.785-1.057,3.158-3.169,4.123v0.061c1.189,0.391,2.105,0.959,2.748,1.703c0.643,0.746,0.964,1.607,0.964,2.584
		c0,1.285-0.49,2.32-1.472,3.107c-0.98,0.785-2.36,1.178-4.138,1.178c-1.429,0-2.601-0.385-3.517-1.158
		c-0.916-0.771-1.374-1.766-1.374-2.984C341.265,485.699,342.481,484.23,344.915,483.301z M346.392,484.1
		c-2.256,0.85-3.384,2.031-3.384,3.549c0,0.793,0.324,1.453,0.974,1.979c0.649,0.527,1.515,0.789,2.595,0.789
		c1.039,0,1.873-0.262,2.502-0.789c0.629-0.525,0.943-1.172,0.943-1.938C350.021,486.084,348.812,484.887,346.392,484.1z
		 M346.535,482.5c1.962-0.75,2.942-1.807,2.942-3.168c0-0.752-0.26-1.346-0.779-1.783s-1.22-0.656-2.102-0.656
		c-0.841,0-1.549,0.23-2.123,0.691s-0.861,1.037-0.861,1.729C343.612,480.672,344.587,481.736,346.535,482.5z"/>
	<path fill="#4A80A8" d="M365.186,491.318v-1.629c0.991,0.484,1.965,0.727,2.922,0.727c1.58,0,2.807-0.592,3.682-1.777
		c0.875-1.188,1.313-2.881,1.313-5.082h-0.062c-0.759,1.408-2.055,2.113-3.886,2.113c-1.436,0-2.606-0.461-3.513-1.379
		c-0.905-0.92-1.358-2.104-1.358-3.555c0-1.564,0.504-2.834,1.513-3.809c1.008-0.975,2.288-1.461,3.84-1.461
		c1.634,0,2.907,0.609,3.819,1.83c0.913,1.221,1.369,3.02,1.369,5.398c0,2.926-0.599,5.184-1.795,6.773s-2.867,2.383-5.014,2.383
		C366.99,491.852,366.047,491.674,365.186,491.318z M369.472,476.893c-0.978,0-1.796,0.344-2.456,1.029
		c-0.659,0.688-0.989,1.551-0.989,2.59c0,1.127,0.324,2.031,0.974,2.713c0.649,0.68,1.508,1.02,2.574,1.02
		c0.943,0,1.739-0.314,2.389-0.943s0.975-1.377,0.975-2.246c0-1.244-0.325-2.248-0.975-3.014S370.483,476.893,369.472,476.893z"/>
	<path fill="#4A80A8" d="M397.145,475.887v1.641c-0.902-0.424-1.805-0.635-2.707-0.635c-1.552,0-2.794,0.645-3.728,1.938
		c-0.933,1.291-1.399,3.008-1.399,5.146h0.041c0.868-1.543,2.215-2.316,4.04-2.316c1.442,0,2.596,0.451,3.461,1.354
		c0.864,0.902,1.297,2.074,1.297,3.518c0,1.564-0.496,2.844-1.487,3.834c-0.991,0.992-2.245,1.486-3.763,1.486
		c-1.641,0-2.939-0.631-3.896-1.896c-0.957-1.264-1.436-3.049-1.436-5.352c0-2.803,0.629-5.027,1.887-6.67
		c1.258-1.645,2.905-2.467,4.942-2.467C395.401,475.467,396.317,475.607,397.145,475.887z M392.971,483.096
		c-1.025,0-1.874,0.336-2.548,1.004c-0.673,0.672-1.01,1.439-1.01,2.309c0,1.066,0.33,2,0.989,2.805
		c0.66,0.803,1.523,1.203,2.59,1.203c1.031,0,1.862-0.34,2.491-1.025c0.629-0.682,0.943-1.559,0.943-2.625
		c0-1.133-0.306-2.029-0.918-2.686C394.897,483.424,394.051,483.096,392.971,483.096z"/>
	<path fill="#4A80A8" d="M411.283,491.217v-1.805c1.21,0.67,2.372,1.004,3.486,1.004c1.258,0,2.261-0.328,3.01-0.984
		c0.748-0.656,1.122-1.518,1.122-2.584c0-1.059-0.384-1.885-1.153-2.475c-0.769-0.592-1.875-0.889-3.317-0.889
		c-0.465,0-0.953,0.018-1.466,0.053l-1.159,0.082v-7.896h8.061v1.445h-6.42v4.871c0.432-0.027,0.947-0.041,1.549-0.041
		c1.777,0,3.16,0.426,4.147,1.277c0.988,0.852,1.481,2.008,1.481,3.471c0,1.49-0.52,2.715-1.559,3.67
		c-1.039,0.959-2.484,1.436-4.337,1.436C413.307,491.852,412.158,491.641,411.283,491.217z"/>
	<path fill="#4A80A8" d="M442.34,487.33v4.266h-1.682v-4.266h-7.937v-1.107l7.557-10.5h2.062v10.223h2.204v1.385H442.34z
		 M440.638,477.354c-0.424,0.916-2.434,3.781-6.029,8.592h6.05v-7.771c0-0.309,0.007-0.58,0.021-0.82H440.638z"/>
</g>
<g>
	<path fill="#DAF1EC" d="M563.768,54.734c0,13.194-10.695,23.89-23.89,23.89c-13.193,0-23.89-10.696-23.89-23.89
		c0-13.194,10.696-23.89,23.89-23.89C553.072,30.844,563.768,41.54,563.768,54.734"/>
	<path fill="#4C81A7" d="M553.771,63.609c0,0.946-0.331,1.762-0.999,2.429c-0.569,0.57-1.15,1.13-1.74,1.679
		c-1.132,1.06-2.863,1.211-4.168,0.357c-0.205-0.135-0.353-0.14-0.569-0.042c-0.549,0.249-1.116,0.455-1.667,0.7
		c-0.113,0.051-0.241,0.182-0.268,0.297c-0.393,1.704-1.719,2.771-3.474,2.771c-0.734,0-1.47,0.001-2.204-0.001
		c-1.558-0.007-2.921-1.08-3.269-2.602c-0.07-0.304-0.198-0.444-0.493-0.544c-0.537-0.18-1.057-0.414-1.572-0.649
		c-0.175-0.08-0.287-0.069-0.445,0.035c-1.433,0.935-3.185,0.745-4.382-0.473c-0.532-0.541-1.057-1.089-1.58-1.638
		c-1.098-1.151-1.267-2.891-0.391-4.221c0.14-0.212,0.126-0.359,0.028-0.57c-0.243-0.525-0.446-1.069-0.687-1.595
		c-0.053-0.116-0.182-0.249-0.297-0.274c-1.768-0.368-2.87-1.932-2.783-3.575c0.038-0.71,0.005-1.422,0.007-2.134
		c0.004-1.584,1.07-2.945,2.609-3.298c0.287-0.065,0.431-0.184,0.528-0.464c0.189-0.546,0.443-1.07,0.647-1.612
		c0.044-0.116,0.042-0.301-0.022-0.401c-0.948-1.508-0.753-3.224,0.526-4.468c0.519-0.504,1.04-1.005,1.562-1.506
		c1.165-1.119,2.901-1.292,4.248-0.406c0.196,0.13,0.334,0.132,0.538,0.037c0.535-0.248,1.091-0.456,1.628-0.702
		c0.114-0.052,0.237-0.184,0.269-0.302c0.459-1.783,1.711-2.768,3.545-2.768c0.723,0,1.446-0.002,2.169,0
		c1.582,0.006,2.939,1.074,3.293,2.617c0.065,0.288,0.192,0.426,0.47,0.522c0.546,0.191,1.069,0.446,1.61,0.65
		c0.116,0.044,0.3,0.035,0.401-0.03c1.488-0.94,3.216-0.749,4.441,0.51c0.514,0.527,1.022,1.057,1.531,1.587
		c1.116,1.164,1.286,2.9,0.395,4.249c-0.135,0.202-0.116,0.34-0.028,0.539c0.248,0.563,0.463,1.139,0.71,1.701
		c0.046,0.105,0.172,0.219,0.279,0.244c1.717,0.396,2.779,1.712,2.779,3.463c0.002,0.724,0.002,1.447,0,2.169
		c-0.002,1.609-1.064,2.96-2.627,3.323c-0.265,0.061-0.412,0.165-0.505,0.441c-0.181,0.536-0.409,1.059-0.645,1.574
		c-0.09,0.195-0.097,0.327,0.03,0.509C553.59,62.297,553.773,62.926,553.771,63.609 M546.799,65.279
		c0.485,0.021,0.773,0.32,1.071,0.617c0.538,0.536,1.187,0.539,1.724,0.011c0.456-0.449,0.906-0.904,1.358-1.357
		c0.721-0.721,0.719-1.27-0.007-2.001c-0.519-0.524-0.592-0.958-0.236-1.598c0.549-0.986,0.988-2.015,1.275-3.109
		c0.139-0.528,0.531-0.832,1.081-0.874c0.153-0.01,0.309,0,0.462-0.005c0.672-0.023,1.137-0.476,1.147-1.147
		c0.013-0.735,0.013-1.47,0-2.205c-0.012-0.663-0.488-1.129-1.151-1.154c-0.119-0.005-0.237-0.001-0.355-0.001
		c-0.675-0.003-1.022-0.306-1.251-0.935c-0.352-0.963-0.722-1.924-1.155-2.85c-0.421-0.899-0.416-1.207,0.281-1.918
		c0.543-0.554,0.541-1.19-0.008-1.752c-0.438-0.451-0.877-0.9-1.315-1.349c-0.675-0.692-1.269-0.698-1.952-0.019
		c-0.579,0.576-0.974,0.64-1.681,0.249c-0.967-0.537-1.976-0.967-3.046-1.245c-0.438-0.113-0.727-0.391-0.846-0.825
		c-0.041-0.144-0.032-0.305-0.032-0.458c-0.004-1.008-0.414-1.415-1.431-1.415h-1.707c-0.059,0-0.119-0.001-0.178,0
		c-0.769,0.009-1.267,0.477-1.234,1.245c0.041,1.011-0.351,1.322-1.198,1.596c-0.895,0.29-1.765,0.675-2.614,1.083
		c-0.887,0.426-1.227,0.401-1.898-0.317c-0.484-0.521-1.158-0.563-1.669-0.078c-0.55,0.524-1.085,1.062-1.609,1.609
		c-0.47,0.491-0.455,1.124,0.011,1.624c0.073,0.078,0.151,0.151,0.226,0.227c0.47,0.48,0.542,0.922,0.218,1.51
		c-0.557,1.01-1.013,2.056-1.302,3.176c-0.137,0.532-0.574,0.835-1.135,0.842c-0.13,0.001-0.261-0.004-0.391,0.001
		c-0.666,0.022-1.146,0.485-1.159,1.147c-0.014,0.758-0.016,1.517,0.001,2.276c0.015,0.644,0.492,1.103,1.138,1.13
		c0.154,0.007,0.309,0,0.463,0.002c0.552,0.009,0.957,0.289,1.104,0.827c0.314,1.146,0.777,2.229,1.354,3.268
		c0.267,0.48,0.182,0.97-0.193,1.372c-0.098,0.105-0.203,0.2-0.302,0.304c-0.442,0.474-0.452,1.127-0.007,1.598
		c0.514,0.542,1.033,1.078,1.566,1.601c0.485,0.476,1.123,0.471,1.623,0.012c0.079-0.072,0.151-0.151,0.228-0.226
		c0.496-0.487,0.934-0.557,1.538-0.221c0.996,0.553,2.034,1.002,3.141,1.29c0.543,0.141,0.852,0.564,0.859,1.12
		c0.002,0.142-0.004,0.285,0.002,0.426c0.026,0.648,0.485,1.126,1.129,1.141c0.77,0.017,1.541,0.019,2.311-0.001
		c0.627-0.016,1.081-0.49,1.114-1.118c0.007-0.143,0.001-0.285,0.002-0.427c0.004-0.617,0.283-1.015,0.875-1.176
		c1.103-0.299,2.144-0.739,3.141-1.295C546.367,65.401,546.591,65.353,546.799,65.279"/>
	<path fill="#4C81A7" d="M539.871,62.696c-4.409-0.001-7.952-3.557-7.95-7.982c0.002-4.405,3.563-7.944,7.991-7.943
		c4.401,0.003,7.938,3.569,7.934,8.001C547.842,59.155,544.277,62.697,539.871,62.696 M539.888,49.042
		c-3.132-0.002-5.698,2.564-5.696,5.696c0.002,3.118,2.553,5.678,5.67,5.688c3.133,0.011,5.707-2.548,5.713-5.679
		C545.582,51.615,543.02,49.045,539.888,49.042"/>
</g>
<g>
	<path fill="#4C81A7" d="M294.58,709.625l-1.301,1.699c-2.031-1-3.641-2.023-4.828-3.07v1.605h-9.07v-1.336
		c-1.773,1.25-3.398,2.184-4.875,2.801l-1.242-1.676c1.68-0.742,3.008-1.453,3.984-2.133c-0.703-0.516-1.527-1.027-2.473-1.535
		l1.371-1.535c1.094,0.641,2.004,1.246,2.73,1.816c0.875-0.734,1.613-1.59,2.215-2.566h-6.082v-1.875h8.449v1.875
		c-0.719,1.516-1.844,2.941-3.375,4.277h8.086c-1.781-1.719-3.094-3.777-3.938-6.176l1.875-0.574
		c0.32,0.828,0.711,1.621,1.172,2.379c0.961-0.727,1.746-1.543,2.355-2.449l1.723,1.125c-0.75,1.078-1.734,2.07-2.953,2.977
		c0.273,0.359,0.602,0.719,0.984,1.078c0.961-0.742,1.914-1.727,2.859-2.953l1.676,1.113c-0.68,1.047-1.648,2.094-2.906,3.141
		C291.768,708.258,292.955,708.922,294.58,709.625z M294.076,721.883h-20.309v-1.934h6.164c-0.336-0.648-0.734-1.313-1.195-1.992
		l1.535-0.961h-3.48v-5.719h14.285v5.719h-3.586l1.617,0.914c-0.273,0.656-0.609,1.336-1.008,2.039h5.977V721.883z M288.885,715.145
		v-2.039h-9.891v2.039H288.885z M287.068,716.996h-6.363c0.617,1.047,1.145,2.031,1.582,2.953h3.457
		C286.26,718.98,286.701,717.996,287.068,716.996z"/>
	<path fill="#4C81A7" d="M321.938,722.363h-2.215v-1.172h-16.465v-7.945h2.191v5.883h6.094v-8.227h-7.172v-7.945h2.156v5.871h5.016
		v-7.441h2.156v7.441h5.016v-5.871h2.168v7.945H313.7v8.227h6.07v-5.883h2.168V722.363z"/>
</g>
<g>
	<path fill="#386DA6" d="M370.357,98.287c0,37.167-30.13,67.298-67.298,67.298s-67.298-30.131-67.298-67.298
		c0-37.168,30.13-67.299,67.298-67.299S370.357,61.119,370.357,98.287"/>
	<g>
		<path fill="#DAF1EC" d="M303.06,165.549c-37.109,0-67.298-30.188-67.298-67.299c0-37.109,30.188-67.297,67.298-67.297
			c37.11,0,67.299,30.188,67.299,67.297C370.358,135.361,340.17,165.549,303.06,165.549 M303.06,37.478
			c-33.511,0-60.772,27.262-60.772,60.772c0,33.512,27.262,60.774,60.772,60.774c33.512,0,60.772-27.262,60.772-60.774
			C363.832,64.74,336.571,37.478,303.06,37.478"/>
		<g>
			<path fill="#DAF1EC" d="M303.06,33.98c-35.366,0-64.036,28.67-64.036,64.037c0,19.519,8.746,36.988,22.52,48.734
				c1.998-17.507,16.844-31.112,34.885-31.112h13.263c18.042,0,32.888,13.605,34.886,31.112
				c13.773-11.746,22.519-29.215,22.519-48.734C367.095,62.65,338.426,33.98,303.06,33.98 M303.06,111.126
				c-11.38,0-20.605-9.225-20.605-20.605s9.226-20.605,20.605-20.605s20.605,9.225,20.605,20.605S314.439,111.126,303.06,111.126
				 M336.925,96.496c-0.367,2.113-2.204,3.601-4.28,3.601c-0.248,0-0.499-0.022-0.754-0.067c-2.366-0.412-3.948-2.665-3.534-5.034
				c0.28-1.604,0.416-3.069,0.416-4.476c0-14.178-11.534-25.712-25.713-25.712c-14.18,0-25.716,11.534-25.716,25.712
				c0,1.398,0.139,2.862,0.419,4.476c0.414,2.369-1.169,4.622-3.535,5.034c-2.372,0.43-4.622-1.166-5.034-3.534
				c-0.369-2.116-0.55-4.07-0.55-5.976c0-18.975,15.438-34.414,34.416-34.414c18.974,0,34.414,15.439,34.414,34.414
				C337.474,92.435,337.295,94.389,336.925,96.496"/>
		</g>
	</g>
</g>
<g>
	<path fill="#E5F5F5" d="M251.315,226.012h-31.254v-3.129h14.01v-11.021h-12.129v-3.164h12.129v-9.176h-13.043v-3.129h29.268v3.129
		h-12.955v9.176h12.129v3.164h-12.129v11.021h13.975V226.012z"/>
	<path fill="#E5F5F5" d="M268.837,222.637h-2.9v-2.127h-2.566v3.094h-2.953v-26.42h8.42V222.637z M265.937,207.291v-7.119h-2.566
		v7.119H265.937z M265.937,217.521v-7.313h-2.566v7.313H265.937z M291.302,221.723c-0.07,1.582-0.281,2.695-0.633,3.34
		s-0.759,1.063-1.222,1.257s-1.263,0.29-2.399,0.29c-2.215,0-3.647-0.179-4.298-0.536s-0.976-1.169-0.976-2.435v-4.746h-3.639
		c-0.34,4.535-3.293,7.26-8.859,8.174l-1.406-2.813c4.594-0.539,6.949-2.326,7.066-5.361h-4.799v-2.883h20.777v2.883h-6.012v3.92
		c0,0.328,0.094,0.551,0.281,0.668s0.615,0.176,1.283,0.176c0.832,0,1.359-0.182,1.582-0.545s0.299-1.195,0.229-2.496
		L291.302,221.723z M279.577,213.338c-3.574,0.879-6.709,1.529-9.404,1.951l-0.281-2.602c1.137-0.164,2.297-0.352,3.48-0.563v-2.531
		h-3.023v-2.549h3.023v-1.688h2.988v1.688h3.146v2.549h-3.146v1.881c0.738-0.105,1.775-0.346,3.111-0.721L279.577,213.338z
		 M290.651,204.479h-20.689v-2.584h8.666v-1.863h-7.594V197.5h7.594v-2.021h3.146v2.021h7.664v2.531h-7.664v1.863h8.877V204.479z
		 M291.161,214.322h-10.723v-2.602h3.533v-2.127h-3.076v-2.549h3.076v-1.688h2.953v1.688h3.34v2.549h-3.34v2.092h4.236V214.322z"/>
	<path fill="#E5F5F5" d="M311.426,222.531h-3.129v-2.092h-4.992v2.918h-3.146v-26.209h11.268V222.531z M308.297,207.221v-6.979
		h-4.992v6.979H308.297z M308.297,217.416v-7.207h-4.992v7.207H308.297z M329.725,223.129c0,1.184-0.176,2.033-0.527,2.549
		s-0.809,0.85-1.371,1.002s-1.641,0.229-3.234,0.229c-1.043,0-2.045-0.023-3.006-0.07l-1.09-3.164
		c1.934,0.047,3.533,0.07,4.799,0.07c0.785,0,1.178-0.357,1.178-1.072v-6.732h-8.385c-0.516,4.77-1.811,8.525-3.885,11.268
		l-2.707-1.881c2.355-3.387,3.533-7.84,3.533-13.359v-15.645h14.695V223.129z M326.473,204.408v-4.957h-8.191v4.957H326.473z
		 M326.473,212.881v-5.291h-8.191v5.291H326.473z"/>
</g>
<g>
	<path fill="#DAF1EC" d="M391.747,211.476c0,11.648-9.443,21.092-21.092,21.092c-11.649,0-21.093-9.444-21.093-21.092
		c0-11.647,9.443-21.092,21.093-21.092C382.304,190.384,391.747,199.828,391.747,211.476"/>
	
		<polyline fill="none" stroke="#4A80A8" stroke-width="3" stroke-linecap="round" stroke-linejoin="round" stroke-miterlimit="10" points="
		367.837,201.796 378.424,197.735 381.311,208.7 	"/>
	
		<line fill="none" stroke="#4A80A8" stroke-width="3" stroke-linecap="round" stroke-linejoin="round" stroke-miterlimit="10" x1="371.288" y1="211.66" x2="378.424" y2="197.735"/>
	
		<circle fill="none" stroke="#4A80A8" stroke-width="3" stroke-linecap="round" stroke-linejoin="round" stroke-miterlimit="10" cx="367.778" cy="218.509" r="7.696"/>
</g>
<g>
	<path fill="#4C81A7" d="M364.295,146.751c0,8.136-6.596,14.731-14.732,14.731c-8.136,0-14.732-6.595-14.732-14.731
		c0-8.137,6.597-14.732,14.732-14.732C357.699,132.02,364.295,138.614,364.295,146.751"/>
	<path fill="#DAF1EC" d="M340.732,151.914v-8.948c0.013-0.037,0.03-0.073,0.037-0.112c0.177-0.993,1.063-1.8,2.064-1.838
		c0.745-0.028,1.491-0.019,2.236-0.013c0.158,0.001,0.242-0.053,0.325-0.18c0.419-0.644,0.853-1.278,1.272-1.922
		c0.083-0.127,0.17-0.18,0.326-0.179c1.882,0.006,3.764,0.006,5.645,0c0.162-0.001,0.254,0.053,0.341,0.187
		c0.426,0.653,0.862,1.299,1.292,1.951c0.066,0.1,0.135,0.142,0.257,0.14c0.675-0.006,1.349-0.004,2.023-0.002
		c0.911,0.002,1.611,0.387,2.061,1.178c0.142,0.251,0.2,0.55,0.298,0.827v8.911c-0.012,0.033-0.029,0.064-0.035,0.098
		c-0.055,0.338-0.185,0.647-0.387,0.921c-0.49,0.665-1.161,0.953-1.977,0.95c-1.497-0.004-2.993-0.001-4.489-0.001
		c-2.964,0-5.927-0.009-8.89,0.004c-1.293,0.006-2.071-0.821-2.304-1.619C340.795,152.149,340.765,152.032,340.732,151.914
		 M349.816,152.358c2.242,0,4.484-0.006,6.727,0.005c0.552,0.003,0.854-0.387,0.852-0.842c-0.016-2.71-0.007-5.419-0.008-8.129
		c0-0.568-0.304-0.871-0.876-0.872c-0.923,0-1.847-0.003-2.77,0.004c-0.143,0.001-0.221-0.048-0.297-0.166
		c-0.425-0.661-0.86-1.313-1.287-1.976c-0.065-0.101-0.138-0.136-0.258-0.136c-1.379,0.004-2.757,0.004-4.136,0
		c-0.123-0.001-0.19,0.043-0.256,0.141c-0.435,0.662-0.88,1.319-1.313,1.981c-0.072,0.111-0.149,0.159-0.285,0.156
		c-0.455-0.01-0.91-0.004-1.366-0.004c-0.503,0-1.006-0.005-1.509,0.002c-0.467,0.007-0.778,0.324-0.78,0.784
		c0,2.763-0.001,5.526,0.006,8.289c0,0.14,0.048,0.295,0.119,0.415c0.159,0.27,0.423,0.351,0.729,0.35
		C345.344,152.357,347.58,152.358,349.816,152.358"/>
	<path fill="#DAF1EC" d="M349.829,143.272c2.101,0.009,3.804,1.72,3.784,3.815c-0.02,2.151-1.808,3.801-3.871,3.766
		c-2.034-0.035-3.728-1.752-3.716-3.818C346.038,144.961,347.755,143.262,349.829,143.272 M349.818,144.796
		c-1.251,0.004-2.272,1.025-2.27,2.27c0.002,1.247,1.024,2.261,2.275,2.26c1.249-0.001,2.271-1.022,2.268-2.266
		C352.09,145.813,351.063,144.793,349.818,144.796"/>
</g>
</svg>
