<svg id="圖層_1" data-name="圖層 1" xmlns="http://www.w3.org/2000/svg" viewBox="0 0 136 199"><defs><style>.cls-1{fill:#fff;}.cls-2{fill:#040000;}.cls-3,.cls-4{fill:#2374a5;}.cls-4{font-size:18.96px;font-family:MicrosoftJhengHeiBold, Microsoft JhengHei;letter-spacing:0.12em;}</style></defs><title>pay</title><rect class="cls-1" y="63" width="136" height="136"/><rect class="cls-2" y="63" width="32.83" height="32.83"/><rect class="cls-1" x="4.69" y="67.69" width="23.45" height="23.45"/><rect class="cls-2" x="9.38" y="72.38" width="14.07" height="14.07"/><rect class="cls-2" y="166.17" width="32.83" height="32.83"/><rect class="cls-1" x="4.69" y="170.86" width="23.45" height="23.45"/><rect class="cls-2" x="9.38" y="175.55" width="14.07" height="14.07"/><rect class="cls-2" x="103.17" y="63" width="32.83" height="32.83"/><rect class="cls-1" x="107.86" y="67.69" width="23.45" height="23.45"/><rect class="cls-2" x="112.55" y="72.38" width="14.07" height="14.07"/><rect class="cls-1" x="98.48" y="161.48" width="14.07" height="14.07"/><rect class="cls-2" x="103.17" y="166.17" width="4.69" height="4.69"/><rect class="cls-2" x="79.72" y="170.86" width="4.69" height="4.69"/><rect class="cls-2" x="84.41" y="189.62" width="4.69" height="4.69"/><rect class="cls-2" x="75.03" y="175.55" width="4.69" height="4.69"/><rect class="cls-2" x="37.52" y="194.31" width="4.69" height="4.69"/><rect class="cls-2" x="46.9" y="189.62" width="4.69" height="4.69"/><polygon class="cls-2" points="75.03 189.62 75.03 180.24 65.66 180.24 65.66 189.62 70.34 189.62 70.34 194.31 65.66 194.31 65.66 189.62 60.97 189.62 60.97 184.93 51.59 184.93 51.59 189.62 56.28 189.62 56.28 194.31 60.97 194.31 60.97 199 75.03 199 75.03 194.31 79.72 194.31 79.72 189.62 75.03 189.62"/><rect class="cls-2" x="93.79" y="184.93" width="4.69" height="4.69"/><rect class="cls-2" x="84.41" y="189.62" width="4.69" height="4.69"/><rect class="cls-2" x="89.1" y="194.31" width="14.07" height="4.69"/><rect class="cls-2" x="93.79" y="184.93" width="4.69" height="4.69"/><rect class="cls-2" x="89.1" y="194.31" width="14.07" height="4.69"/><polygon class="cls-2" points="42.21 72.38 42.21 63 37.52 63 37.52 72.38 37.52 77.07 42.21 77.07 46.9 77.07 46.9 72.38 42.21 72.38"/><rect class="cls-2" x="51.59" y="63" width="9.38" height="4.69"/><rect class="cls-2" x="37.52" y="81.76" width="9.38" height="4.69"/><polygon class="cls-2" points="131.31 114.59 131.31 123.97 112.55 123.97 112.55 128.66 121.93 128.66 121.93 138.03 126.62 138.03 126.62 128.66 131.31 128.66 131.31 138.03 136 138.03 136 128.66 136 123.97 136 114.59 131.31 114.59"/><rect class="cls-2" x="84.41" y="81.76" width="9.38" height="4.69"/><rect class="cls-2" x="58.62" y="74.72" width="9.38" height="4.69" transform="translate(140.38 13.76) rotate(90)"/><rect class="cls-2" x="65.66" y="63" width="4.69" height="4.69"/><rect class="cls-2" x="75.03" y="63" width="4.69" height="4.69"/><rect class="cls-2" x="84.41" y="63" width="4.69" height="4.69"/><rect class="cls-2" x="79.72" y="67.69" width="4.69" height="4.69"/><rect class="cls-2" x="79.72" y="77.07" width="4.69" height="4.69"/><rect class="cls-2" x="65.66" y="81.76" width="4.69" height="4.69"/><rect class="cls-2" x="65.66" y="91.14" width="4.69" height="4.69"/><rect class="cls-2" x="117.24" y="114.59" width="4.69" height="4.69"/><rect class="cls-2" x="117.24" y="138.03" width="4.69" height="4.69"/><rect class="cls-2" x="126.62" y="175.55" width="4.69" height="4.69"/><rect class="cls-2" x="112.55" y="142.72" width="4.69" height="4.69"/><rect class="cls-2" x="131.31" y="147.41" width="4.69" height="4.69"/><rect class="cls-2" x="121.93" y="142.72" width="9.38" height="4.69"/><rect class="cls-2" x="126.62" y="170.86" width="9.38" height="4.69"/><rect class="cls-2" x="37.52" y="91.14" width="4.69" height="4.69"/><rect class="cls-2" y="138.03" width="4.69" height="4.69"/><polygon class="cls-2" points="32.83 119.28 28.14 119.28 28.14 123.97 32.83 123.97 32.83 128.66 28.14 128.66 28.14 133.34 32.83 133.34 37.52 133.34 37.52 119.28 32.83 119.28"/><rect class="cls-2" y="100.52" width="4.69" height="9.38"/><path class="cls-2" d="M56.28,105.21v-4.69H51.59v4.69H42.21v4.69H37.52v-4.69h4.69v-4.69H14.07v4.69H9.38v4.69H4.69v4.69H0v4.69H4.69V124H0v4.69H4.69v4.68H9.38V124h4.69v4.69h9.38v-9.38H9.38v-4.69h4.69V109.9h4.69v-4.69h4.69v4.69H18.76v4.69h4.69v4.69h4.69v-4.69H42.21V124H46.9V109.9H61v-4.69ZM32.83,109.9H28.14v-4.69h4.69Z"/><polygon class="cls-2" points="60.97 95.83 60.97 81.76 56.28 81.76 56.28 72.38 51.59 72.38 51.59 86.45 46.9 86.45 46.9 100.52 51.59 100.52 51.59 91.14 56.28 91.14 56.28 100.52 60.97 100.52 65.66 100.52 65.66 95.83 60.97 95.83"/><rect class="cls-2" x="75.03" y="81.76" width="4.69" height="4.69"/><polygon class="cls-2" points="70.34 72.38 70.34 77.07 70.34 81.76 75.03 81.76 75.03 77.07 79.72 77.07 79.72 72.38 70.34 72.38"/><rect class="cls-2" x="89.1" y="67.69" width="4.69" height="4.69"/><rect class="cls-2" x="93.79" y="77.07" width="4.69" height="4.69"/><rect class="cls-2" x="93.79" y="91.14" width="4.69" height="4.69"/><polygon class="cls-2" points="121.93 100.52 121.93 105.21 121.93 109.9 121.93 114.59 126.62 114.59 126.62 109.9 131.31 109.9 131.31 105.21 136 105.21 136 100.52 121.93 100.52"/><polygon class="cls-2" points="112.55 133.34 112.55 128.66 107.86 128.66 107.86 123.97 112.55 123.97 112.55 119.28 107.86 119.28 107.86 114.59 103.17 114.59 103.17 128.66 89.1 128.66 89.1 133.34 98.48 133.34 98.48 138.03 112.55 138.03 117.24 138.03 117.24 133.34 112.55 133.34"/><polygon class="cls-2" points="112.55 100.52 112.55 105.21 107.86 105.21 107.86 109.9 107.86 114.59 112.55 114.59 112.55 109.9 117.24 109.9 117.24 105.21 117.24 100.52 112.55 100.52"/><rect class="cls-2" x="84.41" y="91.14" width="4.69" height="4.69"/><rect class="cls-2" x="84.41" y="133.34" width="4.69" height="4.69"/><rect class="cls-2" x="79.72" y="142.72" width="4.69" height="4.69"/><rect class="cls-2" x="9.38" y="152.1" width="4.69" height="4.69"/><polygon class="cls-2" points="28.14 138.03 28.14 133.34 23.45 133.34 23.45 138.03 18.76 138.03 18.76 142.72 32.83 142.72 32.83 138.03 28.14 138.03"/><polygon class="cls-2" points="70.34 119.28 70.34 133.34 65.66 133.34 65.66 138.03 75.03 138.03 75.03 133.34 79.72 133.34 79.72 119.28 70.34 119.28"/><polygon class="cls-2" points="79.72 114.59 79.72 119.28 89.1 119.28 89.1 123.97 93.79 123.97 93.79 119.28 93.79 114.59 79.72 114.59"/><polygon class="cls-2" points="98.48 100.52 98.48 105.21 93.79 105.21 89.1 105.21 89.1 100.52 79.72 100.52 79.72 91.14 75.03 91.14 75.03 100.52 70.34 100.52 65.66 100.52 65.66 105.21 70.34 105.21 70.34 109.9 60.97 109.9 60.97 114.59 65.66 114.59 65.66 119.28 70.34 119.28 70.34 114.59 75.03 114.59 75.03 105.21 79.72 105.21 79.72 109.9 89.1 109.9 93.79 109.9 93.79 114.59 98.48 114.59 98.48 109.9 103.17 109.9 103.17 100.52 98.48 100.52"/><rect class="cls-2" x="79.72" y="86.45" width="4.69" height="4.69"/><path class="cls-2" d="M126.62,156.79V152.1h-4.69v-4.69h-4.69v4.69h-9.38v4.69h-4.69v-9.38H98.48v9.38H75v4.69h4.69v4.69H89.1v14.07h9.38v4.69h4.69v-4.69h4.69v9.38h-4.69v4.69h9.38v-4.69h4.69v-4.69h-4.69v-4.69h9.38v-4.69h-4.69v-4.69h4.69v-9.38h9.38v-4.69Zm-14.07,9.38v9.38H98.48V161.48h14.07Z"/><polygon class="cls-2" points="93.79 138.03 93.79 142.72 89.1 142.72 89.1 152.1 93.79 152.1 93.79 147.41 98.48 147.41 98.48 138.03 93.79 138.03"/><polygon class="cls-2" points="131.31 180.24 131.31 184.93 121.93 184.93 121.93 189.62 117.24 189.62 117.24 194.31 112.55 194.31 112.55 199 121.93 199 121.93 194.31 126.62 194.31 126.62 189.62 131.31 189.62 131.31 194.31 136 194.31 136 189.62 136 184.93 136 180.24 131.31 180.24"/><polygon class="cls-2" points="75.03 166.17 75.03 161.48 65.66 161.48 65.66 156.79 70.34 156.79 70.34 152.1 75.03 152.1 75.03 142.72 65.66 142.72 65.66 138.03 60.97 138.03 60.97 142.72 60.97 147.41 56.28 147.41 51.59 147.41 51.59 138.03 56.28 138.03 56.28 133.34 65.66 133.34 65.66 123.97 56.28 123.97 56.28 128.66 46.9 128.66 46.9 138.03 46.9 142.72 42.21 142.72 32.83 142.72 32.83 147.41 18.76 147.41 18.76 142.72 14.07 142.72 14.07 138.03 9.38 138.03 9.38 147.41 14.07 147.41 14.07 152.1 18.76 152.1 37.52 152.1 37.52 147.41 42.21 147.41 42.21 152.1 46.9 152.1 46.9 156.79 42.21 156.79 42.21 152.1 37.52 152.1 37.52 156.79 14.07 156.79 14.07 161.48 37.52 161.48 37.52 184.93 42.21 184.93 51.59 184.93 51.59 180.24 56.28 180.24 56.28 175.55 51.59 175.55 51.59 170.86 46.9 170.86 46.9 175.55 42.21 175.55 42.21 161.48 46.9 161.48 46.9 166.17 51.59 166.17 51.59 161.48 56.28 161.48 56.28 152.1 60.97 152.1 60.97 180.24 65.66 180.24 65.66 166.17 70.34 166.17 70.34 170.86 70.34 175.55 75.03 175.55 75.03 170.86 79.72 170.86 79.72 166.17 75.03 166.17"/><path class="cls-3" d="M27.54,0H108a24,24,0,0,1,24,24v0A23.37,23.37,0,0,1,108.63,47.4H26.88A23.37,23.37,0,0,1,3.51,24v0a24,24,0,0,1,24-24Z"/><path class="cls-1" d="M107.4,41.8h-79A18.56,18.56,0,0,1,9.83,23.23h0A18.57,18.57,0,0,1,28.4,4.66h79A18.57,18.57,0,0,1,126,23.23h0A18.56,18.56,0,0,1,107.4,41.8Z"/><text class="cls-4" transform="translate(25.39 29.98)">線上支付</text></svg>