<svg id="圖層_1" data-name="圖層 1" xmlns="http://www.w3.org/2000/svg" viewBox="0 0 61.88 61.88"><defs><style>.cls-1{fill:#e0f1f6;}.cls-2{fill:#1880bd;}</style></defs><title>peo</title><path class="cls-1" d="M62.48,33.46A29.44,29.44,0,1,0,14,55.87,16.15,16.15,0,0,1,30,41.56h6.1a16.14,16.14,0,0,1,16,14.31A29.35,29.35,0,0,0,62.48,33.46ZM33,39.49A9.48,9.48,0,1,1,42.51,30,9.48,9.48,0,0,1,33,39.49Z" transform="translate(-2.1 -2.52)"/><path class="cls-2" d="M46.64,34.42a2.07,2.07,0,0,1-.35,0,2,2,0,0,1-1.62-2.32,11.82,11.82,0,1,0-23.26,0,2,2,0,1,1-3.94.69,15.82,15.82,0,1,1,31.14,0A2,2,0,0,1,46.64,34.42Z" transform="translate(-2.1 -2.52)"/><path class="cls-1" d="M33,64.4A30.94,30.94,0,1,1,64,33.46,31,31,0,0,1,33,64.4ZM33,5.52A27.94,27.94,0,1,0,61,33.46,28,28,0,0,0,33,5.52Z" transform="translate(-2.1 -2.52)"/></svg>