<?xml version="1.0" encoding="utf-8"?>
<!-- Generator: Adobe Illustrator 16.0.0, SVG Export Plug-In . SVG Version: 6.00 Build 0)  -->
<!DOCTYPE svg PUBLIC "-//W3C//DTD SVG 1.1//EN" "http://www.w3.org/Graphics/SVG/1.1/DTD/svg11.dtd">
<svg version="1.1" id="圖層_1" xmlns="http://www.w3.org/2000/svg" xmlns:xlink="http://www.w3.org/1999/xlink" x="0px" y="0px"
	 width="26.584px" height="26.584px" viewBox="0 0 26.584 26.584" enable-background="new 0 0 26.584 26.584" xml:space="preserve">
<g>
	<path fill-rule="evenodd" clip-rule="evenodd" fill="#FFFFFF" d="M26.244,13.288c-0.01,7.109-5.813,12.904-12.914,12.895
		c-7.109-0.01-12.906-5.814-12.895-12.914C0.447,6.157,6.242,0.37,13.348,0.374C20.451,0.378,26.254,6.188,26.244,13.288z
		 M18.021,22.394c-0.92-1.594-1.828-3.168-2.713-4.703c-0.326,0.066-0.602,0.152-0.881,0.168c-0.723,0.045-1.318-0.287-1.834-0.74
		c-1.395-1.225-2.248-2.771-2.578-4.588c-0.178-0.98-0.113-1.934,0.809-2.605c-0.918-1.59-1.828-3.164-2.76-4.779
		c-0.363,0.24-0.701,0.451-1.023,0.684c-0.795,0.57-1.162,1.361-1.174,2.33c-0.01,1.043,0.174,2.055,0.455,3.051
		c0.742,2.621,1.984,5,3.555,7.211c1.1,1.551,2.346,2.973,3.932,4.051C15.26,23.46,16.348,23.458,18.021,22.394z M13.701,8.542
		c-0.066-0.188-0.09-0.314-0.15-0.42c-0.844-1.471-1.689-2.939-2.541-4.404c-0.215-0.373-0.533-0.463-0.904-0.26
		c-0.434,0.234-0.859,0.48-1.281,0.736c-0.357,0.215-0.449,0.549-0.24,0.914c0.85,1.479,1.703,2.957,2.563,4.432
		C11.342,9.872,11.67,9.968,12,9.788c0.455-0.244,0.908-0.492,1.338-0.777C13.498,8.905,13.59,8.69,13.701,8.542z M17.662,15.692
		c-0.182,0.055-0.277,0.064-0.354,0.109c-0.469,0.264-0.941,0.525-1.396,0.809c-0.311,0.195-0.375,0.537-0.18,0.877
		c0.844,1.471,1.691,2.939,2.545,4.404c0.213,0.367,0.539,0.459,0.904,0.258c0.432-0.236,0.859-0.484,1.279-0.74
		c0.346-0.207,0.447-0.537,0.252-0.881c-0.854-1.492-1.711-2.982-2.586-4.461C18.023,15.896,17.795,15.798,17.662,15.692z"/>
	<path fill-rule="evenodd" clip-rule="evenodd" fill="#2B2125" d="M18.021,22.394c-1.674,1.064-2.762,1.066-4.213,0.078
		c-1.586-1.078-2.832-2.5-3.932-4.051c-1.57-2.211-2.813-4.59-3.555-7.211c-0.281-0.996-0.465-2.008-0.455-3.051
		c0.012-0.969,0.379-1.76,1.174-2.33c0.322-0.232,0.66-0.443,1.023-0.684c0.932,1.615,1.842,3.189,2.76,4.779
		c-0.922,0.672-0.986,1.625-0.809,2.605c0.33,1.816,1.184,3.363,2.578,4.588c0.516,0.453,1.111,0.785,1.834,0.74
		c0.279-0.016,0.555-0.102,0.881-0.168C16.193,19.226,17.102,20.8,18.021,22.394z"/>
	<path fill-rule="evenodd" clip-rule="evenodd" fill="#2B2125" d="M13.701,8.542c-0.111,0.148-0.203,0.363-0.363,0.469
		C12.908,9.296,12.455,9.544,12,9.788c-0.33,0.18-0.658,0.084-0.854-0.248c-0.859-1.475-1.713-2.953-2.563-4.432
		c-0.209-0.365-0.117-0.699,0.24-0.914c0.422-0.256,0.848-0.502,1.281-0.736c0.371-0.203,0.689-0.113,0.904,0.26
		c0.852,1.465,1.697,2.934,2.541,4.404C13.611,8.228,13.635,8.354,13.701,8.542z"/>
	<path fill-rule="evenodd" clip-rule="evenodd" fill="#2B2125" d="M17.662,15.692c0.133,0.105,0.361,0.203,0.465,0.375
		c0.875,1.479,1.732,2.969,2.586,4.461c0.195,0.344,0.094,0.674-0.252,0.881c-0.42,0.256-0.848,0.504-1.279,0.74
		c-0.365,0.201-0.691,0.109-0.904-0.258c-0.854-1.465-1.701-2.934-2.545-4.404c-0.195-0.34-0.131-0.682,0.18-0.877
		c0.455-0.283,0.928-0.545,1.396-0.809C17.385,15.757,17.48,15.747,17.662,15.692z"/>
</g>
</svg>
