<?xml version="1.0" encoding="utf-8"?>
<!-- Generator: Adobe Illustrator 16.0.0, SVG Export Plug-In . SVG Version: 6.00 Build 0)  -->
<!DOCTYPE svg PUBLIC "-//W3C//DTD SVG 1.1//EN" "http://www.w3.org/Graphics/SVG/1.1/DTD/svg11.dtd">
<svg version="1.1" id="圖層_1" xmlns="http://www.w3.org/2000/svg" xmlns:xlink="http://www.w3.org/1999/xlink" x="0px" y="0px"
	 width="75.974px" height="97.403px" viewBox="0 0 75.974 97.403" enable-background="new 0 0 75.974 97.403" xml:space="preserve">
<path fill="#8A8281" d="M72.778,74.082c0,8.751-14.938,15.843-33.365,15.843S6.05,82.831,6.05,74.082
	c0-8.747,14.936-15.841,33.363-15.841S72.778,65.335,72.778,74.082"/>
<path fill="#8A8281" d="M72.778,69.484c0,8.747-14.938,15.843-33.365,15.843S6.05,78.231,6.05,69.484s14.936-15.842,33.363-15.842
	S72.778,60.737,72.778,69.484"/>
<path fill="#C4BFB9" d="M72.778,69.484c0,8.747-14.938,15.843-33.365,15.843S6.05,78.231,6.05,69.484s14.936-15.842,33.363-15.842
	S72.778,60.737,72.778,69.484"/>
<path fill="#8A8281" d="M68.345,66.063c0,7.588-12.955,13.738-28.932,13.738c-15.98,0-28.939-6.152-28.939-13.738
	c0-7.585,12.959-13.734,28.939-13.734C55.39,52.328,68.345,58.478,68.345,66.063"/>
<path fill="#8A8281" d="M68.345,62.075c0,7.587-12.955,13.737-28.932,13.737c-15.98,0-28.939-6.152-28.939-13.737
	c0-7.586,12.959-13.737,28.939-13.737C55.39,48.338,68.345,54.489,68.345,62.075"/>
<polygon fill="#8A8281" points="68.345,66.352 66.901,68.027 66.901,62.323 68.345,62.323 "/>
<path fill="#C4BFB9" d="M68.345,62.075c0,7.587-12.955,13.737-28.932,13.737c-15.98,0-28.939-6.152-28.939-13.737
	c0-7.586,12.959-13.737,28.939-13.737C55.39,48.338,68.345,54.489,68.345,62.075"/>
<path fill="#B21E24" d="M62.558,59.429c0,6.792-10.578,12.296-23.625,12.296c-13.049,0-23.627-5.504-23.627-12.296
	c0-6.791,10.578-12.293,23.627-12.293C51.979,47.135,62.558,52.638,62.558,59.429"/>
<path fill="#8BC778" d="M30.239,42.656c0,6.527-1.898,10.707-4.697,11.712c-2.32,0.83-5.014-5.183-5.014-11.708
	c0-6.526,2.826-12.865,5.014-11.717C27.983,32.224,30.239,36.131,30.239,42.656"/>
<path fill="#E60012" d="M51.05,31.45c-0.002,0.001-0.004,0.003-0.006,0.004V31.45l-12.299,6.445l-0.001,0.058
	c-0.062-0.05-0.127-0.108-0.183-0.137l-13.125-6.872v23.422l7.433-2.652l0.003,9.161h0.094c-0.061,0.173-0.098,0.35-0.098,0.531
	c0,1.673,2.705,3.034,6.049,3.034c3.34,0,6.049-1.358,6.049-3.034c0-0.182-0.037-0.358-0.099-0.531h0.103l-0.003-8.721l5.429,2.112
	v-0.01c0.082,0.037,0.161,0.081,0.244,0.111c2.709,1.005,4.809-5.152,4.809-11.51C55.448,36.498,53.651,29.96,51.05,31.45z"/>
<path fill="#BD0511" d="M29.136,42.586c0,6.505-1.74,11.859-4.088,11.859c-2.346,0-4.52-5.354-4.52-11.859
	c0-6.507,2.076-11.504,4.406-11.775C26.673,30.607,29.136,36.082,29.136,42.586"/>
<path opacity="0.65" fill="#E60012" d="M62.556,29.057c-0.08-10.529-10.629-19.045-23.623-19.045S15.392,18.53,15.31,29.057h-0.004
	v0.122v30.256c0,6.791,10.576,12.291,23.627,12.291c13.047,0,23.625-5.5,23.625-12.291V29.178L62.556,29.057L62.556,29.057z"/>
<path fill="#E60012" d="M62.556,29.057c-0.08-10.529-10.629-19.045-23.623-19.045c-0.254,0-0.504,0.008-0.762,0.015
	c0.012,0,13.41,0.633,15.061,19.03c0.107,1.207,0.166,2.492,0.166,3.857v11.412v5.392v9.717v9.719c5.57-2.252,9.16-5.766,9.16-9.719
	V29.178C62.558,29.135,62.556,29.096,62.556,29.057"/>
<path fill="#E60012" d="M26.38,12.938c-6.609,3.368-11.021,9.322-11.074,16.113h-0.004v30.377c0,2.168,1.084,4.201,2.973,5.971
	c0-0.016,0.014-2.395,0.021-5.971c0.004-1.762,0.012-3.807,0.018-6.004c0.023-9.679,0.035-22.276-0.035-25.982
	C18.089,17.942,25.448,13.466,26.38,12.938"/>
<path fill="#FFFFFF" d="M30.546,17.113c0.744,1.175-0.299,3.162-2.328,4.438c-2.031,1.281-4.27,1.363-5.012,0.189
	c-0.742-1.174,0.305-3.164,2.332-4.44C27.563,16.024,29.806,15.941,30.546,17.113"/>
</svg>
