<?xml version="1.0" encoding="utf-8"?>
<!-- Generator: Adobe Illustrator 23.0.2, SVG Export Plug-In . SVG Version: 6.00 Build 0)  -->
<svg version="1.1" id="圖層_1" xmlns="http://www.w3.org/2000/svg" xmlns:xlink="http://www.w3.org/1999/xlink" x="0px" y="0px"
	 viewBox="0 0 408.3 356.3" style="enable-background:new 0 0 408.3 356.3;" xml:space="preserve">
<style type="text/css">
	.st0{fill:#FFFFFF;}
	.st1{fill:#231815;stroke:#231815;stroke-width:1.464;stroke-miterlimit:10;}
	.st2{fill:#246F9C;stroke:#246F9C;stroke-width:0.1799;stroke-miterlimit:10;}
	.st3{fill:#2D3457;}
</style>
<title>sfgr</title>
<path class="st0" d="M33,0h268c18.2,0,33,14.8,33,33v225.4c0,18.2-14.8,33-33,33H33c-18.2,0-33-14.8-33-33V33C0,14.8,14.8,0,33,0z"
	/>
<path class="st1" d="M306.2,41.4H17.1c-1.4,0-2.6-0.1-2.6-0.3l0,0c0-0.2,1.1-0.3,2.6-0.3h289.1c1.4,0,2.6,0.1,2.6,0.3l0,0
	C308.7,41.2,307.6,41.4,306.2,41.4z"/>
<path class="st1" d="M306.2,247.6H17.1c-1.4,0-2.6-0.1-2.6-0.3l0,0c0-0.2,1.1-0.3,2.6-0.3h289.1c1.4,0,2.6,0.1,2.6,0.3l0,0
	C308.7,247.5,307.6,247.6,306.2,247.6z"/>
<path class="st2" d="M35.4,26.6h-1.5v-2.8h-5.3v3.4h-1.5v-3.4h-5v2.8h-1.5v-4.1h6.5v-0.6h-5.8v-1.3h13.3v1.3h-6v0.6h6.8V26.6z
	 M35.7,33.7c-0.1,0.5-0.2,0.9-0.5,1.3c-0.2,0.3-0.4,0.5-0.7,0.5c-1.1,0.1-2.1,0.1-3.2,0.1c-1.5,0-2.5,0-3-0.1c-0.4,0-0.7-0.2-1-0.4
	c-0.2-0.3-0.3-0.7-0.3-1.1v-1h-5.7v-5.4h12.7V33h-5.6v0.5c0,0.2,0.1,0.4,0.3,0.5c1,0.1,2,0.1,3.1,0.1c0.8,0,1.3,0,1.5,0
	c0.2,0,0.3-0.1,0.4-0.2c0.1-0.2,0.2-0.4,0.1-0.5L35.7,33.7z M26.7,26.7c-1.3,0.2-2.5,0.3-3.8,0.4l-0.3-1c1.3,0,2.6-0.1,3.8-0.3
	L26.7,26.7z M26.6,24.4l-0.3,1c-1.2-0.2-2.4-0.2-3.6-0.3l0.3-1C24.3,24.2,25.4,24.3,26.6,24.4L26.6,24.4z M27.1,29.7v-0.9H23v0.9
	L27.1,29.7z M27.1,31.9v-1H23v1L27.1,31.9z M32.7,29.7v-0.9h-4.1v0.9L32.7,29.7z M32.7,31.9v-1h-4.1v1L32.7,31.9z M33.4,25
	c-1.3,0.2-2.6,0.3-3.9,0.4l-0.4-1c1.2,0,2.5-0.1,3.7-0.3L33.4,25z M33.3,26.2l-0.2,1c-1.3-0.2-2.6-0.4-3.9-0.4l0.4-1
	C30.8,25.9,32,26,33.3,26.2L33.3,26.2z"/>
<path class="st2" d="M55.2,24.9c0,1.3-0.2,2.1-0.4,2.4c-0.2,0.2-0.5,0.4-0.8,0.4l-0.7,0.1v5.8h-7.6l0.7,0.8
	c-1.9,0.7-3.8,1.2-5.8,1.3L40,34.5c1.6-0.1,3.2-0.4,4.7-0.8h-2.5v-5.2c-0.6,0.1-1.1,0.2-1.7,0.3L40,27.4c1.9-0.2,3.3-0.7,4.1-1.5
	h-3.4l0.6-2.9h3.8v-0.8h-4.6v-1.1h4.6v-0.8h1.5v0.8H49v-0.8h1.5v0.8h4.1v2.9h-4.1v0.8L55.2,24.9z M44.9,24.1h-2.4l-0.1,0.8h2.3
	C44.8,24.6,44.9,24.3,44.9,24.1L44.9,24.1z M51.8,29v-0.7h-7.9V29L51.8,29z M51.8,30.8V30h-7.9v0.8H51.8z M51.8,32.6v-0.8h-7.9v0.8
	H51.8z M53.7,26h-3.1v0.9H49v-0.9h-3.2c-0.3,0.5-0.7,0.9-1.1,1.3h7.9l-0.3-0.7c0.4,0.1,0.8,0,1.1-0.1C53.6,26.4,53.7,26.2,53.7,26
	L53.7,26z M49,24.9v-0.8h-2.5c0,0.3-0.1,0.6-0.2,0.8H49z M49,23v-0.8h-2.5V23H49z M55.5,34.6l-0.7,1.2c-1.8-0.4-3.5-0.7-5.3-0.8
	l0.6-1.2C52,33.9,53.8,34.2,55.5,34.6z M53.1,23v-0.8h-2.5V23H53.1z"/>
<path class="st2" d="M75.3,25.4l-0.8,1.4c-0.9-0.4-1.8-0.8-2.6-1.3v1h-3.6v1.7h5.9v1.5h-5.9v4.1h6.4v1.5H60.4v-1.5h6.3v-4.1h-5.8
	v-1.5h5.8v-1.7h-3.7v-0.9c-0.8,0.5-1.6,0.9-2.4,1.2l-1-1.3c3.6-1.6,6.1-3.3,7.5-5.2l1.6,0.4c-0.1,0.1-0.1,0.2-0.2,0.3
	C69.8,22.5,72.1,23.9,75.3,25.4z M65.5,32.9L64,33.4c-0.6-1-1.2-1.9-2-2.7l1.5-0.6C64.3,30.9,64.9,31.9,65.5,32.9L65.5,32.9z
	 M71.1,24.9c-1.3-0.8-2.5-1.7-3.6-2.7c-1.1,1-2.2,1.9-3.5,2.7H71.1z M73.1,30.6c-0.5,1-1.2,1.9-1.9,2.8l-1.5-0.7
	c0.7-0.8,1.4-1.7,1.9-2.6L73.1,30.6z"/>
<path class="st2" d="M87.6,29l-0.7,1.3c-1-0.7-2.1-1.3-3.2-1.9c-1.1,0.8-2.4,1.5-3.7,2l-0.8-1.3c1.1-0.3,2.1-0.8,3-1.4
	c-0.6-0.3-1.1-0.5-1.3-0.6c-0.2,0.1-0.3,0.3-0.5,0.4l-1.1-1c1.2-0.9,2.2-2.1,3-3.4l1.3,0.4c-0.1,0.2-0.2,0.4-0.3,0.6h3v1.3
	c-0.5,0.7-1,1.4-1.6,2C85.9,28,86.8,28.5,87.6,29z M87.2,23.7h-1.5v-0.8h-4.2v0.9h-1.5v-2.3h2.8c-0.1-0.3-0.3-0.7-0.4-1l1.5-0.3
	c0.2,0.4,0.4,0.9,0.5,1.3h2.9L87.2,23.7z M86.3,35.6h-1.5v-0.5h-2.7v0.5h-1.5v-5.2h5.7L86.3,35.6z M84.7,25.4h-2.2
	c-0.2,0.2-0.4,0.5-0.6,0.7c0.8,0.3,1.3,0.5,1.6,0.7C84,26.4,84.4,25.9,84.7,25.4L84.7,25.4z M84.8,33.7v-2h-2.7v2H84.8z M94.9,22H92
	c-0.1,0.5-0.2,1-0.4,1.5h2.7v8.8h-4.5l0.9,0.9c-0.9,1-1.9,1.8-3.1,2.5l-1-1.2c1.1-0.5,2.1-1.3,2.9-2.2H88v-8.8h2
	c0.2-0.5,0.3-1,0.4-1.5h-2.7v-1.4h7.2L94.9,22z M92.8,26v-1.1h-3.3V26L92.8,26z M92.8,28.4v-1.2h-3.3v1.2L92.8,28.4z M92.8,31v-1.3
	h-3.3V31L92.8,31z M95,34.5l-0.9,1.2c-0.8-0.8-1.8-1.4-2.8-1.9l0.9-1.2C93.3,33.1,94.2,33.7,95,34.5L95,34.5z"/>
<path class="st3" d="M26.7,85.6c-0.5,1.4-1.2,2.7-2.2,3.9c-0.9,1.2-2,2.3-3.2,3.3l-1.1-1.2c2.3-1.6,4.1-3.9,5.1-6.5L26.7,85.6z
	 M33.1,91.4c0,1.6-0.1,3.3-0.2,4.9c0,1-0.2,2-0.4,3c-0.2,0.4-0.4,0.7-0.8,0.9c-0.4,0.2-0.8,0.3-1.2,0.3c-1.1,0-1.8,0-2.2,0L27.7,99
	c0.8,0.1,1.7,0.1,2.6,0.1c0.2,0,0.4-0.1,0.6-0.2c0.2-0.1,0.3-0.8,0.4-2.2c0.1-1.3,0.2-2.6,0.2-3.6h-3.8c-0.4,3.3-2.6,6.2-5.6,7.5
	l-1.1-1.2c1.3-0.5,2.4-1.3,3.3-2.4c1-1.1,1.6-2.5,1.8-4h-2.8v-1.5L33.1,91.4z M35.8,91.6l-1,1.3c-2-1.6-3.5-3.7-4.4-6h-1.6v-1.5h2.6
	C32.1,87.8,33.7,90,35.8,91.6L35.8,91.6z"/>
<path class="st3" d="M44,89.4h-1V92c0.2-0.2,0.5-0.3,0.8-0.5L44,93c-0.3,0.3-0.6,0.5-1,0.7v5.4c0,0.9-0.4,1.4-1.3,1.4
	c-0.5,0-0.8,0-1,0L40.2,99h1.1c0.1,0,0.1,0,0.2-0.1c0,0,0.1-0.1,0.1-0.2v-4.2c-0.4,0.2-0.7,0.4-1.1,0.6L40,93.7
	c0.5-0.2,1.1-0.5,1.6-0.8v-3.4h-1.4v-1.4h1.3v-2.9h1.4v2.9h1V89.4z M50.2,87.3h-1v1.9h-1.4V90h1.9v3.3h-1.9c0,0.1,0,0.4,0,0.8h2.2
	v1.2h-2.3c0,0.3-0.1,0.6-0.2,0.8H50v1.2H47c-0.6,1.3-1.5,2.4-2.6,3.3l-1-1.1c0.8-0.6,1.5-1.4,2-2.2h-1.6v-1.2h2.2
	c0.1-0.3,0.2-0.5,0.2-0.8h-1.9v-1.2h2.1c0-0.3,0.1-0.5,0.1-0.8h-1.9V90h1.9v-0.8h-1.5v-1.9h-1v-1.2h1v-0.9h1.4v0.9h1.5v-0.9h1.4v0.9
	h1L50.2,87.3z M46.3,92.2v-1h-0.8v1H46.3z M47.7,88.1v-0.8h-1.5v0.8H47.7z M50.2,99.5l-1.1,0.9c-0.6-0.8-1.3-1.4-2.1-2l1-0.9
	C48.8,98.1,49.6,98.8,50.2,99.5L50.2,99.5z M48.5,92.2v-1h-0.8v1H48.5z M55.4,99.7h-3.6v0.8h-1.3V90.4c-0.1,0.2-0.2,0.4-0.4,0.5
	l-0.6-1.6c0.8-1.4,1.4-2.8,1.7-4.4l1.3,0.4c-0.2,0.9-0.5,1.8-0.8,2.6h1.3c-0.1-0.8-0.2-1.7-0.4-2.5l1.3-0.2c0.2,0.9,0.3,1.8,0.4,2.7
	h1v1.4H54v2h1.1v1.3H54v2h1.1v1.3H54v2.1h1.5L55.4,99.7z M52.6,91.4v-2h-0.8v2H52.6z M52.6,94.8v-2h-0.8v2H52.6z M52.6,98.2v-2.1
	h-0.8v2.1H52.6z"/>
<path class="st3" d="M66.3,85.6c-1.1,3.1-3.1,5.8-5.6,7.8l-1-1.3c2.4-1.8,4.1-4.2,5.1-7L66.3,85.6z M74.2,99.6l-1.4,1
	c-0.3-0.7-0.6-1.3-1-2c-2.7,0.6-6,1.2-9.9,1.7L61.4,99c1.5-1.1,3.3-4.1,5.3-8.9l1.6,0.5c-1.1,2.8-2.6,5.5-4.4,8
	c2.4-0.3,4.8-0.7,7.1-1.2c-0.4-0.6-1-1.5-1.8-2.7l1.3-0.8C71.9,95.6,73.2,97.6,74.2,99.6z M75.3,92.1l-0.9,1.4c-2.3-1.7-4-4-4.9-6.7
	h-1.4v-1.5h2.5C71.4,88,73,90.4,75.3,92.1z"/>
<path class="st3" d="M94,98.7c0,0.5-0.2,0.9-0.5,1.3c-0.5,0.4-1.2,0.6-1.8,0.5c-0.4,0-0.8,0-1.2,0l-0.5-1.5h2c0.1,0,0.3-0.1,0.4-0.2
	c0.1-0.1,0.2-0.2,0.2-0.4v-3.2h-4.3v4.9h-1.5v-4.9h-4.3c-0.1,1.9-0.6,3.7-1.6,5.4l-1.4-0.9c0.6-0.9,0.9-1.9,1.1-2.9
	c0.3-1.1,0.4-2.3,0.4-3.5v-7.8h13V98.7z M86.6,89.6V87h-4.1v2.6H86.6z M86.6,93.7V91h-4.1v2.6H86.6z M92.4,89.6V87h-4.3v2.6H92.4z
	 M92.4,93.7V91h-4.3v2.6H92.4z"/>
<path class="st3" d="M114.2,91.4h-1.5v-2.8h-5.3V92H106v-3.4h-5v2.8h-1.5v-4.1h6.5v-0.6h-5.8v-1.3h13.3v1.3h-6v0.6h6.8L114.2,91.4z
	 M114.5,98.5c-0.1,0.5-0.2,0.9-0.5,1.3c-0.2,0.3-0.4,0.5-0.7,0.5c-1.1,0.1-2.1,0.1-3.2,0.1c-1.5,0-2.5,0-3-0.1c-0.4,0-0.7-0.2-1-0.4
	c-0.2-0.3-0.3-0.7-0.3-1.1v-1h-5.7v-5.4H113v5.4h-5.6v0.5c0,0.2,0.1,0.4,0.3,0.5c1,0.1,2,0.1,3.1,0.1c0.8,0,1.3,0,1.5,0
	c0.2,0,0.3-0.1,0.4-0.2c0.1-0.2,0.1-0.4,0.1-0.5L114.5,98.5z M105.6,91.6c-1.3,0.2-2.5,0.3-3.8,0.4l-0.3-1c1.3,0,2.6-0.1,3.8-0.3
	L105.6,91.6z M105.5,89.3l-0.3,1c-1.2-0.2-2.4-0.2-3.6-0.3l0.3-1C103.1,89,104.3,89.1,105.5,89.3L105.5,89.3z M106,94.6v-0.9h-4.1
	v0.9H106z M106,96.7v-1h-4.1v1L106,96.7z M111.6,94.6v-0.9h-4.1v0.9H111.6z M111.6,96.7v-1h-4.1v1L111.6,96.7z M112.2,89.8
	c-1.3,0.2-2.6,0.3-3.9,0.4l-0.4-1c1.2,0,2.5-0.1,3.7-0.3L112.2,89.8z M112.1,91.1l-0.2,1c-1.3-0.2-2.6-0.4-3.9-0.4l0.4-1
	C109.6,90.7,110.9,90.8,112.1,91.1L112.1,91.1z"/>
<path class="st3" d="M134,89.7c0,1.3-0.2,2.2-0.4,2.4c-0.2,0.2-0.5,0.4-0.8,0.4l-0.7,0.1v5.8h-7.6l0.7,0.8c-1.8,0.7-3.8,1.2-5.8,1.3
	l-0.7-1.2c1.6-0.1,3.2-0.4,4.7-0.8h-2.5v-5.1c-0.6,0.1-1.1,0.2-1.7,0.3l-0.6-1.4c1.9-0.2,3.3-0.7,4.1-1.5h-3.4l0.6-2.9h3.8V87h-4.6
	V86h4.6v-0.8h1.5V86h2.5v-0.8h1.5V86h4.1v2.9h-4.1v0.8L134,89.7z M123.8,88.9h-2.4l-0.1,0.8h2.3C123.7,89.4,123.7,89.2,123.8,88.9
	L123.8,88.9z M130.6,93.9v-0.7h-7.9v0.7H130.6z M130.6,95.6v-0.8h-7.9v0.8L130.6,95.6z M130.6,97.4v-0.8h-7.9v0.8H130.6z
	 M132.5,90.8h-3.1v0.8h-1.5v-0.8h-3.2c-0.3,0.5-0.7,0.9-1.1,1.3h7.9l-0.3-0.7c0.4,0.1,0.8,0,1.1-0.1C132.4,91.2,132.5,91,132.5,90.8
	L132.5,90.8z M127.9,89.7v-0.8h-2.5c0,0.3-0.1,0.6-0.2,0.8H127.9z M127.9,87.8V87h-2.5v0.8H127.9z M134.4,99.5l-0.7,1.2
	c-1.8-0.4-3.5-0.7-5.3-0.8l0.6-1.2C130.8,98.7,132.6,99,134.4,99.5L134.4,99.5z M131.9,87.8V87h-2.5v0.8H131.9z"/>
<path class="st3" d="M24.2,61.2l-1,1.3c-0.9-0.9-1.9-1.7-3-2.3l0.9-1.3C22.3,59.5,23.3,60.3,24.2,61.2z M24.1,64
	c-0.6,2.1-1.4,4.2-2.5,6.1l-1.3-0.9c1.1-1.9,1.9-3.9,2.5-5.9L24.1,64z M24.2,57l-1.1,1.2c-0.8-1-1.7-1.8-2.7-2.6l1.1-1.2
	C22.6,55.1,23.5,56,24.2,57z M27.3,62.6c0,0.3,0,0.5,0,0.8c0.1,1.5-0.2,2.9-0.7,4.3c-0.4,1-1.1,1.8-2,2.5l-1.1-1.1
	c1.5-0.9,2.3-2.7,2.3-5.5c0-0.3,0-0.6,0-1L27.3,62.6z M35.7,61.7l-1.5,0.7c-0.2-0.4-0.5-0.7-0.7-1.1c-3.7,0.3-6.5,0.5-8.6,0.5
	l-0.3-1.3c1.1-0.7,2.1-1.7,2.8-2.8h-2.8v-1.4h3.8c0.2-0.4,0.5-1,0.9-1.8l1.6,0.3c-0.2,0.5-0.4,1-0.7,1.4h5.3v1.4h-6.2
	c-0.6,1-1.4,1.8-2.3,2.6c1.8,0,3.6-0.1,5.4-0.3c-0.3-0.4-0.7-0.8-1.1-1.2l1.5-0.7C33.9,59.2,34.9,60.4,35.7,61.7z M30.4,70h-1.5
	v-7.4h1.5V70z M35.7,69.9h-2.3c-0.4,0-0.7-0.1-1-0.4c-0.2-0.3-0.4-0.6-0.4-0.9v-6h1.5V68c0,0.1,0,0.2,0.1,0.3c0,0.1,0.1,0.1,0.2,0.1
	h1.8V69.9z"/>
<path class="st3" d="M48.6,58.7h-3.4v1h3v5.2h-3v1h3v1.2h-3v1.1c1-0.1,2.1-0.2,3.1-0.4l0.1,1.3c-2.5,0.4-5.2,0.8-8.1,1.1l-0.3-1.3
	l3.8-0.4v-1.3h-3.1v-1.2h3.1v-1h-3.1v-5.1h3.1v-1h-3.5v-1.3h3.5v-1c-0.8,0.1-1.7,0.2-2.8,0.2l-0.4-1.2c2.4-0.1,4.8-0.4,7.1-0.8
	l0.6,1.1c-0.8,0.2-1.9,0.4-3.2,0.5v1.2h3.4V58.7z M43.8,61.7v-0.9h-1.6v0.9L43.8,61.7z M43.8,63.7v-0.9h-1.6v0.9H43.8z M46.8,61.7
	v-0.9h-1.6v0.9L46.8,61.7z M46.8,63.7v-0.9h-1.6v0.9H46.8z M55.1,57.9c0,2.5-0.1,4.8-0.2,7.1c0,1.3-0.1,2.6-0.3,3.9
	c-0.1,0.3-0.3,0.6-0.6,0.8c-0.4,0.2-0.9,0.3-1.4,0.3c-0.3,0-0.6,0-0.9,0l-0.4-1.5c0.4,0,0.8,0,1.1,0c0.5,0,0.8-0.1,0.9-0.2
	c0.2-1,0.3-2.1,0.3-3.1c0.1-2,0.2-3.9,0.1-5.8h-1.5c0.1,3.7-0.7,7.3-2.4,10.7l-1.4-0.7c1.6-3.1,2.4-6.5,2.2-10h-1.5v-1.5h1.6
	c0-1.4,0-2.5,0-3.2h1.6c0,1.1,0,2.2-0.1,3.2L55.1,57.9z"/>
<path class="st3" d="M74.8,60.9h-1.5v-2.8H68v3.4h-1.5v-3.4h-5v2.8h-1.5v-4.1h6.5v-0.6h-5.8v-1.3H74v1.3h-6v0.6h6.8V60.9z M75.1,68
	c-0.1,0.5-0.2,0.9-0.5,1.3c-0.2,0.3-0.4,0.5-0.7,0.5C72.9,70,71.8,70,70.8,70c-1.5,0-2.5,0-3-0.1c-0.4,0-0.7-0.2-1-0.4
	c-0.2-0.3-0.3-0.7-0.3-1.1v-1h-5.6V62h12.7v5.4H68v0.5c0,0.2,0.1,0.4,0.3,0.5c1,0.1,2,0.1,3.1,0.1c0.8,0,1.3,0,1.5,0
	c0.2,0,0.3-0.1,0.4-0.2c0.1-0.2,0.1-0.4,0.1-0.6L75.1,68z M66.1,61.1c-1.3,0.2-2.5,0.3-3.8,0.4l-0.3-1c1.3,0,2.6-0.1,3.8-0.3
	L66.1,61.1z M66,58.8l-0.3,1c-1.2-0.2-2.4-0.3-3.6-0.3l0.3-1C63.7,58.5,64.9,58.6,66,58.8L66,58.8z M66.5,64.1v-0.9h-4.1v0.9H66.5z
	 M66.5,66.2v-1h-4.1v1H66.5z M72.1,64.1v-0.9h-4.1v0.9H72.1z M72.1,66.2v-1h-4.1v1H72.1z M72.8,59.3c-1.3,0.2-2.6,0.3-3.9,0.4
	l-0.4-1c1.2,0,2.5-0.1,3.7-0.3L72.8,59.3z M72.7,60.5l-0.2,1c-1.3-0.2-2.6-0.4-3.9-0.4l0.4-1C70.2,60.1,71.5,60.3,72.7,60.5z"/>
<path class="st3" d="M94.6,59.2c0,1.4-0.2,2.2-0.4,2.4C94,61.8,93.7,62,93.4,62l-0.7,0.1V68h-7.6l0.7,0.8c-1.9,0.7-3.8,1.2-5.8,1.3
	l-0.7-1.2c1.6-0.1,3.2-0.4,4.7-0.8h-2.5v-5.2c-0.6,0.1-1.1,0.2-1.7,0.3l-0.6-1.4c1.9-0.2,3.3-0.7,4.1-1.5h-3.4l0.6-2.9h3.8v-0.8
	h-4.6v-1.1h4.6v-0.8H86v0.8h2.5v-0.8h1.5v0.8H94v2.9h-4.1v0.8L94.6,59.2z M84.4,58.4H82l-0.1,0.8h2.3C84.2,58.9,84.3,58.7,84.4,58.4
	L84.4,58.4z M91.2,63.4v-0.7h-7.9v0.7H91.2z M91.2,65.1v-0.8h-7.9v0.8H91.2z M91.2,66.9v-0.8h-7.9v0.8H91.2z M93.1,60.3H90v0.8h-1.5
	v-0.8h-3.2c-0.3,0.5-0.7,0.9-1.1,1.3H92l-0.3-0.7c0.4,0.1,0.8,0,1.1-0.1C93,60.7,93.1,60.5,93.1,60.3L93.1,60.3z M88.5,59.2v-0.8
	h-2.5c0,0.3-0.1,0.6-0.2,0.8H88.5z M88.5,57.3v-0.8H86v0.8H88.5z M95,69l-0.7,1.2c-1.8-0.4-3.5-0.7-5.4-0.8l0.6-1.2
	C91.4,68.2,93.2,68.5,95,69L95,69z M92.5,57.3v-0.8H90v0.8H92.5z"/>
<path class="st3" d="M40.1,261.6H27.4l-0.6,3.7c1.2-1,2.1-2.1,2.9-3.5l1.4,0.3c-0.5,0.8-1,1.5-1.5,2.2l-0.9,5.5h-1.5l0.6-3.6
	l-0.8,0.6l-0.3-1.4l-0.6,3.7c-0.3,2-1.1,3.9-2.2,5.6l-1.1-1c1-1.6,1.7-3.4,1.9-5.3l1.3-8.1h6.2c-0.1-0.3-0.2-0.6-0.4-0.8l1.8-0.3
	c0.2,0.4,0.3,0.7,0.4,1.1h6.3L40.1,261.6z M28.7,271c-0.6,1.2-1.4,2.4-2.3,3.4l-1.1-0.8c0.9-0.9,1.6-1.9,2.1-3L28.7,271z
	 M35.8,272.5c-0.3,1.4-1,2-2.1,2h-3.6c-0.9,0-1.3-0.4-1.2-1.3l0.4-2.7h1.5l-0.4,2.2c0,0.1,0,0.3,0.2,0.3c0.4,0.1,0.9,0.1,1.3,0.1
	c0.6,0,1.3,0,1.9-0.1c0.1-0.1,0.2-0.3,0.3-0.5c0.1-0.2,0.2-0.4,0.2-0.7L35.8,272.5z M38.7,269.9H30l0.6-3.6
	c-0.1,0.1-0.3,0.3-0.5,0.4l-0.4-1.4c1.2-1,2.1-2.2,2.9-3.5l1.3,0.4c-0.2,0.3-0.4,0.6-0.6,0.9h1.8c-0.1-0.3-0.2-0.6-0.4-0.9l1.6-0.2
	c0.2,0.4,0.3,0.7,0.4,1.1h2.8l-0.2,1.2h-3.1l-0.1,0.7h2.9l-0.2,1.1H36l-0.1,0.7h2.9l-0.2,1.1h-2.9l-0.1,0.8h3.3L38.7,269.9z
	 M34.1,272l-1.4,0.6c-0.3-0.7-0.6-1.3-1-1.8l1.4-0.6C33.5,270.7,33.8,271.3,34.1,272z M34.1,268.7l0.1-0.8h-2.5l-0.1,0.8H34.1z
	 M34.4,266.8l0.1-0.7h-2.5l-0.1,0.7H34.4z M34.7,265l0.1-0.7h-2.4l-0.1,0.1l-0.1,0.6H34.7z M38.4,273.3L37,274c-0.4-1-0.9-2-1.6-2.9
	l1.4-0.7C37.4,271.3,38,272.3,38.4,273.3L38.4,273.3z"/>
<path class="st3" d="M44.9,270.7c-0.3,1.4-0.8,2.8-1.4,4.1l-1.1-0.7c0.6-1.2,1-2.4,1.3-3.7L44.9,270.7z M49.3,262.5
	c-1,2.1-2.3,4-4,5.7c0.5-0.1,1-0.2,1.6-0.4c0-0.3,0-0.6-0.1-0.9l1.1-0.4c0.2,0.9,0.3,1.9,0.3,2.9l-1.2,0.5c0-0.4,0-0.7,0-0.8
	c-1.2,0.3-2.4,0.6-3.6,0.8l-0.2-1.2c1.2-1,2.2-2.2,3-3.6l-2,0.4l-0.1-1.3c1.2-1.5,2.2-3.2,2.9-5l1.4,0.4c-0.7,1.6-1.6,3-2.6,4.4
	c0.5-0.1,0.9-0.2,1.3-0.3c0.3-0.5,0.6-1.1,0.9-1.6L49.3,262.5z M46.2,273.8l-1.2,0.3c0.1-0.3,0.1-0.6,0.2-0.9
	c0.1-0.9,0.2-1.8,0.2-2.6l1.1-0.2C46.5,271.5,46.4,272.7,46.2,273.8L46.2,273.8z M53.9,268.8h-3c0,0.3-0.1,0.5-0.2,0.8h2.8
	c-0.4,2.5-0.9,4-1.2,4.4c-0.3,0.4-0.9,0.7-1.4,0.6h-1l-0.2-1.4h0.9c0.2,0,0.4,0,0.5-0.1c0.2-0.2,0.3-0.5,0.4-0.8
	c0.1-0.5,0.3-0.9,0.3-1.4h-1.4c-0.5,1.6-1.5,3-2.8,4l-0.9-1.1c1.6-1.2,2.5-3,2.7-5h-1.1l0.2-1.3h2c0-0.2-0.1-0.5-0.2-0.7l1.5-0.4
	c0.1,0.4,0.2,0.7,0.3,1.1h1.8L53.9,268.8z M48.2,272l-1.1,0.4c0-0.7,0-1.3-0.1-2l1-0.3C48.1,270.8,48.2,271.4,48.2,272L48.2,272z
	 M53.9,266.3h-4.7l0.9-5.6h1.3c0.3-0.5,0.5-1,0.7-1.5l1.5,0.2c-0.2,0.4-0.4,0.9-0.6,1.3h1.9L53.9,266.3z M52.7,264.9l0.1-0.9H51
	l-0.1,0.9H52.7z M53,262.8l0.1-0.8h-1.8l-0.1,0.8H53z M58.2,273.7l-1.2,1.1c-0.5-0.7-0.9-1.4-1.3-2.2c-0.6,0.8-1.3,1.5-2.1,2.2
	l-0.7-1.3c0.8-0.7,1.6-1.5,2.2-2.5c-0.4-1.4-0.6-2.9-0.5-4.4l1.3-0.4c0,1,0,2,0.2,2.9c0.7-1.8,1.2-3.7,1.6-5.6h-0.9
	c-0.4,0.9-0.9,1.9-1.5,2.7l-0.8-1.2c1.1-1.8,2-3.8,2.5-5.8l1.3,0.3c-0.2,0.9-0.5,1.7-0.8,2.5h2.5l-0.2,1.5H59
	c-0.4,2.6-1.2,5.2-2.4,7.6C57,272,57.6,272.9,58.2,273.7L58.2,273.7z"/>
<path class="st3" d="M64.9,270.7c-0.4,1.4-0.9,2.7-1.5,4l-1.2-0.6c0.6-1.2,1.1-2.5,1.4-3.8L64.9,270.7z M69.1,269.4l-1.4,0.6
	c0-0.3,0-0.5-0.1-0.8c-1.5,0.4-2.9,0.7-4.4,0.9l-0.2-1.2c1.3-1.1,2.4-2.3,3.4-3.6c-0.9,0.2-1.7,0.3-2.5,0.3v-1.4
	c1.4-1.4,2.5-3.1,3.3-4.8l1.3,0.6c-0.7,1.4-1.6,2.7-2.7,3.9c0.6,0,1.1-0.1,1.7-0.3c0.2-0.3,0.7-1,1.3-2.1l1.3,0.7
	c-1.4,2.3-3,4.3-4.9,6.2c0.7-0.1,1.5-0.3,2.2-0.5c0-0.3-0.1-0.6-0.2-0.9l1.3-0.5C68.9,267.3,69,268.4,69.1,269.4L69.1,269.4z
	 M66.5,273.9l-1.4,0.3c0.2-1.1,0.2-2.3,0.2-3.4l1.3-0.3C66.7,271.6,66.6,272.8,66.5,273.9L66.5,273.9z M68.5,272.5l-1.2,0.4
	c0-0.8,0-1.6-0.1-2.5l1.1-0.3C68.4,271,68.5,271.8,68.5,272.5L68.5,272.5z M70.9,270.1c-0.4,1.5-1,2.9-1.8,4.2l-1.1-0.7
	c0.7-1.3,1.3-2.6,1.7-4L70.9,270.1z M77.6,268.8h-8.1l1.3-8.3H73c0.3-0.4,0.6-0.8,0.8-1.3l1.6,0.3c-0.2,0.3-0.4,0.7-0.6,1h4.2
	L77.6,268.8z M76,272.2c-0.1,0.6-0.3,1.1-0.6,1.6c-0.2,0.3-0.4,0.5-0.7,0.6c-0.5,0.2-1.1,0.2-1.6,0.2c-0.5,0-0.9,0-1.2,0
	c-0.3,0-0.6-0.1-0.8-0.4c-0.2-0.2-0.3-0.6-0.2-0.9l0.6-3.8h1.5l-0.5,3.3c0,0.2,0,0.3,0.1,0.4c0.3,0.1,0.7,0.1,1,0.1
	c0.2,0,0.4,0,0.6-0.1c0.1-0.1,0.3-0.3,0.3-0.5c0.1-0.3,0.2-0.6,0.2-0.9L76,272.2z M76.4,267.4l0.9-5.6h-5l-0.9,5.6H76.4z M76.4,266
	l-1,0.9c-0.3-0.4-0.6-0.8-0.8-1c-0.4,0.5-0.9,0.9-1.3,1.3l-0.8-0.8c0.5-0.4,0.9-0.8,1.3-1.3c-0.2-0.2-0.3-0.3-0.3-0.4
	c-0.2,0.2-0.6,0.6-1.1,1l-0.7-0.8c0.3-0.2,0.6-0.5,0.9-0.9c-0.2-0.1-0.4-0.3-0.6-0.5l0.9-0.9c0.2,0.1,0.4,0.3,0.5,0.4
	c0.2-0.2,0.4-0.6,0.6-1l1,0.5l-0.8,1.1c0.1,0.1,0.3,0.2,0.4,0.4c0.4-0.5,0.7-1,1-1.5l0.9,0.5c-0.3,0.6-0.7,1.2-1.2,1.7L76.4,266z
	 M75.1,271.1l-1.4,0.6c-0.1-0.7-0.3-1.4-0.5-2.1l1.3-0.5C74.8,269.8,75,270.4,75.1,271.1L75.1,271.1z M78,273.1l-1.4,0.8
	c-0.1-1.2-0.4-2.4-0.7-3.5l1.3-0.7C77.6,270.7,77.8,271.9,78,273.1L78,273.1z"/>
<path class="st3" d="M99,264.4l-1,1.4c-0.8-0.4-1.7-0.8-2.5-1.3l-0.2,1h-3.6l-0.3,1.7h5.9l-0.2,1.5h-5.9l-0.6,4.1H97l-0.2,1.5H82.5
	l0.2-1.5h6.3l0.6-4.1h-5.8l0.2-1.5h5.8l0.3-1.7h-3.7l0.1-0.9c-0.8,0.5-1.7,0.9-2.6,1.2l-0.8-1.3c3.8-1.6,6.6-3.3,8.3-5.2l1.5,0.5
	c-0.1,0.1-0.2,0.2-0.3,0.3C94,261.5,96,263,99,264.4z M88,272l-1.6,0.5c-0.4-1-0.9-1.9-1.5-2.7l1.6-0.6C87.1,270,87.6,271,88,272
	L88,272z M94.8,264c-1.2-0.8-2.2-1.7-3.2-2.7c-1.2,1-2.6,1.9-3.9,2.7H94.8z M95.9,269.7c-0.7,1-1.5,1.9-2.3,2.8l-1.4-0.7
	c0.9-0.8,1.7-1.7,2.3-2.6L95.9,269.7z"/>
<path class="st3" d="M110.7,268.1l-0.9,1.3c-0.9-0.7-1.9-1.4-2.9-1.9c-1.2,0.8-2.6,1.5-4,2l-0.5-1.3c1.1-0.3,2.2-0.8,3.2-1.4
	c-0.6-0.3-1-0.5-1.2-0.6c-0.2,0.2-0.4,0.3-0.6,0.4l-0.9-1c1.4-0.9,2.5-2.1,3.5-3.4l1.2,0.4c-0.1,0.2-0.2,0.4-0.4,0.6h3l-0.2,1.3
	c-0.6,0.7-1.2,1.4-1.9,2C109,267,109.9,267.5,110.7,268.1z M108.4,274.6h-1.5l0.1-0.5h-2.7l-0.1,0.5h-1.5l0.8-5.2h5.7L108.4,274.6z
	 M111.1,262.7h-1.5l0.1-0.8h-4.2l-0.1,0.9h-1.6l0.4-2.3h2.9c0-0.3-0.1-0.7-0.3-1l1.5-0.3c0.2,0.4,0.3,0.9,0.3,1.3h2.9L111.1,262.7z
	 M107.2,272.7l0.3-2h-2.7l-0.3,2H107.2z M108.4,264.5h-2.1c-0.3,0.3-0.5,0.5-0.7,0.7c0.7,0.3,1.2,0.5,1.5,0.7
	C107.5,265.4,108,265,108.4,264.5L108.4,264.5z M119.1,261.1h-2.9c-0.2,0.5-0.4,1-0.6,1.5h2.7l-1.4,8.9h-4.5l0.8,0.9
	c-1,1-2.2,1.8-3.5,2.5l-0.8-1.2c1.2-0.5,2.3-1.3,3.3-2.2h-1.6l1.4-8.8h2c0.2-0.5,0.4-1,0.6-1.5h-2.7l0.2-1.4h7.2L119.1,261.1z
	 M115.5,270l0.2-1.3h-3.3l-0.2,1.3H115.5z M115.9,267.5l0.2-1.2h-3.3l-0.2,1.2H115.9z M116.3,265l0.2-1.1h-3.3l-0.2,1.1H116.3z
	 M117.3,273.6l-1.1,1.2c-0.7-0.8-1.5-1.4-2.5-1.9l1.1-1.2C115.7,272.2,116.5,272.8,117.3,273.6L117.3,273.6z"/>
<path class="st3" d="M269.1,99.6h-7.8v-1.7h2.9v-9.6l-3,0.8v-1.8l5-1.3v11.9h2.9V99.6z"/>
<path class="st3" d="M273.8,97.3c0.8,0.6,1.8,0.9,2.8,0.9c0.8,0,1.5-0.2,2.1-0.7c0.5-0.5,0.8-1.2,0.8-1.9c0-1.6-1.1-2.5-3.2-2.5
	c-0.5,0-1.2,0-2.1,0.1v-7h6.8V88H276v3.5c0.5,0,0.9,0,1.1,0c1.2-0.1,2.4,0.3,3.3,1.1c0.8,0.8,1.2,1.8,1.2,2.9
	c0.1,1.2-0.4,2.4-1.3,3.2c-1,0.8-2.2,1.3-3.5,1.2c-1,0.1-2-0.1-2.9-0.6L273.8,97.3z"/>
<path class="st3" d="M301.4,96c0,1-0.1,1.9-0.3,2.9c-0.1,0.5-0.5,1-0.9,1.2c-0.7,0.3-1.5,0.4-2.3,0.3c-0.8,0-1.3,0-1.8-0.1
	c-0.4,0-0.7-0.2-1-0.4c-0.3-0.3-0.4-0.6-0.4-1v-7H292c0,1.9-0.4,3.8-1.3,5.5c-0.9,1.4-2.2,2.5-3.7,3.2l-1.1-1.3
	c1.4-0.5,2.6-1.4,3.4-2.6c0.8-1.5,1.2-3.1,1.1-4.8h-4.1v-1.5h14.8V92h-4.7v6.5c0,0.1,0.1,0.3,0.2,0.4c0.5,0.1,1,0.1,1.4,0.1
	c0.4,0,0.8,0,1.2-0.1c0.2-0.1,0.3-0.2,0.3-0.4c0.1-0.3,0.1-0.7,0.2-1c0.1-0.5,0.1-1.2,0.1-2.1L301.4,96z M300.1,87.1h-12.7v-1.5
	h12.7V87.1z"/>
<path class="st3" d="M255.9,57.7c-0.7-0.4-1.4-0.6-2.2-0.5c-1.1,0-2.1,0.5-2.7,1.5c-0.7,1.1-1,2.4-1,3.8l0,0c0.6-1.1,1.7-1.8,3-1.7
	c1-0.1,2,0.4,2.7,1.1c0.7,0.8,1.1,1.9,1,3c0,1.2-0.4,2.4-1.2,3.2c-0.8,0.9-1.9,1.3-3.1,1.3c-1.3,0.1-2.5-0.6-3.3-1.6
	c-0.8-1.3-1.2-2.9-1.2-4.5c-0.1-1.9,0.4-3.9,1.5-5.5c0.9-1.4,2.5-2.2,4.2-2.1c0.8,0,1.5,0.1,2.3,0.4L255.9,57.7z M250.2,64.7
	c0,0.8,0.2,1.5,0.6,2.1c0.4,0.6,1,0.9,1.7,0.9c0.6,0,1.3-0.3,1.6-0.8c0.8-1.2,0.8-2.7,0-3.9c-0.4-0.5-1.1-0.7-1.7-0.7
	c-0.6,0-1.2,0.2-1.6,0.7C250.4,63.4,250.2,64.1,250.2,64.7z"/>
<path class="st3" d="M261.2,67.1c0.7,0.4,1.6,0.7,2.5,0.7c1.1,0,2.1-0.5,2.7-1.3c0.7-1.1,1-2.4,0.9-3.7h0c-0.6,1-1.7,1.7-2.9,1.6
	c-1.1,0-2.1-0.4-2.8-1.2c-0.7-0.8-1.1-1.9-1.1-2.9c0-1.2,0.4-2.4,1.2-3.3c0.8-0.9,2-1.3,3.2-1.3c1.3-0.1,2.5,0.5,3.2,1.6
	c0.8,1.4,1.2,2.9,1.1,4.5c0.1,2-0.4,3.9-1.4,5.6c-0.9,1.3-2.5,2.1-4.1,2c-0.9,0-1.7-0.1-2.5-0.5L261.2,67.1z M262.4,59.9
	c0,0.7,0.2,1.4,0.6,2c0.4,0.5,1.1,0.8,1.8,0.7c0.6,0,1.2-0.2,1.6-0.7c0.4-0.4,0.7-1,0.6-1.6c0-0.8-0.2-1.5-0.6-2.2
	c-0.7-1-2-1.2-3-0.5c-0.2,0.1-0.3,0.2-0.4,0.4C262.7,58.5,262.4,59.2,262.4,59.9z"/>
<path class="st3" d="M273.8,67.1c0.7,0.4,1.6,0.7,2.4,0.7c1.1,0.1,2.1-0.4,2.7-1.3c0.7-1.1,1-2.4,0.9-3.7h0c-0.6,1-1.7,1.6-2.9,1.6
	c-1.1,0-2.1-0.4-2.8-1.2c-0.7-0.8-1.1-1.9-1.1-2.9c0-1.2,0.4-2.4,1.2-3.3c0.8-0.9,2-1.3,3.2-1.3c1.3-0.1,2.5,0.5,3.2,1.6
	c0.8,1.4,1.2,2.9,1.1,4.5c0.1,2-0.4,3.9-1.4,5.6c-0.9,1.3-2.5,2.1-4.1,2c-0.9,0-1.7-0.1-2.5-0.5L273.8,67.1z M275.1,59.9
	c0,0.7,0.2,1.4,0.6,2c0.4,0.5,1.1,0.8,1.8,0.7c0.6,0,1.2-0.2,1.6-0.7c0.4-0.4,0.7-1,0.6-1.6c0-0.8-0.2-1.5-0.6-2.2
	c-0.7-1-2-1.2-3-0.5c-0.2,0.1-0.3,0.2-0.4,0.4C275.3,58.5,275.1,59.2,275.1,59.9L275.1,59.9z"/>
<path class="st3" d="M301.4,65.4c0,1-0.1,1.9-0.3,2.9c-0.1,0.5-0.5,1-0.9,1.2c-0.7,0.3-1.5,0.4-2.3,0.3c-0.8,0-1.3,0-1.8,0
	c-0.4,0-0.7-0.2-1-0.4c-0.3-0.3-0.4-0.6-0.4-1v-7H292c0,1.9-0.4,3.8-1.3,5.5c-0.9,1.4-2.2,2.5-3.7,3.2l-1.1-1.3
	c1.4-0.5,2.5-1.4,3.4-2.5c0.8-1.5,1.2-3.1,1.1-4.8h-4.1v-1.6h14.8v1.5h-4.7v6.5c0,0.1,0.1,0.3,0.2,0.4c0.5,0.1,1,0.1,1.4,0.1
	c0.4,0,0.8,0,1.2-0.1c0.2-0.1,0.3-0.2,0.3-0.4c0.1-0.3,0.1-0.7,0.2-1c0.1-0.5,0.1-1.2,0.1-2.1L301.4,65.4z M300.1,56.6h-12.7V55
	h12.7V56.6z"/>
<path class="st3" d="M252.9,261.3l-7,12.5h-2.1l6.7-11.6h-6.5l0.3-1.7h8.8L252.9,261.3z"/>
<path class="st3" d="M263.3,273.8h-7.8l0.3-1.7h2.9l1.5-9.6l-3.1,0.8l0.3-1.8l5.2-1.3l-1.9,11.9h2.9L263.3,273.8z"/>
<path class="st3" d="M276.9,270.5h-1.6l-0.5,3.3h-1.9l0.5-3.3h-6.1l0.2-1.3l7.2-8.7h2.2l-1.3,8.5h1.6L276.9,270.5z M273.5,269
	l0.8-5.2c0.1-0.4,0.1-0.8,0.2-1.3l0,0c-0.2,0.4-0.4,0.7-0.7,1l-4.5,5.5H273.5z"/>
<path class="st3" d="M302.7,270.2c-0.2,1-0.4,2-0.8,2.9c-0.2,0.5-0.6,1-1.1,1.2c-0.7,0.3-1.5,0.4-2.3,0.3c-0.8,0-1.3,0-1.7-0.1
	c-0.4,0-0.7-0.2-0.9-0.4c-0.2-0.3-0.3-0.6-0.2-1l1.1-7h-2.7c-0.3,2-1.1,3.8-2.2,5.5c-1.1,1.4-2.6,2.5-4.2,3.2l-0.9-1.3
	c1.5-0.5,2.8-1.4,3.8-2.6c1-1.4,1.6-3.1,1.9-4.8h-4.1l0.2-1.5h14.8l-0.2,1.5h-4.7l-1,6.5c0,0.2,0,0.3,0.1,0.4
	c0.5,0.1,0.9,0.1,1.4,0.1c0.4,0,0.8,0,1.3-0.1c0.2-0.1,0.3-0.2,0.4-0.4c0.1-0.3,0.2-0.7,0.3-1c0.1-0.5,0.3-1.2,0.5-2.1L302.7,270.2z
	 M302.7,261.3h-12.7l0.2-1.5H303L302.7,261.3z"/>
</svg>
