<?xml version="1.0" encoding="utf-8"?>
<!-- Generator: Adobe Illustrator 16.0.0, SVG Export Plug-In . SVG Version: 6.00 Build 0)  -->
<!DOCTYPE svg PUBLIC "-//W3C//DTD SVG 1.1//EN" "http://www.w3.org/Graphics/SVG/1.1/DTD/svg11.dtd">
<svg version="1.1" id="圖層_1" xmlns="http://www.w3.org/2000/svg" xmlns:xlink="http://www.w3.org/1999/xlink" x="0px" y="0px"
	 width="604px" height="642px" viewBox="0 0 604 642" enable-background="new 0 0 604 642" xml:space="preserve">
<path fill="#6FAEBE" d="M-2010.092,62.234c0,6.153-5.209,11.142-11.635,11.142h-569.781c-6.426,0-11.636-4.988-11.636-11.142
	v-608.495c0-6.153,5.21-11.141,11.636-11.141h569.781c6.426,0,11.635,4.988,11.635,11.141V62.234z"/>
<g>
	<g>
		<path fill="#386DA6" d="M-2427.75-459.543c0,37.167-30.13,67.298-67.298,67.298s-67.298-30.131-67.298-67.298
			c0-37.168,30.13-67.299,67.298-67.299S-2427.75-496.711-2427.75-459.543"/>
		<g>
			<path fill="#FFFFFF" d="M-2495.048-523.85c-35.366,0-64.036,28.67-64.036,64.037c0,19.519,8.746,36.988,22.52,48.734
				c1.998-17.507,16.844-31.112,34.885-31.112h13.263c18.042,0,32.888,13.605,34.886,31.112
				c13.773-11.746,22.519-29.215,22.519-48.734C-2431.013-495.18-2459.682-523.85-2495.048-523.85 M-2495.048-446.704
				c-11.38,0-20.605-9.225-20.605-20.605s9.226-20.605,20.605-20.605s20.605,9.225,20.605,20.605
				S-2483.668-446.704-2495.048-446.704 M-2461.183-461.334c-0.367,2.113-2.204,3.601-4.28,3.601c-0.248,0-0.499-0.022-0.754-0.067
				c-2.366-0.412-3.948-2.665-3.534-5.034c0.28-1.604,0.416-3.069,0.416-4.476c0-14.178-11.534-25.712-25.713-25.712
				c-14.18,0-25.716,11.534-25.716,25.712c0,1.398,0.139,2.862,0.419,4.476c0.414,2.369-1.169,4.622-3.535,5.034
				c-2.372,0.43-4.622-1.166-5.034-3.534c-0.369-2.116-0.55-4.07-0.55-5.976c0-18.975,15.438-34.414,34.416-34.414
				c18.974,0,34.414,15.439,34.414,34.414C-2460.634-465.396-2460.813-463.441-2461.183-461.334"/>
			<path fill="#FFFFFF" d="M-2495.048-392.282c-37.109,0-67.298-30.188-67.298-67.299c0-37.109,30.188-67.297,67.298-67.297
				c37.11,0,67.299,30.188,67.299,67.297C-2427.749-422.47-2457.938-392.282-2495.048-392.282 M-2495.048-520.353
				c-33.511,0-60.772,27.262-60.772,60.772c0,33.512,27.262,60.774,60.772,60.774c33.512,0,60.772-27.262,60.772-60.774
				C-2434.275-493.091-2461.536-520.353-2495.048-520.353"/>
		</g>
	</g>
	<g>
		<path fill="#4C81A7" d="M-2420.54-413.276c0,8.136-6.596,14.731-14.732,14.731c-8.136,0-14.732-6.595-14.732-14.731
			c0-8.137,6.597-14.732,14.732-14.732C-2427.136-428.008-2420.54-421.414-2420.54-413.276"/>
		<path fill="#DAF1EC" d="M-2444.103-408.114v-8.948c0.013-0.037,0.03-0.073,0.037-0.112c0.177-0.993,1.063-1.8,2.064-1.838
			c0.745-0.028,1.491-0.019,2.236-0.013c0.158,0.001,0.242-0.053,0.325-0.18c0.419-0.644,0.853-1.278,1.272-1.922
			c0.083-0.127,0.17-0.18,0.326-0.179c1.882,0.006,3.764,0.006,5.645,0c0.162-0.001,0.254,0.053,0.341,0.187
			c0.426,0.653,0.862,1.299,1.292,1.951c0.066,0.1,0.135,0.142,0.257,0.14c0.675-0.006,1.349-0.004,2.023-0.002
			c0.911,0.002,1.611,0.387,2.061,1.178c0.142,0.251,0.2,0.55,0.298,0.827v8.911c-0.012,0.033-0.029,0.064-0.035,0.098
			c-0.055,0.338-0.185,0.647-0.387,0.921c-0.49,0.665-1.161,0.953-1.977,0.95c-1.497-0.004-2.993-0.001-4.489-0.001
			c-2.964,0-5.927-0.009-8.89,0.004c-1.293,0.006-2.071-0.821-2.304-1.619C-2444.04-407.878-2444.07-407.996-2444.103-408.114
			 M-2435.019-407.669c2.242,0,4.484-0.006,6.727,0.005c0.552,0.003,0.854-0.387,0.852-0.842c-0.016-2.71-0.007-5.419-0.008-8.129
			c0-0.568-0.304-0.871-0.876-0.872c-0.923,0-1.847-0.003-2.77,0.004c-0.143,0.001-0.221-0.048-0.297-0.166
			c-0.425-0.661-0.86-1.313-1.287-1.976c-0.065-0.101-0.138-0.136-0.258-0.136c-1.379,0.004-2.757,0.004-4.136,0
			c-0.123-0.001-0.19,0.043-0.256,0.141c-0.435,0.662-0.88,1.319-1.313,1.981c-0.072,0.111-0.149,0.159-0.285,0.156
			c-0.455-0.01-0.91-0.004-1.366-0.004c-0.503,0-1.006-0.005-1.509,0.002c-0.467,0.007-0.778,0.324-0.78,0.784
			c0,2.763-0.001,5.526,0.006,8.289c0,0.14,0.048,0.295,0.119,0.415c0.159,0.27,0.423,0.351,0.729,0.35
			C-2439.491-407.67-2437.255-407.669-2435.019-407.669"/>
		<path fill="#DAF1EC" d="M-2435.006-416.756c2.101,0.009,3.804,1.72,3.784,3.815c-0.02,2.151-1.808,3.801-3.871,3.766
			c-2.034-0.035-3.728-1.752-3.716-3.818C-2438.797-415.067-2437.08-416.766-2435.006-416.756 M-2435.017-415.232
			c-1.251,0.004-2.272,1.025-2.27,2.27c0.002,1.247,1.024,2.261,2.275,2.26c1.249-0.001,2.271-1.022,2.268-2.266
			C-2432.745-414.215-2433.771-415.235-2435.017-415.232"/>
	</g>
</g>
<g>
	<path fill="#6FAEBE" d="M598.525,625.248c0,6.152-5.209,11.141-11.635,11.141H17.11c-6.426,0-11.636-4.988-11.636-11.141V16.752
		c0-6.153,5.21-11.141,11.636-11.141h569.781c6.426,0,11.635,4.988,11.635,11.141V625.248z"/>
	<g>
		<path fill="#DAF1EC" d="M582.564,43.026c0,13.194-10.695,23.89-23.889,23.89s-23.891-10.696-23.891-23.89
			c0-13.194,10.697-23.89,23.891-23.89S582.564,29.832,582.564,43.026"/>
		<path fill="#4C81A7" d="M572.568,51.901c0,0.946-0.332,1.762-1,2.429c-0.568,0.57-1.15,1.13-1.74,1.679
			c-1.131,1.06-2.863,1.211-4.168,0.357c-0.205-0.135-0.352-0.14-0.568-0.042c-0.549,0.249-1.117,0.455-1.668,0.7
			c-0.113,0.051-0.24,0.182-0.268,0.297c-0.393,1.704-1.719,2.771-3.473,2.771c-0.734,0-1.471,0.001-2.205-0.001
			c-1.557-0.007-2.92-1.08-3.268-2.602c-0.07-0.304-0.199-0.444-0.494-0.544c-0.537-0.18-1.057-0.414-1.572-0.649
			c-0.174-0.08-0.287-0.069-0.445,0.035c-1.432,0.935-3.184,0.745-4.381-0.473c-0.533-0.541-1.057-1.089-1.58-1.638
			c-1.098-1.151-1.268-2.891-0.391-4.221c0.139-0.212,0.125-0.359,0.027-0.57c-0.242-0.525-0.445-1.069-0.686-1.595
			c-0.053-0.116-0.182-0.249-0.297-0.274c-1.768-0.368-2.871-1.932-2.783-3.575c0.037-0.71,0.004-1.422,0.006-2.134
			c0.004-1.584,1.07-2.945,2.609-3.298c0.287-0.065,0.432-0.184,0.529-0.464c0.189-0.546,0.443-1.07,0.646-1.612
			c0.045-0.116,0.043-0.301-0.021-0.401c-0.949-1.508-0.754-3.224,0.525-4.468c0.52-0.504,1.041-1.005,1.563-1.506
			c1.164-1.119,2.9-1.292,4.248-0.406c0.195,0.13,0.334,0.132,0.537,0.037c0.535-0.248,1.092-0.456,1.629-0.702
			c0.113-0.052,0.236-0.184,0.268-0.302c0.459-1.783,1.711-2.768,3.545-2.768c0.723,0,1.447-0.002,2.17,0
			c1.582,0.006,2.939,1.074,3.293,2.617c0.064,0.288,0.191,0.426,0.469,0.522c0.547,0.191,1.07,0.446,1.611,0.65
			c0.115,0.044,0.299,0.035,0.4-0.03c1.488-0.94,3.217-0.749,4.441,0.51c0.514,0.527,1.023,1.057,1.531,1.587
			c1.117,1.164,1.287,2.9,0.395,4.249c-0.135,0.202-0.115,0.34-0.027,0.539c0.248,0.563,0.463,1.139,0.709,1.701
			c0.047,0.105,0.172,0.219,0.279,0.244c1.717,0.396,2.779,1.712,2.779,3.463c0.002,0.724,0.002,1.447,0,2.169
			c-0.002,1.609-1.064,2.96-2.627,3.323c-0.264,0.061-0.412,0.165-0.504,0.441c-0.182,0.536-0.41,1.059-0.645,1.574
			c-0.09,0.195-0.098,0.327,0.029,0.509C572.387,50.589,572.57,51.218,572.568,51.901 M565.596,53.571
			c0.486,0.021,0.773,0.32,1.072,0.617c0.537,0.536,1.186,0.539,1.723,0.011c0.457-0.449,0.906-0.904,1.359-1.357
			c0.721-0.721,0.719-1.27-0.008-2.001c-0.518-0.524-0.592-0.958-0.236-1.598c0.549-0.986,0.988-2.015,1.275-3.109
			c0.139-0.528,0.531-0.832,1.082-0.874c0.152-0.01,0.309,0,0.461-0.005c0.672-0.023,1.137-0.476,1.148-1.147
			c0.012-0.735,0.012-1.47,0-2.205c-0.012-0.663-0.488-1.129-1.152-1.154c-0.119-0.005-0.236-0.001-0.355-0.001
			c-0.674-0.003-1.021-0.306-1.25-0.935c-0.352-0.963-0.723-1.924-1.156-2.85c-0.42-0.899-0.416-1.207,0.281-1.918
			c0.543-0.554,0.541-1.19-0.008-1.752c-0.438-0.451-0.877-0.9-1.314-1.349c-0.676-0.692-1.27-0.698-1.953-0.019
			c-0.578,0.576-0.973,0.64-1.68,0.249c-0.967-0.537-1.977-0.967-3.047-1.245c-0.438-0.113-0.727-0.391-0.846-0.825
			c-0.041-0.144-0.031-0.305-0.031-0.458c-0.004-1.008-0.414-1.415-1.432-1.415h-1.707c-0.059,0-0.119-0.001-0.178,0
			c-0.768,0.009-1.266,0.477-1.234,1.245c0.041,1.011-0.35,1.322-1.197,1.596c-0.895,0.29-1.766,0.675-2.615,1.083
			c-0.887,0.426-1.227,0.401-1.898-0.317c-0.484-0.521-1.158-0.563-1.668-0.078c-0.551,0.524-1.086,1.062-1.609,1.609
			c-0.471,0.491-0.455,1.124,0.01,1.624c0.074,0.078,0.152,0.151,0.227,0.227c0.469,0.48,0.541,0.922,0.217,1.51
			c-0.557,1.01-1.012,2.056-1.301,3.176c-0.137,0.532-0.574,0.835-1.135,0.842c-0.131,0.001-0.262-0.004-0.391,0.001
			c-0.666,0.022-1.146,0.485-1.16,1.147c-0.014,0.758-0.016,1.517,0.002,2.276c0.014,0.644,0.492,1.103,1.137,1.13
			c0.154,0.007,0.309,0,0.463,0.002c0.553,0.009,0.957,0.289,1.104,0.827c0.314,1.146,0.777,2.229,1.355,3.268
			c0.266,0.48,0.182,0.97-0.193,1.372c-0.098,0.105-0.203,0.2-0.303,0.304c-0.441,0.474-0.451,1.127-0.006,1.598
			c0.514,0.542,1.033,1.078,1.566,1.601c0.484,0.476,1.123,0.471,1.623,0.012c0.078-0.072,0.15-0.151,0.227-0.226
			c0.496-0.487,0.934-0.557,1.539-0.221c0.996,0.553,2.033,1.002,3.141,1.29c0.543,0.141,0.852,0.564,0.859,1.12
			c0.002,0.142-0.004,0.285,0.002,0.426c0.025,0.648,0.484,1.126,1.129,1.141c0.77,0.017,1.541,0.019,2.311-0.001
			c0.627-0.016,1.08-0.49,1.113-1.118c0.008-0.143,0.002-0.285,0.002-0.427c0.004-0.617,0.283-1.015,0.875-1.176
			c1.104-0.299,2.145-0.739,3.141-1.295C565.164,53.693,565.389,53.645,565.596,53.571"/>
		<path fill="#4C81A7" d="M558.668,50.988c-4.408-0.001-7.951-3.557-7.949-7.982c0.002-4.405,3.563-7.944,7.99-7.943
			c4.402,0.003,7.938,3.569,7.934,8.001C566.639,47.447,563.074,50.989,558.668,50.988 M558.686,37.333
			c-3.133-0.002-5.699,2.564-5.697,5.696c0.002,3.118,2.553,5.678,5.67,5.688c3.133,0.011,5.707-2.548,5.713-5.679
			C564.379,39.907,561.816,37.337,558.686,37.333"/>
	</g>
	<g>
		<g>
			<path fill="#386DA6" d="M180.868,103.47c0,37.167-30.13,67.298-67.298,67.298s-67.298-30.131-67.298-67.298
				c0-37.168,30.13-67.299,67.298-67.299S180.868,66.302,180.868,103.47"/>
			<g>
				<path fill="#FFFFFF" d="M113.57,39.164c-35.366,0-64.036,28.67-64.036,64.037c0,19.519,8.746,36.988,22.52,48.734
					c1.998-17.507,16.844-31.112,34.885-31.112h13.263c18.042,0,32.888,13.605,34.886,31.112
					c13.773-11.746,22.519-29.215,22.519-48.734C177.605,67.833,148.936,39.164,113.57,39.164 M113.57,116.31
					c-11.38,0-20.605-9.225-20.605-20.605S102.19,75.1,113.57,75.1s20.605,9.225,20.605,20.605S124.95,116.31,113.57,116.31
					 M147.435,101.679c-0.367,2.113-2.204,3.601-4.28,3.601c-0.248,0-0.499-0.022-0.754-0.067c-2.366-0.412-3.948-2.665-3.534-5.034
					c0.28-1.604,0.416-3.069,0.416-4.476c0-14.178-11.534-25.712-25.713-25.712c-14.18,0-25.716,11.534-25.716,25.712
					c0,1.398,0.139,2.862,0.419,4.476c0.414,2.369-1.169,4.622-3.535,5.034c-2.372,0.43-4.622-1.166-5.034-3.534
					c-0.369-2.116-0.55-4.07-0.55-5.976c0-18.975,15.438-34.414,34.416-34.414c18.974,0,34.414,15.439,34.414,34.414
					C147.984,97.618,147.805,99.572,147.435,101.679"/>
				<path fill="#FFFFFF" d="M113.57,170.732c-37.109,0-67.298-30.188-67.298-67.299c0-37.109,30.188-67.297,67.298-67.297
					c37.11,0,67.299,30.188,67.299,67.297C180.869,140.544,150.68,170.732,113.57,170.732 M113.57,42.661
					c-33.511,0-60.772,27.262-60.772,60.772c0,33.512,27.262,60.774,60.772,60.774c33.512,0,60.772-27.262,60.772-60.774
					C174.342,69.923,147.082,42.661,113.57,42.661"/>
			</g>
		</g>
		<g>
			<path fill="#4C81A7" d="M188.078,149.737c0,8.136-6.596,14.731-14.732,14.731c-8.136,0-14.732-6.595-14.732-14.731
				c0-8.137,6.597-14.732,14.732-14.732C181.482,135.005,188.078,141.6,188.078,149.737"/>
			<path fill="#DAF1EC" d="M164.515,154.899v-8.948c0.013-0.037,0.03-0.073,0.037-0.112c0.177-0.993,1.063-1.8,2.064-1.838
				c0.745-0.028,1.491-0.019,2.236-0.013c0.158,0.001,0.242-0.053,0.325-0.18c0.419-0.644,0.853-1.278,1.272-1.922
				c0.083-0.127,0.17-0.18,0.326-0.179c1.882,0.006,3.764,0.006,5.645,0c0.162-0.001,0.254,0.053,0.341,0.187
				c0.426,0.653,0.862,1.299,1.292,1.951c0.066,0.1,0.135,0.142,0.257,0.14c0.675-0.006,1.349-0.004,2.023-0.002
				c0.911,0.002,1.611,0.387,2.061,1.178c0.142,0.251,0.2,0.55,0.298,0.827v8.911c-0.012,0.033-0.029,0.064-0.035,0.098
				c-0.055,0.338-0.185,0.647-0.387,0.921c-0.49,0.665-1.161,0.953-1.977,0.95c-1.497-0.004-2.993-0.001-4.489-0.001
				c-2.964,0-5.927-0.009-8.89,0.004c-1.293,0.006-2.071-0.821-2.304-1.619C164.578,155.135,164.547,155.018,164.515,154.899
				 M173.599,155.344c2.242,0,4.484-0.006,6.727,0.005c0.552,0.003,0.854-0.387,0.852-0.842c-0.016-2.71-0.007-5.419-0.008-8.129
				c0-0.568-0.304-0.871-0.876-0.872c-0.923,0-1.847-0.003-2.77,0.004c-0.143,0.001-0.221-0.048-0.297-0.166
				c-0.425-0.661-0.86-1.313-1.287-1.976c-0.065-0.101-0.138-0.136-0.258-0.136c-1.379,0.004-2.757,0.004-4.136,0
				c-0.123-0.001-0.19,0.043-0.256,0.141c-0.435,0.662-0.88,1.319-1.313,1.981c-0.072,0.111-0.149,0.159-0.285,0.156
				c-0.455-0.01-0.91-0.004-1.366-0.004c-0.503,0-1.006-0.005-1.509,0.002c-0.467,0.007-0.778,0.324-0.78,0.784
				c0,2.763-0.001,5.526,0.006,8.289c0,0.14,0.048,0.295,0.119,0.415c0.159,0.27,0.423,0.351,0.729,0.35
				C169.126,155.343,171.363,155.344,173.599,155.344"/>
			<path fill="#DAF1EC" d="M173.612,146.258c2.101,0.009,3.804,1.72,3.784,3.815c-0.02,2.151-1.808,3.801-3.871,3.766
				c-2.034-0.035-3.728-1.752-3.716-3.818C169.821,147.947,171.538,146.248,173.612,146.258 M173.601,147.782
				c-1.251,0.004-2.272,1.025-2.27,2.27c0.002,1.247,1.024,2.261,2.275,2.26c1.249-0.001,2.271-1.022,2.268-2.266
				C175.873,148.799,174.846,147.779,173.601,147.782"/>
		</g>
	</g>
</g>
</svg>
