<?xml version="1.0" encoding="utf-8"?>
<!-- Generator: Adobe Illustrator 16.0.0, SVG Export Plug-In . SVG Version: 6.00 Build 0)  -->
<!DOCTYPE svg PUBLIC "-//W3C//DTD SVG 1.1//EN" "http://www.w3.org/Graphics/SVG/1.1/DTD/svg11.dtd">
<svg version="1.1" id="圖層_1" xmlns="http://www.w3.org/2000/svg" xmlns:xlink="http://www.w3.org/1999/xlink" x="0px" y="0px"
	 width="328px" height="512.667px" viewBox="-38.833 -5.072 328 512.667" enable-background="new -38.833 -5.072 328 512.667"
	 xml:space="preserve">
<path fill="#FFFFFF" d="M250.961,28.122H31.039c-14.038,0-25.418,10.211-25.418,22.806v415.357c0,12.596,11.38,22.805,25.418,22.805
	h219.922c14.038,0,25.418-10.209,25.418-22.805V50.928C276.379,38.333,264.999,28.122,250.961,28.122z"/>
<g>
	<path fill="#FFFFFF" stroke="#96D3E4" stroke-width="1.5" stroke-miterlimit="10" d="M237.667,63.655H44.333
		c-2.945,0-5.333,2.388-5.333,5.333v47.834c0,2.945,2.388,5.333,5.333,5.333h193.334c2.944,0,5.333-2.388,5.333-5.333V68.988
		C243,66.042,240.611,63.655,237.667,63.655z"/>
	<path fill="#FFFFFF" stroke="#96D3E4" stroke-width="1.5" stroke-miterlimit="10" d="M237.667,146.959H44.333
		c-2.945,0-5.333,2.388-5.333,5.333v47.834c0,2.945,2.388,5.333,5.333,5.333h193.334c2.944,0,5.333-2.388,5.333-5.333v-47.834
		C243,149.347,240.611,146.959,237.667,146.959z"/>
	<path fill="#FFFFFF" stroke="#96D3E4" stroke-width="1.5" stroke-miterlimit="10" d="M237.667,230.263H44.333
		c-2.945,0-5.333,2.388-5.333,5.333v47.833c0,2.944,2.388,5.334,5.333,5.334h193.334c2.944,0,5.333-2.39,5.333-5.334v-47.833
		C243,232.65,240.611,230.263,237.667,230.263z"/>
	<path fill="#FFFFFF" stroke="#96D3E4" stroke-width="1.5" stroke-miterlimit="10" d="M237.667,313.566H44.333
		c-2.945,0-5.333,2.39-5.333,5.334v47.835c0,2.943,2.388,5.332,5.333,5.332h193.334c2.944,0,5.333-2.389,5.333-5.332V318.9
		C243,315.956,240.611,313.566,237.667,313.566z"/>
	<path fill="#FFFFFF" stroke="#96D3E4" stroke-width="1.5" stroke-miterlimit="10" d="M237.667,395.057H44.333
		c-2.945,0-5.333,2.389-5.333,5.332v47.834c0,2.945,2.388,5.334,5.333,5.334h193.334c2.944,0,5.333-2.389,5.333-5.334v-47.834
		C243,397.446,240.611,395.057,237.667,395.057z"/>
	<g>
		<g>
			<path d="M134.967,96.009c-0.406,0.214-0.964,0.46-1.675,0.738v4.204c0,0.729-0.515,1.094-1.545,1.094
				c-0.26,0-0.563-0.007-0.909-0.021l-0.506-1.217c0.715,0.014,1.182,0.015,1.398,0.003s0.325-0.102,0.325-0.27v-3.302
				c-0.442,0.168-0.955,0.351-1.538,0.547l-0.335-1.189l1.873-0.69v-2.577h-1.764v-1.216h1.764v-2.235h1.237v2.235h1.511v1.217
				h-1.511v2.078c0.488-0.182,0.987-0.399,1.497-0.649L134.967,96.009z M142.418,95.435h-1.921v6.631h-1.258v-6.631h-2.495
				c0.018,3.049-0.592,5.264-1.832,6.645l-1.032-0.711c0.447-0.465,0.831-1.16,1.152-2.085c0.321-0.925,0.482-2.39,0.482-4.396
				v-3.965c2.493-0.178,4.505-0.556,6.036-1.135l0.589,1.148c-1.23,0.474-3.029,0.838-5.395,1.094v2.181h5.674V95.435z"/>
			<path d="M148.762,96.173c-0.51,0.223-1.035,0.447-1.572,0.67v3.91c0,0.866-0.41,1.299-1.229,1.299
				c-0.51,0-0.891-0.009-1.135-0.027l-0.362-1.189c0.237,0.009,0.656,0.014,1.259,0.014c0.055,0,0.109-0.027,0.168-0.082
				c0.057-0.055,0.084-0.107,0.084-0.157v-3.274c-0.388,0.132-0.877,0.278-1.471,0.438l-0.309-1.135
				c0.639-0.173,1.229-0.365,1.777-0.574v-2.775h-1.724v-1.178h1.724v-2.249h1.217v2.249h1.373v1.176h-1.373v2.297
				c0.231-0.068,0.682-0.264,1.348-0.588L148.762,96.173z M156.568,99.243c-0.109,1.012-0.289,1.743-0.537,2.194
				c-0.249,0.451-0.588,0.677-1.016,0.677c-1.229,0-2.022-2.265-2.38-6.795h-2.27v3.377c0.342-0.078,0.985-0.308,1.935-0.69
				l0.18,1.148c-0.797,0.346-1.918,0.72-3.356,1.121l-0.335-1.148c0.223-0.105,0.335-0.292,0.335-0.561v-7.711
				c2.506-0.091,4.625-0.447,6.356-1.066l0.685,1.012c-0.447,0.178-1.267,0.419-2.461,0.725c0.014,0.875,0.041,1.743,0.082,2.604
				h2.646v1.189h-2.563c0.16,1.937,0.363,3.322,0.611,4.156c0.25,0.834,0.426,1.251,0.529,1.251c0.051,0,0.116-0.155,0.198-0.465
				s0.164-0.859,0.246-1.647L156.568,99.243z M153.171,101.875h-4.032v-1.162h4.032V101.875z M152.542,94.129l-0.089-2.393
				c-1.025,0.123-1.721,0.203-2.085,0.239v2.153L152.542,94.129L152.542,94.129z"/>
		</g>
		<g>
			<path d="M134.967,179.313c-0.406,0.214-0.964,0.46-1.675,0.738v4.204c0,0.729-0.515,1.094-1.545,1.094
				c-0.26,0-0.563-0.007-0.909-0.021l-0.506-1.217c0.715,0.014,1.182,0.015,1.398,0.003c0.216-0.012,0.325-0.102,0.325-0.271v-3.302
				c-0.442,0.168-0.955,0.351-1.538,0.547l-0.335-1.189l1.873-0.69v-2.577h-1.764v-1.217h1.764v-2.235h1.237v2.235h1.511v1.217
				h-1.511v2.078c0.488-0.182,0.987-0.399,1.497-0.649L134.967,179.313z M142.418,178.739h-1.921v6.631h-1.258v-6.631h-2.495
				c0.018,3.049-0.592,5.264-1.832,6.645l-1.032-0.711c0.447-0.465,0.831-1.16,1.152-2.085c0.321-0.925,0.482-2.39,0.482-4.396
				v-3.965c2.493-0.178,4.505-0.556,6.036-1.135l0.589,1.148c-1.23,0.474-3.029,0.838-5.395,1.094v2.181h5.674V178.739z"/>
			<path d="M148.762,179.478c-0.51,0.223-1.035,0.447-1.572,0.67v3.91c0,0.866-0.41,1.299-1.229,1.299
				c-0.51,0-0.891-0.009-1.135-0.027l-0.362-1.189c0.237,0.009,0.656,0.014,1.259,0.014c0.055,0,0.109-0.027,0.168-0.082
				c0.057-0.055,0.084-0.107,0.084-0.157v-3.274c-0.388,0.132-0.877,0.278-1.471,0.438l-0.309-1.135
				c0.639-0.173,1.229-0.365,1.777-0.574v-2.775h-1.724v-1.176h1.724v-2.249h1.217v2.249h1.373v1.176h-1.373v2.297
				c0.231-0.068,0.682-0.264,1.348-0.588L148.762,179.478z M156.568,182.547c-0.109,1.012-0.289,1.743-0.537,2.194
				c-0.249,0.451-0.588,0.677-1.016,0.677c-1.229,0-2.022-2.265-2.38-6.795h-2.27V182c0.342-0.078,0.985-0.308,1.935-0.69
				l0.18,1.148c-0.797,0.346-1.918,0.72-3.356,1.121l-0.335-1.148c0.223-0.105,0.335-0.292,0.335-0.561v-7.711
				c2.506-0.091,4.625-0.447,6.356-1.066l0.685,1.012c-0.447,0.178-1.267,0.419-2.461,0.725c0.014,0.875,0.041,1.743,0.082,2.604
				h2.646v1.189h-2.563c0.16,1.937,0.363,3.322,0.611,4.156c0.25,0.834,0.426,1.251,0.529,1.251c0.051,0,0.116-0.155,0.198-0.465
				s0.164-0.859,0.246-1.647L156.568,182.547z M153.171,185.179h-4.032v-1.162h4.032V185.179z M152.542,177.434l-0.089-2.393
				c-1.025,0.123-1.721,0.203-2.085,0.239v2.153L152.542,177.434L152.542,177.434z"/>
		</g>
		<g>
			<path d="M134.967,262.617c-0.406,0.215-0.964,0.46-1.675,0.738v4.203c0,0.729-0.515,1.094-1.545,1.094
				c-0.26,0-0.563-0.006-0.909-0.021l-0.506-1.217c0.715,0.015,1.182,0.015,1.398,0.002c0.216-0.012,0.325-0.102,0.325-0.27v-3.303
				c-0.442,0.168-0.955,0.352-1.538,0.547l-0.335-1.188l1.873-0.69v-2.576h-1.764v-1.217h1.764v-2.235h1.237v2.235h1.511v1.217
				h-1.511v2.078c0.488-0.184,0.987-0.398,1.497-0.648L134.967,262.617z M142.418,262.042h-1.921v6.632h-1.258v-6.632h-2.495
				c0.018,3.05-0.592,5.265-1.832,6.646l-1.032-0.711c0.447-0.465,0.831-1.16,1.152-2.084c0.321-0.926,0.482-2.391,0.482-4.396
				v-3.965c2.493-0.179,4.505-0.557,6.036-1.136l0.589,1.147c-1.23,0.475-3.029,0.838-5.395,1.095v2.18h5.674V262.042z"/>
			<path d="M148.762,262.781c-0.51,0.224-1.035,0.447-1.572,0.671v3.909c0,0.865-0.41,1.3-1.229,1.3
				c-0.51,0-0.891-0.011-1.135-0.027l-0.362-1.189c0.237,0.01,0.656,0.016,1.259,0.016c0.055,0,0.109-0.026,0.168-0.082
				c0.057-0.057,0.084-0.106,0.084-0.157v-3.272c-0.388,0.131-0.877,0.276-1.471,0.438l-0.309-1.135
				c0.639-0.174,1.229-0.365,1.777-0.575v-2.774h-1.724v-1.175h1.724v-2.249h1.217v2.249h1.373v1.175h-1.373v2.298
				c0.231-0.068,0.682-0.265,1.348-0.589L148.762,262.781z M156.568,265.852c-0.109,1.012-0.289,1.742-0.537,2.193
				c-0.249,0.451-0.588,0.678-1.016,0.678c-1.229,0-2.022-2.266-2.38-6.796h-2.27v3.378c0.342-0.078,0.985-0.309,1.935-0.689
				l0.18,1.146c-0.797,0.346-1.918,0.721-3.356,1.121l-0.335-1.148c0.223-0.104,0.335-0.291,0.335-0.561v-7.712
				c2.506-0.09,4.625-0.446,6.356-1.065l0.685,1.013c-0.447,0.178-1.267,0.418-2.461,0.725c0.014,0.875,0.041,1.742,0.082,2.604
				h2.646v1.188h-2.563c0.16,1.938,0.363,3.323,0.611,4.157c0.25,0.834,0.426,1.25,0.529,1.25c0.051,0,0.116-0.153,0.198-0.465
				c0.082-0.311,0.164-0.859,0.246-1.646L156.568,265.852z M153.171,268.482h-4.032v-1.162h4.032V268.482z M152.542,260.736
				l-0.089-2.393c-1.025,0.123-1.721,0.203-2.085,0.238v2.153L152.542,260.736L152.542,260.736z"/>
		</g>
		<g>
			<path d="M134.967,345.92c-0.406,0.215-0.964,0.461-1.675,0.738v4.205c0,0.729-0.515,1.094-1.545,1.094
				c-0.26,0-0.563-0.008-0.909-0.021l-0.506-1.219c0.715,0.016,1.182,0.018,1.398,0.004c0.216-0.012,0.325-0.102,0.325-0.27v-3.303
				c-0.442,0.17-0.955,0.352-1.538,0.547l-0.335-1.189l1.873-0.688v-2.578h-1.764v-1.217h1.764v-2.234h1.237v2.234h1.511v1.217
				h-1.511v2.078c0.488-0.184,0.987-0.398,1.497-0.648L134.967,345.92z M142.418,345.346h-1.921v6.631h-1.258v-6.631h-2.495
				c0.018,3.051-0.592,5.266-1.832,6.646l-1.032-0.711c0.447-0.465,0.831-1.158,1.152-2.084c0.321-0.926,0.482-2.393,0.482-4.396
				v-3.965c2.493-0.178,4.505-0.557,6.036-1.135l0.589,1.146c-1.23,0.477-3.029,0.838-5.395,1.096v2.18h5.674V345.346z"/>
			<path d="M148.762,346.084c-0.51,0.225-1.035,0.447-1.572,0.67v3.91c0,0.867-0.41,1.299-1.229,1.299
				c-0.51,0-0.891-0.008-1.135-0.025l-0.362-1.189c0.237,0.01,0.656,0.014,1.259,0.014c0.055,0,0.109-0.025,0.168-0.082
				c0.057-0.055,0.084-0.104,0.084-0.154v-3.275c-0.388,0.133-0.877,0.279-1.471,0.439l-0.309-1.137
				c0.639-0.174,1.229-0.363,1.777-0.574v-2.773h-1.724v-1.176h1.724v-2.25h1.217v2.25h1.373v1.176h-1.373v2.297
				c0.231-0.068,0.682-0.264,1.348-0.588L148.762,346.084z M156.568,349.155c-0.109,1.012-0.289,1.744-0.537,2.193
				c-0.249,0.451-0.588,0.678-1.016,0.678c-1.229,0-2.022-2.266-2.38-6.795h-2.27v3.377c0.342-0.076,0.985-0.309,1.935-0.689
				l0.18,1.148c-0.797,0.346-1.918,0.721-3.356,1.119l-0.335-1.146c0.223-0.105,0.335-0.291,0.335-0.563v-7.711
				c2.506-0.092,4.625-0.445,6.356-1.064l0.685,1.012c-0.447,0.178-1.267,0.42-2.461,0.727c0.014,0.875,0.041,1.74,0.082,2.604
				h2.646v1.189h-2.563c0.16,1.938,0.363,3.32,0.611,4.154c0.25,0.834,0.426,1.25,0.529,1.25c0.051,0,0.116-0.152,0.198-0.465
				c0.082-0.309,0.164-0.855,0.246-1.645L156.568,349.155z M153.171,351.788h-4.032v-1.162h4.032V351.788z M152.542,344.042
				l-0.089-2.393c-1.025,0.121-1.721,0.201-2.085,0.236v2.154L152.542,344.042L152.542,344.042z"/>
		</g>
		<g>
			<path d="M134.967,427.413c-0.406,0.215-0.964,0.461-1.675,0.738v4.203c0,0.729-0.515,1.094-1.545,1.094
				c-0.26,0-0.563-0.006-0.909-0.021l-0.506-1.217c0.715,0.014,1.182,0.016,1.398,0.004s0.325-0.102,0.325-0.27v-3.305
				c-0.442,0.17-0.955,0.354-1.538,0.549l-0.335-1.189l1.873-0.689v-2.576h-1.764v-1.219h1.764v-2.232h1.237v2.232h1.511v1.219
				h-1.511v2.076c0.488-0.182,0.987-0.396,1.497-0.646L134.967,427.413z M142.418,426.836h-1.921v6.631h-1.258v-6.631h-2.495
				c0.018,3.049-0.592,5.264-1.832,6.646l-1.032-0.713c0.447-0.465,0.831-1.156,1.152-2.084c0.321-0.926,0.482-2.391,0.482-4.396
				v-3.965c2.493-0.178,4.505-0.557,6.036-1.135l0.589,1.146c-1.23,0.477-3.029,0.84-5.395,1.094v2.184h5.674V426.836z"/>
			<path d="M148.762,427.577c-0.51,0.223-1.035,0.447-1.572,0.67v3.91c0,0.865-0.41,1.299-1.229,1.299
				c-0.51,0-0.891-0.01-1.135-0.027l-0.362-1.188c0.237,0.01,0.656,0.014,1.259,0.014c0.055,0,0.109-0.027,0.168-0.082
				c0.057-0.055,0.084-0.105,0.084-0.158v-3.271c-0.388,0.133-0.877,0.277-1.471,0.438l-0.309-1.135
				c0.639-0.174,1.229-0.365,1.777-0.574v-2.773h-1.724v-1.178h1.724v-2.248h1.217v2.248h1.373v1.178h-1.373v2.297
				c0.231-0.068,0.682-0.266,1.348-0.588L148.762,427.577z M156.568,430.645c-0.109,1.014-0.289,1.742-0.537,2.193
				c-0.249,0.451-0.588,0.678-1.016,0.678c-1.229,0-2.022-2.266-2.38-6.795h-2.27v3.377c0.342-0.076,0.985-0.309,1.935-0.689
				l0.18,1.146c-0.797,0.35-1.918,0.723-3.356,1.121l-0.335-1.146c0.223-0.104,0.335-0.291,0.335-0.563v-7.711
				c2.506-0.09,4.625-0.445,6.356-1.064l0.685,1.012c-0.447,0.178-1.267,0.42-2.461,0.725c0.014,0.875,0.041,1.744,0.082,2.605
				h2.646v1.188h-2.563c0.16,1.938,0.363,3.322,0.611,4.156c0.25,0.834,0.426,1.25,0.529,1.25c0.051,0,0.116-0.154,0.198-0.465
				s0.164-0.857,0.246-1.646L156.568,430.645z M153.171,433.278h-4.032v-1.162h4.032V433.278z M152.542,425.532l-0.089-2.395
				c-1.025,0.123-1.721,0.203-2.085,0.24v2.152L152.542,425.532L152.542,425.532z"/>
		</g>
	</g>
	<g>
		<g>
			<g>
				<path fill="#37699E" d="M68.558,101.867H57.87V99.57h3.973V86.457l-4.078,1.102v-2.414l6.832-1.793v16.219h3.961V101.867z"/>
				<path fill="#37699E" d="M70.983,93.137c0-3.188,0.545-5.605,1.635-7.254c1.09-1.649,2.67-2.473,4.74-2.473
					c3.945,0,5.918,3.098,5.918,9.293c0,3.031-0.539,5.367-1.617,7.008c-1.078,1.641-2.641,2.461-4.688,2.461
					c-1.977,0-3.469-0.773-4.477-2.32C71.486,98.305,70.983,96.066,70.983,93.137z M73.784,93.031c0,4.625,1.121,6.938,3.363,6.938
					c2.211,0,3.316-2.359,3.316-7.078c0-4.844-1.082-7.266-3.246-7.266C74.929,85.625,73.784,88.094,73.784,93.031z"/>
			</g>
			<g>
				<circle fill="#A8814C" cx="102.155" cy="92.673" r="11.157"/>
				<g>
					<circle fill="#EED182" cx="100.808" cy="92.482" r="8.312"/>
					<path fill="#EDB468" stroke="#EDB468" stroke-width="0.5156" stroke-miterlimit="10" d="M100.808,103.383
						c-6.01,0-10.9-4.89-10.9-10.901c0-6.01,4.89-10.9,10.9-10.9c6.011,0,10.9,4.89,10.9,10.9
						C111.708,98.494,106.818,103.383,100.808,103.383z M100.808,83.975c-4.69,0-8.508,3.816-8.508,8.508
						c0,4.69,3.818,8.508,8.508,8.508s8.508-3.818,8.508-8.508C109.316,87.791,105.498,83.975,100.808,83.975z"/>
					<path fill="#366595" d="M104.547,94.771c-0.427-1.214-1.333-3.112-3.248-4.422c-2.251-1.538-5.619-2.072-6.262-1.031
						c-0.641,1.037,1.319,3.81,3.718,5.109c2.091,1.129,4.262,1.007,5.529,0.805c-0.289,0.793-0.069,1.966,0.903,2.593
						c0.772-0.955,1.543-1.912,2.314-2.868C106.596,93.919,105.146,94.079,104.547,94.771"/>
					<path fill="#A8814C" d="M101.097,83.351c0,0.159-0.13,0.29-0.289,0.29l0,0c-0.159,0-0.288-0.131-0.288-0.29v-1.146
						c0-0.16,0.129-0.288,0.288-0.288l0,0c0.159,0,0.289,0.128,0.289,0.288V83.351z"/>
					<path fill="#A8814C" d="M101.097,101.614c0-0.161-0.13-0.289-0.289-0.289l0,0c-0.159,0-0.288,0.128-0.288,0.289v1.146
						c0,0.158,0.129,0.288,0.288,0.288l0,0c0.159,0,0.289-0.13,0.289-0.288V101.614z"/>
					<path fill="#A8814C" d="M97.499,84.015c0.062,0.147-0.008,0.315-0.155,0.377l0,0c-0.147,0.062-0.316-0.009-0.377-0.157
						l-0.44-1.057c-0.061-0.146,0.009-0.317,0.157-0.378l0,0c0.147-0.06,0.316,0.01,0.376,0.157L97.499,84.015z"/>
					<path fill="#A8814C" d="M94.352,85.974c0.114,0.111,0.114,0.295,0,0.408l0,0c-0.112,0.112-0.295,0.112-0.408,0l-0.811-0.81
						c-0.112-0.112-0.112-0.296,0-0.409l0,0c0.114-0.112,0.296-0.112,0.41,0L94.352,85.974z"/>
					<path fill="#A8814C" d="M92.456,88.732c0.146,0.061,0.217,0.23,0.156,0.376l0,0c-0.061,0.147-0.232,0.217-0.377,0.157
						l-1.058-0.438c-0.149-0.062-0.218-0.23-0.157-0.378l0,0c0.061-0.147,0.23-0.217,0.378-0.156L92.456,88.732z"/>
					<path fill="#A8814C" d="M97.499,100.949c0.062-0.146-0.008-0.315-0.155-0.376l0,0c-0.147-0.061-0.316,0.009-0.377,0.157
						l-0.44,1.057c-0.061,0.147,0.009,0.318,0.157,0.378l0,0c0.147,0.06,0.316-0.009,0.376-0.156L97.499,100.949z"/>
					<path fill="#A8814C" d="M94.352,98.991c0.114-0.112,0.114-0.295,0-0.408l0,0c-0.112-0.113-0.295-0.113-0.408,0l-0.811,0.809
						c-0.112,0.113-0.112,0.297,0,0.41l0,0c0.114,0.111,0.296,0.111,0.41,0L94.352,98.991z"/>
					<path fill="#A8814C" d="M92.456,96.232c0.146-0.06,0.217-0.229,0.156-0.378l0,0c-0.061-0.146-0.232-0.216-0.377-0.155
						l-1.058,0.437c-0.149,0.063-0.218,0.231-0.157,0.379l0,0c0.061,0.146,0.23,0.217,0.378,0.156L92.456,96.232z"/>
					<path fill="#A8814C" d="M91.677,92.193c0.16,0,0.288,0.13,0.288,0.289l0,0c0,0.159-0.128,0.289-0.288,0.289h-1.146
						c-0.159,0-0.29-0.13-0.29-0.289l0,0c0-0.159,0.131-0.289,0.29-0.289H91.677z"/>
					<path fill="#A8814C" d="M104.116,84.015c-0.06,0.147,0.009,0.315,0.156,0.377l0,0c0.147,0.062,0.317-0.009,0.377-0.157
						l0.439-1.057c0.061-0.146-0.009-0.317-0.156-0.378l0,0c-0.146-0.06-0.316,0.01-0.376,0.157L104.116,84.015z"/>
					<path fill="#A8814C" d="M107.264,85.974c-0.113,0.111-0.113,0.295,0,0.408l0,0c0.113,0.112,0.296,0.112,0.407,0l0.811-0.81
						c0.112-0.112,0.112-0.296,0-0.409l0,0c-0.113-0.112-0.296-0.112-0.409,0L107.264,85.974z"/>
					<path fill="#A8814C" d="M109.16,88.732c-0.146,0.061-0.217,0.23-0.155,0.376l0,0c0.06,0.147,0.23,0.217,0.377,0.157
						l1.057-0.438c0.149-0.062,0.218-0.23,0.157-0.378l0,0c-0.062-0.147-0.23-0.217-0.379-0.156L109.16,88.732z"/>
					<path fill="#A8814C" d="M104.116,100.949c-0.06-0.146,0.009-0.315,0.156-0.376l0,0c0.147-0.061,0.317,0.009,0.377,0.157
						l0.439,1.057c0.061,0.147-0.009,0.318-0.156,0.378l0,0c-0.146,0.06-0.316-0.009-0.376-0.156L104.116,100.949z"/>
					<path fill="#A8814C" d="M107.264,98.991c-0.113-0.112-0.113-0.295,0-0.408l0,0c0.113-0.113,0.296-0.113,0.407,0l0.811,0.809
						c0.112,0.113,0.112,0.297,0,0.41l0,0c-0.113,0.111-0.296,0.111-0.409,0L107.264,98.991z"/>
					<path fill="#A8814C" d="M109.16,96.232c-0.146-0.06-0.217-0.229-0.155-0.378l0,0c0.06-0.146,0.23-0.216,0.377-0.155
						l1.057,0.437c0.149,0.063,0.218,0.231,0.157,0.379l0,0c-0.062,0.146-0.23,0.217-0.379,0.156L109.16,96.232z"/>
					<path fill="#A8814C" d="M109.939,92.193c-0.159,0-0.288,0.13-0.288,0.289l0,0c0,0.159,0.129,0.289,0.288,0.289h1.146
						c0.158,0,0.288-0.13,0.288-0.289l0,0c0-0.159-0.13-0.289-0.288-0.289H109.939z"/>
				</g>
			</g>
		</g>
		<g>
			<g>
				<path fill="#37699E" d="M68.229,185.171H56.944v-2.297l5.262-5.18c1.172-1.148,2.037-2.141,2.596-2.977
					c0.559-0.836,0.838-1.746,0.838-2.73c0-2.008-1.063-3.012-3.188-3.012c-1.594,0-3.125,0.668-4.594,2.004v-2.648
					c1.477-1.078,3.172-1.617,5.086-1.617c1.664,0,2.99,0.443,3.979,1.33c0.989,0.887,1.482,2.1,1.482,3.639
					c0,1.109-0.313,2.213-0.938,3.311c-0.625,1.098-1.715,2.396-3.27,3.896l-4.031,3.844v0.059h8.063V185.171z"/>
				<path fill="#37699E" d="M70.983,176.441c0-3.188,0.545-5.605,1.635-7.254c1.09-1.649,2.67-2.473,4.74-2.473
					c3.945,0,5.918,3.098,5.918,9.293c0,3.031-0.539,5.367-1.617,7.008c-1.078,1.641-2.641,2.461-4.688,2.461
					c-1.977,0-3.469-0.773-4.477-2.32C71.486,181.609,70.983,179.371,70.983,176.441z M73.784,176.335
					c0,4.625,1.121,6.938,3.363,6.938c2.211,0,3.316-2.359,3.316-7.078c0-4.844-1.082-7.266-3.246-7.266
					C74.929,168.929,73.784,171.398,73.784,176.335z"/>
			</g>
			<g>
				<circle fill="#A8814C" cx="102.155" cy="175.977" r="11.157"/>
				<g>
					<circle fill="#EED182" cx="100.808" cy="175.787" r="8.312"/>
					<path fill="#EDB468" stroke="#EDB468" stroke-width="0.5156" stroke-miterlimit="10" d="M100.808,186.687
						c-6.01,0-10.9-4.89-10.9-10.901c0-6.01,4.89-10.9,10.9-10.9c6.011,0,10.9,4.89,10.9,10.9
						C111.708,181.798,106.818,186.687,100.808,186.687z M100.808,167.279c-4.69,0-8.508,3.816-8.508,8.508
						c0,4.69,3.818,8.508,8.508,8.508s8.508-3.818,8.508-8.508C109.316,171.095,105.498,167.279,100.808,167.279z"/>
					<path fill="#366595" d="M104.547,178.075c-0.427-1.214-1.333-3.112-3.248-4.422c-2.251-1.538-5.619-2.072-6.262-1.031
						c-0.641,1.037,1.319,3.81,3.718,5.109c2.091,1.129,4.262,1.007,5.529,0.805c-0.289,0.793-0.069,1.966,0.903,2.593
						c0.772-0.955,1.543-1.912,2.314-2.868C106.596,177.223,105.146,177.383,104.547,178.075"/>
					<path fill="#A8814C" d="M101.097,166.655c0,0.159-0.13,0.29-0.289,0.29l0,0c-0.159,0-0.288-0.131-0.288-0.29v-1.146
						c0-0.16,0.129-0.288,0.288-0.288l0,0c0.159,0,0.289,0.128,0.289,0.288V166.655z"/>
					<path fill="#A8814C" d="M101.097,184.918c0-0.161-0.13-0.289-0.289-0.289l0,0c-0.159,0-0.288,0.128-0.288,0.289v1.146
						c0,0.158,0.129,0.288,0.288,0.288l0,0c0.159,0,0.289-0.13,0.289-0.288V184.918z"/>
					<path fill="#A8814C" d="M97.499,167.319c0.062,0.147-0.008,0.315-0.155,0.377l0,0c-0.147,0.062-0.316-0.009-0.377-0.157
						l-0.44-1.057c-0.061-0.148,0.009-0.317,0.157-0.378l0,0c0.147-0.06,0.316,0.01,0.376,0.157L97.499,167.319z"/>
					<path fill="#A8814C" d="M94.352,169.278c0.114,0.111,0.114,0.295,0,0.408l0,0c-0.112,0.112-0.295,0.112-0.408,0l-0.811-0.81
						c-0.112-0.112-0.112-0.296,0-0.409l0,0c0.114-0.112,0.296-0.112,0.41,0L94.352,169.278z"/>
					<path fill="#A8814C" d="M92.456,172.036c0.146,0.061,0.217,0.23,0.156,0.376l0,0c-0.061,0.147-0.232,0.217-0.377,0.157
						l-1.058-0.438c-0.149-0.062-0.218-0.23-0.157-0.378l0,0c0.061-0.147,0.23-0.217,0.378-0.156L92.456,172.036z"/>
					<path fill="#A8814C" d="M97.499,184.253c0.062-0.146-0.008-0.315-0.155-0.376l0,0c-0.147-0.061-0.316,0.009-0.377,0.157
						l-0.44,1.057c-0.061,0.147,0.009,0.318,0.157,0.378l0,0c0.147,0.06,0.316-0.009,0.376-0.156L97.499,184.253z"/>
					<path fill="#A8814C" d="M94.352,182.295c0.114-0.112,0.114-0.295,0-0.408l0,0c-0.112-0.113-0.295-0.113-0.408,0l-0.811,0.809
						c-0.112,0.113-0.112,0.297,0,0.41l0,0c0.114,0.111,0.296,0.111,0.41,0L94.352,182.295z"/>
					<path fill="#A8814C" d="M92.456,179.537c0.146-0.06,0.217-0.229,0.156-0.378l0,0c-0.061-0.146-0.232-0.216-0.377-0.155
						l-1.058,0.437c-0.149,0.062-0.218,0.231-0.157,0.379l0,0c0.061,0.146,0.23,0.217,0.378,0.156L92.456,179.537z"/>
					<path fill="#A8814C" d="M91.677,175.498c0.16,0,0.288,0.13,0.288,0.289l0,0c0,0.159-0.128,0.289-0.288,0.289h-1.146
						c-0.159,0-0.29-0.13-0.29-0.289l0,0c0-0.159,0.131-0.289,0.29-0.289H91.677z"/>
					<path fill="#A8814C" d="M104.116,167.319c-0.06,0.147,0.009,0.315,0.156,0.377l0,0c0.147,0.062,0.317-0.009,0.377-0.157
						l0.439-1.057c0.061-0.148-0.009-0.317-0.156-0.378l0,0c-0.146-0.06-0.316,0.01-0.376,0.157L104.116,167.319z"/>
					<path fill="#A8814C" d="M107.264,169.278c-0.113,0.111-0.113,0.295,0,0.408l0,0c0.113,0.112,0.296,0.112,0.407,0l0.811-0.81
						c0.112-0.112,0.112-0.296,0-0.409l0,0c-0.113-0.112-0.296-0.112-0.409,0L107.264,169.278z"/>
					<path fill="#A8814C" d="M109.16,172.036c-0.146,0.061-0.217,0.23-0.155,0.376l0,0c0.06,0.147,0.23,0.217,0.377,0.157
						l1.057-0.438c0.149-0.062,0.218-0.23,0.157-0.378l0,0c-0.062-0.147-0.23-0.217-0.379-0.156L109.16,172.036z"/>
					<path fill="#A8814C" d="M104.116,184.253c-0.06-0.146,0.009-0.315,0.156-0.376l0,0c0.147-0.061,0.317,0.009,0.377,0.157
						l0.439,1.057c0.061,0.147-0.009,0.318-0.156,0.378l0,0c-0.146,0.06-0.316-0.009-0.376-0.156L104.116,184.253z"/>
					<path fill="#A8814C" d="M107.264,182.295c-0.113-0.112-0.113-0.295,0-0.408l0,0c0.113-0.113,0.296-0.113,0.407,0l0.811,0.809
						c0.112,0.113,0.112,0.297,0,0.41l0,0c-0.113,0.111-0.296,0.111-0.409,0L107.264,182.295z"/>
					<path fill="#A8814C" d="M109.16,179.537c-0.146-0.06-0.217-0.229-0.155-0.378l0,0c0.06-0.146,0.23-0.216,0.377-0.155
						l1.057,0.437c0.149,0.062,0.218,0.231,0.157,0.379l0,0c-0.062,0.146-0.23,0.217-0.379,0.156L109.16,179.537z"/>
					<path fill="#A8814C" d="M109.939,175.498c-0.159,0-0.288,0.13-0.288,0.289l0,0c0,0.159,0.129,0.289,0.288,0.289h1.146
						c0.158,0,0.288-0.13,0.288-0.289l0,0c0-0.159-0.13-0.289-0.288-0.289H109.939z"/>
				</g>
			</g>
		</g>
		<g>
			<g>
				<path fill="#37699E" d="M57.401,265.159c1.242,0.944,2.648,1.418,4.219,1.418c1.164,0,2.094-0.283,2.789-0.851
					c0.695-0.565,1.043-1.334,1.043-2.304c0-2.132-1.555-3.198-4.664-3.198h-1.547v-2.215h1.453c2.773,0,4.16-0.996,4.16-2.988
					c0-1.859-1.059-2.789-3.176-2.789c-1.25,0-2.445,0.422-3.586,1.266v-2.461c1.195-0.68,2.609-1.02,4.242-1.02
					c1.563,0,2.842,0.396,3.838,1.189s1.494,1.86,1.494,3.205c0,2.383-1.211,3.901-3.633,4.559v0.047
					c1.281,0.125,2.309,0.583,3.082,1.376c0.773,0.793,1.16,1.769,1.16,2.924c0,1.688-0.611,3.021-1.834,3.996
					c-1.223,0.977-2.814,1.465-4.775,1.465c-1.773,0-3.195-0.314-4.266-0.947L57.401,265.159L57.401,265.159z"/>
				<path fill="#37699E" d="M70.983,259.746c0-3.188,0.545-5.605,1.635-7.254c1.09-1.65,2.67-2.474,4.74-2.474
					c3.945,0,5.918,3.099,5.918,9.292c0,3.031-0.539,5.366-1.617,7.008c-1.078,1.642-2.641,2.461-4.688,2.461
					c-1.977,0-3.469-0.772-4.477-2.319C71.486,264.913,70.983,262.673,70.983,259.746z M73.784,259.639
					c0,4.625,1.121,6.938,3.363,6.938c2.211,0,3.316-2.359,3.316-7.077c0-4.844-1.082-7.267-3.246-7.267
					C74.929,252.233,73.784,254.703,73.784,259.639z"/>
			</g>
			<g>
				<circle fill="#A8814C" cx="102.155" cy="259.281" r="11.157"/>
				<g>
					<circle fill="#EED182" cx="100.808" cy="259.09" r="8.312"/>
					<path fill="#EDB468" stroke="#EDB468" stroke-width="0.5156" stroke-miterlimit="10" d="M100.808,269.991
						c-6.01,0-10.9-4.89-10.9-10.901c0-6.01,4.89-10.899,10.9-10.899c6.011,0,10.9,4.89,10.9,10.899
						C111.708,265.102,106.818,269.991,100.808,269.991z M100.808,250.583c-4.69,0-8.508,3.815-8.508,8.508
						c0,4.69,3.818,8.509,8.508,8.509s8.508-3.818,8.508-8.509C109.316,254.399,105.498,250.583,100.808,250.583z"/>
					<path fill="#366595" d="M104.547,261.378c-0.427-1.213-1.333-3.111-3.248-4.422c-2.251-1.537-5.619-2.072-6.262-1.031
						c-0.641,1.037,1.319,3.812,3.718,5.109c2.091,1.129,4.262,1.008,5.529,0.805c-0.289,0.793-0.069,1.968,0.903,2.595
						c0.772-0.955,1.543-1.912,2.314-2.869C106.596,260.527,105.146,260.687,104.547,261.378"/>
					<path fill="#A8814C" d="M101.097,249.958c0,0.16-0.13,0.291-0.289,0.291l0,0c-0.159,0-0.288-0.131-0.288-0.291v-1.146
						c0-0.16,0.129-0.288,0.288-0.288l0,0c0.159,0,0.289,0.128,0.289,0.288V249.958z"/>
					<path fill="#A8814C" d="M101.097,268.223c0-0.162-0.13-0.289-0.289-0.289l0,0c-0.159,0-0.288,0.127-0.288,0.289v1.146
						c0,0.156,0.129,0.287,0.288,0.287l0,0c0.159,0,0.289-0.131,0.289-0.287V268.223z"/>
					<path fill="#A8814C" d="M97.499,250.623c0.062,0.147-0.008,0.315-0.155,0.377l0,0c-0.147,0.063-0.316-0.008-0.377-0.156
						l-0.44-1.057c-0.061-0.148,0.009-0.318,0.157-0.379l0,0c0.147-0.06,0.316,0.01,0.376,0.157L97.499,250.623z"/>
					<path fill="#A8814C" d="M94.352,252.582c0.114,0.111,0.114,0.295,0,0.408l0,0c-0.112,0.112-0.295,0.112-0.408,0l-0.811-0.81
						c-0.112-0.112-0.112-0.296,0-0.409l0,0c0.114-0.111,0.296-0.111,0.41,0L94.352,252.582z"/>
					<path fill="#A8814C" d="M92.456,255.339c0.146,0.062,0.217,0.23,0.156,0.377l0,0c-0.061,0.146-0.232,0.217-0.377,0.156
						l-1.058-0.438c-0.149-0.063-0.218-0.23-0.157-0.378l0,0c0.061-0.147,0.23-0.218,0.378-0.156L92.456,255.339z"/>
					<path fill="#A8814C" d="M97.499,267.557c0.062-0.146-0.008-0.314-0.155-0.375l0,0c-0.147-0.063-0.316,0.008-0.377,0.156
						l-0.44,1.057c-0.061,0.146,0.009,0.318,0.157,0.379l0,0c0.147,0.061,0.316-0.01,0.376-0.156L97.499,267.557z"/>
					<path fill="#A8814C" d="M94.352,265.6c0.114-0.113,0.114-0.295,0-0.408l0,0c-0.112-0.113-0.295-0.113-0.408,0L93.133,266
						c-0.112,0.113-0.112,0.297,0,0.41l0,0c0.114,0.111,0.296,0.111,0.41,0L94.352,265.6z"/>
					<path fill="#A8814C" d="M92.456,262.839c0.146-0.059,0.217-0.229,0.156-0.377l0,0c-0.061-0.146-0.232-0.217-0.377-0.155
						l-1.058,0.438c-0.149,0.063-0.218,0.229-0.157,0.378l0,0c0.061,0.146,0.23,0.217,0.378,0.156L92.456,262.839z"/>
					<path fill="#A8814C" d="M91.677,258.8c0.16,0,0.288,0.131,0.288,0.289l0,0c0,0.16-0.128,0.289-0.288,0.289h-1.146
						c-0.159,0-0.29-0.129-0.29-0.289l0,0c0-0.158,0.131-0.289,0.29-0.289H91.677z"/>
					<path fill="#A8814C" d="M104.116,250.623c-0.06,0.147,0.009,0.315,0.156,0.377l0,0c0.147,0.063,0.317-0.008,0.377-0.156
						l0.439-1.057c0.061-0.148-0.009-0.318-0.156-0.379l0,0c-0.146-0.06-0.316,0.01-0.376,0.157L104.116,250.623z"/>
					<path fill="#A8814C" d="M107.264,252.582c-0.113,0.111-0.113,0.295,0,0.408l0,0c0.113,0.112,0.296,0.112,0.407,0l0.811-0.81
						c0.112-0.112,0.112-0.296,0-0.409l0,0c-0.113-0.111-0.296-0.111-0.409,0L107.264,252.582z"/>
					<path fill="#A8814C" d="M109.16,255.339c-0.146,0.062-0.217,0.23-0.155,0.377l0,0c0.06,0.146,0.23,0.217,0.377,0.156
						l1.057-0.438c0.149-0.063,0.218-0.23,0.157-0.378l0,0c-0.062-0.147-0.23-0.218-0.379-0.156L109.16,255.339z"/>
					<path fill="#A8814C" d="M104.116,267.557c-0.06-0.146,0.009-0.314,0.156-0.375l0,0c0.147-0.063,0.317,0.008,0.377,0.156
						l0.439,1.057c0.061,0.146-0.009,0.318-0.156,0.379l0,0c-0.146,0.061-0.316-0.01-0.376-0.156L104.116,267.557z"/>
					<path fill="#A8814C" d="M107.264,265.6c-0.113-0.113-0.113-0.295,0-0.408l0,0c0.113-0.113,0.296-0.113,0.407,0l0.811,0.809
						c0.112,0.113,0.112,0.297,0,0.41l0,0c-0.113,0.111-0.296,0.111-0.409,0L107.264,265.6z"/>
					<path fill="#A8814C" d="M109.16,262.839c-0.146-0.059-0.217-0.229-0.155-0.377l0,0c0.06-0.146,0.23-0.217,0.377-0.155
						l1.057,0.438c0.149,0.063,0.218,0.229,0.157,0.378l0,0c-0.062,0.146-0.23,0.217-0.379,0.156L109.16,262.839z"/>
					<path fill="#A8814C" d="M109.939,258.8c-0.159,0-0.288,0.131-0.288,0.289l0,0c0,0.16,0.129,0.289,0.288,0.289h1.146
						c0.158,0,0.288-0.129,0.288-0.289l0,0c0-0.158-0.13-0.289-0.288-0.289H109.939z"/>
				</g>
			</g>
		</g>
		<g>
			<g>
				<path fill="#37699E" d="M69.155,347.301h-2.273v4.479h-2.613v-4.479H55.96v-1.781l7.91-11.895h3.012v11.578h2.273V347.301z
					 M64.269,345.206v-7.104c0-0.529,0.016-1.141,0.047-1.826h-0.047c-0.195,0.482-0.426,0.951-0.691,1.404l-4.992,7.523
					L64.269,345.206L64.269,345.206z"/>
				<path fill="#37699E" d="M70.983,343.047c0-3.188,0.545-5.604,1.635-7.254c1.09-1.648,2.67-2.473,4.74-2.473
					c3.945,0,5.918,3.098,5.918,9.293c0,3.031-0.539,5.367-1.617,7.008c-1.078,1.641-2.641,2.461-4.688,2.461
					c-1.977,0-3.469-0.773-4.477-2.32C71.486,348.215,70.983,345.977,70.983,343.047z M73.784,342.944
					c0,4.625,1.121,6.938,3.363,6.938c2.211,0,3.316-2.357,3.316-7.078c0-4.844-1.082-7.266-3.246-7.266
					C74.929,335.538,73.784,338.004,73.784,342.944z"/>
			</g>
			<g>
				<circle fill="#A8814C" cx="102.155" cy="342.585" r="11.157"/>
				<g>
					<circle fill="#EED182" cx="100.808" cy="342.395" r="8.313"/>
					<path fill="#EDB468" stroke="#EDB468" stroke-width="0.5156" stroke-miterlimit="10" d="M100.808,353.295
						c-6.01,0-10.9-4.891-10.9-10.902c0-6.01,4.89-10.898,10.9-10.898c6.011,0,10.9,4.891,10.9,10.898
						C111.708,348.407,106.818,353.295,100.808,353.295z M100.808,333.887c-4.69,0-8.508,3.816-8.508,8.506
						c0,4.691,3.818,8.51,8.508,8.51s8.508-3.816,8.508-8.51C109.316,337.704,105.498,333.887,100.808,333.887z"/>
					<path fill="#366595" d="M104.547,344.682c-0.427-1.213-1.333-3.109-3.248-4.422c-2.251-1.537-5.619-2.07-6.262-1.027
						c-0.641,1.033,1.319,3.809,3.718,5.105c2.091,1.129,4.262,1.008,5.529,0.805c-0.289,0.793-0.069,1.969,0.903,2.596
						c0.772-0.955,1.543-1.912,2.314-2.867C106.596,343.833,105.146,343.991,104.547,344.682"/>
					<path fill="#A8814C" d="M101.097,333.262c0,0.16-0.13,0.291-0.289,0.291l0,0c-0.159,0-0.288-0.131-0.288-0.291v-1.145
						c0-0.16,0.129-0.287,0.288-0.287l0,0c0.159,0,0.289,0.127,0.289,0.287V333.262z"/>
					<path fill="#A8814C" d="M101.097,351.528c0-0.162-0.13-0.289-0.289-0.289l0,0c-0.159,0-0.288,0.127-0.288,0.289v1.145
						c0,0.158,0.129,0.289,0.288,0.289l0,0c0.159,0,0.289-0.131,0.289-0.289V351.528z"/>
					<path fill="#A8814C" d="M97.499,333.926c0.062,0.148-0.008,0.316-0.155,0.377l0,0c-0.147,0.064-0.316-0.008-0.377-0.154
						l-0.44-1.059c-0.061-0.146,0.009-0.316,0.157-0.379l0,0c0.147-0.061,0.316,0.01,0.376,0.156L97.499,333.926z"/>
					<path fill="#A8814C" d="M94.352,335.885c0.114,0.111,0.114,0.295,0,0.408l0,0c-0.112,0.111-0.295,0.111-0.408,0l-0.811-0.811
						c-0.112-0.111-0.112-0.297,0-0.408l0,0c0.114-0.111,0.296-0.111,0.41,0L94.352,335.885z"/>
					<path fill="#A8814C" d="M92.456,338.643c0.146,0.063,0.217,0.23,0.156,0.379l0,0c-0.061,0.145-0.232,0.217-0.377,0.156
						l-1.058-0.438c-0.149-0.064-0.218-0.23-0.157-0.379l0,0c0.061-0.146,0.23-0.217,0.378-0.156L92.456,338.643z"/>
					<path fill="#A8814C" d="M97.499,350.862c0.062-0.146-0.008-0.316-0.155-0.377l0,0c-0.147-0.063-0.316,0.01-0.377,0.156
						l-0.44,1.059c-0.061,0.145,0.009,0.316,0.157,0.379l0,0c0.147,0.059,0.316-0.01,0.376-0.156L97.499,350.862z"/>
					<path fill="#A8814C" d="M94.352,348.905c0.114-0.113,0.114-0.297,0-0.408l0,0c-0.112-0.113-0.295-0.113-0.408,0l-0.811,0.809
						c-0.112,0.113-0.112,0.297,0,0.41l0,0c0.114,0.111,0.296,0.111,0.41,0L94.352,348.905z"/>
					<path fill="#A8814C" d="M92.456,346.143c0.146-0.059,0.217-0.229,0.156-0.377l0,0c-0.061-0.145-0.232-0.217-0.377-0.154
						l-1.058,0.438c-0.149,0.064-0.218,0.23-0.157,0.379l0,0c0.061,0.146,0.23,0.217,0.378,0.156L92.456,346.143z"/>
					<path fill="#A8814C" d="M91.677,342.106c0.16,0,0.288,0.131,0.288,0.287l0,0c0,0.158-0.128,0.289-0.288,0.289h-1.146
						c-0.159,0-0.29-0.131-0.29-0.289l0,0c0-0.156,0.131-0.287,0.29-0.287H91.677z"/>
					<path fill="#A8814C" d="M104.116,333.926c-0.06,0.148,0.009,0.316,0.156,0.377l0,0c0.147,0.064,0.317-0.008,0.377-0.154
						l0.439-1.059c0.061-0.146-0.009-0.316-0.156-0.379l0,0c-0.146-0.061-0.316,0.01-0.376,0.156L104.116,333.926z"/>
					<path fill="#A8814C" d="M107.264,335.885c-0.113,0.111-0.113,0.295,0,0.408l0,0c0.113,0.111,0.296,0.111,0.407,0l0.811-0.811
						c0.112-0.111,0.112-0.297,0-0.408l0,0c-0.113-0.111-0.296-0.111-0.409,0L107.264,335.885z"/>
					<path fill="#A8814C" d="M109.16,338.643c-0.146,0.063-0.217,0.23-0.155,0.379l0,0c0.06,0.145,0.23,0.217,0.377,0.156
						l1.057-0.438c0.149-0.064,0.218-0.23,0.157-0.379l0,0c-0.062-0.146-0.23-0.217-0.379-0.156L109.16,338.643z"/>
					<path fill="#A8814C" d="M104.116,350.862c-0.06-0.146,0.009-0.316,0.156-0.377l0,0c0.147-0.063,0.317,0.01,0.377,0.156
						l0.439,1.059c0.061,0.145-0.009,0.316-0.156,0.379l0,0c-0.146,0.059-0.316-0.01-0.376-0.156L104.116,350.862z"/>
					<path fill="#A8814C" d="M107.264,348.905c-0.113-0.113-0.113-0.297,0-0.408l0,0c0.113-0.113,0.296-0.113,0.407,0l0.811,0.809
						c0.112,0.113,0.112,0.297,0,0.41l0,0c-0.113,0.111-0.296,0.111-0.409,0L107.264,348.905z"/>
					<path fill="#A8814C" d="M109.16,346.143c-0.146-0.059-0.217-0.229-0.155-0.377l0,0c0.06-0.145,0.23-0.217,0.377-0.154
						l1.057,0.438c0.149,0.064,0.218,0.23,0.157,0.379l0,0c-0.062,0.146-0.23,0.217-0.379,0.156L109.16,346.143z"/>
					<path fill="#A8814C" d="M109.939,342.106c-0.159,0-0.288,0.131-0.288,0.287l0,0c0,0.158,0.129,0.289,0.288,0.289h1.146
						c0.158,0,0.288-0.131,0.288-0.289l0,0c0-0.156-0.13-0.287-0.288-0.287H109.939z"/>
				</g>
			</g>
		</g>
		<g>
			<g>
				<path fill="#37699E" d="M57.741,430.186c1.25,0.789,2.531,1.186,3.844,1.186c1.172,0,2.125-0.32,2.859-0.961
					c0.734-0.643,1.102-1.508,1.102-2.604c0-2.266-1.453-3.396-4.359-3.396c-0.688,0-1.652,0.059-2.895,0.176v-9.469h9.223v2.367
					h-6.75v4.723c0.68-0.039,1.191-0.059,1.535-0.059c1.859,0,3.332,0.479,4.418,1.439c1.086,0.961,1.629,2.297,1.629,4.008
					c0,1.82-0.602,3.271-1.805,4.355c-1.203,1.082-2.809,1.623-4.816,1.623c-1.719,0-3.047-0.254-3.984-0.764L57.741,430.186
					L57.741,430.186z"/>
				<path fill="#37699E" d="M70.983,424.54c0-3.189,0.545-5.605,1.635-7.254c1.09-1.65,2.67-2.475,4.74-2.475
					c3.945,0,5.918,3.1,5.918,9.295c0,3.029-0.539,5.365-1.617,7.008c-1.078,1.641-2.641,2.461-4.688,2.461
					c-1.977,0-3.469-0.773-4.477-2.32C71.486,429.708,70.983,427.467,70.983,424.54z M73.784,424.432
					c0,4.625,1.121,6.939,3.363,6.939c2.211,0,3.316-2.359,3.316-7.078c0-4.844-1.082-7.266-3.246-7.266
					C74.929,417.028,73.784,419.497,73.784,424.432z"/>
			</g>
			<g>
				<circle fill="#A8814C" cx="102.155" cy="424.076" r="11.157"/>
				<g>
					<circle fill="#EED182" cx="100.808" cy="423.885" r="8.313"/>
					<path fill="#EDB468" stroke="#EDB468" stroke-width="0.5156" stroke-miterlimit="10" d="M100.808,434.786
						c-6.01,0-10.9-4.891-10.9-10.9s4.89-10.898,10.9-10.898c6.011,0,10.9,4.891,10.9,10.898
						C111.708,429.895,106.818,434.786,100.808,434.786z M100.808,415.377c-4.69,0-8.508,3.816-8.508,8.506
						c0,4.691,3.818,8.508,8.508,8.508s8.508-3.814,8.508-8.508C109.316,419.194,105.498,415.377,100.808,415.377z"/>
					<path fill="#366595" d="M104.547,426.172c-0.427-1.213-1.333-3.111-3.248-4.422c-2.251-1.537-5.619-2.072-6.262-1.029
						c-0.641,1.035,1.319,3.811,3.718,5.107c2.091,1.129,4.262,1.008,5.529,0.805c-0.289,0.793-0.069,1.967,0.903,2.594
						c0.772-0.953,1.543-1.91,2.314-2.865C106.596,425.323,105.146,425.481,104.547,426.172"/>
					<path fill="#A8814C" d="M101.097,414.752c0,0.16-0.13,0.291-0.289,0.291l0,0c-0.159,0-0.288-0.131-0.288-0.291v-1.145
						c0-0.16,0.129-0.287,0.288-0.287l0,0c0.159,0,0.289,0.127,0.289,0.287V414.752z"/>
					<path fill="#A8814C" d="M101.097,433.016c0-0.158-0.13-0.289-0.289-0.289l0,0c-0.159,0-0.288,0.131-0.288,0.289v1.146
						c0,0.158,0.129,0.289,0.288,0.289l0,0c0.159,0,0.289-0.131,0.289-0.289V433.016z"/>
					<path fill="#A8814C" d="M97.499,415.417c0.062,0.148-0.008,0.316-0.155,0.377l0,0c-0.147,0.064-0.316-0.008-0.377-0.156
						l-0.44-1.057c-0.061-0.148,0.009-0.318,0.157-0.379l0,0c0.147-0.063,0.316,0.01,0.376,0.156L97.499,415.417z"/>
					<path fill="#A8814C" d="M94.352,417.375c0.114,0.111,0.114,0.295,0,0.408l0,0c-0.112,0.109-0.295,0.109-0.408,0l-0.811-0.813
						c-0.112-0.109-0.112-0.295,0-0.406l0,0c0.114-0.111,0.296-0.111,0.41,0L94.352,417.375z"/>
					<path fill="#A8814C" d="M92.456,420.133c0.146,0.063,0.217,0.23,0.156,0.377l0,0c-0.061,0.146-0.232,0.217-0.377,0.158
						l-1.058-0.438c-0.149-0.064-0.218-0.23-0.157-0.381l0,0c0.061-0.145,0.23-0.217,0.378-0.154L92.456,420.133z"/>
					<path fill="#A8814C" d="M97.499,432.35c0.062-0.145-0.008-0.313-0.155-0.377l0,0c-0.147-0.061-0.316,0.012-0.377,0.158
						l-0.44,1.059c-0.061,0.146,0.009,0.316,0.157,0.379l0,0c0.147,0.059,0.316-0.012,0.376-0.156L97.499,432.35z"/>
					<path fill="#A8814C" d="M94.352,430.393c0.114-0.109,0.114-0.295,0-0.406l0,0c-0.112-0.113-0.295-0.113-0.408,0l-0.811,0.809
						c-0.112,0.113-0.112,0.297,0,0.41l0,0c0.114,0.111,0.296,0.111,0.41,0L94.352,430.393z"/>
					<path fill="#A8814C" d="M92.456,427.633c0.146-0.059,0.217-0.229,0.156-0.377l0,0c-0.061-0.145-0.232-0.217-0.377-0.156
						l-1.058,0.439c-0.149,0.063-0.218,0.229-0.157,0.379l0,0c0.061,0.145,0.23,0.217,0.378,0.156L92.456,427.633z"/>
					<path fill="#A8814C" d="M91.677,423.594c0.16,0,0.288,0.131,0.288,0.289l0,0c0,0.16-0.128,0.289-0.288,0.289h-1.146
						c-0.159,0-0.29-0.129-0.29-0.289l0,0c0-0.158,0.131-0.289,0.29-0.289H91.677z"/>
					<path fill="#A8814C" d="M104.116,415.417c-0.06,0.148,0.009,0.316,0.156,0.377l0,0c0.147,0.064,0.317-0.008,0.377-0.156
						l0.439-1.057c0.061-0.148-0.009-0.318-0.156-0.379l0,0c-0.146-0.063-0.316,0.01-0.376,0.156L104.116,415.417z"/>
					<path fill="#A8814C" d="M107.264,417.375c-0.113,0.111-0.113,0.295,0,0.408l0,0c0.113,0.109,0.296,0.109,0.407,0l0.811-0.813
						c0.112-0.109,0.112-0.295,0-0.406l0,0c-0.113-0.111-0.296-0.111-0.409,0L107.264,417.375z"/>
					<path fill="#A8814C" d="M109.16,420.133c-0.146,0.063-0.217,0.23-0.155,0.377l0,0c0.06,0.146,0.23,0.217,0.377,0.158
						l1.057-0.438c0.149-0.064,0.218-0.23,0.157-0.381l0,0c-0.062-0.145-0.23-0.217-0.379-0.154L109.16,420.133z"/>
					<path fill="#A8814C" d="M104.116,432.35c-0.06-0.145,0.009-0.313,0.156-0.377l0,0c0.147-0.061,0.317,0.012,0.377,0.158
						l0.439,1.059c0.061,0.146-0.009,0.316-0.156,0.379l0,0c-0.146,0.059-0.316-0.012-0.376-0.156L104.116,432.35z"/>
					<path fill="#A8814C" d="M107.264,430.393c-0.113-0.109-0.113-0.295,0-0.406l0,0c0.113-0.113,0.296-0.113,0.407,0l0.811,0.809
						c0.112,0.113,0.112,0.297,0,0.41l0,0c-0.113,0.111-0.296,0.111-0.409,0L107.264,430.393z"/>
					<path fill="#A8814C" d="M109.16,427.633c-0.146-0.059-0.217-0.229-0.155-0.377l0,0c0.06-0.145,0.23-0.217,0.377-0.156
						l1.057,0.439c0.149,0.063,0.218,0.229,0.157,0.379l0,0c-0.062,0.145-0.23,0.217-0.379,0.156L109.16,427.633z"/>
					<path fill="#A8814C" d="M109.939,423.594c-0.159,0-0.288,0.131-0.288,0.289l0,0c0,0.16,0.129,0.289,0.288,0.289h1.146
						c0.158,0,0.288-0.129,0.288-0.289l0,0c0-0.158-0.13-0.289-0.288-0.289H109.939z"/>
				</g>
			</g>
		</g>
	</g>
	<g>
		<g>
			<g>
				<path fill="#37699E" d="M185.309,101.867H174.62V99.57h3.973V86.457l-4.077,1.102v-2.414l6.832-1.793v16.219h3.961V101.867z"/>
				<path fill="#37699E" d="M187.732,93.137c0-3.188,0.545-5.605,1.636-7.254c1.09-1.649,2.67-2.473,4.739-2.473
					c3.944,0,5.918,3.098,5.918,9.293c0,3.031-0.539,5.367-1.616,7.008c-1.078,1.641-2.642,2.461-4.688,2.461
					c-1.977,0-3.469-0.773-4.477-2.32S187.732,96.066,187.732,93.137z M190.534,93.031c0,4.625,1.12,6.938,3.362,6.938
					c2.211,0,3.315-2.359,3.315-7.078c0-4.844-1.082-7.266-3.246-7.266C191.68,85.625,190.534,88.094,190.534,93.031z"/>
			</g>
			<g>
				<path d="M218.423,98.484c-0.036,1.048-0.127,1.816-0.272,2.304c-0.146,0.488-0.387,0.814-0.726,0.981
					c-0.338,0.167-0.94,0.25-1.812,0.25c-0.598,0-1.063-0.015-1.396-0.044s-0.599-0.136-0.8-0.318
					c-0.201-0.182-0.301-0.442-0.301-0.779v-5.599h-2.153c-0.091,1.914-0.438,3.363-1.035,4.348c-0.6,0.985-1.59,1.828-2.971,2.529
					l-0.909-1.039c1.263-0.524,2.166-1.202,2.71-2.034c0.545-0.832,0.846-2.1,0.899-3.804h-3.263v-1.217h11.785v1.217h-3.767v5.141
					c0,0.146,0.047,0.242,0.14,0.287c0.094,0.045,0.477,0.068,1.146,0.068c0.521,0,0.845-0.031,0.979-0.092
					c0.133-0.061,0.219-0.157,0.26-0.287s0.086-0.403,0.138-0.82c0.051-0.417,0.084-0.967,0.103-1.651L218.423,98.484z
					 M217.343,91.402h-10.075v-1.23h10.075V91.402z"/>
			</g>
		</g>
		<g>
			<g>
				<path fill="#37699E" d="M184.979,185.171h-11.285v-2.297l5.264-5.18c1.172-1.148,2.037-2.141,2.596-2.977
					c0.561-0.836,0.84-1.746,0.84-2.73c0-2.008-1.063-3.012-3.188-3.012c-1.595,0-3.125,0.668-4.595,2.004v-2.648
					c1.478-1.078,3.172-1.617,5.086-1.617c1.664,0,2.99,0.443,3.979,1.33c0.989,0.887,1.48,2.1,1.48,3.639
					c0,1.109-0.313,2.213-0.938,3.311c-0.625,1.098-1.715,2.396-3.27,3.896l-4.031,3.844v0.059h8.063V185.171L184.979,185.171z"/>
				<path fill="#37699E" d="M187.732,176.441c0-3.188,0.545-5.605,1.636-7.254c1.09-1.649,2.67-2.473,4.739-2.473
					c3.944,0,5.918,3.098,5.918,9.293c0,3.031-0.539,5.367-1.616,7.008c-1.078,1.641-2.642,2.461-4.688,2.461
					c-1.977,0-3.469-0.773-4.477-2.32C188.236,181.609,187.732,179.371,187.732,176.441z M190.534,176.335
					c0,4.625,1.12,6.938,3.362,6.938c2.211,0,3.315-2.359,3.315-7.078c0-4.844-1.082-7.266-3.246-7.266
					C191.68,168.929,190.534,171.398,190.534,176.335z"/>
			</g>
			<g>
				<path d="M218.423,181.788c-0.036,1.048-0.127,1.816-0.272,2.304c-0.146,0.488-0.387,0.814-0.726,0.981
					c-0.338,0.167-0.94,0.25-1.812,0.25c-0.598,0-1.063-0.015-1.396-0.044c-0.333-0.029-0.599-0.136-0.8-0.318
					s-0.301-0.442-0.301-0.779v-5.599h-2.153c-0.091,1.914-0.438,3.363-1.035,4.348c-0.6,0.985-1.59,1.828-2.971,2.529l-0.909-1.039
					c1.263-0.524,2.166-1.202,2.71-2.034c0.545-0.832,0.846-2.1,0.899-3.804h-3.263v-1.217h11.785v1.217h-3.767v5.141
					c0,0.146,0.047,0.242,0.14,0.287c0.094,0.045,0.477,0.068,1.146,0.068c0.521,0,0.845-0.031,0.979-0.092
					c0.133-0.061,0.219-0.157,0.26-0.287c0.041-0.13,0.086-0.403,0.138-0.82c0.051-0.417,0.084-0.967,0.103-1.651L218.423,181.788z
					 M217.343,174.706h-10.075v-1.23h10.075V174.706z"/>
			</g>
		</g>
		<g>
			<g>
				<path fill="#37699E" d="M174.15,265.159c1.242,0.944,2.647,1.418,4.22,1.418c1.164,0,2.094-0.283,2.789-0.851
					c0.694-0.565,1.043-1.334,1.043-2.304c0-2.132-1.556-3.198-4.664-3.198h-1.547v-2.215h1.452c2.772,0,4.16-0.996,4.16-2.988
					c0-1.859-1.06-2.789-3.177-2.789c-1.25,0-2.444,0.422-3.586,1.266v-2.461c1.195-0.68,2.609-1.02,4.242-1.02
					c1.563,0,2.842,0.396,3.838,1.189s1.494,1.86,1.494,3.205c0,2.383-1.211,3.901-3.633,4.559v0.047
					c1.28,0.125,2.309,0.583,3.082,1.376c0.772,0.793,1.159,1.769,1.159,2.924c0,1.688-0.61,3.021-1.834,3.996
					c-1.224,0.977-2.813,1.465-4.774,1.465c-1.772,0-3.194-0.314-4.267-0.947v-2.672H174.15z"/>
				<path fill="#37699E" d="M187.732,259.746c0-3.188,0.545-5.605,1.636-7.254c1.09-1.65,2.67-2.474,4.739-2.474
					c3.944,0,5.918,3.099,5.918,9.292c0,3.031-0.539,5.366-1.616,7.008c-1.078,1.642-2.642,2.461-4.688,2.461
					c-1.977,0-3.469-0.772-4.477-2.319S187.732,262.673,187.732,259.746z M190.534,259.639c0,4.625,1.12,6.938,3.362,6.938
					c2.211,0,3.315-2.359,3.315-7.077c0-4.844-1.082-7.267-3.246-7.267C191.68,252.233,190.534,254.703,190.534,259.639z"/>
			</g>
			<g>
				<path d="M218.423,265.092c-0.036,1.049-0.127,1.816-0.272,2.305c-0.146,0.486-0.387,0.813-0.726,0.98
					c-0.338,0.166-0.94,0.25-1.812,0.25c-0.598,0-1.063-0.017-1.396-0.045c-0.333-0.027-0.599-0.136-0.8-0.316
					c-0.201-0.184-0.301-0.441-0.301-0.779v-5.601h-2.153c-0.091,1.915-0.438,3.364-1.035,4.349c-0.6,0.986-1.59,1.828-2.971,2.529
					l-0.909-1.039c1.263-0.523,2.166-1.201,2.71-2.033c0.545-0.832,0.846-2.102,0.899-3.805h-3.263v-1.218h11.785v1.218h-3.767
					v5.141c0,0.146,0.047,0.242,0.14,0.287c0.094,0.045,0.477,0.068,1.146,0.068c0.521,0,0.845-0.031,0.979-0.092
					c0.133-0.062,0.219-0.158,0.26-0.287c0.041-0.131,0.086-0.402,0.138-0.82c0.051-0.416,0.084-0.967,0.103-1.65L218.423,265.092z
					 M217.343,258.009h-10.075v-1.229h10.075V258.009z"/>
			</g>
		</g>
		<g>
			<g>
				<path fill="#37699E" d="M185.904,347.301h-2.272v4.479h-2.612v-4.479h-8.31v-1.781l7.91-11.895h3.012v11.578h2.272V347.301
					L185.904,347.301z M181.02,345.206v-7.104c0-0.529,0.017-1.141,0.047-1.826h-0.047c-0.194,0.482-0.427,0.951-0.69,1.404
					l-4.992,7.523L181.02,345.206L181.02,345.206z"/>
				<path fill="#37699E" d="M187.732,343.047c0-3.188,0.545-5.604,1.636-7.254c1.09-1.648,2.67-2.473,4.739-2.473
					c3.944,0,5.918,3.098,5.918,9.293c0,3.031-0.539,5.367-1.616,7.008c-1.078,1.641-2.642,2.461-4.688,2.461
					c-1.977,0-3.469-0.773-4.477-2.32S187.732,345.977,187.732,343.047z M190.534,342.944c0,4.625,1.12,6.938,3.362,6.938
					c2.211,0,3.315-2.357,3.315-7.078c0-4.844-1.082-7.266-3.246-7.266C191.68,335.538,190.534,338.004,190.534,342.944z"/>
			</g>
			<g>
				<path d="M218.423,348.395c-0.036,1.051-0.127,1.816-0.272,2.307c-0.146,0.486-0.387,0.813-0.726,0.979
					c-0.337,0.166-0.94,0.25-1.812,0.25c-0.598,0-1.063-0.016-1.396-0.045c-0.333-0.027-0.599-0.137-0.8-0.316
					c-0.201-0.182-0.301-0.441-0.301-0.779v-5.598h-2.153c-0.091,1.912-0.438,3.361-1.035,4.348c-0.6,0.984-1.59,1.826-2.971,2.529
					l-0.909-1.039c1.263-0.525,2.166-1.203,2.71-2.035c0.545-0.83,0.846-2.102,0.899-3.803h-3.263v-1.219h11.785v1.219h-3.767v5.141
					c0,0.145,0.047,0.24,0.14,0.287c0.094,0.045,0.477,0.066,1.146,0.066c0.521,0,0.845-0.029,0.979-0.094
					c0.133-0.061,0.219-0.156,0.26-0.287c0.041-0.129,0.086-0.4,0.138-0.818c0.05-0.416,0.084-0.969,0.103-1.65L218.423,348.395z
					 M217.343,341.315h-10.075v-1.23h10.075V341.315z"/>
			</g>
		</g>
		<g>
			<g>
				<path fill="#37699E" d="M174.491,430.186c1.25,0.789,2.53,1.186,3.844,1.186c1.172,0,2.125-0.32,2.858-0.961
					c0.733-0.643,1.103-1.508,1.103-2.604c0-2.266-1.453-3.396-4.358-3.396c-0.688,0-1.651,0.059-2.896,0.176v-9.469h9.224v2.367
					h-6.75v4.723c0.68-0.039,1.19-0.059,1.534-0.059c1.859,0,3.332,0.479,4.418,1.439c1.087,0.961,1.63,2.297,1.63,4.008
					c0,1.82-0.603,3.271-1.806,4.355c-1.203,1.082-2.81,1.623-4.815,1.623c-1.72,0-3.047-0.254-3.983-0.764L174.491,430.186
					L174.491,430.186z"/>
				<path fill="#37699E" d="M187.732,424.54c0-3.189,0.545-5.605,1.636-7.254c1.09-1.65,2.67-2.475,4.739-2.475
					c3.944,0,5.918,3.1,5.918,9.295c0,3.029-0.539,5.365-1.616,7.008c-1.078,1.641-2.642,2.461-4.688,2.461
					c-1.977,0-3.469-0.773-4.477-2.32S187.732,427.467,187.732,424.54z M190.534,424.432c0,4.625,1.12,6.939,3.362,6.939
					c2.211,0,3.315-2.359,3.315-7.078c0-4.844-1.082-7.266-3.246-7.266C191.68,417.028,190.534,419.497,190.534,424.432z"/>
			</g>
			<g>
				<path d="M218.423,429.885c-0.036,1.049-0.127,1.816-0.272,2.307c-0.146,0.486-0.387,0.813-0.726,0.979
					c-0.337,0.166-0.94,0.25-1.812,0.25c-0.598,0-1.063-0.016-1.396-0.045s-0.599-0.137-0.8-0.318
					c-0.201-0.18-0.301-0.439-0.301-0.777v-5.6h-2.153c-0.091,1.914-0.438,3.363-1.035,4.35c-0.6,0.982-1.59,1.824-2.971,2.527
					l-0.909-1.039c1.263-0.523,2.166-1.201,2.71-2.033c0.545-0.83,0.846-2.102,0.899-3.805h-3.263v-1.217h11.785v1.217h-3.767v5.143
					c0,0.145,0.047,0.238,0.14,0.287c0.094,0.045,0.477,0.066,1.146,0.066c0.521,0,0.845-0.031,0.979-0.094
					c0.133-0.061,0.219-0.156,0.26-0.287c0.041-0.129,0.086-0.402,0.138-0.82c0.05-0.416,0.084-0.967,0.103-1.648L218.423,429.885z
					 M217.343,422.803h-10.075v-1.229h10.075V422.803z"/>
			</g>
		</g>
	</g>
</g>
<polygon fill="#FFFFFF" stroke="#FFFFFF" stroke-miterlimit="10" points="-17.129,415.264 16.371,367.151 14.371,412.258 "/>
</svg>
