<?xml version="1.0" encoding="utf-8"?>
<!-- Generator: Adobe Illustrator 16.0.0, SVG Export Plug-In . SVG Version: 6.00 Build 0)  -->
<!DOCTYPE svg PUBLIC "-//W3C//DTD SVG 1.1//EN" "http://www.w3.org/Graphics/SVG/1.1/DTD/svg11.dtd">
<svg version="1.1" id="圖層_1" xmlns="http://www.w3.org/2000/svg" xmlns:xlink="http://www.w3.org/1999/xlink" x="0px" y="0px"
	 width="215px" height="199.789px" viewBox="0 0 215 199.789" enable-background="new 0 0 215 199.789" xml:space="preserve">
<g>
	<image overflow="visible" width="238" height="119" xlink:href="E79BF23C.png"  transform="matrix(1 0 0 1 -14 109.394)">
	</image>
</g>
<g>
	
		<ellipse transform="matrix(-0.297 0.9549 -0.9549 -0.297 293.6869 -136.6476)" fill="#217AAF" cx="197.145" cy="39.785" rx="12.241" ry="6.408"/>
	<g>
		<g>
			<path fill="#18648C" d="M106.513,39.785l-89.95,0.35L29.81,80.287l5.955,20.429c3.602,5.387,7.91,10.326,13.232,14.59
				c16.591,13.289,38.32,18.541,59.289,18.23c12.838-0.189,25.528-1.639,38.03-4.597c9.052-2.142,17.914-5.086,25.646-10.058
				l11.252-38.596l13.248-40.152L106.513,39.785z"/>
			<path fill="#18648C" d="M46.54,119.787c-2.591-2.076-4.96-4.283-7.14-6.604l13.838,47.47h0.048
				c2.613,8.479,25.451,15.111,53.245,15.111c27.794,0,50.632-6.632,53.244-15.111h0.014l10.148-34.813
				c-18.377,9.988-41.461,12.693-61.65,12.761C86.539,138.673,63.83,133.636,46.54,119.787z"/>
		</g>
		<path fill="#18648C" d="M35.765,100.716l3.635,12.468c0,0,21.059,35.343,71.243,31.29c50.186-4.051,59.295-18.633,59.295-18.633
			l2.026-6.957"/>
	</g>
	<path fill="#DCDDDD" d="M74.968,14.416"/>
	<ellipse fill="#18648C" cx="106.514" cy="38.334" rx="90.175" ry="24.683"/>
	<path fill="#97D4E5" d="M24.445,46.437c14.211,8.522,45.614,14.446,82.074,14.446c36.479,0,67.897-5.93,82.098-14.459
		c-8.194-10.348-41.821-18.102-82.08-18.102C66.261,28.322,32.622,36.082,24.445,46.437z"/>
	<path fill="none" d="M106.513,16.65c-54.011,0-87.175,12.629-87.175,21.684c0,5.491,12.218,12.293,33.87,16.799
		c-5.292-2.201-8.331-4.749-8.331-7.467c0-8.326,28.38-15.078,63.389-15.078c35.01,0,63.389,6.752,63.389,15.078
		c0,2.098-1.805,4.094-5.059,5.909c17.404-4.423,27.094-10.353,27.094-15.241C193.689,29.279,160.523,16.65,106.513,16.65z"/>
	<g>
		<g>
			<path fill="#DCDDDD" d="M172.436,47.612c-0.336-5.342-7.82-7.745-11.937-9.172c-11.179-3.876-23.396-5.076-35.119-5.888
				c-14.711-1.018-29.567-0.688-44.223,0.908c-10.011,1.09-20.465,2.728-29.716,6.884c-4.084,1.835-9.357,5.388-6.283,10.32
				c2.332,3.74,7.757,5.066,11.716,5.815c6.356,1.204,12.781,2.03,19.214,2.687c27.09,2.767,55.131,2.073,81.898-3.086
				C163.2,55.075,171.488,54.227,172.436,47.612c0.115-0.802-1.459-0.606-1.562,0.108c-0.892,6.235-10.937,6.866-15.883,7.782
				c-5.903,1.093-11.866,1.851-17.835,2.47c-12.668,1.313-25.436,1.63-38.162,1.379c-12.066-0.237-24.128-1.236-36.056-3.072
				c-5.746-0.885-14.815-1.58-17.179-7.92c-1.158-3.106,3.521-5.622,5.567-6.687c8.425-4.379,18.8-5.694,28.069-6.861
				c13.241-1.667,26.681-1.933,40.003-1.406c11.57,0.457,23.242,1.681,34.506,4.438c4.585,1.122,16.576,3.64,16.97,9.877
				C170.926,48.547,172.48,48.318,172.436,47.612z"/>
		</g>
	</g>
	<g>
		<g>
			<path fill="#DCDDDD" d="M153.966,46.676c-0.454,5.107-11.749,6.626-15.472,7.393c-10.448,2.151-21.281,2.638-31.918,2.685
				c-10.217,0.044-20.495-0.67-30.561-2.453c-4.144-0.734-15.521-2.195-16.926-7.447c-1.27-4.745,12.792-7.128,15.445-7.675
				c10.448-2.151,21.281-2.638,31.918-2.685c10.674-0.046,21.437,0.71,31.93,2.714c3.667,0.701,15.132,2.41,15.597,7.616
				c0.063,0.707,1.561,0.34,1.494-0.4c-0.432-4.851-9.228-6.64-12.753-7.482c-11.804-2.821-24.043-3.521-36.144-3.574
				C94.5,35.314,82.194,36.157,70.42,38.97c-3.695,0.883-12.433,2.725-12.876,7.706c-0.423,4.749,9.701,6.844,12.59,7.588
				c11.76,3.029,24.231,3.563,36.317,3.616c12.076,0.053,24.381-0.79,36.154-3.603c3.695-0.883,12.434-2.725,12.877-7.706
				C155.553,45.78,154.027,45.978,153.966,46.676z"/>
		</g>
	</g>
	<g>
		<g>
			<path fill="#DCDDDD" d="M142.214,46.258c-0.59,4.545-12.633,5.277-15.918,5.718c-8.271,1.108-16.676,1.247-25.006,1.027
				c-6.888-0.182-13.799-0.819-20.559-2.178c-2.499-0.502-9.474-1.547-9.919-4.979c-0.533-4.106,13.543-5.4,15.918-5.718
				c8.271-1.108,16.676-1.248,25.006-1.028c6.888,0.182,13.799,0.82,20.559,2.179C134.794,41.781,141.77,42.826,142.214,46.258
				c0.033,0.252,1.585-0.055,1.539-0.412c-0.499-3.837-8.692-4.829-11.461-5.386c-10.121-2.035-20.724-2.211-31.002-1.94
				c-7.913,0.209-15.909,0.937-23.61,2.824c-2.396,0.587-8.001,1.79-8.407,4.914c-0.457,3.521,9.523,4.996,11.461,5.386
				c10.121,2.034,20.724,2.21,31.002,1.939c7.912-0.208,15.908-0.936,23.609-2.823c2.396-0.587,8.002-1.789,8.407-4.914
				C143.771,45.712,142.271,45.822,142.214,46.258z"/>
		</g>
	</g>
	<g>
		<g>
			<path fill="#DCDDDD" d="M127.137,45.993c-1.039,4.303-17.365,3.382-20.448,3.353c-4.687-0.044-13.035,0.205-16.984-3.016
				c-1.685-1.374,7.348-3.269,8.023-3.36c4.006-0.546,8.081-0.592,12.118-0.555c2.633,0.025,16.332-0.286,17.287,3.671
				c0.11,0.458,1.653,0.06,1.539-0.412c-0.48-1.993-3.785-2.391-5.425-2.778c-5.351-1.262-11.093-1.301-16.557-1.25
				c-4.738,0.044-9.527,0.48-14.143,1.569c-1.494,0.353-4.252,1.008-4.679,2.777c-0.996,4.129,20.034,4.14,21.978,4.122
				c4.738-0.044,9.527-0.48,14.143-1.569c1.494-0.352,4.253-1.007,4.68-2.777C128.783,45.286,127.248,45.53,127.137,45.993z"/>
		</g>
	</g>
	<g>
		<g>
			<path fill="#EED182" d="M108.266,84.2c11.4,0,29.711,4.901,29.564,18.756c-0.15,14.092-16.344,23.276-29.564,23.277
				c-13.219,0.001-29.416-9.188-29.563-23.277C78.557,89.101,96.864,84.201,108.266,84.2z"/>
			<path fill="#EDB468" stroke="#EDB468" stroke-width="1.5443" stroke-miterlimit="10" d="M108.266,132.779
				c-17.459-0.042-38.43-12.693-38.686-31.449c-0.251-18.4,24.211-23.674,38.686-23.672s38.938,5.27,38.688,23.672
				C146.695,120.085,125.727,132.736,108.266,132.779z M108.266,83.706c-11.789-0.148-30.408,4.982-30.254,19.142
				c0.155,14.407,16.72,23.88,30.254,23.879c13.537-0.001,30.1-9.47,30.256-23.88C138.676,88.687,120.055,83.558,108.266,83.706z"/>
			<path fill="#366595" d="M121.6,110.546c-1.521-2.965-4.748-7.48-11.576-10.729C101.991,96,89.997,93.739,87.71,96.129
				c-2.28,2.379,4.684,10.262,13.238,13.869c7.454,3.137,15.204,2.58,19.715,1.778c-1.024,2.069-0.245,5.017,3.217,6.321
				c2.746-2.635,5.49-5.332,8.224-8.088C128.889,107.78,123.729,108.65,121.6,110.546"/>
			<path fill="#A8814C" d="M109.294,82.126c0,0.404-0.462,0.734-1.028,0.734l0,0c-0.565,0-1.029-0.331-1.029-0.735
				c0-1.158,0-1.736,0-2.894c0-0.402,0.463-0.726,1.029-0.726l0,0c0.566,0,1.028,0.323,1.028,0.726
				C109.294,80.389,109.294,80.968,109.294,82.126z"/>
			<path fill="#A8814C" d="M109.293,128.302c0-0.402-0.461-0.727-1.027-0.727l0,0c-0.566,0-1.031,0.323-1.031,0.727
				c0,1.158,0.001,1.736,0.001,2.895c0,0.402,0.462,0.732,1.03,0.732l0,0c0.565,0,1.028-0.33,1.028-0.732
				C109.294,130.039,109.293,129.46,109.293,128.302z"/>
			<path fill="#A8814C" d="M96.468,83.451c0.217,0.386-0.032,0.797-0.554,0.92l0,0c-0.524,0.121-1.128-0.1-1.343-0.488
				c-0.625-1.114-0.938-1.671-1.563-2.79c-0.216-0.39,0.032-0.799,0.557-0.912l0,0c0.523-0.113,1.125,0.105,1.341,0.491
				C95.531,81.785,95.843,82.342,96.468,83.451z"/>
			<path fill="#A8814C" d="M85.276,87.396c0.403,0.331,0.404,0.795,0,1.033l0,0c-0.397,0.236-1.049,0.157-1.446-0.177
				c-1.149-0.965-1.724-1.452-2.872-2.435c-0.396-0.339-0.396-0.804,0-1.033l0,0c0.402-0.224,1.048-0.135,1.451,0.2
				C83.556,85.958,84.129,86.44,85.276,87.396z"/>
			<path fill="#A8814C" d="M78.562,93.454c0.515,0.232,0.769,0.699,0.55,1.037l0,0c-0.213,0.339-0.817,0.424-1.336,0.189
				c-1.495-0.68-2.239-1.027-3.73-1.736c-0.522-0.248-0.767-0.723-0.552-1.055l0,0c0.213-0.334,0.811-0.404,1.334-0.159
				C76.32,92.435,77.066,92.779,78.562,93.454z"/>
			<path fill="#A8814C" d="M96.468,126.266c0.217-0.354-0.032-0.8-0.555-0.986l0,0c-0.524-0.188-1.128-0.055-1.342,0.306
				c-0.625,1.024-0.938,1.535-1.563,2.556c-0.216,0.356,0.033,0.806,0.558,0.999l0,0c0.523,0.191,1.124,0.061,1.34-0.299
				C95.531,127.814,95.843,127.298,96.468,126.266z"/>
			<path fill="#A8814C" d="M85.276,120.309c0.403-0.235,0.403-0.698,0-1.029l0,0c-0.397-0.333-1.048-0.413-1.445-0.178
				c-1.149,0.672-1.724,1.004-2.872,1.657c-0.396,0.232-0.397,0.697,0,1.039l0,0c0.402,0.336,1.048,0.427,1.451,0.201
				C83.556,121.333,84.129,120.994,85.276,120.309z"/>
			<path fill="#A8814C" d="M78.562,112.417c0.515-0.071,0.769-0.463,0.55-0.869l0,0c-0.213-0.402-0.816-0.674-1.335-0.604
				c-1.495,0.206-2.241,0.301-3.732,0.477c-0.522,0.062-0.766,0.447-0.55,0.858l0,0c0.213,0.41,0.811,0.695,1.333,0.63
				C76.32,112.728,77.066,112.628,78.562,112.417z"/>
			<path fill="#A8814C" d="M75.809,101.759c0.563,0.095,1.018,0.496,1.018,0.898l0,0c0,0.404-0.454,0.66-1.018,0.564
				c-1.618-0.273-2.425-0.419-4.039-0.729c-0.559-0.106-1.016-0.525-1.016-0.93l0,0c0-0.402,0.458-0.643,1.017-0.535
				C73.384,101.339,74.191,101.485,75.809,101.759z"/>
			<path fill="#A8814C" d="M120.063,83.451c-0.217,0.386,0.03,0.798,0.556,0.921l0,0c0.524,0.121,1.131-0.099,1.342-0.487
				c0.625-1.114,0.938-1.671,1.563-2.79c0.217-0.39-0.032-0.8-0.559-0.913l0,0c-0.521-0.113-1.124,0.105-1.341,0.491
				C121,81.786,120.688,82.342,120.063,83.451z"/>
			<path fill="#A8814C" d="M131.256,87.396c-0.402,0.331-0.402,0.796,0,1.033l0,0c0.396,0.236,1.049,0.156,1.445-0.178
				c1.148-0.965,1.724-1.454,2.871-2.436c0.398-0.34,0.398-0.802,0-1.031l0,0c-0.401-0.224-1.047-0.137-1.45,0.199
				C132.977,85.958,132.402,86.44,131.256,87.396z"/>
			<path fill="#A8814C" d="M137.971,93.454c-0.517,0.232-0.768,0.7-0.549,1.038l0,0c0.211,0.339,0.816,0.424,1.334,0.189
				c1.494-0.68,2.241-1.027,3.73-1.737c0.523-0.248,0.768-0.723,0.552-1.055l0,0c-0.213-0.334-0.81-0.405-1.333-0.159
				C140.214,92.435,139.467,92.779,137.971,93.454z"/>
			<path fill="#A8814C" d="M120.063,126.266c-0.217-0.354,0.03-0.8,0.555-0.986l0,0c0.523-0.188,1.131-0.055,1.343,0.306
				c0.625,1.024,0.938,1.535,1.563,2.556c0.216,0.356-0.033,0.806-0.559,0.999l0,0c-0.521,0.191-1.124,0.061-1.341-0.299
				C121,127.814,120.688,127.298,120.063,126.266z"/>
			<path fill="#A8814C" d="M131.256,120.309c-0.402-0.235-0.402-0.698,0-1.029l0,0c0.396-0.333,1.049-0.411,1.446-0.177
				c1.149,0.672,1.722,1.002,2.868,1.656c0.398,0.23,0.4,0.697,0.002,1.041l0,0c-0.401,0.336-1.047,0.426-1.45,0.201
				C132.977,121.333,132.402,120.994,131.256,120.309z"/>
			<path fill="#A8814C" d="M137.973,112.417c-0.518-0.07-0.77-0.463-0.55-0.869l0,0c0.211-0.403,0.815-0.674,1.334-0.604
				c1.494,0.206,2.241,0.301,3.731,0.479c0.523,0.061,0.766,0.445,0.551,0.857l0,0c-0.213,0.41-0.811,0.694-1.334,0.629
				C140.212,112.727,139.467,112.628,137.973,112.417z"/>
			<path fill="#A8814C" d="M140.725,101.757c-0.562,0.096-1.019,0.498-1.019,0.9l0,0c0,0.404,0.458,0.659,1.019,0.564
				c1.618-0.273,2.424-0.419,4.037-0.729c0.559-0.106,1.018-0.525,1.018-0.929l0,0c0-0.401-0.457-0.642-1.016-0.535
				C143.148,101.339,142.341,101.484,140.725,101.757z"/>
		</g>
	</g>
	<g opacity="0.4">
		<path fill="#064D6F" d="M25.304,52.474c0.012,0.095,0.021,0.189,0.031,0.284c0.405,0.119,0.82,0.238,1.243,0.359
			C26.144,52.905,25.719,52.69,25.304,52.474z"/>
		<path fill="#064D6F" d="M106.551,66.074c-30.647,0-62.595-4.469-79.973-12.957c-0.423-0.121-0.838-0.24-1.243-0.359
			c0.402,3.662-0.263,6.808-1.813,8.415l6.325,19.171l5.955,20.43l3.635,12.468l1.043,3.578l3.608,12.379l9.187,31.512h0.048
			c0.993,3.226,4.915,6.181,10.915,8.605c1.19-8.363,2.712-16.191,4.482-23.488c4.454-18.357,11.033-36.215,20.497-52.601
			c2.623-4.541,5.447-8.965,8.485-13.24c3.488-4.908,7.274-9.602,11.47-13.925C108.299,66.068,107.424,66.074,106.551,66.074z"/>
	</g>
	<path fill="#659DC1" d="M106.513,10.65c-45.169,0-93.175,9.703-93.175,27.684s48.006,27.683,93.175,27.683
		c45.168,0,93.176-9.702,93.176-27.683S151.682,10.65,106.513,10.65z M166.596,53.575c-14.824,3.767-35.24,6.441-60.083,6.441
		c-21.252,0-39.258-1.96-53.305-4.884c-21.652-4.506-33.87-11.308-33.87-16.799c0-9.055,33.164-21.684,87.175-21.684
		c54.01,0,87.176,12.629,87.176,21.684C193.689,43.223,184,49.152,166.596,53.575z"/>
	
		<ellipse transform="matrix(-0.297 -0.9549 0.9549 -0.297 -24.4062 82.8683)" fill="#217AAF" cx="18.302" cy="50.418" rx="12.241" ry="6.408"/>
	
		<ellipse transform="matrix(-0.2969 -0.9549 0.9549 -0.2969 -30.6851 80.0715)" fill="#97D4E5" cx="14.136" cy="51.333" rx="7.657" ry="4.009"/>
	<path fill="#659DC1" d="M203.593,40.542c-1.211,3.68-1.586,4.608-2.934,6.695c-0.304,26.909-3.325,56.431-20.702,76.001
		c-2.479,2.795-5.163,5.192-7.993,7.286c-7.733,5.728-16.596,9.119-25.646,11.586c-12.502,3.406-25.193,5.074-38.031,5.295
		c-20.969,0.354-42.698-5.692-59.289-21.002c-5.322-4.911-9.631-10.601-13.232-16.805C26.134,93,19.714,73.298,14.687,54.123
		c-0.941-3.59-5.83-2.059-4.883,1.553c6.478,24.705,14.231,49.443,29.596,68.285c2.18,2.672,4.549,5.215,7.14,7.604
		c17.29,15.954,39.999,21.757,61.747,21.673c20.189-0.077,43.273-3.19,61.65-14.698c4.414-2.763,8.56-6.004,12.324-9.813
		c20.305-20.53,23.028-54.363,23.055-83.768C205.318,43.432,204.584,40.83,203.593,40.542z"/>
</g>
</svg>
