<?xml version="1.0" encoding="utf-8"?>
<!-- Generator: Adobe Illustrator 16.0.0, SVG Export Plug-In . SVG Version: 6.00 Build 0)  -->
<!DOCTYPE svg PUBLIC "-//W3C//DTD SVG 1.1//EN" "http://www.w3.org/Graphics/SVG/1.1/DTD/svg11.dtd">
<svg version="1.1" id="圖層_1" xmlns="http://www.w3.org/2000/svg" xmlns:xlink="http://www.w3.org/1999/xlink" x="0px" y="0px"
	 width="454px" height="302px" viewBox="0 0 454 302" enable-background="new 0 0 454 302" xml:space="preserve">
<path fill="#6FAEBE" d="M-2003.092-111.766c0,6.153-5.209,11.142-11.635,11.142h-569.781c-6.426,0-11.636-4.988-11.636-11.142
	v-608.495c0-6.153,5.21-11.141,11.636-11.141h569.781c6.426,0,11.635,4.988,11.635,11.141V-111.766z"/>
<g>
	<g>
		<path fill="#386DA6" d="M-2420.75-633.543c0,37.167-30.13,67.298-67.298,67.298c-37.168,0-67.298-30.131-67.298-67.298
			c0-37.168,30.13-67.299,67.298-67.299C-2450.88-700.842-2420.75-670.711-2420.75-633.543"/>
		<g>
			<path fill="#FFFFFF" d="M-2488.048-697.85c-35.366,0-64.036,28.67-64.036,64.037c0,19.519,8.746,36.988,22.52,48.734
				c1.998-17.507,16.844-31.112,34.885-31.112h13.263c18.042,0,32.888,13.605,34.886,31.112
				c13.773-11.746,22.521-29.215,22.521-48.734C-2424.013-669.18-2452.682-697.85-2488.048-697.85 M-2488.048-620.704
				c-11.38,0-20.605-9.225-20.605-20.605c0-11.38,9.229-20.605,20.605-20.605s20.604,9.225,20.604,20.605
				C-2467.443-629.929-2476.668-620.704-2488.048-620.704 M-2454.183-635.334c-0.367,2.113-2.204,3.601-4.28,3.601
				c-0.248,0-0.499-0.022-0.754-0.067c-2.366-0.412-3.948-2.665-3.534-5.034c0.28-1.604,0.416-3.069,0.416-4.476
				c0-14.178-11.534-25.712-25.713-25.712c-14.18,0-25.716,11.534-25.716,25.712c0,1.398,0.139,2.862,0.419,4.476
				c0.414,2.369-1.169,4.622-3.535,5.034c-2.372,0.43-4.622-1.166-5.034-3.534c-0.369-2.116-0.55-4.07-0.55-5.976
				c0-18.975,15.438-34.414,34.416-34.414c18.974,0,34.414,15.439,34.414,34.414
				C-2453.634-639.396-2453.813-637.441-2454.183-635.334"/>
			<path fill="#FFFFFF" d="M-2488.048-566.282c-37.109,0-67.298-30.188-67.298-67.299c0-37.109,30.188-67.297,67.298-67.297
				c37.11,0,67.299,30.188,67.299,67.297C-2420.749-596.47-2450.938-566.282-2488.048-566.282 M-2488.048-694.353
				c-33.511,0-60.772,27.262-60.772,60.772c0,33.512,27.262,60.774,60.772,60.774c33.512,0,60.771-27.262,60.771-60.774
				C-2427.275-667.091-2454.536-694.353-2488.048-694.353"/>
		</g>
	</g>
	<g>
		<path fill="#4C81A7" d="M-2413.54-587.276c0,8.136-6.596,14.731-14.732,14.731s-14.732-6.595-14.732-14.731
			c0-8.137,6.597-14.732,14.732-14.732C-2420.136-602.008-2413.54-595.414-2413.54-587.276"/>
		<path fill="#DAF1EC" d="M-2437.103-582.114v-8.948c0.013-0.037,0.03-0.073,0.037-0.112c0.177-0.993,1.063-1.8,2.064-1.838
			c0.745-0.028,1.491-0.021,2.236-0.013c0.158,0.001,0.242-0.053,0.325-0.18c0.419-0.644,0.853-1.278,1.272-1.922
			c0.083-0.127,0.17-0.18,0.326-0.179c1.882,0.006,3.764,0.006,5.645,0c0.162-0.001,0.254,0.053,0.341,0.187
			c0.426,0.653,0.862,1.299,1.292,1.951c0.066,0.1,0.135,0.142,0.257,0.14c0.675-0.006,1.349-0.004,2.021-0.002
			c0.911,0.002,1.611,0.387,2.063,1.178c0.142,0.251,0.2,0.55,0.298,0.827v8.911c-0.012,0.033-0.029,0.064-0.035,0.098
			c-0.055,0.338-0.185,0.647-0.387,0.921c-0.49,0.665-1.161,0.953-1.977,0.95c-1.497-0.004-2.993-0.001-4.489-0.001
			c-2.964,0-5.927-0.009-8.89,0.004c-1.293,0.006-2.071-0.821-2.304-1.619C-2437.04-581.878-2437.07-581.996-2437.103-582.114
			 M-2428.019-581.669c2.242,0,4.484-0.006,6.727,0.005c0.552,0.003,0.854-0.387,0.852-0.842c-0.016-2.71-0.007-5.419-0.008-8.129
			c0-0.568-0.304-0.871-0.876-0.872c-0.923,0-1.847-0.003-2.77,0.004c-0.146,0.001-0.221-0.048-0.297-0.166
			c-0.425-0.661-0.86-1.313-1.287-1.976c-0.065-0.101-0.138-0.136-0.258-0.136c-1.379,0.004-2.757,0.004-4.136,0
			c-0.123-0.001-0.19,0.043-0.256,0.141c-0.438,0.662-0.88,1.319-1.313,1.981c-0.072,0.111-0.146,0.159-0.285,0.156
			c-0.455-0.01-0.91-0.004-1.366-0.004c-0.503,0-1.006-0.005-1.509,0.002c-0.467,0.007-0.778,0.324-0.78,0.784
			c0,2.763-0.001,5.523,0.006,8.289c0,0.14,0.048,0.295,0.119,0.415c0.159,0.27,0.423,0.351,0.729,0.35
			C-2432.491-581.67-2430.255-581.669-2428.019-581.669"/>
		<path fill="#DAF1EC" d="M-2428.006-590.756c2.101,0.009,3.804,1.72,3.784,3.815c-0.02,2.151-1.808,3.801-3.871,3.766
			c-2.034-0.035-3.728-1.752-3.716-3.818C-2431.797-589.067-2430.08-590.766-2428.006-590.756 M-2428.017-589.232
			c-1.251,0.004-2.272,1.025-2.27,2.27c0.002,1.247,1.024,2.261,2.275,2.26c1.249-0.001,2.271-1.021,2.268-2.266
			C-2425.745-588.215-2426.771-589.235-2428.017-589.232"/>
	</g>
</g>
<path fill="#386DA6" d="M8.552,221.131l40.195-50.123c-8.621-10.098-13.973-24.238-13.941-39.898l0.05-61.914
	c0.065-30.604,20.643-55.369,45.965-55.317l311.666,0.652c25.32,0.054,45.798,24.905,45.731,55.508l-0.051,61.912
	c-0.063,30.604-20.644,55.371-45.964,55.318l-311.665-0.652c-1.795-0.004-3.564-0.146-5.306-0.393L8.552,221.131z"/>
<path fill="#FFFFFF" d="M5.782,216.021l40.195-50.123C37.356,155.803,32.003,141.66,32.036,126l0.049-61.913
	C32.151,33.483,52.729,8.718,78.051,8.77l311.664,0.652c25.321,0.054,45.797,24.905,45.732,55.508l-0.05,61.913
	c-0.064,30.603-20.646,55.37-45.966,55.315l-311.667-0.65c-1.795-0.004-3.563-0.146-5.305-0.393L5.782,216.021z"/>
<g>
	<g>
		<path fill="#386DA6" d="M97.697,63.722c-3.153,1.875-6.668,3.768-10.547,5.678l-1.037-3.023l4.359-2.162V55.18h-3.568v-2.918
			h3.568v-6.943h-4.219V42.26h11.232v3.059h-3.85v6.943h3.639v2.918h-3.639v7.277c1.641-0.82,2.924-1.518,3.85-2.092L97.697,63.722z
			 M117.929,65.444c-0.129,2.461-0.492,4.084-1.09,4.869c-0.598,0.785-1.958,1.178-4.078,1.178c-1.652,0-2.763-0.261-3.331-0.782
			c-0.569-0.521-0.853-1.579-0.853-3.173v-6.311h-2.883c-0.035,5.848-3.311,9.439-9.826,10.775l-1.547-2.813
			c2.906-0.563,5.003-1.468,6.293-2.716c1.289-1.248,1.916-2.997,1.881-5.247h-3.252V41.222h16.928v20.003h-4.465v6.381
			c0,0.387,0.132,0.609,0.396,0.668c0.264,0.059,0.606,0.088,1.028,0.088c0.598,0,0.993-0.149,1.187-0.448
			c0.194-0.299,0.354-1.479,0.483-3.542L117.929,65.444z M112.972,46.794V44.14H102.39v2.654H112.972z M112.972,52.559v-2.953
			H102.39v2.953H112.972z M112.972,58.272v-2.9H102.39v2.9H112.972z"/>
		<path fill="#386DA6" d="M156.418,70.559h-22.782v1.248h-3.252V57.815c-1.254,1.254-2.391,2.25-3.41,2.988l-2.197-2.637
			c3.785-2.789,6.773-5.994,8.965-9.615h-7.857v-3.094h9.615c0.68-1.324,1.424-3.111,2.232-5.361l3.164,0.826
			c-0.563,1.641-1.148,3.152-1.758,4.535h16.77v3.094h-18.422c-1.137,1.969-2.42,3.879-3.85,5.73v13.148h9.141v-8.402h-7.313v-3.059
			h7.313V50.22h3.34v5.748h7.858v3.059h-7.858v8.402h10.301V70.559z"/>
		<path fill="#386DA6" d="M171.106,65.304c-1.477,2.707-3.217,4.998-5.221,6.873l-2.584-1.986c2.145-1.98,3.75-4.008,4.816-6.082
			L171.106,65.304z M192.024,63.352H167.01v-12.85c-0.762,0.422-1.354,0.744-1.775,0.967l-1.828-2.76
			c4.512-2.273,7.904-5.203,10.178-8.789l3.023,1.002c-0.176,0.328-0.498,0.82-0.967,1.477h11.232v2.918
			c-0.75,0.773-1.77,1.699-3.059,2.777h8.209L192.024,63.352L192.024,63.352z M182.585,45.317h-9.211
			c-0.773,0.844-1.805,1.77-3.094,2.777h8.789C180.358,47.204,181.53,46.278,182.585,45.317z M177.944,54.247v-3.199h-7.664v3.199
			H177.944z M177.944,60.399v-3.41h-7.664v3.41H177.944z M178.313,71.21l-3.182,0.721c-0.469-2.625-1.09-4.922-1.863-6.891
			l3.164-0.387C177.206,66.739,177.833,68.925,178.313,71.21z M186.558,71.175l-3.094,0.686c-0.645-1.84-1.693-4.113-3.146-6.82
			l3.146-0.633C184.647,66.446,185.679,68.702,186.558,71.175z M188.755,54.247v-3.199h-7.611v3.199H188.755z M188.755,60.399v-3.41
			h-7.611v3.41H188.755z M195.417,70.595l-2.953,1.441c-0.984-1.84-2.572-4.207-4.764-7.102l3.094-1.178
			C192.61,66.171,194.151,68.45,195.417,70.595z"/>
		<path fill="#386DA6" d="M208.154,44.052l-2.602,1.266c-1.078-1.523-1.951-2.648-2.619-3.375l2.479-1.266
			C206.209,41.556,207.123,42.681,208.154,44.052z M218.262,55.372c0,0.656-0.243,1.263-0.729,1.819
			c-0.486,0.556-1.778,0.788-3.876,0.694l-0.826-2.742c0.574,0.07,1.201,0.105,1.881,0.105c0.422,0,0.633-0.252,0.633-0.756v-5.889
			h-3.199v9.105h-2.953v-9.105h-3.27v9.703h-2.918V45.792h6.188V40.36h2.953v5.432h6.117L218.262,55.372L218.262,55.372z
			 M231.164,67.308c0,1.184-0.331,1.986-0.993,2.408c-0.662,0.422-1.831,0.633-3.507,0.633c-0.844,0-1.652-0.029-2.426-0.088
			l-0.896-3.059c0.633,0.023,1.98,0.035,4.043,0.035c0.398,0,0.598-0.229,0.598-0.686v-3.305H219.6v8.49h-3.129v-8.49h-8.455v6.979
			h-3.129v-9.826h11.584v-1.934h3.129v1.934h11.566L231.164,67.308L231.164,67.308z M208.664,49.993
			c-0.211,2.18-0.492,4.043-0.844,5.59l-1.652-0.439c0.375-1.746,0.65-3.557,0.826-5.432L208.664,49.993z M214.992,53.667
			l-1.652,0.58c-0.141-1.289-0.428-2.73-0.861-4.324l1.652-0.422C214.564,50.837,214.852,52.225,214.992,53.667z M218.807,42.224
			c-1.008,1.09-2.063,2.109-3.164,3.059l-2.742-1.336c1.195-0.867,2.303-1.898,3.322-3.094L218.807,42.224z M233.889,56.304
			l-1.371,2.654c-2.063-0.738-3.979-1.711-5.748-2.918c-1.84,1.301-3.99,2.215-6.451,2.742l-1.406-2.742
			c1.875-0.199,3.703-0.82,5.483-1.863c-1.104-1.242-1.922-2.396-2.461-3.463l2.303-1.582c0.716,1.242,1.482,2.25,2.304,3.023
			c0.974-1.57,1.588-3.334,1.847-5.291h-4.746c-0.938,1.512-1.963,2.859-3.077,4.043l-1.828-2.355
			c2.086-2.355,3.692-5.186,4.817-8.49l2.848,0.65c-0.305,1.008-0.709,2.051-1.213,3.129h8.49v3.023h-2.373
			c-0.396,2.918-1.255,5.273-2.564,7.066C230.016,54.88,231.732,55.671,233.889,56.304z"/>
	</g>
	<g>
		<path fill="#FE1A0A" d="M282.761,76.386h-25.286v-5.146l11.789-11.605c2.627-2.573,4.564-4.797,5.816-6.669
			c1.251-1.873,1.877-3.913,1.877-6.118c0-4.499-2.381-6.749-7.143-6.749c-3.57,0-7.002,1.497-10.293,4.489v-5.934
			c3.31-2.416,7.105-3.624,11.396-3.624c3.729,0,6.7,0.994,8.915,2.98c2.214,1.986,3.32,4.705,3.32,8.152
			c0,2.486-0.699,4.958-2.103,7.418c-1.399,2.46-3.843,5.37-7.325,8.731l-9.033,8.612v0.131h18.065L282.761,76.386L282.761,76.386z"
			/>
		<path fill="#FE1A0A" d="M294.311,56.823c0-7.142,1.223-12.56,3.662-16.254c2.442-3.693,5.982-5.541,10.623-5.541
			c8.84,0,13.26,6.941,13.26,20.823c0,6.792-1.207,12.025-3.623,15.703c-2.416,3.677-5.918,5.514-10.504,5.514
			c-4.429,0-7.771-1.733-10.028-5.199C295.438,68.403,294.311,63.388,294.311,56.823z M300.585,56.586
			c0,10.363,2.513,15.546,7.536,15.546c4.954,0,7.432-5.287,7.432-15.86c0-10.854-2.425-16.28-7.273-16.28
			C303.148,39.991,300.585,45.523,300.585,56.586z"/>
	</g>
	<g>
		<circle fill="#AC834C" cx="364.701" cy="56.048" r="21.412"/>
		<g>
			<circle fill="#F5D683" cx="362.115" cy="55.683" r="15.953"/>
			<path fill="#F5B867" stroke="#F5B867" stroke-width="0.9894" stroke-miterlimit="10" d="M362.115,76.604
				c-11.535,0-20.918-9.385-20.918-20.921c0-11.534,9.381-20.919,20.918-20.919c11.535,0,20.916,9.384,20.916,20.919
				C383.031,67.219,373.65,76.604,362.115,76.604z M362.115,39.355c-9.002,0-16.328,7.324-16.328,16.327
				c0,9.001,7.326,16.328,16.328,16.328c9,0,16.326-7.327,16.326-16.328C378.441,46.681,371.115,39.355,362.115,39.355z"/>
			<path fill="#36699C" d="M369.291,60.074c-0.82-2.328-2.559-5.971-6.232-8.483c-4.32-2.952-10.783-3.978-12.018-1.979
				c-1.232,1.989,2.531,7.312,7.137,9.805c4.01,2.167,8.178,1.935,10.609,1.545c-0.553,1.521-0.133,3.772,1.734,4.976
				c1.479-1.833,2.961-3.667,4.441-5.503C373.223,58.439,370.439,58.747,369.291,60.074"/>
			<path fill="#AC834C" d="M362.668,38.158c0,0.306-0.25,0.556-0.553,0.556l0,0c-0.305,0-0.555-0.25-0.555-0.556V35.96
				c0-0.305,0.25-0.554,0.555-0.554l0,0c0.303,0,0.553,0.248,0.553,0.554V38.158z"/>
			<path fill="#AC834C" d="M362.668,73.208c0-0.306-0.25-0.554-0.553-0.554l0,0c-0.305,0-0.555,0.248-0.555,0.554v2.198
				c0,0.305,0.25,0.554,0.555,0.554l0,0c0.303,0,0.553-0.249,0.553-0.554V73.208z"/>
			<path fill="#AC834C" d="M355.766,39.434c0.117,0.282-0.018,0.606-0.299,0.724l0,0c-0.283,0.117-0.609-0.018-0.725-0.301
				l-0.842-2.029c-0.117-0.282,0.016-0.608,0.301-0.724l0,0c0.281-0.116,0.607,0.017,0.723,0.3L355.766,39.434z"/>
			<path fill="#AC834C" d="M349.725,43.19c0.219,0.215,0.219,0.568,0,0.784l0,0c-0.215,0.216-0.566,0.216-0.781,0l-1.557-1.555
				c-0.215-0.216-0.215-0.568,0-0.784l0,0c0.219-0.214,0.568-0.214,0.787,0L349.725,43.19z"/>
			<path fill="#AC834C" d="M346.086,48.486c0.279,0.116,0.418,0.441,0.299,0.724l0,0c-0.115,0.281-0.443,0.416-0.725,0.3
				l-2.027-0.84c-0.285-0.117-0.418-0.442-0.301-0.725l0,0c0.115-0.283,0.439-0.418,0.725-0.301L346.086,48.486z"/>
			<path fill="#AC834C" d="M355.766,71.932c0.117-0.278-0.018-0.606-0.299-0.723l0,0c-0.283-0.118-0.609,0.017-0.725,0.301
				l-0.842,2.029c-0.117,0.283,0.016,0.609,0.301,0.725l0,0c0.281,0.116,0.607-0.017,0.723-0.3L355.766,71.932z"/>
			<path fill="#AC834C" d="M349.725,68.174c0.219-0.216,0.219-0.566,0-0.781l0,0c-0.215-0.216-0.566-0.216-0.781,0l-1.557,1.551
				c-0.215,0.218-0.215,0.57,0,0.788l0,0c0.219,0.212,0.568,0.212,0.787,0L349.725,68.174z"/>
			<path fill="#AC834C" d="M346.086,62.88c0.279-0.114,0.418-0.44,0.299-0.724l0,0c-0.115-0.281-0.443-0.416-0.725-0.301
				l-2.027,0.841c-0.285,0.117-0.418,0.443-0.301,0.727l0,0c0.115,0.281,0.439,0.416,0.725,0.298L346.086,62.88z"/>
			<path fill="#AC834C" d="M344.592,55.128c0.305,0,0.553,0.249,0.553,0.555l0,0c0,0.306-0.246,0.555-0.553,0.555h-2.199
				c-0.305,0-0.553-0.249-0.553-0.555l0,0c0-0.306,0.248-0.555,0.553-0.555H344.592z"/>
			<path fill="#AC834C" d="M368.463,39.434c-0.117,0.282,0.016,0.606,0.299,0.724l0,0c0.283,0.117,0.611-0.018,0.725-0.301
				l0.842-2.029c0.117-0.282-0.016-0.608-0.301-0.724l0,0c-0.279-0.116-0.607,0.017-0.723,0.3L368.463,39.434z"/>
			<path fill="#AC834C" d="M374.504,43.19c-0.217,0.215-0.217,0.568,0,0.784l0,0c0.215,0.216,0.566,0.216,0.783,0l1.553-1.555
				c0.217-0.216,0.217-0.568,0-0.784l0,0c-0.217-0.214-0.566-0.214-0.785,0L374.504,43.19z"/>
			<path fill="#AC834C" d="M378.143,48.486c-0.281,0.116-0.418,0.441-0.299,0.724l0,0c0.115,0.281,0.443,0.416,0.725,0.3l2.027-0.84
				c0.285-0.117,0.418-0.442,0.301-0.725l0,0c-0.115-0.283-0.439-0.418-0.725-0.301L378.143,48.486z"/>
			<path fill="#AC834C" d="M368.463,71.932c-0.117-0.278,0.016-0.606,0.299-0.723l0,0c0.283-0.118,0.611,0.017,0.725,0.301
				l0.842,2.029c0.117,0.283-0.016,0.609-0.301,0.725l0,0c-0.279,0.116-0.607-0.017-0.723-0.3L368.463,71.932z"/>
			<path fill="#AC834C" d="M374.504,68.174c-0.217-0.216-0.217-0.566,0-0.781l0,0c0.215-0.216,0.566-0.216,0.783,0l1.553,1.551
				c0.217,0.218,0.217,0.57,0,0.788l0,0c-0.217,0.212-0.566,0.212-0.785,0L374.504,68.174z"/>
			<path fill="#AC834C" d="M378.143,62.88c-0.281-0.114-0.418-0.44-0.299-0.724l0,0c0.115-0.281,0.443-0.416,0.725-0.301
				l2.027,0.841c0.285,0.117,0.418,0.443,0.301,0.727l0,0c-0.115,0.281-0.439,0.416-0.725,0.298L378.143,62.88z"/>
			<path fill="#AC834C" d="M379.637,55.128c-0.303,0-0.553,0.249-0.553,0.555l0,0c0,0.306,0.248,0.555,0.553,0.555h2.199
				c0.305,0,0.553-0.249,0.553-0.555l0,0c0-0.306-0.248-0.555-0.553-0.555H379.637z"/>
		</g>
	</g>
	<g>
		<path fill="#FE1A0A" d="M282.761,156.063h-25.286v-5.145l11.789-11.607c2.627-2.572,4.564-4.795,5.816-6.668
			c1.251-1.873,1.877-3.914,1.877-6.119c0-4.498-2.381-6.748-7.143-6.748c-3.57,0-7.002,1.496-10.293,4.488v-5.934
			c3.31-2.416,7.105-3.623,11.396-3.623c3.729,0,6.7,0.994,8.915,2.98c2.214,1.986,3.32,4.705,3.32,8.152
			c0,2.486-0.699,4.959-2.103,7.418c-1.399,2.461-3.843,5.371-7.325,8.73l-9.033,8.613v0.131h18.065L282.761,156.063
			L282.761,156.063z"/>
		<path fill="#FE1A0A" d="M294.311,136.502c0-7.143,1.223-12.561,3.662-16.256c2.442-3.693,5.982-5.541,10.623-5.541
			c8.84,0,13.26,6.941,13.26,20.824c0,6.791-1.207,12.025-3.623,15.703c-2.416,3.676-5.918,5.514-10.504,5.514
			c-4.429,0-7.771-1.732-10.028-5.199C295.438,148.082,294.311,143.064,294.311,136.502z M300.585,136.264
			c0,10.363,2.513,15.545,7.536,15.545c4.954,0,7.432-5.287,7.432-15.859c0-10.854-2.425-16.281-7.273-16.281
			C303.148,119.668,300.585,125.201,300.585,136.264z"/>
	</g>
	<g>
		<path fill="#386DA6" d="M116.549,132.869h-3.094v-5.766h-10.793v6.943h-2.988v-6.943H89.479v5.766H86.42v-8.314h13.254v-1.301
			H87.756v-2.742h27.246v2.742h-12.34v1.301h13.887V132.869z M117.2,147.336c-0.199,1.172-0.521,2.065-0.967,2.681
			s-0.932,0.984-1.459,1.107s-2.689,0.185-6.486,0.185c-3.152,0-5.177-0.053-6.073-0.158s-1.556-0.413-1.978-0.923
			s-0.633-1.233-0.633-2.171v-2.021H88.038v-11.004h26.068v11.004h-11.408v1.09c0,0.492,0.185,0.806,0.554,0.94
			s2.464,0.202,6.284,0.202c1.641,0,2.663-0.012,3.067-0.035s0.7-0.176,0.888-0.457s0.281-0.656,0.281-1.125L117.2,147.336z
			 M98.76,133.115c-2.238,0.41-4.852,0.674-7.84,0.791l-0.615-2.092c2.367-0.023,4.975-0.234,7.822-0.633L98.76,133.115z
			 M98.584,128.439l-0.58,2.057c-2.414-0.328-4.857-0.51-7.33-0.545l0.65-2.021C93.305,127.895,95.725,128.064,98.584,128.439z
			 M99.604,139.268v-1.934h-8.473v1.934H99.604z M99.604,143.627v-2.057h-8.473v2.057H99.604z M111.083,139.268v-1.934h-8.385v1.934
			H111.083z M111.083,143.627v-2.057h-8.385v2.057H111.083z M112.454,129.582c-2.438,0.41-5.104,0.674-7.998,0.791l-0.721-1.969
			c2.215-0.035,4.746-0.264,7.594-0.686L112.454,129.582z M112.225,132.078l-0.492,2.039c-2.859-0.469-5.525-0.756-7.998-0.861
			l0.721-2.039C106.588,131.264,109.178,131.551,112.225,132.078z"/>
		<path fill="#386DA6" d="M155.496,129.336c-0.059,2.766-0.328,4.395-0.809,4.887s-1.025,0.785-1.635,0.879l-1.441,0.211v11.953
			h-15.539l1.512,1.547c-3.715,1.477-7.664,2.379-11.848,2.707l-1.371-2.531c3.762-0.316,6.99-0.891,9.686-1.723h-5.08v-10.512
			c-1.184,0.281-2.332,0.498-3.445,0.65l-1.266-2.848c3.902-0.363,6.721-1.383,8.455-3.059h-6.943l1.143-6.012h7.787v-1.723h-9.369
			v-2.127h9.369v-1.74h3.094v1.74h5.08v-1.74h3.094v1.74h8.314v6.012h-8.314v1.688H155.496z M134.472,127.648h-4.852l-0.246,1.688
			h4.676C134.238,128.738,134.378,128.176,134.472,127.648z M148.412,137.791v-1.477h-16.277v1.477H148.412z M148.412,141.43v-1.582
			h-16.277v1.582H148.412z M148.412,145.033v-1.547h-16.277v1.547H148.412z M152.296,131.498h-6.328v1.758h-3.094v-1.758h-6.521
			c-0.41,0.715-1.189,1.588-2.338,2.619h16.119l-0.527-1.389c1.254,0.059,2.016,0.006,2.285-0.158S152.296,132.049,152.296,131.498z
			 M142.875,129.336v-1.688h-5.186c-0.094,0.703-0.217,1.266-0.369,1.688H142.875z M142.875,125.486v-1.688h-5.08v1.688H142.875z
			 M156.146,149.287l-1.354,2.408c-3.668-0.902-7.318-1.453-10.951-1.652l1.23-2.426
			C149.724,147.957,153.416,148.514,156.146,149.287z M151.154,125.486v-1.688h-5.186v1.688H151.154z"/>
		<path fill="#386DA6" d="M175.334,135.752c-1.043,0.551-2.479,1.184-4.307,1.898v10.811c0,1.875-1.324,2.813-3.973,2.813
			c-0.668,0-1.447-0.018-2.338-0.053l-1.301-3.129c1.84,0.035,3.038,0.038,3.595,0.009s0.835-0.261,0.835-0.694v-8.49
			c-1.137,0.434-2.455,0.902-3.955,1.406l-0.861-3.059l4.816-1.775v-6.627h-4.535v-3.129h4.535v-5.748h3.182v5.748h3.885v3.129
			h-3.885v5.344c1.254-0.469,2.537-1.025,3.85-1.67L175.334,135.752z M194.494,134.275h-4.939v17.051h-3.234v-17.051h-6.416
			c0.047,7.84-1.523,13.535-4.711,17.086l-2.654-1.828c1.148-1.195,2.136-2.982,2.962-5.361s1.239-6.146,1.239-11.303v-10.195
			c6.41-0.457,11.584-1.43,15.521-2.918l1.512,2.953c-3.164,1.219-7.787,2.156-13.869,2.813v5.607h14.59V134.275z"/>
		<path fill="#386DA6" d="M213.507,136.174c-1.313,0.574-2.66,1.148-4.043,1.723v10.055c0,2.227-1.055,3.34-3.164,3.34
			c-1.313,0-2.285-0.023-2.918-0.07l-0.932-3.059c0.609,0.023,1.688,0.035,3.234,0.035c0.141,0,0.283-0.07,0.43-0.211
			s0.221-0.275,0.221-0.404v-8.42c-0.996,0.34-2.256,0.715-3.779,1.125l-0.792-2.918c1.641-0.445,3.165-0.938,4.571-1.477v-7.137
			h-4.43v-3.023h4.43v-5.783h3.129v5.783h3.533v3.023h-3.533v5.906c0.598-0.176,1.752-0.68,3.463-1.512L213.507,136.174z
			 M233.581,144.066c-0.281,2.602-0.742,4.482-1.381,5.643s-1.508,1.74-2.609,1.74c-3.164,0-5.203-5.824-6.117-17.473h-5.835v8.684
			c0.879-0.199,2.537-0.791,4.974-1.775l0.457,2.953c-2.05,0.891-4.927,1.852-8.63,2.883l-0.861-2.953
			c0.574-0.27,0.861-0.75,0.861-1.441v-19.828c6.445-0.234,11.894-1.148,16.347-2.742l1.758,2.602
			c-1.148,0.457-3.258,1.078-6.328,1.863c0.035,2.25,0.105,4.482,0.211,6.697h6.803v3.059h-6.592
			c0.41,4.98,0.934,8.543,1.572,10.688s1.094,3.217,1.363,3.217c0.129,0,0.299-0.398,0.51-1.195s0.422-2.209,0.633-4.236
			L233.581,144.066z M224.845,150.834h-10.371v-2.988h10.371V150.834z M223.228,130.918l-0.229-6.152
			c-2.636,0.316-4.423,0.521-5.361,0.615v5.537H223.228z"/>
	</g>
	<path fill="#386DA6" d="M379.563,141.693c-0.094,2.695-0.328,4.67-0.703,5.924s-0.996,2.095-1.863,2.522s-2.42,0.642-4.658,0.642
		c-1.535,0-2.73-0.038-3.586-0.114s-1.541-0.349-2.057-0.817s-0.773-1.137-0.773-2.004v-14.396h-5.537
		c-0.234,4.922-1.123,8.648-2.664,11.18s-4.086,4.699-7.637,6.504l-2.338-2.672c3.246-1.348,5.568-3.091,6.969-5.229
		s2.172-5.399,2.313-9.782h-8.385v-3.129h30.305v3.129h-9.686v13.219c0,0.375,0.119,0.621,0.359,0.738s1.223,0.176,2.945,0.176
		c1.336,0,2.174-0.079,2.514-0.237s0.563-0.404,0.668-0.738s0.223-1.037,0.352-2.109s0.217-2.487,0.264-4.245L379.563,141.693z
		 M376.785,123.482h-25.91v-3.164h25.91V123.482z"/>
</g>
<g display="none">
	<circle display="inline" fill="#AC834C" cx="366.032" cy="137.726" r="28.209"/>
	<circle display="inline" fill="#F5D683" cx="362.625" cy="137.244" r="21.017"/>
	<path display="inline" fill="#F5B867" stroke="#F5B867" stroke-width="1.3035" stroke-miterlimit="10" d="M362.625,164.806
		c-15.197,0-27.559-12.364-27.559-27.562s12.36-27.561,27.559-27.561s27.559,12.363,27.559,27.561S377.822,164.806,362.625,164.806z
		 M362.625,115.732c-11.857,0-21.511,9.65-21.511,21.512c0,11.858,9.651,21.511,21.511,21.511s21.511-9.652,21.511-21.511
		C384.136,125.383,374.482,115.732,362.625,115.732z"/>
	<path display="inline" fill="#AC834C" d="M363.354,114.155c0,0.403-0.328,0.732-0.729,0.732l0,0c-0.4,0-0.729-0.329-0.729-0.732
		v-2.896c0-0.402,0.328-0.729,0.729-0.729l0,0c0.4,0,0.729,0.326,0.729,0.729V114.155z"/>
	<path display="inline" fill="#AC834C" d="M363.354,160.333c0-0.403-0.328-0.729-0.729-0.729l0,0c-0.4,0-0.729,0.326-0.729,0.729
		v2.896c0,0.401,0.328,0.729,0.729,0.729l0,0c0.4,0,0.729-0.328,0.729-0.729V160.333z"/>
	<path display="inline" fill="#AC834C" d="M354.26,115.836c0.154,0.371-0.021,0.799-0.394,0.953l0,0
		c-0.372,0.154-0.802-0.022-0.953-0.396l-1.11-2.674c-0.154-0.372,0.022-0.802,0.396-0.954l0,0c0.371-0.153,0.8,0.021,0.953,0.395
		L354.26,115.836z"/>
	<path display="inline" fill="#AC834C" d="M346.302,120.785c0.287,0.283,0.287,0.75,0,1.033l0,0c-0.282,0.284-0.747,0.284-1.03,0
		l-2.049-2.048c-0.283-0.284-0.283-0.749,0-1.033l0,0c0.287-0.282,0.748-0.282,1.035,0L346.302,120.785z"/>
	<path display="inline" fill="#AC834C" d="M341.509,127.763c0.368,0.153,0.55,0.582,0.394,0.952l0,0
		c-0.152,0.371-0.584,0.55-0.954,0.396l-2.673-1.107c-0.375-0.153-0.551-0.582-0.396-0.955l0,0c0.153-0.373,0.581-0.549,0.956-0.396
		L341.509,127.763z"/>
	<path display="inline" fill="#AC834C" d="M354.26,158.651c0.154-0.367-0.021-0.799-0.394-0.952l0,0
		c-0.372-0.156-0.802,0.021-0.953,0.396l-1.11,2.674c-0.154,0.373,0.022,0.803,0.396,0.955l0,0c0.371,0.152,0.8-0.021,0.953-0.395
		L354.26,158.651z"/>
	<path display="inline" fill="#AC834C" d="M346.302,153.701c0.287-0.285,0.287-0.748,0-1.031l0,0c-0.282-0.283-0.747-0.283-1.03,0
		l-2.049,2.045c-0.283,0.287-0.283,0.75,0,1.037l0,0c0.287,0.279,0.748,0.279,1.035,0L346.302,153.701z"/>
	<path display="inline" fill="#AC834C" d="M341.509,146.726c0.368-0.149,0.55-0.58,0.394-0.953l0,0
		c-0.152-0.371-0.584-0.549-0.954-0.396l-2.673,1.106c-0.375,0.155-0.551,0.584-0.396,0.957l0,0
		c0.153,0.371,0.581,0.549,0.956,0.394L341.509,146.726z"/>
	<path display="inline" fill="#AC834C" d="M339.539,136.513c0.402,0,0.729,0.329,0.729,0.731l0,0c0,0.402-0.324,0.73-0.729,0.73
		h-2.896c-0.401,0-0.729-0.328-0.729-0.73l0,0c0-0.402,0.328-0.731,0.729-0.731H339.539z"/>
	<path display="inline" fill="#AC834C" d="M370.99,115.836c-0.154,0.371,0.021,0.799,0.394,0.953l0,0
		c0.372,0.154,0.804-0.022,0.953-0.396l1.11-2.674c0.154-0.372-0.022-0.802-0.396-0.954l0,0c-0.369-0.153-0.8,0.021-0.953,0.395
		L370.99,115.836z"/>
	<path display="inline" fill="#AC834C" d="M378.948,120.785c-0.287,0.283-0.287,0.75,0,1.033l0,0c0.282,0.284,0.747,0.284,1.03,0
		l2.047-2.048c0.285-0.284,0.285-0.749,0-1.033l0,0c-0.286-0.282-0.746-0.282-1.033,0L378.948,120.785z"/>
	<path display="inline" fill="#AC834C" d="M383.741,127.763c-0.369,0.153-0.55,0.582-0.394,0.952l0,0
		c0.151,0.371,0.584,0.55,0.954,0.396l2.673-1.107c0.375-0.153,0.551-0.582,0.396-0.955l0,0c-0.153-0.373-0.581-0.549-0.956-0.396
		L383.741,127.763z"/>
	<path display="inline" fill="#AC834C" d="M370.99,158.651c-0.154-0.367,0.021-0.799,0.394-0.952l0,0
		c0.372-0.156,0.804,0.021,0.953,0.396l1.11,2.674c0.154,0.373-0.022,0.803-0.396,0.955l0,0c-0.369,0.152-0.8-0.021-0.953-0.395
		L370.99,158.651z"/>
	<path display="inline" fill="#AC834C" d="M378.948,153.701c-0.287-0.285-0.287-0.748,0-1.031l0,0c0.282-0.283,0.747-0.283,1.03,0
		l2.047,2.045c0.285,0.287,0.285,0.75,0,1.037l0,0c-0.286,0.279-0.746,0.279-1.033,0L378.948,153.701z"/>
	<path display="inline" fill="#AC834C" d="M383.741,146.726c-0.369-0.149-0.55-0.58-0.394-0.953l0,0
		c0.151-0.371,0.584-0.549,0.954-0.396l2.673,1.106c0.375,0.155,0.551,0.584,0.396,0.957l0,0c-0.153,0.371-0.581,0.549-0.956,0.394
		L383.741,146.726z"/>
	<path display="inline" fill="#AC834C" d="M385.711,136.513c-0.4,0-0.729,0.329-0.729,0.731l0,0c0,0.402,0.326,0.73,0.729,0.73
		h2.896c0.401,0,0.729-0.328,0.729-0.73l0,0c0-0.402-0.328-0.731-0.729-0.731H385.711z"/>
	<g display="inline">
		<path fill="#AC834C" d="M372.078,146.851c-0.753,1.019-1.813,1.829-3.185,2.432c-1.37,0.603-2.935,0.952-4.694,1.046v2.485
			c0,0.307-0.116,0.567-0.349,0.78c-0.233,0.213-0.53,0.32-0.892,0.32c-0.338,0-0.62-0.102-0.855-0.303
			c-0.231-0.201-0.348-0.469-0.348-0.798v-2.485c-2.742-0.164-5.342-0.722-7.8-1.668c-0.31-0.117-0.575-0.318-0.794-0.604
			c-0.221-0.285-0.331-0.578-0.331-0.885c0-0.428,0.155-0.787,0.466-1.084c0.312-0.296,0.699-0.443,1.164-0.443
			c0.283,0,0.529,0.047,0.735,0.141c2.072,0.854,4.258,1.326,6.56,1.421v-8.091c-1.785-0.428-3.246-0.891-4.385-1.386
			c-1.397-0.569-2.457-1.33-3.182-2.291c-0.725-0.956-1.086-2.062-1.086-3.316c0-1.231,0.335-2.378,1.008-3.444
			c0.699-1.086,1.707-1.963,3.027-2.623c1.32-0.664,2.857-1.066,4.617-1.208v-2.451c0-0.305,0.116-0.572,0.348-0.798
			c0.235-0.224,0.518-0.337,0.855-0.337c0.335,0,0.627,0.113,0.873,0.337c0.245,0.226,0.367,0.493,0.367,0.798v2.414
			c2.535,0.118,4.772,0.511,6.714,1.173c0.748,0.261,1.126,0.745,1.126,1.453c0,0.381-0.157,0.729-0.468,1.049
			c-0.311,0.318-0.685,0.479-1.125,0.479c-0.181,0-0.387-0.048-0.621-0.142c-1.706-0.568-3.582-0.888-5.626-0.958v8.376
			c1.76,0.38,3.299,0.815,4.618,1.313c1.345,0.521,2.405,1.26,3.182,2.218s1.163,2.171,1.163,3.639
			C373.162,144.663,372.8,145.811,372.078,146.851z M357.915,134.215c0.802,0.568,2.081,1.066,3.841,1.491v-7.737
			c-1.604,0.213-2.847,0.664-3.725,1.348c-0.879,0.689-1.319,1.541-1.319,2.556C356.712,132.867,357.113,133.65,357.915,134.215z
			 M369.592,143.195c0-0.852-0.42-1.537-1.26-2.057c-0.839-0.522-2.217-1.02-4.133-1.491v7.559
			C367.796,146.97,369.592,145.632,369.592,143.195z"/>
	</g>
	<g display="inline">
		<path fill="#F5B867" d="M370.978,146.165c-0.753,1.02-1.812,1.828-3.185,2.431c-1.368,0.604-2.934,0.953-4.694,1.047v2.484
			c0,0.309-0.115,0.568-0.347,0.781c-0.234,0.213-0.532,0.32-0.894,0.32c-0.337,0-0.619-0.102-0.855-0.303
			c-0.231-0.201-0.347-0.469-0.347-0.799v-2.484c-2.742-0.164-5.341-0.723-7.799-1.668c-0.311-0.117-0.576-0.318-0.796-0.604
			c-0.219-0.285-0.33-0.578-0.33-0.885c0-0.428,0.155-0.787,0.467-1.084c0.31-0.295,0.698-0.443,1.163-0.443
			c0.284,0,0.528,0.046,0.736,0.141c2.071,0.853,4.257,1.326,6.559,1.42v-8.091c-1.785-0.427-3.246-0.89-4.385-1.385
			c-1.397-0.569-2.458-1.329-3.182-2.291c-0.725-0.956-1.087-2.062-1.087-3.316c0-1.231,0.336-2.379,1.009-3.444
			c0.698-1.085,1.708-1.963,3.026-2.624c1.321-0.663,2.859-1.065,4.618-1.208v-2.45c0-0.305,0.115-0.572,0.347-0.798
			c0.236-0.223,0.519-0.338,0.855-0.338c0.336,0,0.627,0.115,0.874,0.338c0.246,0.226,0.366,0.493,0.366,0.798v2.413
			c2.536,0.119,4.773,0.511,6.714,1.174c0.749,0.26,1.127,0.744,1.127,1.453c0,0.381-0.157,0.729-0.467,1.049
			c-0.311,0.318-0.686,0.479-1.127,0.479c-0.18,0-0.386-0.049-0.621-0.141c-1.706-0.569-3.582-0.889-5.626-0.96v8.376
			c1.761,0.381,3.3,0.816,4.618,1.314c1.346,0.521,2.405,1.259,3.183,2.217c0.776,0.959,1.163,2.172,1.163,3.64
			C372.063,143.978,371.701,145.125,370.978,146.165z M356.815,133.529c0.802,0.568,2.082,1.065,3.841,1.491v-7.737
			c-1.604,0.213-2.847,0.664-3.726,1.348c-0.879,0.689-1.317,1.54-1.317,2.556C355.613,132.182,356.014,132.964,356.815,133.529z
			 M368.492,142.51c0-0.852-0.419-1.537-1.261-2.057c-0.839-0.522-2.216-1.02-4.133-1.491v7.558
			C366.695,146.283,368.492,144.946,368.492,142.51z"/>
	</g>
</g>
</svg>
