<?xml version="1.0" encoding="utf-8"?>
<!-- Generator: Adobe Illustrator 16.0.0, SVG Export Plug-In . SVG Version: 6.00 Build 0)  -->
<!DOCTYPE svg PUBLIC "-//W3C//DTD SVG 1.1//EN" "http://www.w3.org/Graphics/SVG/1.1/DTD/svg11.dtd">
<svg version="1.1" id="圖層_1" xmlns="http://www.w3.org/2000/svg" xmlns:xlink="http://www.w3.org/1999/xlink" x="0px" y="0px"
	 width="160px" height="242.333px" viewBox="0 0 180.666 242.333" enable-background="new 0 0 180.666 242.333"
	 xml:space="preserve">
<g>
	
		<circle fill="none" stroke="#FFFFFF" stroke-width="2" stroke-linecap="round" stroke-linejoin="round" stroke-miterlimit="10" cx="754.833" cy="2758.564" r="28.927"/>
	<g>
		<path fill="#FFFFFF" d="M783.76,2758.564c0,15.977-12.951,28.928-28.927,28.928s-28.927-12.951-28.927-28.928
			c0-15.975,12.951-28.926,28.927-28.926S783.76,2742.59,783.76,2758.564"/>
		<path fill="#386DA6" d="M736.526,2759.849h-6.885c-0.71,0-1.283-0.574-1.283-1.284c0-0.709,0.573-1.283,1.283-1.283h6.885
			V2759.849z"/>
		<path fill="#386DA6" d="M780.024,2759.849h-6.885v-2.567h6.885c0.709,0,1.284,0.574,1.284,1.283
			C781.309,2759.274,780.733,2759.849,780.024,2759.849"/>
		<path fill="#386DA6" d="M756.13,2733.326v6.885h-2.566v-6.885c0-0.709,0.574-1.283,1.282-1.283
			C755.555,2732.043,756.13,2732.617,756.13,2733.326"/>
		<path fill="#386DA6" d="M773.577,2741.705l-4.868,4.867l-1.815-1.814l4.868-4.868c0.501-0.501,1.314-0.501,1.815,0
			S774.078,2741.203,773.577,2741.705"/>
		<path fill="#386DA6" d="M737.851,2739.809l4.868,4.868l-1.814,1.815l-4.868-4.868c-0.501-0.501-0.501-1.313,0-1.815
			C736.537,2739.308,737.35,2739.308,737.851,2739.809"/>
		<path fill="#386DA6" d="M776.713,2755.142l-3.84,0.665l-0.248-1.433l3.84-0.664c0.396-0.068,0.772,0.196,0.84,0.592
			C777.374,2754.697,777.109,2755.074,776.713,2755.142"/>
		<path fill="#386DA6" d="M775.681,2751.172l-3.543,1.625l-0.606-1.32l3.543-1.625c0.365-0.167,0.796-0.007,0.964,0.357
			C776.205,2750.574,776.046,2751.006,775.681,2751.172"/>
		<path fill="#386DA6" d="M773.771,2747.243l-3.145,2.304l-0.858-1.172l3.144-2.304c0.323-0.237,0.778-0.167,1.015,0.156
			C774.164,2746.551,774.094,2747.006,773.771,2747.243"/>
		<path fill="#386DA6" d="M767.729,2740.457l-2.135,3.262l-1.216-0.797l2.135-3.26c0.22-0.336,0.67-0.43,1.006-0.211
			C767.854,2739.671,767.95,2740.121,767.729,2740.457"/>
		<path fill="#386DA6" d="M764.229,2738.373l-1.542,3.58l-1.334-0.574l1.541-3.58c0.158-0.368,0.586-0.538,0.955-0.38
			C764.218,2737.578,764.389,2738.006,764.229,2738.373"/>
		<path fill="#386DA6" d="M759.876,2736.9l-0.639,3.846l-1.434-0.238l0.638-3.846c0.066-0.396,0.44-0.662,0.836-0.597
			C759.674,2736.131,759.941,2736.504,759.876,2736.9"/>
		<path fill="#386DA6" d="M732.941,2755.142l3.841,0.665l0.247-1.433l-3.84-0.664c-0.395-0.068-0.771,0.196-0.84,0.592
			S732.546,2755.074,732.941,2755.142"/>
		<path fill="#386DA6" d="M733.975,2751.172l3.543,1.625l0.605-1.32l-3.543-1.625c-0.365-0.167-0.796-0.007-0.963,0.357
			C733.45,2750.574,733.609,2751.006,733.975,2751.172"/>
		<path fill="#386DA6" d="M735.885,2747.243l3.145,2.304l0.857-1.172l-3.143-2.304c-0.323-0.237-0.778-0.167-1.017,0.156
			C735.491,2746.551,735.561,2747.006,735.885,2747.243"/>
		<path fill="#386DA6" d="M741.926,2740.457l2.135,3.262l1.216-0.797l-2.135-3.26c-0.22-0.336-0.67-0.43-1.006-0.211
			C741.8,2739.671,741.705,2740.121,741.926,2740.457"/>
		<path fill="#386DA6" d="M745.426,2738.373l1.542,3.58l1.335-0.574l-1.542-3.58c-0.159-0.368-0.586-0.538-0.955-0.38
			C745.438,2737.578,745.267,2738.006,745.426,2738.373"/>
		<path fill="#386DA6" d="M749.779,2736.9l0.638,3.846l1.434-0.238l-0.638-3.846c-0.065-0.396-0.439-0.662-0.836-0.597
			C749.981,2736.131,749.713,2736.504,749.779,2736.9"/>
		<path fill="#386DA6" d="M739.742,2774.429h-3.617c-0.441,0-0.8-0.357-0.8-0.799v-4.437c0-0.44,0.358-0.8,0.8-0.8h3.617
			c0.442,0,0.8,0.359,0.8,0.8v4.437C740.542,2774.071,740.185,2774.429,739.742,2774.429"/>
		<path fill="#386DA6" d="M746.502,2774.429h-3.617c-0.441,0-0.8-0.357-0.8-0.799v-4.437c0-0.44,0.358-0.8,0.8-0.8h3.617
			c0.441,0,0.8,0.359,0.8,0.8v4.437C747.302,2774.071,746.943,2774.429,746.502,2774.429"/>
		<path fill="#386DA6" d="M753.262,2774.429h-3.617c-0.442,0-0.8-0.357-0.8-0.799v-4.437c0-0.44,0.357-0.8,0.8-0.8h3.617
			c0.441,0,0.8,0.359,0.8,0.8v4.437C754.062,2774.071,753.703,2774.429,753.262,2774.429"/>
		<path fill="#386DA6" d="M760.021,2774.429h-3.617c-0.442,0-0.8-0.357-0.8-0.799v-4.437c0-0.44,0.357-0.8,0.8-0.8h3.617
			c0.44,0,0.8,0.359,0.8,0.8v4.437C760.821,2774.071,760.462,2774.429,760.021,2774.429"/>
		<path fill="#386DA6" d="M766.78,2774.429h-3.617c-0.441,0-0.8-0.357-0.8-0.799v-4.437c0-0.44,0.358-0.8,0.8-0.8h3.617
			c0.442,0,0.8,0.359,0.8,0.8v4.437C767.58,2774.071,767.223,2774.429,766.78,2774.429"/>
		<path fill="#386DA6" d="M773.54,2774.429h-3.617c-0.441,0-0.8-0.357-0.8-0.799v-4.437c0-0.44,0.358-0.8,0.8-0.8h3.617
			c0.442,0,0.8,0.359,0.8,0.8v4.437C774.34,2774.071,773.982,2774.429,773.54,2774.429"/>
		<path fill="#DFCE53" d="M755.21,2748.502h6.445c0.186,0,0.292,0.211,0.181,0.359l-5.815,7.84c-0.111,0.149-0.004,0.36,0.181,0.36
			h5.38c0.197,0,0.299,0.236,0.164,0.38l-12.581,13.331c-0.176,0.186-0.477-0.018-0.369-0.25l4.323-9.273
			c0.07-0.15-0.039-0.321-0.204-0.321h-5.847c-0.182,0-0.289-0.203-0.188-0.353l8.144-11.975
			C755.066,2748.539,755.135,2748.502,755.21,2748.502"/>
	</g>
</g>
<g>
	<path fill="#FFFFFF" d="M70.34,14.973l-0.678,1.661c-3.083-0.403-5.861-1.111-8.336-2.123c-2.591,0.957-5.418,1.63-8.48,2.02
		l-0.717-1.702c2.48-0.212,4.856-0.673,7.126-1.384c-1.217-0.841-2.044-1.449-2.481-1.825c-0.889,0.67-1.757,1.265-2.604,1.784
		l-1.241-1.364c2.365-1.36,4.242-2.922,5.63-4.686h-4.132v2.902h-1.877V5.652h7.496c-0.041-0.15-0.25-0.55-0.626-1.2l1.979-0.461
		c0.218,0.308,0.502,0.861,0.851,1.661h7.67v4.604h-1.887V7.354h-9.177l1.425,0.8c-0.219,0.287-0.472,0.588-0.759,0.902h7.649v1.641
		c-1.36,1.128-2.643,2.058-3.845,2.789C65.582,14.252,67.92,14.748,70.34,14.973z M67.715,22.541h-1.908v-0.779h-9.136v0.779h-1.917
		v-6.009h12.961V22.541z M65.807,20.059v-1.846h-9.136v1.846H65.807z M64.33,10.697h-5.998c0.875,0.738,1.853,1.388,2.933,1.948
		C62.509,11.989,63.531,11.34,64.33,10.697z"/>
	<path fill="#FFFFFF" d="M93.943,6.739H78.316v6.932c0,3.944-0.413,6.962-1.24,9.054l-1.568-1.179
		c0.307-0.82,0.552-1.772,0.732-2.855c0.182-1.083,0.271-2.771,0.271-5.061V5.293h7.496c-0.103-0.267-0.291-0.602-0.564-1.005
		l1.928-0.318c0.26,0.383,0.506,0.824,0.738,1.323h7.834V6.739z M82.398,16.932c-0.261,0.103-0.667,0.205-1.221,0.308v1.056h1.005
		v1.22h-1.005v0.82c0.294-0.055,0.649-0.133,1.066-0.236v1.364c-1.039,0.287-2.314,0.526-3.824,0.718l-0.268-1.364l1.528-0.215
		v-1.087h-1.128v-1.22h1.128v-0.759l-0.749,0.062l-0.42-1.302c1.422-0.116,2.598-0.325,3.527-0.625L82.398,16.932z M84.869,8.923
		h-0.564v13.545h-1.578v-7.403c-1.648,0.219-2.943,0.349-3.887,0.39l-0.328-1.364c0.28,0.027,0.536,0.014,0.77-0.041V8.923h-0.482
		V7.56h6.07V8.923z M82.727,9.764V8.923H80.9v0.841H82.727z M82.727,11.702v-0.8H80.9v0.8H82.727z M82.727,13.609v-0.708H80.9v1.005
		C81.789,13.784,82.398,13.685,82.727,13.609z M86.735,18.542c-0.137,1.23-0.485,2.464-1.046,3.702l-1.24-0.697
		c0.478-1.046,0.816-2.215,1.015-3.507L86.735,18.542z M93.924,16.737h-8.881v-1.446h8.881V16.737z M93.626,9.621h-3.404v0.882h3.22
		v3.989h-8.213v-3.989h3.301V9.621h-3.281V8.154h3.281V7.252h1.692v0.902h3.404V9.621z M87.617,13.209v-1.466h-0.852v1.466H87.617z
		 M91.924,20.08c0,0.417-0.07,0.834-0.21,1.251c-0.141,0.417-0.337,0.692-0.59,0.826c-0.253,0.133-0.824,0.2-1.712,0.2
		c-1.006,0-1.646-0.109-1.923-0.328c-0.277-0.219-0.415-0.574-0.415-1.066V18.06h1.6v2.502c0,0.246,0.263,0.369,0.789,0.369
		c0.349,0,0.598-0.048,0.748-0.144s0.246-0.513,0.287-1.251L91.924,20.08z M91.042,19.013l-1.425,0.523
		c-0.205-0.581-0.562-1.261-1.066-2.041l1.384-0.502C90.358,17.513,90.728,18.186,91.042,19.013z M89.801,13.209v-1.466h-0.922
		v1.466H89.801z M91.944,13.209v-1.466h-0.882v1.466H91.944z M94.148,21.043l-1.384,0.718c-0.287-1.244-0.783-2.54-1.487-3.886
		l1.364-0.523C93.428,18.794,93.93,20.025,94.148,21.043z"/>
</g>
<g>
	<path fill="#FFFFFF" d="M70.34,56.454H55.01v7.793c0,3.042-0.513,5.526-1.538,7.454l-1.405-1.373
		c0.745-1.586,1.118-3.719,1.118-6.398v-9.116h7.413c-0.198-0.41-0.451-0.831-0.758-1.261l1.969-0.441
		c0.246,0.383,0.563,0.95,0.953,1.702h7.578V56.454z M63.91,70.287c-3.028,0.588-5.855,1.028-8.48,1.322l-0.358-1.549
		c0.82-0.082,1.596-0.181,2.327-0.297c-0.137-0.526-0.444-1.189-0.922-1.989l1.261-0.779h-1.62v-4.327h6.973v4.327h-1.805
		l1.303,0.626c-0.192,0.492-0.414,0.96-0.667,1.404c0.745-0.089,1.401-0.198,1.969-0.328L63.91,70.287z M63.726,59.325h-3.24v1.077
		h2.841v1.445h-7.394v-1.445h2.748v-1.057h-3.087l-0.02-1.426h3.106v-0.861h1.805v0.861h3.24V59.325z M61.347,65.519v-1.425h-3.456
		v1.425H61.347z M60.926,66.995h-2.85c0.464,0.978,0.806,1.818,1.025,2.522l0.779-0.133C60.215,68.816,60.563,68.021,60.926,66.995z
		 M66.535,66.893l-1.568,0.688c-0.254-1.566-0.612-2.957-1.077-4.174l1.559-0.697C65.981,64.131,66.344,65.525,66.535,66.893z
		 M70.359,61.57h-1.425v7.947c0,0.643-0.144,1.156-0.431,1.543s-1.019,0.58-2.194,0.58c-0.39,0-0.81-0.018-1.261-0.052l-0.585-1.743
		h2.327c0.253,0,0.38-0.133,0.38-0.4V61.57h-3.005v-1.742h3.005v-2.789h1.764v2.789h1.425V61.57z"/>
	<path fill="#FFFFFF" d="M93.164,54.516c-4.156,0.896-8.196,1.344-12.119,1.344h-1.713v1.035h13.535v4.533H79.332
		c-0.13,4.361-1.005,7.769-2.625,10.223l-1.221-1.609c1.313-2.168,1.969-5.165,1.969-8.993v-6.819h3.825
		c3.985,0,7.604-0.393,10.858-1.179L93.164,54.516z M93.943,64.811h-8.818l-0.194,1.303h8.05c-0.069,1.271-0.204,2.354-0.405,3.245
		c-0.202,0.893-0.542,1.476-1.021,1.749s-1.319,0.41-2.522,0.41c-0.526,0-1.234-0.018-2.122-0.052l-0.564-1.764
		c0.807,0.055,1.631,0.082,2.471,0.082c0.725,0,1.178-0.011,1.359-0.03c0.181-0.021,0.34-0.147,0.477-0.38s0.226-0.804,0.267-1.712
		h-6.368c-0.957,1.92-2.648,3.273-5.075,4.061l-1.097-1.6c3.219-0.91,4.822-2.68,4.809-5.313h-3.271v-1.578h5.712
		c-0.171-0.322-0.403-0.664-0.697-1.025l2.021-0.441c0.266,0.362,0.539,0.852,0.82,1.467h6.172V64.811z M90.98,59.828v-1.385H79.332
		v1.385H90.98z"/>
</g>
<g>
	<path fill="#FFFFFF" d="M70.381,120.289H52.17v-1.825h8.131v-4.512h-6.43v-1.825h6.43v-4.439h-7.414v-1.826h7.711
		c-0.266-0.881-0.728-1.91-1.384-3.086l1.887-0.502c0.588,1.135,1.097,2.33,1.528,3.588h6.992v1.826h-7.393v4.439h6.449v1.825
		h-6.449v4.512h8.152V120.289z"/>
	<path fill="#FFFFFF" d="M85.064,105.339h-2.923v2.789h2.226v6.152h-2.226v3.322h2.44v1.805h-8.408v-15.894h8.891V105.339z
		 M80.296,108.128v-2.789h-2.267v2.789H80.296z M82.5,112.537v-2.646h-4.43v2.646H82.5z M80.296,117.603v-3.322h-2.204v3.322H80.296
		z M94.221,119.182l-1.076,1.702c-1.969-2.174-3.333-5.038-4.092-8.593c-0.383,3.11-1.322,5.995-2.82,8.654l-1.507-1.24
		c0.957-1.449,1.752-3.275,2.384-5.477c0.633-2.201,0.949-5.178,0.949-8.931c0-0.813-0.015-1.743-0.041-2.789h1.876
		c0.021,0.991,0.03,2.614,0.03,4.87c0,2.072,0.383,4.205,1.148,6.398C91.838,115.973,92.888,117.773,94.221,119.182z"/>
	<path fill="#FFFFFF" d="M117.65,120.248H99.398v-1.641h8.173v-1.948h-6.952v-1.661h6.952v-1.702
		c-1.702,0.123-3.794,0.175-6.275,0.153l-0.358-1.578c1.469-0.383,2.994-1.371,4.572-2.964h-3.168v-1.641h12.284v1.641h-6.532
		c-1.209,1.265-2.379,2.226-3.506,2.882c2.057-0.014,4.606-0.188,7.648-0.523c-0.191-0.185-0.659-0.529-1.404-1.035l1.445-1.025
		c2.064,1.34,3.596,2.563,4.594,3.67l-1.343,1.241c-0.438-0.479-0.927-0.954-1.466-1.425c-1.505,0.156-3.039,0.297-4.604,0.42v1.887
		h7.034v1.661h-7.034v1.948h8.192V120.248z M117.128,108.24h-1.846v-2.48h-13.565v2.563H99.84v-4.244h7.608
		c-0.328-0.547-0.615-0.988-0.861-1.323l1.887-0.462c0.28,0.418,0.646,1.012,1.097,1.785h7.558V108.24z"/>
</g>
<g>
	<path fill="#FFFFFF" d="M61.439,154.521h-2.923v2.789h2.226v6.152h-2.226v3.322h2.44v1.805h-8.408v-15.895h8.891V154.521z
		 M56.671,157.311v-2.789h-2.267v2.789H56.671z M58.875,161.719v-2.645h-4.43v2.645H58.875z M56.671,166.785v-3.322h-2.204v3.322
		H56.671z M70.596,168.363l-1.076,1.703c-1.969-2.174-3.333-5.039-4.092-8.594c-0.383,3.111-1.322,5.996-2.82,8.654l-1.507-1.24
		c0.957-1.449,1.752-3.274,2.384-5.476c0.633-2.201,0.949-5.179,0.949-8.931c0-0.814-0.015-1.744-0.041-2.789h1.876
		c0.021,0.99,0.03,2.614,0.03,4.87c0,2.071,0.383,4.204,1.148,6.398S69.263,166.955,70.596,168.363z"/>
	<path fill="#FFFFFF" d="M94.025,169.43H75.773v-1.641h8.173v-1.947h-6.952v-1.662h6.952v-1.701
		c-1.702,0.123-3.794,0.174-6.275,0.153l-0.358-1.579c1.469-0.383,2.994-1.371,4.572-2.963h-3.168v-1.641h12.284v1.641h-6.532
		c-1.209,1.264-2.379,2.225-3.506,2.881c2.057-0.014,4.606-0.188,7.648-0.523c-0.191-0.184-0.659-0.529-1.404-1.035l1.445-1.025
		c2.064,1.34,3.596,2.563,4.594,3.671l-1.343,1.241c-0.438-0.479-0.927-0.954-1.466-1.426c-1.505,0.157-3.039,0.297-4.604,0.42
		v1.887h7.034v1.662h-7.034v1.947h8.192V169.43z M93.503,157.423h-1.846v-2.481H78.092v2.563h-1.877v-4.245h7.608
		c-0.328-0.547-0.615-0.988-0.861-1.322l1.887-0.462c0.28,0.417,0.646,1.012,1.097,1.784h7.558V157.423z"/>
	<path fill="#FFFFFF" d="M109.191,168.948H99.84v-2.01h3.477v-11.474l-3.568,0.963v-2.111l5.978-1.569v14.191h3.466V168.948z"/>
</g>
<g>
	<path fill="#FFFFFF" d="M61.439,203.703h-2.923v2.789h2.226v6.152h-2.226v3.322h2.44v1.805h-8.408v-15.895h8.891V203.703z
		 M56.671,206.492v-2.789h-2.267v2.789H56.671z M58.875,210.9v-2.645h-4.43v2.645H58.875z M56.671,215.967v-3.322h-2.204v3.322
		H56.671z M70.596,217.545l-1.076,1.703c-1.969-2.174-3.333-5.039-4.092-8.594c-0.383,3.111-1.322,5.996-2.82,8.654l-1.507-1.24
		c0.957-1.449,1.752-3.274,2.384-5.476c0.633-2.201,0.949-5.179,0.949-8.931c0-0.814-0.015-1.744-0.041-2.789h1.876
		c0.021,0.99,0.03,2.614,0.03,4.87c0,2.071,0.383,4.204,1.148,6.398S69.263,216.137,70.596,217.545z"/>
	<path fill="#FFFFFF" d="M94.025,218.611H75.773v-1.641h8.173v-1.947h-6.952v-1.662h6.952v-1.701
		c-1.702,0.123-3.794,0.174-6.275,0.153l-0.358-1.579c1.469-0.383,2.994-1.371,4.572-2.963h-3.168v-1.641h12.284v1.641h-6.532
		c-1.209,1.264-2.379,2.225-3.506,2.881c2.057-0.014,4.606-0.188,7.648-0.523c-0.191-0.184-0.659-0.529-1.404-1.035l1.445-1.025
		c2.064,1.34,3.596,2.563,4.594,3.671l-1.343,1.241c-0.438-0.479-0.927-0.954-1.466-1.426c-1.505,0.157-3.039,0.297-4.604,0.42
		v1.887h7.034v1.662h-7.034v1.947h8.192V218.611z M93.503,206.604h-1.846v-2.481H78.092v2.563h-1.877v-4.245h7.608
		c-0.328-0.547-0.615-0.988-0.861-1.322l1.887-0.462c0.28,0.417,0.646,1.012,1.097,1.784h7.558V206.604z"/>
	<path fill="#FFFFFF" d="M108.904,218.13h-9.875v-2.01l4.604-4.532c1.025-1.005,1.782-1.873,2.271-2.604
		c0.488-0.731,0.733-1.528,0.733-2.39c0-1.756-0.931-2.635-2.789-2.635c-1.395,0-2.735,0.584-4.02,1.754v-2.318
		c1.291-0.943,2.774-1.414,4.449-1.414c1.457,0,2.617,0.388,3.481,1.163c0.865,0.776,1.298,1.837,1.298,3.185
		c0,0.971-0.274,1.936-0.82,2.896c-0.548,0.961-1.501,2.097-2.861,3.409l-3.527,3.363v0.052h7.055V218.13z"/>
</g>
<path fill-rule="evenodd" clip-rule="evenodd" fill="#FFFFFF" d="M29.013,14.613c-0.117-0.081-0.193-0.118-0.25-0.175
	c-2.064-2.062-4.129-4.126-6.193-6.19c-0.473-0.473-0.577-1-0.303-1.512c0.342-0.64,1.186-0.823,1.761-0.38
	c0.081,0.063,0.157,0.135,0.231,0.208c2.368,2.368,4.737,4.736,7.104,7.105c0.62,0.619,0.623,1.295,0.009,1.909
	c-2.379,2.379-4.757,4.758-7.137,7.136c-0.581,0.58-1.379,0.568-1.852-0.021c-0.349-0.432-0.35-1.049,0-1.48
	c0.073-0.092,0.157-0.178,0.241-0.262c2.043-2.043,4.086-4.085,6.13-6.127C28.812,14.766,28.882,14.719,29.013,14.613"/>
<path fill-rule="evenodd" clip-rule="evenodd" fill="#FFFFFF" d="M29.013,63.797c-0.117-0.08-0.193-0.117-0.25-0.174
	c-2.064-2.063-4.129-4.127-6.193-6.19c-0.473-0.474-0.577-1-0.303-1.511c0.342-0.642,1.186-0.824,1.761-0.381
	c0.081,0.063,0.157,0.135,0.231,0.207c2.368,2.368,4.737,4.736,7.104,7.105c0.62,0.619,0.623,1.295,0.009,1.909
	c-2.379,2.379-4.757,4.758-7.137,7.136c-0.581,0.58-1.379,0.568-1.852-0.021c-0.349-0.432-0.35-1.049,0-1.479
	c0.073-0.092,0.157-0.178,0.241-0.262c2.043-2.043,4.086-4.085,6.13-6.127C28.812,63.95,28.882,63.903,29.013,63.797"/>
<path fill-rule="evenodd" clip-rule="evenodd" fill="#FFFFFF" d="M29.013,112.982c-0.117-0.08-0.193-0.118-0.25-0.176
	c-2.064-2.061-4.129-4.125-6.193-6.189c-0.473-0.473-0.577-1-0.303-1.512c0.342-0.641,1.186-0.823,1.761-0.381
	c0.081,0.063,0.157,0.137,0.231,0.209c2.368,2.367,4.737,4.735,7.104,7.104c0.62,0.619,0.623,1.295,0.009,1.909
	c-2.379,2.379-4.757,4.759-7.137,7.137c-0.581,0.579-1.379,0.567-1.852-0.021c-0.349-0.433-0.35-1.05,0-1.48
	c0.073-0.092,0.157-0.178,0.241-0.261c2.043-2.044,4.086-4.086,6.13-6.128C28.812,113.135,28.882,113.089,29.013,112.982"/>
<path fill-rule="evenodd" clip-rule="evenodd" fill="#FFFFFF" d="M29.013,162.166c-0.117-0.079-0.193-0.117-0.25-0.174
	c-2.064-2.062-4.129-4.125-6.193-6.189c-0.473-0.475-0.577-1-0.303-1.512c0.342-0.642,1.186-0.824,1.761-0.381
	c0.081,0.063,0.157,0.136,0.231,0.209c2.368,2.366,4.737,4.734,7.104,7.104c0.62,0.619,0.623,1.295,0.009,1.909
	c-2.379,2.38-4.757,4.759-7.137,7.137c-0.581,0.579-1.379,0.567-1.852-0.021c-0.349-0.434-0.35-1.049,0-1.48
	c0.073-0.092,0.157-0.178,0.241-0.262c2.043-2.043,4.086-4.086,6.13-6.128C28.812,162.319,28.882,162.273,29.013,162.166"/>
<path fill-rule="evenodd" clip-rule="evenodd" fill="#FFFFFF" d="M29.013,211.352c-0.117-0.08-0.193-0.118-0.25-0.174
	c-2.064-2.063-4.129-4.127-6.193-6.19c-0.473-0.474-0.577-1-0.303-1.513c0.342-0.641,1.186-0.822,1.761-0.381
	c0.081,0.064,0.157,0.137,0.231,0.209c2.368,2.367,4.737,4.736,7.104,7.105c0.62,0.619,0.623,1.294,0.009,1.908
	c-2.379,2.38-4.757,4.759-7.137,7.137c-0.581,0.579-1.379,0.568-1.852-0.021c-0.349-0.433-0.35-1.049,0-1.479
	c0.073-0.092,0.157-0.178,0.241-0.262c2.043-2.043,4.086-4.086,6.13-6.128C28.812,211.504,28.882,211.458,29.013,211.352"/>
<g opacity="0.5">
	<g>
		<defs>
			<rect id="SVGID_1_" x="1.562" y="34.62" width="175.411" height="0.899"/>
		</defs>
		<clipPath id="SVGID_2_">
			<use xlink:href="#SVGID_1_"  overflow="visible"/>
		</clipPath>
		
			<line clip-path="url(#SVGID_2_)" fill="none" stroke="#FFFFFF" stroke-width="0.898" stroke-linecap="round" stroke-miterlimit="10" x1="2.01" y1="35.07" x2="176.525" y2="35.07"/>
	</g>
</g>
<g opacity="0.5">
	<g>
		<defs>
			<rect id="SVGID_3_" x="1.562" y="87.96" width="175.411" height="0.89"/>
		</defs>
		<clipPath id="SVGID_4_">
			<use xlink:href="#SVGID_3_"  overflow="visible"/>
		</clipPath>
		
			<line clip-path="url(#SVGID_4_)" fill="none" stroke="#FFFFFF" stroke-width="0.898" stroke-linecap="round" stroke-miterlimit="10" x1="2.01" y1="88.404" x2="176.525" y2="88.404"/>
	</g>
</g>
<g opacity="0.5">
	<g>
		<defs>
			<rect id="SVGID_5_" x="1.562" y="137.14" width="175.411" height="0.9"/>
		</defs>
		<clipPath id="SVGID_6_">
			<use xlink:href="#SVGID_5_"  overflow="visible"/>
		</clipPath>
		
			<line clip-path="url(#SVGID_6_)" fill="none" stroke="#FFFFFF" stroke-width="0.898" stroke-linecap="round" stroke-miterlimit="10" x1="2.01" y1="137.588" x2="176.525" y2="137.588"/>
	</g>
</g>
<g opacity="0.5">
	<g>
		<defs>
			<rect id="SVGID_7_" x="1.562" y="186.32" width="175.411" height="0.899"/>
		</defs>
		<clipPath id="SVGID_8_">
			<use xlink:href="#SVGID_7_"  overflow="visible"/>
		</clipPath>
		
			<line clip-path="url(#SVGID_8_)" fill="none" stroke="#FFFFFF" stroke-width="0.898" stroke-linecap="round" stroke-miterlimit="10" x1="2.01" y1="186.773" x2="176.525" y2="186.773"/>
	</g>
</g>
<g opacity="0.5">
	<g>
		<defs>
			<rect id="SVGID_9_" x="1.562" y="235.51" width="175.411" height="0.9"/>
		</defs>
		<clipPath id="SVGID_10_">
			<use xlink:href="#SVGID_9_"  overflow="visible"/>
		</clipPath>
		
			<line clip-path="url(#SVGID_10_)" fill="none" stroke="#FFFFFF" stroke-width="0.898" stroke-linecap="round" stroke-miterlimit="10" x1="2.01" y1="235.959" x2="176.525" y2="235.959"/>
	</g>
</g>
</svg>
