<?xml version="1.0" encoding="utf-8"?>
<!-- Generator: Adobe Illustrator 16.0.0, SVG Export Plug-In . SVG Version: 6.00 Build 0)  -->
<!DOCTYPE svg PUBLIC "-//W3C//DTD SVG 1.1//EN" "http://www.w3.org/Graphics/SVG/1.1/DTD/svg11.dtd">
<svg version="1.1" id="圖層_1" xmlns="http://www.w3.org/2000/svg" xmlns:xlink="http://www.w3.org/1999/xlink" x="0px" y="0px"
	 width="90px" height="137.5px" viewBox="0 0 166.5 137.5" enable-background="new 0 0 166.5 137.5" xml:space="preserve">
<g>
	<ellipse fill="#FFFFFF" cx="-5475.007" cy="-581.455" rx="72.443" ry="63.122"/>
	<g>
		<circle fill="#FFFFFF" cx="-5528.578" cy="-623.544" r="24.775"/>
		<circle fill="#FFFFFF" cx="-5421.436" cy="-623.544" r="24.775"/>
	</g>
</g>
<text transform="matrix(1 0 0 1 -5513.7402 -563.0063)" fill="#386DA6" font-family="'MicrosoftJhengHeiBold'" font-size="36" letter-spacing="2">TOP</text>
<path fill="#6FAEBE" d="M-2138.592-83.766c0,6.153-5.209,11.142-11.635,11.142h-569.781c-6.426,0-11.636-4.988-11.636-11.142
	v-608.495c0-6.153,5.21-11.141,11.636-11.141h569.781c6.426,0,11.635,4.988,11.635,11.141V-83.766z"/>
<g>
	<g>
		<path fill="#386DA6" d="M-2556.25-605.543c0,37.167-30.13,67.298-67.298,67.298s-67.298-30.131-67.298-67.298
			c0-37.168,30.13-67.299,67.298-67.299S-2556.25-642.711-2556.25-605.543"/>
		<g>
			<path fill="#FFFFFF" d="M-2623.548-669.85c-35.366,0-64.036,28.67-64.036,64.037c0,19.519,8.746,36.988,22.52,48.734
				c1.998-17.507,16.844-31.112,34.885-31.112h13.263c18.042,0,32.888,13.605,34.886,31.112
				c13.773-11.746,22.519-29.215,22.519-48.734C-2559.513-641.18-2588.182-669.85-2623.548-669.85 M-2623.548-592.704
				c-11.38,0-20.605-9.225-20.605-20.605s9.226-20.605,20.605-20.605s20.605,9.225,20.605,20.605
				S-2612.168-592.704-2623.548-592.704 M-2589.683-607.334c-0.367,2.113-2.204,3.601-4.28,3.601c-0.248,0-0.499-0.022-0.754-0.067
				c-2.366-0.412-3.948-2.665-3.534-5.034c0.28-1.604,0.416-3.069,0.416-4.476c0-14.178-11.534-25.712-25.713-25.712
				c-14.18,0-25.716,11.534-25.716,25.712c0,1.398,0.139,2.862,0.419,4.476c0.414,2.369-1.169,4.622-3.535,5.034
				c-2.372,0.43-4.622-1.166-5.034-3.534c-0.369-2.116-0.55-4.07-0.55-5.976c0-18.975,15.438-34.414,34.416-34.414
				c18.974,0,34.414,15.439,34.414,34.414C-2589.134-611.396-2589.313-609.441-2589.683-607.334"/>
			<path fill="#FFFFFF" d="M-2623.548-538.282c-37.109,0-67.298-30.188-67.298-67.299c0-37.109,30.188-67.297,67.298-67.297
				c37.11,0,67.299,30.188,67.299,67.297C-2556.249-568.47-2586.438-538.282-2623.548-538.282 M-2623.548-666.353
				c-33.511,0-60.772,27.262-60.772,60.772c0,33.512,27.262,60.774,60.772,60.774c33.512,0,60.772-27.262,60.772-60.774
				C-2562.775-639.091-2590.036-666.353-2623.548-666.353"/>
		</g>
	</g>
	<g>
		<path fill="#4C81A7" d="M-2549.04-559.276c0,8.136-6.596,14.731-14.732,14.731c-8.136,0-14.732-6.595-14.732-14.731
			c0-8.137,6.597-14.732,14.732-14.732C-2555.636-574.008-2549.04-567.414-2549.04-559.276"/>
		<path fill="#DAF1EC" d="M-2572.603-554.114v-8.948c0.013-0.037,0.03-0.073,0.037-0.112c0.177-0.993,1.063-1.8,2.064-1.838
			c0.745-0.028,1.491-0.019,2.236-0.013c0.158,0.001,0.242-0.053,0.325-0.18c0.419-0.644,0.853-1.278,1.272-1.922
			c0.083-0.127,0.17-0.18,0.326-0.179c1.882,0.006,3.764,0.006,5.645,0c0.162-0.001,0.254,0.053,0.341,0.187
			c0.426,0.653,0.862,1.299,1.292,1.951c0.066,0.1,0.135,0.142,0.257,0.14c0.675-0.006,1.349-0.004,2.023-0.002
			c0.911,0.002,1.611,0.387,2.061,1.178c0.142,0.251,0.2,0.55,0.298,0.827v8.911c-0.012,0.033-0.029,0.064-0.035,0.098
			c-0.055,0.338-0.185,0.647-0.387,0.921c-0.49,0.665-1.161,0.953-1.977,0.95c-1.497-0.004-2.993-0.001-4.489-0.001
			c-2.964,0-5.927-0.009-8.89,0.004c-1.293,0.006-2.071-0.821-2.304-1.619C-2572.54-553.878-2572.57-553.996-2572.603-554.114
			 M-2563.519-553.669c2.242,0,4.484-0.006,6.727,0.005c0.552,0.003,0.854-0.387,0.852-0.842c-0.016-2.71-0.007-5.419-0.008-8.129
			c0-0.568-0.304-0.871-0.876-0.872c-0.923,0-1.847-0.003-2.77,0.004c-0.143,0.001-0.221-0.048-0.297-0.166
			c-0.425-0.661-0.86-1.313-1.287-1.976c-0.065-0.101-0.138-0.136-0.258-0.136c-1.379,0.004-2.757,0.004-4.136,0
			c-0.123-0.001-0.19,0.043-0.256,0.141c-0.435,0.662-0.88,1.319-1.313,1.981c-0.072,0.111-0.149,0.159-0.285,0.156
			c-0.455-0.01-0.91-0.004-1.366-0.004c-0.503,0-1.006-0.005-1.509,0.002c-0.467,0.007-0.778,0.324-0.78,0.784
			c0,2.763-0.001,5.526,0.006,8.289c0,0.14,0.048,0.295,0.119,0.415c0.159,0.27,0.423,0.351,0.729,0.35
			C-2567.991-553.67-2565.755-553.669-2563.519-553.669"/>
		<path fill="#DAF1EC" d="M-2563.506-562.756c2.101,0.009,3.804,1.72,3.784,3.815c-0.02,2.151-1.808,3.801-3.871,3.766
			c-2.034-0.035-3.728-1.752-3.716-3.818C-2567.297-561.067-2565.58-562.766-2563.506-562.756 M-2563.517-561.232
			c-1.251,0.004-2.272,1.025-2.27,2.27c0.002,1.247,1.024,2.261,2.275,2.26c1.249-0.001,2.271-1.022,2.268-2.266
			C-2561.245-560.215-2562.271-561.235-2563.517-561.232"/>
	</g>
</g>
<g>
	<ellipse fill="#FFFFFF" cx="83.25" cy="70.621" rx="72.443" ry="63.123"/>
	<g>
		<circle fill="#FFFFFF" cx="29.679" cy="28.531" r="24.775"/>
		<circle fill="#FFFFFF" cx="136.821" cy="28.531" r="24.775"/>
	</g>
</g>
<g>
	<path fill="#386DA6" d="M65.749,65.386h-7.822v23.607H53.69V65.386h-7.805v-3.621h19.863V65.386z"/>
	<path fill="#386DA6" d="M69.012,75.722c0-4.301,1.204-7.778,3.612-10.433s5.657-3.981,9.747-3.981c3.832,0,6.908,1.289,9.229,3.867
		s3.48,5.883,3.48,9.914c0,4.277-1.184,7.74-3.551,10.389s-5.566,3.973-9.598,3.973c-3.844,0-6.958-1.277-9.343-3.832
		S69.012,79.765,69.012,75.722z M73.441,75.423c0,3,0.768,5.47,2.303,7.409s3.609,2.909,6.223,2.909
		c2.742,0,4.875-0.923,6.398-2.769s2.285-4.339,2.285-7.479c0-3.211-0.735-5.754-2.206-7.629s-3.565-2.813-6.284-2.813
		c-2.648,0-4.764,0.973-6.346,2.918S73.441,72.4,73.441,75.423z"/>
	<path fill="#386DA6" d="M107.062,79.027v9.967h-4.219V61.765h8.227c3.082,0,5.442,0.712,7.084,2.136
		c1.641,1.424,2.461,3.489,2.461,6.196c0,2.73-0.979,4.925-2.936,6.583c-1.958,1.658-4.377,2.44-7.26,2.347H107.062z
		 M107.062,65.298v10.213h3.023c4.066,0,6.1-1.746,6.1-5.238c0-3.316-1.951-4.975-5.854-4.975H107.062z"/>
</g>
</svg>
