<?xml version="1.0" encoding="utf-8"?>
<!-- Generator: Adobe Illustrator 23.0.2, SVG Export Plug-In . SVG Version: 6.00 Build 0)  -->
<svg version="1.1" id="圖層_1" xmlns="http://www.w3.org/2000/svg" xmlns:xlink="http://www.w3.org/1999/xlink" x="0px" y="0px"
	 viewBox="0 0 463.9 355.1" style="enable-background:new 0 0 463.9 355.1;" xml:space="preserve">
<style type="text/css">
	.st0{fill:#FFFFFF;}
	.st1{fill:#231815;stroke:#231815;stroke-width:1.667;stroke-miterlimit:10;}
	.st2{fill:#246F9C;stroke:#246F9C;stroke-width:0.1956;stroke-miterlimit:10;}
	.st3{fill:#2D3457;}
	.st4{fill:#231815;stroke:#231815;stroke-width:1.6625;stroke-miterlimit:10;}
	.st5{fill:#2174A4;stroke:#2174A4;stroke-width:0.2096;stroke-miterlimit:10;}
	.st6{fill:#2F3559;}
</style>
<title>udud</title>
<path class="st0" d="M44.5,0h304.1C369.3,0,386,16.7,386,37.4v255.8c0,20.7-16.7,37.4-37.4,37.4H44.5c-20.7,0-37.4-16.7-37.4-37.4
	V37.4C7.1,16.7,23.8,0,44.5,0z"/>
<path class="st1" d="M354.5,46.9h-328c-1.6,0-2.9-0.2-2.9-0.4l0,0c0-0.2,1.3-0.4,2.9-0.4h328c1.6,0,2.9,0.2,2.9,0.4l0,0
	C357.4,46.8,356.1,46.9,354.5,46.9z"/>
<path class="st1" d="M354.5,281h-328c-1.6,0-2.9-0.2-2.9-0.4l0,0c0-0.2,1.3-0.4,2.9-0.4h328c1.6,0,2.9,0.2,2.9,0.4l0,0
	C357.4,280.8,356.1,281,354.5,281z"/>
<path class="st2" d="M47.2,30.2h-1.7V27h-6v3.9h-1.7V27h-5.6v3.2h-1.7v-4.6h7.3v-0.7h-6.6v-1.5h15.1v1.5h-6.8v0.7h7.7V30.2z
	 M47.6,38.2c-0.1,0.5-0.2,1-0.5,1.5c-0.2,0.3-0.5,0.5-0.8,0.6c-1.2,0.1-2.4,0.1-3.6,0.1c-1.8,0-2.9,0-3.4-0.1
	c-0.4,0-0.8-0.2-1.1-0.5s-0.4-0.8-0.4-1.2v-1.1h-6.4v-6.1h14.4v6.1h-6.3v0.6c0,0.2,0.1,0.4,0.3,0.5c1.2,0.1,2.3,0.2,3.5,0.1
	c0.9,0,1.5,0,1.7,0s0.4-0.1,0.5-0.3s0.2-0.4,0.1-0.6L47.6,38.2z M37.3,30.3c-1.4,0.3-2.9,0.4-4.3,0.4l-0.3-1.2
	c1.5,0,2.9-0.2,4.3-0.4L37.3,30.3z M37.2,27.7l-0.3,1.1c-1.3-0.2-2.7-0.3-4.1-0.3l0.4-1.1C34.6,27.5,35.9,27.6,37.2,27.7L37.2,27.7z
	 M37.8,33.7v-1.1h-4.7v1.1H37.8z M37.8,36.2V35h-4.7v1.1L37.8,36.2z M44.2,33.7v-1.1h-4.7v1.1H44.2z M44.2,36.2V35h-4.7v1.1
	L44.2,36.2z M44.9,28.4c-1.5,0.2-2.9,0.4-4.4,0.4l-0.4-1.1c1.4,0,2.8-0.2,4.2-0.4L44.9,28.4z M44.8,29.8l-0.3,1.1
	c-1.5-0.2-2.9-0.4-4.4-0.5l0.4-1.1C41.9,29.3,43.4,29.5,44.8,29.8L44.8,29.8z"/>
<path class="st2" d="M69.7,28.2c0,1.5-0.1,2.4-0.4,2.7c-0.2,0.3-0.6,0.4-0.9,0.5l-0.7,0.1v6.6H59l0.8,0.9c-2.1,0.8-4.3,1.3-6.5,1.5
	l-0.8-1.4c1.8-0.1,3.6-0.4,5.4-0.9h-2.8v-5.8c-0.7,0.2-1.3,0.3-1.9,0.4l-0.7-1.6c2.2-0.2,3.7-0.8,4.7-1.7h-3.9l0.6-3.3h4.3v-0.9H53
	V24h5.2v-1h1.7v1h2.8v-1h1.7v1H69v3.3h-4.6v0.9C64.4,28.2,69.7,28.2,69.7,28.2z M58.1,27.3h-2.7l-0.1,0.9h2.6
	C57.9,27.9,58,27.6,58.1,27.3z M65.8,32.9v-0.8h-9v0.8H65.8z M65.8,34.9v-0.8h-9V35L65.8,34.9z M65.8,36.9V36h-9v0.9H65.8z
	 M67.9,29.4h-3.5v1h-1.7v-0.9h-3.6c-0.4,0.5-0.8,1-1.3,1.5h8.9l-0.3-0.7c0.4,0.1,0.9,0,1.3-0.1C67.9,29.9,67.9,29.7,67.9,29.4
	L67.9,29.4z M62.7,28.2v-0.9h-2.9c0,0.3-0.1,0.6-0.2,0.9H62.7z M62.7,26.1v-0.9h-2.8v0.9H62.7z M70.1,39.3l-0.7,1.3
	c-2-0.5-4-0.8-6.1-0.9l0.7-1.4C66,38.4,68.1,38.8,70.1,39.3L70.1,39.3z M67.3,26.1v-0.9h-2.8v0.9H67.3z"/>
<path class="st2" d="M92.5,28.7l-0.9,1.6c-1-0.4-2-0.9-3-1.5v1.1h-4.1v2h6.7v1.7h-6.7v4.7h7.2V40H75.6v-1.7h7.1v-4.7h-6.6v-1.7h6.6
	v-2h-4.2v-1.1c-0.9,0.5-1.8,1-2.7,1.4l-1.1-1.5c4.1-1.8,6.9-3.7,8.5-5.8l1.8,0.5c-0.1,0.1-0.1,0.3-0.3,0.4
	C86.3,25.5,88.9,27.2,92.5,28.7z M81.3,37.3l-1.7,0.6c-0.6-1.1-1.4-2.1-2.2-3.1l1.7-0.7C80,35.1,80.7,36.2,81.3,37.3L81.3,37.3z
	 M87.7,28.3c-1.5-0.9-2.8-1.9-4.1-3.1c-1.2,1.2-2.6,2.2-4,3.1H87.7z M89.9,34.7c-0.6,1.1-1.3,2.2-2.2,3.1L86,37
	c0.8-0.9,1.6-1.9,2.2-3L89.9,34.7z"/>
<path class="st2" d="M106.4,32.9l-0.8,1.4c-1.1-0.8-2.3-1.5-3.6-2.2c-1.3,1-2.7,1.7-4.2,2.3L97,33c1.2-0.3,2.4-0.9,3.4-1.6
	c-0.7-0.3-1.2-0.6-1.5-0.7c-0.3,0.2-0.4,0.4-0.6,0.4L97.1,30c1.4-1,2.5-2.3,3.4-3.8l1.5,0.5c-0.1,0.2-0.2,0.5-0.3,0.7h3.4v1.5
	c-0.6,0.8-1.2,1.5-1.8,2.2C104.4,31.7,105.4,32.3,106.4,32.9z M106,26.8h-1.7v-0.9h-4.8V27h-1.7v-2.6h3.2c-0.1-0.4-0.3-0.8-0.5-1.1
	l1.7-0.4c0.3,0.5,0.5,1,0.6,1.5h3.3L106,26.8z M105,40.4h-1.7v-0.6h-3v0.6h-1.7v-6h6.5L105,40.4z M103.2,28.8h-2.5
	c-0.2,0.3-0.4,0.5-0.7,0.8c0.8,0.3,1.4,0.6,1.8,0.8C102.3,29.9,102.8,29.4,103.2,28.8z M103.3,38.2V36h-3v2.2H103.3z M114.7,25h-3.3
	c-0.1,0.6-0.3,1.2-0.5,1.7h3.1v10h-5.1l1.1,1c-1,1.1-2.2,2.1-3.5,2.8l-1.1-1.4c1.3-0.6,2.4-1.4,3.4-2.4H107v-10h2.3
	c0.2-0.6,0.3-1.1,0.5-1.7h-3.1v-1.6h8.2V25H114.7z M112.3,29.5v-1.3h-3.7v1.3H112.3z M112.3,32.2v-1.3h-3.7v1.4L112.3,32.2z
	 M112.3,35.1v-1.4h-3.7v1.5L112.3,35.1z M114.9,39.1l-1,1.4c-0.9-0.9-2-1.6-3.1-2.2l1-1.3C112.9,37.6,113.9,38.3,114.9,39.1
	L114.9,39.1z"/>
<path class="st3" d="M37.3,97.2c-0.6,1.6-1.4,3.1-2.4,4.4c-1,1.4-2.2,2.6-3.6,3.6L30,104c2.6-1.9,4.6-4.5,5.8-7.5L37.3,97.2z
	 M44.6,103.7c0,1.9-0.1,3.7-0.2,5.5c0,1.1-0.2,2.3-0.5,3.4c-0.2,0.4-0.5,0.8-0.9,1c-0.4,0.3-0.9,0.4-1.4,0.4c-1.2,0-2.1,0-2.5,0
	l-0.6-1.8c0.9,0.1,1.9,0.1,2.9,0.1c0.2,0,0.5-0.1,0.7-0.2s0.4-0.9,0.5-2.5c0.1-1.5,0.2-2.9,0.2-4.1h-4.3c-0.4,3.8-2.9,7.1-6.4,8.6
	l-1.3-1.4c1.4-0.6,2.7-1.5,3.8-2.7c1.1-1.3,1.9-2.9,2-4.6h-3.2v-1.8L44.6,103.7L44.6,103.7z M47.7,103.9l-1.1,1.4
	c-2.3-1.8-4-4.2-5-6.9h-1.9v-1.7h3C43.5,99.6,45.3,102.1,47.7,103.9L47.7,103.9z"/>
<path class="st3" d="M56.9,101.5h-1.2v2.9c0.3-0.2,0.6-0.4,0.9-0.6l0.2,1.8c-0.4,0.3-0.7,0.5-1.1,0.8v6.1c0,1.1-0.5,1.6-1.5,1.6
	h-1.1l-0.5-1.7h1.3c0.1,0,0.1-0.1,0.2-0.1c0.1-0.1,0.1-0.1,0.1-0.2v-4.7c-0.4,0.2-0.9,0.5-1.3,0.7l-0.5-1.6c0.8-0.4,1.4-0.7,1.8-0.9
	v-3.9h-1.6v-1.6h1.5v-3.3h1.6v3.3h1.2C56.9,100.1,56.9,101.5,56.9,101.5z M64,99.1h-1.2v2.2h-1.6v0.9h2.2v3.7h-2.2
	c0,0.1,0,0.4-0.1,0.9h2.5v1.3H61c0,0.3-0.1,0.6-0.2,0.9h3v1.4h-3.5c-0.7,1.4-1.7,2.7-3,3.7l-1.1-1.2c0.9-0.7,1.7-1.5,2.3-2.5h-1.9
	V109h2.5c0.1-0.3,0.2-0.6,0.3-0.9h-2.2v-1.4h2.4c0-0.3,0.1-0.6,0.1-0.9h-2.2v-3.7h2.2v-0.9H58v-2.1h-1.1v-1.4H58v-1.1h1.6v1.1h1.7
	v-1.1h1.6v1.1H64V99.1z M59.6,104.6v-1.1h-0.9v1.1H59.6z M61.2,99.9V99h-1.7v0.9H61.2z M64,112.9l-1.2,1c-0.7-0.9-1.5-1.6-2.4-2.3
	l1.1-1C62.5,111.3,63.3,112.1,64,112.9L64,112.9z M62.1,104.5v-1.1h-0.9v1.1H62.1z M70,113h-4.1v0.9h-1.5v-11.4
	c-0.1,0.2-0.3,0.4-0.4,0.6l-0.7-1.9c0.9-1.5,1.6-3.2,1.9-5l1.5,0.4c-0.3,1-0.6,2-0.9,3h1.5c-0.1-0.9-0.2-1.9-0.4-2.8l1.5-0.2
	c0.2,1,0.4,2,0.4,3.1h1.1v1.6h-1.5v2.3h1.2v1.5h-1.2v2.3h1.2v1.5h-1.2v2.4H70V113z M66.7,103.7v-2.3h-0.9v2.3H66.7z M66.7,107.5
	v-2.3h-0.9v2.3H66.7z M66.7,111.4V109h-0.9v2.4H66.7z"/>
<path class="st3" d="M82.3,97.1c-1.3,3.5-3.5,6.5-6.4,8.9l-1.1-1.5c2.7-2,4.7-4.8,5.8-7.9L82.3,97.1z M91.2,113l-1.6,1.1
	c-0.3-0.8-0.7-1.5-1.1-2.2c-3.1,0.7-6.9,1.4-11.3,2l-0.5-1.5c1.7-1.2,3.7-4.6,6-10.2l1.8,0.5c-1.3,3.2-3,6.3-5,9.1
	c2.7-0.3,5.4-0.8,8.1-1.4c-0.6-1-1.3-2.1-2.1-3l1.5-0.9C88.7,108.5,90.1,110.7,91.2,113z M92.5,104.5l-1.1,1.6
	c-2.6-1.9-4.5-4.6-5.5-7.6h-1.6v-1.7h2.9C88.1,99.9,89.9,102.6,92.5,104.5z"/>
<path class="st3" d="M113.7,112c0,0.5-0.2,1-0.6,1.4c-0.6,0.5-1.3,0.7-2.1,0.6c-0.4,0-0.9,0-1.4,0l-0.5-1.8h2.2
	c0.2,0,0.3-0.1,0.4-0.2s0.2-0.3,0.2-0.4V108H107v5.6h-1.7V108h-4.8c-0.1,2.2-0.7,4.3-1.8,6.1l-1.6-1c0.6-1,1.1-2.1,1.3-3.3
	c0.3-1.3,0.5-2.6,0.5-3.9V97h14.8V112z M105.3,101.6v-2.9h-4.7v2.9H105.3z M105.3,106.3v-3h-4.7v3H105.3z M111.9,101.6v-2.9H107v2.9
	H111.9z M111.9,106.3v-3H107v3H111.9z"/>
<path class="st3" d="M136.7,103.7H135v-3.2h-6v3.8h-1.7v-3.8h-5.7v3.2H120V99h7.3v-0.7h-6.6v-1.5h15.1v1.5H129V99h7.7V103.7z
	 M137,111.7c-0.1,0.5-0.2,1-0.5,1.5c-0.2,0.3-0.5,0.5-0.8,0.6c-1.2,0.1-2.4,0.1-3.6,0.1c-1.8,0-2.9,0-3.4-0.1
	c-0.4,0-0.8-0.2-1.1-0.5c-0.2-0.3-0.4-0.8-0.3-1.2V111h-6.4v-6.1h14.5v6.1H129v0.6c0,0.2,0.1,0.4,0.3,0.5c1.2,0.1,2.3,0.2,3.5,0.1
	c0.9,0,1.5,0,1.7,0s0.4-0.1,0.5-0.3c0.1-0.2,0.2-0.4,0.2-0.6L137,111.7z M126.8,103.9c-1.4,0.2-2.9,0.4-4.3,0.4l-0.3-1.2
	c1.5,0,2.9-0.1,4.3-0.3L126.8,103.9z M126.7,101.3l-0.3,1.1c-1.3-0.2-2.7-0.3-4.1-0.3l0.4-1.1C124,101,125.4,101.1,126.7,101.3
	L126.7,101.3z M127.3,107.3v-1h-4.7v1.1L127.3,107.3z M127.3,109.7v-1.1h-4.7v1.1H127.3z M133.6,107.3v-1H129v1.1L133.6,107.3z
	 M133.6,109.7v-1.1H129v1.1H133.6z M134.4,101.9c-1.5,0.2-2.9,0.4-4.4,0.4l-0.4-1.1c1.4,0,2.8-0.2,4.2-0.4L134.4,101.9z
	 M134.3,103.3l-0.3,1.1c-1.5-0.2-2.9-0.4-4.4-0.5l0.4-1.1C131.4,102.9,132.9,103,134.3,103.3L134.3,103.3z"/>
<path class="st3" d="M159.2,101.8c0,1.5-0.2,2.4-0.4,2.7c-0.2,0.3-0.6,0.4-0.9,0.5l-0.8,0.1v6.6h-8.6l0.8,0.9
	c-2.1,0.8-4.3,1.3-6.6,1.5l-0.8-1.4c1.8-0.1,3.6-0.4,5.4-0.9h-2.8V106c-0.6,0.2-1.3,0.3-1.9,0.4l-0.7-1.6c1.7,0,3.3-0.6,4.7-1.7
	h-3.8l0.6-3.3h4.4v-0.9h-5.2v-1.2h5.2v-0.9h1.7v0.9h2.8v-0.9h1.7v0.9h4.6v3.3H154v0.9L159.2,101.8z M147.5,100.9h-2.6l-0.1,0.9h2.6
	C147.4,101.5,147.5,101.2,147.5,100.9L147.5,100.9z M155.3,106.5v-0.8h-9v0.9L155.3,106.5z M155.3,108.5v-0.9h-9v0.9H155.3z
	 M155.3,110.5v-0.9h-9v0.9H155.3z M157.4,103h-3.5v0.9h-1.7V103h-3.6c-0.4,0.5-0.8,1-1.3,1.4h8.9l-0.3-0.8c0.4,0.1,0.9,0,1.3-0.1
	C157.3,103.5,157.4,103.3,157.4,103L157.4,103z M152.2,101.8v-0.9h-2.9c0,0.3-0.1,0.6-0.2,0.9H152.2z M152.2,99.7v-0.9h-2.8v0.9
	H152.2z M159.5,112.9l-0.8,1.3c-2-0.5-4-0.8-6.1-0.9l0.7-1.3C155.5,112.1,157.5,112.4,159.5,112.9L159.5,112.9z M156.8,99.7v-0.9
	h-2.9v0.9H156.8z"/>
<path class="st3" d="M34.5,69.4l-1.1,1.5c-1-1-2.2-1.9-3.4-2.6l1.1-1.5C32.3,67.5,33.5,68.4,34.5,69.4z M34.4,72.6
	c-0.7,2.4-1.6,4.7-2.9,6.9l-1.5-1c1.2-2.1,2.1-4.4,2.8-6.7L34.4,72.6z M34.6,64.7L33.3,66c-0.9-1.1-1.9-2.1-3-2.9l1.3-1.4
	C32.7,62.6,33.7,63.6,34.6,64.7z M38,71c0,0.3,0,0.6,0,0.9c0.1,1.7-0.2,3.3-0.8,4.9c-0.5,1.1-1.3,2.1-2.3,2.8l-1.3-1.3
	c1.7-1,2.6-3.1,2.6-6.2c0-0.3,0-0.7,0-1.1L38,71z M47.6,70L46,70.8c-0.3-0.4-0.5-0.8-0.8-1.2c-4.2,0.4-7.5,0.5-9.8,0.6L35,68.7
	c1.3-0.8,2.4-1.9,3.2-3.2H35v-1.7h4.3c0.3-0.5,0.6-1.1,1-2l1.9,0.4c-0.2,0.6-0.5,1.1-0.8,1.6h6.1v1.7h-7.1c-0.7,1.1-1.6,2.1-2.6,2.9
	c2,0,4.1-0.1,6.1-0.4c-0.4-0.5-0.8-0.9-1.3-1.3l1.7-0.8C45.6,67.2,46.7,68.5,47.6,70z M41.5,79.4h-1.7V71h1.7V79.4z M47.5,79.3h-2.6
	c-0.4,0-0.8-0.1-1.1-0.4s-0.4-0.7-0.4-1.1V71h1.7v6.2c0,0.1,0,0.2,0.1,0.3c0.1,0.1,0.2,0.1,0.3,0.1h2V79.3z"/>
<path class="st3" d="M62.3,66.6h-3.9v1.1h3.4v5.9h-3.4v1.1h3.4v1.4h-3.4v1.3c1.2-0.1,2.4-0.3,3.5-0.5l0.1,1.4
	c-2.9,0.5-5.9,0.9-9.1,1.2L52.5,78l4.3-0.4v-1.5h-3.5v-1.4h3.5v-1.1h-3.5v-5.9h3.5v-1.1h-4v-1.5h4V64c-0.9,0.1-1.9,0.2-3.1,0.3
	l-0.4-1.4c2.7-0.1,5.4-0.4,8.1-0.9l0.7,1.3c-0.9,0.2-2.2,0.4-3.6,0.6v1.3h3.9L62.3,66.6z M56.8,70v-1h-1.9v1H56.8z M56.8,72.3v-1
	h-1.9v1H56.8z M60.2,70v-1h-1.8v1H60.2z M60.2,72.3v-1h-1.8v1H60.2z M69.6,65.7c0,2.8-0.1,5.5-0.2,8c0,1.5-0.1,3-0.3,4.5
	c-0.1,0.4-0.3,0.7-0.7,0.9c-0.5,0.3-1,0.4-1.6,0.3c-0.3,0-0.7,0-1.1,0l-0.5-1.7c0.5,0,0.9,0.1,1.2,0.1c0.6,0,0.9-0.1,1-0.2
	c0.2-1.2,0.3-2.4,0.3-3.6c0.1-2.2,0.2-4.4,0.1-6.6h-1.7c0.1,4.2-0.8,8.3-2.7,12.1l-1.5-0.8c1.8-3.5,2.7-7.4,2.5-11.4h-1.7v-1.7h1.8
	c0-1.6,0-2.8,0-3.6h1.7c0,1.2,0,2.5-0.1,3.6L69.6,65.7z"/>
<path class="st3" d="M91.9,69.1h-1.7V66h-6v3.8h-1.7V66h-5.7v3.2h-1.7v-4.7h7.3v-0.7H76v-1.5h15.1v1.5h-6.8v0.7H92L91.9,69.1z
	 M92.3,77.2c-0.1,0.5-0.2,1-0.5,1.5c-0.2,0.3-0.5,0.5-0.8,0.6c-1.2,0.1-2.4,0.1-3.6,0.1c-1.8,0-2.9,0-3.4-0.1
	c-0.4,0-0.8-0.2-1.1-0.5c-0.3-0.3-0.4-0.8-0.4-1.2v-1.1h-6.4v-6.1h14.5v6.1h-6.3v0.6c0,0.2,0.1,0.4,0.3,0.5c1.2,0.1,2.3,0.1,3.5,0.1
	c0.9,0,1.5,0,1.7,0s0.4-0.1,0.5-0.3c0.1-0.2,0.2-0.4,0.2-0.6L92.3,77.2z M82.1,69.3c-1.4,0.2-2.9,0.4-4.3,0.4l-0.3-1.2
	c1.5,0,2.9-0.1,4.3-0.4L82.1,69.3z M82,66.7l-0.3,1.1c-1.3-0.2-2.7-0.3-4.1-0.3l0.4-1.1C79.3,66.4,80.6,66.5,82,66.7L82,66.7z
	 M82.5,72.7v-1.1h-4.7v1.1H82.5z M82.5,75.1V74h-4.7v1.1H82.5z M88.9,72.7v-1.1h-4.7v1.1H88.9z M88.9,75.1V74h-4.7v1.1H88.9z
	 M89.7,67.3c-1.5,0.2-2.9,0.4-4.4,0.4l-0.4-1.1c1.4,0,2.8-0.2,4.2-0.4L89.7,67.3z M89.5,68.7l-0.3,1.1c-1.5-0.2-2.9-0.4-4.4-0.5
	l0.4-1.1C86.7,68.3,88.1,68.5,89.5,68.7L89.5,68.7z"/>
<path class="st3" d="M114.4,67.2c0,1.5-0.1,2.4-0.4,2.7c-0.2,0.3-0.6,0.4-0.9,0.5l-0.8,0.1v6.6h-8.6l0.8,0.9
	c-2.1,0.8-4.3,1.4-6.5,1.5l-0.8-1.4c1.8-0.1,3.6-0.4,5.4-0.9h-2.8v-5.9c-0.7,0.1-1.3,0.3-1.9,0.4l-0.7-1.6c1.7,0,3.3-0.6,4.7-1.7H98
	l0.6-3.3h4.3v-0.9h-5.2V63h5.2v-1h1.7v0.9h2.8V62h1.7v0.9h4.7v3.3h-4.7v0.9L114.4,67.2z M102.8,66.3h-2.7l-0.1,0.9h2.6
	C102.7,66.9,102.7,66.6,102.8,66.3z M110.5,71.8V71h-9v0.8H110.5z M110.5,73.9V73h-9v0.9H110.5z M110.5,75.9V75h-9v0.9H110.5z
	 M112.7,68.4h-3.5v0.9h-1.7v-0.9h-3.6c-0.4,0.5-0.8,1-1.3,1.5h8.9l-0.3-0.8c0.4,0.1,0.9,0,1.3-0.1C112.6,68.9,112.7,68.7,112.7,68.4
	L112.7,68.4z M107.4,67.2v-0.9h-2.9c0,0.3-0.1,0.6-0.2,0.9H107.4z M107.4,65.1v-0.9h-2.8v0.9H107.4z M114.8,78.3l-0.8,1.3
	c-2-0.5-4-0.8-6.1-0.9l0.7-1.4C110.7,77.4,112.8,77.7,114.8,78.3L114.8,78.3z M112,65.1v-0.9h-2.9v0.9H112z"/>
<path class="st3" d="M52.6,296.9H38.1l-0.7,4.2c1.3-1.1,2.4-2.4,3.3-3.9l1.6,0.4c-0.5,0.9-1.1,1.7-1.7,2.5l-1,6.2H38l0.6-4.1
	l-0.9,0.7l-0.3-1.6l-0.7,4.2c-0.3,2.3-1.2,4.5-2.5,6.4l-1.3-1.1c1.2-1.8,1.9-3.9,2.2-6.1l1.4-9.2h7c-0.1-0.3-0.3-0.6-0.4-0.9l2-0.3
	c0.2,0.4,0.4,0.8,0.5,1.3h7.1L52.6,296.9z M39.7,307.5c-0.7,1.4-1.6,2.7-2.6,3.8l-1.3-0.9c1-1,1.8-2.2,2.4-3.4L39.7,307.5z
	 M47.7,309.2c-0.4,1.5-1.1,2.3-2.3,2.3h-4c-1.1,0-1.5-0.5-1.4-1.5l0.5-3h1.7l-0.4,2.6c0,0.1,0,0.3,0.2,0.4c0.5,0.1,1,0.1,1.5,0.1
	c0.7,0.1,1.5,0,2.2-0.1c0.2-0.1,0.3-0.3,0.4-0.5c0.1-0.2,0.2-0.5,0.2-0.7L47.7,309.2z M51,306.2h-9.8l0.6-4
	c-0.2,0.1-0.4,0.3-0.6,0.5l-0.5-1.6c1.3-1.1,2.4-2.5,3.3-4l1.5,0.4c-0.2,0.4-0.4,0.7-0.6,1H47c-0.1-0.3-0.2-0.7-0.4-1l1.9-0.3
	c0.2,0.4,0.3,0.8,0.4,1.3H52l-0.3,1.4h-3.5l-0.1,0.8h3.3l-0.2,1.2h-3.3l-0.1,0.8h3.3l-0.2,1.3h-3.3l-0.1,0.9h3.7L51,306.2z
	 M45.7,308.6l-1.6,0.7c-0.3-0.7-0.7-1.4-1.2-2.1l1.6-0.7C45,307.1,45.4,307.9,45.7,308.6z M45.8,304.9l0.1-0.9h-2.8l-0.1,0.9H45.8z
	 M46.1,302.8l0.1-0.8h-2.8l-0.1,0.8H46.1z M46.5,300.7l0.1-0.8h-2.7l-0.1,0.1l-0.1,0.7L46.5,300.7L46.5,300.7z M50.6,310.1l-1.6,0.8
	c-0.5-1.1-1.1-2.2-1.8-3.2l1.6-0.8C49.5,307.9,50.1,309,50.6,310.1L50.6,310.1z"/>
<path class="st3" d="M58,307.2c-0.3,1.6-0.9,3.2-1.6,4.7l-1.3-0.8c0.7-1.4,1.2-2.8,1.5-4.2L58,307.2z M63.1,297.9
	c-1.1,2.4-2.7,4.6-4.5,6.4c0.6-0.1,1.2-0.3,1.8-0.5c0-0.3,0-0.7-0.1-1l1.3-0.5c0.2,1.1,0.3,2.2,0.4,3.3l-1.3,0.5c0-0.5,0-0.8,0-0.9
	c-1.3,0.4-2.7,0.7-4,0.9l-0.2-1.4c1.3-1.2,2.5-2.5,3.4-4l-2.2,0.4l-0.2-1.5c1.4-1.7,2.5-3.6,3.3-5.7l1.6,0.4c-0.8,1.8-1.8,3.4-3,5
	c0.5-0.1,1-0.2,1.5-0.3c0.4-0.6,0.7-1.2,1-1.9L63.1,297.9z M59.5,310.8l-1.4,0.3c0.1-0.3,0.1-0.7,0.2-1c0.2-1,0.2-2,0.2-3l1.2-0.2
	C59.8,308.2,59.7,309.5,59.5,310.8z M68.2,305h-3.4c0,0.3-0.1,0.6-0.2,0.9h3.2c-0.5,2.9-1,4.5-1.4,5s-1,0.7-1.6,0.7h-1.1l-0.2-1.6
	h0.9c0.2,0,0.4,0,0.6-0.1c0.2-0.3,0.4-0.6,0.5-0.9c0.2-0.5,0.3-1.1,0.4-1.6h-1.6c-0.6,1.8-1.7,3.3-3.2,4.5l-0.9-1.3
	c1.8-1.4,2.9-3.4,3.1-5.6H62l0.2-1.4h2.3c0-0.3-0.1-0.5-0.2-0.8l1.7-0.4c0.1,0.4,0.3,0.8,0.4,1.2h2.1L68.2,305z M61.7,308.7
	l-1.3,0.4c0-0.7,0-1.5-0.1-2.2l1.2-0.3C61.7,307.3,61.7,308,61.7,308.7z M68.2,302.2h-5.3l1-6.4h1.4c0.3-0.6,0.6-1.1,0.8-1.7
	l1.6,0.3c-0.2,0.5-0.5,1-0.7,1.4h2.2L68.2,302.2z M66.8,300.6l0.2-1h-2.1l-0.1,1H66.8z M67.2,298.3l0.1-0.9h-2.1l-0.1,0.9H67.2z
	 M73.1,310.6l-1.4,1.2c-0.6-0.8-1.1-1.6-1.5-2.5c-0.7,0.9-1.5,1.7-2.3,2.5l-0.8-1.4c0.9-0.8,1.8-1.7,2.5-2.8c-0.4-1.6-0.6-3.3-0.6-5
	l1.5-0.5c0,1.1,0,2.2,0.2,3.3c0.8-2,1.4-4.2,1.8-6.4h-1.1c-0.5,1.1-1.1,2.1-1.7,3l-0.9-1.4c1.3-2,2.2-4.3,2.8-6.6l1.5,0.3
	c-0.3,1-0.6,1.9-0.9,2.9H75l-0.3,1.7H74c-0.5,3-1.4,5.9-2.7,8.6C71.8,308.6,72.4,309.6,73.1,310.6L73.1,310.6z"/>
<path class="st3" d="M80.7,307.2c-0.4,1.6-1,3.1-1.7,4.5l-1.4-0.7c0.7-1.4,1.3-2.8,1.6-4.3L80.7,307.2z M85.5,305.7l-1.5,0.6
	c0-0.3,0-0.6-0.1-0.9c-1.7,0.4-3.3,0.8-5,1l-0.2-1.4c1.5-1.2,2.7-2.6,3.8-4.1c-1,0.2-1.9,0.3-2.8,0.4v-1.6c1.5-1.6,2.8-3.5,3.7-5.5
	l1.5,0.7c-0.8,1.6-1.8,3.1-3.1,4.4c0.6-0.1,1.2-0.1,1.9-0.3c0.3-0.4,0.7-1.1,1.5-2.3l1.5,0.7c-1.6,2.6-3.4,4.9-5.6,7
	c0.8-0.1,1.7-0.3,2.5-0.6c0-0.4-0.1-0.7-0.2-1.1l1.5-0.6C85.1,303.4,85.4,304.5,85.5,305.7z M82.5,310.8l-1.6,0.3
	c0.2-1.3,0.3-2.6,0.2-3.9l1.5-0.3C82.7,308.2,82.6,309.5,82.5,310.8z M84.7,309.3l-1.4,0.5c0-0.9,0-1.9-0.1-2.8l1.3-0.3
	C84.7,307.5,84.8,308.4,84.7,309.3L84.7,309.3z M87.5,306.5c-0.4,1.7-1.1,3.3-2,4.8l-1.2-0.8c0.8-1.4,1.4-3,1.9-4.6L87.5,306.5z
	 M95.1,305H86l1.5-9.5h2.4c0.3-0.5,0.7-0.9,0.9-1.4l1.8,0.3c-0.2,0.4-0.4,0.7-0.7,1.1h4.7L95.1,305z M93.2,308.9
	c-0.1,0.6-0.3,1.2-0.6,1.8c-0.2,0.3-0.4,0.6-0.7,0.7c-0.6,0.2-1.2,0.3-1.9,0.2c-0.6,0-1,0-1.4,0s-0.7-0.2-0.9-0.4
	c-0.2-0.3-0.3-0.7-0.2-1l0.7-4.3h1.7l-0.6,3.7c0,0.2,0,0.3,0.1,0.4c0.4,0.1,0.7,0.1,1.1,0.1c0.2,0,0.5,0,0.7-0.1
	c0.2-0.2,0.3-0.4,0.3-0.6c0.1-0.3,0.2-0.7,0.3-1L93.2,308.9z M93.6,303.5l1-6.4H89l-1,6.4H93.6z M93.7,301.9l-1.1,1.1
	c-0.4-0.5-0.7-0.9-0.9-1.1c-0.5,0.5-1,1-1.5,1.5l-0.9-0.9c0.5-0.4,1-0.9,1.5-1.5c-0.2-0.2-0.3-0.4-0.4-0.4c-0.3,0.3-0.7,0.7-1.2,1.2
	l-0.8-0.9c0.4-0.3,0.7-0.6,1.1-1l-0.7-0.6l1.1-1.1c0.2,0.1,0.4,0.3,0.6,0.5c0.2-0.3,0.4-0.7,0.7-1.1l1.1,0.6l-0.8,1.2
	c0.1,0.1,0.3,0.3,0.4,0.4c0.4-0.5,0.8-1.1,1.2-1.7l1.1,0.6c-0.4,0.7-0.8,1.4-1.3,2L93.7,301.9z M92.3,307.7l-1.5,0.7
	c-0.1-0.8-0.3-1.6-0.6-2.4l1.5-0.5C91.9,306.1,92.1,306.9,92.3,307.7z M95.5,309.8l-1.5,0.9c-0.1-1.3-0.4-2.7-0.8-4l1.5-0.8
	C95.1,307.2,95.4,308.5,95.5,309.8z"/>
<path class="st3" d="M119.4,300l-1.1,1.6c-1-0.4-1.9-0.9-2.8-1.5l-0.2,1.1h-4.1l-0.3,2h6.7l-0.3,1.7h-6.7l-0.7,4.7h7.2l-0.3,1.7
	h-16.1l0.3-1.7h7.1l0.7-4.7h-6.6l0.3-1.7h6.6l0.3-2h-4.2l0.2-1.1c-0.9,0.5-1.9,1-2.9,1.4l-0.9-1.5c4.3-1.8,7.5-3.7,9.4-5.8l1.7,0.5
	c-0.1,0.1-0.2,0.3-0.3,0.4C113.7,296.8,116,298.4,119.4,300z M106.9,308.6l-1.8,0.6c-0.5-1.1-1.1-2.1-1.8-3.1l1.8-0.7
	C105.9,306.4,106.5,307.4,106.9,308.6z M114.6,299.5c-1.3-0.9-2.5-1.9-3.6-3.1c-1.4,1.2-2.9,2.2-4.5,3.1H114.6z M115.9,306
	c-0.8,1.1-1.7,2.2-2.6,3.1l-1.6-0.8c1-0.9,1.9-1.9,2.6-3L115.9,306z"/>
<path class="st3" d="M132.6,304.2l-1,1.4c-1-0.8-2.1-1.5-3.3-2.2c-1.4,0.9-2.9,1.7-4.5,2.3l-0.6-1.5c1.3-0.3,2.5-0.9,3.7-1.6
	c-0.7-0.3-1.1-0.6-1.4-0.7c-0.3,0.2-0.5,0.4-0.6,0.4l-1-1.1c1.5-1,2.9-2.3,3.9-3.8l1.4,0.5c-0.1,0.2-0.3,0.5-0.4,0.7h3.4l-0.2,1.5
	c-0.7,0.8-1.4,1.6-2.1,2.3C130.8,302.9,131.7,303.6,132.6,304.2z M130.1,311.7h-1.7l0.1-0.6h-3l-0.1,0.6h-1.7l0.9-5.9h6.5
	L130.1,311.7z M133.1,298.1h-1.7l0.1-0.9h-4.8l-0.2,1.1h-1.7l0.4-2.6h3.2c-0.1-0.4-0.2-0.8-0.3-1.1l1.8-0.4c0.2,0.5,0.3,1,0.3,1.5
	h3.3L133.1,298.1z M128.7,309.5l0.3-2.2h-3l-0.4,2.2H128.7z M130,300.2h-2.5c-0.2,0.3-0.5,0.5-0.8,0.8c0.8,0.3,1.4,0.6,1.7,0.8
	C129,301.2,129.6,300.7,130,300.2L130,300.2z M142.1,296.3h-3.3c-0.2,0.6-0.4,1.1-0.7,1.7h3.1l-1.6,10h-5.1l0.9,1
	c-1.2,1.1-2.5,2.1-4,2.8l-0.9-1.4c1.4-0.6,2.6-1.4,3.7-2.5h-1.8l1.6-10h2.3c0.3-0.6,0.5-1.1,0.7-1.7h-3l0.3-1.6h8.2L142.1,296.3z
	 M138.2,306.5l0.2-1.5h-3.7l-0.2,1.5H138.2z M138.6,303.6l0.2-1.4h-3.7l-0.2,1.4H138.6z M139,300.8l0.2-1.3h-3.7l-0.2,1.3H139z
	 M140.1,310.5l-1.3,1.4c-0.8-0.9-1.7-1.6-2.8-2.2l1.2-1.3C138.3,308.9,139.3,309.6,140.1,310.5z"/>
<path class="st3" d="M312.4,113h-8.9v-1.9h3.3v-11l-3.4,0.9v-2l5.7-1.5V111h3.3V113z"/>
<path class="st3" d="M317.7,110.4c0.9,0.6,2.1,1,3.2,1c0.9,0,1.7-0.2,2.4-0.8c0.6-0.5,1-1.3,0.9-2.2c0-1.9-1.2-2.8-3.6-2.8
	c-0.6,0-1.4,0-2.4,0.1V98h7.7v2h-5.6v3.9c0.6,0,1-0.1,1.3-0.1c1.3-0.1,2.6,0.4,3.7,1.2c0.9,0.9,1.4,2.1,1.3,3.3
	c0.1,1.4-0.5,2.7-1.5,3.6c-1.1,0.9-2.5,1.4-4,1.4c-1.1,0.1-2.3-0.2-3.3-0.6L317.7,110.4z"/>
<path class="st3" d="M349,108.9c0,1.1-0.1,2.2-0.4,3.3c-0.1,0.6-0.5,1.1-1,1.4c-0.8,0.3-1.7,0.4-2.6,0.4c-0.8,0-1.5,0-2-0.1
	c-0.4,0-0.8-0.2-1.1-0.5c-0.3-0.3-0.5-0.7-0.4-1.1v-8h-3.1c0,2.2-0.5,4.3-1.5,6.2c-1,1.6-2.5,2.8-4.2,3.6l-1.3-1.5
	c1.5-0.6,2.9-1.6,3.9-2.9c0.9-1.7,1.3-3.5,1.3-5.4h-4.7v-1.7h16.8v1.7h-5.4v7.3c0,0.2,0.1,0.3,0.2,0.4c0.5,0.1,1.1,0.1,1.6,0.1
	s0.9,0,1.4-0.1c0.2-0.1,0.3-0.2,0.4-0.4c0.1-0.4,0.2-0.8,0.2-1.2c0.1-0.6,0.1-1.4,0.1-2.4L349,108.9z M347.5,98.8h-14.4V97h14.4
	V98.8z"/>
<path class="st3" d="M297.5,65.5c-0.8-0.4-1.6-0.6-2.5-0.6c-1.2,0-2.4,0.6-3.1,1.7c-0.8,1.3-1.2,2.8-1.1,4.3l0,0
	c0.6-1.2,2-2,3.4-1.9c1.2-0.1,2.3,0.4,3.1,1.3c0.8,0.9,1.2,2.1,1.2,3.4c0,1.4-0.5,2.7-1.4,3.7s-2.2,1.5-3.5,1.5
	c-1.5,0.1-2.9-0.6-3.7-1.9c-1-1.5-1.4-3.3-1.3-5.1c-0.1-2.2,0.5-4.4,1.6-6.3c1-1.6,2.8-2.5,4.7-2.4c0.9,0,1.8,0.1,2.6,0.4
	L297.5,65.5z M290.9,73.5c0,0.9,0.2,1.7,0.7,2.4c0.5,0.6,1.2,1,1.9,0.9c0.7,0,1.4-0.3,1.9-0.9c0.9-1.3,0.9-3.1,0-4.5
	c-0.5-0.5-1.2-0.8-1.9-0.8c-0.7,0-1.4,0.3-1.9,0.8C291.2,72,290.9,72.7,290.9,73.5L290.9,73.5z"/>
<path class="st3" d="M303.4,76.1c0.8,0.5,1.8,0.7,2.7,0.7c1.2,0.1,2.4-0.5,3-1.5c0.8-1.3,1.1-2.7,1.1-4.2l0,0
	c-0.6,1.2-1.9,1.9-3.3,1.8c-1.2,0-2.3-0.4-3.1-1.3c-0.8-0.9-1.3-2.1-1.2-3.3c-0.1-1.4,0.4-2.7,1.4-3.7c0.9-1,2.3-1.5,3.6-1.4
	c1.5,0,2.8,0.7,3.6,1.9c0.9,1.5,1.3,3.3,1.2,5.1c0.1,2.2-0.4,4.5-1.6,6.4c-1.1,1.5-2.8,2.4-4.7,2.3c-1,0-1.9-0.2-2.8-0.5L303.4,76.1
	z M304.9,67.9c0,0.8,0.2,1.6,0.7,2.2s1.2,0.9,2,0.8c0.7,0,1.4-0.2,1.9-0.8c0.5-0.5,0.8-1.2,0.7-1.9c0-0.9-0.2-1.7-0.7-2.5
	c-0.4-0.7-1.2-1-2-1c-0.7,0-1.4,0.3-1.9,0.9C305.1,66.4,304.9,67.1,304.9,67.9z"/>
<path class="st3" d="M317.7,76.1c0.8,0.5,1.8,0.7,2.7,0.7c1.2,0.1,2.3-0.5,3-1.5c0.8-1.3,1.1-2.7,1.1-4.2l0,0
	c-0.6,1.2-1.9,1.9-3.3,1.8c-1.2,0-2.4-0.5-3.2-1.4c-0.8-0.9-1.3-2.1-1.2-3.3c-0.1-1.4,0.4-2.7,1.4-3.7c0.9-1,2.3-1.5,3.6-1.4
	c1.5-0.1,2.8,0.7,3.6,1.9c1,1.5,1.4,3.3,1.3,5.1c0.1,2.2-0.4,4.5-1.6,6.4c-1.1,1.5-2.8,2.4-4.7,2.3c-1,0-1.9-0.2-2.8-0.5L317.7,76.1
	z M319.2,67.9c0,0.8,0.2,1.6,0.7,2.2c1,1.1,2.7,1.1,3.8,0.1c0.5-0.5,0.7-1.2,0.7-1.9c0-0.9-0.2-1.7-0.7-2.5c-0.4-0.7-1.2-1-2-1
	c-0.7,0-1.4,0.3-1.9,0.9C319.4,66.4,319.2,67.1,319.2,67.9z"/>
<path class="st3" d="M349,74.3c0,1.1-0.1,2.2-0.4,3.3c-0.1,0.6-0.5,1.1-1,1.4c-0.8,0.3-1.7,0.4-2.6,0.4c-0.8,0-1.5,0-2-0.1
	c-0.4,0-0.8-0.2-1.1-0.5c-0.3-0.3-0.5-0.7-0.4-1.1v-7.9h-3.1c0,2.2-0.5,4.3-1.5,6.2c-1,1.6-2.5,2.8-4.2,3.6l-1.3-1.5
	c1.5-0.6,2.9-1.6,3.9-2.9c0.9-1.7,1.3-3.5,1.3-5.4h-4.7V68h16.8v1.7h-5.4V77c0,0.2,0.1,0.3,0.2,0.4c0.5,0.1,1.1,0.1,1.6,0.1
	s0.9,0,1.4-0.1c0.2-0.1,0.3-0.2,0.4-0.4c0.1-0.4,0.2-0.8,0.2-1.2c0.1-0.6,0.1-1.4,0.1-2.4L349,74.3z M347.5,64.2h-14.4v-1.8h14.4
	V64.2z"/>
<path class="st3" d="M294,296.5l-8,14.2h-2.3l7.6-13.1h-7.4l0.3-2h10L294,296.5z"/>
<path class="st3" d="M305.8,310.7h-8.9l0.3-1.9h3.3l1.7-10.9l-3.5,0.9l0.3-2l5.9-1.5l-2.1,13.5h3.3L305.8,310.7z"/>
<path class="st3" d="M321.2,307h-1.9l-0.6,3.7h-2.2l0.6-3.7h-6.9l0.2-1.5l8.1-9.9h2.5l-1.5,9.6h1.9L321.2,307z M317.4,305.2l0.9-5.9
	c0.1-0.4,0.2-0.9,0.3-1.5l0,0c-0.2,0.4-0.5,0.8-0.8,1.2l-5.1,6.3h4.7V305.2z"/>
<path class="st3" d="M350.5,306.6c-0.2,1.1-0.5,2.2-0.9,3.3c-0.2,0.6-0.7,1.1-1.2,1.4c-0.8,0.3-1.7,0.4-2.6,0.4s-1.5,0-2-0.1
	c-0.4,0-0.8-0.2-1.1-0.5c-0.3-0.3-0.4-0.7-0.3-1.1l1.3-8h-3.1c-0.3,2.2-1.2,4.3-2.4,6.2c-1.3,1.6-2.9,2.8-4.8,3.6l-1.1-1.5
	c1.7-0.6,3.1-1.6,4.3-2.9c1.1-1.6,1.9-3.5,2.1-5.4H334l0.3-1.7h16.8l-0.3,1.7h-5.4l-1.2,7.3c0,0.2,0,0.3,0.1,0.4
	c0.5,0.1,1.1,0.1,1.6,0.1s1,0,1.4-0.1c0.2-0.1,0.3-0.2,0.4-0.4c0.2-0.4,0.3-0.8,0.4-1.2c0.2-0.6,0.3-1.4,0.5-2.4L350.5,306.6z
	 M350.6,296.5h-14.4l0.3-1.8h14.4L350.6,296.5z"/>
<g>
	<path class="st0" d="M348.6,330.6H44.5c-20.7,0-37.4-16.7-37.4-37.4V37.4C7.1,16.7,23.9,0,44.5,0h304.1C369.2,0,386,16.7,386,37.4
		v255.8C386,313.9,369.2,330.6,348.6,330.6z"/>
	<path class="st4" d="M354.5,46.9H26.5c-1.6,0-2.9-0.2-2.9-0.4l0,0c0-0.2,1.3-0.4,2.9-0.4h327.9c1.6,0,2.9,0.2,2.9,0.4l0,0
		C357.4,46.8,356.1,46.9,354.5,46.9z"/>
	<g>
		<path class="st5" d="M45.5,37.2c0,0.5-0.2,1-0.6,1.4c-0.4,0.4-1.1,0.6-2.1,0.6c-0.4,0-0.9,0-1.4,0l-0.5-1.8l2.2,0
			c0.2,0,0.3-0.1,0.4-0.2c0.1-0.1,0.2-0.3,0.2-0.4v-3.6h-4.9v5.6h-1.7v-5.6h-4.8c-0.2,2.6-0.8,4.6-1.8,6.1l-1.6-1
			c0.6-0.8,1-1.9,1.3-3.3c0.3-1.4,0.5-2.7,0.5-3.9v-8.8h14.8V37.2z M37.2,26.8v-2.9h-4.7v2.9H37.2z M37.2,31.5v-3h-4.7v3H37.2z
			 M43.8,26.8v-2.9h-4.9v2.9H43.8z M43.8,31.5v-3h-4.9v3H43.8z"/>
		<path class="st5" d="M68.5,28.9h-1.7v-3.2h-6v3.8h-1.7v-3.8h-5.6v3.2h-1.7v-4.6h7.3v-0.7h-6.6v-1.5h15.1v1.5h-6.8v0.7h7.7V28.9z
			 M68.8,36.9c-0.1,0.6-0.3,1.1-0.5,1.5C68,38.8,67.8,39,67.5,39c-0.3,0.1-1.5,0.1-3.6,0.1c-1.7,0-2.9,0-3.4-0.1
			c-0.5-0.1-0.9-0.2-1.1-0.5c-0.2-0.3-0.4-0.7-0.4-1.2v-1.1h-6.4v-6.1h14.4v6.1h-6.3v0.6c0,0.3,0.1,0.4,0.3,0.5s1.4,0.1,3.5,0.1
			c0.9,0,1.5,0,1.7,0c0.2,0,0.4-0.1,0.5-0.3s0.2-0.4,0.2-0.6L68.8,36.9z M58.6,29.1c-1.2,0.2-2.7,0.4-4.3,0.4l-0.3-1.2
			c1.3,0,2.8-0.1,4.3-0.4L58.6,29.1z M58.5,26.5l-0.3,1.1c-1.3-0.2-2.7-0.3-4.1-0.3l0.4-1.1C55.6,26.2,56.9,26.3,58.5,26.5z
			 M59.1,32.5v-1.1h-4.7v1.1H59.1z M59.1,34.9v-1.1h-4.7v1.1H59.1z M65.4,32.5v-1.1h-4.6v1.1H65.4z M65.4,34.9v-1.1h-4.6v1.1H65.4z
			 M66.2,27.1c-1.4,0.2-2.8,0.4-4.4,0.4l-0.4-1.1c1.2,0,2.6-0.1,4.2-0.4L66.2,27.1z M66.1,28.5l-0.3,1.1c-1.6-0.3-3.1-0.4-4.4-0.5
			l0.4-1.1C62.9,28,64.4,28.2,66.1,28.5z"/>
		<path class="st5" d="M90.3,37.3c0,0.5-0.2,1-0.5,1.4c-0.3,0.4-1.1,0.6-2.4,0.6c-0.5,0-1,0-1.5-0.1l-0.7-1.9c1,0,1.8,0,2.5,0
			c0.2,0,0.4-0.1,0.6-0.2c0.2-0.1,0.2-0.3,0.2-0.5v-9.7h-4.6c0.5,2.5,1.9,4.9,4.2,7.1l-1.1,1.4c-2.1-1.8-3.6-4-4.5-6.7
			c-0.8,2.3-2.3,4.6-4.5,6.8L77,34.1c2.5-2.5,4.1-4.9,4.7-7.1h-5.1v12.2h-1.8V25.2h7.1c-0.1-0.6-0.1-1.1-0.1-1.7h-1.9v-1.8h3.5
			c0,0.6,0.1,1.7,0.3,3.4h6.7V37.3z"/>
		<path class="st5" d="M113.7,32.7l-0.9,1.5c-0.3-0.1-0.8-0.3-1.6-0.6v5.7h-1.8v-0.9h-9v0.8h-1.8v-5.6c-0.4,0.2-0.9,0.4-1.5,0.7
			l-1-1.5c3.6-1.4,6.5-3.3,8.6-5.5l1.6,0.7c0,0-0.1,0.1-0.1,0.2c-0.1,0.1-0.1,0.1-0.1,0.2C108.1,30.1,110.7,31.6,113.7,32.7z
			 M103.6,26.4c-1.3,1.3-3.2,2.6-5.8,3.9l-1.1-1.4c2.3-1,4.1-2.2,5.5-3.6L103.6,26.4z M113,27.2l-1.7,0V25H98.4v2.1h-1.7v-3.8h7.4
			c-0.2-0.5-0.4-0.9-0.7-1.4l1.9-0.4c0.4,0.9,0.7,1.5,0.8,1.8h7V27.2z M109.4,32.7c-1.9-1-3.4-2.1-4.6-3.2c-1.4,1.3-2.9,2.4-4.5,3.2
			H109.4z M109.4,36.7v-2.4h-9v2.4H109.4z M113.1,29.3l-1.1,1.3c-1.9-1.6-3.8-2.9-5.7-3.9l1.1-1.3C109.5,26.5,111.4,27.8,113.1,29.3
			z"/>
	</g>
	<g>
		<g>
			<path class="st6" d="M46.5,98.6H32.2v6c0,3.3-0.5,6.1-1.6,8.2l-1.5-1.1c0.8-1.8,1.2-4.3,1.2-7.4v-7.3h7.2
				c-0.1-0.2-0.3-0.7-0.6-1.4l1.8-0.5c0.2,0.5,0.5,1.1,0.8,1.9h6.8L46.5,98.6z M46.7,108.5c-0.2,1.6-0.5,2.7-0.9,3.4
				c-0.4,0.7-0.9,1-1.6,1c-0.7,0-1.5-0.7-2.4-2s-1.6-3.2-2.1-5.7h-4.2v3.2c1.5-0.3,2.9-0.6,4-1.1l0.2,1.6c-1.7,0.6-3.7,1-6,1.4
				l-0.4-1.3c0.3-0.2,0.5-0.5,0.5-0.9v-8c4.4-0.1,7.9-0.4,10.5-1.1l1,1.4c-0.8,0.2-2.2,0.5-4.3,0.8l0.3,2.3H46v1.6h-4.5
				c0.4,1.6,0.8,3,1.4,4.1c0.6,1.1,1,1.7,1.3,1.7c0.4,0,0.6-1.1,0.7-3.3L46.7,108.5z M41.1,112.5h-7.4v-1.6h7.4V112.5z M39.5,103.6
				l-0.2-2.1c-1.6,0.1-2.8,0.2-3.7,0.2v1.9H39.5z"/>
			<path class="st6" d="M68.8,98.2H54.9v6.5c0,3.3-0.7,6-2.1,8.1l-1.5-1c1.2-1.8,1.8-4.2,1.8-7.1v-8.1h6.5c-0.3-0.4-0.5-0.8-0.8-1
				l1.9-0.4c0.3,0.4,0.5,0.9,0.8,1.5h7.1V98.2z M69,111.1l-0.5,1.7c-2.4-0.1-4.6-0.6-6.7-1.5c-1.7,0.7-3.8,1.2-6.1,1.5l-0.8-1.7
				c2-0.1,3.7-0.4,5-0.9c-1.2-0.7-2-1.7-2.7-3h-0.9v-1.6h10.5v1.6c-0.7,1.1-1.7,2-3.1,3C65.1,110.7,66.9,111,69,111.1z M68.7,101.6
				h-2.9v2.9H58v-2.9h-2.4V100H58v-1.2h1.7v1.2H64v-1.2h1.7v1.2h2.9V101.6z M64.4,107.2h-5.3c0.5,0.8,1.4,1.6,2.5,2.2
				C62.9,108.7,63.8,108,64.4,107.2z M64,103v-1.4h-4.2v1.4H64z"/>
		</g>
	</g>
	<g>
		<g>
			<path class="st6" d="M31.4,142.8c-0.2,1.5-0.5,3.1-1,4.6l-1.5-0.7c0.5-1.7,0.8-3.1,1-4.2L31.4,142.8z M36,133.1
				c-1.2,2.6-2.7,4.9-4.4,6.8c0.8-0.1,1.5-0.3,2.3-0.5c-0.1-0.4-0.2-0.7-0.3-1l1.4-0.5c0.5,1.1,0.8,2.2,1,3.4l-1.4,0.5
				c-0.1-0.3-0.1-0.6-0.2-0.9c-1.8,0.4-3.4,0.8-4.9,1l-0.4-1.5c1.1-1,2.2-2.4,3.3-4.2c-1,0.2-1.9,0.3-2.8,0.5l-0.4-1.5
				c1.2-1.4,2.2-3.2,3-5.4l1.7,0.6c-0.7,1.8-1.5,3.3-2.5,4.5c0.5-0.1,1.2-0.2,2.1-0.4c0.3-0.4,0.6-1.1,1-2.1L36,133.1z M33.8,146.4
				l-1.5,0.4c0-0.9-0.1-2.2-0.4-3.9l1.4-0.3C33.6,143.9,33.8,145.2,33.8,146.4z M35.8,144.7l-1.4,0.3c-0.2-1.1-0.3-1.9-0.5-2.5
				l1.3-0.3C35.5,142.9,35.7,143.7,35.8,144.7z M39.5,139.3L38,140c-0.6-1.2-1.4-2.5-2.4-3.9c0.9-1.3,1.6-2.4,2.1-3.5l1.6,0.6
				c-0.3,0.8-0.9,1.8-1.8,3C38.5,137.6,39.2,138.7,39.5,139.3z M46.5,146.9H35.8v-1.7h4.5v-3.1h-3.9v-1.7h9.5v1.7h-3.8v3.1h4.4
				V146.9z M46.2,131.9H36.1v-1.7h10.1V131.9z M42.9,139.3l-1.6,0.7c-0.7-1.4-1.5-2.8-2.4-4c0.8-1,1.5-2.1,2.1-3.5l1.6,0.6
				c-0.6,1.1-1.2,2.1-1.7,2.9C42,137.6,42.6,138.7,42.9,139.3z M46.3,139.3l-1.6,0.7c-0.6-1.3-1.4-2.6-2.3-3.9
				c0.9-1.3,1.6-2.5,2.1-3.6l1.5,0.7c-0.3,0.7-0.8,1.7-1.6,2.9C45.2,137.3,45.8,138.3,46.3,139.3z"/>
			<path class="st6" d="M68.3,137.3h-1.8v-2.9H53.7v2.9h-1.8v-4.5h7.4v-2.9H61v2.9h7.3V137.3z M67.2,144.6c0,0.6-0.1,1.1-0.4,1.5
				c-0.3,0.4-1,0.5-2,0.5c-0.3,0-0.7,0-1.3,0l-0.5-1.7H65c0.3,0,0.5-0.2,0.5-0.5v-1.6H61v4.6h-1.8v-4.6h-4.4v3.9h-1.8v-5.4h6.2v-1.3
				h-4.3v-4.5h10.4v4.5H61v1.3h6.1V144.6z M57.4,132l-1.7,0.5c-0.5-0.6-1.1-1.3-1.9-1.9l1.7-0.7C56.1,130.5,56.7,131.2,57.4,132z
				 M63.5,138.5v-1.6h-6.8v1.6H63.5z M66.8,130.7c-0.7,0.7-1.4,1.3-2.2,1.9l-1.7-0.8c1.1-0.8,1.8-1.5,2.2-1.9L66.8,130.7z"/>
			<path class="st6" d="M91.2,132.8H77.3v6.5c0,3.3-0.7,6-2.1,8.1l-1.5-1c1.2-1.8,1.8-4.2,1.8-7.1v-8.1h6.5c-0.3-0.4-0.5-0.8-0.8-1
				l1.9-0.4c0.3,0.4,0.5,0.9,0.8,1.5h7.1V132.8z M91.3,145.7l-0.5,1.7c-2.4-0.1-4.6-0.6-6.7-1.5c-1.7,0.7-3.8,1.2-6.1,1.5l-0.8-1.7
				c2-0.1,3.7-0.4,5-0.9c-1.2-0.7-2-1.7-2.7-3h-0.9v-1.6h10.5v1.6c-0.7,1.1-1.7,2-3.1,3C87.5,145.3,89.3,145.6,91.3,145.7z
				 M91,136.2h-2.9v2.9h-7.7v-2.9H78v-1.6h2.4v-1.2h1.7v1.2h4.2v-1.2h1.7v1.2H91V136.2z M86.8,141.9h-5.3c0.5,0.8,1.4,1.6,2.5,2.2
				C85.3,143.3,86.2,142.6,86.8,141.9z M86.3,137.6v-1.4h-4.2v1.4H86.3z"/>
			<path class="st6" d="M106.8,143h-2.4c-0.5,0.7-0.9,1.3-1.3,1.6c1.1,0.4,2,0.8,2.8,1.2l-1,1.3c-1.3-0.6-2.4-1.1-3.1-1.3
				c-1.8,0.9-3.4,1.5-5,1.7l-0.7-1.5c1.4-0.2,2.6-0.5,3.7-0.9c-1-0.4-1.9-0.6-2.6-0.8c0.6-0.7,1-1.1,1.1-1.3h-2.1v-1.4h3.2l0.7-1.1
				h-3v-3.3h3.5v-0.9h-3.5v-2.2h-0.9v-1.3h0.9v-2.1h3.5v-0.8h1.7v0.8h3.5v2.1h1v1.3h-1v2.2h-3.5v0.9h3.5v3.3h-3.6l-0.7,1.1h1.8
				c0.1-0.2,0.2-0.4,0.3-0.7l1.5,0.4c0,0.1,0,0.2-0.1,0.3h1.8V143z M100.6,132.8V132h-1.9v0.9H100.6z M100.6,135.1v-1h-1.9v1H100.6z
				 M100.6,139.2v-0.8h-1.9v0.8H100.6z M102.4,143h-2c0,0-0.2,0.2-0.5,0.6l1.5,0.5C101.9,143.7,102.2,143.4,102.4,143z M104.2,132.8
				V132h-1.9v0.9H104.2z M104.2,135.1v-0.9h-1.9v0.9H104.2z M104.2,139.2v-0.8h-1.9v0.8H104.2z M113.8,146l-0.9,1.5
				c-1.4-1-2.4-2-2.9-2.9c-0.8,1.1-1.7,2.1-2.7,2.9l-1.2-1.3c1.3-1,2.2-2.1,2.9-3.2c-0.7-1.2-1.2-2.5-1.5-4l1.5-0.8
				c0.3,1.2,0.6,2.1,0.8,2.8c0.5-1.6,0.8-3.8,0.9-6.5h-1.5c-0.6,1.8-1.2,3.3-1.9,4.2l-1.1-1.4c1.1-2,1.8-4.5,2.3-7.4l1.7,0.2
				c-0.1,0.6-0.3,1.5-0.5,2.7h3.8v1.7h-1.1c-0.1,3.6-0.6,6.5-1.5,8.6C111.7,144.2,112.7,145.2,113.8,146z"/>
		</g>
	</g>
	<g>
		<g>
			<path class="st6" d="M45.5,76.1c0,0.5-0.2,1-0.6,1.4c-0.4,0.4-1.1,0.6-2.1,0.6c-0.4,0-0.9,0-1.4,0l-0.5-1.8l2.2,0
				c0.2,0,0.3-0.1,0.4-0.2c0.1-0.1,0.2-0.3,0.2-0.4v-3.6h-4.9v5.6h-1.7v-5.6h-4.8c-0.2,2.6-0.8,4.6-1.8,6.1l-1.6-1
				c0.6-0.8,1-1.9,1.3-3.3c0.3-1.4,0.5-2.7,0.5-3.9v-8.8h14.8V76.1z M37.2,65.8v-2.9h-4.7v2.9H37.2z M37.2,70.4v-3h-4.7v3H37.2z
				 M43.8,65.8v-2.9h-4.9v2.9H43.8z M43.8,70.4v-3h-4.9v3H43.8z"/>
			<path class="st6" d="M68.5,67.9h-1.7v-3.2h-6v3.8h-1.7v-3.8h-5.6v3.2h-1.7v-4.6h7.3v-0.7h-6.6V61h15.1v1.5h-6.8v0.7h7.7V67.9z
				 M68.8,75.9c-0.1,0.6-0.3,1.1-0.5,1.5c-0.2,0.3-0.5,0.5-0.8,0.6c-0.3,0.1-1.5,0.1-3.6,0.1c-1.7,0-2.9,0-3.4-0.1
				c-0.5-0.1-0.9-0.2-1.1-0.5c-0.2-0.3-0.4-0.7-0.4-1.2v-1.1h-6.4v-6.1h14.4v6.1h-6.3v0.6c0,0.3,0.1,0.4,0.3,0.5s1.4,0.1,3.5,0.1
				c0.9,0,1.5,0,1.7,0c0.2,0,0.4-0.1,0.5-0.3s0.2-0.4,0.2-0.6L68.8,75.9z M58.6,68c-1.2,0.2-2.7,0.4-4.3,0.4l-0.3-1.2
				c1.3,0,2.8-0.1,4.3-0.4L58.6,68z M58.5,65.4l-0.3,1.1c-1.3-0.2-2.7-0.3-4.1-0.3l0.4-1.1C55.6,65.1,56.9,65.2,58.5,65.4z
				 M59.1,71.4v-1.1h-4.7v1.1H59.1z M59.1,73.8v-1.1h-4.7v1.1H59.1z M65.4,71.4v-1.1h-4.6v1.1H65.4z M65.4,73.8v-1.1h-4.6v1.1H65.4z
				 M66.2,66.1c-1.4,0.2-2.8,0.4-4.4,0.4l-0.4-1.1c1.2,0,2.6-0.1,4.2-0.4L66.2,66.1z M66.1,67.4l-0.3,1.1c-1.6-0.3-3.1-0.4-4.4-0.5
				l0.4-1.1C62.9,67,64.4,67.1,66.1,67.4z"/>
			<path class="st6" d="M80.2,70.6L79,72.1c-0.3-0.7-0.7-1.3-1.1-1.8v7.9h-1.7v-7.1c-0.5,1.2-1,2.2-1.5,3.1l-1.1-1.7
				c1.3-1.9,2.2-3.6,2.6-5.2h-2.5v-1.6h2.5v-2.5c-0.8,0.2-1.4,0.3-1.8,0.3l-0.6-1.6c2.1-0.2,3.8-0.6,5.2-1.2l0.9,1.5
				c-0.8,0.3-1.5,0.5-1.9,0.6v3h1.7v1.6H78v0.3C78.7,68.4,79.5,69.5,80.2,70.6z M91.2,77.8H79.7v-1.6h5V75h-4.4v-1.4h4.4v-1.1h-4
				v-6.3h4v-1.1H80v-1.4h4.7v-1c-1.1,0.1-2.4,0.1-3.9,0.2l-0.5-1.4c3.3,0.1,6.5-0.2,9.5-0.9l0.7,1.4c-1.3,0.3-2.7,0.5-4.2,0.7v1.2
				h4.7v1.4h-4.7v1.1h3.9v6.3h-3.9v1.1h4.4V75h-4.4v1.2h4.9V77.8z M84.7,68.7v-1.1h-2.3v1.1H84.7z M84.7,71.1V70h-2.3v1.1H84.7z
				 M88.7,68.7v-1.1h-2.3v1.1H88.7z M88.7,71.1V70h-2.3v1.1H88.7z"/>
			<path class="st6" d="M99.3,67c-0.5,1.2-1.1,2.3-1.8,3.2l-1.4-0.9c0.7-0.9,1.3-1.9,1.8-2.9L99.3,67z M104.9,73.2h-3.7
				c0,0.1,0,0.2-0.1,0.4c1.2,0.6,2.3,1.4,3.2,2.3l-1.1,1.4c-0.8-0.7-1.7-1.4-2.7-2.1c-0.9,1.4-2.1,2.4-3.6,3l-1-1.4
				c2-0.9,3.2-2,3.4-3.5h-3.3v-1.5h3.5c0-0.3,0.1-0.8,0.1-1.5h1.7l0,1.5h3.5V73.2z M104.9,66h-3.4v3.7h-1.7V66h-3.5v-1.5h3.5v-3.8
				h1.7v3.8h3.4V66z M99.3,63.5l-1.6,0.6c-0.2-0.7-0.6-1.5-1.1-2.5l1.5-0.6C98.6,61.7,98.9,62.5,99.3,63.5z M104.1,70.6l-1.1,1
				c-0.5-0.4-0.9-0.8-1.3-1l1.1-0.9C103.3,69.9,103.7,70.2,104.1,70.6z M104.7,61.6c-0.3,0.9-0.6,1.7-1.1,2.5l-1.5-0.6
				c0.4-0.7,0.8-1.5,1.1-2.4L104.7,61.6z M105.1,69l-1.4,0.8c-0.4-0.9-1-1.8-1.6-2.6l1.5-0.7C104.3,67.4,104.8,68.2,105.1,69z
				 M113.6,62.7h-3.3c-0.1,0.4-0.2,0.9-0.5,1.7h3.3v10.2h-5.2l1,0.8c-0.9,1.1-2,2.1-3.3,2.9l-1.2-1.4c1.2-0.7,2.2-1.5,2.9-2.4h-1.7
				V64.4h2.3c0.2-0.6,0.4-1.1,0.5-1.7H105v-1.6h8.6V62.7z M111.3,67.2V66h-4v1.2H111.3z M111.3,70v-1.4h-4V70H111.3z M111.3,73v-1.5
				h-4V73H111.3z M113.7,77l-1.1,1.3c-1.1-0.9-2.1-1.6-3-2.2l1.1-1.3C111.7,75.4,112.7,76.2,113.7,77z"/>
		</g>
	</g>
	<g>
		<path class="st6" d="M312.9,108H311v3.7h-2.2V108h-6.9v-1.5l6.6-9.9h2.5v9.6h1.9V108z M308.8,106.3v-5.9c0-0.4,0-0.9,0-1.5h0
			c-0.2,0.4-0.4,0.8-0.6,1.2l-4.1,6.3H308.8z"/>
		<path class="st6" d="M316.8,104.5c0-2.6,0.5-4.7,1.4-6c0.9-1.4,2.2-2.1,3.9-2.1c3.3,0,4.9,2.6,4.9,7.7c0,2.5-0.4,4.5-1.3,5.8
			c-0.9,1.4-2.2,2-3.9,2c-1.6,0-2.9-0.6-3.7-1.9C317.2,108.8,316.8,106.9,316.8,104.5z M319.1,104.4c0,3.8,0.9,5.8,2.8,5.8
			c1.8,0,2.8-2,2.8-5.9c0-4-0.9-6-2.7-6C320.1,98.2,319.1,100.3,319.1,104.4z"/>
		<path class="st6" d="M349,98.2h-13.9v6.5c0,3.3-0.7,6-2.1,8.1l-1.5-1c1.2-1.8,1.8-4.2,1.8-7.1v-8.1h6.5c-0.3-0.4-0.5-0.8-0.8-1
			l1.9-0.4c0.3,0.4,0.5,0.9,0.8,1.5h7.1V98.2z M349.1,111.1l-0.5,1.7c-2.4-0.1-4.6-0.6-6.7-1.5c-1.7,0.7-3.8,1.2-6.1,1.5l-0.8-1.7
			c2-0.1,3.7-0.4,5-0.9c-1.2-0.7-2-1.7-2.7-3h-0.9v-1.6h10.5v1.6c-0.7,1.1-1.7,2-3.1,3C345.3,110.7,347.1,111,349.1,111.1z
			 M348.8,101.6h-2.9v2.9h-7.7v-2.9h-2.4V100h2.4v-1.2h1.7v1.2h4.2v-1.2h1.7v1.2h2.9V101.6z M344.6,107.2h-5.3
			c0.5,0.8,1.4,1.6,2.5,2.2C343,108.7,344,108,344.6,107.2z M344.1,103v-1.4h-4.2v1.4H344.1z"/>
	</g>
	<g>
		<path class="st6" d="M298.6,142.6h-1.9v3.7h-2.2v-3.7h-6.9v-1.5l6.6-9.9h2.5v9.6h1.9V142.6z M294.5,140.9V135c0-0.4,0-0.9,0-1.5h0
			c-0.2,0.4-0.4,0.8-0.6,1.2l-4.1,6.3H294.5z"/>
		<path class="st6" d="M303.1,143.6c1,0.8,2.2,1.2,3.5,1.2c1,0,1.7-0.2,2.3-0.7c0.6-0.5,0.9-1.1,0.9-1.9c0-1.8-1.3-2.7-3.9-2.7h-1.3
			v-1.8h1.2c2.3,0,3.5-0.8,3.5-2.5c0-1.5-0.9-2.3-2.6-2.3c-1,0-2,0.4-3,1.1v-2c1-0.6,2.2-0.8,3.5-0.8c1.3,0,2.4,0.3,3.2,1
			c0.8,0.7,1.2,1.5,1.2,2.7c0,2-1,3.2-3,3.8v0c1.1,0.1,1.9,0.5,2.6,1.1c0.6,0.7,1,1.5,1,2.4c0,1.4-0.5,2.5-1.5,3.3
			c-1,0.8-2.3,1.2-4,1.2c-1.5,0-2.7-0.3-3.5-0.8V143.6z"/>
		<path class="st6" d="M326.4,146.3H317v-1.9l4.4-4.3c1-1,1.7-1.8,2.2-2.5c0.5-0.7,0.7-1.5,0.7-2.3c0-1.7-0.9-2.5-2.6-2.5
			c-1.3,0-2.6,0.6-3.8,1.7v-2.2c1.2-0.9,2.6-1.3,4.2-1.3c1.4,0,2.5,0.4,3.3,1.1c0.8,0.7,1.2,1.7,1.2,3c0,0.9-0.3,1.8-0.8,2.8
			c-0.5,0.9-1.4,2-2.7,3.2l-3.4,3.2v0h6.7V146.3z"/>
		<path class="st6" d="M349,132.8h-13.9v6.5c0,3.3-0.7,6-2.1,8.1l-1.5-1c1.2-1.8,1.8-4.2,1.8-7.1v-8.1h6.5c-0.3-0.4-0.5-0.8-0.8-1
			l1.9-0.4c0.3,0.4,0.5,0.9,0.8,1.5h7.1V132.8z M349.1,145.7l-0.5,1.7c-2.4-0.1-4.6-0.6-6.7-1.5c-1.7,0.7-3.8,1.2-6.1,1.5l-0.8-1.7
			c2-0.1,3.7-0.4,5-0.9c-1.2-0.7-2-1.7-2.7-3h-0.9v-1.6h10.5v1.6c-0.7,1.1-1.7,2-3.1,3C345.3,145.3,347,145.6,349.1,145.7z
			 M348.8,136.2h-2.9v2.9h-7.7v-2.9h-2.4v-1.6h2.4v-1.2h1.7v1.2h4.2v-1.2h1.7v1.2h2.9V136.2z M344.6,141.9h-5.3
			c0.5,0.8,1.4,1.6,2.5,2.2C343,143.3,344,142.6,344.6,141.9z M344.1,137.6v-1.4h-4.2v1.4H344.1z"/>
	</g>
	<g>
		<path class="st6" d="M223.6,68.2l0,1.7h-9.2c-0.7,0.8-1.4,1.4-1.9,1.8V76c1.5-0.3,2.8-0.6,4.1-1v1.9c-2,0.6-4,1-6,1.3l-0.6-1.6
			c0.4-0.3,0.6-0.6,0.6-1.1v-2.3c-1.4,0.9-3,1.7-4.5,2.3l-1-1.8c2.8-0.9,5.1-2.1,6.7-3.8h-6.4v-1.7h8.3v-1.4h-6.8v-1.6h6.8v-1.4
			h-7.7v-1.7h7.7v-1.4h1.9v1.4h7.6v1.7h-7.6v1.4h6.7v1.6h-6.7v1.4H223.6z M223.8,76.6l-1.1,1.7c-2.2-0.7-3.9-1.7-5.1-2.8
			c-1.2-1.2-2.2-2.7-2.9-4.7l1.9-0.3c0.4,1.1,0.9,1.9,1.4,2.5c1.2-0.7,2.3-1.5,3.2-2.5l1.7,1c-1,1.1-2.2,2-3.5,2.9
			C220.4,75.4,221.9,76.1,223.8,76.6z"/>
		<path class="st6" d="M231,69l-1.5,0.6c-0.1-1.6-0.4-3.2-0.8-4.7l1.4-0.6C230.5,65.9,230.9,67.5,231,69z M235.6,75.1l-1.5,1.1
			c-0.5-0.9-1-1.8-1.6-2.7c-0.5,1.7-1.3,3.2-2.6,4.6l-1.3-1.5c1.7-1.8,2.6-4.4,2.6-7.8v-8.1h1.8v4.6c0.3-0.5,0.6-1,0.8-1.5l1.3,1.3
			c-0.6,1.1-1.4,2.1-2.2,2.9c0,1.3-0.1,2.4-0.2,3.3C234.1,72.7,234.9,74,235.6,75.1z M247.3,67.4l-1,1.4c-1-0.6-1.9-1.4-2.7-2.2v1.2
			h-5.8v-1c-0.9,1-1.8,1.7-2.6,2.1l-1.1-1.3c0.9-0.5,1.7-1.2,2.3-1.9c-0.5-0.6-1-1.1-1.4-1.5l1.2-1.2c0.5,0.4,0.9,0.8,1.3,1.3
			c0.4-0.5,0.7-1.1,0.9-1.8h-3.2v-1.6h5.1v1.6c-0.5,1.4-1.2,2.7-2,3.7h5.1c-1.1-1.4-1.9-3.1-2.4-5.2l1.6-0.4
			c0.1,0.4,0.2,0.7,0.3,1.2c0.5-0.4,0.9-0.7,1.1-0.9l1.2,1.1c-0.5,0.4-1,0.9-1.7,1.3c0.1,0.3,0.2,0.5,0.3,0.6
			c0.6-0.4,1.2-0.9,1.8-1.5l1.2,1.1c-0.5,0.6-1.2,1.1-2.1,1.7C245.3,65.8,246.1,66.5,247.3,67.4z M247.1,77.8h-12v-1.6h2.9
			c-0.1-0.5-0.4-1.2-0.8-2l1.4-0.7h-2.2v-4.6h8.9v4.6h-2.1l1.3,0.6c-0.3,0.7-0.5,1.4-0.9,2.1h3.5V77.8z M243.5,71.9v-1.5h-5.2v1.5
			H243.5z M242.7,73.5h-3.8c0.4,0.9,0.8,1.8,1.1,2.7h1.7C242,75.5,242.4,74.6,242.7,73.5z"/>
		<path class="st6" d="M268,70c0,4.1-1.8,6.9-5.4,8.3l-1.1-1.6c2.4-0.9,3.8-2.2,4.3-3.9c-2.2,0.6-3.9,1-5.2,1.2l-0.6-1.7
			c2.6-0.5,4.7-1,6.1-1.5v-1.7h-5.4v-1.7h5.4v-2.6h-5.7v-1.7h5.7v-2.5h1.9V70z M278.3,73.6h-6V78h-1.9V60.7h1.9v2.5h5.6v1.7h-5.6
			v2.6h5.3v1.7h-5.3v2.7h6V73.6z"/>
		<path class="st6" d="M301.5,69.9h-1.9v-1.5h-14v1.5h-1.8v-3h17.7V69.9z M292.3,62.2c-1,0.5-2.1,0.9-3.3,1.3l-0.1,0.2
			c1.2,0.5,2.3,1,3.3,1.5l-0.9,1.2c-0.9-0.5-1.9-1-3.1-1.5c-0.8,0.8-1.9,1.3-3.3,1.7l-1-1.5c1.4-0.3,2.4-0.7,2.9-1.2
			c0.5-0.6,0.8-1.7,0.8-3.3h1.7c0,0.5-0.1,0.9-0.1,1.3c0.8-0.2,1.4-0.5,2.1-0.9L292.3,62.2z M287,63.2l-1.4,0.7
			c-0.4-0.8-0.9-1.5-1.5-2.2l1.4-0.7C286.1,61.7,286.6,62.5,287,63.2z M300.5,78.1h-1.8v-0.6h-12.1v0.6h-1.8v-4.7h6.1
			c0.2-0.3,0.3-0.5,0.5-0.9h-4.8v-3.4h11.9v3.4h-5c-0.1,0.3-0.3,0.6-0.5,0.9h7.5V78.1z M298.7,76.2v-1.4h-12.1v1.4H298.7z
			 M296.7,71.3v-0.8h-8.4v0.8H296.7z M301.6,65.4l-1,1.3c-1-0.5-2.2-1.1-3.7-1.6c-0.9,0.8-2,1.3-3.5,1.6l-0.7-1.5
			c1.5-0.2,2.5-0.6,3-1.2c0.5-0.5,0.8-1.6,0.8-3.3l1.7,0c0,0.3,0,0.7-0.1,1.3c0.7-0.2,1.5-0.6,2.3-1.1l0.9,1.2
			c-1.4,0.7-2.5,1.2-3.5,1.5l-0.1,0.2C299.1,64.3,300.5,64.8,301.6,65.4z M295.6,63.4l-1.5,0.6c-0.3-0.8-0.7-1.5-1.3-2.3l1.5-0.6
			C294.9,61.8,295.3,62.6,295.6,63.4z"/>
		<path class="st6" d="M325.3,73.3h-8.2v4.8h-1.9v-4.8h-8.2v-1.5h8.2v-1h-7.2v-1.5h7.2v-1h-7.7v-1.5h4.8c-0.2-0.3-0.5-0.6-0.7-0.9
			l1.4-0.7h-6v-1.5h6.4v-3h1.8v3h1.9v-3h1.8v3h6.3v1.5h-5.8l1.2,0.6c-0.3,0.4-0.5,0.8-0.7,1h4.8v1.5h-7.8v1h7.3v1.5h-7.3v1h8.2V73.3
			z M313.7,75c-1.9,1.3-3.7,2.3-5.4,3l-1.2-1.4c1.7-0.6,3.4-1.5,5.2-2.8L313.7,75z M311.9,62.7l-1.4,1c-0.6-0.7-1.2-1.3-1.9-1.8
			l1.4-1C310.8,61.4,311.4,62,311.9,62.7z M318.9,65.3h-5.5c0.4,0.5,0.8,1,1.2,1.6h3.2C318.2,66.3,318.6,65.8,318.9,65.3z
			 M325.7,76.5l-1,1.4c-2-1.1-4-2-6-2.7l1.1-1.4C321.7,74.5,323.7,75.4,325.7,76.5z M323.7,61.6c-0.4,0.5-1,1.2-1.8,1.9l-1.7-0.9
			c0.6-0.5,1.3-1.1,1.8-1.8L323.7,61.6z"/>
		<path class="st6" d="M347.8,76.1c0,0.5-0.2,1-0.6,1.4c-0.4,0.4-1.1,0.6-2.2,0.6c-0.5,0-1,0-1.5,0l-0.6-1.8l2.3,0
			c0.2,0,0.3-0.1,0.4-0.2c0.1-0.1,0.2-0.3,0.2-0.4v-3.6h-5.2v5.6H339v-5.6H334c-0.2,2.6-0.9,4.6-1.9,6.1l-1.7-1
			c0.6-0.8,1-1.9,1.4-3.3c0.3-1.4,0.5-2.7,0.5-3.9v-8.8h15.5V76.1z M339,65.8v-2.9h-4.9v2.9H339z M339,70.4v-3h-4.9v3H339z
			 M346,65.8v-2.9h-5.2v2.9H346z M346,70.4v-3h-5.2v3H346z"/>
	</g>
	<g>
		<path class="st6" d="M36.5,165c-1.3,3.5-3.4,6.5-6.4,8.9l-1.1-1.5c2.7-2,4.6-4.7,5.8-7.9L36.5,165z M45.4,181l-1.6,1.1
			c-0.4-0.9-0.7-1.6-1.1-2.2c-3.1,0.7-6.8,1.4-11.3,2l-0.5-1.5c1.7-1.2,3.7-4.6,6-10.2l1.8,0.5c-1.6,3.8-3.3,6.8-5,9.1
			c3-0.3,5.7-0.8,8.1-1.4c-0.4-0.7-1.1-1.7-2.1-3l1.5-1C42.9,176.4,44.3,178.6,45.4,181z M46.7,172.5l-1.1,1.6
			c-2.5-1.7-4.3-4.3-5.5-7.6h-1.6v-1.7h2.9C42.4,168.1,44.2,170.7,46.7,172.5z"/>
		<path class="st6" d="M68.8,176H51.5v-1.8h4.3v-4.5h-3.6V168h3.6v-3.4h1.8v3.4h5.1v-3.4h1.8v3.4h3.6v1.8h-3.6v4.5h4.3V176z
			 M58.6,177.6c-1.7,1.7-3.7,3.2-6,4.4l-1.1-1.5c2.4-1.3,4.4-2.7,5.8-4.2L58.6,177.6z M62.7,174.3v-4.5h-5.1v4.5H62.7z M68.8,180.8
			l-1.4,1.2c-1.4-1.5-3.3-3-5.5-4.4l1.4-1.3C65.3,177.7,67.1,179.2,68.8,180.8z"/>
		<path class="st6" d="M90.2,179.9c0,0.5-0.2,1-0.6,1.4s-1.1,0.6-2.1,0.6c-0.4,0-0.9,0-1.4,0l-0.5-1.8l2.2,0c0.2,0,0.3-0.1,0.4-0.2
			c0.1-0.1,0.2-0.3,0.2-0.4v-3.6h-4.9v5.6h-1.7v-5.6h-4.8c-0.2,2.6-0.8,4.6-1.8,6.1l-1.6-1c0.6-0.8,1-1.9,1.3-3.3
			c0.3-1.4,0.5-2.7,0.5-3.9V165h14.8V179.9z M81.9,169.6v-2.9h-4.7v2.9H81.9z M81.9,174.2v-3h-4.7v3H81.9z M88.5,169.6v-2.9h-4.9
			v2.9H88.5z M88.5,174.2v-3h-4.9v3H88.5z"/>
		<path class="st6" d="M113.2,171.7h-1.7v-3.2h-6v3.8h-1.7v-3.8h-5.6v3.2h-1.7v-4.6h7.3v-0.7h-6.6v-1.5h15.1v1.5h-6.8v0.7h7.7V171.7
			z M113.6,179.7c-0.1,0.6-0.3,1.1-0.5,1.5c-0.2,0.3-0.5,0.5-0.8,0.6c-0.3,0.1-1.5,0.1-3.6,0.1c-1.7,0-2.9,0-3.4-0.1
			c-0.5-0.1-0.9-0.2-1.1-0.5c-0.2-0.3-0.4-0.7-0.4-1.2V179h-6.4v-6.1h14.4v6.1h-6.3v0.6c0,0.3,0.1,0.4,0.3,0.5
			c0.2,0.1,1.4,0.1,3.5,0.1c0.9,0,1.5,0,1.7,0s0.4-0.1,0.5-0.3c0.1-0.2,0.2-0.4,0.2-0.6L113.6,179.7z M103.3,171.8
			c-1.2,0.2-2.7,0.4-4.3,0.4l-0.3-1.2c1.3,0,2.8-0.1,4.3-0.4L103.3,171.8z M103.2,169.2l-0.3,1.1c-1.3-0.2-2.7-0.3-4.1-0.3l0.4-1.1
			C100.3,168.9,101.7,169,103.2,169.2z M103.8,175.2v-1.1h-4.7v1.1H103.8z M103.8,177.7v-1.1h-4.7v1.1H103.8z M110.2,175.2v-1.1
			h-4.6v1.1H110.2z M110.2,177.7v-1.1h-4.6v1.1H110.2z M110.9,169.9c-1.4,0.2-2.8,0.4-4.4,0.4l-0.4-1.1c1.2,0,2.6-0.1,4.2-0.4
			L110.9,169.9z M110.8,171.3l-0.3,1.1c-1.6-0.3-3.1-0.4-4.4-0.5l0.4-1.1C107.7,170.8,109.1,171,110.8,171.3z"/>
		<path class="st6" d="M125.7,165.1c-0.5,1.4-1.3,2.9-2.4,4.4s-2.4,2.8-3.6,3.7l-1.2-1.3c2.5-1.7,4.4-4.2,5.8-7.4L125.7,165.1z
			 M133,171.7c0,1.9-0.1,3.7-0.2,5.5c-0.2,1.8-0.3,2.9-0.5,3.4c-0.2,0.4-0.5,0.8-0.9,1c-0.4,0.2-0.9,0.4-1.4,0.4c-1.2,0-2.1,0-2.5,0
			l-0.6-1.8c0.9,0.1,1.9,0.1,2.9,0.1c0.2,0,0.5-0.1,0.7-0.2c0.2-0.1,0.4-1,0.5-2.5s0.2-2.9,0.2-4.1h-4.3c-0.5,3.9-2.7,6.8-6.4,8.6
			l-1.3-1.4c1.4-0.6,2.6-1.5,3.8-2.7c1.1-1.2,1.8-2.8,2-4.6h-3.2v-1.8H133z M136.1,171.8l-1.1,1.4c-2.5-2.1-4.1-4.4-5-6.8h-1.8v-1.7
			h3C131.9,167.6,133.6,169.9,136.1,171.8z"/>
		<path class="st6" d="M145.3,169.4h-1.2v2.9c0.3-0.2,0.6-0.4,0.9-0.6l0.2,1.8c-0.4,0.3-0.8,0.6-1.1,0.8v6.1c0,1-0.5,1.6-1.5,1.6
			c-0.5,0-0.9,0-1.1,0l-0.5-1.7l1.3,0c0.1,0,0.1,0,0.2-0.1c0.1-0.1,0.1-0.1,0.1-0.2v-4.7c-0.4,0.3-0.9,0.5-1.3,0.7l-0.5-1.6
			c0.8-0.4,1.4-0.7,1.8-1v-3.9H141v-1.6h1.5v-3.2h1.6v3.2h1.2V169.4z M152.3,167h-1.2v2.2h-1.6v0.9h2.2v3.7h-2.2
			c0,0.1,0,0.4-0.1,0.9h2.5v1.3h-2.6c0,0.3-0.1,0.6-0.2,0.9h3v1.4h-3.5c-0.8,1.5-1.8,2.7-3,3.7l-1.1-1.2c1.1-0.9,1.8-1.7,2.3-2.5
			H145V177h2.5c0.1-0.3,0.2-0.6,0.3-0.9h-2.2v-1.3h2.4c0.1-0.4,0.1-0.7,0.1-0.9h-2.2v-3.7h2.2v-0.9h-1.7V167h-1.1v-1.4h1.1v-1.1h1.6
			v1.1h1.7v-1.1h1.6v1.1h1.2V167z M148,172.5v-1.1h-0.9v1.1H148z M149.6,167.9V167h-1.7v0.9H149.6z M152.4,180.9l-1.2,1
			c-0.7-0.9-1.5-1.6-2.4-2.3l1.1-1C151,179.4,151.8,180.1,152.4,180.9z M150.4,172.5v-1.1h-0.9v1.1H150.4z M158.3,181h-4.1v0.9h-1.5
			v-11.4c-0.2,0.3-0.3,0.5-0.4,0.6l-0.7-1.8c0.9-1.5,1.5-3.1,1.9-4.9l1.5,0.4c-0.3,1.2-0.6,2.2-0.9,3h1.5c-0.1-0.8-0.2-1.7-0.4-2.8
			l1.5-0.2c0.2,1.1,0.4,2.2,0.4,3.1h1.1v1.6h-1.5v2.3h1.3v1.5h-1.3v2.3h1.3v1.5h-1.3v2.4h1.7V181z M155.1,171.7v-2.3h-0.9v2.3H155.1
			z M155.1,175.5v-2.3h-0.9v2.3H155.1z M155.1,179.4V177h-0.9v2.4H155.1z"/>
		<path class="st6" d="M180,166c-1.5,0.4-3.5,0.7-6,0.9c-2.5,0.2-4.8,0.4-6.7,0.3v2.1h12.5v6.9h-12.7c-0.4,2-1.2,3.9-2.6,5.7
			l-1.5-1.3c1.6-2,2.3-4.5,2.3-7.4v-7.8c3,0,5.6-0.1,7.6-0.2c2-0.1,4.1-0.5,6.2-1L180,166z M177.9,174.6V171h-10.7v3.5H177.9z"/>
		<path class="st6" d="M196.3,177.6h-2.4c-0.5,0.7-0.9,1.3-1.3,1.6c1.1,0.4,2,0.8,2.8,1.2l-1,1.3c-1.3-0.6-2.4-1.1-3.1-1.3
			c-1.8,0.9-3.4,1.5-5,1.7l-0.7-1.5c1.4-0.2,2.6-0.5,3.7-0.9c-1-0.4-1.9-0.6-2.6-0.8c0.6-0.7,1-1.1,1.1-1.3h-2.1v-1.4h3.2l0.7-1.1
			h-3v-3.3h3.5v-0.9h-3.5v-2.2h-0.9v-1.3h0.9v-2.1h3.5v-0.8h1.7v0.8h3.5v2.1h1v1.3h-1v2.2h-3.5v0.9h3.5v3.3h-3.6l-0.7,1.1h1.8
			c0.1-0.2,0.2-0.4,0.3-0.7l1.5,0.4c0,0.1,0,0.2-0.1,0.3h1.8V177.6z M190.1,167.5v-0.9h-1.9v0.9H190.1z M190.1,169.7v-1h-1.9v1
			H190.1z M190.1,173.9v-0.8h-1.9v0.8H190.1z M191.9,177.6h-2c0,0-0.2,0.2-0.5,0.6l1.5,0.5C191.4,178.3,191.7,178,191.9,177.6z
			 M193.6,167.5v-0.9h-1.9v0.9H193.6z M193.6,169.7v-0.9h-1.9v0.9H193.6z M193.7,173.9v-0.8h-1.9v0.8H193.7z M203.3,180.6l-0.9,1.5
			c-1.4-1-2.4-2-2.9-2.9c-0.8,1.1-1.7,2.1-2.7,2.9l-1.2-1.3c1.3-1,2.2-2.1,2.9-3.2c-0.7-1.2-1.2-2.5-1.5-4l1.5-0.8
			c0.3,1.2,0.6,2.1,0.8,2.8c0.5-1.6,0.8-3.8,0.9-6.5h-1.5c-0.6,1.8-1.2,3.3-1.9,4.2l-1.1-1.4c1.1-2,1.8-4.5,2.3-7.4l1.7,0.2
			c-0.1,0.6-0.3,1.5-0.5,2.7h3.8v1.7h-1.1c-0.1,3.6-0.6,6.5-1.5,8.6C201.2,178.8,202.2,179.8,203.3,180.6z"/>
	</g>
	<g>
		<path class="st6" d="M312.6,166.7l-5.8,14.2h-2.4l5.6-13.1h-7.4v-2h10V166.7z"/>
		<path class="st6" d="M326.9,166.7l-5.8,14.2h-2.4l5.6-13.1h-7.4v-2h10V166.7z"/>
		<path class="st6" d="M348.3,166c-1.5,0.4-3.5,0.7-6,0.9c-2.5,0.2-4.8,0.4-6.7,0.3v2.1h12.5v6.9h-12.7c-0.4,2-1.2,3.9-2.6,5.7
			l-1.5-1.3c1.6-2,2.3-4.5,2.3-7.4v-7.8c3,0,5.6-0.1,7.6-0.2c2-0.1,4.1-0.5,6.2-1L348.3,166z M346.2,174.6V171h-10.7v3.5H346.2z"/>
	</g>
</g>
</svg>
