<?xml version="1.0" encoding="utf-8"?>
<!-- Generator: Adobe Illustrator 16.0.0, SVG Export Plug-In . SVG Version: 6.00 Build 0)  -->
<!DOCTYPE svg PUBLIC "-//W3C//DTD SVG 1.1//EN" "http://www.w3.org/Graphics/SVG/1.1/DTD/svg11.dtd">
<svg version="1.1" id="圖層_1" xmlns="http://www.w3.org/2000/svg" xmlns:xlink="http://www.w3.org/1999/xlink" x="0px" y="0px"
	 width="24.563px" height="17.875px" viewBox="0 0 24.563 17.875" enable-background="new 0 0 24.563 17.875" xml:space="preserve">
<g>
	<path fill-rule="evenodd" clip-rule="evenodd" fill="#FFFFFF" d="M12.475,0.615c2.642,0.03,5.331,0.036,7.984,0.268
		c2.318,0.201,3.241,1.168,3.503,3.476c0.368,3.218,0.409,6.439-0.08,9.652c-0.314,2.061-1.328,2.963-3.432,3.139
		c-4.259,0.355-8.527,0.385-12.794,0.217c-1.426-0.055-2.85-0.182-4.27-0.336c-1.403-0.148-2.325-0.971-2.62-2.326
		c-0.251-1.145-0.392-2.324-0.441-3.496C0.218,8.736,0.212,6.262,0.637,3.81C0.94,2.059,1.965,1.058,3.737,0.897
		C5.255,0.758,6.78,0.673,8.303,0.625C9.691,0.58,11.084,0.615,12.475,0.615C12.477,0.554,12.473,0.676,12.475,0.615z M16.003,9.008
		c-2.104-1.199-4.102-2.336-6.128-3.491c0,2.375,0,4.645,0,6.989C11.923,11.334,13.91,10.205,16.003,9.008z"/>
	<path fill-rule="evenodd" clip-rule="evenodd" fill="none" stroke="#FFFFFF" stroke-width="0.5071" stroke-miterlimit="10" d="
		M16.003,9.008c-2.093,1.197-4.08,2.326-6.128,3.498c0-2.344,0-4.613,0-6.989C11.901,6.671,13.898,7.809,16.003,9.008z"/>
</g>
</svg>
