<?xml version="1.0" encoding="utf-8"?>
<!-- Generator: Adobe Illustrator 16.0.0, SVG Export Plug-In . SVG Version: 6.00 Build 0)  -->
<!DOCTYPE svg PUBLIC "-//W3C//DTD SVG 1.1//EN" "http://www.w3.org/Graphics/SVG/1.1/DTD/svg11.dtd">
<svg version="1.1" id="圖層_1" xmlns="http://www.w3.org/2000/svg" xmlns:xlink="http://www.w3.org/1999/xlink" x="0px" y="0px"
	 width="690px" height="670px" viewBox="0 0 841.89 595.28" enable-background="new 0 0 841.89 595.28" xml:space="preserve">
<g>
	<g>
		<defs>
			<path id="SVGID_1_" d="M65.332,62.703c-14.093,0-25.517,9.575-25.517,21.385v397.18c0,11.809,11.423,21.385,25.517,21.385
				h687.147c14.097,0,25.521-9.576,25.521-21.385V84.088c0-11.81-11.424-21.385-25.521-21.385H65.332z"/>
		</defs>
		<clipPath id="SVGID_2_">
			<use xlink:href="#SVGID_1_"  overflow="visible"/>
		</clipPath>
		<g opacity="0.8" clip-path="url(#SVGID_2_)">
			<g>
				<defs>
					<rect id="SVGID_3_" x="39.815" y="62.698" width="738.187" height="439.96"/>
				</defs>
				<clipPath id="SVGID_4_">
					<use xlink:href="#SVGID_3_"  overflow="visible"/>
				</clipPath>
				<g clip-path="url(#SVGID_4_)">
					<defs>
						<rect id="SVGID_5_" x="39.815" y="62.703" width="738.187" height="439.952"/>
					</defs>
					<clipPath id="SVGID_6_">
						<use xlink:href="#SVGID_5_"  overflow="visible"/>
					</clipPath>
					<path clip-path="url(#SVGID_6_)" fill="#87CCC7" d="M752.483,502.654H65.333c-14.093,0-25.516-9.574-25.516-21.383V84.09
						c0-11.811,11.423-21.385,25.516-21.385h687.15c14.095,0,25.517,9.574,25.517,21.385v397.181
						C778,493.08,766.578,502.654,752.483,502.654"/>
				</g>
			</g>
		</g>
	</g>
	<g>
		<defs>
			<path id="SVGID_7_" d="M39.815,218.484V481.27c0,11.807,11.423,21.383,25.517,21.383h687.147
				c14.097,0,25.519-9.576,25.519-21.383V218.484H39.815z"/>
		</defs>
		<clipPath id="SVGID_8_">
			<use xlink:href="#SVGID_7_"  overflow="visible"/>
		</clipPath>
		<polyline clip-path="url(#SVGID_8_)" fill="#FFFFFF" points="13.583,501.354 53.528,389.646 99.68,342.191 149.542,342.191 
			181.594,280.323 233.829,264.822 286.65,224.899 357.124,218.482 408.121,218.482 524.097,224.868 585.227,264.723 
			642.209,327.488 694.813,355.051 750.969,414.08 813.35,424.535 854.924,501.35 		"/>
		<polygon clip-path="url(#SVGID_8_)" fill="#64B4D1" points="66.966,502.652 118.981,429.145 146.548,429.145 174.112,418.328 
			186.171,441.48 222.349,378.982 251.636,421.807 284.369,348.619 322.27,280.79 294.707,364.676 292.986,400.373 322.27,443.211 
			360.171,411.084 375.676,302.201 392.904,420.008 411.856,444.996 449.755,361.105 479.042,405.73 520.391,359.32 
			609.974,425.363 690.528,437.963 709.383,410.406 858.443,502.652 		"/>
		<path clip-path="url(#SVGID_8_)" fill="#366497" d="M70.55,495.211l21.573-24.043h26.621l49.108-5.807l7.804,25.723l32.59,3.209
			l26.618-9.381l27.542,9.289l24.327-21.984l12.85-29.297l-11.476-14.65l7.037-67.689l2.665,46.152c0,0,24.004,34.484,24.46,36.479
			c0.459,1.998,10.358,58.732,10.358,58.732H67.334L70.55,495.211z"/>
		<polygon clip-path="url(#SVGID_8_)" fill="#366497" points="370.571,491.031 381.299,415.436 375.373,304.352 387.118,396.689 
			425.896,471.627 434.213,433.477 466.266,479.463 489.147,468.939 503.479,445.486 522.313,491.291 561.424,491.291 
			568.811,464.168 579.245,481.023 619.974,491.359 662.146,480.98 737.416,491.291 787.053,491.291 805.179,492.039 
			814.418,484.846 855.005,501.943 362.872,501.943 		"/>
	</g>
	<g opacity="0.6">
		<g>
			<defs>
				<rect id="SVGID_9_" x="39.815" y="62.146" width="738.183" height="440.507"/>
			</defs>
			<clipPath id="SVGID_10_">
				<use xlink:href="#SVGID_9_"  overflow="visible"/>
			</clipPath>
			<path clip-path="url(#SVGID_10_)" fill="#FFFFFF" d="M752.479,502.654H65.332c-14.094,0-25.516-9.586-25.516-21.412V83.555
				c0-11.825,11.422-21.412,25.516-21.412h687.148c14.096,0,25.519,9.587,25.519,21.412v397.687
				C777.998,493.068,766.575,502.654,752.479,502.654"/>
		</g>
	</g>
	
		<text transform="matrix(0.9684 0 0 1 403.0957 286.4536)" fill="#FFFFFF" font-family="'MicrosoftJhengHeiBold'" font-size="12.0067">日</text>
	<path fill="none" d="M65.332,62.703c-14.093,0-25.517,9.575-25.517,21.385v397.18c0,11.809,11.423,21.385,25.517,21.385h687.147
		c14.097,0,25.521-9.576,25.521-21.385V84.088c0-11.81-11.424-21.385-25.521-21.385H65.332z"/>
</g>
</svg>
